<svg width="14" height="14" viewBox="0 0 14 14" fill="none" xmlns="http://www.w3.org/2000/svg">
<path d="M0.794118 8.67857H2.38235C2.81912 8.67857 3.17647 8.24464 3.17647 7.71429V5.78571C3.17647 5.25536 2.81912 4.82143 2.38235 4.82143H0.794118C0.357353 4.82143 0 5.25536 0 5.78571V7.71429C0 8.24464 0.357353 8.67857 0.794118 8.67857ZM0.794118 13.5H2.38235C2.81912 13.5 3.17647 13.0661 3.17647 12.5357V10.6071C3.17647 10.0768 2.81912 9.64286 2.38235 9.64286H0.794118C0.357353 9.64286 0 10.0768 0 10.6071V12.5357C0 13.0661 0.357353 13.5 0.794118 13.5ZM0.794118 3.85714H2.38235C2.81912 3.85714 3.17647 3.42321 3.17647 2.89286V0.964286C3.17647 0.433929 2.81912 0 2.38235 0H0.794118C0.357353 0 0 0.433929 0 0.964286V2.89286C0 3.42321 0.357353 3.85714 0.794118 3.85714ZM4.76471 8.67857H12.7059C13.1426 8.67857 13.5 8.24464 13.5 7.71429V5.78571C13.5 5.25536 13.1426 4.82143 12.7059 4.82143H4.76471C4.32794 4.82143 3.97059 5.25536 3.97059 5.78571V7.71429C3.97059 8.24464 4.32794 8.67857 4.76471 8.67857ZM4.76471 13.5H12.7059C13.1426 13.5 13.5 13.0661 13.5 12.5357V10.6071C13.5 10.0768 13.1426 9.64286 12.7059 9.64286H4.76471C4.32794 9.64286 3.97059 10.0768 3.97059 10.6071V12.5357C3.97059 13.0661 4.32794 13.5 4.76471 13.5ZM3.97059 0.964286V2.89286C3.97059 3.42321 4.32794 3.85714 4.76471 3.85714H12.7059C13.1426 3.85714 13.5 3.42321 13.5 2.89286V0.964286C13.5 0.433929 13.1426 0 12.7059 0H4.76471C4.32794 0 3.97059 0.433929 3.97059 0.964286Z" fill="white"/>
</svg>
