<svg width="121" height="127" viewBox="0 0 121 127" fill="none" xmlns="http://www.w3.org/2000/svg">
<path d="M17.4437 30.3239C25.6356 15.3422 29.0031 5.75035 34.8092 3.08454C40.6153 0.418738 45.3704 23.5837 45.3704 23.5837L58.3002 23.1713C58.3002 23.1713 77.3326 -1.56564 81.7778 0.0784691C86.223 1.72258 84.8401 27.2951 84.8401 27.2951C95.2407 40.5706 98.4534 48.222 99.1309 62.3467C99.1309 62.3467 115.617 71.9935 110.66 76.9511C106.233 81.3775 102.147 73.5462 101.467 79.675C100.786 85.8039 100.445 85.4634 99.5566 87.867C98.4021 89.2088 99.764 89.5293 106.233 86.4849C112.703 83.4404 114.405 82.553 116.789 82.553C119.172 82.553 125.982 87.6571 110.66 92.6137C95.3377 97.5704 97.856 93.9542 97.4597 94.7215C97.4597 98.0616 88.5278 107.936 86.1444 108.617C86.1444 108.617 82.0585 126.663 74.9082 126.663C67.7578 126.663 64.0124 113.724 64.0124 113.724C57.2026 114.065 59.586 115.086 51.0737 113.043C51.0737 113.043 53.402 126.663 46.726 126.663C39.4966 126.663 25.6356 105.233 25.6356 105.233C21.1105 103.509 11.5767 87.867 10.3241 82.553C10.3241 82.553 -1.05156 95.8361 0.079016 85.4835C1.14867 75.6888 10.3241 68.7994 10.3241 62.3301C10.3241 55.8607 9.25183 45.3055 17.4437 30.3239Z" fill="#FFE925"/>
<circle cx="43.2425" cy="45.9664" r="2.38344" fill="#2F2E2E"/>
<circle cx="62.31" cy="45.9664" r="2.38344" fill="#2F2E2E"/>
<path d="M52.7761 58.5646C52.813 58.5646 52.8496 58.5657 52.8865 58.5669C53.08 58.5729 53.2789 58.5791 53.5378 58.4198C53.8407 58.2333 54.3333 57.729 54.6981 56.3064C54.7403 56.1419 54.6984 55.9446 54.5606 55.7803L52.972 53.8869C52.6849 53.5448 52.1518 53.567 51.8941 53.9317L50.5973 55.7675C50.4897 55.9197 50.4547 56.0998 50.4894 56.2562C50.9192 58.1944 51.4989 58.5939 51.7411 58.6812C51.8752 58.7295 52.0134 58.7269 52.1658 58.6958C52.2436 58.6799 52.3138 58.6593 52.3971 58.6348L52.4001 58.6339L52.401 58.6336C52.4383 58.6226 52.4898 58.6075 52.5392 58.5956C52.5812 58.5854 52.6717 58.5646 52.7761 58.5646Z" fill="white" stroke="#2F2E2E" stroke-width="1.36197"/>
</svg>
