<svg width="120" height="127" viewBox="0 0 120 127" fill="none" xmlns="http://www.w3.org/2000/svg">
<path d="M17.3906 30.3239C25.5576 15.3422 28.9149 5.75035 34.7033 3.08454C40.4917 0.418738 45.2324 23.5837 45.2324 23.5837L58.1228 23.1713C58.1228 23.1713 77.0973 -1.56564 81.529 0.0784691C85.9607 1.72258 84.582 27.2951 84.582 27.2951C94.951 40.5706 98.1538 48.222 98.8293 62.3467C98.8293 62.3467 104.745 47.5834 108.026 57.2227C111.821 68.3754 101.607 78.3332 100.218 81.3976C99.6021 82.7569 99.6526 85.0682 99.2537 87.867C99.1753 88.4164 99.4605 89.5293 105.91 86.4849C112.36 83.4404 114.057 82.553 116.433 82.553C118.809 82.553 125.599 87.6571 110.323 92.6137C95.0476 97.5704 97.5583 93.9542 97.1631 94.7215C97.1631 98.0616 88.2585 107.936 85.8823 108.617C85.8823 108.617 81.8088 126.663 74.6802 126.663C67.5517 126.663 63.8177 113.724 63.8177 113.724C57.0286 114.065 59.4047 115.086 50.9184 113.043C50.9184 113.043 53.2395 126.663 46.5838 126.663C39.3764 126.663 25.5576 105.233 25.5576 105.233C21.0463 103.509 11.5415 87.867 10.2927 82.553C10.2927 82.553 -1.04836 95.8361 0.0787756 85.4835C1.14517 75.6888 10.2927 68.7994 10.2927 62.3301C10.2927 55.8607 9.22368 45.3055 17.3906 30.3239Z" fill="#FFE925"/>
<ellipse cx="43.1111" cy="45.9664" rx="2.37619" ry="2.38344" fill="#2F2E2E"/>
<ellipse cx="62.1203" cy="45.9664" rx="2.37619" ry="2.38344" fill="#2F2E2E"/>
<path d="M53.712 57.5645C54.9611 57.5645 55.7205 57.2564 56.2436 56.8026C56.7902 56.3284 57.202 55.59 57.544 54.4963C57.6885 54.0345 57.3244 53.4356 56.6387 53.4356L49.9157 53.4357C49.5992 53.4357 49.3291 53.5806 49.1673 53.7812C49.0131 53.9724 48.9637 54.199 49.0438 54.4356C49.4811 55.7274 50.0267 56.457 50.6874 56.8911C51.3632 57.3352 52.3011 57.5644 53.712 57.5645Z" fill="white" stroke="#2F2E2E" stroke-width="2"/>
<ellipse cx="62.5" cy="53" rx="1.5" ry="4" fill="#36C5F2"/>
<ellipse cx="43.5" cy="53" rx="1.5" ry="4" fill="#36C5F2"/>
</svg>
