<svg width="22" height="17" viewBox="0 0 22 17" fill="none" xmlns="http://www.w3.org/2000/svg">
<path d="M12.0855 3.593C15.5175 3.593 17.4654 5.86475 17.7481 8.60884H17.8348C18.3594 8.60812 18.879 8.71077 19.364 8.91091C19.8489 9.11105 20.2897 9.40476 20.6611 9.77528C21.0325 10.1458 21.3273 10.5858 21.5286 11.0703C21.73 11.5548 21.8339 12.0741 21.8345 12.5988C21.8337 13.1233 21.7297 13.6425 21.5283 14.1269C21.327 14.6112 21.0321 15.0511 20.6607 15.4215C20.2893 15.7919 19.8486 16.0855 19.3637 16.2856C18.8789 16.4857 18.3593 16.5883 17.8348 16.5876H6.3352C5.81067 16.5883 5.29114 16.4857 4.80626 16.2856C4.32138 16.0855 3.88066 15.7919 3.50926 15.4215C3.13785 15.0511 2.84304 14.6112 2.64165 14.1269C2.44027 13.6425 2.33625 13.1233 2.33554 12.5988C2.33611 12.0741 2.44002 11.5548 2.64134 11.0703C2.84267 10.5858 3.13746 10.1458 3.50887 9.77528C3.88029 9.40476 4.32106 9.11105 4.80601 8.91091C5.29096 8.71077 5.81058 8.60812 6.3352 8.60884H6.42187C6.70679 5.84634 8.65354 3.593 12.0855 3.593ZM8.83337 0.333252C10.5851 0.333252 12.1375 1.21617 13.0584 2.56709C12.7355 2.52849 12.4107 2.50932 12.0855 2.50967C8.84204 2.50967 6.48362 4.32642 5.65379 7.07375L5.58012 7.33375L5.51729 7.59159L5.29412 7.63384C4.44001 7.81546 3.64727 8.21456 2.99267 8.79248C2.33807 9.37041 1.84379 10.1076 1.5577 10.9326C0.98177 10.4909 0.554822 9.88346 0.334218 9.19197C0.113614 8.50049 0.109924 7.75805 0.323643 7.06441C0.537363 6.37076 0.958253 5.75914 1.52977 5.31172C2.10128 4.86429 2.79604 4.6025 3.5207 4.5615L3.79912 4.555C4.0086 3.37202 4.62793 2.30056 5.54847 1.52859C6.46901 0.75662 7.63198 0.333429 8.83337 0.333252Z" fill="white"/>
</svg>
