<svg width="344" height="339" viewBox="0 0 344 339" fill="none" xmlns="http://www.w3.org/2000/svg">
<mask id="path-1-inside-1_2133_11206" fill="white">
<path d="M85 13.5825C85 10.8211 87.2386 8.58252 90 8.58252H253C255.761 8.58252 258 10.8211 258 13.5825V335.782H85V13.5825Z"/>
</mask>
<path d="M85 13.5825C85 10.8211 87.2386 8.58252 90 8.58252H253C255.761 8.58252 258 10.8211 258 13.5825V335.782H85V13.5825Z" fill="#6E6E6E"/>
<path d="M84 13.5825C84 10.2688 86.6863 7.58252 90 7.58252H253C256.314 7.58252 259 10.2688 259 13.5825H257C257 11.3734 255.209 9.58252 253 9.58252H90C87.7909 9.58252 86 11.3734 86 13.5825H84ZM258 335.782H85H258ZM84 335.782V13.5825C84 10.2688 86.6863 7.58252 90 7.58252V9.58252C87.7909 9.58252 86 11.3734 86 13.5825V335.782H84ZM253 7.58252C256.314 7.58252 259 10.2688 259 13.5825V335.782H257V13.5825C257 11.3734 255.209 9.58252 253 9.58252V7.58252Z" fill="#D9D9D9" mask="url(#path-1-inside-1_2133_11206)"/>
<mask id="path-3-inside-2_2133_11206" fill="white">
<path d="M77 8.00001C77 3.58174 80.5817 0 85 0H258C262.418 0 266 3.58172 266 8V335.782H77V8.00001Z"/>
</mask>
<path d="M74 8C74 1.92487 78.9249 -3 85 -3H258C264.075 -3 269 1.92487 269 8H263C263 5.23858 260.761 3 258 3H85C82.2386 3 80 5.23858 80 8H74ZM266 335.782H77H266ZM74 335.782V8C74 1.92487 78.9249 -3 85 -3V3C82.2386 3 80 5.23858 80 8V335.782H74ZM258 -3C264.075 -3 269 1.92487 269 8V335.782H263V8C263 5.23858 260.761 3 258 3V-3Z" fill="#A29C9C" fill-opacity="0.5" mask="url(#path-3-inside-2_2133_11206)"/>
<path d="M86 13.6553C86 11.4461 87.7909 9.65527 90 9.65527H253C255.209 9.65527 257 11.4461 257 13.6553V33.2565H86V13.6553Z" fill="#04CAD6"/>
<rect x="95.5" y="14.4463" width="25.4615" height="13.1608" rx="4.5" fill="#04CAD6"/>
<rect x="95.5" y="14.4463" width="25.4615" height="13.1608" rx="4.5" stroke="white"/>
<path d="M99.6464 21.2998C99.4512 21.1046 99.4512 20.788 99.6464 20.5927L102.828 17.4108C103.024 17.2155 103.34 17.2155 103.536 17.4108C103.731 17.606 103.731 17.9226 103.536 18.1179L100.707 20.9463L103.536 23.7747C103.731 23.97 103.731 24.2866 103.536 24.4818C103.34 24.6771 103.024 24.6771 102.828 24.4818L99.6464 21.2998ZM101 21.4463L100 21.4463L100 20.4463L101 20.4463L101 21.4463Z" fill="white"/>
<path d="M108.76 20.7943H111.724V21.0623H108.76V20.7943ZM110.376 20.9423C110.576 21.5583 111.056 21.8903 111.864 22.0023C111.796 22.0663 111.716 22.1903 111.68 22.2703C110.824 22.1143 110.34 21.7263 110.1 20.9943L110.376 20.9423ZM110.044 20.2823H110.348C110.28 21.3543 110.08 21.9863 108.812 22.2783C108.784 22.2063 108.704 22.0903 108.648 22.0343C109.832 21.7823 109.984 21.2383 110.044 20.2823ZM108.596 19.3783H108.896V20.1983C108.896 20.7903 108.82 21.6303 108.372 22.2023C108.32 22.1503 108.188 22.0663 108.112 22.0343C108.548 21.4983 108.596 20.7383 108.596 20.1903V19.3783ZM108.744 19.3783H111.488V20.3223H108.744V20.0823H111.192V19.6143H108.744V19.3783ZM108.32 18.8103H111.7V19.0863H108.32V18.8103ZM112.952 19.0023C113.04 19.0103 113.152 19.0143 113.232 19.0143C113.444 19.0143 114.392 18.9863 114.604 18.9663C114.724 18.9543 114.78 18.9463 114.824 18.9303L115.008 19.1663C114.936 19.2143 114.856 19.2663 114.78 19.3263C114.584 19.4783 114.04 19.9463 113.728 20.2023C113.912 20.1423 114.104 20.1223 114.284 20.1223C114.948 20.1223 115.424 20.5183 115.424 21.0583C115.424 21.7023 114.892 22.1223 114.044 22.1223C113.5 22.1223 113.168 21.8863 113.168 21.5503C113.168 21.2783 113.416 21.0303 113.784 21.0303C114.316 21.0303 114.584 21.4063 114.612 21.8103L114.324 21.8583C114.3 21.5183 114.104 21.2743 113.784 21.2743C113.6 21.2743 113.46 21.3863 113.46 21.5263C113.46 21.7223 113.68 21.8383 113.996 21.8383C114.676 21.8383 115.104 21.5583 115.104 21.0583C115.104 20.6623 114.728 20.3703 114.204 20.3703C113.54 20.3703 113.18 20.6503 112.676 21.1663L112.444 20.9343C112.776 20.6623 113.292 20.2303 113.52 20.0343C113.744 19.8503 114.248 19.4303 114.448 19.2503C114.236 19.2623 113.436 19.2943 113.228 19.3063C113.136 19.3143 113.048 19.3183 112.96 19.3303L112.952 19.0023Z" fill="white"/>
<path d="M145.352 24.019V23.595C147.192 21.987 148.032 20.811 148.032 19.811C148.032 19.139 147.688 18.643 146.96 18.643C146.48 18.643 146.064 18.939 145.736 19.323L145.312 18.915C145.792 18.395 146.304 18.051 147.048 18.051C148.096 18.051 148.752 18.731 148.752 19.779C148.752 20.955 147.832 22.147 146.448 23.451C146.76 23.419 147.112 23.395 147.408 23.395H149.032V24.019H145.352ZM151.662 24.131C150.542 24.131 149.83 23.115 149.83 21.067C149.83 19.035 150.542 18.051 151.662 18.051C152.766 18.051 153.477 19.035 153.477 21.067C153.477 23.115 152.766 24.131 151.662 24.131ZM151.662 23.539C152.326 23.539 152.774 22.795 152.774 21.067C152.774 19.363 152.326 18.635 151.662 18.635C150.99 18.635 150.534 19.363 150.534 21.067C150.534 22.795 150.99 23.539 151.662 23.539ZM154.227 24.019V23.595C156.067 21.987 156.907 20.811 156.907 19.811C156.907 19.139 156.563 18.643 155.835 18.643C155.355 18.643 154.939 18.939 154.611 19.323L154.187 18.915C154.667 18.395 155.179 18.051 155.923 18.051C156.971 18.051 157.627 18.731 157.627 19.779C157.627 20.955 156.707 22.147 155.323 23.451C155.635 23.419 155.987 23.395 156.283 23.395H157.907V24.019H154.227ZM160.417 24.131C159.497 24.131 158.929 23.747 158.545 23.323L158.913 22.843C159.257 23.203 159.697 23.523 160.368 23.523C161.065 23.523 161.561 23.099 161.561 22.427C161.561 21.723 161.089 21.259 159.737 21.259V20.691C160.945 20.691 161.353 20.211 161.353 19.571C161.353 19.011 160.977 18.643 160.368 18.643C159.897 18.643 159.481 18.883 159.153 19.219L158.761 18.747C159.201 18.347 159.721 18.051 160.393 18.051C161.377 18.051 162.097 18.587 162.097 19.523C162.097 20.235 161.681 20.707 161.057 20.931V20.963C161.745 21.131 162.305 21.651 162.305 22.459C162.305 23.499 161.465 24.131 160.417 24.131ZM162.838 25.451L165.238 17.667H165.758L163.366 25.451H162.838ZM166.587 24.019V23.411H167.891V19.043H166.843V18.571C167.371 18.483 167.747 18.347 168.059 18.155H168.619V23.411H169.803V24.019H166.587ZM172.544 24.131C171.424 24.131 170.712 23.115 170.712 21.067C170.712 19.035 171.424 18.051 172.544 18.051C173.648 18.051 174.36 19.035 174.36 21.067C174.36 23.115 173.648 24.131 172.544 24.131ZM172.544 23.539C173.208 23.539 173.656 22.795 173.656 21.067C173.656 19.363 173.208 18.635 172.544 18.635C171.872 18.635 171.416 19.363 171.416 21.067C171.416 22.795 171.872 23.539 172.544 23.539ZM174.846 25.451L177.246 17.667H177.766L175.374 25.451H174.846ZM178.595 24.019V23.411H179.899V19.043H178.851V18.571C179.379 18.483 179.755 18.347 180.067 18.155H180.627V23.411H181.811V24.019H178.595ZM184.552 24.131C183.432 24.131 182.72 23.115 182.72 21.067C182.72 19.035 183.432 18.051 184.552 18.051C185.656 18.051 186.368 19.035 186.368 21.067C186.368 23.115 185.656 24.131 184.552 24.131ZM184.552 23.539C185.216 23.539 185.664 22.795 185.664 21.067C185.664 19.363 185.216 18.635 184.552 18.635C183.88 18.635 183.424 19.363 183.424 21.067C183.424 22.795 183.88 23.539 184.552 23.539ZM188.678 25.595C187.934 24.395 187.494 23.115 187.494 21.539C187.494 19.971 187.934 18.675 188.678 17.475L189.126 17.691C188.438 18.827 188.102 20.179 188.102 21.539C188.102 22.899 188.438 24.251 189.126 25.387L188.678 25.595ZM191.077 18.923L191.669 19.051C191.533 20.011 191.261 20.987 190.549 21.531L190.029 21.179C190.669 20.691 190.949 19.819 191.077 18.923ZM196.101 18.915L196.749 19.171C196.357 19.923 195.845 20.827 195.437 21.403L194.933 21.171C195.325 20.579 195.829 19.611 196.101 18.915ZM193.429 17.419H193.749V20.011C193.749 20.931 194.317 23.139 197.093 24.115C196.965 24.251 196.781 24.499 196.693 24.675C194.373 23.787 193.589 21.947 193.429 21.171C193.269 21.955 192.541 23.739 190.269 24.675C190.189 24.539 189.989 24.299 189.853 24.171C192.549 23.147 193.109 20.939 193.109 20.011V17.419H193.429ZM198.261 25.595L197.805 25.387C198.493 24.251 198.829 22.899 198.829 21.539C198.829 20.179 198.493 18.827 197.805 17.691L198.261 17.475C198.997 18.675 199.437 19.971 199.437 21.539C199.437 23.115 198.997 24.395 198.261 25.595Z" fill="white"/>
<path d="M235.513 24.0918V23.7208C237.123 22.3138 237.858 21.2848 237.858 20.4098C237.858 19.8218 237.557 19.3878 236.92 19.3878C236.5 19.3878 236.136 19.6468 235.849 19.9828L235.478 19.6258C235.898 19.1708 236.346 18.8698 236.997 18.8698C237.914 18.8698 238.488 19.4648 238.488 20.3818C238.488 21.4108 237.683 22.4538 236.472 23.5948C236.745 23.5668 237.053 23.5458 237.312 23.5458H238.733V24.0918H235.513ZM240.915 24.1898C240.117 24.1898 239.627 23.8538 239.277 23.5038L239.599 23.0838C239.886 23.3848 240.264 23.6578 240.852 23.6578C241.461 23.6578 241.944 23.1888 241.944 22.4468C241.944 21.7118 241.524 21.2708 240.887 21.2708C240.544 21.2708 240.327 21.3828 240.033 21.5788L239.69 21.3618L239.851 18.9608H242.35V19.5068H240.411L240.278 20.9908C240.509 20.8648 240.74 20.7878 241.048 20.7878C241.902 20.7878 242.595 21.2918 242.595 22.4258C242.595 23.5458 241.776 24.1898 240.915 24.1898ZM244.28 20.7528C243.755 20.7528 243.293 20.3608 243.293 19.7588C243.293 19.1428 243.755 18.7508 244.28 18.7508C244.805 18.7508 245.267 19.1428 245.267 19.7588C245.267 20.3608 244.805 20.7528 244.28 20.7528ZM244.28 20.3888C244.623 20.3888 244.875 20.1228 244.875 19.7588C244.875 19.3808 244.623 19.1148 244.28 19.1148C243.93 19.1148 243.692 19.3808 243.692 19.7588C243.692 20.1228 243.93 20.3888 244.28 20.3888ZM248.116 24.1898C246.814 24.1898 245.862 23.2098 245.862 21.5438C245.862 19.8848 246.835 18.8838 248.144 18.8838C248.76 18.8838 249.25 19.1848 249.551 19.5138L249.18 19.9338C248.907 19.6468 248.578 19.4648 248.158 19.4648C247.185 19.4648 246.555 20.2558 246.555 21.5228C246.555 22.8038 247.157 23.5948 248.13 23.5948C248.613 23.5948 248.97 23.3988 249.292 23.0418L249.67 23.4478C249.264 23.9238 248.76 24.1898 248.116 24.1898Z" fill="white"/>
<path d="M220.709 16.0918V17.5939M224.04 17.5669L223.047 18.6289M225.418 21.1317H224.014M224.04 24.6964L223.047 23.6344M220.709 26.1715V24.6694M217.378 24.6964L218.371 23.6344M216 21.1317H217.403M217.378 17.5669L218.371 18.6289M220.709 18.4273C221.209 18.4273 221.697 18.5859 222.113 18.8831C222.528 19.1803 222.852 19.6026 223.043 20.0968C223.234 20.5909 223.285 21.1347 223.187 21.6592C223.09 22.1838 222.849 22.6657 222.496 23.0439C222.142 23.4221 221.692 23.6797 221.202 23.784C220.712 23.8883 220.204 23.8348 219.742 23.6301C219.28 23.4254 218.886 23.0788 218.608 22.6341C218.33 22.1894 218.182 21.6665 218.182 21.1317C218.182 20.4144 218.448 19.7266 218.922 19.2194C219.396 18.7123 220.039 18.4273 220.709 18.4273Z" stroke="white" stroke-width="0.520833" stroke-linecap="round" stroke-linejoin="round"/>
<path d="M223.155 21.213C223.155 22.7772 222.174 23.6441 220.85 23.8801C219.389 23.8801 218.204 22.7772 218.204 21.213C218.204 19.6489 219.389 18.3809 220.85 18.3809C222.312 18.3809 223.155 19.6489 223.155 21.213Z" fill="white"/>
<path d="M98 62C98 56.4771 102.477 52 108 52H237C242.523 52 247 56.4772 247 62V314C247 319.523 242.523 324 237 324H108C102.477 324 98 319.523 98 314V62Z" fill="white"/>
<g filter="url(#filter0_d_2133_11206)">
<rect x="109" y="288" width="127" height="22" rx="11" fill="white" shape-rendering="crispEdges"/>
<rect x="108.75" y="287.75" width="127.5" height="22.5" rx="11.25" stroke="#00ABB6" stroke-width="0.5" shape-rendering="crispEdges"/>
<path d="M125.587 295.513C125.555 295.696 125.532 295.998 125.532 296.244C125.532 296.483 125.532 296.888 125.532 297.127H124.49C124.49 296.888 124.49 296.522 124.49 296.244C124.49 295.99 124.482 295.704 124.45 295.513H125.587ZM127.805 297.214C127.606 297.421 127.36 297.683 127.193 297.874C126.748 298.383 126.08 299.043 125.357 299.551C124.498 300.164 123.282 300.688 122.049 301.062L121.437 300.124C122.972 299.782 123.989 299.233 124.673 298.788C125.285 298.399 125.778 297.93 126.016 297.604C125.587 297.604 123.472 297.604 123.139 297.604C122.852 297.604 122.351 297.62 122.097 297.643V296.602C122.399 296.642 122.844 296.65 123.115 296.65C123.472 296.65 126.016 296.65 126.485 296.65C126.732 296.65 126.962 296.626 127.145 296.578L127.805 297.214ZM125.516 298.947C125.516 299.52 125.516 300.8 125.516 301.444C125.516 301.754 125.539 302.207 125.563 302.453H124.426C124.45 302.231 124.482 301.754 124.482 301.444C124.482 300.831 124.482 299.854 124.482 299.377L125.516 298.947ZM127.924 301.133C127.233 300.593 126.708 300.259 126.024 299.869L126.676 299.114C127.408 299.504 127.821 299.742 128.584 300.259L127.924 301.133ZM130.035 296.356C130.337 296.387 130.742 296.411 131.021 296.411H135.028C135.258 296.411 135.584 296.395 135.719 296.387C135.711 296.578 135.695 296.888 135.695 297.127V301.245C135.695 301.523 135.719 301.936 135.735 302.183H134.582C134.59 301.944 134.598 301.658 134.598 301.364V297.437H131.021C130.687 297.437 130.258 297.453 130.035 297.468V296.356ZM129.94 300.672C130.21 300.696 130.568 300.72 130.925 300.72H135.226V301.769H130.957C130.647 301.769 130.202 301.785 129.94 301.817V300.672ZM137.985 296.356C138.287 296.387 138.692 296.411 138.971 296.411H142.978C143.208 296.411 143.534 296.395 143.669 296.387C143.661 296.578 143.645 296.888 143.645 297.127V301.245C143.645 301.523 143.669 301.936 143.685 302.183H142.532C142.54 301.944 142.548 301.658 142.548 301.364V297.437H138.971C138.637 297.437 138.208 297.453 137.985 297.468V296.356ZM137.89 300.672C138.16 300.696 138.518 300.72 138.875 300.72H143.176V301.769H138.907C138.597 301.769 138.152 301.785 137.89 301.817V300.672ZM149.393 296.554C149.282 297.365 149.123 298.295 148.845 299.233C148.368 300.839 147.684 301.825 146.817 301.825C145.927 301.825 145.196 300.847 145.196 299.504C145.196 297.675 146.794 296.101 148.853 296.101C150.816 296.101 152.064 297.468 152.064 299.21C152.064 300.879 151.039 302.064 149.035 302.374L148.431 301.436C148.741 301.396 148.964 301.356 149.179 301.308C150.188 301.062 150.983 300.338 150.983 299.17C150.983 297.922 150.204 297.031 148.829 297.031C147.143 297.031 146.221 298.407 146.221 299.408C146.221 300.211 146.539 300.601 146.841 300.601C147.183 300.601 147.485 300.092 147.819 299.019C148.05 298.271 148.225 297.357 148.304 296.522L149.393 296.554ZM160.229 296.626C160.15 296.729 159.998 296.92 159.927 297.031C159.553 297.651 158.798 298.661 158.011 299.218L157.184 298.558C157.828 298.168 158.448 297.468 158.655 297.079C158.17 297.079 155.006 297.079 154.505 297.079C154.179 297.079 153.909 297.095 153.535 297.135V296.022C153.845 296.069 154.179 296.109 154.505 296.109C155.006 296.109 158.377 296.109 158.79 296.109C159.013 296.109 159.45 296.077 159.601 296.038L160.229 296.626ZM156.993 297.691C156.993 299.663 156.946 301.285 154.783 302.453L153.853 301.698C154.115 301.61 154.402 301.475 154.696 301.253C155.698 300.553 155.888 299.718 155.888 298.415C155.888 298.16 155.88 297.953 155.841 297.691H156.993ZM166.009 296.085C166.231 296.419 166.557 296.928 166.732 297.294L166.048 297.596C165.81 297.095 165.635 296.777 165.341 296.371L166.009 296.085ZM167.05 295.656C167.289 295.974 167.623 296.467 167.797 296.825L167.13 297.158C166.875 296.65 166.684 296.356 166.39 295.966L167.05 295.656ZM162.845 301.356C162.845 300.752 162.845 297.461 162.845 296.785C162.845 296.499 162.813 296.109 162.757 295.831H164.005C163.973 296.109 163.934 296.459 163.934 296.785C163.934 297.667 163.934 300.768 163.934 301.356C163.934 301.587 163.973 302.143 164.005 302.461H162.765C162.813 302.151 162.845 301.674 162.845 301.356ZM163.695 297.882C164.761 298.176 166.47 298.804 167.257 299.194L166.804 300.291C165.905 299.822 164.562 299.313 163.695 299.027V297.882ZM174.738 295.664C174.937 295.95 175.223 296.459 175.374 296.753L174.73 297.023C174.571 296.697 174.324 296.228 174.11 295.918L174.738 295.664ZM175.684 295.306C175.891 295.6 176.185 296.109 176.32 296.387L175.692 296.658C175.525 296.324 175.27 295.863 175.048 295.561L175.684 295.306ZM170.071 299.528C170.421 298.645 170.723 297.524 170.826 296.507L171.979 296.753C171.916 296.976 171.82 297.365 171.788 297.548C171.677 298.105 171.391 299.194 171.113 299.933C170.826 300.704 170.357 301.61 169.944 302.207L168.831 301.738C169.324 301.086 169.793 300.235 170.071 299.528ZM173.99 299.369C173.688 298.534 173.18 297.357 172.838 296.753L173.895 296.411C174.229 297.023 174.77 298.248 175.072 299.011C175.358 299.734 175.779 300.998 175.994 301.785L174.817 302.167C174.603 301.229 174.308 300.227 173.99 299.369ZM176.988 298.915C178.411 298.55 179.571 298.033 180.462 297.484C181.273 296.984 182.179 296.189 182.696 295.561L183.554 296.371C182.831 297.103 181.861 297.85 180.923 298.415C180.025 298.947 178.737 299.543 177.481 299.917L176.988 298.915ZM180.295 298.001L181.424 297.731V301.316C181.424 301.666 181.44 302.159 181.495 302.358H180.231C180.263 302.167 180.295 301.666 180.295 301.316V298.001ZM190.826 296.618C190.763 296.705 190.62 296.944 190.548 297.111C190.222 297.866 189.634 298.947 188.95 299.742C188.06 300.768 186.859 301.754 185.627 302.334L184.8 301.475C186.088 300.998 187.312 300.028 188.06 299.202C188.584 298.605 189.069 297.818 189.252 297.254C188.918 297.254 186.891 297.254 186.549 297.254C186.223 297.254 185.786 297.294 185.611 297.31V296.173C185.826 296.204 186.319 296.228 186.549 296.228C186.971 296.228 189.006 296.228 189.356 296.228C189.705 296.228 190.015 296.189 190.182 296.133L190.826 296.618ZM189.054 299.082C189.872 299.75 191.001 300.935 191.518 301.571L190.612 302.358C190.023 301.539 189.157 300.593 188.306 299.822L189.054 299.082ZM196.018 295.624C195.954 295.918 195.851 296.387 195.628 296.96C195.461 297.349 195.231 297.802 195.008 298.12C195.223 298.025 195.644 297.969 195.914 297.969C196.574 297.969 197.075 298.359 197.075 299.098C197.075 299.528 197.099 300.394 197.107 300.895H196.153C196.185 300.521 196.201 299.846 196.193 299.416C196.193 298.907 195.875 298.741 195.541 298.741C195.103 298.741 194.603 299.003 194.301 299.289C194.062 299.528 193.839 299.814 193.569 300.164L192.718 299.528C193.736 298.589 194.348 297.731 194.682 296.856C194.841 296.427 194.944 295.942 194.968 295.537L196.018 295.624ZM193.021 296.363C193.426 296.419 194.014 296.451 194.42 296.451C195.469 296.451 196.908 296.395 198.061 296.189L198.053 297.111C196.932 297.27 195.334 297.341 194.364 297.341C194.038 297.341 193.458 297.325 193.021 297.286V296.363ZM199.317 298.621C199.071 298.693 198.641 298.852 198.371 298.955C197.854 299.154 197.139 299.44 196.391 299.822C195.668 300.195 195.278 300.537 195.278 300.974C195.278 301.412 195.66 301.531 196.431 301.531C197.107 301.531 197.997 301.444 198.697 301.3L198.665 302.326C198.132 302.397 197.163 302.469 196.407 302.469C195.167 302.469 194.237 302.159 194.237 301.133C194.237 300.028 195.374 299.377 196.328 298.9C197.059 298.518 197.56 298.327 198.037 298.105C198.347 297.969 198.625 297.842 198.927 297.691L199.317 298.621ZM200.597 297.532H207.569V299.273H206.631V298.359H201.487V299.273H200.597V297.532ZM201.75 298.971H205.939V299.846H201.75V298.971ZM206.631 295.203L207.275 295.974C205.478 296.324 202.998 296.499 200.883 296.562C200.867 296.324 200.756 295.958 200.668 295.751C202.775 295.68 205.168 295.489 206.631 295.203ZM201.368 296.713L202.203 296.483C202.386 296.769 202.584 297.151 202.656 297.413L201.781 297.675C201.718 297.413 201.535 297.015 201.368 296.713ZM203.467 296.546L204.31 296.356C204.477 296.674 204.636 297.103 204.675 297.389L203.785 297.604C203.753 297.325 203.618 296.88 203.467 296.546ZM205.995 296.34L207.005 296.578C206.726 297.071 206.408 297.588 206.17 297.93L205.391 297.699C205.605 297.317 205.86 296.753 205.995 296.34ZM205.59 298.971H205.788L205.955 298.939L206.599 299.321C205.653 301.404 203.475 302.286 200.971 302.644C200.875 302.405 200.605 301.984 200.414 301.785C202.863 301.539 204.874 300.815 205.59 299.122V298.971ZM202.688 299.615C203.578 300.823 205.399 301.515 207.712 301.73C207.513 301.944 207.251 302.358 207.132 302.628C204.739 302.318 202.966 301.483 201.853 299.957L202.688 299.615ZM214.239 295.68C214.207 295.855 214.199 296.045 214.199 296.228C214.183 296.594 214.199 298.097 214.199 298.566C214.199 300.434 214.056 301.595 212.474 302.596L211.552 301.881C211.862 301.746 212.26 301.491 212.482 301.245C213.086 300.609 213.222 299.893 213.222 298.558C213.222 297.961 213.206 296.674 213.166 296.228C213.15 296.038 213.11 295.807 213.078 295.68H214.239ZM211.099 297.238C211.488 297.294 211.878 297.317 212.307 297.317C213.333 297.317 214.605 297.246 215.384 297.103V298.136C214.629 298.224 213.404 298.287 212.331 298.287C211.981 298.287 211.496 298.264 211.099 298.24V297.238ZM210.28 295.815C210.216 296.014 210.137 296.3 210.097 296.467C209.898 297.349 209.612 299.019 209.827 300.005C209.93 299.758 210.081 299.369 210.208 299.082L210.709 299.4C210.471 300.084 210.264 300.879 210.169 301.332C210.137 301.459 210.113 301.634 210.121 301.722C210.121 301.809 210.129 301.944 210.137 302.056L209.247 302.143C209.072 301.658 208.793 300.553 208.793 299.567C208.793 298.264 208.952 297.039 209.056 296.387C209.088 296.173 209.095 295.902 209.103 295.704L210.28 295.815ZM217.753 295.95C217.976 295.974 218.246 295.99 218.469 295.99C218.898 295.99 220.591 295.95 221.044 295.91C221.378 295.886 221.561 295.855 221.656 295.823L222.165 296.538C221.982 296.658 221.792 296.769 221.617 296.904C221.187 297.206 220.353 297.906 219.844 298.303C220.114 298.232 220.353 298.216 220.599 298.216C221.951 298.216 222.976 299.059 222.976 300.211C222.976 301.467 222.022 302.461 220.098 302.461C218.993 302.461 218.158 301.96 218.158 301.157C218.158 300.513 218.747 299.925 219.589 299.925C220.679 299.925 221.283 300.656 221.307 301.531L220.377 301.65C220.361 301.078 220.059 300.68 219.589 300.68C219.295 300.68 219.097 300.863 219.097 301.07C219.097 301.364 219.423 301.563 219.907 301.563C221.251 301.563 221.935 301.054 221.935 300.203C221.935 299.48 221.219 298.995 220.289 298.995C219.065 298.995 218.278 299.647 217.427 300.609L216.704 299.861C217.268 299.416 218.23 298.605 218.691 298.216C219.136 297.85 219.971 297.182 220.361 296.833C219.955 296.848 218.858 296.888 218.429 296.92C218.214 296.936 217.968 296.952 217.785 296.984L217.753 295.95Z" fill="white"/>
</g>
<path d="M144.739 167.297C150.251 157.269 152.518 150.849 156.425 149.065C160.332 147.28 163.532 162.786 163.532 162.786L172.233 162.51C172.233 162.51 185.041 145.952 188.032 147.053C191.023 148.153 190.093 165.27 190.093 165.27C197.092 174.156 199.254 179.278 199.71 188.732C199.71 188.732 210.804 195.189 207.468 198.508C204.489 201.47 201.74 196.229 201.282 200.331C200.823 204.433 200.594 204.205 199.996 205.814C199.219 206.712 200.136 206.927 204.489 204.889C208.843 202.851 209.989 202.257 211.592 202.257C213.196 202.257 217.779 205.674 207.468 208.991C197.157 212.309 198.852 209.889 198.585 210.402C198.585 212.638 192.574 219.247 190.971 219.703C190.971 219.703 188.221 231.782 183.409 231.782C178.597 231.782 176.077 223.122 176.077 223.122C171.494 223.35 173.098 224.033 167.37 222.666C167.37 222.666 168.937 231.782 164.444 231.782C159.579 231.782 150.251 217.439 150.251 217.439C147.206 216.285 140.791 205.814 139.948 202.257C139.948 202.257 132.292 211.148 133.053 204.219C133.773 197.663 139.948 193.051 139.948 188.721C139.948 184.391 139.226 177.325 144.739 167.297Z" fill="#FFBBDC"/>
<ellipse cx="162.1" cy="177.768" rx="1.60393" ry="1.59537" fill="#2F2E2E"/>
<ellipse cx="174.931" cy="177.768" rx="1.60393" ry="1.59537" fill="#2F2E2E"/>
<path d="M165.341 183.954C164.507 184.718 166.006 185.933 168.083 185.971C170.16 186.01 171.986 185.093 171.299 183.954C170.612 182.814 170.399 184.587 168.322 184.549C166.246 184.51 166.176 183.19 165.341 183.954Z" fill="black"/>
<g filter="url(#filter1_d_2133_11206)">
<rect x="108" y="253" width="129" height="22" rx="11" fill="#00ABB6" shape-rendering="crispEdges"/>
<path d="M125.587 260.513C125.555 260.696 125.532 260.998 125.532 261.244C125.532 261.483 125.532 261.888 125.532 262.127H124.49C124.49 261.888 124.49 261.522 124.49 261.244C124.49 260.99 124.482 260.704 124.45 260.513H125.587ZM127.805 262.214C127.606 262.421 127.36 262.683 127.193 262.874C126.748 263.383 126.08 264.043 125.357 264.551C124.498 265.164 123.282 265.688 122.049 266.062L121.437 265.124C122.972 264.782 123.989 264.233 124.673 263.788C125.285 263.399 125.778 262.93 126.016 262.604C125.587 262.604 123.472 262.604 123.139 262.604C122.852 262.604 122.351 262.62 122.097 262.643V261.602C122.399 261.642 122.844 261.65 123.115 261.65C123.472 261.65 126.016 261.65 126.485 261.65C126.732 261.65 126.962 261.626 127.145 261.578L127.805 262.214ZM125.516 263.947C125.516 264.52 125.516 265.8 125.516 266.444C125.516 266.754 125.539 267.207 125.563 267.453H124.426C124.45 267.231 124.482 266.754 124.482 266.444C124.482 265.831 124.482 264.854 124.482 264.377L125.516 263.947ZM127.924 266.133C127.233 265.593 126.708 265.259 126.024 264.869L126.676 264.114C127.408 264.504 127.821 264.742 128.584 265.259L127.924 266.133ZM130.035 261.356C130.337 261.387 130.742 261.411 131.021 261.411H135.028C135.258 261.411 135.584 261.395 135.719 261.387C135.711 261.578 135.695 261.888 135.695 262.127V266.245C135.695 266.523 135.719 266.936 135.735 267.183H134.582C134.59 266.944 134.598 266.658 134.598 266.364V262.437H131.021C130.687 262.437 130.258 262.453 130.035 262.468V261.356ZM129.94 265.672C130.21 265.696 130.568 265.72 130.925 265.72H135.226V266.769H130.957C130.647 266.769 130.202 266.785 129.94 266.817V265.672ZM137.985 261.356C138.287 261.387 138.692 261.411 138.971 261.411H142.978C143.208 261.411 143.534 261.395 143.669 261.387C143.661 261.578 143.645 261.888 143.645 262.127V266.245C143.645 266.523 143.669 266.936 143.685 267.183H142.532C142.54 266.944 142.548 266.658 142.548 266.364V262.437H138.971C138.637 262.437 138.208 262.453 137.985 262.468V261.356ZM137.89 265.672C138.16 265.696 138.518 265.72 138.875 265.72H143.176V266.769H138.907C138.597 266.769 138.152 266.785 137.89 266.817V265.672ZM149.393 261.554C149.282 262.365 149.123 263.295 148.845 264.233C148.368 265.839 147.684 266.825 146.817 266.825C145.927 266.825 145.196 265.847 145.196 264.504C145.196 262.675 146.794 261.101 148.853 261.101C150.816 261.101 152.064 262.468 152.064 264.21C152.064 265.879 151.039 267.064 149.035 267.374L148.431 266.436C148.741 266.396 148.964 266.356 149.179 266.308C150.188 266.062 150.983 265.338 150.983 264.17C150.983 262.922 150.204 262.031 148.829 262.031C147.143 262.031 146.221 263.407 146.221 264.408C146.221 265.211 146.539 265.601 146.841 265.601C147.183 265.601 147.485 265.092 147.819 264.019C148.05 263.271 148.225 262.357 148.304 261.522L149.393 261.554ZM160.229 261.626C160.15 261.729 159.998 261.92 159.927 262.031C159.553 262.651 158.798 263.661 158.011 264.218L157.184 263.558C157.828 263.168 158.448 262.468 158.655 262.079C158.17 262.079 155.006 262.079 154.505 262.079C154.179 262.079 153.909 262.095 153.535 262.135V261.022C153.845 261.069 154.179 261.109 154.505 261.109C155.006 261.109 158.377 261.109 158.79 261.109C159.013 261.109 159.45 261.077 159.601 261.038L160.229 261.626ZM156.993 262.691C156.993 264.663 156.946 266.285 154.783 267.453L153.853 266.698C154.115 266.61 154.402 266.475 154.696 266.253C155.698 265.553 155.888 264.718 155.888 263.415C155.888 263.16 155.88 262.953 155.841 262.691H156.993ZM166.009 261.085C166.231 261.419 166.557 261.928 166.732 262.294L166.048 262.596C165.81 262.095 165.635 261.777 165.341 261.371L166.009 261.085ZM167.05 260.656C167.289 260.974 167.623 261.467 167.797 261.825L167.13 262.158C166.875 261.65 166.684 261.356 166.39 260.966L167.05 260.656ZM162.845 266.356C162.845 265.752 162.845 262.461 162.845 261.785C162.845 261.499 162.813 261.109 162.757 260.831H164.005C163.973 261.109 163.934 261.459 163.934 261.785C163.934 262.667 163.934 265.768 163.934 266.356C163.934 266.587 163.973 267.143 164.005 267.461H162.765C162.813 267.151 162.845 266.674 162.845 266.356ZM163.695 262.882C164.761 263.176 166.47 263.804 167.257 264.194L166.804 265.291C165.905 264.822 164.562 264.313 163.695 264.027V262.882ZM174.738 260.664C174.937 260.95 175.223 261.459 175.374 261.753L174.73 262.023C174.571 261.697 174.324 261.228 174.11 260.918L174.738 260.664ZM175.684 260.306C175.891 260.6 176.185 261.109 176.32 261.387L175.692 261.658C175.525 261.324 175.27 260.863 175.048 260.561L175.684 260.306ZM170.071 264.528C170.421 263.645 170.723 262.524 170.826 261.507L171.979 261.753C171.916 261.976 171.82 262.365 171.788 262.548C171.677 263.105 171.391 264.194 171.113 264.933C170.826 265.704 170.357 266.61 169.944 267.207L168.831 266.738C169.324 266.086 169.793 265.235 170.071 264.528ZM173.99 264.369C173.688 263.534 173.18 262.357 172.838 261.753L173.895 261.411C174.229 262.023 174.77 263.248 175.072 264.011C175.358 264.734 175.779 265.998 175.994 266.785L174.817 267.167C174.603 266.229 174.308 265.227 173.99 264.369ZM176.988 263.915C178.411 263.55 179.571 263.033 180.462 262.484C181.273 261.984 182.179 261.189 182.696 260.561L183.554 261.371C182.831 262.103 181.861 262.85 180.923 263.415C180.025 263.947 178.737 264.543 177.481 264.917L176.988 263.915ZM180.295 263.001L181.424 262.731V266.316C181.424 266.666 181.44 267.159 181.495 267.358H180.231C180.263 267.167 180.295 266.666 180.295 266.316V263.001ZM190.826 261.618C190.763 261.705 190.62 261.944 190.548 262.111C190.222 262.866 189.634 263.947 188.95 264.742C188.06 265.768 186.859 266.754 185.627 267.334L184.8 266.475C186.088 265.998 187.312 265.028 188.06 264.202C188.584 263.605 189.069 262.818 189.252 262.254C188.918 262.254 186.891 262.254 186.549 262.254C186.223 262.254 185.786 262.294 185.611 262.31V261.173C185.826 261.204 186.319 261.228 186.549 261.228C186.971 261.228 189.006 261.228 189.356 261.228C189.705 261.228 190.015 261.189 190.182 261.133L190.826 261.618ZM189.054 264.082C189.872 264.75 191.001 265.935 191.518 266.571L190.612 267.358C190.023 266.539 189.157 265.593 188.306 264.822L189.054 264.082ZM196.018 260.624C195.954 260.918 195.851 261.387 195.628 261.96C195.461 262.349 195.231 262.802 195.008 263.12C195.223 263.025 195.644 262.969 195.914 262.969C196.574 262.969 197.075 263.359 197.075 264.098C197.075 264.528 197.099 265.394 197.107 265.895H196.153C196.185 265.521 196.201 264.846 196.193 264.416C196.193 263.907 195.875 263.741 195.541 263.741C195.103 263.741 194.603 264.003 194.301 264.289C194.062 264.528 193.839 264.814 193.569 265.164L192.718 264.528C193.736 263.589 194.348 262.731 194.682 261.856C194.841 261.427 194.944 260.942 194.968 260.537L196.018 260.624ZM193.021 261.363C193.426 261.419 194.014 261.451 194.42 261.451C195.469 261.451 196.908 261.395 198.061 261.189L198.053 262.111C196.932 262.27 195.334 262.341 194.364 262.341C194.038 262.341 193.458 262.325 193.021 262.286V261.363ZM199.317 263.621C199.071 263.693 198.641 263.852 198.371 263.955C197.854 264.154 197.139 264.44 196.391 264.822C195.668 265.195 195.278 265.537 195.278 265.974C195.278 266.412 195.66 266.531 196.431 266.531C197.107 266.531 197.997 266.444 198.697 266.3L198.665 267.326C198.132 267.397 197.163 267.469 196.407 267.469C195.167 267.469 194.237 267.159 194.237 266.133C194.237 265.028 195.374 264.377 196.328 263.9C197.059 263.518 197.56 263.327 198.037 263.105C198.347 262.969 198.625 262.842 198.927 262.691L199.317 263.621ZM200.597 262.532H207.569V264.273H206.631V263.359H201.487V264.273H200.597V262.532ZM201.75 263.971H205.939V264.846H201.75V263.971ZM206.631 260.203L207.275 260.974C205.478 261.324 202.998 261.499 200.883 261.562C200.867 261.324 200.756 260.958 200.668 260.751C202.775 260.68 205.168 260.489 206.631 260.203ZM201.368 261.713L202.203 261.483C202.386 261.769 202.584 262.151 202.656 262.413L201.781 262.675C201.718 262.413 201.535 262.015 201.368 261.713ZM203.467 261.546L204.31 261.356C204.477 261.674 204.636 262.103 204.675 262.389L203.785 262.604C203.753 262.325 203.618 261.88 203.467 261.546ZM205.995 261.34L207.005 261.578C206.726 262.071 206.408 262.588 206.17 262.93L205.391 262.699C205.605 262.317 205.86 261.753 205.995 261.34ZM205.59 263.971H205.788L205.955 263.939L206.599 264.321C205.653 266.404 203.475 267.286 200.971 267.644C200.875 267.405 200.605 266.984 200.414 266.785C202.863 266.539 204.874 265.815 205.59 264.122V263.971ZM202.688 264.615C203.578 265.823 205.399 266.515 207.712 266.73C207.513 266.944 207.251 267.358 207.132 267.628C204.739 267.318 202.966 266.483 201.853 264.957L202.688 264.615ZM214.239 260.68C214.207 260.855 214.199 261.045 214.199 261.228C214.183 261.594 214.199 263.097 214.199 263.566C214.199 265.434 214.056 266.595 212.474 267.596L211.552 266.881C211.862 266.746 212.26 266.491 212.482 266.245C213.086 265.609 213.222 264.893 213.222 263.558C213.222 262.961 213.206 261.674 213.166 261.228C213.15 261.038 213.11 260.807 213.078 260.68H214.239ZM211.099 262.238C211.488 262.294 211.878 262.317 212.307 262.317C213.333 262.317 214.605 262.246 215.384 262.103V263.136C214.629 263.224 213.404 263.287 212.331 263.287C211.981 263.287 211.496 263.264 211.099 263.24V262.238ZM210.28 260.815C210.216 261.014 210.137 261.3 210.097 261.467C209.898 262.349 209.612 264.019 209.827 265.005C209.93 264.758 210.081 264.369 210.208 264.082L210.709 264.4C210.471 265.084 210.264 265.879 210.169 266.332C210.137 266.459 210.113 266.634 210.121 266.722C210.121 266.809 210.129 266.944 210.137 267.056L209.247 267.143C209.072 266.658 208.793 265.553 208.793 264.567C208.793 263.264 208.952 262.039 209.056 261.387C209.088 261.173 209.095 260.902 209.103 260.704L210.28 260.815ZM217.753 260.95C217.976 260.974 218.246 260.99 218.469 260.99C218.898 260.99 220.591 260.95 221.044 260.91C221.378 260.886 221.561 260.855 221.656 260.823L222.165 261.538C221.982 261.658 221.792 261.769 221.617 261.904C221.187 262.206 220.353 262.906 219.844 263.303C220.114 263.232 220.353 263.216 220.599 263.216C221.951 263.216 222.976 264.059 222.976 265.211C222.976 266.467 222.022 267.461 220.098 267.461C218.993 267.461 218.158 266.96 218.158 266.157C218.158 265.513 218.747 264.925 219.589 264.925C220.679 264.925 221.283 265.656 221.307 266.531L220.377 266.65C220.361 266.078 220.059 265.68 219.589 265.68C219.295 265.68 219.097 265.863 219.097 266.07C219.097 266.364 219.423 266.563 219.907 266.563C221.251 266.563 221.935 266.054 221.935 265.203C221.935 264.48 221.219 263.995 220.289 263.995C219.065 263.995 218.278 264.647 217.427 265.609L216.704 264.861C217.268 264.416 218.23 263.605 218.691 263.216C219.136 262.85 219.971 262.182 220.361 261.833C219.955 261.848 218.858 261.888 218.429 261.92C218.214 261.936 217.968 261.952 217.785 261.984L217.753 260.95Z" fill="white"/>
</g>
<path d="M153.323 295.481C153.269 295.226 153.205 295.006 153.132 294.796L154.428 294.586C154.446 294.76 154.483 295.07 154.519 295.289C154.611 295.892 155.515 300.512 155.706 301.443C155.77 301.708 155.852 302.037 155.935 302.338L154.62 302.566C154.574 302.228 154.556 301.918 154.492 301.644C154.355 300.822 153.469 296.221 153.323 295.481ZM150.831 296.65C151.114 296.632 151.388 296.613 151.68 296.577C152.456 296.485 155.651 295.992 156.473 295.828C156.756 295.782 157.103 295.7 157.322 295.636L157.551 296.842C157.35 296.851 156.975 296.905 156.701 296.942C155.734 297.097 152.593 297.599 151.908 297.718C151.625 297.773 151.388 297.828 151.077 297.91L150.831 296.65ZM150.84 299.325C151.077 299.316 151.497 299.27 151.78 299.224C152.757 299.088 156.09 298.549 157.14 298.348C157.496 298.284 157.834 298.202 158.08 298.138L158.317 299.343C158.071 299.361 157.697 299.425 157.359 299.48C156.199 299.654 152.912 300.192 152.009 300.366C151.616 300.439 151.296 300.494 151.096 300.548L150.84 299.325ZM162.782 296.202C162.809 296.422 162.873 296.659 162.928 296.896C163.239 297.992 164.097 301.133 164.325 301.89C164.371 302.055 164.498 302.457 164.562 302.639L163.33 302.95C163.293 302.703 163.239 302.402 163.165 302.146C162.937 301.352 162.106 298.092 161.814 297.143C161.75 296.915 161.65 296.686 161.549 296.495L162.782 296.202ZM167.164 297.618C166.772 298.412 165.859 299.791 165.22 300.466L164.206 299.964C164.681 299.544 165.311 298.777 165.558 298.33C165.083 298.412 161.367 299.188 160.618 299.352L160.335 298.266C160.618 298.238 160.874 298.211 161.175 298.156C161.668 298.083 165.32 297.389 165.968 297.243C166.124 297.207 166.306 297.152 166.425 297.097L167.164 297.618ZM170.46 295.061C171.09 295.49 172.277 296.44 172.816 296.997L171.885 297.946C171.41 297.435 170.259 296.44 169.593 295.983L170.46 295.061ZM169.31 301.142C170.743 300.941 171.921 300.475 172.807 299.955C174.368 299.024 175.555 297.636 176.139 296.403L176.842 297.682C176.157 298.923 174.943 300.183 173.473 301.069C172.542 301.626 171.364 302.128 170.086 302.347L169.31 301.142ZM179.965 300.786C179.965 300.037 179.965 296.951 179.965 295.846C179.965 295.536 179.937 295.07 179.892 294.796H181.252C181.206 295.07 181.17 295.536 181.17 295.846C181.17 296.942 181.17 299.453 181.17 300.466C181.17 301.041 181.334 301.233 182.329 301.233C183.288 301.233 184.311 301.114 185.214 300.932L185.169 302.173C184.42 302.283 183.324 302.365 182.338 302.365C180.266 302.365 179.965 301.872 179.965 300.786ZM185.707 296.778C185.625 296.905 185.497 297.115 185.415 297.271C185.014 298.038 184.183 299.288 183.525 299.937L182.521 299.343C183.124 298.804 183.717 297.965 183.973 297.49C183.416 297.599 179.198 298.439 178.038 298.695L177.819 297.499C179.061 297.353 183.352 296.513 184.183 296.312C184.438 296.248 184.667 296.184 184.831 296.093L185.707 296.778ZM191.103 301.799C191.149 301.626 191.176 301.379 191.176 301.133C191.176 300.649 191.176 296.549 191.176 295.81C191.176 295.399 191.112 295.043 191.112 295.025H192.464C192.464 295.043 192.4 295.408 192.4 295.819C192.4 296.549 192.4 300.028 192.4 300.585C193.148 300.265 194.043 299.544 194.664 298.658L195.358 299.672C194.6 300.658 193.294 301.644 192.263 302.164C192.071 302.265 191.961 302.365 191.87 302.429L191.103 301.799ZM186.876 301.671C187.689 301.105 188.182 300.265 188.428 299.48C188.693 298.704 188.702 296.969 188.702 295.874C188.702 295.499 188.666 295.262 188.611 295.034H189.953C189.953 295.07 189.889 295.481 189.889 295.856C189.889 296.942 189.862 298.868 189.624 299.791C189.341 300.813 188.775 301.717 187.99 302.411L186.876 301.671Z" fill="#00ABB6"/>
<line x1="277" y1="264" x2="237" y2="264" stroke="black" stroke-width="2"/>
<line x1="108" y1="300" x2="45" y2="300" stroke="black" stroke-width="2"/>
<rect x="254.5" y="242.5" width="89" height="59" rx="4.5" fill="white" stroke="black" stroke-linejoin="round"/>
<rect x="0.5" y="204.5" width="89" height="85" rx="4.5" fill="white" stroke="black" stroke-linejoin="round"/>
<path d="M9.44 219.69H18.59V220.51H9.44V219.69ZM21.45 218.41H28.56V219.03H21.45V218.41ZM21.59 221.33H27.31V221.95H21.59V221.33ZM23.06 217.54H23.77V220.09H26.21V217.54H26.94V220.69H23.06V217.54ZM27.11 221.33H27.26L27.4 221.29L27.87 221.55C26.77 223.63 24.21 224.47 21.52 224.81C21.46 224.62 21.32 224.34 21.2 224.17C23.73 223.93 26.2 223.15 27.11 221.44V221.33ZM23.37 221.85C24.32 223.18 26.39 223.93 28.81 224.18C28.65 224.34 28.46 224.63 28.37 224.82C25.89 224.5 23.81 223.65 22.72 222.09L23.37 221.85ZM24.1 215.61H24.87V216.97H24.1V215.61ZM20.77 216.6H28.63V217.28H20.77V216.6ZM20.4 216.6H21.12V219.48C21.12 221.04 20.99 223.3 20.13 224.82C20 224.69 19.68 224.48 19.51 224.4C20.33 222.97 20.4 220.94 20.4 219.48V216.6ZM33.31 216.93C33.26 216.68 33.2 216.46 33.13 216.25L34.02 216.1C34.04 216.28 34.08 216.57 34.12 216.79C34.18 217.23 35.28 222.72 35.42 223.38C35.49 223.66 35.57 224 35.67 224.29L34.75 224.46C34.7 224.12 34.67 223.81 34.6 223.52C34.5 222.89 33.43 217.45 33.31 216.93ZM30.49 218.38C30.74 218.36 31.01 218.34 31.33 218.31C32.23 218.21 35.68 217.66 36.63 217.47C36.92 217.42 37.18 217.36 37.35 217.31L37.51 218.15C37.36 218.16 37.06 218.21 36.79 218.25C35.76 218.41 32.35 218.95 31.47 219.1C31.2 219.15 30.96 219.2 30.67 219.27L30.49 218.38ZM30.46 221.26C30.7 221.25 31.08 221.21 31.34 221.17C32.41 221.03 36.13 220.42 37.33 220.2C37.71 220.13 38 220.06 38.21 220L38.38 220.84C38.17 220.86 37.85 220.92 37.48 220.98C36.15 221.18 32.54 221.77 31.53 221.95C31.14 222.02 30.86 222.08 30.64 222.14L30.46 221.26ZM43.45 217.88C43.47 218.06 43.53 218.27 43.59 218.53C43.82 219.36 44.91 223.32 45.12 224C45.18 224.19 45.27 224.5 45.34 224.68L44.48 224.91C44.46 224.68 44.41 224.42 44.34 224.18C44.13 223.46 43.06 219.43 42.83 218.69C42.76 218.45 42.68 218.25 42.59 218.09L43.45 217.88ZM48.25 219.26C47.83 220.1 46.8 221.51 46.11 222.18L45.41 221.82C46.03 221.29 46.79 220.36 47.13 219.77C46.69 219.85 42.01 220.79 41.3 220.94L41.1 220.18C41.38 220.15 41.63 220.12 41.93 220.06C42.43 219.98 46.79 219.16 47.36 219.03C47.49 219 47.64 218.95 47.74 218.9L48.25 219.26ZM52.07 216.68C52.77 217.15 54.06 218.19 54.61 218.74L53.99 219.38C53.48 218.86 52.24 217.78 51.49 217.29L52.07 216.68ZM51.21 223.38C52.95 223.12 54.25 222.51 55.2 221.92C56.75 220.95 57.96 219.47 58.54 218.23L59.02 219.09C58.34 220.33 57.18 221.69 55.67 222.64C54.66 223.27 53.4 223.89 51.73 224.2L51.21 223.38ZM63.05 222.72C63.05 221.8 63.05 218.26 63.05 217.2C63.05 216.9 63.04 216.57 62.99 216.28H63.93C63.89 216.57 63.86 216.91 63.86 217.2C63.86 218.25 63.86 221.52 63.86 222.51C63.86 223.2 64.12 223.42 65.31 223.42C66.47 223.42 67.44 223.32 68.43 223.12L68.4 223.98C67.51 224.11 66.51 224.19 65.26 224.19C63.4 224.19 63.05 223.7 63.05 222.72ZM68.86 218.25C68.78 218.36 68.68 218.53 68.61 218.65C68.15 219.48 67.37 220.74 66.56 221.56L65.87 221.15C66.62 220.46 67.35 219.36 67.65 218.77C67.34 218.83 61.95 219.91 60.75 220.17L60.59 219.33C61.87 219.18 66.98 218.15 67.74 217.97C67.95 217.92 68.15 217.86 68.27 217.79L68.86 218.25ZM75.43 223.79C75.47 223.64 75.5 223.43 75.5 223.23C75.5 222.77 75.5 217.87 75.5 217.24C75.5 216.86 75.45 216.58 75.45 216.5H76.37C76.36 216.58 76.32 216.87 76.32 217.25C76.32 217.87 76.32 222.71 76.32 223.01C77.25 222.59 78.48 221.68 79.24 220.55L79.72 221.24C78.85 222.41 77.47 223.43 76.31 224.01C76.14 224.09 76.04 224.18 75.96 224.23L75.43 223.79ZM70.85 223.75C71.7 223.15 72.29 222.26 72.59 221.29C72.89 220.37 72.89 218.38 72.89 217.26C72.89 216.97 72.87 216.75 72.82 216.54H73.74C73.73 216.65 73.69 216.96 73.69 217.25C73.69 218.36 73.66 220.51 73.39 221.51C73.09 222.58 72.45 223.55 71.61 224.25L70.85 223.75ZM12.4 230.21C12.35 230.54 12.32 230.89 12.3 231.22C12.26 232.35 12.18 234.72 12.18 236.21C12.18 237.31 12.87 237.69 13.82 237.69C15.65 237.69 16.69 236.67 17.41 235.63L17.97 236.31C17.29 237.26 15.99 238.51 13.8 238.51C12.36 238.51 11.37 237.92 11.37 236.28C11.37 234.8 11.47 232.27 11.47 231.22C11.47 230.85 11.44 230.5 11.38 230.21H12.4ZM19.7373 231.36C20.1173 231.35 20.4373 231.33 20.6373 231.31C21.2873 231.24 23.1673 231.06 25.0173 230.9C26.1073 230.81 27.0373 230.75 27.7073 230.73L27.7173 231.53C27.1373 231.52 26.2673 231.54 25.7573 231.68C24.3273 232.14 23.4573 233.67 23.4573 234.85C23.4573 236.8 25.2873 237.42 26.9073 237.49L26.6273 238.31C24.7673 238.24 22.6673 237.26 22.6673 235.02C22.6673 233.46 23.6173 232.19 24.5373 231.65C23.4573 231.76 20.9173 232.01 19.8273 232.24L19.7373 231.36ZM33.0192 230.14C32.9592 230.41 32.9292 230.62 32.8892 230.84C32.7592 231.96 32.3092 235.04 32.3092 236.12C32.3092 237.09 32.8592 237.68 33.9992 237.68C35.5192 237.68 36.4892 237.02 36.4892 235.98C36.4892 235.31 36.1292 234.57 35.3892 233.95L36.2692 233.76C36.9592 234.52 37.2992 235.22 37.2992 236.07C37.2992 237.56 35.9692 238.47 33.9892 238.47C32.6392 238.47 31.5392 237.87 31.5392 236.24C31.5392 235.17 32.0092 232.18 32.1192 230.8C32.1492 230.45 32.1492 230.27 32.1292 230.09L33.0192 230.14ZM29.8192 231.47C30.6592 231.74 31.8592 231.87 32.7492 231.87C33.5092 231.87 34.1992 231.83 34.7892 231.74L34.7692 232.5C34.1292 232.56 33.5392 232.59 32.7292 232.59C31.8492 232.59 30.6492 232.44 29.7692 232.2L29.8192 231.47ZM29.5692 233.96C30.5392 234.3 31.7092 234.39 32.6292 234.39C33.3192 234.39 34.0092 234.37 34.7092 234.27L34.6992 235.03C34.0292 235.1 33.4092 235.12 32.7392 235.12C31.6492 235.12 30.4392 235 29.5292 234.72L29.5692 233.96ZM40.8339 231.03C40.7839 231.26 40.7539 231.74 40.7439 232C40.7339 232.62 40.7439 233.54 40.8139 234.36C40.9839 236.03 41.4639 237.14 42.1839 237.14C42.6939 237.14 43.1639 236.11 43.4239 235.11L44.0539 235.82C43.4439 237.51 42.8439 238.09 42.1639 238.09C41.2139 238.09 40.3139 237.15 40.0339 234.56C39.9439 233.7 39.9239 232.48 39.9239 231.9C39.9239 231.67 39.9239 231.24 39.8639 231.01L40.8339 231.03ZM46.0339 231.3C46.9339 232.46 47.6539 234.59 47.8039 236.28L46.9939 236.6C46.8239 234.8 46.2139 232.74 45.2639 231.57L46.0339 231.3ZM49.5239 232.78C49.8939 232.72 50.2539 232.61 50.6339 232.5C51.4739 232.23 53.4439 231.51 54.9039 231.51C56.5539 231.51 57.8739 232.47 57.8739 234.14C57.8739 236.54 55.4939 237.69 52.4139 237.87L52.0539 237.04C54.6639 236.97 57.0039 236.17 57.0039 234.13C57.0039 233.08 56.2339 232.25 54.8839 232.25C53.2339 232.25 50.6939 233.35 49.8939 233.67L49.5239 232.78ZM59.7839 231.42C60.1639 231.41 60.4839 231.39 60.6839 231.37C61.3239 231.3 63.2139 231.12 65.0539 230.96C66.1539 230.87 67.0839 230.81 67.7539 230.79L67.7639 231.59C67.1839 231.58 66.3139 231.6 65.8039 231.74C64.3739 232.2 63.5039 233.73 63.5039 234.91C63.5039 236.86 65.3339 237.49 66.9539 237.55L66.6639 238.37C64.8139 238.3 62.7139 237.32 62.7139 235.08C62.7139 233.53 63.6639 232.25 64.5739 231.71C63.5039 231.82 60.9539 232.07 59.8739 232.3L59.7839 231.42ZM66.3139 232.81C66.5439 233.14 66.9239 233.76 67.1439 234.21L66.6239 234.44C66.3939 233.96 66.1139 233.45 65.8139 233.03L66.3139 232.81ZM67.4039 232.39C67.6539 232.72 68.0439 233.33 68.2739 233.77L67.7639 234.02C67.5239 233.54 67.2239 233.04 66.9139 232.62L67.4039 232.39ZM73.6239 230.14C73.5639 230.41 73.5339 230.62 73.4939 230.84C73.3639 231.96 72.9139 235.04 72.9139 236.12C72.9139 237.09 73.4639 237.68 74.6039 237.68C76.1239 237.68 77.0939 237.02 77.0939 235.98C77.0939 235.31 76.7339 234.57 75.9939 233.95L76.8739 233.76C77.5639 234.52 77.9039 235.22 77.9039 236.07C77.9039 237.56 76.5739 238.47 74.5939 238.47C73.2439 238.47 72.1439 237.87 72.1439 236.24C72.1439 235.17 72.6139 232.18 72.7239 230.8C72.7539 230.45 72.7539 230.27 72.7339 230.09L73.6239 230.14ZM70.4239 231.47C71.2639 231.74 72.4639 231.87 73.3539 231.87C74.1139 231.87 74.8039 231.83 75.3939 231.74L75.3739 232.5C74.7339 232.56 74.1439 232.59 73.3339 232.59C72.4539 232.59 71.2539 232.44 70.3739 232.2L70.4239 231.47ZM70.1739 233.96C71.1439 234.3 72.3139 234.39 73.2339 234.39C73.9239 234.39 74.6139 234.37 75.3139 234.27L75.3039 235.03C74.6339 235.1 74.0139 235.12 73.3439 235.12C72.2539 235.12 71.0439 235 70.1339 234.72L70.1739 233.96ZM14.07 244.14C14.05 244.37 14.03 244.71 14.02 244.95C13.89 249.03 12.79 250.9 10.82 252.27L10.09 251.68C10.41 251.51 10.81 251.23 11.11 250.95C12.36 249.82 13.18 248.13 13.2 244.97C13.2 244.74 13.18 244.37 13.14 244.14H14.07ZM17.55 246.22C17.52 246.39 17.5 246.57 17.49 246.7C17.46 247.67 17.33 250.57 16.88 251.53C16.68 251.96 16.36 252.14 15.81 252.14C15.31 252.14 14.73 252.11 14.21 252.07L14.11 251.24C14.65 251.31 15.17 251.36 15.6 251.36C15.88 251.36 16.07 251.27 16.18 251.03C16.56 250.26 16.69 247.8 16.69 246.73H11.42C11.02 246.73 10.62 246.74 10.26 246.77V245.93C10.61 245.96 11.02 245.98 11.41 245.98H16.35C16.62 245.98 16.81 245.96 16.98 245.93L17.55 246.22ZM24.6 244C24.56 244.31 24.55 244.54 24.55 244.75C24.55 244.98 24.55 245.73 24.55 246.08H23.7C23.7 245.69 23.7 244.98 23.7 244.75C23.7 244.54 23.69 244.31 23.65 244H24.6ZM28.01 245.94C27.96 246.08 27.9 246.35 27.87 246.54C27.73 247.34 27.44 248.59 26.88 249.54C26.14 250.85 24.76 251.87 22.93 252.37L22.28 251.63C22.61 251.57 22.99 251.47 23.31 251.35C24.32 251.02 25.41 250.28 26.03 249.33C26.57 248.48 26.88 247.27 26.97 246.42H21.39C21.39 246.83 21.39 247.9 21.39 248.21C21.39 248.38 21.4 248.65 21.42 248.8H20.55C20.58 248.63 20.59 248.36 20.59 248.16C20.59 247.84 20.59 246.75 20.59 246.4C20.59 246.19 20.59 245.85 20.55 245.64C20.84 245.66 21.14 245.68 21.49 245.68H26.79C27.16 245.68 27.34 245.64 27.47 245.6L28.01 245.94ZM31.67 244.68C32.37 245.15 33.66 246.19 34.21 246.74L33.59 247.38C33.08 246.86 31.84 245.78 31.09 245.29L31.67 244.68ZM30.81 251.38C32.55 251.12 33.85 250.51 34.8 249.92C36.35 248.95 37.56 247.47 38.14 246.23L38.62 247.09C37.94 248.33 36.78 249.69 35.27 250.64C34.26 251.27 33 251.89 31.33 252.2L30.81 251.38ZM42.65 250.72C42.65 249.8 42.65 246.26 42.65 245.2C42.65 244.9 42.64 244.57 42.59 244.28H43.53C43.49 244.57 43.46 244.91 43.46 245.2C43.46 246.25 43.46 249.52 43.46 250.51C43.46 251.2 43.72 251.42 44.91 251.42C46.07 251.42 47.04 251.32 48.03 251.12L48 251.98C47.11 252.11 46.11 252.19 44.86 252.19C43 252.19 42.65 251.7 42.65 250.72ZM48.46 246.25C48.38 246.36 48.28 246.53 48.21 246.65C47.75 247.48 46.97 248.74 46.16 249.56L45.47 249.15C46.22 248.46 46.95 247.36 47.25 246.77C46.94 246.83 41.55 247.91 40.35 248.17L40.19 247.33C41.47 247.18 46.58 246.15 47.34 245.97C47.55 245.92 47.75 245.86 47.87 245.79L48.46 246.25ZM57.55 244.42C57.53 244.66 57.52 244.95 57.52 245.29C57.52 245.68 57.52 246.53 57.52 246.9C57.52 249.31 57.2 250.1 56.47 250.95C55.83 251.73 54.83 252.17 54.1 252.42L53.44 251.73C54.36 251.49 55.21 251.1 55.83 250.39C56.54 249.57 56.67 248.75 56.67 246.87C56.67 246.48 56.67 245.64 56.67 245.29C56.67 244.95 56.64 244.66 56.61 244.42H57.55ZM52.91 244.5C52.89 244.69 52.88 244.98 52.88 245.21C52.88 245.51 52.88 248.13 52.88 248.55C52.88 248.81 52.89 249.14 52.91 249.32H52C52.02 249.16 52.04 248.84 52.04 248.55C52.04 248.12 52.04 245.51 52.04 245.21C52.04 245.04 52.03 244.69 52 244.5H52.91ZM62.27 244.68C62.97 245.15 64.26 246.19 64.81 246.74L64.19 247.38C63.68 246.86 62.44 245.78 61.69 245.29L62.27 244.68ZM61.41 251.38C63.15 251.12 64.45 250.51 65.4 249.92C66.95 248.95 68.16 247.47 68.74 246.23L69.22 247.09C68.54 248.33 67.38 249.69 65.87 250.64C64.86 251.27 63.6 251.89 61.93 252.2L61.41 251.38ZM77.85 244C78.1 244.36 78.46 244.97 78.66 245.37L78.12 245.62C77.92 245.21 77.58 244.61 77.31 244.23L77.85 244ZM78.94 243.6C79.21 243.97 79.59 244.59 79.78 244.96L79.24 245.2C79.02 244.77 78.7 244.2 78.42 243.83L78.94 243.6ZM78.51 245.99C78.43 246.14 78.33 246.37 78.28 246.53C78.01 247.53 77.39 248.89 76.51 249.97C75.6 251.08 74.4 252 72.52 252.69L71.8 252.04C73.64 251.5 74.88 250.59 75.79 249.53C76.57 248.61 77.18 247.32 77.39 246.41H73.68L74 245.69C74.41 245.69 76.88 245.69 77.19 245.69C77.46 245.69 77.68 245.66 77.85 245.59L78.51 245.99ZM75.16 244.48C75 244.74 74.82 245.08 74.72 245.27C74.13 246.37 73.08 247.8 71.48 248.87L70.78 248.35C72.51 247.32 73.49 245.87 73.93 244.97C74.03 244.8 74.18 244.43 74.24 244.18L75.16 244.48ZM13.6 258.1C13.51 258.49 13.4 259.04 13.14 259.71C12.89 260.32 12.52 260.99 12.12 261.51C12.51 261.28 13.08 261.14 13.52 261.14C14.29 261.14 14.89 261.6 14.89 262.41C14.89 262.93 14.91 264.08 14.92 264.7H14.15C14.19 264.17 14.2 263.14 14.19 262.62C14.18 262.04 13.78 261.77 13.26 261.77C12.62 261.77 11.99 262.09 11.53 262.5C11.24 262.78 10.96 263.14 10.63 263.55L9.94 263.04C11.38 261.66 12.05 260.5 12.39 259.65C12.61 259.1 12.75 258.5 12.78 258.03L13.6 258.1ZM10.17 259.18C10.71 259.25 11.4 259.28 11.86 259.28C13.21 259.28 14.94 259.2 16.35 258.95V259.69C14.95 259.9 13.09 259.99 11.82 259.99C11.39 259.99 10.73 259.97 10.17 259.93V259.18ZM17.81 261.59C17.56 261.67 17.2 261.81 16.93 261.91C16.22 262.19 15.27 262.57 14.3 263.07C13.31 263.59 12.61 264.13 12.61 264.82C12.61 265.6 13.38 265.72 14.41 265.72C15.19 265.72 16.27 265.63 17.15 265.47L17.12 266.28C16.36 266.37 15.25 266.45 14.38 266.45C12.96 266.45 11.81 266.14 11.81 264.93C11.81 263.71 13.05 262.96 14.24 262.35C15.19 261.86 16 261.55 16.66 261.24C16.96 261.1 17.21 260.99 17.49 260.85L17.81 261.59ZM19.92 260.49H28.48V262.53H27.75V261.16H20.62V262.53H19.92V260.49ZM21.13 262.29H26.72V262.99H21.13V262.29ZM27.39 257.57L27.92 258.17C25.91 258.59 22.79 258.85 20.19 258.95C20.17 258.76 20.08 258.48 20.01 258.31C22.6 258.19 25.68 257.93 27.39 257.57ZM20.85 259.16L21.5 258.97C21.79 259.38 22.09 259.94 22.21 260.3L21.53 260.52C21.41 260.16 21.12 259.59 20.85 259.16ZM23.51 258.95L24.19 258.8C24.42 259.26 24.66 259.87 24.72 260.26L24.01 260.43C23.95 260.04 23.74 259.42 23.51 258.95ZM26.93 258.78L27.69 259C27.33 259.64 26.86 260.38 26.5 260.85L25.9 260.64C26.25 260.14 26.69 259.34 26.93 258.78ZM26.45 262.29H26.62L26.76 262.26L27.26 262.57C26.03 265.11 23.2 266.27 20.15 266.78C20.07 266.59 19.86 266.26 19.71 266.1C22.71 265.69 25.41 264.63 26.45 262.42V262.29ZM22.11 262.75C23.25 264.59 25.66 265.71 28.67 266.07C28.52 266.24 28.31 266.56 28.22 266.77C25.17 266.33 22.76 265.11 21.45 263.03L22.11 262.75ZM37.01 258.21C36.98 258.37 36.97 258.57 36.97 258.8C36.96 259.17 37 260.86 37 261.42C37 263.71 37 265.35 34.88 266.59L34.15 266.03C34.46 265.9 34.87 265.65 35.12 265.4C36.19 264.47 36.24 263.33 36.24 261.41C36.24 260.77 36.2 259.22 36.17 258.8C36.15 258.58 36.11 258.36 36.07 258.21H37.01ZM33.35 260.28C33.79 260.35 34.42 260.39 34.97 260.39C36.2 260.39 37.62 260.31 38.62 260.08V260.89C37.65 261.05 36.25 261.14 34.98 261.14C34.49 261.14 33.79 261.11 33.35 261.07V260.28ZM31.95 258.36C31.89 258.54 31.82 258.82 31.78 259.01C31.46 260.46 31.11 262.65 31.5 264.29C31.63 263.86 31.85 263.25 32.03 262.76L32.46 263.02C32.22 263.71 31.92 264.73 31.81 265.23C31.78 265.37 31.76 265.56 31.77 265.68C31.77 265.78 31.79 265.91 31.8 266.02L31.11 266.1C30.91 265.48 30.59 264.18 30.59 262.93C30.59 261.3 30.85 259.77 30.97 258.93C31 258.71 31.01 258.44 31.02 258.26L31.95 258.36ZM41.98 258.64C42.2 258.66 42.48 258.67 42.68 258.67C43.21 258.67 45.58 258.6 46.11 258.55C46.41 258.52 46.55 258.5 46.66 258.46L47.12 259.05C46.94 259.17 46.74 259.3 46.55 259.45C46.06 259.83 44.7 261 43.92 261.64C44.38 261.49 44.86 261.44 45.31 261.44C46.97 261.44 48.16 262.43 48.16 263.78C48.16 265.39 46.83 266.44 44.71 266.44C43.35 266.44 42.52 265.85 42.52 265.01C42.52 264.33 43.14 263.71 44.06 263.71C45.39 263.71 46.06 264.65 46.13 265.66L45.41 265.78C45.35 264.93 44.86 264.32 44.06 264.32C43.6 264.32 43.25 264.6 43.25 264.95C43.25 265.44 43.8 265.73 44.59 265.73C46.29 265.73 47.36 265.03 47.36 263.78C47.36 262.79 46.42 262.06 45.11 262.06C43.45 262.06 42.55 262.76 41.29 264.05L40.71 263.47C41.54 262.79 42.83 261.71 43.4 261.22C43.96 260.76 45.22 259.71 45.72 259.26C45.19 259.29 43.19 259.37 42.67 259.4C42.44 259.42 42.22 259.43 42 259.46L41.98 258.64ZM52.14 258.99C52.86 259.07 53.78 259.11 54.79 259.11C55.75 259.11 56.76 259.05 57.48 258.97V259.79C56.8 259.84 55.71 259.91 54.79 259.91C53.79 259.91 52.93 259.87 52.14 259.8V258.99ZM52.54 263.02C52.42 263.41 52.34 263.78 52.34 264.15C52.34 264.92 53.12 265.44 54.72 265.44C56.09 265.44 57.38 265.29 58.14 265.05L58.15 265.91C57.43 266.1 56.16 266.25 54.74 266.25C52.71 266.25 51.53 265.59 51.53 264.33C51.53 263.81 51.64 263.34 51.73 262.94L52.54 263.02ZM68.13 260.04C67.91 260.17 67.66 260.31 67.36 260.46C66.69 260.81 65.3 261.47 64.32 262.11C63.39 262.72 62.83 263.38 62.83 264.13C62.83 264.96 63.63 265.48 65.21 265.48C66.29 265.48 67.63 265.34 68.41 265.14L68.4 266.04C67.65 266.17 66.49 266.28 65.24 266.28C63.36 266.28 62 265.72 62 264.22C62 263.14 62.73 262.29 63.91 261.51C64.93 260.83 66.33 260.16 66.98 259.79C67.27 259.62 67.49 259.49 67.7 259.32L68.13 260.04ZM63.07 258.22C63.53 259.5 64.15 260.75 64.61 261.56L63.93 261.97C63.42 261.15 62.82 259.8 62.28 258.56L63.07 258.22ZM74.44 258.24C74.4 258.42 74.36 258.64 74.32 258.83C74.25 259.19 74.12 260.01 73.98 260.63C73.64 262.04 72.93 264.53 71.8 266.35L70.98 266.03C72.12 264.5 72.92 261.83 73.19 260.61C73.38 259.81 73.51 258.91 73.51 258.14L74.44 258.24ZM77.88 259.39C78.5 260.2 79.37 262.02 79.71 262.94L78.93 263.31C78.64 262.29 77.85 260.55 77.15 259.72L77.88 259.39ZM70.84 260.43C71.15 260.45 71.41 260.44 71.73 260.43C72.48 260.41 74.51 260.19 75.19 260.19C76.08 260.19 76.81 260.53 76.81 261.88C76.81 263.07 76.65 264.66 76.23 265.49C75.92 266.16 75.42 266.33 74.77 266.33C74.39 266.33 73.91 266.26 73.6 266.18L73.46 265.35C73.88 265.48 74.41 265.55 74.69 265.55C75.06 265.55 75.36 265.47 75.56 265.04C75.88 264.36 76.04 263.06 76.04 261.98C76.04 261.06 75.62 260.89 74.98 260.89C74.31 260.89 72.43 261.12 71.82 261.18C71.59 261.21 71.18 261.26 70.92 261.3L70.84 260.43ZM77.99 257.94C78.24 258.3 78.6 258.91 78.81 259.32L78.27 259.56C78.07 259.15 77.73 258.55 77.45 258.17L77.99 257.94ZM79.09 257.54C79.36 257.91 79.74 258.54 79.94 258.91L79.39 259.15C79.18 258.71 78.85 258.14 78.56 257.77L79.09 257.54ZM9.78 273.42C10.16 273.41 10.48 273.39 10.68 273.37C11.32 273.3 13.21 273.12 15.05 272.96C16.15 272.87 17.08 272.81 17.75 272.79L17.76 273.59C17.18 273.58 16.31 273.6 15.8 273.74C14.37 274.2 13.5 275.73 13.5 276.91C13.5 278.86 15.33 279.49 16.95 279.55L16.66 280.37C14.81 280.3 12.71 279.32 12.71 277.08C12.71 275.53 13.66 274.25 14.57 273.71C13.5 273.82 10.95 274.07 9.87 274.3L9.78 273.42ZM16.31 274.81C16.54 275.14 16.92 275.76 17.14 276.21L16.62 276.44C16.39 275.96 16.11 275.45 15.81 275.03L16.31 274.81ZM17.4 274.39C17.65 274.72 18.04 275.33 18.27 275.77L17.76 276.02C17.52 275.54 17.22 275.04 16.91 274.62L17.4 274.39ZM20.99 273.15C22.38 273.32 23.69 273.34 24.71 273.24C25.53 273.17 26.35 273 27.07 272.76L27.18 273.49C26.53 273.68 25.68 273.85 24.88 273.92C23.87 274.02 22.47 274.02 21.04 273.88L20.99 273.15ZM20.79 275.2C22.5 275.38 24.2 275.35 25.37 275.21C26.32 275.11 27.13 274.91 27.66 274.75L27.79 275.49C27.24 275.64 26.48 275.79 25.64 275.89C24.41 276.05 22.56 276.08 20.84 275.95L20.79 275.2ZM24.21 273.02C24.13 272.73 24.04 272.42 23.93 272.13L24.78 272.02C24.88 272.86 25.19 273.87 25.44 274.58C25.71 275.36 26.15 276.32 26.67 277.09C26.78 277.25 26.9 277.39 27.05 277.52L26.63 278.13C26.07 277.99 25.14 277.89 24.45 277.82L24.51 277.21C25.05 277.26 25.7 277.33 26.01 277.37C25.46 276.51 25.04 275.55 24.75 274.74C24.5 274.05 24.35 273.52 24.21 273.02ZM22.25 277.36C22.01 277.7 21.83 278.04 21.83 278.49C21.83 279.31 22.56 279.73 24.13 279.73C25.06 279.73 25.79 279.66 26.52 279.52L26.48 280.31C25.78 280.43 25 280.49 24.14 280.49C22.19 280.49 21.09 279.91 21.07 278.62C21.07 278.05 21.24 277.63 21.47 277.19L22.25 277.36ZM35.12 272.07C35.1 272.24 35.08 272.44 35.07 272.74C35.05 273.14 35.05 274.48 35.05 275.32C35.05 276.64 35.2 278.39 35.2 279.06C35.2 279.76 34.74 280.47 33.44 280.47C32 280.47 31.21 279.96 31.21 278.99C31.21 278.08 32.08 277.47 33.52 277.47C35.63 277.47 37.28 278.61 38.05 279.24L37.59 279.95C36.69 279.12 35.21 278.12 33.43 278.12C32.47 278.12 31.96 278.49 31.96 278.95C31.96 279.42 32.35 279.76 33.34 279.76C33.92 279.76 34.41 279.59 34.41 278.89C34.41 278.12 34.31 276.2 34.31 275.32C34.31 274.42 34.31 273.37 34.31 272.67C34.31 272.5 34.3 272.2 34.27 272.07H35.12ZM31.3 273.15C31.94 273.27 33.19 273.37 33.85 273.37C35.12 273.37 36.46 273.28 37.76 273.07V273.8C36.63 273.93 35.2 274.06 33.86 274.06C33.17 274.06 31.94 273.97 31.31 273.89L31.3 273.15ZM31.25 275.28C31.96 275.39 33.1 275.46 33.76 275.46C35.21 275.46 36.54 275.36 37.84 275.17V275.92C36.48 276.09 35.26 276.16 33.76 276.16C33.07 276.16 31.97 276.11 31.26 276.03L31.25 275.28ZM45.87 272.08C45.85 272.2 45.82 272.59 45.82 272.71C45.79 273.36 45.81 275.29 45.82 276.09L45.06 275.7C45.06 275.26 45.05 273.27 45.02 272.72C45 272.45 44.97 272.17 44.95 272.08H45.87ZM40.55 273.48C41.91 273.46 44.41 273.37 45.95 273.37C47.17 273.37 48.41 273.37 48.88 273.38L48.87 274.12C48.31 274.09 47.41 274.07 45.94 274.07C44.22 274.07 42.08 274.14 40.57 274.25L40.55 273.48ZM45.8 276.38C45.8 277.72 45.18 278.39 44.27 278.39C43.43 278.39 42.62 277.8 42.62 276.71C42.62 275.72 43.44 274.98 44.39 274.98C45.55 274.98 46.14 275.84 46.14 276.99C46.14 278.35 45.48 279.85 43.16 280.54L42.49 279.89C44.31 279.46 45.37 278.57 45.37 276.92C45.37 276.02 44.93 275.64 44.39 275.64C43.86 275.64 43.37 276.05 43.37 276.7C43.37 277.33 43.84 277.69 44.39 277.69C45.01 277.69 45.41 277.17 45.25 276.1L45.8 276.38Z" fill="black"/>
<path d="M268.52 254C268.48 254.21 268.46 254.6 268.46 254.87C268.46 255.14 268.46 255.66 268.46 255.86H267.66C267.66 255.66 267.66 255.16 267.66 254.87C267.66 254.59 267.65 254.22 267.61 254H268.52ZM271.27 255.96C271.09 256.14 270.87 256.37 270.71 256.56C270.19 257.17 269.33 258.03 268.38 258.68C267.29 259.44 265.98 260.02 264.27 260.54L263.78 259.8C265.68 259.34 266.93 258.69 267.83 258.1C268.73 257.52 269.52 256.74 269.87 256.27C269.4 256.27 266.16 256.27 265.71 256.27C265.37 256.27 264.79 256.28 264.49 256.31V255.46C264.81 255.5 265.36 255.52 265.7 255.52C266.16 255.52 269.51 255.52 270.11 255.52C270.35 255.52 270.58 255.5 270.74 255.45L271.27 255.96ZM268.44 258.27C268.44 259.04 268.44 260.55 268.44 261.32C268.44 261.67 268.46 262.12 268.49 262.43H267.58C267.61 262.13 267.64 261.67 267.64 261.32C267.64 260.57 267.64 259.25 267.64 258.61L268.44 258.27ZM271.73 260.66C270.86 260.02 270.26 259.62 269.33 259.12L269.85 258.54C270.79 259.04 271.33 259.36 272.26 259.98L271.73 260.66ZM274.715 255.15C275.055 255.18 275.485 255.21 275.815 255.21H280.735C280.985 255.21 281.275 255.2 281.475 255.19C281.465 255.41 281.455 255.73 281.455 255.96V261.13C281.455 261.49 281.485 261.94 281.495 262.09H280.595C280.595 261.94 280.615 261.57 280.615 261.21V256H275.815C275.445 256 274.955 256.02 274.715 256.04V255.15ZM274.595 260.67C274.845 260.69 275.285 260.72 275.695 260.72H281.065V261.54H275.725C275.315 261.54 274.865 261.55 274.595 261.58V260.67ZM284.915 255.15C285.255 255.18 285.685 255.21 286.015 255.21H290.935C291.185 255.21 291.475 255.2 291.675 255.19C291.665 255.41 291.655 255.73 291.655 255.96V261.13C291.655 261.49 291.685 261.94 291.695 262.09H290.795C290.795 261.94 290.815 261.57 290.815 261.21V256H286.015C285.645 256 285.155 256.02 284.915 256.04V255.15ZM284.795 260.67C285.045 260.69 285.485 260.72 285.895 260.72H291.265V261.54H285.925C285.515 261.54 285.065 261.55 284.795 261.58V260.67ZM297.645 254.24C297.605 254.42 297.565 254.64 297.525 254.83C297.455 255.19 297.325 256.01 297.185 256.63C296.845 258.04 296.135 260.53 295.005 262.35L294.185 262.03C295.325 260.5 296.125 257.83 296.395 256.61C296.585 255.81 296.715 254.91 296.715 254.14L297.645 254.24ZM301.085 255.39C301.705 256.2 302.575 258.02 302.915 258.94L302.135 259.31C301.845 258.29 301.055 256.55 300.355 255.72L301.085 255.39ZM294.045 256.43C294.355 256.45 294.615 256.44 294.935 256.43C295.685 256.41 297.715 256.19 298.395 256.19C299.285 256.19 300.015 256.53 300.015 257.88C300.015 259.07 299.855 260.66 299.435 261.49C299.125 262.16 298.625 262.33 297.975 262.33C297.595 262.33 297.115 262.26 296.805 262.18L296.665 261.35C297.085 261.48 297.615 261.55 297.895 261.55C298.265 261.55 298.565 261.47 298.765 261.04C299.085 260.36 299.245 259.06 299.245 257.98C299.245 257.06 298.825 256.89 298.185 256.89C297.515 256.89 295.635 257.12 295.025 257.18C294.795 257.21 294.385 257.26 294.125 257.3L294.045 256.43ZM301.195 253.94C301.445 254.3 301.805 254.91 302.015 255.32L301.475 255.56C301.275 255.15 300.935 254.55 300.655 254.17L301.195 253.94ZM302.295 253.54C302.565 253.91 302.945 254.54 303.145 254.91L302.595 255.15C302.385 254.71 302.055 254.14 301.765 253.77L302.295 253.54ZM308.675 254.14C308.655 254.37 308.635 254.71 308.625 254.95C308.495 259.03 307.395 260.9 305.425 262.27L304.695 261.68C305.015 261.51 305.415 261.23 305.715 260.95C306.965 259.82 307.785 258.13 307.805 254.97C307.805 254.74 307.785 254.37 307.745 254.14H308.675ZM312.155 256.22C312.125 256.39 312.105 256.57 312.095 256.7C312.065 257.67 311.935 260.57 311.485 261.53C311.285 261.96 310.965 262.14 310.415 262.14C309.915 262.14 309.335 262.11 308.815 262.07L308.715 261.24C309.255 261.31 309.775 261.36 310.205 261.36C310.485 261.36 310.675 261.27 310.785 261.03C311.165 260.26 311.295 257.8 311.295 256.73H306.025C305.625 256.73 305.225 256.74 304.865 256.77V255.93C305.215 255.96 305.625 255.98 306.015 255.98H310.955C311.225 255.98 311.415 255.96 311.585 255.93L312.155 256.22ZM319.205 254C319.165 254.31 319.155 254.54 319.155 254.75C319.155 254.98 319.155 255.73 319.155 256.08H318.305C318.305 255.69 318.305 254.98 318.305 254.75C318.305 254.54 318.295 254.31 318.255 254H319.205ZM322.615 255.94C322.565 256.08 322.505 256.35 322.475 256.54C322.335 257.34 322.045 258.59 321.485 259.54C320.745 260.85 319.365 261.87 317.535 262.37L316.885 261.63C317.215 261.57 317.595 261.47 317.915 261.35C318.925 261.02 320.015 260.28 320.635 259.33C321.175 258.48 321.485 257.27 321.575 256.42H315.995C315.995 256.83 315.995 257.9 315.995 258.21C315.995 258.38 316.005 258.65 316.025 258.8H315.155C315.185 258.63 315.195 258.36 315.195 258.16C315.195 257.84 315.195 256.75 315.195 256.4C315.195 256.19 315.195 255.85 315.155 255.64C315.445 255.66 315.745 255.68 316.095 255.68H321.395C321.765 255.68 321.945 255.64 322.075 255.6L322.615 255.94ZM326.275 254.68C326.975 255.15 328.265 256.19 328.815 256.74L328.195 257.38C327.685 256.86 326.445 255.78 325.695 255.29L326.275 254.68ZM325.415 261.38C327.155 261.12 328.455 260.51 329.405 259.92C330.955 258.95 332.165 257.47 332.745 256.23L333.225 257.09C332.545 258.33 331.385 259.69 329.875 260.64C328.865 261.27 327.605 261.89 325.935 262.2L325.415 261.38ZM266.05 274.72C266.05 273.8 266.05 270.26 266.05 269.2C266.05 268.9 266.04 268.57 265.99 268.28H266.93C266.89 268.57 266.86 268.91 266.86 269.2C266.86 270.25 266.86 273.52 266.86 274.51C266.86 275.2 267.12 275.42 268.31 275.42C269.47 275.42 270.44 275.32 271.43 275.12L271.4 275.98C270.51 276.11 269.51 276.19 268.26 276.19C266.4 276.19 266.05 275.7 266.05 274.72ZM271.86 270.25C271.78 270.36 271.68 270.53 271.61 270.65C271.15 271.48 270.37 272.74 269.56 273.56L268.87 273.15C269.62 272.46 270.35 271.36 270.65 270.77C270.34 270.83 264.95 271.91 263.75 272.17L263.59 271.33C264.87 271.18 269.98 270.15 270.74 269.97C270.95 269.92 271.15 269.86 271.27 269.79L271.86 270.25ZM280.95 268.42C280.93 268.66 280.92 268.95 280.92 269.29C280.92 269.68 280.92 270.53 280.92 270.9C280.92 273.31 280.6 274.1 279.87 274.95C279.23 275.73 278.23 276.17 277.5 276.42L276.84 275.73C277.76 275.49 278.61 275.1 279.23 274.39C279.94 273.57 280.07 272.75 280.07 270.87C280.07 270.48 280.07 269.64 280.07 269.29C280.07 268.95 280.04 268.66 280.01 268.42H280.95ZM276.31 268.5C276.29 268.69 276.28 268.98 276.28 269.21C276.28 269.51 276.28 272.13 276.28 272.55C276.28 272.81 276.29 273.14 276.31 273.32H275.4C275.42 273.16 275.44 272.84 275.44 272.55C275.44 272.12 275.44 269.51 275.44 269.21C275.44 269.04 275.43 268.69 275.4 268.5H276.31ZM285.67 268.68C286.37 269.15 287.66 270.19 288.21 270.74L287.59 271.38C287.08 270.86 285.84 269.78 285.09 269.29L285.67 268.68ZM284.81 275.38C286.55 275.12 287.85 274.51 288.8 273.92C290.35 272.95 291.56 271.47 292.14 270.23L292.62 271.09C291.94 272.33 290.78 273.69 289.27 274.64C288.26 275.27 287 275.89 285.33 276.2L284.81 275.38ZM301.25 268C301.5 268.36 301.86 268.97 302.06 269.37L301.52 269.62C301.32 269.21 300.98 268.61 300.71 268.23L301.25 268ZM302.34 267.6C302.61 267.97 302.99 268.59 303.18 268.96L302.64 269.2C302.42 268.77 302.1 268.2 301.82 267.83L302.34 267.6ZM301.91 269.99C301.83 270.14 301.73 270.37 301.68 270.53C301.41 271.53 300.79 272.89 299.91 273.97C299 275.08 297.8 276 295.92 276.69L295.2 276.04C297.04 275.5 298.28 274.59 299.19 273.53C299.97 272.61 300.58 271.32 300.79 270.41H297.08L297.4 269.69C297.81 269.69 300.28 269.69 300.59 269.69C300.86 269.69 301.08 269.66 301.25 269.59L301.91 269.99ZM298.56 268.48C298.4 268.74 298.22 269.08 298.12 269.27C297.53 270.37 296.48 271.8 294.88 272.87L294.18 272.35C295.91 271.32 296.89 269.87 297.33 268.97C297.43 268.8 297.58 268.43 297.64 268.18L298.56 268.48ZM308.4 268.1C308.31 268.49 308.2 269.04 307.94 269.71C307.69 270.32 307.32 270.99 306.92 271.51C307.31 271.28 307.88 271.14 308.32 271.14C309.09 271.14 309.69 271.6 309.69 272.41C309.69 272.93 309.71 274.08 309.72 274.7H308.95C308.99 274.17 309 273.14 308.99 272.62C308.98 272.04 308.58 271.77 308.06 271.77C307.42 271.77 306.79 272.09 306.33 272.5C306.04 272.78 305.76 273.14 305.43 273.55L304.74 273.04C306.18 271.66 306.85 270.5 307.19 269.65C307.41 269.1 307.55 268.5 307.58 268.03L308.4 268.1ZM304.97 269.18C305.51 269.25 306.2 269.28 306.66 269.28C308.01 269.28 309.74 269.2 311.15 268.95V269.69C309.75 269.9 307.89 269.99 306.62 269.99C306.19 269.99 305.53 269.97 304.97 269.93V269.18ZM312.61 271.59C312.36 271.67 312 271.81 311.73 271.91C311.02 272.19 310.07 272.57 309.1 273.07C308.11 273.59 307.41 274.13 307.41 274.82C307.41 275.6 308.18 275.72 309.21 275.72C309.99 275.72 311.07 275.63 311.95 275.47L311.92 276.28C311.16 276.37 310.05 276.45 309.18 276.45C307.76 276.45 306.61 276.14 306.61 274.93C306.61 273.71 307.85 272.96 309.04 272.35C309.99 271.86 310.8 271.55 311.46 271.24C311.76 271.1 312.01 270.99 312.29 270.85L312.61 271.59ZM317.4 268.21C317.35 268.54 317.32 268.89 317.3 269.22C317.26 270.35 317.18 272.72 317.18 274.21C317.18 275.31 317.87 275.69 318.82 275.69C320.65 275.69 321.69 274.67 322.41 273.63L322.97 274.31C322.29 275.26 320.99 276.51 318.8 276.51C317.36 276.51 316.37 275.92 316.37 274.28C316.37 272.8 316.47 270.27 316.47 269.22C316.47 268.85 316.44 268.5 316.38 268.21H317.4ZM324.737 269.36C325.117 269.35 325.437 269.33 325.637 269.31C326.287 269.24 328.167 269.06 330.017 268.9C331.107 268.81 332.037 268.75 332.707 268.73L332.717 269.53C332.137 269.52 331.267 269.54 330.757 269.68C329.327 270.14 328.457 271.67 328.457 272.85C328.457 274.8 330.287 275.42 331.907 275.49L331.627 276.31C329.767 276.24 327.667 275.26 327.667 273.02C327.667 271.46 328.617 270.19 329.537 269.65C328.457 269.76 325.917 270.01 324.827 270.24L324.737 269.36ZM270.04 282.63C269.82 282.79 269.51 283.06 269.35 283.2C268.66 283.8 267.22 284.93 266.48 285.55C265.88 286.07 265.87 286.22 266.52 286.76C267.43 287.51 269.2 288.93 270.26 290L269.55 290.65C269.34 290.41 269.1 290.17 268.86 289.92C268.15 289.2 266.64 287.9 265.7 287.13C264.76 286.34 264.87 285.91 265.77 285.15C266.53 284.52 268.05 283.32 268.72 282.64C268.92 282.44 269.18 282.15 269.29 281.97L270.04 282.63ZM282.94 289.24C282.4 289.78 281.78 290.08 281.1 290.08C280.43 290.08 279.99 289.64 279.99 288.82C279.99 287.7 280.36 286.06 280.36 285.09C280.36 284.51 280.07 284.26 279.56 284.26C278.62 284.26 277.17 285.5 276.23 286.64L276.24 285.65C276.86 284.97 278.52 283.53 279.75 283.53C280.69 283.53 281.15 284.06 281.15 284.87C281.15 285.87 280.77 287.59 280.77 288.6C280.77 288.94 280.94 289.21 281.3 289.21C281.77 289.21 282.3 288.92 282.81 288.39L282.94 289.24ZM276.22 284.46C275.89 284.51 274.81 284.64 274.07 284.76L273.98 283.93C274.2 283.94 274.39 283.94 274.64 283.92C275.17 283.89 276.42 283.74 276.88 283.59L277.17 283.93C277 284.19 276.73 284.62 276.56 284.9L276.26 286.27C275.8 286.98 274.87 288.33 274.24 289.2L273.74 288.52C274.36 287.74 275.71 285.91 276.1 285.25L276.14 284.73L276.22 284.46ZM276.12 282.81C276.12 282.58 276.13 282.32 276.08 282.07L277.02 282.1C276.88 282.75 276.58 285.61 276.58 287.37C276.58 288.28 276.58 288.89 276.62 289.78C276.63 289.95 276.66 290.2 276.67 290.39H275.81C275.83 290.2 275.84 289.96 275.84 289.8C275.84 288.83 275.85 288.33 275.86 287.23C275.88 286.35 276.12 283.18 276.12 282.81ZM289.12 282.07C289.1 282.24 289.08 282.44 289.07 282.74C289.05 283.14 289.05 284.48 289.05 285.32C289.05 286.64 289.2 288.39 289.2 289.06C289.2 289.76 288.74 290.47 287.44 290.47C286 290.47 285.21 289.96 285.21 288.99C285.21 288.08 286.08 287.47 287.52 287.47C289.63 287.47 291.28 288.61 292.05 289.24L291.59 289.95C290.69 289.12 289.21 288.12 287.43 288.12C286.47 288.12 285.96 288.49 285.96 288.95C285.96 289.42 286.35 289.76 287.34 289.76C287.92 289.76 288.41 289.59 288.41 288.89C288.41 288.12 288.31 286.2 288.31 285.32C288.31 284.42 288.31 283.37 288.31 282.67C288.31 282.5 288.3 282.2 288.27 282.07H289.12ZM285.3 283.15C285.94 283.27 287.19 283.37 287.85 283.37C289.12 283.37 290.46 283.28 291.76 283.07V283.8C290.63 283.93 289.2 284.06 287.86 284.06C287.17 284.06 285.94 283.97 285.31 283.89L285.3 283.15ZM285.25 285.28C285.96 285.39 287.1 285.46 287.76 285.46C289.21 285.46 290.54 285.36 291.84 285.17V285.92C290.48 286.09 289.26 286.16 287.76 286.16C287.07 286.16 285.97 286.11 285.26 286.03L285.25 285.28ZM299.87 282.08C299.85 282.2 299.82 282.59 299.82 282.71C299.79 283.36 299.81 285.29 299.82 286.09L299.06 285.7C299.06 285.26 299.05 283.27 299.02 282.72C299 282.45 298.97 282.17 298.95 282.08H299.87ZM294.55 283.48C295.91 283.46 298.41 283.37 299.95 283.37C301.17 283.37 302.41 283.37 302.88 283.38L302.87 284.12C302.31 284.09 301.41 284.07 299.94 284.07C298.22 284.07 296.08 284.14 294.57 284.25L294.55 283.48ZM299.8 286.38C299.8 287.72 299.18 288.39 298.27 288.39C297.43 288.39 296.62 287.8 296.62 286.71C296.62 285.72 297.44 284.98 298.39 284.98C299.55 284.98 300.14 285.84 300.14 286.99C300.14 288.35 299.48 289.85 297.16 290.54L296.49 289.89C298.31 289.46 299.37 288.57 299.37 286.92C299.37 286.02 298.93 285.64 298.39 285.64C297.86 285.64 297.37 286.05 297.37 286.7C297.37 287.33 297.84 287.69 298.39 287.69C299.01 287.69 299.41 287.17 299.25 286.1L299.8 286.38Z" fill="black"/>
<rect x="108" y="287" width="129" height="24" rx="5" stroke="#FF0000"/>
<rect x="108" y="253" width="129" height="22" rx="5" stroke="#FF0000"/>
<line x1="44" y1="301" x2="44" y2="289" stroke="black" stroke-width="2"/>
<path d="M232.954 63.8667H111.161C108.926 63.8667 107.115 65.6783 107.115 67.913V131.115C107.115 133.35 108.926 135.161 111.161 135.161H159.798C161.104 135.161 162.33 135.792 163.09 136.854L167.019 142.349C168.643 144.619 172.024 144.602 173.625 142.315L177.425 136.887C178.182 135.806 179.419 135.161 180.739 135.161H232.954C235.188 135.161 237 133.35 237 131.115V67.913C237 65.6783 235.188 63.8667 232.954 63.8667Z" fill="white" stroke="#FFBBDC" stroke-width="0.809254"/>
<path d="M120.969 79C120.929 79.21 120.909 79.6 120.909 79.87C120.909 80.14 120.909 80.66 120.909 80.86H120.109C120.109 80.66 120.109 80.16 120.109 79.87C120.109 79.59 120.099 79.22 120.059 79H120.969ZM123.719 80.96C123.539 81.14 123.319 81.37 123.159 81.56C122.639 82.17 121.779 83.03 120.829 83.68C119.739 84.44 118.429 85.02 116.719 85.54L116.229 84.8C118.129 84.34 119.379 83.69 120.279 83.1C121.179 82.52 121.969 81.74 122.319 81.27C121.849 81.27 118.609 81.27 118.159 81.27C117.819 81.27 117.239 81.28 116.939 81.31V80.46C117.259 80.5 117.809 80.52 118.149 80.52C118.609 80.52 121.959 80.52 122.559 80.52C122.799 80.52 123.029 80.5 123.189 80.45L123.719 80.96ZM120.889 83.27C120.889 84.04 120.889 85.55 120.889 86.32C120.889 86.67 120.909 87.12 120.939 87.43H120.029C120.059 87.13 120.089 86.67 120.089 86.32C120.089 85.57 120.089 84.25 120.089 83.61L120.889 83.27ZM124.179 85.66C123.309 85.02 122.709 84.62 121.779 84.12L122.299 83.54C123.239 84.04 123.779 84.36 124.709 84.98L124.179 85.66ZM133.369 79.17C133.619 79.53 133.989 80.13 134.189 80.54L133.649 80.78C133.449 80.37 133.109 79.77 132.839 79.39L133.369 79.17ZM134.469 78.77C134.739 79.13 135.119 79.76 135.309 80.13L134.769 80.37C134.549 79.93 134.229 79.37 133.949 78.99L134.469 78.77ZM130.719 79.25C130.699 79.48 130.679 79.82 130.669 80.06C130.539 84.14 129.439 86.01 127.469 87.39L126.739 86.8C127.059 86.63 127.459 86.34 127.759 86.06C129.009 84.93 129.829 83.24 129.849 80.08C129.849 79.85 129.829 79.49 129.789 79.25H130.719ZM134.199 81.33C134.169 81.5 134.149 81.69 134.139 81.82C134.109 82.78 133.979 85.68 133.529 86.64C133.329 87.07 133.009 87.25 132.459 87.25C131.959 87.25 131.379 87.22 130.859 87.19L130.759 86.35C131.299 86.43 131.819 86.47 132.249 86.47C132.529 86.47 132.719 86.38 132.829 86.14C133.209 85.38 133.339 82.92 133.339 81.85H128.069C127.669 81.85 127.269 81.85 126.909 81.88V81.04C127.259 81.07 127.669 81.1 128.059 81.1H132.999C133.269 81.1 133.459 81.07 133.629 81.05L134.199 81.33ZM138.389 79.61C138.679 79.64 138.969 79.66 139.299 79.66C139.879 79.66 142.789 79.66 143.349 79.66C143.629 79.66 143.989 79.64 144.279 79.61V80.44C143.979 80.42 143.629 80.4 143.349 80.4C142.789 80.4 139.879 80.4 139.309 80.4C138.979 80.4 138.649 80.42 138.389 80.44V79.61ZM137.199 82.12C137.469 82.15 137.759 82.16 138.069 82.16C138.649 82.16 144.079 82.16 144.609 82.16C144.819 82.16 145.149 82.15 145.399 82.12V82.94C145.169 82.93 144.859 82.92 144.609 82.92C144.079 82.92 138.649 82.92 138.069 82.92C137.769 82.92 137.469 82.93 137.199 82.95V82.12ZM141.909 82.52C141.909 83.78 141.749 84.82 141.299 85.66C140.939 86.33 140.179 87.04 139.339 87.48L138.599 86.94C139.369 86.61 140.089 86.04 140.479 85.4C140.979 84.61 141.059 83.63 141.069 82.53L141.909 82.52ZM147.264 84.43C148.584 84.11 150.054 83.41 150.874 82.91C151.814 82.34 152.734 81.51 153.254 80.88L153.874 81.48C153.294 82.1 152.254 82.97 151.214 83.6C150.374 84.1 148.984 84.76 147.654 85.17L147.264 84.43ZM150.784 83.37L151.614 83.16V86.91C151.614 87.21 151.624 87.63 151.664 87.78H150.734C150.754 87.63 150.784 87.21 150.784 86.91V83.37ZM164.004 78.69C164.244 79.04 164.604 79.63 164.804 80.01L164.244 80.26C164.044 79.85 163.704 79.28 163.454 78.92L164.004 78.69ZM165.294 78.44C165.534 78.78 165.904 79.37 166.114 79.76L165.554 80C165.334 79.59 165.014 79.01 164.744 78.67L165.294 78.44ZM164.904 80.49C164.844 80.63 164.794 80.8 164.754 80.99C164.544 82.04 164.054 83.66 163.264 84.68C162.354 85.86 161.164 86.78 159.334 87.36L158.654 86.61C160.584 86.12 161.714 85.27 162.544 84.2C163.254 83.3 163.724 81.9 163.854 80.94C163.284 80.94 159.314 80.94 158.744 80.94C158.344 80.94 158.004 80.96 157.744 80.98V80.09C158.024 80.12 158.414 80.16 158.744 80.16C159.314 80.16 163.304 80.16 163.764 80.16C163.914 80.16 164.114 80.15 164.294 80.1L164.904 80.49ZM167.814 80.7C168.184 80.74 168.614 80.76 169.044 80.76C170.124 80.76 171.384 80.63 172.534 80.25L172.554 80.99C171.574 81.26 170.264 81.48 169.044 81.47C168.674 81.47 168.244 81.46 167.874 81.45L167.814 80.7ZM171.364 79.07C171.234 79.56 171.024 80.5 170.784 81.21C170.304 82.65 169.384 84.47 168.554 85.59L167.784 85.19C168.674 84.15 169.604 82.37 170.014 81.19C170.234 80.56 170.454 79.68 170.484 78.98L171.364 79.07ZM173.724 82.16C173.694 82.57 173.694 82.87 173.704 83.23C173.724 83.88 173.814 85.4 173.814 86.06C173.814 86.86 173.304 87.51 172.064 87.51C170.964 87.51 170.074 87.07 170.074 86.07C170.074 85.15 170.944 84.57 172.064 84.57C173.744 84.57 175.034 85.41 175.854 86.12L175.434 86.8C174.664 86.1 173.514 85.21 172.044 85.21C171.304 85.21 170.804 85.55 170.804 86.01C170.804 86.47 171.194 86.79 171.974 86.79C172.804 86.79 173.084 86.35 173.084 85.81C173.084 85.05 172.974 83.26 172.934 82.16H173.724ZM175.724 82.42C175.184 81.96 174.094 81.35 173.434 81.04L173.834 80.44C174.564 80.75 175.694 81.4 176.174 81.76L175.724 82.42ZM179.654 79.66H186.514V80.31H179.654V79.66ZM179.764 81.1H185.554V81.73H179.764V81.1ZM178.614 82.53H184.644V83.18H178.614V82.53ZM179.784 78.58L180.574 78.76C180.084 80.3 179.264 81.68 178.314 82.57C178.164 82.44 177.824 82.2 177.624 82.09C178.604 81.28 179.374 79.99 179.784 78.58ZM182.474 83.35L183.194 83.59C182.114 85.5 180.354 86.96 178.454 87.89C178.344 87.73 178.064 87.44 177.894 87.31C179.814 86.49 181.514 85.09 182.474 83.35ZM184.364 82.53H185.134C185.134 85.12 185.284 87.07 186.044 87.07C186.244 87.07 186.284 86.5 186.304 85.65C186.454 85.81 186.674 85.99 186.834 86.09C186.764 87.35 186.604 87.8 185.994 87.81C184.564 87.8 184.404 85.63 184.364 82.53ZM178.864 84.25L179.394 83.76C180.934 84.59 182.804 85.9 183.714 86.88L183.114 87.44C182.264 86.47 180.414 85.12 178.864 84.25ZM189.524 82.39H195.244V83.12H189.524V82.39ZM194.994 82.39H195.774C195.774 82.39 195.764 82.65 195.754 82.75C195.614 85.85 195.474 87.01 195.114 87.39C194.914 87.64 194.694 87.71 194.344 87.74C194.014 87.77 193.384 87.76 192.754 87.73C192.744 87.5 192.644 87.19 192.504 86.97C193.164 87.03 193.784 87.04 194.024 87.04C194.224 87.04 194.344 87.02 194.444 86.91C194.714 86.64 194.864 85.5 194.994 82.53V82.39ZM190.894 78.81L191.684 79.04C190.964 80.73 189.784 82.22 188.524 83.18C188.384 83.02 188.064 82.73 187.874 82.59C189.154 81.73 190.264 80.35 190.894 78.81ZM194.384 78.79C195.034 80.13 196.324 81.65 197.414 82.42C197.214 82.58 196.934 82.88 196.784 83.09C195.674 82.19 194.414 80.57 193.664 79.08L194.384 78.79ZM191.634 82.59H192.434C192.204 84.78 191.684 86.85 188.894 87.85C188.804 87.66 188.584 87.36 188.414 87.2C191.034 86.33 191.434 84.48 191.634 82.59ZM202.294 79.24C202.254 79.42 202.214 79.64 202.174 79.83C202.104 80.19 201.974 81.01 201.834 81.63C201.494 83.04 200.784 85.53 199.654 87.35L198.834 87.03C199.974 85.5 200.774 82.83 201.044 81.61C201.234 80.81 201.364 79.91 201.364 79.14L202.294 79.24ZM205.734 80.39C206.354 81.2 207.224 83.02 207.564 83.94L206.784 84.31C206.494 83.29 205.704 81.55 205.004 80.72L205.734 80.39ZM198.694 81.43C199.004 81.45 199.264 81.44 199.584 81.43C200.334 81.41 202.364 81.19 203.044 81.19C203.934 81.19 204.664 81.53 204.664 82.88C204.664 84.07 204.504 85.66 204.084 86.49C203.774 87.16 203.274 87.33 202.624 87.33C202.244 87.33 201.764 87.26 201.454 87.18L201.314 86.35C201.734 86.48 202.264 86.55 202.544 86.55C202.914 86.55 203.214 86.47 203.414 86.04C203.734 85.36 203.894 84.06 203.894 82.98C203.894 82.06 203.474 81.89 202.834 81.89C202.164 81.89 200.284 82.12 199.674 82.18C199.444 82.21 199.034 82.26 198.774 82.3L198.694 81.43ZM205.844 78.94C206.094 79.3 206.454 79.91 206.664 80.32L206.124 80.56C205.924 80.15 205.584 79.55 205.304 79.17L205.844 78.94ZM206.944 78.54C207.214 78.91 207.594 79.54 207.794 79.91L207.244 80.15C207.034 79.71 206.704 79.14 206.414 78.77L206.944 78.54ZM214.864 78.6H215.604V81.4H214.864V78.6ZM212.574 79.54H217.944V80.17H212.574V79.54ZM212.924 81.08H217.594V81.72H212.924V81.08ZM212.614 82.41H217.964V84.21H217.294V83.02H213.264V84.21H212.614V82.41ZM215.734 83.75H216.424V86.81C216.424 87.05 216.454 87.09 216.664 87.09C216.744 87.09 217.174 87.09 217.294 87.09C217.484 87.09 217.534 86.93 217.554 85.86C217.694 85.99 217.984 86.09 218.174 86.15C218.114 87.41 217.934 87.74 217.364 87.74C217.234 87.74 216.694 87.74 216.564 87.74C215.894 87.74 215.734 87.53 215.734 86.81V83.75ZM213.894 83.76H214.584V84.39C214.584 85.39 214.364 86.85 212.444 87.82C212.334 87.66 212.094 87.44 211.914 87.31C213.704 86.44 213.894 85.17 213.894 84.37V83.76ZM210.414 78.61L211.074 78.86C210.694 79.6 210.224 80.5 209.834 81.05L209.324 80.83C209.684 80.25 210.154 79.27 210.414 78.61ZM211.534 79.75L212.164 80.04C211.474 81.15 210.504 82.57 209.754 83.44L209.294 83.18C210.044 82.29 210.984 80.8 211.534 79.75ZM208.814 80.69L209.214 80.21C209.754 80.7 210.364 81.37 210.624 81.83L210.194 82.39C209.944 81.91 209.344 81.2 208.814 80.69ZM211.144 82.04L211.684 81.81C212.104 82.47 212.514 83.33 212.654 83.88L212.064 84.15C211.934 83.59 211.544 82.7 211.144 82.04ZM208.734 83.03C209.604 82.99 210.854 82.93 212.114 82.86V83.49C210.924 83.57 209.724 83.64 208.814 83.7L208.734 83.03ZM211.404 84.46L211.954 84.29C212.214 84.87 212.424 85.62 212.494 86.11L211.914 86.29C211.854 85.8 211.644 85.04 211.404 84.46ZM209.334 84.32L209.964 84.43C209.834 85.38 209.604 86.34 209.284 86.98C209.164 86.9 208.864 86.77 208.714 86.7C209.034 86.09 209.224 85.19 209.334 84.32ZM210.394 83.32H211.054V87.8H210.394V83.32ZM221.084 80.03C221.034 80.26 221.004 80.74 220.994 81C220.984 81.62 220.994 82.54 221.064 83.36C221.234 85.03 221.714 86.14 222.434 86.14C222.944 86.14 223.414 85.11 223.674 84.11L224.304 84.82C223.694 86.51 223.094 87.09 222.414 87.09C221.464 87.09 220.564 86.15 220.284 83.56C220.194 82.7 220.174 81.48 220.174 80.9C220.174 80.67 220.174 80.24 220.114 80.01L221.084 80.03ZM226.284 80.3C227.184 81.46 227.904 83.59 228.054 85.28L227.244 85.6C227.074 83.8 226.464 81.74 225.514 80.57L226.284 80.3ZM116.035 97.36C116.415 97.35 116.735 97.33 116.935 97.31C117.585 97.24 119.465 97.06 121.315 96.9C122.405 96.81 123.335 96.75 124.005 96.73L124.015 97.53C123.435 97.52 122.565 97.54 122.055 97.68C120.625 98.14 119.755 99.67 119.755 100.85C119.755 102.8 121.585 103.42 123.205 103.49L122.925 104.31C121.065 104.24 118.965 103.26 118.965 101.02C118.965 99.46 119.915 98.19 120.835 97.65C119.755 97.76 117.215 98.01 116.125 98.24L116.035 97.36ZM127.825 97.03C127.775 97.26 127.745 97.74 127.735 98C127.725 98.62 127.735 99.54 127.805 100.36C127.975 102.03 128.455 103.14 129.175 103.14C129.685 103.14 130.155 102.11 130.415 101.11L131.045 101.82C130.435 103.51 129.835 104.09 129.155 104.09C128.205 104.09 127.305 103.15 127.025 100.56C126.935 99.7 126.915 98.48 126.915 97.9C126.915 97.67 126.915 97.24 126.855 97.01L127.825 97.03ZM133.025 97.3C133.925 98.46 134.645 100.59 134.795 102.28L133.985 102.6C133.815 100.8 133.205 98.74 132.255 97.57L133.025 97.3ZM138.375 96.64C138.595 96.66 138.875 96.67 139.075 96.67C139.605 96.67 141.975 96.6 142.505 96.55C142.805 96.52 142.945 96.5 143.055 96.46L143.515 97.05C143.335 97.17 143.135 97.3 142.945 97.45C142.455 97.83 141.095 99 140.315 99.64C140.775 99.49 141.255 99.44 141.705 99.44C143.365 99.44 144.555 100.43 144.555 101.78C144.555 103.39 143.225 104.44 141.105 104.44C139.745 104.44 138.915 103.85 138.915 103.01C138.915 102.33 139.535 101.71 140.455 101.71C141.785 101.71 142.455 102.65 142.525 103.66L141.805 103.78C141.745 102.93 141.255 102.32 140.455 102.32C139.995 102.32 139.645 102.6 139.645 102.95C139.645 103.44 140.195 103.73 140.985 103.73C142.685 103.73 143.755 103.03 143.755 101.78C143.755 100.79 142.815 100.06 141.505 100.06C139.845 100.06 138.945 100.76 137.685 102.05L137.105 101.47C137.935 100.79 139.225 99.71 139.795 99.22C140.355 98.76 141.615 97.71 142.115 97.26C141.585 97.29 139.585 97.37 139.065 97.4C138.835 97.42 138.615 97.43 138.395 97.46L138.375 96.64ZM150.945 97.25C152.035 97.44 154.065 97.4 155.055 97.25V98.06C153.985 98.18 152.045 98.18 150.955 98.06L150.945 97.25ZM151.335 101.33C151.245 101.69 151.195 101.97 151.195 102.24C151.195 102.7 151.515 103.15 152.885 103.15C153.775 103.15 154.555 103.07 155.355 102.88L155.375 103.72C154.755 103.85 153.915 103.93 152.875 103.93C151.205 103.93 150.455 103.37 150.455 102.43C150.455 102.1 150.505 101.74 150.615 101.26L151.335 101.33ZM149.045 96.48C148.985 96.65 148.905 96.97 148.865 97.15C148.675 98.08 148.365 99.86 148.365 100.99C148.365 101.47 148.395 101.89 148.455 102.38C148.625 101.93 148.855 101.33 149.025 100.92L149.445 101.25C149.195 101.96 148.825 103.01 148.735 103.49C148.705 103.63 148.685 103.82 148.685 103.94C148.695 104.04 148.705 104.18 148.715 104.29L148.005 104.34C147.805 103.63 147.635 102.48 147.635 101.12C147.635 99.65 147.965 97.94 148.085 97.11C148.115 96.88 148.145 96.63 148.155 96.41L149.045 96.48ZM161.985 99.03C161.705 98.72 161.275 98.34 160.905 98.08L161.455 97.66C161.725 97.85 162.265 98.3 162.545 98.6L161.985 99.03ZM159.575 98.4C159.655 98.56 159.755 98.74 159.825 98.88C160.105 99.4 160.625 100.45 160.945 101.2C161.385 102.2 161.875 103.7 162.155 104.57L161.365 104.78C161.115 103.83 160.695 102.53 160.265 101.5C159.895 100.65 159.455 99.72 159.185 99.28C159.095 99.13 158.935 98.88 158.785 98.72L159.575 98.4ZM157.925 100.78C158.225 100.71 158.495 100.62 158.635 100.56C159.755 100.12 161.995 98.95 163.265 98.95C164.595 98.95 165.185 99.72 165.185 100.56C165.185 101.6 164.575 102.3 163.185 102.3C162.735 102.3 162.235 102.16 161.955 102.05L161.985 101.31C162.295 101.46 162.745 101.59 163.155 101.59C164.115 101.59 164.445 101.1 164.445 100.56C164.445 100.14 164.145 99.64 163.245 99.64C161.925 99.64 159.195 101.16 158.315 101.56L157.925 100.78ZM168.94 101.57C169.78 101.57 170.46 102.25 170.46 103.09C170.46 103.93 169.78 104.61 168.94 104.61C168.1 104.61 167.41 103.93 167.41 103.09C167.41 102.25 168.1 101.57 168.94 101.57ZM168.94 104.1C169.5 104.1 169.95 103.65 169.95 103.09C169.95 102.53 169.5 102.08 168.94 102.08C168.38 102.08 167.92 102.53 167.92 103.09C167.92 103.65 168.38 104.1 168.94 104.1ZM182.92 96C182.88 96.21 182.86 96.6 182.86 96.87C182.86 97.14 182.86 97.66 182.86 97.86H182.06C182.06 97.66 182.06 97.16 182.06 96.87C182.06 96.59 182.05 96.22 182.01 96H182.92ZM185.67 97.96C185.49 98.14 185.27 98.37 185.11 98.56C184.59 99.17 183.73 100.03 182.78 100.68C181.69 101.44 180.38 102.02 178.67 102.54L178.18 101.8C180.08 101.34 181.33 100.69 182.23 100.1C183.13 99.52 183.92 98.74 184.27 98.27C183.8 98.27 180.56 98.27 180.11 98.27C179.77 98.27 179.19 98.28 178.89 98.31V97.46C179.21 97.5 179.76 97.52 180.1 97.52C180.56 97.52 183.91 97.52 184.51 97.52C184.75 97.52 184.98 97.5 185.14 97.45L185.67 97.96ZM182.84 100.27C182.84 101.04 182.84 102.55 182.84 103.32C182.84 103.67 182.86 104.12 182.89 104.43H181.98C182.01 104.13 182.04 103.67 182.04 103.32C182.04 102.57 182.04 101.25 182.04 100.61L182.84 100.27ZM186.13 102.66C185.26 102.02 184.66 101.62 183.73 101.12L184.25 100.54C185.19 101.04 185.73 101.36 186.66 101.98L186.13 102.66ZM189.315 97.15C189.655 97.18 190.085 97.21 190.415 97.21H195.335C195.585 97.21 195.875 97.2 196.075 97.19C196.065 97.41 196.055 97.73 196.055 97.96V103.13C196.055 103.49 196.085 103.94 196.095 104.09H195.195C195.195 103.94 195.215 103.57 195.215 103.21V98H190.415C190.045 98 189.555 98.02 189.315 98.04V97.15ZM189.195 102.67C189.445 102.69 189.885 102.72 190.295 102.72H195.665V103.54H190.325C189.915 103.54 189.465 103.55 189.195 103.58V102.67ZM199.715 97.15C200.055 97.18 200.485 97.21 200.815 97.21H205.735C205.985 97.21 206.275 97.2 206.475 97.19C206.465 97.41 206.455 97.73 206.455 97.96V103.13C206.455 103.49 206.485 103.94 206.495 104.09H205.595C205.595 103.94 205.615 103.57 205.615 103.21V98H200.815C200.445 98 199.955 98.02 199.715 98.04V97.15ZM199.595 102.67C199.845 102.69 200.285 102.72 200.695 102.72H206.065V103.54H200.725C200.315 103.54 199.865 103.55 199.595 103.58V102.67ZM214.035 97.18C213.905 98.22 213.705 99.39 213.395 100.46C212.785 102.51 211.985 103.57 211.065 103.57C210.165 103.57 209.275 102.55 209.275 100.89C209.275 98.72 211.205 96.83 213.655 96.83C215.995 96.83 217.485 98.48 217.485 100.51C217.485 102.6 216.105 104 213.725 104.31L213.265 103.57C213.585 103.54 213.885 103.5 214.125 103.45C215.405 103.16 216.665 102.2 216.665 100.47C216.665 98.87 215.555 97.55 213.635 97.55C211.435 97.55 210.065 99.36 210.065 100.83C210.065 102.09 210.635 102.65 211.085 102.65C211.555 102.65 212.095 101.97 212.605 100.28C212.895 99.33 213.105 98.2 213.205 97.16L214.035 97.18ZM221.185 103.73H226.475V104.37H221.185V103.73ZM220.885 100.27H226.715V100.89H220.885V100.27ZM220.885 98.91H226.715V99.53H220.885V98.91ZM219.345 97.51H228.315V98.17H219.345V97.51ZM221.045 96.16H226.575V96.77H221.045V96.16ZM220.775 101.65H226.855V104.77H226.085V102.3H221.505V104.8H220.775V101.65ZM120.75 113.28H129.66V113.89H120.75V113.28ZM120.75 115.23H129.65V115.83H120.75V115.23ZM123.1 112.61H123.84V114.65H123.1V112.61ZM126.52 112.61H127.26V114.69H126.52V112.61ZM120.72 118.98H129.7V119.58H120.72V118.98ZM124.8 118.15H125.54V121.8H124.8V118.15ZM124.54 119.28L125.1 119.56C124.15 120.48 122.42 121.29 120.98 121.66C120.87 121.48 120.67 121.21 120.51 121.06C121.95 120.76 123.66 120.06 124.54 119.28ZM125.82 119.24C126.66 120.08 128.34 120.77 129.88 121.05C129.72 121.2 129.51 121.5 129.4 121.69C127.85 121.33 126.18 120.5 125.26 119.48L125.82 119.24ZM122.11 114.49H122.85V117.63H129.35V118.24H122.11V114.49ZM124.52 114.4H125.23V116.56H127.32V114.48H128.06V117.06H124.52V114.4ZM135.2 113.1C135.11 113.49 135 114.04 134.74 114.71C134.49 115.32 134.12 115.99 133.72 116.51C134.11 116.28 134.68 116.14 135.12 116.14C135.89 116.14 136.49 116.6 136.49 117.41C136.49 117.93 136.51 119.08 136.52 119.7H135.75C135.79 119.17 135.8 118.14 135.79 117.62C135.78 117.04 135.38 116.77 134.86 116.77C134.22 116.77 133.59 117.09 133.13 117.5C132.84 117.78 132.56 118.14 132.23 118.55L131.54 118.04C132.98 116.66 133.65 115.5 133.99 114.65C134.21 114.1 134.35 113.5 134.38 113.03L135.2 113.1ZM131.77 114.18C132.31 114.25 133 114.28 133.46 114.28C134.81 114.28 136.54 114.2 137.95 113.95V114.69C136.55 114.9 134.69 114.99 133.42 114.99C132.99 114.99 132.33 114.97 131.77 114.93V114.18ZM139.41 116.59C139.16 116.67 138.8 116.81 138.53 116.91C137.82 117.19 136.87 117.57 135.9 118.07C134.91 118.59 134.21 119.13 134.21 119.82C134.21 120.6 134.98 120.72 136.01 120.72C136.79 120.72 137.87 120.63 138.75 120.47L138.72 121.28C137.96 121.37 136.85 121.45 135.98 121.45C134.56 121.45 133.41 121.14 133.41 119.93C133.41 118.71 134.65 117.96 135.84 117.35C136.79 116.86 137.6 116.55 138.26 116.24C138.56 116.1 138.81 115.99 139.09 115.85L139.41 116.59ZM141.72 115.49H150.28V117.53H149.55V116.16H142.42V117.53H141.72V115.49ZM142.93 117.29H148.52V117.99H142.93V117.29ZM149.19 112.57L149.72 113.17C147.71 113.59 144.59 113.85 141.99 113.95C141.97 113.76 141.88 113.48 141.81 113.31C144.4 113.19 147.48 112.93 149.19 112.57ZM142.65 114.16L143.3 113.97C143.59 114.38 143.89 114.94 144.01 115.3L143.33 115.52C143.21 115.16 142.92 114.59 142.65 114.16ZM145.31 113.95L145.99 113.8C146.22 114.26 146.46 114.87 146.52 115.26L145.81 115.43C145.75 115.04 145.54 114.42 145.31 113.95ZM148.73 113.78L149.49 114C149.13 114.64 148.66 115.38 148.3 115.85L147.7 115.64C148.05 115.14 148.49 114.34 148.73 113.78ZM148.25 117.29H148.42L148.56 117.26L149.06 117.57C147.83 120.11 145 121.27 141.95 121.78C141.87 121.59 141.66 121.26 141.51 121.1C144.51 120.69 147.21 119.63 148.25 117.42V117.29ZM143.91 117.75C145.05 119.59 147.46 120.71 150.47 121.07C150.32 121.24 150.11 121.56 150.02 121.77C146.97 121.33 144.56 120.11 143.25 118.03L143.91 117.75ZM159.01 113.21C158.98 113.37 158.97 113.57 158.97 113.8C158.96 114.17 159 115.86 159 116.42C159 118.71 159 120.35 156.88 121.59L156.15 121.03C156.46 120.9 156.87 120.65 157.12 120.4C158.19 119.47 158.24 118.33 158.24 116.41C158.24 115.77 158.2 114.22 158.17 113.8C158.15 113.58 158.11 113.36 158.07 113.21H159.01ZM155.35 115.28C155.79 115.35 156.42 115.39 156.97 115.39C158.2 115.39 159.62 115.31 160.62 115.08V115.89C159.65 116.05 158.25 116.14 156.98 116.14C156.49 116.14 155.79 116.11 155.35 116.07V115.28ZM153.95 113.36C153.89 113.54 153.82 113.82 153.78 114.01C153.46 115.46 153.11 117.65 153.5 119.29C153.63 118.86 153.85 118.25 154.03 117.76L154.46 118.02C154.22 118.71 153.92 119.73 153.81 120.23C153.78 120.37 153.76 120.56 153.77 120.68C153.77 120.78 153.79 120.91 153.8 121.02L153.11 121.1C152.91 120.48 152.59 119.18 152.59 117.93C152.59 116.3 152.85 114.77 152.97 113.93C153 113.71 153.01 113.44 153.02 113.26L153.95 113.36ZM169.93 115.04C169.71 115.17 169.46 115.31 169.16 115.46C168.49 115.81 167.1 116.47 166.12 117.11C165.19 117.72 164.63 118.38 164.63 119.13C164.63 119.96 165.43 120.48 167.01 120.48C168.09 120.48 169.43 120.34 170.21 120.14L170.2 121.04C169.45 121.17 168.29 121.28 167.04 121.28C165.16 121.28 163.8 120.72 163.8 119.22C163.8 118.14 164.53 117.29 165.71 116.51C166.73 115.83 168.13 115.16 168.78 114.79C169.07 114.62 169.29 114.49 169.5 114.32L169.93 115.04ZM164.87 113.22C165.33 114.5 165.95 115.75 166.41 116.56L165.73 116.97C165.22 116.15 164.62 114.8 164.08 113.56L164.87 113.22ZM174.58 113.64C174.8 113.66 175.08 113.67 175.28 113.67C175.81 113.67 178.18 113.6 178.71 113.55C179.01 113.52 179.15 113.5 179.26 113.46L179.72 114.05C179.54 114.17 179.34 114.3 179.15 114.45C178.66 114.83 177.3 116 176.52 116.64C176.98 116.49 177.46 116.44 177.91 116.44C179.57 116.44 180.76 117.43 180.76 118.78C180.76 120.39 179.43 121.44 177.31 121.44C175.95 121.44 175.12 120.85 175.12 120.01C175.12 119.33 175.74 118.71 176.66 118.71C177.99 118.71 178.66 119.65 178.73 120.66L178.01 120.78C177.95 119.93 177.46 119.32 176.66 119.32C176.2 119.32 175.85 119.6 175.85 119.95C175.85 120.44 176.4 120.73 177.19 120.73C178.89 120.73 179.96 120.03 179.96 118.78C179.96 117.79 179.02 117.06 177.71 117.06C176.05 117.06 175.15 117.76 173.89 119.05L173.31 118.47C174.14 117.79 175.43 116.71 176 116.22C176.56 115.76 177.82 114.71 178.32 114.26C177.79 114.29 175.79 114.37 175.27 114.4C175.04 114.42 174.82 114.43 174.6 114.46L174.58 113.64ZM187.15 114.25C188.24 114.44 190.27 114.4 191.26 114.25V115.06C190.19 115.18 188.25 115.18 187.16 115.06L187.15 114.25ZM187.54 118.33C187.45 118.69 187.4 118.97 187.4 119.24C187.4 119.7 187.72 120.15 189.09 120.15C189.98 120.15 190.76 120.07 191.56 119.88L191.58 120.72C190.96 120.85 190.12 120.93 189.08 120.93C187.41 120.93 186.66 120.37 186.66 119.43C186.66 119.1 186.71 118.74 186.82 118.26L187.54 118.33ZM185.25 113.48C185.19 113.65 185.11 113.97 185.07 114.15C184.88 115.08 184.57 116.86 184.57 117.99C184.57 118.47 184.6 118.89 184.66 119.38C184.83 118.93 185.06 118.33 185.23 117.92L185.65 118.25C185.4 118.96 185.03 120.01 184.94 120.49C184.91 120.63 184.89 120.82 184.89 120.94C184.9 121.04 184.91 121.18 184.92 121.29L184.21 121.34C184.01 120.63 183.84 119.48 183.84 118.12C183.84 116.65 184.17 114.94 184.29 114.11C184.32 113.88 184.35 113.63 184.36 113.41L185.25 113.48ZM198.19 116.03C197.91 115.72 197.48 115.34 197.11 115.08L197.66 114.66C197.93 114.85 198.47 115.3 198.75 115.6L198.19 116.03ZM195.78 115.4C195.86 115.56 195.96 115.74 196.03 115.88C196.31 116.4 196.83 117.45 197.15 118.2C197.59 119.2 198.08 120.7 198.36 121.57L197.57 121.78C197.32 120.83 196.9 119.53 196.47 118.5C196.1 117.65 195.66 116.72 195.39 116.28C195.3 116.13 195.14 115.88 194.99 115.72L195.78 115.4ZM194.13 117.78C194.43 117.71 194.7 117.62 194.84 117.56C195.96 117.12 198.2 115.95 199.47 115.95C200.8 115.95 201.39 116.72 201.39 117.56C201.39 118.6 200.78 119.3 199.39 119.3C198.94 119.3 198.44 119.16 198.16 119.05L198.19 118.31C198.5 118.46 198.95 118.59 199.36 118.59C200.32 118.59 200.65 118.1 200.65 117.56C200.65 117.14 200.35 116.64 199.45 116.64C198.13 116.64 195.4 118.16 194.52 118.56L194.13 117.78ZM208.87 113.58C208.78 113.7 208.66 113.88 208.55 114.07C208.1 114.76 207.18 116.42 206.67 117.39C207.15 116.96 207.67 116.77 208.15 116.77C208.82 116.77 209.3 117.2 209.33 117.99C209.35 118.58 209.33 119.34 209.37 119.83C209.4 120.33 209.74 120.55 210.17 120.55C211.29 120.55 211.95 119.17 212.2 118.1L212.87 118.64C212.34 120.25 211.5 121.37 210.05 121.37C208.98 121.37 208.63 120.7 208.6 120.11C208.57 119.52 208.58 118.75 208.55 118.2C208.53 117.77 208.27 117.5 207.82 117.5C207.02 117.5 206.26 118.32 205.88 119.11C205.57 119.7 205.15 120.89 205.01 121.38L204.15 121.08C204.88 119.06 207.07 114.96 207.62 114C207.73 113.76 207.86 113.52 207.98 113.22L208.87 113.58ZM215.74 118.57C216.58 118.57 217.26 119.25 217.26 120.09C217.26 120.93 216.58 121.61 215.74 121.61C214.9 121.61 214.21 120.93 214.21 120.09C214.21 119.25 214.9 118.57 215.74 118.57ZM215.74 121.1C216.3 121.1 216.75 120.65 216.75 120.09C216.75 119.53 216.3 119.08 215.74 119.08C215.18 119.08 214.72 119.53 214.72 120.09C214.72 120.65 215.18 121.1 215.74 121.1Z" fill="black"/>
<defs>
<filter id="filter0_d_2133_11206" x="105.95" y="287.5" width="133.101" height="28.1006" filterUnits="userSpaceOnUse" color-interpolation-filters="sRGB">
<feFlood flood-opacity="0" result="BackgroundImageFix"/>
<feColorMatrix in="SourceAlpha" type="matrix" values="0 0 0 0 0 0 0 0 0 0 0 0 0 0 0 0 0 0 127 0" result="hardAlpha"/>
<feOffset dy="2.5503"/>
<feGaussianBlur stdDeviation="1.27515"/>
<feComposite in2="hardAlpha" operator="out"/>
<feColorMatrix type="matrix" values="0 0 0 0 0 0 0 0 0 0 0 0 0 0 0 0 0 0 0.25 0"/>
<feBlend mode="normal" in2="BackgroundImageFix" result="effect1_dropShadow_2133_11206"/>
<feBlend mode="normal" in="SourceGraphic" in2="effect1_dropShadow_2133_11206" result="shape"/>
</filter>
<filter id="filter1_d_2133_11206" x="105.45" y="253" width="134.101" height="27.1006" filterUnits="userSpaceOnUse" color-interpolation-filters="sRGB">
<feFlood flood-opacity="0" result="BackgroundImageFix"/>
<feColorMatrix in="SourceAlpha" type="matrix" values="0 0 0 0 0 0 0 0 0 0 0 0 0 0 0 0 0 0 127 0" result="hardAlpha"/>
<feOffset dy="2.5503"/>
<feGaussianBlur stdDeviation="1.27515"/>
<feComposite in2="hardAlpha" operator="out"/>
<feColorMatrix type="matrix" values="0 0 0 0 0 0 0 0 0 0 0 0 0 0 0 0 0 0 0.25 0"/>
<feBlend mode="normal" in2="BackgroundImageFix" result="effect1_dropShadow_2133_11206"/>
<feBlend mode="normal" in="SourceGraphic" in2="effect1_dropShadow_2133_11206" result="shape"/>
</filter>
</defs>
</svg>
