<svg width="105" height="111" viewBox="0 0 105 111" fill="none" xmlns="http://www.w3.org/2000/svg">
<path d="M15.2168 26.4527C22.3629 13.3836 25.3005 5.01624 30.3654 2.69076C35.4303 0.365281 39.5783 20.573 39.5783 20.573L50.8574 20.2132C50.8574 20.2132 67.4602 -1.36577 71.3379 0.0684516C75.2156 1.50267 74.0093 23.8105 74.0093 23.8105C83.0821 35.3912 85.8846 42.0659 86.4756 54.3874C86.4756 54.3874 100.857 62.8026 96.5327 67.1273C92.6714 70.9887 89.1071 64.1571 88.5131 69.5035C87.919 74.85 87.622 74.5529 86.8469 76.6497C85.8398 77.8202 87.0279 78.0998 92.6714 75.444C98.3148 72.7882 99.8 72.0141 101.879 72.0141C103.958 72.0141 109.899 76.4666 96.5327 80.7904C83.1666 85.1143 85.3635 81.9598 85.0177 82.6291C85.0177 85.5428 77.2262 94.1565 75.147 94.7506C75.147 94.7506 71.5827 110.493 65.3452 110.493C59.1077 110.493 55.8405 99.2059 55.8405 99.2059C49.9 99.5029 51.9791 100.394 44.5536 98.6119C44.5536 98.6119 46.5846 110.493 40.7608 110.493C34.4544 110.493 22.3629 91.7991 22.3629 91.7991C18.4155 90.2952 10.0988 76.6497 9.00607 72.0141C9.00607 72.0141 -0.917315 83.6015 0.0689287 74.5705C1.00202 66.0262 9.00607 60.0163 9.00607 54.3729C9.00607 48.7294 8.07072 39.5217 15.2168 26.4527Z" fill="#FFBBDC"/>
<path d="M47.0429 51.7123C47.0905 51.7047 47.138 51.6978 47.1832 51.6912L47.1846 51.691C47.2309 51.6843 47.2749 51.6779 47.3184 51.671C47.6193 51.623 48.5764 51.3698 49.2061 49.9676C49.31 49.7362 49.2668 49.5074 49.1271 49.3262C48.9838 49.1403 48.7393 49.0089 48.4574 49.0089H44.7869C44.5075 49.0089 44.2642 49.1382 44.1208 49.3217C43.9811 49.5004 43.9368 49.7259 44.0374 49.9549C44.474 50.9495 45.1109 51.3958 45.6834 51.5946C46.2679 51.7974 46.809 51.7495 47.0429 51.7123Z" fill="white" stroke="black" stroke-width="0.594047"/>
<path d="M34.2012 43.408C33.1195 44.4035 35.0632 45.9874 37.7554 46.0374C40.4475 46.0873 42.8149 44.8931 41.9238 43.408C41.0328 41.9228 40.7575 44.2333 38.0653 44.1834C35.3731 44.1334 35.283 42.4124 34.2012 43.408Z" fill="black"/>
<path d="M51.4283 43.408C50.3465 44.4035 52.2902 45.9874 54.9824 46.0374C57.6746 46.0873 60.042 44.8931 59.1509 43.408C58.2598 41.9228 57.9845 44.2333 55.2923 44.1834C52.6001 44.1334 52.5101 42.4124 51.4283 43.408Z" fill="black"/>
</svg>
