<svg width="267" height="336" viewBox="0 0 267 336" fill="none" xmlns="http://www.w3.org/2000/svg">
<mask id="path-1-inside-1_1013_10444" fill="white">
<path d="M8 13.5825C8 10.8211 10.2386 8.58252 13 8.58252H176C178.761 8.58252 181 10.8211 181 13.5825V335.782H8V13.5825Z"/>
</mask>
<path d="M8 13.5825C8 10.8211 10.2386 8.58252 13 8.58252H176C178.761 8.58252 181 10.8211 181 13.5825V335.782H8V13.5825Z" fill="#6E6E6E"/>
<path d="M7 13.5825C7 10.2688 9.68629 7.58252 13 7.58252H176C179.314 7.58252 182 10.2688 182 13.5825H180C180 11.3734 178.209 9.58252 176 9.58252H13C10.7909 9.58252 9 11.3734 9 13.5825H7ZM181 335.782H8H181ZM7 335.782V13.5825C7 10.2688 9.68629 7.58252 13 7.58252V9.58252C10.7909 9.58252 9 11.3734 9 13.5825V335.782H7ZM176 7.58252C179.314 7.58252 182 10.2688 182 13.5825V335.782H180V13.5825C180 11.3734 178.209 9.58252 176 9.58252V7.58252Z" fill="#D9D9D9" mask="url(#path-1-inside-1_1013_10444)"/>
<mask id="path-3-inside-2_1013_10444" fill="white">
<path d="M0 8.00001C0 3.58174 3.58172 0 8 0H181C185.418 0 189 3.58172 189 8V335.782H0V8.00001Z"/>
</mask>
<path d="M-3 8C-3 1.92487 1.92487 -3 8 -3H181C187.075 -3 192 1.92487 192 8H186C186 5.23858 183.761 3 181 3H8C5.23858 3 3 5.23858 3 8H-3ZM189 335.782H0H189ZM-3 335.782V8C-3 1.92487 1.92487 -3 8 -3V3C5.23858 3 3 5.23858 3 8V335.782H-3ZM181 -3C187.075 -3 192 1.92487 192 8V335.782H186V8C186 5.23858 183.761 3 181 3V-3Z" fill="#A29C9C" fill-opacity="0.5" mask="url(#path-3-inside-2_1013_10444)"/>
<path d="M9 13.6553C9 11.4461 10.7909 9.65527 13 9.65527H176C178.209 9.65527 180 11.4461 180 13.6553V33.2565H9V13.6553Z" fill="#04CAD6"/>
<rect x="18.5" y="14.4463" width="25.4615" height="13.1608" rx="4.5" fill="#04CAD6"/>
<rect x="18.5" y="14.4463" width="25.4615" height="13.1608" rx="4.5" stroke="white"/>
<path d="M22.6464 21.2998C22.4512 21.1046 22.4512 20.788 22.6464 20.5927L25.8284 17.4108C26.0237 17.2155 26.3403 17.2155 26.5355 17.4108C26.7308 17.606 26.7308 17.9226 26.5355 18.1179L23.7071 20.9463L26.5355 23.7747C26.7308 23.97 26.7308 24.2866 26.5355 24.4818C26.3403 24.6771 26.0237 24.6771 25.8284 24.4818L22.6464 21.2998ZM24 21.4463L23 21.4463L23 20.4463L24 20.4463L24 21.4463Z" fill="white"/>
<path d="M31.76 20.7943H34.724V21.0623H31.76V20.7943ZM33.376 20.9423C33.576 21.5583 34.056 21.8903 34.864 22.0023C34.796 22.0663 34.716 22.1903 34.68 22.2703C33.824 22.1143 33.34 21.7263 33.1 20.9943L33.376 20.9423ZM33.044 20.2823H33.348C33.28 21.3543 33.08 21.9863 31.812 22.2783C31.784 22.2063 31.704 22.0903 31.648 22.0343C32.832 21.7823 32.984 21.2383 33.044 20.2823ZM31.596 19.3783H31.896V20.1983C31.896 20.7903 31.82 21.6303 31.372 22.2023C31.32 22.1503 31.188 22.0663 31.112 22.0343C31.548 21.4983 31.596 20.7383 31.596 20.1903V19.3783ZM31.744 19.3783H34.488V20.3223H31.744V20.0823H34.192V19.6143H31.744V19.3783ZM31.32 18.8103H34.7V19.0863H31.32V18.8103ZM35.952 19.0023C36.04 19.0103 36.152 19.0143 36.232 19.0143C36.444 19.0143 37.392 18.9863 37.604 18.9663C37.724 18.9543 37.78 18.9463 37.824 18.9303L38.008 19.1663C37.936 19.2143 37.856 19.2663 37.78 19.3263C37.584 19.4783 37.04 19.9463 36.728 20.2023C36.912 20.1423 37.104 20.1223 37.284 20.1223C37.948 20.1223 38.424 20.5183 38.424 21.0583C38.424 21.7023 37.892 22.1223 37.044 22.1223C36.5 22.1223 36.168 21.8863 36.168 21.5503C36.168 21.2783 36.416 21.0303 36.784 21.0303C37.316 21.0303 37.584 21.4063 37.612 21.8103L37.324 21.8583C37.3 21.5183 37.104 21.2743 36.784 21.2743C36.6 21.2743 36.46 21.3863 36.46 21.5263C36.46 21.7223 36.68 21.8383 36.996 21.8383C37.676 21.8383 38.104 21.5583 38.104 21.0583C38.104 20.6623 37.728 20.3703 37.204 20.3703C36.54 20.3703 36.18 20.6503 35.676 21.1663L35.444 20.9343C35.776 20.6623 36.292 20.2303 36.52 20.0343C36.744 19.8503 37.248 19.4303 37.448 19.2503C37.236 19.2623 36.436 19.2943 36.228 19.3063C36.136 19.3143 36.048 19.3183 35.96 19.3303L35.952 19.0023Z" fill="white"/>
<path d="M68.352 24.019V23.595C70.192 21.987 71.032 20.811 71.032 19.811C71.032 19.139 70.688 18.643 69.96 18.643C69.48 18.643 69.064 18.939 68.736 19.323L68.312 18.915C68.792 18.395 69.304 18.051 70.048 18.051C71.096 18.051 71.752 18.731 71.752 19.779C71.752 20.955 70.832 22.147 69.448 23.451C69.76 23.419 70.112 23.395 70.408 23.395H72.032V24.019H68.352ZM74.6615 24.131C73.5415 24.131 72.8295 23.115 72.8295 21.067C72.8295 19.035 73.5415 18.051 74.6615 18.051C75.7655 18.051 76.4775 19.035 76.4775 21.067C76.4775 23.115 75.7655 24.131 74.6615 24.131ZM74.6615 23.539C75.3255 23.539 75.7735 22.795 75.7735 21.067C75.7735 19.363 75.3255 18.635 74.6615 18.635C73.9895 18.635 73.5335 19.363 73.5335 21.067C73.5335 22.795 73.9895 23.539 74.6615 23.539ZM77.227 24.019V23.595C79.067 21.987 79.907 20.811 79.907 19.811C79.907 19.139 79.563 18.643 78.835 18.643C78.355 18.643 77.939 18.939 77.611 19.323L77.187 18.915C77.667 18.395 78.179 18.051 78.923 18.051C79.971 18.051 80.627 18.731 80.627 19.779C80.627 20.955 79.707 22.147 78.323 23.451C78.635 23.419 78.987 23.395 79.283 23.395H80.907V24.019H77.227ZM83.4165 24.131C82.4965 24.131 81.9285 23.747 81.5445 23.323L81.9125 22.843C82.2565 23.203 82.6965 23.523 83.3685 23.523C84.0645 23.523 84.5605 23.099 84.5605 22.427C84.5605 21.723 84.0885 21.259 82.7365 21.259V20.691C83.9445 20.691 84.3525 20.211 84.3525 19.571C84.3525 19.011 83.9765 18.643 83.3685 18.643C82.8965 18.643 82.4805 18.883 82.1525 19.219L81.7605 18.747C82.2005 18.347 82.7205 18.051 83.3925 18.051C84.3765 18.051 85.0965 18.587 85.0965 19.523C85.0965 20.235 84.6805 20.707 84.0565 20.931V20.963C84.7445 21.131 85.3045 21.651 85.3045 22.459C85.3045 23.499 84.4645 24.131 83.4165 24.131ZM85.838 25.451L88.238 17.667H88.758L86.366 25.451H85.838ZM89.5868 24.019V23.411H90.8908V19.043H89.8428V18.571C90.3708 18.483 90.7468 18.347 91.0588 18.155H91.6188V23.411H92.8028V24.019H89.5868ZM95.5443 24.131C94.4243 24.131 93.7123 23.115 93.7123 21.067C93.7123 19.035 94.4243 18.051 95.5443 18.051C96.6483 18.051 97.3603 19.035 97.3603 21.067C97.3603 23.115 96.6483 24.131 95.5443 24.131ZM95.5443 23.539C96.2083 23.539 96.6563 22.795 96.6563 21.067C96.6563 19.363 96.2083 18.635 95.5443 18.635C94.8723 18.635 94.4163 19.363 94.4163 21.067C94.4163 22.795 94.8723 23.539 95.5443 23.539ZM97.8458 25.451L100.246 17.667H100.766L98.3738 25.451H97.8458ZM101.595 24.019V23.411H102.899V19.043H101.851V18.571C102.379 18.483 102.755 18.347 103.067 18.155H103.627V23.411H104.811V24.019H101.595ZM107.552 24.131C106.432 24.131 105.72 23.115 105.72 21.067C105.72 19.035 106.432 18.051 107.552 18.051C108.656 18.051 109.368 19.035 109.368 21.067C109.368 23.115 108.656 24.131 107.552 24.131ZM107.552 23.539C108.216 23.539 108.664 22.795 108.664 21.067C108.664 19.363 108.216 18.635 107.552 18.635C106.88 18.635 106.424 19.363 106.424 21.067C106.424 22.795 106.88 23.539 107.552 23.539ZM111.678 25.595C110.934 24.395 110.494 23.115 110.494 21.539C110.494 19.971 110.934 18.675 111.678 17.475L112.126 17.691C111.438 18.827 111.102 20.179 111.102 21.539C111.102 22.899 111.438 24.251 112.126 25.387L111.678 25.595ZM114.077 18.923L114.669 19.051C114.533 20.011 114.261 20.987 113.549 21.531L113.029 21.179C113.669 20.691 113.949 19.819 114.077 18.923ZM119.101 18.915L119.749 19.171C119.357 19.923 118.845 20.827 118.437 21.403L117.933 21.171C118.325 20.579 118.829 19.611 119.101 18.915ZM116.429 17.419H116.749V20.011C116.749 20.931 117.317 23.139 120.093 24.115C119.965 24.251 119.781 24.499 119.693 24.675C117.373 23.787 116.589 21.947 116.429 21.171C116.269 21.955 115.541 23.739 113.269 24.675C113.189 24.539 112.989 24.299 112.853 24.171C115.549 23.147 116.109 20.939 116.109 20.011V17.419H116.429ZM121.261 25.595L120.805 25.387C121.493 24.251 121.829 22.899 121.829 21.539C121.829 20.179 121.493 18.827 120.805 17.691L121.261 17.475C121.997 18.675 122.437 19.971 122.437 21.539C122.437 23.115 121.997 24.395 121.261 25.595Z" fill="white"/>
<path d="M158.513 24.0918V23.7208C160.123 22.3138 160.858 21.2848 160.858 20.4098C160.858 19.8218 160.557 19.3878 159.92 19.3878C159.5 19.3878 159.136 19.6468 158.849 19.9828L158.478 19.6258C158.898 19.1708 159.346 18.8698 159.997 18.8698C160.914 18.8698 161.488 19.4648 161.488 20.3818C161.488 21.4108 160.683 22.4538 159.472 23.5948C159.745 23.5668 160.053 23.5458 160.312 23.5458H161.733V24.0918H158.513ZM163.915 24.1898C163.117 24.1898 162.627 23.8538 162.277 23.5038L162.599 23.0838C162.886 23.3848 163.264 23.6578 163.852 23.6578C164.461 23.6578 164.944 23.1888 164.944 22.4468C164.944 21.7118 164.524 21.2708 163.887 21.2708C163.544 21.2708 163.327 21.3828 163.033 21.5788L162.69 21.3618L162.851 18.9608H165.35V19.5068H163.411L163.278 20.9908C163.509 20.8648 163.74 20.7878 164.048 20.7878C164.902 20.7878 165.595 21.2918 165.595 22.4258C165.595 23.5458 164.776 24.1898 163.915 24.1898ZM167.28 20.7528C166.755 20.7528 166.293 20.3608 166.293 19.7588C166.293 19.1428 166.755 18.7508 167.28 18.7508C167.805 18.7508 168.267 19.1428 168.267 19.7588C168.267 20.3608 167.805 20.7528 167.28 20.7528ZM167.28 20.3888C167.623 20.3888 167.875 20.1228 167.875 19.7588C167.875 19.3808 167.623 19.1148 167.28 19.1148C166.93 19.1148 166.692 19.3808 166.692 19.7588C166.692 20.1228 166.93 20.3888 167.28 20.3888ZM171.116 24.1898C169.814 24.1898 168.862 23.2098 168.862 21.5438C168.862 19.8848 169.835 18.8838 171.144 18.8838C171.76 18.8838 172.25 19.1848 172.551 19.5138L172.18 19.9338C171.907 19.6468 171.578 19.4648 171.158 19.4648C170.185 19.4648 169.555 20.2558 169.555 21.5228C169.555 22.8038 170.157 23.5948 171.13 23.5948C171.613 23.5948 171.97 23.3988 172.292 23.0418L172.67 23.4478C172.264 23.9238 171.76 24.1898 171.116 24.1898Z" fill="white"/>
<path d="M143.709 16.0918V17.5939M147.04 17.5669L146.047 18.6289M148.418 21.1317H147.014M147.04 24.6964L146.047 23.6344M143.709 26.1715V24.6694M140.378 24.6964L141.371 23.6344M139 21.1317H140.403M140.378 17.5669L141.371 18.6289M143.709 18.4273C144.209 18.4273 144.697 18.5859 145.113 18.8831C145.528 19.1803 145.852 19.6026 146.043 20.0968C146.234 20.5909 146.285 21.1347 146.187 21.6592C146.09 22.1838 145.849 22.6657 145.496 23.0439C145.142 23.4221 144.692 23.6797 144.202 23.784C143.712 23.8883 143.204 23.8348 142.742 23.6301C142.28 23.4254 141.886 23.0788 141.608 22.6341C141.33 22.1894 141.182 21.6665 141.182 21.1317C141.182 20.4144 141.448 19.7266 141.922 19.2194C142.396 18.7123 143.039 18.4273 143.709 18.4273Z" stroke="white" stroke-width="0.520833" stroke-linecap="round" stroke-linejoin="round"/>
<path d="M146.155 21.213C146.155 22.7772 145.174 23.6441 143.85 23.8801C142.389 23.8801 141.204 22.7772 141.204 21.213C141.204 19.6489 142.389 18.3809 143.85 18.3809C145.312 18.3809 146.155 19.6489 146.155 21.213Z" fill="white"/>
<path d="M21 62C21 56.4771 25.4772 52 31 52H160C165.523 52 170 56.4772 170 62V314C170 319.523 165.523 324 160 324H31C25.4772 324 21 319.523 21 314V62Z" fill="white"/>
<g filter="url(#filter0_d_1013_10444)">
<rect x="32" y="288" width="127" height="22" rx="11" fill="white" shape-rendering="crispEdges"/>
<rect x="31.75" y="287.75" width="127.5" height="22.5" rx="11.25" stroke="#00ABB6" stroke-width="0.5" shape-rendering="crispEdges"/>
<path d="M48.5871 295.513C48.5553 295.696 48.5315 295.998 48.5315 296.244C48.5315 296.483 48.5315 296.888 48.5315 297.127H47.49C47.49 296.888 47.49 296.522 47.49 296.244C47.49 295.99 47.4821 295.704 47.4503 295.513H48.5871ZM50.8052 297.214C50.6064 297.421 50.36 297.683 50.193 297.874C49.7478 298.383 49.0801 299.043 48.3566 299.551C47.498 300.164 46.2816 300.688 45.0494 301.062L44.4372 300.124C45.9716 299.782 46.9892 299.233 47.6729 298.788C48.285 298.399 48.7779 297.93 49.0164 297.604C48.5871 297.604 46.4724 297.604 46.1386 297.604C45.8523 297.604 45.3515 297.62 45.0971 297.643V296.602C45.3992 296.642 45.8444 296.65 46.1147 296.65C46.4724 296.65 49.0164 296.65 49.4855 296.65C49.7319 296.65 49.9625 296.626 50.1453 296.578L50.8052 297.214ZM48.5156 298.947C48.5156 299.52 48.5156 300.8 48.5156 301.444C48.5156 301.754 48.5394 302.207 48.5633 302.453H47.4264C47.4503 302.231 47.4821 301.754 47.4821 301.444C47.4821 300.831 47.4821 299.854 47.4821 299.377L48.5156 298.947ZM50.9244 301.133C50.2328 300.593 49.7081 300.259 49.0244 299.869L49.6763 299.114C50.4077 299.504 50.8211 299.742 51.5843 300.259L50.9244 301.133ZM53.0349 296.356C53.337 296.387 53.7425 296.411 54.0207 296.411H58.0275C58.2581 296.411 58.584 296.395 58.7192 296.387C58.7112 296.578 58.6953 296.888 58.6953 297.127V301.245C58.6953 301.523 58.7192 301.936 58.7351 302.183H57.5823C57.5903 301.944 57.5982 301.658 57.5982 301.364V297.437H54.0207C53.6868 297.437 53.2575 297.453 53.0349 297.468V296.356ZM52.9395 300.672C53.2098 300.696 53.5676 300.72 53.9253 300.72H58.2263V301.769H53.9571C53.6471 301.769 53.2019 301.785 52.9395 301.817V300.672ZM60.9849 296.356C61.287 296.387 61.6925 296.411 61.9707 296.411H65.9775C66.2081 296.411 66.534 296.395 66.6692 296.387C66.6612 296.578 66.6453 296.888 66.6453 297.127V301.245C66.6453 301.523 66.6692 301.936 66.6851 302.183H65.5323C65.5403 301.944 65.5482 301.658 65.5482 301.364V297.437H61.9707C61.6368 297.437 61.2075 297.453 60.9849 297.468V296.356ZM60.8895 300.672C61.1598 300.696 61.5176 300.72 61.8753 300.72H66.1763V301.769H61.9071C61.5971 301.769 61.1519 301.785 60.8895 301.817V300.672ZM72.3932 296.554C72.2819 297.365 72.1229 298.295 71.8446 299.233C71.3676 300.839 70.6839 301.825 69.8174 301.825C68.927 301.825 68.1956 300.847 68.1956 299.504C68.1956 297.675 69.7935 296.101 71.8526 296.101C73.8162 296.101 75.0644 297.468 75.0644 299.21C75.0644 300.879 74.0388 302.064 72.0354 302.374L71.4312 301.436C71.7413 301.396 71.9639 301.356 72.1785 301.308C73.1882 301.062 73.9832 300.338 73.9832 299.17C73.9832 297.922 73.2041 297.031 71.8287 297.031C70.1433 297.031 69.2211 298.407 69.2211 299.408C69.2211 300.211 69.5391 300.601 69.8412 300.601C70.1831 300.601 70.4852 300.092 70.8191 299.019C71.0496 298.271 71.2245 297.357 71.304 296.522L72.3932 296.554ZM83.229 296.626C83.1495 296.729 82.9985 296.92 82.9269 297.031C82.5533 297.651 81.798 298.661 81.011 299.218L80.1842 298.558C80.8281 298.168 81.4482 297.468 81.6549 297.079C81.17 297.079 78.0059 297.079 77.505 297.079C77.1791 297.079 76.9088 297.095 76.5351 297.135V296.022C76.8452 296.069 77.1791 296.109 77.505 296.109C78.0059 296.109 81.3767 296.109 81.7901 296.109C82.0127 296.109 82.4499 296.077 82.601 296.038L83.229 296.626ZM79.9934 297.691C79.9934 299.663 79.9457 301.285 77.7833 302.453L76.8531 301.698C77.1155 301.61 77.4017 301.475 77.6958 301.253C78.6975 300.553 78.8883 299.718 78.8883 298.415C78.8883 298.16 78.8804 297.953 78.8406 297.691H79.9934ZM89.0087 296.085C89.2313 296.419 89.5572 296.928 89.7321 297.294L89.0484 297.596C88.8099 297.095 88.635 296.777 88.3409 296.371L89.0087 296.085ZM90.0501 295.656C90.2886 295.974 90.6225 296.467 90.7974 296.825L90.1296 297.158C89.8752 296.65 89.6844 296.356 89.3903 295.966L90.0501 295.656ZM85.8446 301.356C85.8446 300.752 85.8446 297.461 85.8446 296.785C85.8446 296.499 85.8128 296.109 85.7571 295.831H87.0053C86.9735 296.109 86.9337 296.459 86.9337 296.785C86.9337 297.667 86.9337 300.768 86.9337 301.356C86.9337 301.587 86.9735 302.143 87.0053 302.461H85.7651C85.8128 302.151 85.8446 301.674 85.8446 301.356ZM86.6952 297.882C87.7605 298.176 89.4698 298.804 90.2568 299.194L89.8037 300.291C88.9053 299.822 87.5618 299.313 86.6952 299.027V297.882ZM97.7378 295.664C97.9365 295.95 98.2227 296.459 98.3738 296.753L97.7298 297.023C97.5708 296.697 97.3244 296.228 97.1097 295.918L97.7378 295.664ZM98.6838 295.306C98.8905 295.6 99.1847 296.109 99.3198 296.387L98.6918 296.658C98.5248 296.324 98.2704 295.863 98.0478 295.561L98.6838 295.306ZM93.0711 299.528C93.4209 298.645 93.723 297.524 93.8264 296.507L94.9791 296.753C94.9155 296.976 94.8201 297.365 94.7883 297.548C94.677 298.105 94.3908 299.194 94.1126 299.933C93.8264 300.704 93.3573 301.61 92.9439 302.207L91.8309 301.738C92.3238 301.086 92.7929 300.235 93.0711 299.528ZM96.9905 299.369C96.6884 298.534 96.1796 297.357 95.8377 296.753L96.8951 296.411C97.229 297.023 97.7696 298.248 98.0717 299.011C98.3579 299.734 98.7792 300.998 98.9939 301.785L97.8173 302.167C97.6026 301.229 97.3085 300.227 96.9905 299.369ZM99.9876 298.915C101.411 298.55 102.571 298.033 103.462 297.484C104.273 296.984 105.179 296.189 105.696 295.561L106.554 296.371C105.831 297.103 104.861 297.85 103.923 298.415C103.025 298.947 101.737 299.543 100.481 299.917L99.9876 298.915ZM103.295 298.001L104.424 297.731V301.316C104.424 301.666 104.44 302.159 104.495 302.358H103.231C103.263 302.167 103.295 301.666 103.295 301.316V298.001ZM113.826 296.618C113.763 296.705 113.62 296.944 113.548 297.111C113.222 297.866 112.634 298.947 111.95 299.742C111.06 300.768 109.859 301.754 108.627 302.334L107.8 301.475C109.088 300.998 110.312 300.028 111.06 299.202C111.584 298.605 112.069 297.818 112.252 297.254C111.918 297.254 109.891 297.254 109.549 297.254C109.223 297.254 108.786 297.294 108.611 297.31V296.173C108.826 296.204 109.319 296.228 109.549 296.228C109.971 296.228 112.006 296.228 112.356 296.228C112.705 296.228 113.015 296.189 113.182 296.133L113.826 296.618ZM112.054 299.082C112.872 299.75 114.001 300.935 114.518 301.571L113.612 302.358C113.023 301.539 112.157 300.593 111.306 299.822L112.054 299.082ZM119.018 295.624C118.954 295.918 118.851 296.387 118.628 296.96C118.461 297.349 118.231 297.802 118.008 298.12C118.223 298.025 118.644 297.969 118.914 297.969C119.574 297.969 120.075 298.359 120.075 299.098C120.075 299.528 120.099 300.394 120.107 300.895H119.153C119.185 300.521 119.201 299.846 119.193 299.416C119.193 298.907 118.875 298.741 118.541 298.741C118.103 298.741 117.603 299.003 117.301 299.289C117.062 299.528 116.839 299.814 116.569 300.164L115.718 299.528C116.736 298.589 117.348 297.731 117.682 296.856C117.841 296.427 117.944 295.942 117.968 295.537L119.018 295.624ZM116.021 296.363C116.426 296.419 117.014 296.451 117.42 296.451C118.469 296.451 119.908 296.395 121.061 296.189L121.053 297.111C119.932 297.27 118.334 297.341 117.364 297.341C117.038 297.341 116.458 297.325 116.021 297.286V296.363ZM122.317 298.621C122.071 298.693 121.641 298.852 121.371 298.955C120.854 299.154 120.139 299.44 119.391 299.822C118.668 300.195 118.278 300.537 118.278 300.974C118.278 301.412 118.66 301.531 119.431 301.531C120.107 301.531 120.997 301.444 121.697 301.3L121.665 302.326C121.132 302.397 120.163 302.469 119.407 302.469C118.167 302.469 117.237 302.159 117.237 301.133C117.237 300.028 118.374 299.377 119.328 298.9C120.059 298.518 120.56 298.327 121.037 298.105C121.347 297.969 121.625 297.842 121.927 297.691L122.317 298.621ZM123.597 297.532H130.569V299.273H129.631V298.359H124.487V299.273H123.597V297.532ZM124.75 298.971H128.939V299.846H124.75V298.971ZM129.631 295.203L130.275 295.974C128.478 296.324 125.998 296.499 123.883 296.562C123.867 296.324 123.756 295.958 123.668 295.751C125.775 295.68 128.168 295.489 129.631 295.203ZM124.368 296.713L125.203 296.483C125.386 296.769 125.584 297.151 125.656 297.413L124.781 297.675C124.718 297.413 124.535 297.015 124.368 296.713ZM126.467 296.546L127.31 296.356C127.477 296.674 127.636 297.103 127.675 297.389L126.785 297.604C126.753 297.325 126.618 296.88 126.467 296.546ZM128.995 296.34L130.005 296.578C129.726 297.071 129.408 297.588 129.17 297.93L128.391 297.699C128.605 297.317 128.86 296.753 128.995 296.34ZM128.59 298.971H128.788L128.955 298.939L129.599 299.321C128.653 301.404 126.475 302.286 123.971 302.644C123.875 302.405 123.605 301.984 123.414 301.785C125.863 301.539 127.874 300.815 128.59 299.122V298.971ZM125.688 299.615C126.578 300.823 128.399 301.515 130.712 301.73C130.513 301.944 130.251 302.358 130.132 302.628C127.739 302.318 125.966 301.483 124.853 299.957L125.688 299.615ZM137.239 295.68C137.207 295.855 137.199 296.045 137.199 296.228C137.183 296.594 137.199 298.097 137.199 298.566C137.199 300.434 137.056 301.595 135.474 302.596L134.552 301.881C134.862 301.746 135.26 301.491 135.482 301.245C136.086 300.609 136.222 299.893 136.222 298.558C136.222 297.961 136.206 296.674 136.166 296.228C136.15 296.038 136.11 295.807 136.078 295.68H137.239ZM134.099 297.238C134.488 297.294 134.878 297.317 135.307 297.317C136.333 297.317 137.605 297.246 138.384 297.103V298.136C137.629 298.224 136.404 298.287 135.331 298.287C134.981 298.287 134.496 298.264 134.099 298.24V297.238ZM133.28 295.815C133.216 296.014 133.137 296.3 133.097 296.467C132.898 297.349 132.612 299.019 132.827 300.005C132.93 299.758 133.081 299.369 133.208 299.082L133.709 299.4C133.471 300.084 133.264 300.879 133.169 301.332C133.137 301.459 133.113 301.634 133.121 301.722C133.121 301.809 133.129 301.944 133.137 302.056L132.247 302.143C132.072 301.658 131.793 300.553 131.793 299.567C131.793 298.264 131.952 297.039 132.056 296.387C132.088 296.173 132.095 295.902 132.103 295.704L133.28 295.815ZM140.753 295.95C140.976 295.974 141.246 295.99 141.469 295.99C141.898 295.99 143.591 295.95 144.044 295.91C144.378 295.886 144.561 295.855 144.656 295.823L145.165 296.538C144.982 296.658 144.792 296.769 144.617 296.904C144.187 297.206 143.353 297.906 142.844 298.303C143.114 298.232 143.353 298.216 143.599 298.216C144.951 298.216 145.976 299.059 145.976 300.211C145.976 301.467 145.022 302.461 143.098 302.461C141.993 302.461 141.158 301.96 141.158 301.157C141.158 300.513 141.747 299.925 142.589 299.925C143.679 299.925 144.283 300.656 144.307 301.531L143.377 301.65C143.361 301.078 143.059 300.68 142.589 300.68C142.295 300.68 142.097 300.863 142.097 301.07C142.097 301.364 142.423 301.563 142.907 301.563C144.251 301.563 144.935 301.054 144.935 300.203C144.935 299.48 144.219 298.995 143.289 298.995C142.065 298.995 141.278 299.647 140.427 300.609L139.704 299.861C140.268 299.416 141.23 298.605 141.691 298.216C142.136 297.85 142.971 297.182 143.361 296.833C142.955 296.848 141.858 296.888 141.429 296.92C141.214 296.936 140.968 296.952 140.785 296.984L140.753 295.95Z" fill="white"/>
</g>
<path d="M67.7387 167.297C73.2514 157.269 75.5175 150.849 79.4247 149.065C83.3319 147.28 86.5319 162.786 86.5319 162.786L95.2329 162.51C95.2329 162.51 108.041 145.952 111.032 147.053C114.023 148.153 113.093 165.27 113.093 165.27C120.092 174.156 122.254 179.278 122.71 188.732C122.71 188.732 133.804 195.189 130.468 198.508C127.489 201.47 124.74 196.229 124.282 200.331C123.823 204.433 123.594 204.205 122.996 205.814C122.219 206.712 123.136 206.927 127.489 204.889C131.843 202.851 132.989 202.257 134.592 202.257C136.196 202.257 140.779 205.674 130.468 208.991C120.157 212.309 121.852 209.889 121.585 210.402C121.585 212.638 115.574 219.247 113.971 219.703C113.971 219.703 111.221 231.782 106.409 231.782C101.597 231.782 99.0769 223.122 99.0769 223.122C94.4943 223.35 96.0982 224.033 90.3699 222.666C90.3699 222.666 91.9367 231.782 87.4441 231.782C82.5791 231.782 73.2514 217.439 73.2514 217.439C70.2062 216.285 63.7905 205.814 62.9475 202.257C62.9475 202.257 55.2924 211.148 56.0532 204.219C56.773 197.663 62.9475 193.051 62.9475 188.721C62.9475 184.391 62.226 177.325 67.7387 167.297Z" fill="#FFBBDC"/>
<ellipse cx="85.1" cy="177.768" rx="1.60393" ry="1.59537" fill="#2F2E2E"/>
<ellipse cx="97.9311" cy="177.768" rx="1.60393" ry="1.59537" fill="#2F2E2E"/>
<path d="M88.3415 183.954C87.507 184.718 89.0064 185.933 91.0832 185.971C93.1601 186.01 94.9863 185.093 94.2989 183.954C93.6115 182.814 93.3991 184.587 91.3223 184.549C89.2455 184.51 89.176 183.19 88.3415 183.954Z" fill="black"/>
<g filter="url(#filter1_d_1013_10444)">
<rect x="31" y="253" width="129" height="22" rx="11" fill="#00ABB6" shape-rendering="crispEdges"/>
<path d="M48.5871 260.513C48.5553 260.696 48.5315 260.998 48.5315 261.244C48.5315 261.483 48.5315 261.888 48.5315 262.127H47.49C47.49 261.888 47.49 261.522 47.49 261.244C47.49 260.99 47.4821 260.704 47.4503 260.513H48.5871ZM50.8052 262.214C50.6064 262.421 50.36 262.683 50.193 262.874C49.7478 263.383 49.0801 264.043 48.3566 264.551C47.498 265.164 46.2816 265.688 45.0494 266.062L44.4372 265.124C45.9716 264.782 46.9892 264.233 47.6729 263.788C48.285 263.399 48.7779 262.93 49.0164 262.604C48.5871 262.604 46.4724 262.604 46.1386 262.604C45.8523 262.604 45.3515 262.62 45.0971 262.643V261.602C45.3992 261.642 45.8444 261.65 46.1147 261.65C46.4724 261.65 49.0164 261.65 49.4855 261.65C49.7319 261.65 49.9625 261.626 50.1453 261.578L50.8052 262.214ZM48.5156 263.947C48.5156 264.52 48.5156 265.8 48.5156 266.444C48.5156 266.754 48.5394 267.207 48.5633 267.453H47.4264C47.4503 267.231 47.4821 266.754 47.4821 266.444C47.4821 265.831 47.4821 264.854 47.4821 264.377L48.5156 263.947ZM50.9244 266.133C50.2328 265.593 49.7081 265.259 49.0244 264.869L49.6763 264.114C50.4077 264.504 50.8211 264.742 51.5843 265.259L50.9244 266.133ZM53.0349 261.356C53.337 261.387 53.7425 261.411 54.0207 261.411H58.0275C58.2581 261.411 58.584 261.395 58.7192 261.387C58.7112 261.578 58.6953 261.888 58.6953 262.127V266.245C58.6953 266.523 58.7192 266.936 58.7351 267.183H57.5823C57.5903 266.944 57.5982 266.658 57.5982 266.364V262.437H54.0207C53.6868 262.437 53.2575 262.453 53.0349 262.468V261.356ZM52.9395 265.672C53.2098 265.696 53.5676 265.72 53.9253 265.72H58.2263V266.769H53.9571C53.6471 266.769 53.2019 266.785 52.9395 266.817V265.672ZM60.9849 261.356C61.287 261.387 61.6925 261.411 61.9707 261.411H65.9775C66.2081 261.411 66.534 261.395 66.6692 261.387C66.6612 261.578 66.6453 261.888 66.6453 262.127V266.245C66.6453 266.523 66.6692 266.936 66.6851 267.183H65.5323C65.5403 266.944 65.5482 266.658 65.5482 266.364V262.437H61.9707C61.6368 262.437 61.2075 262.453 60.9849 262.468V261.356ZM60.8895 265.672C61.1598 265.696 61.5176 265.72 61.8753 265.72H66.1763V266.769H61.9071C61.5971 266.769 61.1519 266.785 60.8895 266.817V265.672ZM72.3932 261.554C72.2819 262.365 72.1229 263.295 71.8446 264.233C71.3676 265.839 70.6839 266.825 69.8174 266.825C68.927 266.825 68.1956 265.847 68.1956 264.504C68.1956 262.675 69.7935 261.101 71.8526 261.101C73.8162 261.101 75.0644 262.468 75.0644 264.21C75.0644 265.879 74.0388 267.064 72.0354 267.374L71.4312 266.436C71.7413 266.396 71.9639 266.356 72.1785 266.308C73.1882 266.062 73.9832 265.338 73.9832 264.17C73.9832 262.922 73.2041 262.031 71.8287 262.031C70.1433 262.031 69.2211 263.407 69.2211 264.408C69.2211 265.211 69.5391 265.601 69.8412 265.601C70.1831 265.601 70.4852 265.092 70.8191 264.019C71.0496 263.271 71.2245 262.357 71.304 261.522L72.3932 261.554ZM83.229 261.626C83.1495 261.729 82.9985 261.92 82.9269 262.031C82.5533 262.651 81.798 263.661 81.011 264.218L80.1842 263.558C80.8281 263.168 81.4482 262.468 81.6549 262.079C81.17 262.079 78.0059 262.079 77.505 262.079C77.1791 262.079 76.9088 262.095 76.5351 262.135V261.022C76.8452 261.069 77.1791 261.109 77.505 261.109C78.0059 261.109 81.3767 261.109 81.7901 261.109C82.0127 261.109 82.4499 261.077 82.601 261.038L83.229 261.626ZM79.9934 262.691C79.9934 264.663 79.9457 266.285 77.7833 267.453L76.8531 266.698C77.1155 266.61 77.4017 266.475 77.6958 266.253C78.6975 265.553 78.8883 264.718 78.8883 263.415C78.8883 263.16 78.8804 262.953 78.8406 262.691H79.9934ZM89.0087 261.085C89.2313 261.419 89.5572 261.928 89.7321 262.294L89.0484 262.596C88.8099 262.095 88.635 261.777 88.3409 261.371L89.0087 261.085ZM90.0501 260.656C90.2886 260.974 90.6225 261.467 90.7974 261.825L90.1296 262.158C89.8752 261.65 89.6844 261.356 89.3903 260.966L90.0501 260.656ZM85.8446 266.356C85.8446 265.752 85.8446 262.461 85.8446 261.785C85.8446 261.499 85.8128 261.109 85.7571 260.831H87.0053C86.9735 261.109 86.9337 261.459 86.9337 261.785C86.9337 262.667 86.9337 265.768 86.9337 266.356C86.9337 266.587 86.9735 267.143 87.0053 267.461H85.7651C85.8128 267.151 85.8446 266.674 85.8446 266.356ZM86.6952 262.882C87.7605 263.176 89.4698 263.804 90.2568 264.194L89.8037 265.291C88.9053 264.822 87.5618 264.313 86.6952 264.027V262.882ZM97.7378 260.664C97.9365 260.95 98.2227 261.459 98.3738 261.753L97.7298 262.023C97.5708 261.697 97.3244 261.228 97.1097 260.918L97.7378 260.664ZM98.6838 260.306C98.8905 260.6 99.1847 261.109 99.3198 261.387L98.6918 261.658C98.5248 261.324 98.2704 260.863 98.0478 260.561L98.6838 260.306ZM93.0711 264.528C93.4209 263.645 93.723 262.524 93.8264 261.507L94.9791 261.753C94.9155 261.976 94.8201 262.365 94.7883 262.548C94.677 263.105 94.3908 264.194 94.1126 264.933C93.8264 265.704 93.3573 266.61 92.9439 267.207L91.8309 266.738C92.3238 266.086 92.7929 265.235 93.0711 264.528ZM96.9905 264.369C96.6884 263.534 96.1796 262.357 95.8377 261.753L96.8951 261.411C97.229 262.023 97.7696 263.248 98.0717 264.011C98.3579 264.734 98.7792 265.998 98.9939 266.785L97.8173 267.167C97.6026 266.229 97.3085 265.227 96.9905 264.369ZM99.9876 263.915C101.411 263.55 102.571 263.033 103.462 262.484C104.273 261.984 105.179 261.189 105.696 260.561L106.554 261.371C105.831 262.103 104.861 262.85 103.923 263.415C103.025 263.947 101.737 264.543 100.481 264.917L99.9876 263.915ZM103.295 263.001L104.424 262.731V266.316C104.424 266.666 104.44 267.159 104.495 267.358H103.231C103.263 267.167 103.295 266.666 103.295 266.316V263.001ZM113.826 261.618C113.763 261.705 113.62 261.944 113.548 262.111C113.222 262.866 112.634 263.947 111.95 264.742C111.06 265.768 109.859 266.754 108.627 267.334L107.8 266.475C109.088 265.998 110.312 265.028 111.06 264.202C111.584 263.605 112.069 262.818 112.252 262.254C111.918 262.254 109.891 262.254 109.549 262.254C109.223 262.254 108.786 262.294 108.611 262.31V261.173C108.826 261.204 109.319 261.228 109.549 261.228C109.971 261.228 112.006 261.228 112.356 261.228C112.705 261.228 113.015 261.189 113.182 261.133L113.826 261.618ZM112.054 264.082C112.872 264.75 114.001 265.935 114.518 266.571L113.612 267.358C113.023 266.539 112.157 265.593 111.306 264.822L112.054 264.082ZM119.018 260.624C118.954 260.918 118.851 261.387 118.628 261.96C118.461 262.349 118.231 262.802 118.008 263.12C118.223 263.025 118.644 262.969 118.914 262.969C119.574 262.969 120.075 263.359 120.075 264.098C120.075 264.528 120.099 265.394 120.107 265.895H119.153C119.185 265.521 119.201 264.846 119.193 264.416C119.193 263.907 118.875 263.741 118.541 263.741C118.103 263.741 117.603 264.003 117.301 264.289C117.062 264.528 116.839 264.814 116.569 265.164L115.718 264.528C116.736 263.589 117.348 262.731 117.682 261.856C117.841 261.427 117.944 260.942 117.968 260.537L119.018 260.624ZM116.021 261.363C116.426 261.419 117.014 261.451 117.42 261.451C118.469 261.451 119.908 261.395 121.061 261.189L121.053 262.111C119.932 262.27 118.334 262.341 117.364 262.341C117.038 262.341 116.458 262.325 116.021 262.286V261.363ZM122.317 263.621C122.071 263.693 121.641 263.852 121.371 263.955C120.854 264.154 120.139 264.44 119.391 264.822C118.668 265.195 118.278 265.537 118.278 265.974C118.278 266.412 118.66 266.531 119.431 266.531C120.107 266.531 120.997 266.444 121.697 266.3L121.665 267.326C121.132 267.397 120.163 267.469 119.407 267.469C118.167 267.469 117.237 267.159 117.237 266.133C117.237 265.028 118.374 264.377 119.328 263.9C120.059 263.518 120.56 263.327 121.037 263.105C121.347 262.969 121.625 262.842 121.927 262.691L122.317 263.621ZM123.597 262.532H130.569V264.273H129.631V263.359H124.487V264.273H123.597V262.532ZM124.75 263.971H128.939V264.846H124.75V263.971ZM129.631 260.203L130.275 260.974C128.478 261.324 125.998 261.499 123.883 261.562C123.867 261.324 123.756 260.958 123.668 260.751C125.775 260.68 128.168 260.489 129.631 260.203ZM124.368 261.713L125.203 261.483C125.386 261.769 125.584 262.151 125.656 262.413L124.781 262.675C124.718 262.413 124.535 262.015 124.368 261.713ZM126.467 261.546L127.31 261.356C127.477 261.674 127.636 262.103 127.675 262.389L126.785 262.604C126.753 262.325 126.618 261.88 126.467 261.546ZM128.995 261.34L130.005 261.578C129.726 262.071 129.408 262.588 129.17 262.93L128.391 262.699C128.605 262.317 128.86 261.753 128.995 261.34ZM128.59 263.971H128.788L128.955 263.939L129.599 264.321C128.653 266.404 126.475 267.286 123.971 267.644C123.875 267.405 123.605 266.984 123.414 266.785C125.863 266.539 127.874 265.815 128.59 264.122V263.971ZM125.688 264.615C126.578 265.823 128.399 266.515 130.712 266.73C130.513 266.944 130.251 267.358 130.132 267.628C127.739 267.318 125.966 266.483 124.853 264.957L125.688 264.615ZM137.239 260.68C137.207 260.855 137.199 261.045 137.199 261.228C137.183 261.594 137.199 263.097 137.199 263.566C137.199 265.434 137.056 266.595 135.474 267.596L134.552 266.881C134.862 266.746 135.26 266.491 135.482 266.245C136.086 265.609 136.222 264.893 136.222 263.558C136.222 262.961 136.206 261.674 136.166 261.228C136.15 261.038 136.11 260.807 136.078 260.68H137.239ZM134.099 262.238C134.488 262.294 134.878 262.317 135.307 262.317C136.333 262.317 137.605 262.246 138.384 262.103V263.136C137.629 263.224 136.404 263.287 135.331 263.287C134.981 263.287 134.496 263.264 134.099 263.24V262.238ZM133.28 260.815C133.216 261.014 133.137 261.3 133.097 261.467C132.898 262.349 132.612 264.019 132.827 265.005C132.93 264.758 133.081 264.369 133.208 264.082L133.709 264.4C133.471 265.084 133.264 265.879 133.169 266.332C133.137 266.459 133.113 266.634 133.121 266.722C133.121 266.809 133.129 266.944 133.137 267.056L132.247 267.143C132.072 266.658 131.793 265.553 131.793 264.567C131.793 263.264 131.952 262.039 132.056 261.387C132.088 261.173 132.095 260.902 132.103 260.704L133.28 260.815ZM140.753 260.95C140.976 260.974 141.246 260.99 141.469 260.99C141.898 260.99 143.591 260.95 144.044 260.91C144.378 260.886 144.561 260.855 144.656 260.823L145.165 261.538C144.982 261.658 144.792 261.769 144.617 261.904C144.187 262.206 143.353 262.906 142.844 263.303C143.114 263.232 143.353 263.216 143.599 263.216C144.951 263.216 145.976 264.059 145.976 265.211C145.976 266.467 145.022 267.461 143.098 267.461C141.993 267.461 141.158 266.96 141.158 266.157C141.158 265.513 141.747 264.925 142.589 264.925C143.679 264.925 144.283 265.656 144.307 266.531L143.377 266.65C143.361 266.078 143.059 265.68 142.589 265.68C142.295 265.68 142.097 265.863 142.097 266.07C142.097 266.364 142.423 266.563 142.907 266.563C144.251 266.563 144.935 266.054 144.935 265.203C144.935 264.48 144.219 263.995 143.289 263.995C142.065 263.995 141.278 264.647 140.427 265.609L139.704 264.861C140.268 264.416 141.23 263.605 141.691 263.216C142.136 262.85 142.971 262.182 143.361 261.833C142.955 261.848 141.858 261.888 141.429 261.92C141.214 261.936 140.968 261.952 140.785 261.984L140.753 260.95Z" fill="white"/>
</g>
<path d="M76.3233 295.481C76.2685 295.226 76.2046 295.006 76.1316 294.796L77.4281 294.586C77.4463 294.76 77.4828 295.07 77.5194 295.289C77.6107 295.892 78.5145 300.512 78.7063 301.443C78.7702 301.708 78.8523 302.037 78.9345 302.338L77.6198 302.566C77.5741 302.228 77.5559 301.918 77.492 301.644C77.355 300.822 76.4694 296.221 76.3233 295.481ZM73.8308 296.65C74.1139 296.632 74.3878 296.613 74.6799 296.577C75.456 296.485 78.6515 295.992 79.4732 295.828C79.7562 295.782 80.1031 295.7 80.3223 295.636L80.5505 296.842C80.3497 296.851 79.9753 296.905 79.7014 296.942C78.7336 297.097 75.5929 297.599 74.9082 297.718C74.6251 297.773 74.3878 297.828 74.0773 297.91L73.8308 296.65ZM73.84 299.325C74.0773 299.316 74.4973 299.27 74.7804 299.224C75.7573 299.088 79.0897 298.549 80.1397 298.348C80.4957 298.284 80.8335 298.202 81.0801 298.138L81.3174 299.343C81.0709 299.361 80.6966 299.425 80.3588 299.48C79.1993 299.654 75.9125 300.192 75.0086 300.366C74.616 300.439 74.2965 300.494 74.0956 300.548L73.84 299.325ZM85.782 296.202C85.8094 296.422 85.8733 296.659 85.9281 296.896C86.2385 297.992 87.0967 301.133 87.325 301.89C87.3706 302.055 87.4984 302.457 87.5624 302.639L86.3298 302.95C86.2933 302.703 86.2385 302.402 86.1655 302.146C85.9372 301.352 85.1064 298.092 84.8142 297.143C84.7503 296.915 84.6499 296.686 84.5495 296.495L85.782 296.202ZM90.1644 297.618C89.7718 298.412 88.8588 299.791 88.2197 300.466L87.2063 299.964C87.681 299.544 88.311 298.777 88.5575 298.33C88.0828 298.412 84.3669 299.188 83.6182 299.352L83.3352 298.266C83.6182 298.238 83.8738 298.211 84.1751 298.156C84.6681 298.083 88.3201 297.389 88.9684 297.243C89.1236 297.207 89.3062 297.152 89.4249 297.097L90.1644 297.618ZM93.4603 295.061C94.0903 295.49 95.2772 296.44 95.8159 296.997L94.8846 297.946C94.4099 297.435 93.2595 296.44 92.593 295.983L93.4603 295.061ZM92.31 301.142C93.7434 300.941 94.9211 300.475 95.8067 299.955C97.368 299.024 98.5549 297.636 99.1392 296.403L99.8422 297.682C99.1575 298.923 97.9432 300.183 96.4732 301.069C95.542 301.626 94.3642 302.128 93.086 302.347L92.31 301.142ZM102.965 300.786C102.965 300.037 102.965 296.951 102.965 295.846C102.965 295.536 102.937 295.07 102.892 294.796H104.252C104.206 295.07 104.17 295.536 104.17 295.846C104.17 296.942 104.17 299.453 104.17 300.466C104.17 301.041 104.334 301.233 105.329 301.233C106.288 301.233 107.311 301.114 108.214 300.932L108.169 302.173C107.42 302.283 106.324 302.365 105.338 302.365C103.266 302.365 102.965 301.872 102.965 300.786ZM108.707 296.778C108.625 296.905 108.497 297.115 108.415 297.271C108.014 298.038 107.183 299.288 106.525 299.937L105.521 299.343C106.124 298.804 106.717 297.965 106.973 297.49C106.416 297.599 102.198 298.439 101.038 298.695L100.819 297.499C102.061 297.353 106.352 296.513 107.183 296.312C107.438 296.248 107.667 296.184 107.831 296.093L108.707 296.778ZM114.103 301.799C114.149 301.626 114.176 301.379 114.176 301.133C114.176 300.649 114.176 296.549 114.176 295.81C114.176 295.399 114.112 295.043 114.112 295.025H115.464C115.464 295.043 115.4 295.408 115.4 295.819C115.4 296.549 115.4 300.028 115.4 300.585C116.148 300.265 117.043 299.544 117.664 298.658L118.358 299.672C117.6 300.658 116.294 301.644 115.263 302.164C115.071 302.265 114.961 302.365 114.87 302.429L114.103 301.799ZM109.876 301.671C110.689 301.105 111.182 300.265 111.428 299.48C111.693 298.704 111.702 296.969 111.702 295.874C111.702 295.499 111.666 295.262 111.611 295.034H112.953C112.953 295.07 112.889 295.481 112.889 295.856C112.889 296.942 112.862 298.868 112.624 299.791C112.341 300.813 111.775 301.717 110.99 302.411L109.876 301.671Z" fill="#00ABB6"/>
<line x1="200" y1="264" x2="160" y2="264" stroke="black" stroke-width="2"/>
<rect x="177.5" y="242.5" width="89" height="59" rx="4.5" fill="white" stroke="black" stroke-linejoin="round"/>
<path d="M191.52 254C191.48 254.21 191.46 254.6 191.46 254.87C191.46 255.14 191.46 255.66 191.46 255.86H190.66C190.66 255.66 190.66 255.16 190.66 254.87C190.66 254.59 190.65 254.22 190.61 254H191.52ZM194.27 255.96C194.09 256.14 193.87 256.37 193.71 256.56C193.19 257.17 192.33 258.03 191.38 258.68C190.29 259.44 188.98 260.02 187.27 260.54L186.78 259.8C188.68 259.34 189.93 258.69 190.83 258.1C191.73 257.52 192.52 256.74 192.87 256.27C192.4 256.27 189.16 256.27 188.71 256.27C188.37 256.27 187.79 256.28 187.49 256.31V255.46C187.81 255.5 188.36 255.52 188.7 255.52C189.16 255.52 192.51 255.52 193.11 255.52C193.35 255.52 193.58 255.5 193.74 255.45L194.27 255.96ZM191.44 258.27C191.44 259.04 191.44 260.55 191.44 261.32C191.44 261.67 191.46 262.12 191.49 262.43H190.58C190.61 262.13 190.64 261.67 190.64 261.32C190.64 260.57 190.64 259.25 190.64 258.61L191.44 258.27ZM194.73 260.66C193.86 260.02 193.26 259.62 192.33 259.12L192.85 258.54C193.79 259.04 194.33 259.36 195.26 259.98L194.73 260.66ZM197.715 255.15C198.055 255.18 198.485 255.21 198.815 255.21H203.735C203.985 255.21 204.275 255.2 204.475 255.19C204.465 255.41 204.455 255.73 204.455 255.96V261.13C204.455 261.49 204.485 261.94 204.495 262.09H203.595C203.595 261.94 203.615 261.57 203.615 261.21V256H198.815C198.445 256 197.955 256.02 197.715 256.04V255.15ZM197.595 260.67C197.845 260.69 198.285 260.72 198.695 260.72H204.065V261.54H198.725C198.315 261.54 197.865 261.55 197.595 261.58V260.67ZM207.915 255.15C208.255 255.18 208.685 255.21 209.015 255.21H213.935C214.185 255.21 214.475 255.2 214.675 255.19C214.665 255.41 214.655 255.73 214.655 255.96V261.13C214.655 261.49 214.685 261.94 214.695 262.09H213.795C213.795 261.94 213.815 261.57 213.815 261.21V256H209.015C208.645 256 208.155 256.02 207.915 256.04V255.15ZM207.795 260.67C208.045 260.69 208.485 260.72 208.895 260.72H214.265V261.54H208.925C208.515 261.54 208.065 261.55 207.795 261.58V260.67ZM220.645 254.24C220.605 254.42 220.565 254.64 220.525 254.83C220.455 255.19 220.325 256.01 220.185 256.63C219.845 258.04 219.135 260.53 218.005 262.35L217.185 262.03C218.325 260.5 219.125 257.83 219.395 256.61C219.585 255.81 219.715 254.91 219.715 254.14L220.645 254.24ZM224.085 255.39C224.705 256.2 225.575 258.02 225.915 258.94L225.135 259.31C224.845 258.29 224.055 256.55 223.355 255.72L224.085 255.39ZM217.045 256.43C217.355 256.45 217.615 256.44 217.935 256.43C218.685 256.41 220.715 256.19 221.395 256.19C222.285 256.19 223.015 256.53 223.015 257.88C223.015 259.07 222.855 260.66 222.435 261.49C222.125 262.16 221.625 262.33 220.975 262.33C220.595 262.33 220.115 262.26 219.805 262.18L219.665 261.35C220.085 261.48 220.615 261.55 220.895 261.55C221.265 261.55 221.565 261.47 221.765 261.04C222.085 260.36 222.245 259.06 222.245 257.98C222.245 257.06 221.825 256.89 221.185 256.89C220.515 256.89 218.635 257.12 218.025 257.18C217.795 257.21 217.385 257.26 217.125 257.3L217.045 256.43ZM224.195 253.94C224.445 254.3 224.805 254.91 225.015 255.32L224.475 255.56C224.275 255.15 223.935 254.55 223.655 254.17L224.195 253.94ZM225.295 253.54C225.565 253.91 225.945 254.54 226.145 254.91L225.595 255.15C225.385 254.71 225.055 254.14 224.765 253.77L225.295 253.54ZM231.675 254.14C231.655 254.37 231.635 254.71 231.625 254.95C231.495 259.03 230.395 260.9 228.425 262.27L227.695 261.68C228.015 261.51 228.415 261.23 228.715 260.95C229.965 259.82 230.785 258.13 230.805 254.97C230.805 254.74 230.785 254.37 230.745 254.14H231.675ZM235.155 256.22C235.125 256.39 235.105 256.57 235.095 256.7C235.065 257.67 234.935 260.57 234.485 261.53C234.285 261.96 233.965 262.14 233.415 262.14C232.915 262.14 232.335 262.11 231.815 262.07L231.715 261.24C232.255 261.31 232.775 261.36 233.205 261.36C233.485 261.36 233.675 261.27 233.785 261.03C234.165 260.26 234.295 257.8 234.295 256.73H229.025C228.625 256.73 228.225 256.74 227.865 256.77V255.93C228.215 255.96 228.625 255.98 229.015 255.98H233.955C234.225 255.98 234.415 255.96 234.585 255.93L235.155 256.22ZM242.205 254C242.165 254.31 242.155 254.54 242.155 254.75C242.155 254.98 242.155 255.73 242.155 256.08H241.305C241.305 255.69 241.305 254.98 241.305 254.75C241.305 254.54 241.295 254.31 241.255 254H242.205ZM245.615 255.94C245.565 256.08 245.505 256.35 245.475 256.54C245.335 257.34 245.045 258.59 244.485 259.54C243.745 260.85 242.365 261.87 240.535 262.37L239.885 261.63C240.215 261.57 240.595 261.47 240.915 261.35C241.925 261.02 243.015 260.28 243.635 259.33C244.175 258.48 244.485 257.27 244.575 256.42H238.995C238.995 256.83 238.995 257.9 238.995 258.21C238.995 258.38 239.005 258.65 239.025 258.8H238.155C238.185 258.63 238.195 258.36 238.195 258.16C238.195 257.84 238.195 256.75 238.195 256.4C238.195 256.19 238.195 255.85 238.155 255.64C238.445 255.66 238.745 255.68 239.095 255.68H244.395C244.765 255.68 244.945 255.64 245.075 255.6L245.615 255.94ZM249.275 254.68C249.975 255.15 251.265 256.19 251.815 256.74L251.195 257.38C250.685 256.86 249.445 255.78 248.695 255.29L249.275 254.68ZM248.415 261.38C250.155 261.12 251.455 260.51 252.405 259.92C253.955 258.95 255.165 257.47 255.745 256.23L256.225 257.09C255.545 258.33 254.385 259.69 252.875 260.64C251.865 261.27 250.605 261.89 248.935 262.2L248.415 261.38ZM189.05 274.72C189.05 273.8 189.05 270.26 189.05 269.2C189.05 268.9 189.04 268.57 188.99 268.28H189.93C189.89 268.57 189.86 268.91 189.86 269.2C189.86 270.25 189.86 273.52 189.86 274.51C189.86 275.2 190.12 275.42 191.31 275.42C192.47 275.42 193.44 275.32 194.43 275.12L194.4 275.98C193.51 276.11 192.51 276.19 191.26 276.19C189.4 276.19 189.05 275.7 189.05 274.72ZM194.86 270.25C194.78 270.36 194.68 270.53 194.61 270.65C194.15 271.48 193.37 272.74 192.56 273.56L191.87 273.15C192.62 272.46 193.35 271.36 193.65 270.77C193.34 270.83 187.95 271.91 186.75 272.17L186.59 271.33C187.87 271.18 192.98 270.15 193.74 269.97C193.95 269.92 194.15 269.86 194.27 269.79L194.86 270.25ZM203.95 268.42C203.93 268.66 203.92 268.95 203.92 269.29C203.92 269.68 203.92 270.53 203.92 270.9C203.92 273.31 203.6 274.1 202.87 274.95C202.23 275.73 201.23 276.17 200.5 276.42L199.84 275.73C200.76 275.49 201.61 275.1 202.23 274.39C202.94 273.57 203.07 272.75 203.07 270.87C203.07 270.48 203.07 269.64 203.07 269.29C203.07 268.95 203.04 268.66 203.01 268.42H203.95ZM199.31 268.5C199.29 268.69 199.28 268.98 199.28 269.21C199.28 269.51 199.28 272.13 199.28 272.55C199.28 272.81 199.29 273.14 199.31 273.32H198.4C198.42 273.16 198.44 272.84 198.44 272.55C198.44 272.12 198.44 269.51 198.44 269.21C198.44 269.04 198.43 268.69 198.4 268.5H199.31ZM208.67 268.68C209.37 269.15 210.66 270.19 211.21 270.74L210.59 271.38C210.08 270.86 208.84 269.78 208.09 269.29L208.67 268.68ZM207.81 275.38C209.55 275.12 210.85 274.51 211.8 273.92C213.35 272.95 214.56 271.47 215.14 270.23L215.62 271.09C214.94 272.33 213.78 273.69 212.27 274.64C211.26 275.27 210 275.89 208.33 276.2L207.81 275.38ZM224.25 268C224.5 268.36 224.86 268.97 225.06 269.37L224.52 269.62C224.32 269.21 223.98 268.61 223.71 268.23L224.25 268ZM225.34 267.6C225.61 267.97 225.99 268.59 226.18 268.96L225.64 269.2C225.42 268.77 225.1 268.2 224.82 267.83L225.34 267.6ZM224.91 269.99C224.83 270.14 224.73 270.37 224.68 270.53C224.41 271.53 223.79 272.89 222.91 273.97C222 275.08 220.8 276 218.92 276.69L218.2 276.04C220.04 275.5 221.28 274.59 222.19 273.53C222.97 272.61 223.58 271.32 223.79 270.41H220.08L220.4 269.69C220.81 269.69 223.28 269.69 223.59 269.69C223.86 269.69 224.08 269.66 224.25 269.59L224.91 269.99ZM221.56 268.48C221.4 268.74 221.22 269.08 221.12 269.27C220.53 270.37 219.48 271.8 217.88 272.87L217.18 272.35C218.91 271.32 219.89 269.87 220.33 268.97C220.43 268.8 220.58 268.43 220.64 268.18L221.56 268.48ZM231.4 268.1C231.31 268.49 231.2 269.04 230.94 269.71C230.69 270.32 230.32 270.99 229.92 271.51C230.31 271.28 230.88 271.14 231.32 271.14C232.09 271.14 232.69 271.6 232.69 272.41C232.69 272.93 232.71 274.08 232.72 274.7H231.95C231.99 274.17 232 273.14 231.99 272.62C231.98 272.04 231.58 271.77 231.06 271.77C230.42 271.77 229.79 272.09 229.33 272.5C229.04 272.78 228.76 273.14 228.43 273.55L227.74 273.04C229.18 271.66 229.85 270.5 230.19 269.65C230.41 269.1 230.55 268.5 230.58 268.03L231.4 268.1ZM227.97 269.18C228.51 269.25 229.2 269.28 229.66 269.28C231.01 269.28 232.74 269.2 234.15 268.95V269.69C232.75 269.9 230.89 269.99 229.62 269.99C229.19 269.99 228.53 269.97 227.97 269.93V269.18ZM235.61 271.59C235.36 271.67 235 271.81 234.73 271.91C234.02 272.19 233.07 272.57 232.1 273.07C231.11 273.59 230.41 274.13 230.41 274.82C230.41 275.6 231.18 275.72 232.21 275.72C232.99 275.72 234.07 275.63 234.95 275.47L234.92 276.28C234.16 276.37 233.05 276.45 232.18 276.45C230.76 276.45 229.61 276.14 229.61 274.93C229.61 273.71 230.85 272.96 232.04 272.35C232.99 271.86 233.8 271.55 234.46 271.24C234.76 271.1 235.01 270.99 235.29 270.85L235.61 271.59ZM240.4 268.21C240.35 268.54 240.32 268.89 240.3 269.22C240.26 270.35 240.18 272.72 240.18 274.21C240.18 275.31 240.87 275.69 241.82 275.69C243.65 275.69 244.69 274.67 245.41 273.63L245.97 274.31C245.29 275.26 243.99 276.51 241.8 276.51C240.36 276.51 239.37 275.92 239.37 274.28C239.37 272.8 239.47 270.27 239.47 269.22C239.47 268.85 239.44 268.5 239.38 268.21H240.4ZM247.737 269.36C248.117 269.35 248.437 269.33 248.637 269.31C249.287 269.24 251.167 269.06 253.017 268.9C254.107 268.81 255.037 268.75 255.707 268.73L255.717 269.53C255.137 269.52 254.267 269.54 253.757 269.68C252.327 270.14 251.457 271.67 251.457 272.85C251.457 274.8 253.287 275.42 254.907 275.49L254.627 276.31C252.767 276.24 250.667 275.26 250.667 273.02C250.667 271.46 251.617 270.19 252.537 269.65C251.457 269.76 248.917 270.01 247.827 270.24L247.737 269.36ZM193.04 282.63C192.82 282.79 192.51 283.06 192.35 283.2C191.66 283.8 190.22 284.93 189.48 285.55C188.88 286.07 188.87 286.22 189.52 286.76C190.43 287.51 192.2 288.93 193.26 290L192.55 290.65C192.34 290.41 192.1 290.17 191.86 289.92C191.15 289.2 189.64 287.9 188.7 287.13C187.76 286.34 187.87 285.91 188.77 285.15C189.53 284.52 191.05 283.32 191.72 282.64C191.92 282.44 192.18 282.15 192.29 281.97L193.04 282.63ZM205.94 289.24C205.4 289.78 204.78 290.08 204.1 290.08C203.43 290.08 202.99 289.64 202.99 288.82C202.99 287.7 203.36 286.06 203.36 285.09C203.36 284.51 203.07 284.26 202.56 284.26C201.62 284.26 200.17 285.5 199.23 286.64L199.24 285.65C199.86 284.97 201.52 283.53 202.75 283.53C203.69 283.53 204.15 284.06 204.15 284.87C204.15 285.87 203.77 287.59 203.77 288.6C203.77 288.94 203.94 289.21 204.3 289.21C204.77 289.21 205.3 288.92 205.81 288.39L205.94 289.24ZM199.22 284.46C198.89 284.51 197.81 284.64 197.07 284.76L196.98 283.93C197.2 283.94 197.39 283.94 197.64 283.92C198.17 283.89 199.42 283.74 199.88 283.59L200.17 283.93C200 284.19 199.73 284.62 199.56 284.9L199.26 286.27C198.8 286.98 197.87 288.33 197.24 289.2L196.74 288.52C197.36 287.74 198.71 285.91 199.1 285.25L199.14 284.73L199.22 284.46ZM199.12 282.81C199.12 282.58 199.13 282.32 199.08 282.07L200.02 282.1C199.88 282.75 199.58 285.61 199.58 287.37C199.58 288.28 199.58 288.89 199.62 289.78C199.63 289.95 199.66 290.2 199.67 290.39H198.81C198.83 290.2 198.84 289.96 198.84 289.8C198.84 288.83 198.85 288.33 198.86 287.23C198.88 286.35 199.12 283.18 199.12 282.81ZM212.12 282.07C212.1 282.24 212.08 282.44 212.07 282.74C212.05 283.14 212.05 284.48 212.05 285.32C212.05 286.64 212.2 288.39 212.2 289.06C212.2 289.76 211.74 290.47 210.44 290.47C209 290.47 208.21 289.96 208.21 288.99C208.21 288.08 209.08 287.47 210.52 287.47C212.63 287.47 214.28 288.61 215.05 289.24L214.59 289.95C213.69 289.12 212.21 288.12 210.43 288.12C209.47 288.12 208.96 288.49 208.96 288.95C208.96 289.42 209.35 289.76 210.34 289.76C210.92 289.76 211.41 289.59 211.41 288.89C211.41 288.12 211.31 286.2 211.31 285.32C211.31 284.42 211.31 283.37 211.31 282.67C211.31 282.5 211.3 282.2 211.27 282.07H212.12ZM208.3 283.15C208.94 283.27 210.19 283.37 210.85 283.37C212.12 283.37 213.46 283.28 214.76 283.07V283.8C213.63 283.93 212.2 284.06 210.86 284.06C210.17 284.06 208.94 283.97 208.31 283.89L208.3 283.15ZM208.25 285.28C208.96 285.39 210.1 285.46 210.76 285.46C212.21 285.46 213.54 285.36 214.84 285.17V285.92C213.48 286.09 212.26 286.16 210.76 286.16C210.07 286.16 208.97 286.11 208.26 286.03L208.25 285.28ZM222.87 282.08C222.85 282.2 222.82 282.59 222.82 282.71C222.79 283.36 222.81 285.29 222.82 286.09L222.06 285.7C222.06 285.26 222.05 283.27 222.02 282.72C222 282.45 221.97 282.17 221.95 282.08H222.87ZM217.55 283.48C218.91 283.46 221.41 283.37 222.95 283.37C224.17 283.37 225.41 283.37 225.88 283.38L225.87 284.12C225.31 284.09 224.41 284.07 222.94 284.07C221.22 284.07 219.08 284.14 217.57 284.25L217.55 283.48ZM222.8 286.38C222.8 287.72 222.18 288.39 221.27 288.39C220.43 288.39 219.62 287.8 219.62 286.71C219.62 285.72 220.44 284.98 221.39 284.98C222.55 284.98 223.14 285.84 223.14 286.99C223.14 288.35 222.48 289.85 220.16 290.54L219.49 289.89C221.31 289.46 222.37 288.57 222.37 286.92C222.37 286.02 221.93 285.64 221.39 285.64C220.86 285.64 220.37 286.05 220.37 286.7C220.37 287.33 220.84 287.69 221.39 287.69C222.01 287.69 222.41 287.17 222.25 286.1L222.8 286.38Z" fill="black"/>
<rect x="31" y="287" width="129" height="24" rx="5" stroke="#FF0000" stroke-width="2"/>
<rect x="31" y="253" width="129" height="22" rx="5" stroke="#FF0000" stroke-width="2"/>
<path d="M155.954 63.8667H34.161C31.9263 63.8667 30.1147 65.6783 30.1147 67.913V131.115C30.1147 133.35 31.9263 135.161 34.161 135.161H82.7984C84.1043 135.161 85.3299 135.792 86.0896 136.854L90.0193 142.349C91.6433 144.619 95.0245 144.602 96.6253 142.315L100.425 136.887C101.182 135.806 102.419 135.161 103.739 135.161H155.954C158.188 135.161 160 133.35 160 131.115V67.913C160 65.6783 158.188 63.8667 155.954 63.8667Z" fill="white" stroke="#FFBBDC" stroke-width="0.809254"/>
<path d="M43.9692 79C43.9292 79.21 43.9092 79.6 43.9092 79.87C43.9092 80.14 43.9092 80.66 43.9092 80.86H43.1092C43.1092 80.66 43.1092 80.16 43.1092 79.87C43.1092 79.59 43.0992 79.22 43.0592 79H43.9692ZM46.7192 80.96C46.5392 81.14 46.3192 81.37 46.1592 81.56C45.6392 82.17 44.7792 83.03 43.8292 83.68C42.7392 84.44 41.4292 85.02 39.7192 85.54L39.2292 84.8C41.1292 84.34 42.3792 83.69 43.2792 83.1C44.1792 82.52 44.9692 81.74 45.3192 81.27C44.8492 81.27 41.6092 81.27 41.1592 81.27C40.8192 81.27 40.2392 81.28 39.9392 81.31V80.46C40.2592 80.5 40.8092 80.52 41.1492 80.52C41.6092 80.52 44.9592 80.52 45.5592 80.52C45.7992 80.52 46.0292 80.5 46.1892 80.45L46.7192 80.96ZM43.8892 83.27C43.8892 84.04 43.8892 85.55 43.8892 86.32C43.8892 86.67 43.9092 87.12 43.9392 87.43H43.0292C43.0592 87.13 43.0892 86.67 43.0892 86.32C43.0892 85.57 43.0892 84.25 43.0892 83.61L43.8892 83.27ZM47.1792 85.66C46.3092 85.02 45.7092 84.62 44.7792 84.12L45.2992 83.54C46.2392 84.04 46.7792 84.36 47.7092 84.98L47.1792 85.66ZM56.3692 79.17C56.6192 79.53 56.9892 80.13 57.1892 80.54L56.6492 80.78C56.4492 80.37 56.1092 79.77 55.8392 79.39L56.3692 79.17ZM57.4692 78.77C57.7392 79.13 58.1192 79.76 58.3092 80.13L57.7692 80.37C57.5492 79.93 57.2292 79.37 56.9492 78.99L57.4692 78.77ZM53.7192 79.25C53.6992 79.48 53.6792 79.82 53.6692 80.06C53.5392 84.14 52.4392 86.01 50.4692 87.39L49.7392 86.8C50.0592 86.63 50.4592 86.34 50.7592 86.06C52.0092 84.93 52.8292 83.24 52.8492 80.08C52.8492 79.85 52.8292 79.49 52.7892 79.25H53.7192ZM57.1992 81.33C57.1692 81.5 57.1492 81.69 57.1392 81.82C57.1092 82.78 56.9792 85.68 56.5292 86.64C56.3292 87.07 56.0092 87.25 55.4592 87.25C54.9592 87.25 54.3792 87.22 53.8592 87.19L53.7592 86.35C54.2992 86.43 54.8192 86.47 55.2492 86.47C55.5292 86.47 55.7192 86.38 55.8292 86.14C56.2092 85.38 56.3392 82.92 56.3392 81.85H51.0692C50.6692 81.85 50.2692 81.85 49.9092 81.88V81.04C50.2592 81.07 50.6692 81.1 51.0592 81.1H55.9992C56.2692 81.1 56.4592 81.07 56.6292 81.05L57.1992 81.33ZM61.3892 79.61C61.6792 79.64 61.9692 79.66 62.2992 79.66C62.8792 79.66 65.7892 79.66 66.3492 79.66C66.6292 79.66 66.9892 79.64 67.2792 79.61V80.44C66.9792 80.42 66.6292 80.4 66.3492 80.4C65.7892 80.4 62.8792 80.4 62.3092 80.4C61.9792 80.4 61.6492 80.42 61.3892 80.44V79.61ZM60.1992 82.12C60.4692 82.15 60.7592 82.16 61.0692 82.16C61.6492 82.16 67.0792 82.16 67.6092 82.16C67.8192 82.16 68.1492 82.15 68.3992 82.12V82.94C68.1692 82.93 67.8592 82.92 67.6092 82.92C67.0792 82.92 61.6492 82.92 61.0692 82.92C60.7692 82.92 60.4692 82.93 60.1992 82.95V82.12ZM64.9092 82.52C64.9092 83.78 64.7492 84.82 64.2992 85.66C63.9392 86.33 63.1792 87.04 62.3392 87.48L61.5992 86.94C62.3692 86.61 63.0892 86.04 63.4792 85.4C63.9792 84.61 64.0592 83.63 64.0692 82.53L64.9092 82.52ZM70.2635 84.43C71.5835 84.11 73.0535 83.41 73.8735 82.91C74.8135 82.34 75.7335 81.51 76.2535 80.88L76.8735 81.48C76.2935 82.1 75.2535 82.97 74.2135 83.6C73.3735 84.1 71.9835 84.76 70.6535 85.17L70.2635 84.43ZM73.7835 83.37L74.6135 83.16V86.91C74.6135 87.21 74.6235 87.63 74.6635 87.78H73.7335C73.7535 87.63 73.7835 87.21 73.7835 86.91V83.37ZM87.0035 78.69C87.2435 79.04 87.6035 79.63 87.8035 80.01L87.2435 80.26C87.0435 79.85 86.7035 79.28 86.4535 78.92L87.0035 78.69ZM88.2935 78.44C88.5335 78.78 88.9035 79.37 89.1135 79.76L88.5535 80C88.3335 79.59 88.0135 79.01 87.7435 78.67L88.2935 78.44ZM87.9035 80.49C87.8435 80.63 87.7935 80.8 87.7535 80.99C87.5435 82.04 87.0535 83.66 86.2635 84.68C85.3535 85.86 84.1635 86.78 82.3335 87.36L81.6535 86.61C83.5835 86.12 84.7135 85.27 85.5435 84.2C86.2535 83.3 86.7235 81.9 86.8535 80.94C86.2835 80.94 82.3135 80.94 81.7435 80.94C81.3435 80.94 81.0035 80.96 80.7435 80.98V80.09C81.0235 80.12 81.4135 80.16 81.7435 80.16C82.3135 80.16 86.3035 80.16 86.7635 80.16C86.9135 80.16 87.1135 80.15 87.2935 80.1L87.9035 80.49ZM90.8135 80.7C91.1835 80.74 91.6135 80.76 92.0435 80.76C93.1235 80.76 94.3835 80.63 95.5335 80.25L95.5535 80.99C94.5735 81.26 93.2635 81.48 92.0435 81.47C91.6735 81.47 91.2435 81.46 90.8735 81.45L90.8135 80.7ZM94.3635 79.07C94.2335 79.56 94.0235 80.5 93.7835 81.21C93.3035 82.65 92.3835 84.47 91.5535 85.59L90.7835 85.19C91.6735 84.15 92.6035 82.37 93.0135 81.19C93.2335 80.56 93.4535 79.68 93.4835 78.98L94.3635 79.07ZM96.7235 82.16C96.6935 82.57 96.6935 82.87 96.7035 83.23C96.7235 83.88 96.8135 85.4 96.8135 86.06C96.8135 86.86 96.3035 87.51 95.0635 87.51C93.9635 87.51 93.0735 87.07 93.0735 86.07C93.0735 85.15 93.9435 84.57 95.0635 84.57C96.7435 84.57 98.0335 85.41 98.8535 86.12L98.4335 86.8C97.6635 86.1 96.5135 85.21 95.0435 85.21C94.3035 85.21 93.8035 85.55 93.8035 86.01C93.8035 86.47 94.1935 86.79 94.9735 86.79C95.8035 86.79 96.0835 86.35 96.0835 85.81C96.0835 85.05 95.9735 83.26 95.9335 82.16H96.7235ZM98.7235 82.42C98.1835 81.96 97.0935 81.35 96.4335 81.04L96.8335 80.44C97.5635 80.75 98.6935 81.4 99.1735 81.76L98.7235 82.42ZM102.654 79.66H109.514V80.31H102.654V79.66ZM102.764 81.1H108.554V81.73H102.764V81.1ZM101.614 82.53H107.644V83.18H101.614V82.53ZM102.784 78.58L103.574 78.76C103.084 80.3 102.264 81.68 101.314 82.57C101.164 82.44 100.824 82.2 100.624 82.09C101.604 81.28 102.374 79.99 102.784 78.58ZM105.474 83.35L106.194 83.59C105.114 85.5 103.354 86.96 101.454 87.89C101.344 87.73 101.064 87.44 100.894 87.31C102.814 86.49 104.514 85.09 105.474 83.35ZM107.364 82.53H108.134C108.134 85.12 108.284 87.07 109.044 87.07C109.244 87.07 109.284 86.5 109.304 85.65C109.454 85.81 109.674 85.99 109.834 86.09C109.764 87.35 109.604 87.8 108.994 87.81C107.564 87.8 107.404 85.63 107.364 82.53ZM101.864 84.25L102.394 83.76C103.934 84.59 105.804 85.9 106.714 86.88L106.114 87.44C105.264 86.47 103.414 85.12 101.864 84.25ZM112.524 82.39H118.244V83.12H112.524V82.39ZM117.994 82.39H118.774C118.774 82.39 118.764 82.65 118.754 82.75C118.614 85.85 118.474 87.01 118.114 87.39C117.914 87.64 117.694 87.71 117.344 87.74C117.014 87.77 116.384 87.76 115.754 87.73C115.744 87.5 115.644 87.19 115.504 86.97C116.164 87.03 116.784 87.04 117.024 87.04C117.224 87.04 117.344 87.02 117.444 86.91C117.714 86.64 117.864 85.5 117.994 82.53V82.39ZM113.894 78.81L114.684 79.04C113.964 80.73 112.784 82.22 111.524 83.18C111.384 83.02 111.064 82.73 110.874 82.59C112.154 81.73 113.264 80.35 113.894 78.81ZM117.384 78.79C118.034 80.13 119.324 81.65 120.414 82.42C120.214 82.58 119.934 82.88 119.784 83.09C118.674 82.19 117.414 80.57 116.664 79.08L117.384 78.79ZM114.634 82.59H115.434C115.204 84.78 114.684 86.85 111.894 87.85C111.804 87.66 111.584 87.36 111.414 87.2C114.034 86.33 114.434 84.48 114.634 82.59ZM125.294 79.24C125.254 79.42 125.214 79.64 125.174 79.83C125.104 80.19 124.974 81.01 124.834 81.63C124.494 83.04 123.784 85.53 122.654 87.35L121.834 87.03C122.974 85.5 123.774 82.83 124.044 81.61C124.234 80.81 124.364 79.91 124.364 79.14L125.294 79.24ZM128.734 80.39C129.354 81.2 130.224 83.02 130.564 83.94L129.784 84.31C129.494 83.29 128.704 81.55 128.004 80.72L128.734 80.39ZM121.694 81.43C122.004 81.45 122.264 81.44 122.584 81.43C123.334 81.41 125.364 81.19 126.044 81.19C126.934 81.19 127.664 81.53 127.664 82.88C127.664 84.07 127.504 85.66 127.084 86.49C126.774 87.16 126.274 87.33 125.624 87.33C125.244 87.33 124.764 87.26 124.454 87.18L124.314 86.35C124.734 86.48 125.264 86.55 125.544 86.55C125.914 86.55 126.214 86.47 126.414 86.04C126.734 85.36 126.894 84.06 126.894 82.98C126.894 82.06 126.474 81.89 125.834 81.89C125.164 81.89 123.284 82.12 122.674 82.18C122.444 82.21 122.034 82.26 121.774 82.3L121.694 81.43ZM128.844 78.94C129.094 79.3 129.454 79.91 129.664 80.32L129.124 80.56C128.924 80.15 128.584 79.55 128.304 79.17L128.844 78.94ZM129.944 78.54C130.214 78.91 130.594 79.54 130.794 79.91L130.244 80.15C130.034 79.71 129.704 79.14 129.414 78.77L129.944 78.54ZM137.864 78.6H138.604V81.4H137.864V78.6ZM135.574 79.54H140.944V80.17H135.574V79.54ZM135.924 81.08H140.594V81.72H135.924V81.08ZM135.614 82.41H140.964V84.21H140.294V83.02H136.264V84.21H135.614V82.41ZM138.734 83.75H139.424V86.81C139.424 87.05 139.454 87.09 139.664 87.09C139.744 87.09 140.174 87.09 140.294 87.09C140.484 87.09 140.534 86.93 140.554 85.86C140.694 85.99 140.984 86.09 141.174 86.15C141.114 87.41 140.934 87.74 140.364 87.74C140.234 87.74 139.694 87.74 139.564 87.74C138.894 87.74 138.734 87.53 138.734 86.81V83.75ZM136.894 83.76H137.584V84.39C137.584 85.39 137.364 86.85 135.444 87.82C135.334 87.66 135.094 87.44 134.914 87.31C136.704 86.44 136.894 85.17 136.894 84.37V83.76ZM133.414 78.61L134.074 78.86C133.694 79.6 133.224 80.5 132.834 81.05L132.324 80.83C132.684 80.25 133.154 79.27 133.414 78.61ZM134.534 79.75L135.164 80.04C134.474 81.15 133.504 82.57 132.754 83.44L132.294 83.18C133.044 82.29 133.984 80.8 134.534 79.75ZM131.814 80.69L132.214 80.21C132.754 80.7 133.364 81.37 133.624 81.83L133.194 82.39C132.944 81.91 132.344 81.2 131.814 80.69ZM134.144 82.04L134.684 81.81C135.104 82.47 135.514 83.33 135.654 83.88L135.064 84.15C134.934 83.59 134.544 82.7 134.144 82.04ZM131.734 83.03C132.604 82.99 133.854 82.93 135.114 82.86V83.49C133.924 83.57 132.724 83.64 131.814 83.7L131.734 83.03ZM134.404 84.46L134.954 84.29C135.214 84.87 135.424 85.62 135.494 86.11L134.914 86.29C134.854 85.8 134.644 85.04 134.404 84.46ZM132.334 84.32L132.964 84.43C132.834 85.38 132.604 86.34 132.284 86.98C132.164 86.9 131.864 86.77 131.714 86.7C132.034 86.09 132.224 85.19 132.334 84.32ZM133.394 83.32H134.054V87.8H133.394V83.32ZM144.084 80.03C144.034 80.26 144.004 80.74 143.994 81C143.984 81.62 143.994 82.54 144.064 83.36C144.234 85.03 144.714 86.14 145.434 86.14C145.944 86.14 146.414 85.11 146.674 84.11L147.304 84.82C146.694 86.51 146.094 87.09 145.414 87.09C144.464 87.09 143.564 86.15 143.284 83.56C143.194 82.7 143.174 81.48 143.174 80.9C143.174 80.67 143.174 80.24 143.114 80.01L144.084 80.03ZM149.284 80.3C150.184 81.46 150.904 83.59 151.054 85.28L150.244 85.6C150.074 83.8 149.464 81.74 148.514 80.57L149.284 80.3ZM39.0353 97.36C39.4153 97.35 39.7353 97.33 39.9353 97.31C40.5853 97.24 42.4653 97.06 44.3153 96.9C45.4053 96.81 46.3353 96.75 47.0053 96.73L47.0153 97.53C46.4353 97.52 45.5653 97.54 45.0553 97.68C43.6253 98.14 42.7553 99.67 42.7553 100.85C42.7553 102.8 44.5853 103.42 46.2053 103.49L45.9253 104.31C44.0653 104.24 41.9653 103.26 41.9653 101.02C41.9653 99.46 42.9153 98.19 43.8353 97.65C42.7553 97.76 40.2153 98.01 39.1253 98.24L39.0353 97.36ZM50.8253 97.03C50.7753 97.26 50.7453 97.74 50.7353 98C50.7253 98.62 50.7353 99.54 50.8053 100.36C50.9753 102.03 51.4553 103.14 52.1753 103.14C52.6853 103.14 53.1553 102.11 53.4153 101.11L54.0453 101.82C53.4353 103.51 52.8353 104.09 52.1553 104.09C51.2053 104.09 50.3053 103.15 50.0253 100.56C49.9353 99.7 49.9153 98.48 49.9153 97.9C49.9153 97.67 49.9153 97.24 49.8553 97.01L50.8253 97.03ZM56.0253 97.3C56.9253 98.46 57.6453 100.59 57.7953 102.28L56.9853 102.6C56.8153 100.8 56.2053 98.74 55.2553 97.57L56.0253 97.3ZM61.3753 96.64C61.5953 96.66 61.8753 96.67 62.0753 96.67C62.6053 96.67 64.9753 96.6 65.5053 96.55C65.8053 96.52 65.9453 96.5 66.0553 96.46L66.5153 97.05C66.3353 97.17 66.1353 97.3 65.9453 97.45C65.4553 97.83 64.0953 99 63.3153 99.64C63.7753 99.49 64.2553 99.44 64.7053 99.44C66.3653 99.44 67.5553 100.43 67.5553 101.78C67.5553 103.39 66.2253 104.44 64.1053 104.44C62.7453 104.44 61.9153 103.85 61.9153 103.01C61.9153 102.33 62.5353 101.71 63.4553 101.71C64.7853 101.71 65.4553 102.65 65.5253 103.66L64.8053 103.78C64.7453 102.93 64.2553 102.32 63.4553 102.32C62.9953 102.32 62.6453 102.6 62.6453 102.95C62.6453 103.44 63.1953 103.73 63.9853 103.73C65.6853 103.73 66.7553 103.03 66.7553 101.78C66.7553 100.79 65.8153 100.06 64.5053 100.06C62.8453 100.06 61.9453 100.76 60.6853 102.05L60.1053 101.47C60.9353 100.79 62.2253 99.71 62.7953 99.22C63.3553 98.76 64.6153 97.71 65.1153 97.26C64.5853 97.29 62.5853 97.37 62.0653 97.4C61.8353 97.42 61.6153 97.43 61.3953 97.46L61.3753 96.64ZM73.9453 97.25C75.0353 97.44 77.0653 97.4 78.0553 97.25V98.06C76.9853 98.18 75.0453 98.18 73.9553 98.06L73.9453 97.25ZM74.3353 101.33C74.2453 101.69 74.1953 101.97 74.1953 102.24C74.1953 102.7 74.5153 103.15 75.8853 103.15C76.7753 103.15 77.5553 103.07 78.3553 102.88L78.3753 103.72C77.7553 103.85 76.9153 103.93 75.8753 103.93C74.2053 103.93 73.4553 103.37 73.4553 102.43C73.4553 102.1 73.5053 101.74 73.6153 101.26L74.3353 101.33ZM72.0453 96.48C71.9853 96.65 71.9053 96.97 71.8653 97.15C71.6753 98.08 71.3653 99.86 71.3653 100.99C71.3653 101.47 71.3953 101.89 71.4553 102.38C71.6253 101.93 71.8553 101.33 72.0253 100.92L72.4453 101.25C72.1953 101.96 71.8253 103.01 71.7353 103.49C71.7053 103.63 71.6853 103.82 71.6853 103.94C71.6953 104.04 71.7053 104.18 71.7153 104.29L71.0053 104.34C70.8053 103.63 70.6353 102.48 70.6353 101.12C70.6353 99.65 70.9653 97.94 71.0853 97.11C71.1153 96.88 71.1453 96.63 71.1553 96.41L72.0453 96.48ZM84.9853 99.03C84.7053 98.72 84.2753 98.34 83.9053 98.08L84.4553 97.66C84.7253 97.85 85.2653 98.3 85.5453 98.6L84.9853 99.03ZM82.5753 98.4C82.6553 98.56 82.7553 98.74 82.8253 98.88C83.1053 99.4 83.6253 100.45 83.9453 101.2C84.3853 102.2 84.8753 103.7 85.1553 104.57L84.3653 104.78C84.1153 103.83 83.6953 102.53 83.2653 101.5C82.8953 100.65 82.4553 99.72 82.1853 99.28C82.0953 99.13 81.9353 98.88 81.7853 98.72L82.5753 98.4ZM80.9253 100.78C81.2253 100.71 81.4953 100.62 81.6353 100.56C82.7553 100.12 84.9953 98.95 86.2653 98.95C87.5953 98.95 88.1853 99.72 88.1853 100.56C88.1853 101.6 87.5753 102.3 86.1853 102.3C85.7353 102.3 85.2353 102.16 84.9553 102.05L84.9853 101.31C85.2953 101.46 85.7453 101.59 86.1553 101.59C87.1153 101.59 87.4453 101.1 87.4453 100.56C87.4453 100.14 87.1453 99.64 86.2453 99.64C84.9253 99.64 82.1953 101.16 81.3153 101.56L80.9253 100.78ZM91.94 101.57C92.78 101.57 93.46 102.25 93.46 103.09C93.46 103.93 92.78 104.61 91.94 104.61C91.1 104.61 90.41 103.93 90.41 103.09C90.41 102.25 91.1 101.57 91.94 101.57ZM91.94 104.1C92.5 104.1 92.95 103.65 92.95 103.09C92.95 102.53 92.5 102.08 91.94 102.08C91.38 102.08 90.92 102.53 90.92 103.09C90.92 103.65 91.38 104.1 91.94 104.1ZM105.92 96C105.88 96.21 105.86 96.6 105.86 96.87C105.86 97.14 105.86 97.66 105.86 97.86H105.06C105.06 97.66 105.06 97.16 105.06 96.87C105.06 96.59 105.05 96.22 105.01 96H105.92ZM108.67 97.96C108.49 98.14 108.27 98.37 108.11 98.56C107.59 99.17 106.73 100.03 105.78 100.68C104.69 101.44 103.38 102.02 101.67 102.54L101.18 101.8C103.08 101.34 104.33 100.69 105.23 100.1C106.13 99.52 106.92 98.74 107.27 98.27C106.8 98.27 103.56 98.27 103.11 98.27C102.77 98.27 102.19 98.28 101.89 98.31V97.46C102.21 97.5 102.76 97.52 103.1 97.52C103.56 97.52 106.91 97.52 107.51 97.52C107.75 97.52 107.98 97.5 108.14 97.45L108.67 97.96ZM105.84 100.27C105.84 101.04 105.84 102.55 105.84 103.32C105.84 103.67 105.86 104.12 105.89 104.43H104.98C105.01 104.13 105.04 103.67 105.04 103.32C105.04 102.57 105.04 101.25 105.04 100.61L105.84 100.27ZM109.13 102.66C108.26 102.02 107.66 101.62 106.73 101.12L107.25 100.54C108.19 101.04 108.73 101.36 109.66 101.98L109.13 102.66ZM112.315 97.15C112.655 97.18 113.085 97.21 113.415 97.21H118.335C118.585 97.21 118.875 97.2 119.075 97.19C119.065 97.41 119.055 97.73 119.055 97.96V103.13C119.055 103.49 119.085 103.94 119.095 104.09H118.195C118.195 103.94 118.215 103.57 118.215 103.21V98H113.415C113.045 98 112.555 98.02 112.315 98.04V97.15ZM112.195 102.67C112.445 102.69 112.885 102.72 113.295 102.72H118.665V103.54H113.325C112.915 103.54 112.465 103.55 112.195 103.58V102.67ZM122.715 97.15C123.055 97.18 123.485 97.21 123.815 97.21H128.735C128.985 97.21 129.275 97.2 129.475 97.19C129.465 97.41 129.455 97.73 129.455 97.96V103.13C129.455 103.49 129.485 103.94 129.495 104.09H128.595C128.595 103.94 128.615 103.57 128.615 103.21V98H123.815C123.445 98 122.955 98.02 122.715 98.04V97.15ZM122.595 102.67C122.845 102.69 123.285 102.72 123.695 102.72H129.065V103.54H123.725C123.315 103.54 122.865 103.55 122.595 103.58V102.67ZM137.035 97.18C136.905 98.22 136.705 99.39 136.395 100.46C135.785 102.51 134.985 103.57 134.065 103.57C133.165 103.57 132.275 102.55 132.275 100.89C132.275 98.72 134.205 96.83 136.655 96.83C138.995 96.83 140.485 98.48 140.485 100.51C140.485 102.6 139.105 104 136.725 104.31L136.265 103.57C136.585 103.54 136.885 103.5 137.125 103.45C138.405 103.16 139.665 102.2 139.665 100.47C139.665 98.87 138.555 97.55 136.635 97.55C134.435 97.55 133.065 99.36 133.065 100.83C133.065 102.09 133.635 102.65 134.085 102.65C134.555 102.65 135.095 101.97 135.605 100.28C135.895 99.33 136.105 98.2 136.205 97.16L137.035 97.18ZM144.185 103.73H149.475V104.37H144.185V103.73ZM143.885 100.27H149.715V100.89H143.885V100.27ZM143.885 98.91H149.715V99.53H143.885V98.91ZM142.345 97.51H151.315V98.17H142.345V97.51ZM144.045 96.16H149.575V96.77H144.045V96.16ZM143.775 101.65H149.855V104.77H149.085V102.3H144.505V104.8H143.775V101.65ZM43.75 113.28H52.66V113.89H43.75V113.28ZM43.75 115.23H52.65V115.83H43.75V115.23ZM46.1 112.61H46.84V114.65H46.1V112.61ZM49.52 112.61H50.26V114.69H49.52V112.61ZM43.72 118.98H52.7V119.58H43.72V118.98ZM47.8 118.15H48.54V121.8H47.8V118.15ZM47.54 119.28L48.1 119.56C47.15 120.48 45.42 121.29 43.98 121.66C43.87 121.48 43.67 121.21 43.51 121.06C44.95 120.76 46.66 120.06 47.54 119.28ZM48.82 119.24C49.66 120.08 51.34 120.77 52.88 121.05C52.72 121.2 52.51 121.5 52.4 121.69C50.85 121.33 49.18 120.5 48.26 119.48L48.82 119.24ZM45.11 114.49H45.85V117.63H52.35V118.24H45.11V114.49ZM47.52 114.4H48.23V116.56H50.32V114.48H51.06V117.06H47.52V114.4ZM58.2 113.1C58.11 113.49 58 114.04 57.74 114.71C57.49 115.32 57.12 115.99 56.72 116.51C57.11 116.28 57.68 116.14 58.12 116.14C58.89 116.14 59.49 116.6 59.49 117.41C59.49 117.93 59.51 119.08 59.52 119.7H58.75C58.79 119.17 58.8 118.14 58.79 117.62C58.78 117.04 58.38 116.77 57.86 116.77C57.22 116.77 56.59 117.09 56.13 117.5C55.84 117.78 55.56 118.14 55.23 118.55L54.54 118.04C55.98 116.66 56.65 115.5 56.99 114.65C57.21 114.1 57.35 113.5 57.38 113.03L58.2 113.1ZM54.77 114.18C55.31 114.25 56 114.28 56.46 114.28C57.81 114.28 59.54 114.2 60.95 113.95V114.69C59.55 114.9 57.69 114.99 56.42 114.99C55.99 114.99 55.33 114.97 54.77 114.93V114.18ZM62.41 116.59C62.16 116.67 61.8 116.81 61.53 116.91C60.82 117.19 59.87 117.57 58.9 118.07C57.91 118.59 57.21 119.13 57.21 119.82C57.21 120.6 57.98 120.72 59.01 120.72C59.79 120.72 60.87 120.63 61.75 120.47L61.72 121.28C60.96 121.37 59.85 121.45 58.98 121.45C57.56 121.45 56.41 121.14 56.41 119.93C56.41 118.71 57.65 117.96 58.84 117.35C59.79 116.86 60.6 116.55 61.26 116.24C61.56 116.1 61.81 115.99 62.09 115.85L62.41 116.59ZM64.72 115.49H73.28V117.53H72.55V116.16H65.42V117.53H64.72V115.49ZM65.93 117.29H71.52V117.99H65.93V117.29ZM72.19 112.57L72.72 113.17C70.71 113.59 67.59 113.85 64.99 113.95C64.97 113.76 64.88 113.48 64.81 113.31C67.4 113.19 70.48 112.93 72.19 112.57ZM65.65 114.16L66.3 113.97C66.59 114.38 66.89 114.94 67.01 115.3L66.33 115.52C66.21 115.16 65.92 114.59 65.65 114.16ZM68.31 113.95L68.99 113.8C69.22 114.26 69.46 114.87 69.52 115.26L68.81 115.43C68.75 115.04 68.54 114.42 68.31 113.95ZM71.73 113.78L72.49 114C72.13 114.64 71.66 115.38 71.3 115.85L70.7 115.64C71.05 115.14 71.49 114.34 71.73 113.78ZM71.25 117.29H71.42L71.56 117.26L72.06 117.57C70.83 120.11 68 121.27 64.95 121.78C64.87 121.59 64.66 121.26 64.51 121.1C67.51 120.69 70.21 119.63 71.25 117.42V117.29ZM66.91 117.75C68.05 119.59 70.46 120.71 73.47 121.07C73.32 121.24 73.11 121.56 73.02 121.77C69.97 121.33 67.56 120.11 66.25 118.03L66.91 117.75ZM82.01 113.21C81.98 113.37 81.97 113.57 81.97 113.8C81.96 114.17 82 115.86 82 116.42C82 118.71 82 120.35 79.88 121.59L79.15 121.03C79.46 120.9 79.87 120.65 80.12 120.4C81.19 119.47 81.24 118.33 81.24 116.41C81.24 115.77 81.2 114.22 81.17 113.8C81.15 113.58 81.11 113.36 81.07 113.21H82.01ZM78.35 115.28C78.79 115.35 79.42 115.39 79.97 115.39C81.2 115.39 82.62 115.31 83.62 115.08V115.89C82.65 116.05 81.25 116.14 79.98 116.14C79.49 116.14 78.79 116.11 78.35 116.07V115.28ZM76.95 113.36C76.89 113.54 76.82 113.82 76.78 114.01C76.46 115.46 76.11 117.65 76.5 119.29C76.63 118.86 76.85 118.25 77.03 117.76L77.46 118.02C77.22 118.71 76.92 119.73 76.81 120.23C76.78 120.37 76.76 120.56 76.77 120.68C76.77 120.78 76.79 120.91 76.8 121.02L76.11 121.1C75.91 120.48 75.59 119.18 75.59 117.93C75.59 116.3 75.85 114.77 75.97 113.93C76 113.71 76.01 113.44 76.02 113.26L76.95 113.36ZM92.93 115.04C92.71 115.17 92.46 115.31 92.16 115.46C91.49 115.81 90.1 116.47 89.12 117.11C88.19 117.72 87.63 118.38 87.63 119.13C87.63 119.96 88.43 120.48 90.01 120.48C91.09 120.48 92.43 120.34 93.21 120.14L93.2 121.04C92.45 121.17 91.29 121.28 90.04 121.28C88.16 121.28 86.8 120.72 86.8 119.22C86.8 118.14 87.53 117.29 88.71 116.51C89.73 115.83 91.13 115.16 91.78 114.79C92.07 114.62 92.29 114.49 92.5 114.32L92.93 115.04ZM87.87 113.22C88.33 114.5 88.95 115.75 89.41 116.56L88.73 116.97C88.22 116.15 87.62 114.8 87.08 113.56L87.87 113.22ZM97.58 113.64C97.8 113.66 98.08 113.67 98.28 113.67C98.81 113.67 101.18 113.6 101.71 113.55C102.01 113.52 102.15 113.5 102.26 113.46L102.72 114.05C102.54 114.17 102.34 114.3 102.15 114.45C101.66 114.83 100.3 116 99.52 116.64C99.98 116.49 100.46 116.44 100.91 116.44C102.57 116.44 103.76 117.43 103.76 118.78C103.76 120.39 102.43 121.44 100.31 121.44C98.95 121.44 98.12 120.85 98.12 120.01C98.12 119.33 98.74 118.71 99.66 118.71C100.99 118.71 101.66 119.65 101.73 120.66L101.01 120.78C100.95 119.93 100.46 119.32 99.66 119.32C99.2 119.32 98.85 119.6 98.85 119.95C98.85 120.44 99.4 120.73 100.19 120.73C101.89 120.73 102.96 120.03 102.96 118.78C102.96 117.79 102.02 117.06 100.71 117.06C99.05 117.06 98.15 117.76 96.89 119.05L96.31 118.47C97.14 117.79 98.43 116.71 99 116.22C99.56 115.76 100.82 114.71 101.32 114.26C100.79 114.29 98.79 114.37 98.27 114.4C98.04 114.42 97.82 114.43 97.6 114.46L97.58 113.64ZM110.15 114.25C111.24 114.44 113.27 114.4 114.26 114.25V115.06C113.19 115.18 111.25 115.18 110.16 115.06L110.15 114.25ZM110.54 118.33C110.45 118.69 110.4 118.97 110.4 119.24C110.4 119.7 110.72 120.15 112.09 120.15C112.98 120.15 113.76 120.07 114.56 119.88L114.58 120.72C113.96 120.85 113.12 120.93 112.08 120.93C110.41 120.93 109.66 120.37 109.66 119.43C109.66 119.1 109.71 118.74 109.82 118.26L110.54 118.33ZM108.25 113.48C108.19 113.65 108.11 113.97 108.07 114.15C107.88 115.08 107.57 116.86 107.57 117.99C107.57 118.47 107.6 118.89 107.66 119.38C107.83 118.93 108.06 118.33 108.23 117.92L108.65 118.25C108.4 118.96 108.03 120.01 107.94 120.49C107.91 120.63 107.89 120.82 107.89 120.94C107.9 121.04 107.91 121.18 107.92 121.29L107.21 121.34C107.01 120.63 106.84 119.48 106.84 118.12C106.84 116.65 107.17 114.94 107.29 114.11C107.32 113.88 107.35 113.63 107.36 113.41L108.25 113.48ZM121.19 116.03C120.91 115.72 120.48 115.34 120.11 115.08L120.66 114.66C120.93 114.85 121.47 115.3 121.75 115.6L121.19 116.03ZM118.78 115.4C118.86 115.56 118.96 115.74 119.03 115.88C119.31 116.4 119.83 117.45 120.15 118.2C120.59 119.2 121.08 120.7 121.36 121.57L120.57 121.78C120.32 120.83 119.9 119.53 119.47 118.5C119.1 117.65 118.66 116.72 118.39 116.28C118.3 116.13 118.14 115.88 117.99 115.72L118.78 115.4ZM117.13 117.78C117.43 117.71 117.7 117.62 117.84 117.56C118.96 117.12 121.2 115.95 122.47 115.95C123.8 115.95 124.39 116.72 124.39 117.56C124.39 118.6 123.78 119.3 122.39 119.3C121.94 119.3 121.44 119.16 121.16 119.05L121.19 118.31C121.5 118.46 121.95 118.59 122.36 118.59C123.32 118.59 123.65 118.1 123.65 117.56C123.65 117.14 123.35 116.64 122.45 116.64C121.13 116.64 118.4 118.16 117.52 118.56L117.13 117.78ZM131.87 113.58C131.78 113.7 131.66 113.88 131.55 114.07C131.1 114.76 130.18 116.42 129.67 117.39C130.15 116.96 130.67 116.77 131.15 116.77C131.82 116.77 132.3 117.2 132.33 117.99C132.35 118.58 132.33 119.34 132.37 119.83C132.4 120.33 132.74 120.55 133.17 120.55C134.29 120.55 134.95 119.17 135.2 118.1L135.87 118.64C135.34 120.25 134.5 121.37 133.05 121.37C131.98 121.37 131.63 120.7 131.6 120.11C131.57 119.52 131.58 118.75 131.55 118.2C131.53 117.77 131.27 117.5 130.82 117.5C130.02 117.5 129.26 118.32 128.88 119.11C128.57 119.7 128.15 120.89 128.01 121.38L127.15 121.08C127.88 119.06 130.07 114.96 130.62 114C130.73 113.76 130.86 113.52 130.98 113.22L131.87 113.58ZM138.74 118.57C139.58 118.57 140.26 119.25 140.26 120.09C140.26 120.93 139.58 121.61 138.74 121.61C137.9 121.61 137.21 120.93 137.21 120.09C137.21 119.25 137.9 118.57 138.74 118.57ZM138.74 121.1C139.3 121.1 139.75 120.65 139.75 120.09C139.75 119.53 139.3 119.08 138.74 119.08C138.18 119.08 137.72 119.53 137.72 120.09C137.72 120.65 138.18 121.1 138.74 121.1Z" fill="black"/>
<defs>
<filter id="filter0_d_1013_10444" x="28.9497" y="287.5" width="133.101" height="28.1006" filterUnits="userSpaceOnUse" color-interpolation-filters="sRGB">
<feFlood flood-opacity="0" result="BackgroundImageFix"/>
<feColorMatrix in="SourceAlpha" type="matrix" values="0 0 0 0 0 0 0 0 0 0 0 0 0 0 0 0 0 0 127 0" result="hardAlpha"/>
<feOffset dy="2.5503"/>
<feGaussianBlur stdDeviation="1.27515"/>
<feComposite in2="hardAlpha" operator="out"/>
<feColorMatrix type="matrix" values="0 0 0 0 0 0 0 0 0 0 0 0 0 0 0 0 0 0 0.25 0"/>
<feBlend mode="normal" in2="BackgroundImageFix" result="effect1_dropShadow_1013_10444"/>
<feBlend mode="normal" in="SourceGraphic" in2="effect1_dropShadow_1013_10444" result="shape"/>
</filter>
<filter id="filter1_d_1013_10444" x="28.4497" y="253" width="134.101" height="27.1006" filterUnits="userSpaceOnUse" color-interpolation-filters="sRGB">
<feFlood flood-opacity="0" result="BackgroundImageFix"/>
<feColorMatrix in="SourceAlpha" type="matrix" values="0 0 0 0 0 0 0 0 0 0 0 0 0 0 0 0 0 0 127 0" result="hardAlpha"/>
<feOffset dy="2.5503"/>
<feGaussianBlur stdDeviation="1.27515"/>
<feComposite in2="hardAlpha" operator="out"/>
<feColorMatrix type="matrix" values="0 0 0 0 0 0 0 0 0 0 0 0 0 0 0 0 0 0 0.25 0"/>
<feBlend mode="normal" in2="BackgroundImageFix" result="effect1_dropShadow_1013_10444"/>
<feBlend mode="normal" in="SourceGraphic" in2="effect1_dropShadow_1013_10444" result="shape"/>
</filter>
</defs>
</svg>
