<svg width="125" height="131" viewBox="0 0 125 131" fill="none" xmlns="http://www.w3.org/2000/svg">
<path d="M18.0064 31.3021C26.4625 15.8372 29.9387 5.93584 35.9321 3.18404C41.9255 0.432245 46.834 24.3445 46.834 24.3445L60.1808 23.9188C60.1808 23.9188 79.8272 -1.61615 84.4158 0.0810004C89.0044 1.77815 87.5769 28.1756 87.5769 28.1756C98.313 41.8793 101.629 49.7776 102.329 64.3579C102.329 64.3579 119.347 74.3159 114.229 79.4334C109.66 84.0026 105.443 75.9187 104.74 82.2452C104.037 88.5718 103.685 88.2203 102.768 90.7014C101.576 92.0865 102.982 92.4174 109.66 89.2747C116.338 86.132 118.096 85.216 120.556 85.216C123.016 85.216 130.046 90.4847 114.229 95.6013C98.4131 100.718 101.013 96.985 100.604 97.777C100.604 101.225 91.3836 111.418 88.9232 112.121C88.9232 112.121 84.7055 130.749 77.3246 130.749C69.9436 130.749 66.0773 117.393 66.0773 117.393C59.0478 117.744 61.5082 118.799 52.7213 116.69C52.7213 116.69 55.1247 130.749 48.2333 130.749C40.7707 130.749 26.4625 108.628 26.4625 108.628C21.7915 106.848 11.9502 90.7014 10.6571 85.216C10.6571 85.216 -1.08548 98.9276 0.0815649 88.2411C1.18572 78.1304 10.6571 71.0188 10.6571 64.3407C10.6571 57.6627 9.55028 46.767 18.0064 31.3021Z" fill="#FFBBDC"/>
<circle cx="44.6373" cy="47.4491" r="2.46033" fill="#2F2E2E"/>
<circle cx="64.3199" cy="47.4491" r="2.46033" fill="#2F2E2E"/>
<path d="M49.6094 56.9891C48.3294 58.1672 50.6294 60.0414 53.8151 60.1006C57.0008 60.1597 59.8022 58.7465 58.7478 56.9891C57.6933 55.2317 57.3676 57.9658 54.1819 57.9067C50.9961 57.8476 50.8895 55.811 49.6094 56.9891Z" fill="black"/>
</svg>
