<svg width="124" height="130" viewBox="0 0 124 130" fill="none" xmlns="http://www.w3.org/2000/svg">
<path d="M17.8657 31.0575C26.2558 15.7134 29.7048 5.88947 35.6514 3.15917C41.5979 0.428868 46.4681 24.1543 46.4681 24.1543L59.7107 23.7319C59.7107 23.7319 79.2036 -1.60352 83.7563 0.0803676C88.3091 1.76426 86.8927 27.9554 86.8927 27.9554C97.545 41.5521 100.835 49.3887 101.529 63.8551C101.529 63.8551 118.415 73.7353 113.337 78.8128C108.804 83.3463 104.619 75.3255 103.921 81.6027C103.224 87.8798 102.875 87.5311 101.965 89.9928C100.783 91.3671 102.178 91.6954 108.804 88.5773C115.429 85.4591 117.173 84.5503 119.614 84.5503C122.055 84.5503 129.03 89.7778 113.337 94.8544C97.6442 99.931 100.223 96.2273 99.8176 97.0131C99.8176 100.434 90.6696 110.547 88.2285 111.245C88.2285 111.245 84.0438 129.727 76.7205 129.727C69.3971 129.727 65.5611 116.476 65.5611 116.476C58.5865 116.824 61.0276 117.871 52.3094 115.778C52.3094 115.778 54.694 129.727 47.8565 129.727C40.4522 129.727 26.2558 107.779 26.2558 107.779C21.6212 106.014 11.8568 89.9928 10.5738 84.5503C10.5738 84.5503 -1.077 98.1547 0.0809277 87.5517C1.17646 77.52 10.5738 70.4639 10.5738 63.8381C10.5738 57.2122 9.47567 46.4016 17.8657 31.0575Z" fill="#FFE925"/>
<path d="M50.0964 42.9936C51.5326 43.951 49.7224 46.6308 46.6092 47.1798C43.4959 47.7287 39.2857 45.0859 41.0294 43.691C42.7731 42.2961 42.7983 45.6349 45.9116 45.086C49.0248 44.537 48.6603 42.0363 50.0964 42.9936Z" fill="black"/>
<path d="M58.845 42.9936C57.4088 43.951 59.219 46.6308 62.3322 47.1798C65.4455 47.7287 69.6557 45.0859 67.912 43.691C66.1683 42.2961 66.1431 45.6349 63.0298 45.086C59.9166 44.537 60.2812 42.0363 58.845 42.9936Z" fill="black"/>
<path d="M50.2743 52.6358C49.0042 53.8047 51.5574 58.612 54.7183 58.6707C57.8791 58.7293 60.3874 54.7283 59.3412 52.9846C58.295 51.2409 58.243 56.5526 55.0821 56.4939C51.9213 56.4353 51.5444 51.467 50.2743 52.6358Z" fill="black"/>
</svg>
