<svg width="284" height="132" viewBox="0 0 284 132" fill="none" xmlns="http://www.w3.org/2000/svg">
<path d="M106.507 31.3798C98.0296 15.8765 94.5448 5.95058 88.5366 3.19195C82.5283 0.433319 77.6076 24.4049 77.6076 24.4049L64.2276 23.9782C64.2276 23.9782 44.5324 -1.62016 39.9324 0.0812015C35.3325 1.78256 36.7635 28.2455 36.7635 28.2455C26.0007 41.9833 22.6762 49.9012 21.9751 64.5178C21.9751 64.5178 4.91448 74.5004 10.0447 79.6307C14.6253 84.2112 22.3759 76.1577 23.0806 82.5C23.7853 88.8423 24.6612 90.5127 25.5806 93C26.7752 94.3886 21.3199 92.6469 14.6253 89.4964C7.93066 86.3459 6.16892 85.4276 3.70248 85.4276C1.23605 85.4276 -5.81091 90.7094 10.0447 95.8387C25.9004 100.968 30.6704 101.706 31.0806 102.5C31.0806 105.956 41.1141 114.295 43.5806 115C43.5806 115 49.6813 129 57.0806 129C64.4799 129 62.0806 116.5 62.0806 116.5C69.1275 116.852 75.272 117.114 84.0807 115C84.0807 115 87.6722 129 94.5807 129C102.062 129 101.581 110.5 101.581 110.5C106.263 108.716 112.578 90.9266 113.874 85.4276C113.874 85.4276 128.251 77.2131 127.081 66.5C125.974 56.3642 113.874 71.1951 113.874 64.5005C113.874 57.8059 114.984 46.8831 106.507 31.3798Z" fill="#FFBBDC"/>
<circle cx="2.46644" cy="2.46644" r="2.46644" transform="matrix(-1 0 0 1 82.2759 45.1006)" fill="#2F2E2E"/>
<circle cx="2.46644" cy="2.46644" r="2.46644" transform="matrix(-1 0 0 1 62.5444 45.1006)" fill="#2F2E2E"/>
<path d="M74.825 57.1307C76.1083 58.3117 73.8025 60.1906 70.6089 60.2498C67.4153 60.3091 64.6069 58.8925 65.664 57.1307C66.721 55.3689 67.0476 58.1098 70.2412 58.0505C73.4349 57.9912 73.5417 55.9497 74.825 57.1307Z" fill="black"/>
<path d="M176.574 31.3798C185.051 15.8765 188.536 5.95058 194.544 3.19195C200.553 0.433319 205.473 24.4049 205.473 24.4049L218.853 23.9782C218.853 23.9782 238.548 -1.62016 243.148 0.0812015C247.748 1.78256 246.317 28.2455 246.317 28.2455C257.08 41.9833 260.405 49.9012 261.106 64.5178C261.106 64.5178 278.166 74.5004 273.036 79.6307C268.456 84.2112 264.227 76.1072 263.523 82.4495C262.818 88.7917 262.466 88.4394 261.546 90.9266C260.352 92.3152 261.761 92.6469 268.456 89.4964C275.15 86.3459 276.912 85.4276 279.378 85.4276C281.845 85.4276 288.892 90.7094 273.036 95.8387C257.18 100.968 259.786 97.2258 259.376 98.0198C259.376 101.476 250.133 111.694 247.667 112.399C247.667 112.399 243.439 131.073 236.04 131.073C228.64 131.073 224.764 117.684 224.764 117.684C217.717 118.037 220.184 119.094 211.375 116.98C211.375 116.98 213.785 131.073 206.876 131.073C199.395 131.073 185.051 108.898 185.051 108.898C180.369 107.114 170.503 90.9266 169.207 85.4276C169.207 85.4276 157.435 99.1733 158.605 88.4602C159.712 78.3244 169.207 71.1951 169.207 64.5005C169.207 57.8059 168.097 46.8831 176.574 31.3798Z" fill="#FFE925"/>
<circle cx="203.271" cy="47.567" r="2.46644" fill="#2F2E2E"/>
<circle cx="223.003" cy="47.567" r="2.46644" fill="#2F2E2E"/>
<ellipse cx="213.137" cy="55.0479" rx="3.17113" ry="2.1954" fill="black"/>
<ellipse cx="213.137" cy="55.0477" rx="2.1954" ry="1.51989" fill="white"/>
<path d="M129.176 77.875C116.314 92.4767 115.082 114.247 115.081 126.371C115.08 131.17 158.421 132.433 158.421 124.855V120.056C158.421 120.056 167.228 116.773 168.285 115.005C168.918 113.946 165.066 115.284 166.524 113.742C166.524 113.742 170.576 110.711 171.104 109.701C171.633 108.69 166.876 110.963 166.876 110.963C166.876 110.963 166.932 104.541 165.819 106.67C163.705 110.711 158.421 116.773 158.421 116.773C158.421 116.773 158.421 87.4733 149.964 77.875C147.937 75.5743 145.735 85.3658 145.735 85.3658H131.993C131.993 85.3658 133.403 73.0761 129.176 77.875Z" fill="#FFD15A"/>
<circle cx="133.226" cy="91.8841" r="1.23322" fill="#2F2E2E"/>
<circle cx="140.978" cy="91.8841" r="1.23322" fill="#2F2E2E"/>
<path d="M135.415 99.5407C136.175 98.8248 136.004 99.1429 136.207 98.8355C136.41 98.528 136.536 98.1672 136.572 97.7894L136.006 97.7251C135.98 97.9936 135.891 98.2501 135.747 98.4687C135.602 98.6873 135.713 98.5652 135.184 98.97C134.655 99.3748 134.655 100.257 135.415 99.5407Z" fill="#2F2E2E"/>
<path d="M137.016 98.986C136.255 98.2701 136.426 98.5883 136.223 98.2808C136.02 97.9733 135.895 97.6125 135.859 97.2347L136.425 97.1704C136.45 97.439 136.54 97.6954 136.684 97.914C136.828 98.1326 136.718 98.0105 137.247 98.4153C137.776 98.8201 137.776 99.7019 137.016 98.986Z" fill="#2F2E2E"/>
<path d="M137.631 96.8692C137.158 97.7636 137.081 98.0522 136.37 98.0522C135.659 98.0522 135.582 97.7637 135.056 96.8692C135.056 96.0884 135.633 96.321 136.344 96.321C137.055 96.321 137.631 96.0884 137.631 96.8692Z" fill="#2F2E2E"/>
</svg>
