<svg width="149" height="24" viewBox="0 0 149 24" fill="none" xmlns="http://www.w3.org/2000/svg">
<g filter="url(#filter0_d_1005_10477)">
<rect x="1" width="147" height="22" rx="11" fill="#00ABB6" shape-rendering="crispEdges"/>
<path d="M19.03 7.11H26.01V15.77H24.72V8.32H20.27V15.78H19.03V7.11ZM19.88 10.47H25.26V11.66H19.88V10.47ZM19.87 13.92H25.26V15.13H19.87V13.92ZM33.22 10.25H36.51V11.38H33.22V10.25ZM32.73 10.25H33.94V14.19C33.94 14.62 34.03 14.68 34.51 14.68C34.73 14.68 35.66 14.68 35.93 14.68C36.38 14.68 36.46 14.45 36.52 13.19C36.79 13.39 37.3 13.59 37.64 13.67C37.49 15.33 37.15 15.82 36.02 15.82C35.74 15.82 34.62 15.82 34.36 15.82C33.11 15.82 32.73 15.47 32.73 14.19V10.25ZM32.7 7.01H37.1V11.89H35.89V8.15H32.7V7.01ZM28.68 9.58H31.91V10.48H28.68V9.58ZM28.74 6.82H31.94V7.73H28.74V6.82ZM28.68 10.94H31.91V11.85H28.68V10.94ZM28.19 8.17H32.31V9.12H28.19V8.17ZM29.23 12.33H31.88V15.37H29.23V14.42H30.83V13.28H29.23V12.33ZM28.65 12.33H29.69V15.77H28.65V12.33ZM43.16 6.98C43.08 7.35 42.95 7.94 42.67 8.66C42.46 9.15 42.17 9.72 41.89 10.12C42.16 10 42.69 9.93 43.03 9.93C43.86 9.93 44.49 10.42 44.49 11.35C44.49 11.89 44.52 12.98 44.53 13.61H43.33C43.37 13.14 43.39 12.29 43.38 11.75C43.38 11.11 42.98 10.9 42.56 10.9C42.01 10.9 41.38 11.23 41 11.59C40.7 11.89 40.42 12.25 40.08 12.69L39.01 11.89C40.29 10.71 41.06 9.63 41.48 8.53C41.68 7.99 41.81 7.38 41.84 6.87L43.16 6.98ZM39.39 7.91C39.9 7.98 40.64 8.02 41.15 8.02C42.47 8.02 44.28 7.95 45.73 7.69L45.72 8.85C44.31 9.05 42.3 9.14 41.08 9.14C40.67 9.14 39.94 9.12 39.39 9.07V7.91ZM47.31 10.75C47 10.84 46.46 11.04 46.12 11.17C45.47 11.42 44.57 11.78 43.63 12.26C42.72 12.73 42.23 13.16 42.23 13.71C42.23 14.26 42.71 14.41 43.68 14.41C44.53 14.41 45.65 14.3 46.53 14.12L46.49 15.41C45.82 15.5 44.6 15.59 43.65 15.59C42.09 15.59 40.92 15.2 40.92 13.91C40.92 12.52 42.35 11.7 43.55 11.1C44.47 10.62 45.1 10.38 45.7 10.1C46.09 9.93 46.44 9.77 46.82 9.58L47.31 10.75ZM56.45 7.51C56.45 7.81 56.69 8.05 56.99 8.05C57.29 8.05 57.54 7.81 57.54 7.51C57.54 7.21 57.29 6.96 56.99 6.96C56.69 6.96 56.45 7.21 56.45 7.51ZM55.84 7.51C55.84 6.87 56.35 6.35 56.99 6.35C57.63 6.35 58.15 6.87 58.15 7.51C58.15 8.15 57.63 8.66 56.99 8.66C56.35 8.66 55.84 8.15 55.84 7.51ZM54.46 7.11C54.43 7.25 54.37 7.74 54.37 7.99C54.37 8.58 54.37 9.43 54.37 10.01C54.37 10.82 54.37 13.8 54.37 14.64C54.37 15.22 54.03 15.58 53.32 15.58C52.79 15.58 52.2 15.56 51.7 15.5L51.58 14.26C52 14.34 52.44 14.37 52.69 14.37C52.95 14.37 53.04 14.28 53.05 14.02C53.06 13.64 53.06 10.48 53.06 10.01C53.06 9.66 53.06 8.59 53.06 7.98C53.06 7.72 53.01 7.29 52.98 7.11H54.46ZM49.56 8.71C49.86 8.75 50.21 8.78 50.52 8.78C51.13 8.78 55.98 8.78 56.7 8.78C56.98 8.78 57.41 8.75 57.68 8.72V10.03C57.37 10 56.98 9.99 56.71 9.99C55.99 9.99 51.18 9.99 50.52 9.99C50.22 9.99 49.84 10 49.56 10.03V8.71ZM52.11 11.42C51.65 12.3 50.72 13.61 50.18 14.2L49.09 13.47C49.76 12.83 50.56 11.73 50.97 10.88L52.11 11.42ZM56.4 10.85C56.91 11.49 57.71 12.75 58.11 13.48L56.94 14.13C56.51 13.27 55.8 12.06 55.31 11.44L56.4 10.85ZM66.39 7.33C66.67 7.75 67.08 8.41 67.3 8.87L66.44 9.25C66.14 8.62 65.92 8.19 65.55 7.67L66.39 7.33ZM67.77 6.84C68.08 7.24 68.47 7.9 68.71 8.34L67.85 8.72C67.53 8.09 67.29 7.7 66.92 7.2L67.77 6.84ZM62.05 7.13C62.71 7.49 63.81 8.2 64.33 8.56L63.58 9.67C63.03 9.28 61.98 8.6 61.32 8.23L62.05 7.13ZM60.2 14.23C61.31 14.04 62.51 13.71 63.6 13.11C65.3 12.16 66.69 10.79 67.49 9.36L68.26 10.72C67.33 12.1 65.92 13.37 64.28 14.31C63.27 14.89 61.83 15.39 60.95 15.55L60.2 14.23ZM60.51 9.41C61.18 9.77 62.28 10.46 62.79 10.82L62.06 11.94C61.49 11.55 60.46 10.87 59.78 10.52L60.51 9.41ZM71.51 7.34C71.83 7.38 72.24 7.41 72.58 7.41C73.21 7.41 76.01 7.41 76.6 7.41C76.93 7.41 77.33 7.38 77.67 7.34V8.63C77.33 8.61 76.94 8.59 76.6 8.59C76.01 8.59 73.21 8.59 72.58 8.59C72.24 8.59 71.81 8.61 71.51 8.63V7.34ZM70.34 9.89C70.64 9.93 70.99 9.95 71.3 9.95C71.93 9.95 77.26 9.95 77.85 9.95C78.06 9.95 78.5 9.94 78.77 9.89V11.19C78.51 11.18 78.13 11.17 77.85 11.17C77.26 11.17 71.93 11.17 71.3 11.17C71.01 11.17 70.62 11.18 70.34 11.2V9.89ZM75.46 10.59C75.46 11.9 75.23 12.9 74.8 13.73C74.46 14.43 73.68 15.2 72.8 15.66L71.62 14.81C72.33 14.53 73.04 13.96 73.43 13.37C73.93 12.61 74.07 11.67 74.07 10.6L75.46 10.59ZM80.3643 12.16C81.6743 11.87 83.1543 11.2 83.9443 10.72C84.9243 10.13 85.9243 9.24 86.4443 8.59L87.4343 9.56C86.8343 10.21 85.6243 11.15 84.5343 11.79C83.6343 12.32 82.0943 12.99 80.9543 13.33L80.3643 12.16ZM83.8343 11.51L85.1943 11.25V14.8C85.1943 15.16 85.2043 15.69 85.2643 15.89H83.7743C83.8043 15.69 83.8343 15.16 83.8343 14.8V11.51ZM97.2943 6.58C97.5443 6.96 97.8743 7.53 98.0543 7.9L97.2243 8.25C97.0243 7.83 96.7243 7.32 96.4643 6.92L97.2943 6.58ZM98.6843 6.32C98.9443 6.69 99.2943 7.29 99.4843 7.65L98.6543 8C98.4443 7.59 98.1343 7.03 97.8543 6.66L98.6843 6.32ZM98.3243 8.46C98.2343 8.65 98.1543 8.94 98.1043 9.15C97.8743 10.13 97.4343 11.69 96.6043 12.8C95.6943 14 94.3643 14.99 92.5843 15.56L91.4943 14.36C93.4743 13.9 94.6043 13.03 95.4043 12.02C96.0743 11.19 96.4543 10.05 96.5843 9.19C95.9843 9.19 92.6743 9.19 91.9243 9.19C91.4743 9.19 90.9943 9.22 90.7343 9.24V7.82C91.0343 7.86 91.5943 7.91 91.9243 7.91C92.6743 7.91 95.9943 7.91 96.5543 7.91C96.7543 7.91 97.0743 7.9 97.3343 7.83L98.3243 8.46ZM104.574 8.01C105.804 8.18 107.804 8.13 108.874 8V9.29C107.654 9.41 105.834 9.41 104.584 9.29L104.574 8.01ZM105.374 12.28C105.294 12.62 105.254 12.86 105.254 13.12C105.254 13.57 105.644 13.84 106.664 13.84C107.554 13.84 108.294 13.76 109.164 13.57L109.194 14.92C108.544 15.05 107.734 15.12 106.604 15.12C104.884 15.12 104.054 14.5 104.054 13.48C104.054 13.08 104.114 12.69 104.234 12.18L105.374 12.28ZM103.034 7.34C102.964 7.55 102.834 8.06 102.794 8.24C102.654 8.9 102.304 10.9 102.304 11.9C102.304 12.1 102.314 12.35 102.344 12.55C102.494 12.21 102.654 11.87 102.804 11.53L103.424 12.02C103.134 12.86 102.804 13.94 102.704 14.47C102.674 14.62 102.644 14.84 102.644 14.94C102.654 15.05 102.654 15.22 102.664 15.36L101.514 15.43C101.314 14.75 101.124 13.53 101.124 12.17C101.124 10.66 101.424 8.98 101.534 8.2C101.574 7.93 101.624 7.55 101.634 7.23L103.034 7.34ZM111.074 7.37H119.964V8.48H111.074V7.37ZM114.874 6.51H116.114V7.83H114.874V6.51ZM116.214 7.82H117.384V10.28C117.384 10.8 117.304 11.08 116.944 11.25C116.604 11.42 116.144 11.43 115.544 11.43C115.494 11.11 115.354 10.68 115.214 10.37C115.564 10.38 115.944 10.38 116.064 10.38C116.184 10.38 116.214 10.36 116.214 10.25V7.82ZM114.184 7.67H115.304V8.46C115.304 9.51 115.134 10.87 113.654 11.8C113.474 11.55 113.054 11.16 112.784 10.98C114.044 10.24 114.184 9.22 114.184 8.43V7.67ZM117.664 9.31L118.594 8.77C119.164 9.33 119.864 10.12 120.184 10.66L119.184 11.26C118.904 10.72 118.234 9.9 117.664 9.31ZM112.354 8.81L113.474 9.11C113.054 9.9 112.394 10.71 111.694 11.19C111.484 10.98 111.104 10.66 110.864 10.5C111.504 10.1 112.084 9.41 112.354 8.81ZM114.014 12.42C115.034 13.92 117.214 14.62 120.264 14.77C120.014 15.05 119.714 15.56 119.564 15.9C116.354 15.63 114.254 14.73 112.944 12.76L114.014 12.42ZM114.264 11.08L115.514 11.32C114.704 12.48 113.564 13.4 111.834 14.1C111.674 13.82 111.334 13.39 111.084 13.21C112.684 12.68 113.724 11.89 114.264 11.08ZM114.244 11.81H117.784V12.76H113.404L114.244 11.81ZM117.454 11.81H117.714L117.914 11.77L118.694 12.29C117.404 14.61 114.524 15.56 111.354 15.92C111.254 15.63 110.994 15.1 110.784 14.85C113.854 14.61 116.494 13.83 117.454 12V11.81ZM125.874 6.49L126.984 6.66C126.554 7.74 125.924 8.76 124.824 9.58C124.654 9.33 124.284 8.99 124.034 8.84C125.004 8.19 125.594 7.3 125.874 6.49ZM126.154 7.22H128.114V8.14H125.604L126.154 7.22ZM126.314 9.54H127.164C127.094 10.51 126.884 11.19 126.004 11.61C125.904 11.4 125.674 11.11 125.494 10.97C126.134 10.69 126.284 10.23 126.314 9.54ZM127.544 9.58H128.414V10.4C128.414 10.58 128.424 10.6 128.574 10.6C128.634 10.6 128.884 10.6 128.954 10.6C129.074 10.6 129.114 10.57 129.134 10.48C129.294 10.6 129.634 10.72 129.874 10.76C129.784 11.2 129.544 11.34 129.084 11.34C128.944 11.34 128.574 11.34 128.434 11.34C127.694 11.34 127.544 11.13 127.544 10.4V9.58ZM124.244 12.5H130.474V13.49H124.244V12.5ZM127.964 12.83C128.314 13.97 129.114 14.65 130.634 14.88C130.384 15.1 130.094 15.57 129.954 15.87C128.184 15.5 127.374 14.56 126.924 12.94L127.964 12.83ZM125.684 8.86H129.384V9.8H125.684V12.19H124.684V8.86H125.684ZM129.124 8.86H130.144V12.17H129.124V8.86ZM127.724 7.22H127.964L128.134 7.18L128.894 7.66C128.604 8.27 128.124 9.04 127.754 9.53C127.534 9.37 127.184 9.15 126.944 9.03C127.244 8.58 127.574 7.86 127.724 7.42V7.22ZM126.794 11.68H127.884C127.734 13.94 127.284 15.26 124.384 15.93C124.284 15.65 124.014 15.22 123.794 15C126.394 14.5 126.674 13.51 126.794 11.68ZM121.104 11.54C121.904 11.36 123.094 11.04 124.224 10.72L124.384 11.8C123.354 12.12 122.254 12.44 121.374 12.69L121.104 11.54ZM121.264 8.41H124.324V9.51H121.264V8.41ZM122.324 6.52H123.424V14.63C123.424 15.19 123.324 15.5 123.014 15.68C122.714 15.87 122.284 15.91 121.634 15.91C121.604 15.61 121.464 15.12 121.324 14.79C121.684 14.81 122.034 14.81 122.154 14.8C122.274 14.8 122.324 14.77 122.324 14.63V6.52Z" fill="white"/>
</g>
<defs>
<filter id="filter0_d_1005_10477" x="0" y="0" width="149" height="24" filterUnits="userSpaceOnUse" color-interpolation-filters="sRGB">
<feFlood flood-opacity="0" result="BackgroundImageFix"/>
<feColorMatrix in="SourceAlpha" type="matrix" values="0 0 0 0 0 0 0 0 0 0 0 0 0 0 0 0 0 0 127 0" result="hardAlpha"/>
<feOffset dy="1"/>
<feGaussianBlur stdDeviation="0.5"/>
<feComposite in2="hardAlpha" operator="out"/>
<feColorMatrix type="matrix" values="0 0 0 0 0 0 0 0 0 0 0 0 0 0 0 0 0 0 0.25 0"/>
<feBlend mode="normal" in2="BackgroundImageFix" result="effect1_dropShadow_1005_10477"/>
<feBlend mode="normal" in="SourceGraphic" in2="effect1_dropShadow_1005_10477" result="shape"/>
</filter>
</defs>
</svg>
