<svg width="189" height="146" viewBox="0 0 189 146" fill="none" xmlns="http://www.w3.org/2000/svg">
<mask id="path-1-inside-1_1638_10520" fill="white">
<path d="M8 13C8 10.2386 10.2386 8 13 8H176C178.761 8 181 10.2386 181 13V146H8V13Z"/>
</mask>
<path d="M8 13C8 10.2386 10.2386 8 13 8H176C178.761 8 181 10.2386 181 13V146H8V13Z" fill="#EEFEFF"/>
<path d="M7 13C7 9.68629 9.68629 7 13 7H176C179.314 7 182 9.68629 182 13H180C180 10.7909 178.209 9 176 9H13C10.7909 9 9 10.7909 9 13H7ZM181 146H8H181ZM7 146V13C7 9.68629 9.68629 7 13 7V9C10.7909 9 9 10.7909 9 13V146H7ZM176 7C179.314 7 182 9.68629 182 13V146H180V13C180 10.7909 178.209 9 176 9V7Z" fill="#D9D9D9" mask="url(#path-1-inside-1_1638_10520)"/>
<path d="M9 13.1367C9 10.9276 10.7909 9.13672 13 9.13672H176C178.209 9.13672 180 10.9276 180 13.1367V31.4709H9V13.1367Z" fill="#04CAD6"/>
<rect x="18.5" y="13.6973" width="25.4615" height="12.4005" rx="4.5" fill="#04CAD6"/>
<rect x="18.5" y="13.6973" width="25.4615" height="12.4005" rx="4.5" stroke="white"/>
<path d="M22.6464 20.5508C22.4512 20.3556 22.4512 20.039 22.6464 19.8437L25.8284 16.6617C26.0237 16.4665 26.3403 16.4665 26.5355 16.6617C26.7308 16.857 26.7308 17.1736 26.5355 17.3688L23.7071 20.1973L26.5355 23.0257C26.7308 23.221 26.7308 23.5375 26.5355 23.7328C26.3403 23.9281 26.0237 23.9281 25.8284 23.7328L22.6464 20.5508ZM24 20.6973L23 20.6973L23 19.6973L24 19.6973L24 20.6973Z" fill="white"/>
<path d="M31.76 20.0453H34.724V20.3133H31.76V20.0453ZM33.376 20.1933C33.576 20.8093 34.056 21.1413 34.864 21.2533C34.796 21.3173 34.716 21.4413 34.68 21.5213C33.824 21.3653 33.34 20.9773 33.1 20.2453L33.376 20.1933ZM33.044 19.5333H33.348C33.28 20.6053 33.08 21.2373 31.812 21.5293C31.784 21.4573 31.704 21.3413 31.648 21.2853C32.832 21.0333 32.984 20.4893 33.044 19.5333ZM31.596 18.6293H31.896V19.4493C31.896 20.0413 31.82 20.8813 31.372 21.4533C31.32 21.4013 31.188 21.3173 31.112 21.2853C31.548 20.7493 31.596 19.9893 31.596 19.4413V18.6293ZM31.744 18.6293H34.488V19.5733H31.744V19.3333H34.192V18.8653H31.744V18.6293ZM31.32 18.0613H34.7V18.3373H31.32V18.0613ZM35.952 18.2533C36.04 18.2613 36.152 18.2653 36.232 18.2653C36.444 18.2653 37.392 18.2373 37.604 18.2173C37.724 18.2053 37.78 18.1973 37.824 18.1813L38.008 18.4173C37.936 18.4653 37.856 18.5173 37.78 18.5773C37.584 18.7293 37.04 19.1973 36.728 19.4533C36.912 19.3933 37.104 19.3733 37.284 19.3733C37.948 19.3733 38.424 19.7693 38.424 20.3093C38.424 20.9533 37.892 21.3733 37.044 21.3733C36.5 21.3733 36.168 21.1373 36.168 20.8013C36.168 20.5293 36.416 20.2813 36.784 20.2813C37.316 20.2813 37.584 20.6573 37.612 21.0613L37.324 21.1093C37.3 20.7693 37.104 20.5253 36.784 20.5253C36.6 20.5253 36.46 20.6373 36.46 20.7773C36.46 20.9733 36.68 21.0893 36.996 21.0893C37.676 21.0893 38.104 20.8093 38.104 20.3093C38.104 19.9133 37.728 19.6213 37.204 19.6213C36.54 19.6213 36.18 19.9013 35.676 20.4173L35.444 20.1853C35.776 19.9133 36.292 19.4813 36.52 19.2853C36.744 19.1013 37.248 18.6813 37.448 18.5013C37.236 18.5133 36.436 18.5453 36.228 18.5573C36.136 18.5653 36.048 18.5693 35.96 18.5813L35.952 18.2533Z" fill="white"/>
<path d="M68.352 23.2129V22.7889C70.192 21.1809 71.032 20.0049 71.032 19.0049C71.032 18.3329 70.688 17.8369 69.96 17.8369C69.48 17.8369 69.064 18.1329 68.736 18.5169L68.312 18.1089C68.792 17.5889 69.304 17.2449 70.048 17.2449C71.096 17.2449 71.752 17.9249 71.752 18.9729C71.752 20.1489 70.832 21.3409 69.448 22.6449C69.76 22.6129 70.112 22.5889 70.408 22.5889H72.032V23.2129H68.352ZM74.6615 23.3249C73.5415 23.3249 72.8295 22.3089 72.8295 20.2609C72.8295 18.2289 73.5415 17.2449 74.6615 17.2449C75.7655 17.2449 76.4775 18.2289 76.4775 20.2609C76.4775 22.3089 75.7655 23.3249 74.6615 23.3249ZM74.6615 22.7329C75.3255 22.7329 75.7735 21.9889 75.7735 20.2609C75.7735 18.5569 75.3255 17.8289 74.6615 17.8289C73.9895 17.8289 73.5335 18.5569 73.5335 20.2609C73.5335 21.9889 73.9895 22.7329 74.6615 22.7329ZM77.227 23.2129V22.7889C79.067 21.1809 79.907 20.0049 79.907 19.0049C79.907 18.3329 79.563 17.8369 78.835 17.8369C78.355 17.8369 77.939 18.1329 77.611 18.5169L77.187 18.1089C77.667 17.5889 78.179 17.2449 78.923 17.2449C79.971 17.2449 80.627 17.9249 80.627 18.9729C80.627 20.1489 79.707 21.3409 78.323 22.6449C78.635 22.6129 78.987 22.5889 79.283 22.5889H80.907V23.2129H77.227ZM83.4165 23.3249C82.4965 23.3249 81.9285 22.9409 81.5445 22.5169L81.9125 22.0369C82.2565 22.3969 82.6965 22.7169 83.3685 22.7169C84.0645 22.7169 84.5605 22.2929 84.5605 21.6209C84.5605 20.9169 84.0885 20.4529 82.7365 20.4529V19.8849C83.9445 19.8849 84.3525 19.4049 84.3525 18.7649C84.3525 18.2049 83.9765 17.8369 83.3685 17.8369C82.8965 17.8369 82.4805 18.0769 82.1525 18.4129L81.7605 17.9409C82.2005 17.5409 82.7205 17.2449 83.3925 17.2449C84.3765 17.2449 85.0965 17.7809 85.0965 18.7169C85.0965 19.4289 84.6805 19.9009 84.0565 20.1249V20.1569C84.7445 20.3249 85.3045 20.8449 85.3045 21.6529C85.3045 22.6929 84.4645 23.3249 83.4165 23.3249ZM85.838 24.6449L88.238 16.8609H88.758L86.366 24.6449H85.838ZM89.5868 23.2129V22.6049H90.8908V18.2369H89.8428V17.7649C90.3708 17.6769 90.7468 17.5409 91.0588 17.3489H91.6188V22.6049H92.8028V23.2129H89.5868ZM95.5443 23.3249C94.4243 23.3249 93.7123 22.3089 93.7123 20.2609C93.7123 18.2289 94.4243 17.2449 95.5443 17.2449C96.6483 17.2449 97.3603 18.2289 97.3603 20.2609C97.3603 22.3089 96.6483 23.3249 95.5443 23.3249ZM95.5443 22.7329C96.2083 22.7329 96.6563 21.9889 96.6563 20.2609C96.6563 18.5569 96.2083 17.8289 95.5443 17.8289C94.8723 17.8289 94.4163 18.5569 94.4163 20.2609C94.4163 21.9889 94.8723 22.7329 95.5443 22.7329ZM97.8458 24.6449L100.246 16.8609H100.766L98.3738 24.6449H97.8458ZM101.595 23.2129V22.6049H102.899V18.2369H101.851V17.7649C102.379 17.6769 102.755 17.5409 103.067 17.3489H103.627V22.6049H104.811V23.2129H101.595ZM107.552 23.3249C106.432 23.3249 105.72 22.3089 105.72 20.2609C105.72 18.2289 106.432 17.2449 107.552 17.2449C108.656 17.2449 109.368 18.2289 109.368 20.2609C109.368 22.3089 108.656 23.3249 107.552 23.3249ZM107.552 22.7329C108.216 22.7329 108.664 21.9889 108.664 20.2609C108.664 18.5569 108.216 17.8289 107.552 17.8289C106.88 17.8289 106.424 18.5569 106.424 20.2609C106.424 21.9889 106.88 22.7329 107.552 22.7329ZM111.678 24.7889C110.934 23.5889 110.494 22.3089 110.494 20.7329C110.494 19.1649 110.934 17.8689 111.678 16.6689L112.126 16.8849C111.438 18.0209 111.102 19.3729 111.102 20.7329C111.102 22.0929 111.438 23.4449 112.126 24.5809L111.678 24.7889ZM114.077 18.1169L114.669 18.2449C114.533 19.2049 114.261 20.1809 113.549 20.7249L113.029 20.3729C113.669 19.8849 113.949 19.0129 114.077 18.1169ZM119.101 18.1089L119.749 18.3649C119.357 19.1169 118.845 20.0209 118.437 20.5969L117.933 20.3649C118.325 19.7729 118.829 18.8049 119.101 18.1089ZM116.429 16.6129H116.749V19.2049C116.749 20.1249 117.317 22.3329 120.093 23.3089C119.965 23.4449 119.781 23.6929 119.693 23.8689C117.373 22.9809 116.589 21.1409 116.429 20.3649C116.269 21.1489 115.541 22.9329 113.269 23.8689C113.189 23.7329 112.989 23.4929 112.853 23.3649C115.549 22.3409 116.109 20.1329 116.109 19.2049V16.6129H116.429ZM121.261 24.7889L120.805 24.5809C121.493 23.4449 121.829 22.0929 121.829 20.7329C121.829 19.3729 121.493 18.0209 120.805 16.8849L121.261 16.6689C121.997 17.8689 122.437 19.1649 122.437 20.7329C122.437 22.3089 121.997 23.5889 121.261 24.7889Z" fill="white"/>
<path d="M158.513 23.2275V22.8565C160.123 21.4495 160.858 20.4205 160.858 19.5455C160.858 18.9575 160.557 18.5235 159.92 18.5235C159.5 18.5235 159.136 18.7825 158.849 19.1185L158.478 18.7615C158.898 18.3065 159.346 18.0055 159.997 18.0055C160.914 18.0055 161.488 18.6005 161.488 19.5175C161.488 20.5465 160.683 21.5895 159.472 22.7305C159.745 22.7025 160.053 22.6815 160.312 22.6815H161.733V23.2275H158.513ZM163.915 23.3255C163.117 23.3255 162.627 22.9895 162.277 22.6395L162.599 22.2195C162.886 22.5205 163.264 22.7935 163.852 22.7935C164.461 22.7935 164.944 22.3245 164.944 21.5825C164.944 20.8475 164.524 20.4065 163.887 20.4065C163.544 20.4065 163.327 20.5185 163.033 20.7145L162.69 20.4975L162.851 18.0965H165.35V18.6425H163.411L163.278 20.1265C163.509 20.0005 163.74 19.9235 164.048 19.9235C164.902 19.9235 165.595 20.4275 165.595 21.5615C165.595 22.6815 164.776 23.3255 163.915 23.3255ZM167.28 19.8885C166.755 19.8885 166.293 19.4965 166.293 18.8945C166.293 18.2785 166.755 17.8865 167.28 17.8865C167.805 17.8865 168.267 18.2785 168.267 18.8945C168.267 19.4965 167.805 19.8885 167.28 19.8885ZM167.28 19.5245C167.623 19.5245 167.875 19.2585 167.875 18.8945C167.875 18.5165 167.623 18.2505 167.28 18.2505C166.93 18.2505 166.692 18.5165 166.692 18.8945C166.692 19.2585 166.93 19.5245 167.28 19.5245ZM171.116 23.3255C169.814 23.3255 168.862 22.3455 168.862 20.6795C168.862 19.0205 169.835 18.0195 171.144 18.0195C171.76 18.0195 172.25 18.3205 172.551 18.6495L172.18 19.0695C171.907 18.7825 171.578 18.6005 171.158 18.6005C170.185 18.6005 169.555 19.3915 169.555 20.6585C169.555 21.9395 170.157 22.7305 171.13 22.7305C171.613 22.7305 171.97 22.5345 172.292 22.1775L172.67 22.5835C172.264 23.0595 171.76 23.3255 171.116 23.3255Z" fill="white"/>
<path d="M143.709 15.2275V16.649M147.04 16.6234L146.047 17.6285M148.418 19.9968H147.014M147.04 23.3702L146.047 22.3652M143.709 24.7661V23.3446M140.378 23.3702L141.371 22.3652M139 19.9968H140.403M140.378 16.6234L141.371 17.6285M143.709 17.4377C144.209 17.4377 144.697 17.5878 145.113 17.869C145.528 18.1502 145.852 18.5499 146.043 19.0175C146.234 19.4851 146.285 19.9997 146.187 20.4961C146.09 20.9925 145.849 21.4485 145.496 21.8064C145.142 22.1643 144.692 22.408 144.202 22.5068C143.712 22.6055 143.204 22.5548 142.742 22.3611C142.28 22.1674 141.886 21.8394 141.608 21.4186C141.33 20.9977 141.182 20.503 141.182 19.9968C141.182 19.3181 141.448 18.6672 141.922 18.1872C142.396 17.7073 143.039 17.4377 143.709 17.4377Z" stroke="white" stroke-width="0.520833" stroke-linecap="round" stroke-linejoin="round"/>
<path d="M146.155 20.0737C146.155 21.5538 145.174 22.3743 143.85 22.5976C142.389 22.5976 141.204 21.5538 141.204 20.0737C141.204 18.5935 142.389 17.3936 143.85 17.3936C145.312 17.3936 146.155 18.5935 146.155 20.0737Z" fill="white"/>
<mask id="path-11-inside-2_1638_10520" fill="white">
<path d="M0 8C0 3.58173 3.58172 0 8 0H181C185.418 0 189 3.58172 189 8V146H0V8Z"/>
</mask>
<path d="M-3 8C-3 1.92487 1.92487 -3 8 -3H181C187.075 -3 192 1.92487 192 8H186C186 5.23858 183.761 3 181 3H8C5.23858 3 3 5.23858 3 8H-3ZM189 146H0H189ZM-3 146V8C-3 1.92487 1.92487 -3 8 -3V3C5.23858 3 3 5.23858 3 8V146H-3ZM181 -3C187.075 -3 192 1.92487 192 8V146H186V8C186 5.23858 183.761 3 181 3V-3Z" fill="#A29C9C" fill-opacity="0.5" mask="url(#path-11-inside-2_1638_10520)"/>
<g filter="url(#filter0_d_1638_10520)">
<mask id="path-13-inside-3_1638_10520" fill="white">
<path d="M9 30H180V94H9V30Z"/>
</mask>
<path d="M9 30H180V94H9V30Z" fill="white"/>
<path d="M9 30.4326H180V29.5674H9V30.4326Z" fill="#04CAD6" mask="url(#path-13-inside-3_1638_10520)"/>
</g>
<mask id="mask0_1638_10520" style="mask-type:alpha" maskUnits="userSpaceOnUse" x="144" y="30" width="37" height="61">
<rect x="144" y="30" width="36.3628" height="60.911" fill="#D9D9D9"/>
</mask>
<g mask="url(#mask0_1638_10520)">
<g clip-path="url(#clip0_1638_10520)">
<path d="M151.66 59.4706C151.486 51.9783 150.661 47.5933 152.283 45.3059C153.905 43.0184 160.796 50.78 160.796 50.78L165.62 47.7858C165.62 47.7858 167.426 34.2064 169.476 33.8558C171.527 33.5052 176.613 43.529 176.613 43.529C183.48 46.2926 186.38 48.4959 189.737 53.7161C189.737 53.7161 188.753 46.8023 192.119 49.7441C196.014 53.1478 194.305 59.1812 194.448 60.6517C194.511 61.304 195.038 62.1714 195.5 63.3231C195.591 63.5492 195.943 63.9094 197.734 61.3325C199.525 58.7556 199.978 58.0446 200.884 57.5216C201.79 56.9985 205.498 57.4442 200.762 62.6907C196.026 67.9373 196.189 66.0101 196.207 66.3887C196.94 67.6583 195.712 73.3717 194.955 74.1536C194.955 74.1536 197.363 81.9097 194.645 83.4788C191.927 85.048 187.664 80.9519 187.664 80.9519C185.15 82.5758 186.28 82.441 182.596 83.5325C182.596 83.5325 186.47 88.1985 183.933 89.6635C181.185 91.25 171.213 86.1465 171.213 86.1465C169.115 86.4842 162.058 82.6306 160.416 80.8857C160.416 80.8857 159.007 88.4311 157.165 84.2479C155.422 80.2901 157.398 75.6579 155.978 73.1988C154.558 70.7398 151.834 66.963 151.66 59.4706Z" fill="#FFFAC9"/>
<circle cx="164.899" cy="59.755" r="1.04611" transform="rotate(-30 164.899 59.755)" fill="#EEEEEE"/>
<circle cx="172.147" cy="55.5704" r="1.04611" transform="rotate(-30 172.147 55.5704)" fill="#EEEEEE"/>
<path d="M171.556 61.9503C172.103 61.6346 172.353 61.2928 172.449 60.9221C172.55 60.5344 172.497 60.0661 172.332 59.4733C172.288 59.3135 172.092 59.2249 171.923 59.3228L168.77 61.1429C168.6 61.2414 168.585 61.4478 168.695 61.5568C169.222 62.0802 169.66 62.319 170.08 62.3704C170.5 62.422 170.962 62.2931 171.556 61.9503Z" fill="white" stroke="#EEEEEE" stroke-width="0.597778"/>
</g>
</g>
<path d="M19.8514 39.6066C20.1023 39.6326 20.3532 39.6499 20.6387 39.6499C21.1405 39.6499 23.658 39.6499 24.1425 39.6499C24.3847 39.6499 24.6962 39.6326 24.9471 39.6066V40.3247C24.6875 40.3074 24.3847 40.2901 24.1425 40.2901C23.658 40.2901 21.1405 40.2901 20.6473 40.2901C20.3618 40.2901 20.0763 40.3074 19.8514 40.3247V39.6066ZM18.8219 41.7781C19.0555 41.8041 19.3064 41.8127 19.5746 41.8127C20.0763 41.8127 24.774 41.8127 25.2326 41.8127C25.4142 41.8127 25.6997 41.8041 25.916 41.7781V42.4875C25.717 42.4789 25.4489 42.4702 25.2326 42.4702C24.774 42.4702 20.0763 42.4702 19.5746 42.4702C19.315 42.4702 19.0555 42.4789 18.8219 42.4962V41.7781ZM22.8967 42.1242C22.8967 43.2142 22.7583 44.114 22.369 44.8407C22.0575 45.4204 21.4 46.0346 20.6733 46.4153L20.0331 45.9481C20.6992 45.6626 21.3221 45.1695 21.6595 44.6158C22.0921 43.9323 22.1613 43.0845 22.17 42.1328L22.8967 42.1242ZM30.0341 39.8835C29.9908 39.6672 29.9389 39.4768 29.8784 39.2952L30.6483 39.1654C30.6656 39.3211 30.7003 39.572 30.7349 39.7623C30.7868 40.143 31.7384 44.8926 31.8595 45.4636C31.9201 45.7059 31.9893 46 32.0758 46.2509L31.2799 46.398C31.2366 46.1038 31.2107 45.8356 31.1501 45.5847C31.0636 45.0397 30.1379 40.3333 30.0341 39.8835ZM27.5944 41.1379C27.8107 41.1206 28.0443 41.1033 28.3211 41.0774C29.0997 40.9908 32.0845 40.515 32.9064 40.3506C33.1573 40.3074 33.3822 40.2555 33.5293 40.2122L33.6677 40.9389C33.5379 40.9476 33.2784 40.9908 33.0448 41.0254C32.1537 41.1639 29.2036 41.631 28.4422 41.7608C28.2087 41.8041 28.001 41.8473 27.7501 41.9079L27.5944 41.1379ZM27.5684 43.6295C27.7761 43.6209 28.1048 43.5863 28.3298 43.5517C29.2555 43.4305 32.4738 42.9028 33.512 42.7125C33.8407 42.6519 34.0916 42.5913 34.2733 42.5394L34.4204 43.2662C34.2387 43.2835 33.9618 43.3354 33.6417 43.3873C32.4911 43.5603 29.3679 44.0707 28.4941 44.2265C28.1567 44.287 27.9145 44.3389 27.7242 44.3908L27.5684 43.6295ZM41.9534 40.2209C41.9015 40.2901 41.789 40.4804 41.7457 40.5929C41.3997 41.4494 40.7422 42.6606 40.0241 43.4565C39.0551 44.5379 37.818 45.5674 36.4511 46.1903L35.8974 45.6107C37.2989 45.0743 38.5707 44.0361 39.4618 43.0499C40.0501 42.3837 40.6816 41.3542 40.9065 40.6361C40.5951 40.6361 37.8266 40.6361 37.5325 40.6361C37.221 40.6361 36.7539 40.6707 36.6587 40.6794V39.9008C36.7712 39.9181 37.2643 39.9527 37.5325 39.9527C37.8699 39.9527 40.5432 39.9527 40.8719 39.9527C41.1488 39.9527 41.3824 39.9267 41.5208 39.8835L41.9534 40.2209ZM40.1366 43.0066C41.0709 43.7852 42.2216 44.9964 42.8098 45.7145L42.2129 46.2422C41.59 45.4204 40.5778 44.313 39.6434 43.4911L40.1366 43.0066ZM46.5992 45.2387C46.5992 44.7542 46.5992 40.9303 46.5992 40.2122C46.5992 39.9613 46.5819 39.5807 46.5386 39.3038H47.3864C47.3518 39.572 47.3259 39.944 47.3259 40.2122C47.3259 41.5532 47.3345 44.8321 47.3345 45.2387C47.3345 45.5155 47.3518 45.9827 47.3864 46.2682H46.5473C46.5905 45.9913 46.5992 45.5588 46.5992 45.2387ZM47.1702 41.5791C48.3121 41.9079 50.0597 42.574 51.02 43.0412L50.7172 43.7766C49.731 43.2489 48.1132 42.6346 47.1702 42.3405V41.5791ZM54.1951 39.6066C54.446 39.6326 54.6969 39.6499 54.9824 39.6499C55.4841 39.6499 58.0017 39.6499 58.4862 39.6499C58.7284 39.6499 59.0399 39.6326 59.2908 39.6066V40.3247C59.0312 40.3074 58.7284 40.2901 58.4862 40.2901C58.0017 40.2901 55.4841 40.2901 54.991 40.2901C54.7055 40.2901 54.42 40.3074 54.1951 40.3247V39.6066ZM53.1656 41.7781C53.3992 41.8041 53.6501 41.8127 53.9182 41.8127C54.42 41.8127 59.1177 41.8127 59.5763 41.8127C59.7579 41.8127 60.0434 41.8041 60.2597 41.7781V42.4875C60.0607 42.4789 59.7925 42.4702 59.5763 42.4702C59.1177 42.4702 54.42 42.4702 53.9182 42.4702C53.6587 42.4702 53.3992 42.4789 53.1656 42.4962V41.7781ZM57.2404 42.1242C57.2404 43.2142 57.102 44.114 56.7126 44.8407C56.4012 45.4204 55.7437 46.0346 55.017 46.4153L54.3768 45.9481C55.0429 45.6626 55.6658 45.1695 56.0032 44.6158C56.4358 43.9323 56.505 43.0845 56.5137 42.1328L57.2404 42.1242ZM64.3778 39.8835C64.3345 39.6672 64.2826 39.4768 64.2221 39.2952L64.992 39.1654C65.0093 39.3211 65.0439 39.572 65.0786 39.7623C65.1305 40.143 66.0821 44.8926 66.2032 45.4636C66.2638 45.7059 66.333 46 66.4195 46.2509L65.6236 46.398C65.5803 46.1038 65.5544 45.8356 65.4938 45.5847C65.4073 45.0397 64.4816 40.3333 64.3778 39.8835ZM61.9381 41.1379C62.1544 41.1206 62.388 41.1033 62.6648 41.0774C63.4434 40.9908 66.4282 40.515 67.2501 40.3506C67.5009 40.3074 67.7259 40.2555 67.873 40.2122L68.0114 40.9389C67.8816 40.9476 67.6221 40.9908 67.3885 41.0254C66.4974 41.1639 63.5473 41.631 62.7859 41.7608C62.5523 41.8041 62.3447 41.8473 62.0938 41.9079L61.9381 41.1379ZM61.9121 43.6295C62.1198 43.6209 62.4485 43.5863 62.6735 43.5517C63.5992 43.4305 66.8175 42.9028 67.8557 42.7125C68.1844 42.6519 68.4353 42.5913 68.617 42.5394L68.764 43.2662C68.5824 43.2835 68.3055 43.3354 67.9854 43.3873C66.8348 43.5603 63.7116 44.0707 62.8378 44.2265C62.5004 44.287 62.2582 44.3389 62.0679 44.3908L61.9121 43.6295ZM76.2971 40.2209C76.2451 40.2901 76.1327 40.4804 76.0894 40.5929C75.7434 41.4494 75.0859 42.6606 74.3678 43.4565C73.3988 44.5379 72.1617 45.5674 70.7948 46.1903L70.2411 45.6107C71.6426 45.0743 72.9144 44.0361 73.8054 43.0499C74.3937 42.3837 75.0253 41.3542 75.2502 40.6361C74.9388 40.6361 72.1703 40.6361 71.8762 40.6361C71.5647 40.6361 71.0976 40.6707 71.0024 40.6794V39.9008C71.1149 39.9181 71.608 39.9527 71.8762 39.9527C72.2136 39.9527 74.8869 39.9527 75.2156 39.9527C75.4925 39.9527 75.7261 39.9267 75.8645 39.8835L76.2971 40.2209ZM74.4803 43.0066C75.4146 43.7852 76.5652 44.9964 77.1535 45.7145L76.5566 46.2422C75.9337 45.4204 74.9215 44.313 73.9871 43.4911L74.4803 43.0066ZM80.9429 45.2387C80.9429 44.7542 80.9429 40.9303 80.9429 40.2122C80.9429 39.9613 80.9255 39.5807 80.8823 39.3038H81.7301C81.6955 39.572 81.6696 39.944 81.6696 40.2122C81.6696 41.5532 81.6782 44.8321 81.6782 45.2387C81.6782 45.5155 81.6955 45.9827 81.7301 46.2682H80.8909C80.9342 45.9913 80.9429 45.5588 80.9429 45.2387ZM81.5138 41.5791C82.6558 41.9079 84.4034 42.574 85.3637 43.0412L85.0609 43.7766C84.0747 43.2489 82.4568 42.6346 81.5138 42.3405V41.5791ZM88.5388 39.6066C88.7897 39.6326 89.0406 39.6499 89.3261 39.6499C89.8278 39.6499 92.3454 39.6499 92.8299 39.6499C93.0721 39.6499 93.3836 39.6326 93.6345 39.6066V40.3247C93.3749 40.3074 93.0721 40.2901 92.8299 40.2901C92.3454 40.2901 89.8278 40.2901 89.3347 40.2901C89.0492 40.2901 88.7637 40.3074 88.5388 40.3247V39.6066ZM87.5093 41.7781C87.7428 41.8041 87.9937 41.8127 88.2619 41.8127C88.7637 41.8127 93.4614 41.8127 93.9199 41.8127C94.1016 41.8127 94.3871 41.8041 94.6034 41.7781V42.4875C94.4044 42.4789 94.1362 42.4702 93.9199 42.4702C93.4614 42.4702 88.7637 42.4702 88.2619 42.4702C88.0024 42.4702 87.7428 42.4789 87.5093 42.4962V41.7781ZM91.5841 42.1242C91.5841 43.2142 91.4456 44.114 91.0563 44.8407C90.7449 45.4204 90.0874 46.0346 89.3607 46.4153L88.7205 45.9481C89.3866 45.6626 90.0095 45.1695 90.3469 44.6158C90.7795 43.9323 90.8487 43.0845 90.8574 42.1328L91.5841 42.1242ZM98.7215 39.8835C98.6782 39.6672 98.6263 39.4768 98.5658 39.2952L99.3357 39.1654C99.353 39.3211 99.3876 39.572 99.4222 39.7623C99.4742 40.143 100.426 44.8926 100.547 45.4636C100.607 45.7059 100.677 46 100.763 46.2509L99.9673 46.398C99.924 46.1038 99.8981 45.8356 99.8375 45.5847C99.751 45.0397 98.8253 40.3333 98.7215 39.8835ZM96.2818 41.1379C96.4981 41.1206 96.7317 41.1033 97.0085 41.0774C97.7871 40.9908 100.772 40.515 101.594 40.3506C101.845 40.3074 102.07 40.2555 102.217 40.2122L102.355 40.9389C102.225 40.9476 101.966 40.9908 101.732 41.0254C100.841 41.1639 97.8909 41.631 97.1296 41.7608C96.896 41.8041 96.6884 41.8473 96.4375 41.9079L96.2818 41.1379ZM96.2558 43.6295C96.4635 43.6209 96.7922 43.5863 97.0172 43.5517C97.9429 43.4305 101.161 42.9028 102.199 42.7125C102.528 42.6519 102.779 42.5913 102.961 42.5394L103.108 43.2662C102.926 43.2835 102.649 43.3354 102.329 43.3873C101.178 43.5603 98.0553 44.0707 97.1815 44.2265C96.8441 44.287 96.6019 44.3389 96.4116 44.3908L96.2558 43.6295ZM110.641 40.2209C110.589 40.2901 110.476 40.4804 110.433 40.5929C110.087 41.4494 109.43 42.6606 108.711 43.4565C107.743 44.5379 106.505 45.5674 105.138 46.1903L104.585 45.6107C105.986 45.0743 107.258 44.0361 108.149 43.0499C108.737 42.3837 109.369 41.3542 109.594 40.6361C109.282 40.6361 106.514 40.6361 106.22 40.6361C105.908 40.6361 105.441 40.6707 105.346 40.6794V39.9008C105.459 39.9181 105.952 39.9527 106.22 39.9527C106.557 39.9527 109.231 39.9527 109.559 39.9527C109.836 39.9527 110.07 39.9267 110.208 39.8835L110.641 40.2209ZM108.824 43.0066C109.758 43.7852 110.909 44.9964 111.497 45.7145L110.9 46.2422C110.277 45.4204 109.265 44.313 108.331 43.4911L108.824 43.0066ZM115.287 45.2387C115.287 44.7542 115.287 40.9303 115.287 40.2122C115.287 39.9613 115.269 39.5807 115.226 39.3038H116.074C116.039 39.572 116.013 39.944 116.013 40.2122C116.013 41.5532 116.022 44.8321 116.022 45.2387C116.022 45.5155 116.039 45.9827 116.074 46.2682H115.235C115.278 45.9913 115.287 45.5588 115.287 45.2387ZM115.858 41.5791C117 41.9079 118.747 42.574 119.707 43.0412L119.405 43.7766C118.418 43.2489 116.801 42.6346 115.858 42.3405V41.5791ZM122.882 39.6066C123.133 39.6326 123.384 39.6499 123.67 39.6499C124.172 39.6499 126.689 39.6499 127.174 39.6499C127.416 39.6499 127.727 39.6326 127.978 39.6066V40.3247C127.719 40.3074 127.416 40.2901 127.174 40.2901C126.689 40.2901 124.172 40.2901 123.678 40.2901C123.393 40.2901 123.107 40.3074 122.882 40.3247V39.6066ZM121.853 41.7781C122.087 41.8041 122.337 41.8127 122.606 41.8127C123.107 41.8127 127.805 41.8127 128.264 41.8127C128.445 41.8127 128.731 41.8041 128.947 41.7781V42.4875C128.748 42.4789 128.48 42.4702 128.264 42.4702C127.805 42.4702 123.107 42.4702 122.606 42.4702C122.346 42.4702 122.087 42.4789 121.853 42.4962V41.7781ZM125.928 42.1242C125.928 43.2142 125.789 44.114 125.4 44.8407C125.089 45.4204 124.431 46.0346 123.704 46.4153L123.064 45.9481C123.73 45.6626 124.353 45.1695 124.691 44.6158C125.123 43.9323 125.192 43.0845 125.201 42.1328L125.928 42.1242ZM133.065 39.8835C133.022 39.6672 132.97 39.4768 132.909 39.2952L133.679 39.1654C133.697 39.3211 133.731 39.572 133.766 39.7623C133.818 40.143 134.769 44.8926 134.891 45.4636C134.951 45.7059 135.02 46 135.107 46.2509L134.311 46.398C134.268 46.1038 134.242 45.8356 134.181 45.5847C134.095 45.0397 133.169 40.3333 133.065 39.8835ZM130.625 41.1379C130.842 41.1206 131.075 41.1033 131.352 41.0774C132.131 40.9908 135.116 40.515 135.937 40.3506C136.188 40.3074 136.413 40.2555 136.56 40.2122L136.699 40.9389C136.569 40.9476 136.309 40.9908 136.076 41.0254C135.185 41.1639 132.235 41.631 131.473 41.7608C131.24 41.8041 131.032 41.8473 130.781 41.9079L130.625 41.1379ZM130.6 43.6295C130.807 43.6209 131.136 43.5863 131.361 43.5517C132.287 43.4305 135.505 42.9028 136.543 42.7125C136.872 42.6519 137.123 42.5913 137.304 42.5394L137.451 43.2662C137.27 43.2835 136.993 43.3354 136.673 43.3873C135.522 43.5603 132.399 44.0707 131.525 44.2265C131.188 44.287 130.946 44.3389 130.755 44.3908L130.6 43.6295ZM144.984 40.2209C144.933 40.2901 144.82 40.4804 144.777 40.5929C144.431 41.4494 143.773 42.6606 143.055 43.4565C142.086 44.5379 140.849 45.5674 139.482 46.1903L138.928 45.6107C140.33 45.0743 141.602 44.0361 142.493 43.0499C143.081 42.3837 143.713 41.3542 143.938 40.6361C143.626 40.6361 140.858 40.6361 140.564 40.6361C140.252 40.6361 139.785 40.6707 139.69 40.6794V39.9008C139.802 39.9181 140.295 39.9527 140.564 39.9527C140.901 39.9527 143.574 39.9527 143.903 39.9527C144.18 39.9527 144.413 39.9267 144.552 39.8835L144.984 40.2209ZM143.168 43.0066C144.102 43.7852 145.253 44.9964 145.841 45.7145L145.244 46.2422C144.621 45.4204 143.609 44.313 142.675 43.4911L143.168 43.0066ZM149.63 45.2387C149.63 44.7542 149.63 40.9303 149.63 40.2122C149.63 39.9613 149.613 39.5807 149.57 39.3038H150.418C150.383 39.572 150.357 39.944 150.357 40.2122C150.357 41.5532 150.366 44.8321 150.366 45.2387C150.366 45.5155 150.383 45.9827 150.418 46.2682H149.578C149.622 45.9913 149.63 45.5588 149.63 45.2387ZM150.201 41.5791C151.343 41.9079 153.091 42.574 154.051 43.0412L153.748 43.7766C152.762 43.2489 151.144 42.6346 150.201 42.3405V41.5791ZM157.226 39.6066C157.477 39.6326 157.728 39.6499 158.013 39.6499C158.515 39.6499 161.033 39.6499 161.517 39.6499C161.759 39.6499 162.071 39.6326 162.322 39.6066V40.3247C162.062 40.3074 161.759 40.2901 161.517 40.2901C161.033 40.2901 158.515 40.2901 158.022 40.2901C157.737 40.2901 157.451 40.3074 157.226 40.3247V39.6066ZM156.197 41.7781C156.43 41.8041 156.681 41.8127 156.949 41.8127C157.451 41.8127 162.149 41.8127 162.607 41.8127C162.789 41.8127 163.075 41.8041 163.291 41.7781V42.4875C163.092 42.4789 162.824 42.4702 162.607 42.4702C162.149 42.4702 157.451 42.4702 156.949 42.4702C156.69 42.4702 156.43 42.4789 156.197 42.4962V41.7781ZM160.271 42.1242C160.271 43.2142 160.133 44.114 159.744 44.8407C159.432 45.4204 158.775 46.0346 158.048 46.4153L157.408 45.9481C158.074 45.6626 158.697 45.1695 159.034 44.6158C159.467 43.9323 159.536 43.0845 159.545 42.1328L160.271 42.1242ZM167.409 39.8835C167.366 39.6672 167.314 39.4768 167.253 39.2952L168.023 39.1654C168.04 39.3211 168.075 39.572 168.11 39.7623C168.162 40.143 169.113 44.8926 169.234 45.4636C169.295 45.7059 169.364 46 169.451 46.2509L168.655 46.398C168.611 46.1038 168.585 45.8356 168.525 45.5847C168.438 45.0397 167.513 40.3333 167.409 39.8835ZM164.969 41.1379C165.185 41.1206 165.419 41.1033 165.696 41.0774C166.475 40.9908 169.459 40.515 170.281 40.3506C170.532 40.3074 170.757 40.2555 170.904 40.2122L171.042 40.9389C170.913 40.9476 170.653 40.9908 170.42 41.0254C169.528 41.1639 166.578 41.631 165.817 41.7608C165.583 41.8041 165.376 41.8473 165.125 41.9079L164.969 41.1379ZM164.943 43.6295C165.151 43.6209 165.48 43.5863 165.705 43.5517C166.63 43.4305 169.849 42.9028 170.887 42.7125C171.215 42.6519 171.466 42.5913 171.648 42.5394L171.795 43.2662C171.613 43.2835 171.337 43.3354 171.016 43.3873C169.866 43.5603 166.743 44.0707 165.869 44.2265C165.532 44.287 165.289 44.3389 165.099 44.3908L164.943 43.6295ZM19.8514 52.6066C20.1023 52.6326 20.3532 52.6499 20.6387 52.6499C21.1405 52.6499 23.658 52.6499 24.1425 52.6499C24.3847 52.6499 24.6962 52.6326 24.9471 52.6066V53.3247C24.6875 53.3074 24.3847 53.2901 24.1425 53.2901C23.658 53.2901 21.1405 53.2901 20.6473 53.2901C20.3618 53.2901 20.0763 53.3074 19.8514 53.3247V52.6066ZM18.8219 54.7781C19.0555 54.8041 19.3064 54.8127 19.5746 54.8127C20.0763 54.8127 24.774 54.8127 25.2326 54.8127C25.4142 54.8127 25.6997 54.8041 25.916 54.7781V55.4875C25.717 55.4789 25.4489 55.4702 25.2326 55.4702C24.774 55.4702 20.0763 55.4702 19.5746 55.4702C19.315 55.4702 19.0555 55.4789 18.8219 55.4962V54.7781ZM22.8967 55.1242C22.8967 56.2142 22.7583 57.114 22.369 57.8407C22.0575 58.4204 21.4 59.0346 20.6733 59.4153L20.0331 58.9481C20.6992 58.6626 21.3221 58.1695 21.6595 57.6158C22.0921 56.9323 22.1613 56.0845 22.17 55.1328L22.8967 55.1242ZM30.0341 52.8835C29.9908 52.6672 29.9389 52.4768 29.8784 52.2952L30.6483 52.1654C30.6656 52.3211 30.7003 52.572 30.7349 52.7623C30.7868 53.143 31.7384 57.8926 31.8595 58.4636C31.9201 58.7059 31.9893 59 32.0758 59.2509L31.2799 59.398C31.2366 59.1038 31.2107 58.8356 31.1501 58.5847C31.0636 58.0397 30.1379 53.3333 30.0341 52.8835ZM27.5944 54.1379C27.8107 54.1206 28.0443 54.1033 28.3211 54.0774C29.0997 53.9908 32.0845 53.515 32.9064 53.3506C33.1573 53.3074 33.3822 53.2555 33.5293 53.2122L33.6677 53.9389C33.5379 53.9476 33.2784 53.9908 33.0448 54.0254C32.1537 54.1639 29.2036 54.631 28.4422 54.7608C28.2087 54.8041 28.001 54.8473 27.7501 54.9079L27.5944 54.1379ZM27.5684 56.6295C27.7761 56.6209 28.1048 56.5863 28.3298 56.5517C29.2555 56.4305 32.4738 55.9028 33.512 55.7125C33.8407 55.6519 34.0916 55.5913 34.2733 55.5394L34.4204 56.2662C34.2387 56.2835 33.9618 56.3354 33.6417 56.3873C32.4911 56.5603 29.3679 57.0707 28.4941 57.2265C28.1567 57.287 27.9145 57.3389 27.7242 57.3908L27.5684 56.6295ZM41.9534 53.2209C41.9015 53.2901 41.789 53.4804 41.7457 53.5929C41.3997 54.4494 40.7422 55.6606 40.0241 56.4565C39.0551 57.5379 37.818 58.5674 36.4511 59.1903L35.8974 58.6107C37.2989 58.0743 38.5707 57.0361 39.4618 56.0499C40.0501 55.3837 40.6816 54.3542 40.9065 53.6361C40.5951 53.6361 37.8266 53.6361 37.5325 53.6361C37.221 53.6361 36.7539 53.6707 36.6587 53.6794V52.9008C36.7712 52.9181 37.2643 52.9527 37.5325 52.9527C37.8699 52.9527 40.5432 52.9527 40.8719 52.9527C41.1488 52.9527 41.3824 52.9267 41.5208 52.8835L41.9534 53.2209ZM40.1366 56.0066C41.0709 56.7852 42.2216 57.9964 42.8098 58.7145L42.2129 59.2422C41.59 58.4204 40.5778 57.313 39.6434 56.4911L40.1366 56.0066ZM46.5992 58.2387C46.5992 57.7542 46.5992 53.9303 46.5992 53.2122C46.5992 52.9613 46.5819 52.5807 46.5386 52.3038H47.3864C47.3518 52.572 47.3259 52.944 47.3259 53.2122C47.3259 54.5532 47.3345 57.8321 47.3345 58.2387C47.3345 58.5155 47.3518 58.9827 47.3864 59.2682H46.5473C46.5905 58.9913 46.5992 58.5588 46.5992 58.2387ZM47.1702 54.5791C48.3121 54.9079 50.0597 55.574 51.02 56.0412L50.7172 56.7766C49.731 56.2489 48.1132 55.6346 47.1702 55.3405V54.5791ZM54.1951 52.6066C54.446 52.6326 54.6969 52.6499 54.9824 52.6499C55.4841 52.6499 58.0017 52.6499 58.4862 52.6499C58.7284 52.6499 59.0399 52.6326 59.2908 52.6066V53.3247C59.0312 53.3074 58.7284 53.2901 58.4862 53.2901C58.0017 53.2901 55.4841 53.2901 54.991 53.2901C54.7055 53.2901 54.42 53.3074 54.1951 53.3247V52.6066ZM53.1656 54.7781C53.3992 54.8041 53.6501 54.8127 53.9182 54.8127C54.42 54.8127 59.1177 54.8127 59.5763 54.8127C59.7579 54.8127 60.0434 54.8041 60.2597 54.7781V55.4875C60.0607 55.4789 59.7925 55.4702 59.5763 55.4702C59.1177 55.4702 54.42 55.4702 53.9182 55.4702C53.6587 55.4702 53.3992 55.4789 53.1656 55.4962V54.7781ZM57.2404 55.1242C57.2404 56.2142 57.102 57.114 56.7126 57.8407C56.4012 58.4204 55.7437 59.0346 55.017 59.4153L54.3768 58.9481C55.0429 58.6626 55.6658 58.1695 56.0032 57.6158C56.4358 56.9323 56.505 56.0845 56.5137 55.1328L57.2404 55.1242ZM64.3778 52.8835C64.3345 52.6672 64.2826 52.4768 64.2221 52.2952L64.992 52.1654C65.0093 52.3211 65.0439 52.572 65.0786 52.7623C65.1305 53.143 66.0821 57.8926 66.2032 58.4636C66.2638 58.7059 66.333 59 66.4195 59.2509L65.6236 59.398C65.5803 59.1038 65.5544 58.8356 65.4938 58.5847C65.4073 58.0397 64.4816 53.3333 64.3778 52.8835ZM61.9381 54.1379C62.1544 54.1206 62.388 54.1033 62.6648 54.0774C63.4434 53.9908 66.4282 53.515 67.2501 53.3506C67.5009 53.3074 67.7259 53.2555 67.873 53.2122L68.0114 53.9389C67.8816 53.9476 67.6221 53.9908 67.3885 54.0254C66.4974 54.1639 63.5473 54.631 62.7859 54.7608C62.5523 54.8041 62.3447 54.8473 62.0938 54.9079L61.9381 54.1379ZM61.9121 56.6295C62.1198 56.6209 62.4485 56.5863 62.6735 56.5517C63.5992 56.4305 66.8175 55.9028 67.8557 55.7125C68.1844 55.6519 68.4353 55.5913 68.617 55.5394L68.764 56.2662C68.5824 56.2835 68.3055 56.3354 67.9854 56.3873C66.8348 56.5603 63.7116 57.0707 62.8378 57.2265C62.5004 57.287 62.2582 57.3389 62.0679 57.3908L61.9121 56.6295ZM76.2971 53.2209C76.2451 53.2901 76.1327 53.4804 76.0894 53.5929C75.7434 54.4494 75.0859 55.6606 74.3678 56.4565C73.3988 57.5379 72.1617 58.5674 70.7948 59.1903L70.2411 58.6107C71.6426 58.0743 72.9144 57.0361 73.8054 56.0499C74.3937 55.3837 75.0253 54.3542 75.2502 53.6361C74.9388 53.6361 72.1703 53.6361 71.8762 53.6361C71.5647 53.6361 71.0976 53.6707 71.0024 53.6794V52.9008C71.1149 52.9181 71.608 52.9527 71.8762 52.9527C72.2136 52.9527 74.8869 52.9527 75.2156 52.9527C75.4925 52.9527 75.7261 52.9267 75.8645 52.8835L76.2971 53.2209ZM74.4803 56.0066C75.4146 56.7852 76.5652 57.9964 77.1535 58.7145L76.5566 59.2422C75.9337 58.4204 74.9215 57.313 73.9871 56.4911L74.4803 56.0066ZM80.9429 58.2387C80.9429 57.7542 80.9429 53.9303 80.9429 53.2122C80.9429 52.9613 80.9255 52.5807 80.8823 52.3038H81.7301C81.6955 52.572 81.6696 52.944 81.6696 53.2122C81.6696 54.5532 81.6782 57.8321 81.6782 58.2387C81.6782 58.5155 81.6955 58.9827 81.7301 59.2682H80.8909C80.9342 58.9913 80.9429 58.5588 80.9429 58.2387ZM81.5138 54.5791C82.6558 54.9079 84.4034 55.574 85.3637 56.0412L85.0609 56.7766C84.0747 56.2489 82.4568 55.6346 81.5138 55.3405V54.5791ZM88.5388 52.6066C88.7897 52.6326 89.0406 52.6499 89.3261 52.6499C89.8278 52.6499 92.3454 52.6499 92.8299 52.6499C93.0721 52.6499 93.3836 52.6326 93.6345 52.6066V53.3247C93.3749 53.3074 93.0721 53.2901 92.8299 53.2901C92.3454 53.2901 89.8278 53.2901 89.3347 53.2901C89.0492 53.2901 88.7637 53.3074 88.5388 53.3247V52.6066ZM87.5093 54.7781C87.7428 54.8041 87.9937 54.8127 88.2619 54.8127C88.7637 54.8127 93.4614 54.8127 93.9199 54.8127C94.1016 54.8127 94.3871 54.8041 94.6034 54.7781V55.4875C94.4044 55.4789 94.1362 55.4702 93.9199 55.4702C93.4614 55.4702 88.7637 55.4702 88.2619 55.4702C88.0024 55.4702 87.7428 55.4789 87.5093 55.4962V54.7781ZM91.5841 55.1242C91.5841 56.2142 91.4456 57.114 91.0563 57.8407C90.7449 58.4204 90.0874 59.0346 89.3607 59.4153L88.7205 58.9481C89.3866 58.6626 90.0095 58.1695 90.3469 57.6158C90.7795 56.9323 90.8487 56.0845 90.8574 55.1328L91.5841 55.1242ZM98.7215 52.8835C98.6782 52.6672 98.6263 52.4768 98.5658 52.2952L99.3357 52.1654C99.353 52.3211 99.3876 52.572 99.4222 52.7623C99.4742 53.143 100.426 57.8926 100.547 58.4636C100.607 58.7059 100.677 59 100.763 59.2509L99.9673 59.398C99.924 59.1038 99.8981 58.8356 99.8375 58.5847C99.751 58.0397 98.8253 53.3333 98.7215 52.8835ZM96.2818 54.1379C96.4981 54.1206 96.7317 54.1033 97.0085 54.0774C97.7871 53.9908 100.772 53.515 101.594 53.3506C101.845 53.3074 102.07 53.2555 102.217 53.2122L102.355 53.9389C102.225 53.9476 101.966 53.9908 101.732 54.0254C100.841 54.1639 97.8909 54.631 97.1296 54.7608C96.896 54.8041 96.6884 54.8473 96.4375 54.9079L96.2818 54.1379ZM96.2558 56.6295C96.4635 56.6209 96.7922 56.5863 97.0172 56.5517C97.9429 56.4305 101.161 55.9028 102.199 55.7125C102.528 55.6519 102.779 55.5913 102.961 55.5394L103.108 56.2662C102.926 56.2835 102.649 56.3354 102.329 56.3873C101.178 56.5603 98.0553 57.0707 97.1815 57.2265C96.8441 57.287 96.6019 57.3389 96.4116 57.3908L96.2558 56.6295ZM110.641 53.2209C110.589 53.2901 110.476 53.4804 110.433 53.5929C110.087 54.4494 109.43 55.6606 108.711 56.4565C107.743 57.5379 106.505 58.5674 105.138 59.1903L104.585 58.6107C105.986 58.0743 107.258 57.0361 108.149 56.0499C108.737 55.3837 109.369 54.3542 109.594 53.6361C109.282 53.6361 106.514 53.6361 106.22 53.6361C105.908 53.6361 105.441 53.6707 105.346 53.6794V52.9008C105.459 52.9181 105.952 52.9527 106.22 52.9527C106.557 52.9527 109.231 52.9527 109.559 52.9527C109.836 52.9527 110.07 52.9267 110.208 52.8835L110.641 53.2209ZM108.824 56.0066C109.758 56.7852 110.909 57.9964 111.497 58.7145L110.9 59.2422C110.277 58.4204 109.265 57.313 108.331 56.4911L108.824 56.0066ZM115.287 58.2387C115.287 57.7542 115.287 53.9303 115.287 53.2122C115.287 52.9613 115.269 52.5807 115.226 52.3038H116.074C116.039 52.572 116.013 52.944 116.013 53.2122C116.013 54.5532 116.022 57.8321 116.022 58.2387C116.022 58.5155 116.039 58.9827 116.074 59.2682H115.235C115.278 58.9913 115.287 58.5588 115.287 58.2387ZM115.858 54.5791C117 54.9079 118.747 55.574 119.707 56.0412L119.405 56.7766C118.418 56.2489 116.801 55.6346 115.858 55.3405V54.5791ZM122.882 52.6066C123.133 52.6326 123.384 52.6499 123.67 52.6499C124.172 52.6499 126.689 52.6499 127.174 52.6499C127.416 52.6499 127.727 52.6326 127.978 52.6066V53.3247C127.719 53.3074 127.416 53.2901 127.174 53.2901C126.689 53.2901 124.172 53.2901 123.678 53.2901C123.393 53.2901 123.107 53.3074 122.882 53.3247V52.6066ZM121.853 54.7781C122.087 54.8041 122.337 54.8127 122.606 54.8127C123.107 54.8127 127.805 54.8127 128.264 54.8127C128.445 54.8127 128.731 54.8041 128.947 54.7781V55.4875C128.748 55.4789 128.48 55.4702 128.264 55.4702C127.805 55.4702 123.107 55.4702 122.606 55.4702C122.346 55.4702 122.087 55.4789 121.853 55.4962V54.7781ZM125.928 55.1242C125.928 56.2142 125.789 57.114 125.4 57.8407C125.089 58.4204 124.431 59.0346 123.704 59.4153L123.064 58.9481C123.73 58.6626 124.353 58.1695 124.691 57.6158C125.123 56.9323 125.192 56.0845 125.201 55.1328L125.928 55.1242ZM133.065 52.8835C133.022 52.6672 132.97 52.4768 132.909 52.2952L133.679 52.1654C133.697 52.3211 133.731 52.572 133.766 52.7623C133.818 53.143 134.769 57.8926 134.891 58.4636C134.951 58.7059 135.02 59 135.107 59.2509L134.311 59.398C134.268 59.1038 134.242 58.8356 134.181 58.5847C134.095 58.0397 133.169 53.3333 133.065 52.8835ZM130.625 54.1379C130.842 54.1206 131.075 54.1033 131.352 54.0774C132.131 53.9908 135.116 53.515 135.937 53.3506C136.188 53.3074 136.413 53.2555 136.56 53.2122L136.699 53.9389C136.569 53.9476 136.309 53.9908 136.076 54.0254C135.185 54.1639 132.235 54.631 131.473 54.7608C131.24 54.8041 131.032 54.8473 130.781 54.9079L130.625 54.1379ZM130.6 56.6295C130.807 56.6209 131.136 56.5863 131.361 56.5517C132.287 56.4305 135.505 55.9028 136.543 55.7125C136.872 55.6519 137.123 55.5913 137.304 55.5394L137.451 56.2662C137.27 56.2835 136.993 56.3354 136.673 56.3873C135.522 56.5603 132.399 57.0707 131.525 57.2265C131.188 57.287 130.946 57.3389 130.755 57.3908L130.6 56.6295ZM144.984 53.2209C144.933 53.2901 144.82 53.4804 144.777 53.5929C144.431 54.4494 143.773 55.6606 143.055 56.4565C142.086 57.5379 140.849 58.5674 139.482 59.1903L138.928 58.6107C140.33 58.0743 141.602 57.0361 142.493 56.0499C143.081 55.3837 143.713 54.3542 143.938 53.6361C143.626 53.6361 140.858 53.6361 140.564 53.6361C140.252 53.6361 139.785 53.6707 139.69 53.6794V52.9008C139.802 52.9181 140.295 52.9527 140.564 52.9527C140.901 52.9527 143.574 52.9527 143.903 52.9527C144.18 52.9527 144.413 52.9267 144.552 52.8835L144.984 53.2209ZM143.168 56.0066C144.102 56.7852 145.253 57.9964 145.841 58.7145L145.244 59.2422C144.621 58.4204 143.609 57.313 142.675 56.4911L143.168 56.0066ZM149.63 58.2387C149.63 57.7542 149.63 53.9303 149.63 53.2122C149.63 52.9613 149.613 52.5807 149.57 52.3038H150.418C150.383 52.572 150.357 52.944 150.357 53.2122C150.357 54.5532 150.366 57.8321 150.366 58.2387C150.366 58.5155 150.383 58.9827 150.418 59.2682H149.578C149.622 58.9913 149.63 58.5588 149.63 58.2387ZM150.201 54.5791C151.343 54.9079 153.091 55.574 154.051 56.0412L153.748 56.7766C152.762 56.2489 151.144 55.6346 150.201 55.3405V54.5791ZM157.226 52.6066C157.477 52.6326 157.728 52.6499 158.013 52.6499C158.515 52.6499 161.033 52.6499 161.517 52.6499C161.759 52.6499 162.071 52.6326 162.322 52.6066V53.3247C162.062 53.3074 161.759 53.2901 161.517 53.2901C161.033 53.2901 158.515 53.2901 158.022 53.2901C157.737 53.2901 157.451 53.3074 157.226 53.3247V52.6066ZM156.197 54.7781C156.43 54.8041 156.681 54.8127 156.949 54.8127C157.451 54.8127 162.149 54.8127 162.607 54.8127C162.789 54.8127 163.075 54.8041 163.291 54.7781V55.4875C163.092 55.4789 162.824 55.4702 162.607 55.4702C162.149 55.4702 157.451 55.4702 156.949 55.4702C156.69 55.4702 156.43 55.4789 156.197 55.4962V54.7781ZM160.271 55.1242C160.271 56.2142 160.133 57.114 159.744 57.8407C159.432 58.4204 158.775 59.0346 158.048 59.4153L157.408 58.9481C158.074 58.6626 158.697 58.1695 159.034 57.6158C159.467 56.9323 159.536 56.0845 159.545 55.1328L160.271 55.1242ZM167.409 52.8835C167.366 52.6672 167.314 52.4768 167.253 52.2952L168.023 52.1654C168.04 52.3211 168.075 52.572 168.11 52.7623C168.162 53.143 169.113 57.8926 169.234 58.4636C169.295 58.7059 169.364 59 169.451 59.2509L168.655 59.398C168.611 59.1038 168.585 58.8356 168.525 58.5847C168.438 58.0397 167.513 53.3333 167.409 52.8835ZM164.969 54.1379C165.185 54.1206 165.419 54.1033 165.696 54.0774C166.475 53.9908 169.459 53.515 170.281 53.3506C170.532 53.3074 170.757 53.2555 170.904 53.2122L171.042 53.9389C170.913 53.9476 170.653 53.9908 170.42 54.0254C169.528 54.1639 166.578 54.631 165.817 54.7608C165.583 54.8041 165.376 54.8473 165.125 54.9079L164.969 54.1379ZM164.943 56.6295C165.151 56.6209 165.48 56.5863 165.705 56.5517C166.63 56.4305 169.849 55.9028 170.887 55.7125C171.215 55.6519 171.466 55.5913 171.648 55.5394L171.795 56.2662C171.613 56.2835 171.337 56.3354 171.016 56.3873C169.866 56.5603 166.743 57.0707 165.869 57.2265C165.532 57.287 165.289 57.3389 165.099 57.3908L164.943 56.6295ZM19.8514 65.6066C20.1023 65.6326 20.3532 65.6499 20.6387 65.6499C21.1405 65.6499 23.658 65.6499 24.1425 65.6499C24.3847 65.6499 24.6962 65.6326 24.9471 65.6066V66.3247C24.6875 66.3074 24.3847 66.2901 24.1425 66.2901C23.658 66.2901 21.1405 66.2901 20.6473 66.2901C20.3618 66.2901 20.0763 66.3074 19.8514 66.3247V65.6066ZM18.8219 67.7781C19.0555 67.8041 19.3064 67.8127 19.5746 67.8127C20.0763 67.8127 24.774 67.8127 25.2326 67.8127C25.4142 67.8127 25.6997 67.8041 25.916 67.7781V68.4875C25.717 68.4789 25.4489 68.4702 25.2326 68.4702C24.774 68.4702 20.0763 68.4702 19.5746 68.4702C19.315 68.4702 19.0555 68.4789 18.8219 68.4962V67.7781ZM22.8967 68.1242C22.8967 69.2142 22.7583 70.114 22.369 70.8407C22.0575 71.4204 21.4 72.0346 20.6733 72.4153L20.0331 71.9481C20.6992 71.6626 21.3221 71.1695 21.6595 70.6158C22.0921 69.9323 22.1613 69.0845 22.17 68.1328L22.8967 68.1242ZM30.0341 65.8835C29.9908 65.6672 29.9389 65.4768 29.8784 65.2952L30.6483 65.1654C30.6656 65.3211 30.7003 65.572 30.7349 65.7623C30.7868 66.143 31.7384 70.8926 31.8595 71.4636C31.9201 71.7059 31.9893 72 32.0758 72.2509L31.2799 72.398C31.2366 72.1038 31.2107 71.8356 31.1501 71.5847C31.0636 71.0397 30.1379 66.3333 30.0341 65.8835ZM27.5944 67.1379C27.8107 67.1206 28.0443 67.1033 28.3211 67.0774C29.0997 66.9908 32.0845 66.515 32.9064 66.3506C33.1573 66.3074 33.3822 66.2555 33.5293 66.2122L33.6677 66.9389C33.5379 66.9476 33.2784 66.9908 33.0448 67.0254C32.1537 67.1639 29.2036 67.631 28.4422 67.7608C28.2087 67.8041 28.001 67.8473 27.7501 67.9079L27.5944 67.1379ZM27.5684 69.6295C27.7761 69.6209 28.1048 69.5863 28.3298 69.5517C29.2555 69.4305 32.4738 68.9028 33.512 68.7125C33.8407 68.6519 34.0916 68.5913 34.2733 68.5394L34.4204 69.2662C34.2387 69.2835 33.9618 69.3354 33.6417 69.3873C32.4911 69.5603 29.3679 70.0707 28.4941 70.2265C28.1567 70.287 27.9145 70.3389 27.7242 70.3908L27.5684 69.6295ZM41.9534 66.2209C41.9015 66.2901 41.789 66.4804 41.7457 66.5929C41.3997 67.4494 40.7422 68.6606 40.0241 69.4565C39.0551 70.5379 37.818 71.5674 36.4511 72.1903L35.8974 71.6107C37.2989 71.0743 38.5707 70.0361 39.4618 69.0499C40.0501 68.3837 40.6816 67.3542 40.9065 66.6361C40.5951 66.6361 37.8266 66.6361 37.5325 66.6361C37.221 66.6361 36.7539 66.6707 36.6587 66.6794V65.9008C36.7712 65.9181 37.2643 65.9527 37.5325 65.9527C37.8699 65.9527 40.5432 65.9527 40.8719 65.9527C41.1488 65.9527 41.3824 65.9267 41.5208 65.8835L41.9534 66.2209ZM40.1366 69.0066C41.0709 69.7852 42.2216 70.9964 42.8098 71.7145L42.2129 72.2422C41.59 71.4204 40.5778 70.313 39.6434 69.4911L40.1366 69.0066ZM46.5992 71.2387C46.5992 70.7542 46.5992 66.9303 46.5992 66.2122C46.5992 65.9613 46.5819 65.5807 46.5386 65.3038H47.3864C47.3518 65.572 47.3259 65.944 47.3259 66.2122C47.3259 67.5532 47.3345 70.8321 47.3345 71.2387C47.3345 71.5155 47.3518 71.9827 47.3864 72.2682H46.5473C46.5905 71.9913 46.5992 71.5588 46.5992 71.2387ZM47.1702 67.5791C48.3121 67.9079 50.0597 68.574 51.02 69.0412L50.7172 69.7766C49.731 69.2489 48.1132 68.6346 47.1702 68.3405V67.5791ZM54.1951 65.6066C54.446 65.6326 54.6969 65.6499 54.9824 65.6499C55.4841 65.6499 58.0017 65.6499 58.4862 65.6499C58.7284 65.6499 59.0399 65.6326 59.2908 65.6066V66.3247C59.0312 66.3074 58.7284 66.2901 58.4862 66.2901C58.0017 66.2901 55.4841 66.2901 54.991 66.2901C54.7055 66.2901 54.42 66.3074 54.1951 66.3247V65.6066ZM53.1656 67.7781C53.3992 67.8041 53.6501 67.8127 53.9182 67.8127C54.42 67.8127 59.1177 67.8127 59.5763 67.8127C59.7579 67.8127 60.0434 67.8041 60.2597 67.7781V68.4875C60.0607 68.4789 59.7925 68.4702 59.5763 68.4702C59.1177 68.4702 54.42 68.4702 53.9182 68.4702C53.6587 68.4702 53.3992 68.4789 53.1656 68.4962V67.7781ZM57.2404 68.1242C57.2404 69.2142 57.102 70.114 56.7126 70.8407C56.4012 71.4204 55.7437 72.0346 55.017 72.4153L54.3768 71.9481C55.0429 71.6626 55.6658 71.1695 56.0032 70.6158C56.4358 69.9323 56.505 69.0845 56.5137 68.1328L57.2404 68.1242ZM64.3778 65.8835C64.3345 65.6672 64.2826 65.4768 64.2221 65.2952L64.992 65.1654C65.0093 65.3211 65.0439 65.572 65.0786 65.7623C65.1305 66.143 66.0821 70.8926 66.2032 71.4636C66.2638 71.7059 66.333 72 66.4195 72.2509L65.6236 72.398C65.5803 72.1038 65.5544 71.8356 65.4938 71.5847C65.4073 71.0397 64.4816 66.3333 64.3778 65.8835ZM61.9381 67.1379C62.1544 67.1206 62.388 67.1033 62.6648 67.0774C63.4434 66.9908 66.4282 66.515 67.2501 66.3506C67.5009 66.3074 67.7259 66.2555 67.873 66.2122L68.0114 66.9389C67.8816 66.9476 67.6221 66.9908 67.3885 67.0254C66.4974 67.1639 63.5473 67.631 62.7859 67.7608C62.5523 67.8041 62.3447 67.8473 62.0938 67.9079L61.9381 67.1379ZM61.9121 69.6295C62.1198 69.6209 62.4485 69.5863 62.6735 69.5517C63.5992 69.4305 66.8175 68.9028 67.8557 68.7125C68.1844 68.6519 68.4353 68.5913 68.617 68.5394L68.764 69.2662C68.5824 69.2835 68.3055 69.3354 67.9854 69.3873C66.8348 69.5603 63.7116 70.0707 62.8378 70.2265C62.5004 70.287 62.2582 70.3389 62.0679 70.3908L61.9121 69.6295ZM76.2971 66.2209C76.2451 66.2901 76.1327 66.4804 76.0894 66.5929C75.7434 67.4494 75.0859 68.6606 74.3678 69.4565C73.3988 70.5379 72.1617 71.5674 70.7948 72.1903L70.2411 71.6107C71.6426 71.0743 72.9144 70.0361 73.8054 69.0499C74.3937 68.3837 75.0253 67.3542 75.2502 66.6361C74.9388 66.6361 72.1703 66.6361 71.8762 66.6361C71.5647 66.6361 71.0976 66.6707 71.0024 66.6794V65.9008C71.1149 65.9181 71.608 65.9527 71.8762 65.9527C72.2136 65.9527 74.8869 65.9527 75.2156 65.9527C75.4925 65.9527 75.7261 65.9267 75.8645 65.8835L76.2971 66.2209ZM74.4803 69.0066C75.4146 69.7852 76.5652 70.9964 77.1535 71.7145L76.5566 72.2422C75.9337 71.4204 74.9215 70.313 73.9871 69.4911L74.4803 69.0066ZM80.9429 71.2387C80.9429 70.7542 80.9429 66.9303 80.9429 66.2122C80.9429 65.9613 80.9255 65.5807 80.8823 65.3038H81.7301C81.6955 65.572 81.6696 65.944 81.6696 66.2122C81.6696 67.5532 81.6782 70.8321 81.6782 71.2387C81.6782 71.5155 81.6955 71.9827 81.7301 72.2682H80.8909C80.9342 71.9913 80.9429 71.5588 80.9429 71.2387ZM81.5138 67.5791C82.6558 67.9079 84.4034 68.574 85.3637 69.0412L85.0609 69.7766C84.0747 69.2489 82.4568 68.6346 81.5138 68.3405V67.5791ZM88.5388 65.6066C88.7897 65.6326 89.0406 65.6499 89.3261 65.6499C89.8278 65.6499 92.3454 65.6499 92.8299 65.6499C93.0721 65.6499 93.3836 65.6326 93.6345 65.6066V66.3247C93.3749 66.3074 93.0721 66.2901 92.8299 66.2901C92.3454 66.2901 89.8278 66.2901 89.3347 66.2901C89.0492 66.2901 88.7637 66.3074 88.5388 66.3247V65.6066ZM87.5093 67.7781C87.7428 67.8041 87.9937 67.8127 88.2619 67.8127C88.7637 67.8127 93.4614 67.8127 93.9199 67.8127C94.1016 67.8127 94.3871 67.8041 94.6034 67.7781V68.4875C94.4044 68.4789 94.1362 68.4702 93.9199 68.4702C93.4614 68.4702 88.7637 68.4702 88.2619 68.4702C88.0024 68.4702 87.7428 68.4789 87.5093 68.4962V67.7781ZM91.5841 68.1242C91.5841 69.2142 91.4456 70.114 91.0563 70.8407C90.7449 71.4204 90.0874 72.0346 89.3607 72.4153L88.7205 71.9481C89.3866 71.6626 90.0095 71.1695 90.3469 70.6158C90.7795 69.9323 90.8487 69.0845 90.8574 68.1328L91.5841 68.1242ZM98.7215 65.8835C98.6782 65.6672 98.6263 65.4768 98.5658 65.2952L99.3357 65.1654C99.353 65.3211 99.3876 65.572 99.4222 65.7623C99.4742 66.143 100.426 70.8926 100.547 71.4636C100.607 71.7059 100.677 72 100.763 72.2509L99.9673 72.398C99.924 72.1038 99.8981 71.8356 99.8375 71.5847C99.751 71.0397 98.8253 66.3333 98.7215 65.8835ZM96.2818 67.1379C96.4981 67.1206 96.7317 67.1033 97.0085 67.0774C97.7871 66.9908 100.772 66.515 101.594 66.3506C101.845 66.3074 102.07 66.2555 102.217 66.2122L102.355 66.9389C102.225 66.9476 101.966 66.9908 101.732 67.0254C100.841 67.1639 97.8909 67.631 97.1296 67.7608C96.896 67.8041 96.6884 67.8473 96.4375 67.9079L96.2818 67.1379ZM96.2558 69.6295C96.4635 69.6209 96.7922 69.5863 97.0172 69.5517C97.9429 69.4305 101.161 68.9028 102.199 68.7125C102.528 68.6519 102.779 68.5913 102.961 68.5394L103.108 69.2662C102.926 69.2835 102.649 69.3354 102.329 69.3873C101.178 69.5603 98.0553 70.0707 97.1815 70.2265C96.8441 70.287 96.6019 70.3389 96.4116 70.3908L96.2558 69.6295ZM110.641 66.2209C110.589 66.2901 110.476 66.4804 110.433 66.5929C110.087 67.4494 109.43 68.6606 108.711 69.4565C107.743 70.5379 106.505 71.5674 105.138 72.1903L104.585 71.6107C105.986 71.0743 107.258 70.0361 108.149 69.0499C108.737 68.3837 109.369 67.3542 109.594 66.6361C109.282 66.6361 106.514 66.6361 106.22 66.6361C105.908 66.6361 105.441 66.6707 105.346 66.6794V65.9008C105.459 65.9181 105.952 65.9527 106.22 65.9527C106.557 65.9527 109.231 65.9527 109.559 65.9527C109.836 65.9527 110.07 65.9267 110.208 65.8835L110.641 66.2209ZM108.824 69.0066C109.758 69.7852 110.909 70.9964 111.497 71.7145L110.9 72.2422C110.277 71.4204 109.265 70.313 108.331 69.4911L108.824 69.0066ZM115.287 71.2387C115.287 70.7542 115.287 66.9303 115.287 66.2122C115.287 65.9613 115.269 65.5807 115.226 65.3038H116.074C116.039 65.572 116.013 65.944 116.013 66.2122C116.013 67.5532 116.022 70.8321 116.022 71.2387C116.022 71.5155 116.039 71.9827 116.074 72.2682H115.235C115.278 71.9913 115.287 71.5588 115.287 71.2387ZM115.858 67.5791C117 67.9079 118.747 68.574 119.707 69.0412L119.405 69.7766C118.418 69.2489 116.801 68.6346 115.858 68.3405V67.5791ZM122.882 65.6066C123.133 65.6326 123.384 65.6499 123.67 65.6499C124.172 65.6499 126.689 65.6499 127.174 65.6499C127.416 65.6499 127.727 65.6326 127.978 65.6066V66.3247C127.719 66.3074 127.416 66.2901 127.174 66.2901C126.689 66.2901 124.172 66.2901 123.678 66.2901C123.393 66.2901 123.107 66.3074 122.882 66.3247V65.6066ZM121.853 67.7781C122.087 67.8041 122.337 67.8127 122.606 67.8127C123.107 67.8127 127.805 67.8127 128.264 67.8127C128.445 67.8127 128.731 67.8041 128.947 67.7781V68.4875C128.748 68.4789 128.48 68.4702 128.264 68.4702C127.805 68.4702 123.107 68.4702 122.606 68.4702C122.346 68.4702 122.087 68.4789 121.853 68.4962V67.7781ZM125.928 68.1242C125.928 69.2142 125.789 70.114 125.4 70.8407C125.089 71.4204 124.431 72.0346 123.704 72.4153L123.064 71.9481C123.73 71.6626 124.353 71.1695 124.691 70.6158C125.123 69.9323 125.192 69.0845 125.201 68.1328L125.928 68.1242ZM133.065 65.8835C133.022 65.6672 132.97 65.4768 132.909 65.2952L133.679 65.1654C133.697 65.3211 133.731 65.572 133.766 65.7623C133.818 66.143 134.769 70.8926 134.891 71.4636C134.951 71.7059 135.02 72 135.107 72.2509L134.311 72.398C134.268 72.1038 134.242 71.8356 134.181 71.5847C134.095 71.0397 133.169 66.3333 133.065 65.8835ZM130.625 67.1379C130.842 67.1206 131.075 67.1033 131.352 67.0774C132.131 66.9908 135.116 66.515 135.937 66.3506C136.188 66.3074 136.413 66.2555 136.56 66.2122L136.699 66.9389C136.569 66.9476 136.309 66.9908 136.076 67.0254C135.185 67.1639 132.235 67.631 131.473 67.7608C131.24 67.8041 131.032 67.8473 130.781 67.9079L130.625 67.1379ZM130.6 69.6295C130.807 69.6209 131.136 69.5863 131.361 69.5517C132.287 69.4305 135.505 68.9028 136.543 68.7125C136.872 68.6519 137.123 68.5913 137.304 68.5394L137.451 69.2662C137.27 69.2835 136.993 69.3354 136.673 69.3873C135.522 69.5603 132.399 70.0707 131.525 70.2265C131.188 70.287 130.946 70.3389 130.755 70.3908L130.6 69.6295ZM144.984 66.2209C144.933 66.2901 144.82 66.4804 144.777 66.5929C144.431 67.4494 143.773 68.6606 143.055 69.4565C142.086 70.5379 140.849 71.5674 139.482 72.1903L138.928 71.6107C140.33 71.0743 141.602 70.0361 142.493 69.0499C143.081 68.3837 143.713 67.3542 143.938 66.6361C143.626 66.6361 140.858 66.6361 140.564 66.6361C140.252 66.6361 139.785 66.6707 139.69 66.6794V65.9008C139.802 65.9181 140.295 65.9527 140.564 65.9527C140.901 65.9527 143.574 65.9527 143.903 65.9527C144.18 65.9527 144.413 65.9267 144.552 65.8835L144.984 66.2209ZM143.168 69.0066C144.102 69.7852 145.253 70.9964 145.841 71.7145L145.244 72.2422C144.621 71.4204 143.609 70.313 142.675 69.4911L143.168 69.0066ZM149.63 71.2387C149.63 70.7542 149.63 66.9303 149.63 66.2122C149.63 65.9613 149.613 65.5807 149.57 65.3038H150.418C150.383 65.572 150.357 65.944 150.357 66.2122C150.357 67.5532 150.366 70.8321 150.366 71.2387C150.366 71.5155 150.383 71.9827 150.418 72.2682H149.578C149.622 71.9913 149.63 71.5588 149.63 71.2387ZM150.201 67.5791C151.343 67.9079 153.091 68.574 154.051 69.0412L153.748 69.7766C152.762 69.2489 151.144 68.6346 150.201 68.3405V67.5791ZM157.226 65.6066C157.477 65.6326 157.728 65.6499 158.013 65.6499C158.515 65.6499 161.033 65.6499 161.517 65.6499C161.759 65.6499 162.071 65.6326 162.322 65.6066V66.3247C162.062 66.3074 161.759 66.2901 161.517 66.2901C161.033 66.2901 158.515 66.2901 158.022 66.2901C157.737 66.2901 157.451 66.3074 157.226 66.3247V65.6066ZM156.197 67.7781C156.43 67.8041 156.681 67.8127 156.949 67.8127C157.451 67.8127 162.149 67.8127 162.607 67.8127C162.789 67.8127 163.075 67.8041 163.291 67.7781V68.4875C163.092 68.4789 162.824 68.4702 162.607 68.4702C162.149 68.4702 157.451 68.4702 156.949 68.4702C156.69 68.4702 156.43 68.4789 156.197 68.4962V67.7781ZM160.271 68.1242C160.271 69.2142 160.133 70.114 159.744 70.8407C159.432 71.4204 158.775 72.0346 158.048 72.4153L157.408 71.9481C158.074 71.6626 158.697 71.1695 159.034 70.6158C159.467 69.9323 159.536 69.0845 159.545 68.1328L160.271 68.1242ZM167.409 65.8835C167.366 65.6672 167.314 65.4768 167.253 65.2952L168.023 65.1654C168.04 65.3211 168.075 65.572 168.11 65.7623C168.162 66.143 169.113 70.8926 169.234 71.4636C169.295 71.7059 169.364 72 169.451 72.2509L168.655 72.398C168.611 72.1038 168.585 71.8356 168.525 71.5847C168.438 71.0397 167.513 66.3333 167.409 65.8835ZM164.969 67.1379C165.185 67.1206 165.419 67.1033 165.696 67.0774C166.475 66.9908 169.459 66.515 170.281 66.3506C170.532 66.3074 170.757 66.2555 170.904 66.2122L171.042 66.9389C170.913 66.9476 170.653 66.9908 170.42 67.0254C169.528 67.1639 166.578 67.631 165.817 67.7608C165.583 67.8041 165.376 67.8473 165.125 67.9079L164.969 67.1379ZM164.943 69.6295C165.151 69.6209 165.48 69.5863 165.705 69.5517C166.63 69.4305 169.849 68.9028 170.887 68.7125C171.215 68.6519 171.466 68.5913 171.648 68.5394L171.795 69.2662C171.613 69.2835 171.337 69.3354 171.016 69.3873C169.866 69.5603 166.743 70.0707 165.869 70.2265C165.532 70.287 165.289 70.3389 165.099 70.3908L164.943 69.6295ZM19.8514 78.6066C20.1023 78.6326 20.3532 78.6499 20.6387 78.6499C21.1405 78.6499 23.658 78.6499 24.1425 78.6499C24.3847 78.6499 24.6962 78.6326 24.9471 78.6066V79.3247C24.6875 79.3074 24.3847 79.2901 24.1425 79.2901C23.658 79.2901 21.1405 79.2901 20.6473 79.2901C20.3618 79.2901 20.0763 79.3074 19.8514 79.3247V78.6066ZM18.8219 80.7781C19.0555 80.8041 19.3064 80.8127 19.5746 80.8127C20.0763 80.8127 24.774 80.8127 25.2326 80.8127C25.4142 80.8127 25.6997 80.8041 25.916 80.7781V81.4875C25.717 81.4789 25.4489 81.4702 25.2326 81.4702C24.774 81.4702 20.0763 81.4702 19.5746 81.4702C19.315 81.4702 19.0555 81.4789 18.8219 81.4962V80.7781ZM22.8967 81.1242C22.8967 82.2142 22.7583 83.114 22.369 83.8407C22.0575 84.4204 21.4 85.0346 20.6733 85.4153L20.0331 84.9481C20.6992 84.6626 21.3221 84.1695 21.6595 83.6158C22.0921 82.9323 22.1613 82.0845 22.17 81.1328L22.8967 81.1242ZM30.0341 78.8835C29.9908 78.6672 29.9389 78.4768 29.8784 78.2952L30.6483 78.1654C30.6656 78.3211 30.7003 78.572 30.7349 78.7623C30.7868 79.143 31.7384 83.8926 31.8595 84.4636C31.9201 84.7059 31.9893 85 32.0758 85.2509L31.2799 85.398C31.2366 85.1038 31.2107 84.8356 31.1501 84.5847C31.0636 84.0397 30.1379 79.3333 30.0341 78.8835ZM27.5944 80.1379C27.8107 80.1206 28.0443 80.1033 28.3211 80.0774C29.0997 79.9908 32.0845 79.515 32.9064 79.3506C33.1573 79.3074 33.3822 79.2555 33.5293 79.2122L33.6677 79.9389C33.5379 79.9476 33.2784 79.9908 33.0448 80.0254C32.1537 80.1639 29.2036 80.631 28.4422 80.7608C28.2087 80.8041 28.001 80.8473 27.7501 80.9079L27.5944 80.1379ZM27.5684 82.6295C27.7761 82.6209 28.1048 82.5863 28.3298 82.5517C29.2555 82.4305 32.4738 81.9028 33.512 81.7125C33.8407 81.6519 34.0916 81.5913 34.2733 81.5394L34.4204 82.2662C34.2387 82.2835 33.9618 82.3354 33.6417 82.3873C32.4911 82.5603 29.3679 83.0707 28.4941 83.2265C28.1567 83.287 27.9145 83.3389 27.7242 83.3908L27.5684 82.6295ZM41.9534 79.2209C41.9015 79.2901 41.789 79.4804 41.7457 79.5929C41.3997 80.4494 40.7422 81.6606 40.0241 82.4565C39.0551 83.5379 37.818 84.5674 36.4511 85.1903L35.8974 84.6107C37.2989 84.0743 38.5707 83.0361 39.4618 82.0499C40.0501 81.3837 40.6816 80.3542 40.9065 79.6361C40.5951 79.6361 37.8266 79.6361 37.5325 79.6361C37.221 79.6361 36.7539 79.6707 36.6587 79.6794V78.9008C36.7712 78.9181 37.2643 78.9527 37.5325 78.9527C37.8699 78.9527 40.5432 78.9527 40.8719 78.9527C41.1488 78.9527 41.3824 78.9267 41.5208 78.8835L41.9534 79.2209ZM40.1366 82.0066C41.0709 82.7852 42.2216 83.9964 42.8098 84.7145L42.2129 85.2422C41.59 84.4204 40.5778 83.313 39.6434 82.4911L40.1366 82.0066ZM46.5992 84.2387C46.5992 83.7542 46.5992 79.9303 46.5992 79.2122C46.5992 78.9613 46.5819 78.5807 46.5386 78.3038H47.3864C47.3518 78.572 47.3259 78.944 47.3259 79.2122C47.3259 80.5532 47.3345 83.8321 47.3345 84.2387C47.3345 84.5155 47.3518 84.9827 47.3864 85.2682H46.5473C46.5905 84.9913 46.5992 84.5588 46.5992 84.2387ZM47.1702 80.5791C48.3121 80.9079 50.0597 81.574 51.02 82.0412L50.7172 82.7766C49.731 82.2489 48.1132 81.6346 47.1702 81.3405V80.5791ZM54.1951 78.6066C54.446 78.6326 54.6969 78.6499 54.9824 78.6499C55.4841 78.6499 58.0017 78.6499 58.4862 78.6499C58.7284 78.6499 59.0399 78.6326 59.2908 78.6066V79.3247C59.0312 79.3074 58.7284 79.2901 58.4862 79.2901C58.0017 79.2901 55.4841 79.2901 54.991 79.2901C54.7055 79.2901 54.42 79.3074 54.1951 79.3247V78.6066ZM53.1656 80.7781C53.3992 80.8041 53.6501 80.8127 53.9182 80.8127C54.42 80.8127 59.1177 80.8127 59.5763 80.8127C59.7579 80.8127 60.0434 80.8041 60.2597 80.7781V81.4875C60.0607 81.4789 59.7925 81.4702 59.5763 81.4702C59.1177 81.4702 54.42 81.4702 53.9182 81.4702C53.6587 81.4702 53.3992 81.4789 53.1656 81.4962V80.7781ZM57.2404 81.1242C57.2404 82.2142 57.102 83.114 56.7126 83.8407C56.4012 84.4204 55.7437 85.0346 55.017 85.4153L54.3768 84.9481C55.0429 84.6626 55.6658 84.1695 56.0032 83.6158C56.4358 82.9323 56.505 82.0845 56.5137 81.1328L57.2404 81.1242ZM64.3778 78.8835C64.3345 78.6672 64.2826 78.4768 64.2221 78.2952L64.992 78.1654C65.0093 78.3211 65.0439 78.572 65.0786 78.7623C65.1305 79.143 66.0821 83.8926 66.2032 84.4636C66.2638 84.7059 66.333 85 66.4195 85.2509L65.6236 85.398C65.5803 85.1038 65.5544 84.8356 65.4938 84.5847C65.4073 84.0397 64.4816 79.3333 64.3778 78.8835ZM61.9381 80.1379C62.1544 80.1206 62.388 80.1033 62.6648 80.0774C63.4434 79.9908 66.4282 79.515 67.2501 79.3506C67.5009 79.3074 67.7259 79.2555 67.873 79.2122L68.0114 79.9389C67.8816 79.9476 67.6221 79.9908 67.3885 80.0254C66.4974 80.1639 63.5473 80.631 62.7859 80.7608C62.5523 80.8041 62.3447 80.8473 62.0938 80.9079L61.9381 80.1379ZM61.9121 82.6295C62.1198 82.6209 62.4485 82.5863 62.6735 82.5517C63.5992 82.4305 66.8175 81.9028 67.8557 81.7125C68.1844 81.6519 68.4353 81.5913 68.617 81.5394L68.764 82.2662C68.5824 82.2835 68.3055 82.3354 67.9854 82.3873C66.8348 82.5603 63.7116 83.0707 62.8378 83.2265C62.5004 83.287 62.2582 83.3389 62.0679 83.3908L61.9121 82.6295ZM76.2971 79.2209C76.2451 79.2901 76.1327 79.4804 76.0894 79.5929C75.7434 80.4494 75.0859 81.6606 74.3678 82.4565C73.3988 83.5379 72.1617 84.5674 70.7948 85.1903L70.2411 84.6107C71.6426 84.0743 72.9144 83.0361 73.8054 82.0499C74.3937 81.3837 75.0253 80.3542 75.2502 79.6361C74.9388 79.6361 72.1703 79.6361 71.8762 79.6361C71.5647 79.6361 71.0976 79.6707 71.0024 79.6794V78.9008C71.1149 78.9181 71.608 78.9527 71.8762 78.9527C72.2136 78.9527 74.8869 78.9527 75.2156 78.9527C75.4925 78.9527 75.7261 78.9267 75.8645 78.8835L76.2971 79.2209ZM74.4803 82.0066C75.4146 82.7852 76.5652 83.9964 77.1535 84.7145L76.5566 85.2422C75.9337 84.4204 74.9215 83.313 73.9871 82.4911L74.4803 82.0066ZM80.9429 84.2387C80.9429 83.7542 80.9429 79.9303 80.9429 79.2122C80.9429 78.9613 80.9255 78.5807 80.8823 78.3038H81.7301C81.6955 78.572 81.6696 78.944 81.6696 79.2122C81.6696 80.5532 81.6782 83.8321 81.6782 84.2387C81.6782 84.5155 81.6955 84.9827 81.7301 85.2682H80.8909C80.9342 84.9913 80.9429 84.5588 80.9429 84.2387ZM81.5138 80.5791C82.6558 80.9079 84.4034 81.574 85.3637 82.0412L85.0609 82.7766C84.0747 82.2489 82.4568 81.6346 81.5138 81.3405V80.5791ZM88.5388 78.6066C88.7897 78.6326 89.0406 78.6499 89.3261 78.6499C89.8278 78.6499 92.3454 78.6499 92.8299 78.6499C93.0721 78.6499 93.3836 78.6326 93.6345 78.6066V79.3247C93.3749 79.3074 93.0721 79.2901 92.8299 79.2901C92.3454 79.2901 89.8278 79.2901 89.3347 79.2901C89.0492 79.2901 88.7637 79.3074 88.5388 79.3247V78.6066ZM87.5093 80.7781C87.7428 80.8041 87.9937 80.8127 88.2619 80.8127C88.7637 80.8127 93.4614 80.8127 93.9199 80.8127C94.1016 80.8127 94.3871 80.8041 94.6034 80.7781V81.4875C94.4044 81.4789 94.1362 81.4702 93.9199 81.4702C93.4614 81.4702 88.7637 81.4702 88.2619 81.4702C88.0024 81.4702 87.7428 81.4789 87.5093 81.4962V80.7781ZM91.5841 81.1242C91.5841 82.2142 91.4456 83.114 91.0563 83.8407C90.7449 84.4204 90.0874 85.0346 89.3607 85.4153L88.7205 84.9481C89.3866 84.6626 90.0095 84.1695 90.3469 83.6158C90.7795 82.9323 90.8487 82.0845 90.8574 81.1328L91.5841 81.1242ZM98.7215 78.8835C98.6782 78.6672 98.6263 78.4768 98.5658 78.2952L99.3357 78.1654C99.353 78.3211 99.3876 78.572 99.4222 78.7623C99.4742 79.143 100.426 83.8926 100.547 84.4636C100.607 84.7059 100.677 85 100.763 85.2509L99.9673 85.398C99.924 85.1038 99.8981 84.8356 99.8375 84.5847C99.751 84.0397 98.8253 79.3333 98.7215 78.8835ZM96.2818 80.1379C96.4981 80.1206 96.7317 80.1033 97.0085 80.0774C97.7871 79.9908 100.772 79.515 101.594 79.3506C101.845 79.3074 102.07 79.2555 102.217 79.2122L102.355 79.9389C102.225 79.9476 101.966 79.9908 101.732 80.0254C100.841 80.1639 97.8909 80.631 97.1296 80.7608C96.896 80.8041 96.6884 80.8473 96.4375 80.9079L96.2818 80.1379ZM96.2558 82.6295C96.4635 82.6209 96.7922 82.5863 97.0172 82.5517C97.9429 82.4305 101.161 81.9028 102.199 81.7125C102.528 81.6519 102.779 81.5913 102.961 81.5394L103.108 82.2662C102.926 82.2835 102.649 82.3354 102.329 82.3873C101.178 82.5603 98.0553 83.0707 97.1815 83.2265C96.8441 83.287 96.6019 83.3389 96.4116 83.3908L96.2558 82.6295ZM110.641 79.2209C110.589 79.2901 110.476 79.4804 110.433 79.5929C110.087 80.4494 109.43 81.6606 108.711 82.4565C107.743 83.5379 106.505 84.5674 105.138 85.1903L104.585 84.6107C105.986 84.0743 107.258 83.0361 108.149 82.0499C108.737 81.3837 109.369 80.3542 109.594 79.6361C109.282 79.6361 106.514 79.6361 106.22 79.6361C105.908 79.6361 105.441 79.6707 105.346 79.6794V78.9008C105.459 78.9181 105.952 78.9527 106.22 78.9527C106.557 78.9527 109.231 78.9527 109.559 78.9527C109.836 78.9527 110.07 78.9267 110.208 78.8835L110.641 79.2209ZM108.824 82.0066C109.758 82.7852 110.909 83.9964 111.497 84.7145L110.9 85.2422C110.277 84.4204 109.265 83.313 108.331 82.4911L108.824 82.0066ZM115.287 84.2387C115.287 83.7542 115.287 79.9303 115.287 79.2122C115.287 78.9613 115.269 78.5807 115.226 78.3038H116.074C116.039 78.572 116.013 78.944 116.013 79.2122C116.013 80.5532 116.022 83.8321 116.022 84.2387C116.022 84.5155 116.039 84.9827 116.074 85.2682H115.235C115.278 84.9913 115.287 84.5588 115.287 84.2387ZM115.858 80.5791C117 80.9079 118.747 81.574 119.707 82.0412L119.405 82.7766C118.418 82.2489 116.801 81.6346 115.858 81.3405V80.5791ZM122.882 78.6066C123.133 78.6326 123.384 78.6499 123.67 78.6499C124.172 78.6499 126.689 78.6499 127.174 78.6499C127.416 78.6499 127.727 78.6326 127.978 78.6066V79.3247C127.719 79.3074 127.416 79.2901 127.174 79.2901C126.689 79.2901 124.172 79.2901 123.678 79.2901C123.393 79.2901 123.107 79.3074 122.882 79.3247V78.6066ZM121.853 80.7781C122.087 80.8041 122.337 80.8127 122.606 80.8127C123.107 80.8127 127.805 80.8127 128.264 80.8127C128.445 80.8127 128.731 80.8041 128.947 80.7781V81.4875C128.748 81.4789 128.48 81.4702 128.264 81.4702C127.805 81.4702 123.107 81.4702 122.606 81.4702C122.346 81.4702 122.087 81.4789 121.853 81.4962V80.7781ZM125.928 81.1242C125.928 82.2142 125.789 83.114 125.4 83.8407C125.089 84.4204 124.431 85.0346 123.704 85.4153L123.064 84.9481C123.73 84.6626 124.353 84.1695 124.691 83.6158C125.123 82.9323 125.192 82.0845 125.201 81.1328L125.928 81.1242ZM133.065 78.8835C133.022 78.6672 132.97 78.4768 132.909 78.2952L133.679 78.1654C133.697 78.3211 133.731 78.572 133.766 78.7623C133.818 79.143 134.769 83.8926 134.891 84.4636C134.951 84.7059 135.02 85 135.107 85.2509L134.311 85.398C134.268 85.1038 134.242 84.8356 134.181 84.5847C134.095 84.0397 133.169 79.3333 133.065 78.8835ZM130.625 80.1379C130.842 80.1206 131.075 80.1033 131.352 80.0774C132.131 79.9908 135.116 79.515 135.937 79.3506C136.188 79.3074 136.413 79.2555 136.56 79.2122L136.699 79.9389C136.569 79.9476 136.309 79.9908 136.076 80.0254C135.185 80.1639 132.235 80.631 131.473 80.7608C131.24 80.8041 131.032 80.8473 130.781 80.9079L130.625 80.1379ZM130.6 82.6295C130.807 82.6209 131.136 82.5863 131.361 82.5517C132.287 82.4305 135.505 81.9028 136.543 81.7125C136.872 81.6519 137.123 81.5913 137.304 81.5394L137.451 82.2662C137.27 82.2835 136.993 82.3354 136.673 82.3873C135.522 82.5603 132.399 83.0707 131.525 83.2265C131.188 83.287 130.946 83.3389 130.755 83.3908L130.6 82.6295ZM144.984 79.2209C144.933 79.2901 144.82 79.4804 144.777 79.5929C144.431 80.4494 143.773 81.6606 143.055 82.4565C142.086 83.5379 140.849 84.5674 139.482 85.1903L138.928 84.6107C140.33 84.0743 141.602 83.0361 142.493 82.0499C143.081 81.3837 143.713 80.3542 143.938 79.6361C143.626 79.6361 140.858 79.6361 140.564 79.6361C140.252 79.6361 139.785 79.6707 139.69 79.6794V78.9008C139.802 78.9181 140.295 78.9527 140.564 78.9527C140.901 78.9527 143.574 78.9527 143.903 78.9527C144.18 78.9527 144.413 78.9267 144.552 78.8835L144.984 79.2209ZM143.168 82.0066C144.102 82.7852 145.253 83.9964 145.841 84.7145L145.244 85.2422C144.621 84.4204 143.609 83.313 142.675 82.4911L143.168 82.0066ZM149.63 84.2387C149.63 83.7542 149.63 79.9303 149.63 79.2122C149.63 78.9613 149.613 78.5807 149.57 78.3038H150.418C150.383 78.572 150.357 78.944 150.357 79.2122C150.357 80.5532 150.366 83.8321 150.366 84.2387C150.366 84.5155 150.383 84.9827 150.418 85.2682H149.578C149.622 84.9913 149.63 84.5588 149.63 84.2387ZM150.201 80.5791C151.343 80.9079 153.091 81.574 154.051 82.0412L153.748 82.7766C152.762 82.2489 151.144 81.6346 150.201 81.3405V80.5791ZM157.226 78.6066C157.477 78.6326 157.728 78.6499 158.013 78.6499C158.515 78.6499 161.033 78.6499 161.517 78.6499C161.759 78.6499 162.071 78.6326 162.322 78.6066V79.3247C162.062 79.3074 161.759 79.2901 161.517 79.2901C161.033 79.2901 158.515 79.2901 158.022 79.2901C157.737 79.2901 157.451 79.3074 157.226 79.3247V78.6066ZM156.197 80.7781C156.43 80.8041 156.681 80.8127 156.949 80.8127C157.451 80.8127 162.149 80.8127 162.607 80.8127C162.789 80.8127 163.075 80.8041 163.291 80.7781V81.4875C163.092 81.4789 162.824 81.4702 162.607 81.4702C162.149 81.4702 157.451 81.4702 156.949 81.4702C156.69 81.4702 156.43 81.4789 156.197 81.4962V80.7781ZM160.271 81.1242C160.271 82.2142 160.133 83.114 159.744 83.8407C159.432 84.4204 158.775 85.0346 158.048 85.4153L157.408 84.9481C158.074 84.6626 158.697 84.1695 159.034 83.6158C159.467 82.9323 159.536 82.0845 159.545 81.1328L160.271 81.1242ZM167.409 78.8835C167.366 78.6672 167.314 78.4768 167.253 78.2952L168.023 78.1654C168.04 78.3211 168.075 78.572 168.11 78.7623C168.162 79.143 169.113 83.8926 169.234 84.4636C169.295 84.7059 169.364 85 169.451 85.2509L168.655 85.398C168.611 85.1038 168.585 84.8356 168.525 84.5847C168.438 84.0397 167.513 79.3333 167.409 78.8835ZM164.969 80.1379C165.185 80.1206 165.419 80.1033 165.696 80.0774C166.475 79.9908 169.459 79.515 170.281 79.3506C170.532 79.3074 170.757 79.2555 170.904 79.2122L171.042 79.9389C170.913 79.9476 170.653 79.9908 170.42 80.0254C169.528 80.1639 166.578 80.631 165.817 80.7608C165.583 80.8041 165.376 80.8473 165.125 80.9079L164.969 80.1379ZM164.943 82.6295C165.151 82.6209 165.48 82.5863 165.705 82.5517C166.63 82.4305 169.849 81.9028 170.887 81.7125C171.215 81.6519 171.466 81.5913 171.648 81.5394L171.795 82.2662C171.613 82.2835 171.337 82.3354 171.016 82.3873C169.866 82.5603 166.743 83.0707 165.869 83.2265C165.532 83.287 165.289 83.3389 165.099 83.3908L164.943 82.6295Z" fill="black"/>
<g filter="url(#filter1_d_1638_10520)">
<rect x="19" y="117" width="150" height="20.6866" rx="10.3433" fill="#00ABB6" shape-rendering="crispEdges"/>
<path d="M90.8921 127.033H91.7013V130.946H90.8921V127.033ZM89.1333 127.869H93.4333V128.598H89.1333V127.869ZM91.8551 128.19C92.2229 128.919 92.9318 129.662 93.6273 130.063C93.4467 130.217 93.1926 130.504 93.0588 130.705C92.3566 130.203 91.6678 129.301 91.2532 128.411L91.8551 128.19ZM90.7851 128.13L91.4137 128.351C90.979 129.294 90.2367 130.183 89.4476 130.685C89.3205 130.491 89.0664 130.203 88.8925 130.05C89.6549 129.655 90.3972 128.893 90.7851 128.13ZM90.337 125.663V126.559H92.3031V125.663H90.337ZM89.5747 124.96H93.1056V127.268H89.5747V124.96ZM88.6986 124.679L89.4476 124.92C88.9995 126.057 88.284 127.254 87.5417 128.01C87.4748 127.823 87.2541 127.381 87.1204 127.187C87.7423 126.585 88.3442 125.636 88.6986 124.679ZM88.0566 126.532L88.8123 125.77L88.819 125.776V130.926H88.0566V126.532ZM96.0147 128.511H100.114V129.254H96.0147V128.511ZM96.5363 126.826H99.0909V127.548H96.5363V126.826ZM97.72 127.956H98.5292V130.096C98.5292 130.498 98.4623 130.705 98.1747 130.825C97.8939 130.939 97.4993 130.946 96.9643 130.946C96.9309 130.712 96.8372 130.397 96.7369 130.177C97.078 130.19 97.4725 130.19 97.5795 130.19C97.6865 130.183 97.72 130.163 97.72 130.076V127.956ZM98.8903 126.826H99.0909L99.2581 126.779L99.7597 127.181C99.3517 127.642 98.7967 128.17 98.2884 128.511C98.1881 128.371 97.9808 128.15 97.8604 128.043C98.2416 127.769 98.6964 127.281 98.8903 126.973V126.826ZM94.0553 125.535H100.02V126.305H94.0553V125.535ZM96.1484 124.659L96.9977 124.867C96.5029 126.492 95.6602 128.124 94.2224 129.107C94.1355 128.886 93.9483 128.518 93.8212 128.317C95.0383 127.522 95.8007 126.017 96.1484 124.659ZM94.8109 127.455H95.6268V130.939H94.8109V127.455Z" fill="white"/>
</g>
<path d="M27.1013 103.052V99.0289C27.1013 98.6601 26.7368 98.3584 26.2912 98.3584H21.4304C20.9848 98.3584 20.6203 98.6601 20.6203 99.0289V103.052C20.6203 103.42 20.9848 103.722 21.4304 103.722H26.2912C26.7368 103.722 27.1013 103.42 27.1013 103.052ZM22.6456 101.711L23.4679 102.619L24.6709 101.375L26.2912 103.052H21.4304L22.6456 101.711ZM19 99.6993V104.392C19 104.761 19.3646 105.063 19.8101 105.063H25.4811V104.392H19.8101V99.6993H19Z" fill="#00ABB6"/>
<path d="M30.9363 99.3933H36.6888V100.935H36.0251V99.9833H31.5666V100.935H30.9363V99.3933ZM32.5857 100.714H35.6161V101.264H32.5857V100.714ZM32.3845 101.968H35.1602V102.524H32.3845V101.968ZM30.8022 103.208H36.8229V103.791H30.8022V103.208ZM34.9926 101.968H35.6295C35.6295 101.968 35.6161 102.156 35.6027 102.243C35.4552 104.026 35.2943 104.75 35.0194 105.018C34.8451 105.199 34.6708 105.253 34.3959 105.273C34.1612 105.287 33.7321 105.287 33.2963 105.26C33.2829 105.085 33.1958 104.831 33.0818 104.663C33.5377 104.703 33.9936 104.71 34.1679 104.71C34.3154 104.71 34.4026 104.697 34.4898 104.63C34.7043 104.442 34.8585 103.718 34.9926 102.068V101.968ZM32.418 99.9967L33.055 100.057C32.9008 100.935 32.6594 102.062 32.4851 102.739L31.8415 102.685C32.0359 101.995 32.2772 100.855 32.418 99.9967ZM41.3284 104.475L41.7441 104.073C42.4883 104.321 43.3196 104.636 43.8225 104.864L43.2861 105.287C42.8302 105.059 42.0726 104.737 41.3284 104.475ZM37.7951 103.503H43.7621V104.033H37.7951V103.503ZM37.9895 99.581H43.6079V100.117H37.9895V99.581ZM40.43 99.0446H41.0937V100.714H40.43V99.0446ZM39.4042 101.639V102.015H42.2402V101.639H39.4042ZM39.4042 102.39V102.779H42.2402V102.39H39.4042ZM39.4042 100.888V101.257H42.2402V100.888H39.4042ZM38.7941 100.486H42.8838V103.168H38.7941V100.486ZM39.7059 104.093L40.249 104.462C39.7193 104.784 38.8745 105.119 38.2108 105.287C38.1102 105.166 37.9158 104.971 37.7817 104.851C38.4521 104.683 39.2835 104.368 39.7059 104.093ZM47.7513 101.391C48.1737 101.391 48.5224 101.74 48.5224 102.162C48.5224 102.591 48.1737 102.94 47.7513 102.94C47.3222 102.94 46.9736 102.591 46.9736 102.162C46.9736 101.74 47.3222 101.391 47.7513 101.391ZM51.8009 103.416H54.8917V103.879H51.8009V103.416ZM51.6333 100.198H54.9855V100.674H51.6333V100.198ZM53.0345 99.648H53.6111V104.529H53.0345V99.648ZM51.6132 104.502C52.4378 104.435 53.705 104.328 54.9051 104.207L54.9118 104.697C53.772 104.831 52.5585 104.958 51.6936 105.045L51.6132 104.502ZM52.3373 102.243V102.652H54.3352V102.243H52.3373ZM52.3373 101.445V101.847H54.3352V101.445H52.3373ZM51.821 101.029H54.8649V103.067H51.821V101.029ZM54.59 99.105L54.885 99.5877C54.067 99.762 52.8334 99.8693 51.8277 99.8961C51.8009 99.762 51.7405 99.5609 51.6802 99.4335C52.6792 99.3866 53.8726 99.2659 54.59 99.105ZM54.952 100.6H57.3321V101.183H54.952V100.6ZM57.0774 100.6H57.6875C57.6875 100.6 57.6875 100.821 57.6875 100.895C57.6137 103.698 57.5534 104.656 57.3321 104.945C57.2048 105.146 57.0573 105.206 56.8494 105.24C56.6483 105.266 56.3332 105.266 56.018 105.253C56.0046 105.079 55.9376 104.817 55.837 104.643C56.1454 104.67 56.427 104.676 56.5544 104.676C56.6617 104.676 56.7287 104.656 56.7891 104.569C56.95 104.361 57.017 103.403 57.0774 100.741V100.6ZM55.6895 99.1519H56.2996C56.2929 101.901 56.2862 104.113 54.7107 105.32C54.6168 105.173 54.4023 104.958 54.2548 104.851C55.7365 103.765 55.6828 101.747 55.6895 99.1519ZM59.263 104.267H64.1171V104.871H59.263V104.267ZM58.7066 99.4737H64.687V100.07H58.7066V99.4737ZM58.9144 100.64H59.5312V105.273H58.9144V100.64ZM63.8691 100.64H64.4859V105.26H63.8691V100.64ZM61.3482 99.6547H61.9918V100.982H61.3482V99.6547ZM61.3951 100.962H61.9449V103.55H61.3951V100.962ZM60.604 102.491V103.235H62.7427V102.491H60.604ZM60.604 101.25V101.995H62.7427V101.25H60.604ZM60.0743 100.727H63.2925V103.765H60.0743V100.727ZM68.4751 99.3798C68.4215 99.6346 68.341 100.01 68.16 100.479C68.0058 100.848 67.7778 101.271 67.5499 101.586C67.7711 101.465 68.1466 101.391 68.408 101.391C68.9444 101.391 69.3534 101.706 69.3534 102.29C69.3534 102.638 69.3735 103.396 69.3802 103.812H68.7366C68.7634 103.476 68.7701 102.833 68.7634 102.484C68.7634 102.075 68.4952 101.914 68.1734 101.914C67.7711 101.914 67.3487 102.129 67.0671 102.39C66.866 102.585 66.6783 102.826 66.4503 103.108L65.8804 102.685C66.8057 101.814 67.2817 101.063 67.5297 100.419C67.6705 100.05 67.7577 99.648 67.7778 99.3195L68.4751 99.3798ZM66.0816 100.057C66.4302 100.104 66.9129 100.131 67.2347 100.131C68.1265 100.131 69.3132 100.077 70.2719 99.9095L70.2652 100.526C69.3266 100.667 68.0326 100.721 67.1945 100.721C66.9129 100.721 66.4503 100.707 66.0816 100.681V100.057ZM71.2843 101.8C71.0966 101.854 70.8016 101.968 70.6004 102.042C70.1445 102.223 69.521 102.471 68.8774 102.799C68.2404 103.134 67.8315 103.463 67.8315 103.885C67.8315 104.341 68.2605 104.428 68.9377 104.428C69.4808 104.428 70.2116 104.361 70.8016 104.254L70.7815 104.938C70.2987 104.998 69.521 105.052 68.9176 105.052C67.9186 105.052 67.1476 104.824 67.1476 103.986C67.1476 103.121 68.0326 102.598 68.8371 102.189C69.4607 101.861 69.9501 101.673 70.3792 101.478C70.6071 101.378 70.8016 101.291 71.0161 101.177L71.2843 101.8ZM74.9316 102.786L75.4411 102.96C75.2869 103.543 75.0321 104.194 74.5762 104.603L74.1136 104.234C74.5226 103.892 74.7908 103.322 74.9316 102.786ZM76.534 103.087L77.0033 102.913C77.2312 103.356 77.4257 103.939 77.4927 104.328L76.9832 104.522C76.9295 104.127 76.7418 103.537 76.534 103.087ZM77.3653 102.94L77.8615 102.692C78.2704 103.195 78.6593 103.879 78.8269 104.341L78.2905 104.623C78.143 104.153 77.7542 103.45 77.3653 102.94ZM77.2312 100.955C77.5463 101.559 78.1699 102.115 78.8403 102.383C78.6995 102.504 78.5118 102.732 78.4179 102.893C77.7005 102.551 77.0569 101.874 76.6882 101.136L77.2312 100.955ZM75.9708 99.8291L76.6144 99.9296C76.2591 101.405 75.5216 102.383 74.355 102.98C74.2745 102.846 74.06 102.591 73.9326 102.477C75.0388 101.988 75.7026 101.116 75.9708 99.8291ZM77.8883 99.105L78.371 99.6011C77.3519 99.9095 75.83 100.05 74.5427 100.097C74.5226 99.943 74.4421 99.7017 74.3751 99.5542C75.6221 99.5005 77.077 99.353 77.8883 99.105ZM74.1605 100.687H78.6593V101.264H74.1605V100.687ZM75.7696 102.102H76.3529V104.616C76.3529 104.911 76.306 105.079 76.0982 105.173C75.9037 105.266 75.602 105.266 75.1595 105.266C75.1394 105.106 75.0657 104.871 74.9919 104.703C75.2936 104.71 75.5752 104.71 75.6557 104.71C75.7428 104.703 75.7696 104.683 75.7696 104.609V102.102ZM72.8263 99.5609L73.1884 99.105C73.5705 99.2793 74.0466 99.5542 74.2879 99.7821L73.9058 100.292C73.6845 100.064 73.2152 99.7486 72.8263 99.5609ZM72.5112 101.385L72.8599 100.915C73.2554 101.069 73.7449 101.331 73.9862 101.545L73.6175 102.055C73.3895 101.84 72.9068 101.552 72.5112 101.385ZM72.652 104.844C72.9269 104.341 73.3091 103.51 73.5907 102.759L74.1002 103.114C73.8454 103.798 73.5236 104.576 73.2286 105.199L72.652 104.844ZM81.5892 100.526H85.6991V101.17H81.5892V100.526ZM84.2442 99.1318H84.8945V104.462C84.8945 104.904 84.7805 105.085 84.499 105.179C84.204 105.28 83.7279 105.293 82.9904 105.287C82.9569 105.112 82.8429 104.824 82.7424 104.656C83.2921 104.676 83.862 104.676 84.0229 104.67C84.1838 104.663 84.2442 104.616 84.2442 104.462V99.1318ZM81.9579 102.035L82.5144 101.773C82.8429 102.283 83.2787 102.967 83.4866 103.376L82.8899 103.691C82.7021 103.275 82.2797 102.565 81.9579 102.035ZM80.4494 100.942L81.0863 100.305L81.093 100.312V105.26H80.4494V100.942ZM81.1534 99.0916L81.7769 99.286C81.321 100.453 80.6103 101.639 79.8594 102.404C79.7857 102.249 79.5912 101.907 79.4772 101.753C80.1477 101.116 80.7712 100.111 81.1534 99.0916ZM90.8012 102.162C90.8012 100.801 91.3577 99.7352 92.1287 98.9642L92.6316 99.2055C91.9008 99.9698 91.4046 100.929 91.4046 102.162C91.4046 103.403 91.9008 104.361 92.6316 105.126L92.1287 105.367C91.3577 104.596 90.8012 103.53 90.8012 102.162ZM94.8776 104.448H98.317V105.012H94.8776V104.448ZM95.6821 98.991L96.2855 99.1988C95.7358 100.124 94.8642 100.962 94.0194 101.485C93.9188 101.364 93.6842 101.123 93.5434 101.022C94.3949 100.56 95.2128 99.8089 95.6821 98.991ZM98.1293 99.7285H98.2634L98.3707 99.695L98.8199 99.99C97.8209 101.592 95.6553 102.585 93.6976 103.027C93.6373 102.86 93.4965 102.598 93.3825 102.457C95.2195 102.102 97.3113 101.15 98.1293 99.8291V99.7285ZM95.2396 100.07C96.1179 101.197 97.8611 102.075 99.7451 102.41C99.5976 102.551 99.4233 102.819 99.3294 102.994C97.4387 102.598 95.7224 101.646 94.71 100.318L95.2396 100.07ZM94.5491 102.826H98.5852V105.273H97.9148V103.403H95.186V105.3H94.5491V102.826ZM95.5279 99.7285H98.2768V100.285H95.1458L95.5279 99.7285ZM102.447 104.71V101.492C102.447 101.23 102.467 100.808 102.487 100.54H102.454C102.333 100.788 102.199 101.049 102.058 101.304L101.093 102.786H103.801V103.389H100.315V102.866L102.273 99.7754H103.171V104.71H102.447ZM107.873 100.332H110.689V100.929H107.873V100.332ZM108.021 100.627C108.309 102.202 108.979 103.979 110.79 104.71C110.655 104.837 110.441 105.119 110.347 105.3C108.523 104.448 107.853 102.578 107.551 100.976L108.021 100.627ZM109.616 100.546L110.3 100.647C109.925 102.705 109.18 104.428 107.122 105.293C107.042 105.152 106.854 104.904 106.733 104.777C108.671 104.013 109.341 102.424 109.616 100.546ZM108.061 99.0446L108.718 99.172C108.43 100.426 107.927 101.586 107.223 102.33C107.142 102.182 106.928 101.881 106.794 101.74C107.417 101.123 107.833 100.124 108.061 99.0446ZM104.595 100.466H107.062V101.069H104.595V100.466ZM105.587 99.0513H106.197V105.273H105.587V99.0513ZM105.553 100.862L105.942 100.996C105.728 102.102 105.258 103.463 104.742 104.167C104.675 103.986 104.528 103.738 104.427 103.584C104.903 102.96 105.366 101.814 105.553 100.862ZM106.13 101.579C106.344 101.8 107.122 102.792 107.29 103.027L106.921 103.537C106.7 103.114 106.096 102.223 105.835 101.874L106.13 101.579ZM115.154 99.3463C115.134 99.4737 115.121 99.6212 115.114 99.8089C115.101 100.111 115.101 101.029 115.101 101.592C115.101 102.417 115.201 103.61 115.201 104.093C115.201 104.603 114.839 105.065 113.961 105.065C112.948 105.065 112.405 104.697 112.405 104.019C112.405 103.382 113.009 102.94 114.001 102.94C115.443 102.94 116.542 103.691 117.078 104.133L116.696 104.73C116.073 104.153 115.094 103.49 113.921 103.49C113.351 103.49 113.042 103.711 113.042 103.986C113.042 104.274 113.297 104.469 113.874 104.469C114.242 104.469 114.531 104.361 114.531 103.926C114.531 103.463 114.464 102.216 114.464 101.592C114.464 100.976 114.47 100.205 114.47 99.7754C114.47 99.6547 114.457 99.4536 114.437 99.3463H115.154ZM112.493 100.03C112.948 100.111 113.753 100.178 114.182 100.178C115.06 100.178 115.952 100.124 116.871 99.9766L116.864 100.587C116.14 100.674 115.134 100.761 114.189 100.761C113.74 100.761 112.935 100.701 112.506 100.647L112.493 100.03ZM112.459 101.465C112.922 101.545 113.713 101.592 114.115 101.592C115.201 101.592 116.086 101.519 116.938 101.398L116.931 102.028C116.012 102.142 115.235 102.182 114.108 102.182C113.679 102.182 112.928 102.149 112.466 102.095L112.459 101.465ZM118.714 100.218C118.976 100.211 119.21 100.198 119.338 100.184C119.827 100.137 121.027 100.023 122.254 99.9229C122.972 99.8626 123.642 99.8223 124.105 99.8022L124.112 100.479C123.736 100.479 123.153 100.486 122.804 100.58C121.912 100.848 121.316 101.8 121.316 102.598C121.316 103.818 122.455 104.227 123.568 104.274L123.32 104.985C122.006 104.918 120.632 104.221 120.632 102.739C120.632 101.733 121.229 100.915 121.772 100.56C121.094 100.634 119.532 100.788 118.788 100.949L118.714 100.218ZM123.146 101.23C123.307 101.458 123.555 101.874 123.689 102.156L123.273 102.343C123.113 102.001 122.945 101.693 122.737 101.405L123.146 101.23ZM123.884 100.935C124.051 101.163 124.313 101.566 124.46 101.847L124.044 102.048C123.877 101.706 123.696 101.411 123.488 101.123L123.884 100.935ZM127.323 102.162C127.323 103.53 126.767 104.596 125.995 105.367L125.493 105.126C126.223 104.361 126.72 103.403 126.72 102.162C126.72 100.929 126.223 99.9698 125.493 99.2055L125.995 98.9642C126.767 99.7352 127.323 100.801 127.323 102.162Z" fill="#00ABB6"/>
<rect x="18.5" y="115.5" width="150" height="24" rx="3.5" stroke="#FF0000"/>
<defs>
<filter id="filter0_d_1638_10520" x="7.26972" y="30" width="174.461" height="67.4606" filterUnits="userSpaceOnUse" color-interpolation-filters="sRGB">
<feFlood flood-opacity="0" result="BackgroundImageFix"/>
<feColorMatrix in="SourceAlpha" type="matrix" values="0 0 0 0 0 0 0 0 0 0 0 0 0 0 0 0 0 0 127 0" result="hardAlpha"/>
<feOffset dy="1.73028"/>
<feGaussianBlur stdDeviation="0.86514"/>
<feComposite in2="hardAlpha" operator="out"/>
<feColorMatrix type="matrix" values="0 0 0 0 0.0156863 0 0 0 0 0.792157 0 0 0 0 0.839216 0 0 0 0.15 0"/>
<feBlend mode="normal" in2="BackgroundImageFix" result="effect1_dropShadow_1638_10520"/>
<feBlend mode="normal" in="SourceGraphic" in2="effect1_dropShadow_1638_10520" result="shape"/>
</filter>
<filter id="filter1_d_1638_10520" x="18.1451" y="117" width="151.71" height="22.3964" filterUnits="userSpaceOnUse" color-interpolation-filters="sRGB">
<feFlood flood-opacity="0" result="BackgroundImageFix"/>
<feColorMatrix in="SourceAlpha" type="matrix" values="0 0 0 0 0 0 0 0 0 0 0 0 0 0 0 0 0 0 127 0" result="hardAlpha"/>
<feOffset dy="0.85493"/>
<feGaussianBlur stdDeviation="0.427465"/>
<feComposite in2="hardAlpha" operator="out"/>
<feColorMatrix type="matrix" values="0 0 0 0 0 0 0 0 0 0 0 0 0 0 0 0 0 0 0.25 0"/>
<feBlend mode="normal" in2="BackgroundImageFix" result="effect1_dropShadow_1638_10520"/>
<feBlend mode="normal" in="SourceGraphic" in2="effect1_dropShadow_1638_10520" result="shape"/>
</filter>
<clipPath id="clip0_1638_10520">
<rect width="52.8297" height="54.4246" fill="white" transform="translate(138.375 51.7725) rotate(-30)"/>
</clipPath>
</defs>
</svg>
