<svg width="28" height="31" viewBox="0 0 28 31" fill="none" xmlns="http://www.w3.org/2000/svg">
<path d="M11.7693 0.5L2.53857 8.41209H4.84627V18.9615H9.46165V13.6868H14.077V18.9615H18.6924V8.33297L21.0001 8.41209L11.7693 0.5Z" fill="#ADADAD"/>
<path d="M4.58443 23.4692C4.56904 23.5769 4.53827 23.8538 4.53827 24.0231C4.53827 24.4308 4.53827 25.0769 4.53827 25.4462C4.53827 26.0769 4.53827 28.5692 4.53827 29.1154C4.53827 29.5231 4.34597 29.7308 3.88443 29.7308C3.55366 29.7308 3.09981 29.7077 2.78443 29.6769L2.73058 29.0615C3.06904 29.1231 3.4152 29.1538 3.62289 29.1538C3.83058 29.1538 3.9152 29.0615 3.92289 28.8615C3.92289 28.4385 3.92289 25.8154 3.92289 25.4462C3.92289 25.1846 3.92289 24.4231 3.92289 24.0154C3.92289 23.8538 3.89212 23.5846 3.86904 23.4692H4.58443ZM1.13058 24.7692C1.34597 24.7923 1.53827 24.8077 1.78443 24.8077C2.23827 24.8077 6.12289 24.8077 6.57674 24.8077C6.75366 24.8077 7.0152 24.8 7.19981 24.7692V25.4077C6.99981 25.3923 6.76904 25.3923 6.58443 25.3923C6.12289 25.3923 2.25366 25.3923 1.78443 25.3923C1.55366 25.3923 1.33058 25.4 1.13058 25.4154V24.7692ZM2.89981 26.5769C2.56904 27.2385 1.85366 28.2154 1.4152 28.6923L0.89212 28.3308C1.39981 27.8538 2.06135 26.9385 2.36135 26.3154L2.89981 26.5769ZM6.1152 26.3231C6.52289 26.8154 7.13827 27.7769 7.44597 28.3308L6.87674 28.6462C6.56904 28.0462 5.99212 27.0846 5.59212 26.6L6.1152 26.3231ZM8.73827 26.1692C8.97674 26.1923 9.37674 26.2154 9.8152 26.2154C10.3767 26.2154 13.4614 26.2154 14.0306 26.2154C14.4152 26.2154 14.6844 26.1846 14.8614 26.1692V26.9231C14.6998 26.9154 14.3767 26.8923 14.0383 26.8923C13.4537 26.8923 10.3844 26.8923 9.8152 26.8923C9.39212 26.8923 8.98443 26.9077 8.73827 26.9231V26.1692ZM19.4362 23.7692C19.3592 23.9538 19.2746 24.1538 19.1669 24.4846C18.9208 25.2692 18.0285 28.0308 17.6977 28.8077L17.0054 28.8308C17.39 27.9462 18.2823 25.1615 18.5131 24.3462C18.6131 23.9923 18.6439 23.8154 18.6669 23.6077L19.4362 23.7692ZM20.8977 26.3462C21.4362 27.1308 22.2823 28.6846 22.5977 29.4769L21.9592 29.7615C21.6516 28.9308 20.8669 27.3308 20.3131 26.6L20.8977 26.3462ZM16.7054 28.6462C17.8131 28.5923 20.5669 28.2846 21.5592 28.1385L21.7285 28.7385C20.6592 28.8769 17.8285 29.1846 16.7439 29.2923C16.5516 29.3077 16.3208 29.3385 16.1054 29.3692L15.9823 28.6615C16.2131 28.6692 16.4823 28.6615 16.7054 28.6462Z" fill="#ADADAD"/>
</svg>
