<svg width="189" height="165" viewBox="0 0 189 165" fill="none" xmlns="http://www.w3.org/2000/svg">
<mask id="path-1-inside-1_1016_10398" fill="white">
<path d="M8 13C8 10.2386 10.2386 8 13 8H176C178.761 8 181 10.2386 181 13V165H8V13Z"/>
</mask>
<path d="M8 13C8 10.2386 10.2386 8 13 8H176C178.761 8 181 10.2386 181 13V165H8V13Z" fill="#EEFEFF"/>
<path d="M7 13C7 9.68629 9.68629 7 13 7H176C179.314 7 182 9.68629 182 13H180C180 10.7909 178.209 9 176 9H13C10.7909 9 9 10.7909 9 13H7ZM181 165H8H181ZM7 165V13C7 9.68629 9.68629 7 13 7V9C10.7909 9 9 10.7909 9 13V165H7ZM176 7C179.314 7 182 9.68629 182 13V165H180V13C180 10.7909 178.209 9 176 9V7Z" fill="#D9D9D9" mask="url(#path-1-inside-1_1016_10398)"/>
<mask id="path-3-inside-2_1016_10398" fill="white">
<path d="M0 8C0 3.58172 3.58172 0 8 0H181C185.418 0 189 3.58172 189 8V165H0V8Z"/>
</mask>
<path d="M-3 8C-3 1.92487 1.92487 -3 8 -3H181C187.075 -3 192 1.92487 192 8H186C186 5.23858 183.761 3 181 3H8C5.23858 3 3 5.23858 3 8H-3ZM189 165H0H189ZM-3 165V8C-3 1.92487 1.92487 -3 8 -3V3C5.23858 3 3 5.23858 3 8V165H-3ZM181 -3C187.075 -3 192 1.92487 192 8V165H186V8C186 5.23858 183.761 3 181 3V-3Z" fill="#A29C9C" fill-opacity="0.5" mask="url(#path-3-inside-2_1016_10398)"/>
<path d="M9 13C9 10.7909 10.7909 9 13 9H176C178.209 9 180 10.7909 180 13V31H9V13Z" fill="#04CAD6"/>
<rect x="18.5" y="13.5" width="25.4615" height="12.2" rx="4.5" fill="#04CAD6"/>
<rect x="18.5" y="13.5" width="25.4615" height="12.2" rx="4.5" stroke="white"/>
<path d="M22.6464 20.3536C22.4512 20.1583 22.4512 19.8417 22.6464 19.6464L25.8284 16.4645C26.0237 16.2692 26.3403 16.2692 26.5355 16.4645C26.7308 16.6597 26.7308 16.9763 26.5355 17.1716L23.7071 20L26.5355 22.8284C26.7308 23.0237 26.7308 23.3403 26.5355 23.5355C26.3403 23.7308 26.0237 23.7308 25.8284 23.5355L22.6464 20.3536ZM24 20.5L23 20.5L23 19.5L24 19.5L24 20.5Z" fill="white"/>
<path d="M31.76 19.848H34.724V20.116H31.76V19.848ZM33.376 19.996C33.576 20.612 34.056 20.944 34.864 21.056C34.796 21.12 34.716 21.244 34.68 21.324C33.824 21.168 33.34 20.78 33.1 20.048L33.376 19.996ZM33.044 19.336H33.348C33.28 20.408 33.08 21.04 31.812 21.332C31.784 21.26 31.704 21.144 31.648 21.088C32.832 20.836 32.984 20.292 33.044 19.336ZM31.596 18.432H31.896V19.252C31.896 19.844 31.82 20.684 31.372 21.256C31.32 21.204 31.188 21.12 31.112 21.088C31.548 20.552 31.596 19.792 31.596 19.244V18.432ZM31.744 18.432H34.488V19.376H31.744V19.136H34.192V18.668H31.744V18.432ZM31.32 17.864H34.7V18.14H31.32V17.864ZM35.952 18.056C36.04 18.064 36.152 18.068 36.232 18.068C36.444 18.068 37.392 18.04 37.604 18.02C37.724 18.008 37.78 18 37.824 17.984L38.008 18.22C37.936 18.268 37.856 18.32 37.78 18.38C37.584 18.532 37.04 19 36.728 19.256C36.912 19.196 37.104 19.176 37.284 19.176C37.948 19.176 38.424 19.572 38.424 20.112C38.424 20.756 37.892 21.176 37.044 21.176C36.5 21.176 36.168 20.94 36.168 20.604C36.168 20.332 36.416 20.084 36.784 20.084C37.316 20.084 37.584 20.46 37.612 20.864L37.324 20.912C37.3 20.572 37.104 20.328 36.784 20.328C36.6 20.328 36.46 20.44 36.46 20.58C36.46 20.776 36.68 20.892 36.996 20.892C37.676 20.892 38.104 20.612 38.104 20.112C38.104 19.716 37.728 19.424 37.204 19.424C36.54 19.424 36.18 19.704 35.676 20.22L35.444 19.988C35.776 19.716 36.292 19.284 36.52 19.088C36.744 18.904 37.248 18.484 37.448 18.304C37.236 18.316 36.436 18.348 36.228 18.36C36.136 18.368 36.048 18.372 35.96 18.384L35.952 18.056Z" fill="white"/>
<path d="M68.352 23V22.576C70.192 20.968 71.032 19.792 71.032 18.792C71.032 18.12 70.688 17.624 69.96 17.624C69.48 17.624 69.064 17.92 68.736 18.304L68.312 17.896C68.792 17.376 69.304 17.032 70.048 17.032C71.096 17.032 71.752 17.712 71.752 18.76C71.752 19.936 70.832 21.128 69.448 22.432C69.76 22.4 70.112 22.376 70.408 22.376H72.032V23H68.352ZM74.6615 23.112C73.5415 23.112 72.8295 22.096 72.8295 20.048C72.8295 18.016 73.5415 17.032 74.6615 17.032C75.7655 17.032 76.4775 18.016 76.4775 20.048C76.4775 22.096 75.7655 23.112 74.6615 23.112ZM74.6615 22.52C75.3255 22.52 75.7735 21.776 75.7735 20.048C75.7735 18.344 75.3255 17.616 74.6615 17.616C73.9895 17.616 73.5335 18.344 73.5335 20.048C73.5335 21.776 73.9895 22.52 74.6615 22.52ZM77.227 23V22.576C79.067 20.968 79.907 19.792 79.907 18.792C79.907 18.12 79.563 17.624 78.835 17.624C78.355 17.624 77.939 17.92 77.611 18.304L77.187 17.896C77.667 17.376 78.179 17.032 78.923 17.032C79.971 17.032 80.627 17.712 80.627 18.76C80.627 19.936 79.707 21.128 78.323 22.432C78.635 22.4 78.987 22.376 79.283 22.376H80.907V23H77.227ZM83.4165 23.112C82.4965 23.112 81.9285 22.728 81.5445 22.304L81.9125 21.824C82.2565 22.184 82.6965 22.504 83.3685 22.504C84.0645 22.504 84.5605 22.08 84.5605 21.408C84.5605 20.704 84.0885 20.24 82.7365 20.24V19.672C83.9445 19.672 84.3525 19.192 84.3525 18.552C84.3525 17.992 83.9765 17.624 83.3685 17.624C82.8965 17.624 82.4805 17.864 82.1525 18.2L81.7605 17.728C82.2005 17.328 82.7205 17.032 83.3925 17.032C84.3765 17.032 85.0965 17.568 85.0965 18.504C85.0965 19.216 84.6805 19.688 84.0565 19.912V19.944C84.7445 20.112 85.3045 20.632 85.3045 21.44C85.3045 22.48 84.4645 23.112 83.4165 23.112ZM85.838 24.432L88.238 16.648H88.758L86.366 24.432H85.838ZM89.5868 23V22.392H90.8908V18.024H89.8428V17.552C90.3708 17.464 90.7468 17.328 91.0588 17.136H91.6188V22.392H92.8028V23H89.5868ZM95.5443 23.112C94.4243 23.112 93.7123 22.096 93.7123 20.048C93.7123 18.016 94.4243 17.032 95.5443 17.032C96.6483 17.032 97.3603 18.016 97.3603 20.048C97.3603 22.096 96.6483 23.112 95.5443 23.112ZM95.5443 22.52C96.2083 22.52 96.6563 21.776 96.6563 20.048C96.6563 18.344 96.2083 17.616 95.5443 17.616C94.8723 17.616 94.4163 18.344 94.4163 20.048C94.4163 21.776 94.8723 22.52 95.5443 22.52ZM97.8458 24.432L100.246 16.648H100.766L98.3738 24.432H97.8458ZM101.595 23V22.392H102.899V18.024H101.851V17.552C102.379 17.464 102.755 17.328 103.067 17.136H103.627V22.392H104.811V23H101.595ZM107.552 23.112C106.432 23.112 105.72 22.096 105.72 20.048C105.72 18.016 106.432 17.032 107.552 17.032C108.656 17.032 109.368 18.016 109.368 20.048C109.368 22.096 108.656 23.112 107.552 23.112ZM107.552 22.52C108.216 22.52 108.664 21.776 108.664 20.048C108.664 18.344 108.216 17.616 107.552 17.616C106.88 17.616 106.424 18.344 106.424 20.048C106.424 21.776 106.88 22.52 107.552 22.52ZM111.678 24.576C110.934 23.376 110.494 22.096 110.494 20.52C110.494 18.952 110.934 17.656 111.678 16.456L112.126 16.672C111.438 17.808 111.102 19.16 111.102 20.52C111.102 21.88 111.438 23.232 112.126 24.368L111.678 24.576ZM114.077 17.904L114.669 18.032C114.533 18.992 114.261 19.968 113.549 20.512L113.029 20.16C113.669 19.672 113.949 18.8 114.077 17.904ZM119.101 17.896L119.749 18.152C119.357 18.904 118.845 19.808 118.437 20.384L117.933 20.152C118.325 19.56 118.829 18.592 119.101 17.896ZM116.429 16.4H116.749V18.992C116.749 19.912 117.317 22.12 120.093 23.096C119.965 23.232 119.781 23.48 119.693 23.656C117.373 22.768 116.589 20.928 116.429 20.152C116.269 20.936 115.541 22.72 113.269 23.656C113.189 23.52 112.989 23.28 112.853 23.152C115.549 22.128 116.109 19.92 116.109 18.992V16.4H116.429ZM121.261 24.576L120.805 24.368C121.493 23.232 121.829 21.88 121.829 20.52C121.829 19.16 121.493 17.808 120.805 16.672L121.261 16.456C121.997 17.656 122.437 18.952 122.437 20.52C122.437 22.096 121.997 23.376 121.261 24.576Z" fill="white"/>
<path d="M158.513 23V22.629C160.123 21.222 160.858 20.193 160.858 19.318C160.858 18.73 160.557 18.296 159.92 18.296C159.5 18.296 159.136 18.555 158.849 18.891L158.478 18.534C158.898 18.079 159.346 17.778 159.997 17.778C160.914 17.778 161.488 18.373 161.488 19.29C161.488 20.319 160.683 21.362 159.472 22.503C159.745 22.475 160.053 22.454 160.312 22.454H161.733V23H158.513ZM163.915 23.098C163.117 23.098 162.627 22.762 162.277 22.412L162.599 21.992C162.886 22.293 163.264 22.566 163.852 22.566C164.461 22.566 164.944 22.097 164.944 21.355C164.944 20.62 164.524 20.179 163.887 20.179C163.544 20.179 163.327 20.291 163.033 20.487L162.69 20.27L162.851 17.869H165.35V18.415H163.411L163.278 19.899C163.509 19.773 163.74 19.696 164.048 19.696C164.902 19.696 165.595 20.2 165.595 21.334C165.595 22.454 164.776 23.098 163.915 23.098ZM167.28 19.661C166.755 19.661 166.293 19.269 166.293 18.667C166.293 18.051 166.755 17.659 167.28 17.659C167.805 17.659 168.267 18.051 168.267 18.667C168.267 19.269 167.805 19.661 167.28 19.661ZM167.28 19.297C167.623 19.297 167.875 19.031 167.875 18.667C167.875 18.289 167.623 18.023 167.28 18.023C166.93 18.023 166.692 18.289 166.692 18.667C166.692 19.031 166.93 19.297 167.28 19.297ZM171.116 23.098C169.814 23.098 168.862 22.118 168.862 20.452C168.862 18.793 169.835 17.792 171.144 17.792C171.76 17.792 172.25 18.093 172.551 18.422L172.18 18.842C171.907 18.555 171.578 18.373 171.158 18.373C170.185 18.373 169.555 19.164 169.555 20.431C169.555 21.712 170.157 22.503 171.13 22.503C171.613 22.503 171.97 22.307 172.292 21.95L172.67 22.356C172.264 22.832 171.76 23.098 171.116 23.098Z" fill="white"/>
<path d="M143.709 15V16.4002M147.04 16.375L146.047 17.365M148.418 19.6979H147.014M147.04 23.0208L146.047 22.0308M143.709 24.3958V22.9956M140.378 23.0208L141.371 22.0308M139 19.6979H140.403M140.378 16.375L141.371 17.365M143.709 17.1771C144.209 17.1771 144.697 17.3249 145.113 17.6019C145.528 17.8789 145.852 18.2726 146.043 18.7332C146.234 19.1939 146.285 19.7007 146.187 20.1897C146.09 20.6787 145.849 21.1279 145.496 21.4804C145.142 21.833 144.692 22.073 144.202 22.1703C143.712 22.2676 143.204 22.2177 142.742 22.0269C142.28 21.8361 141.886 21.513 141.608 21.0984C141.33 20.6839 141.182 20.1965 141.182 19.6979C141.182 19.0293 141.448 18.3882 141.922 17.9154C142.396 17.4427 143.039 17.1771 143.709 17.1771Z" stroke="white" stroke-width="0.520833" stroke-linecap="round" stroke-linejoin="round"/>
<path d="M146.155 19.7738C146.155 21.2318 145.174 22.04 143.85 22.26C142.389 22.26 141.204 21.2318 141.204 19.7738C141.204 18.3158 142.389 17.1338 143.85 17.1338C145.312 17.1338 146.155 18.3158 146.155 19.7738Z" fill="white"/>
<g filter="url(#filter0_d_1016_10398)">
<g clip-path="url(#clip0_1016_10398)">
<g filter="url(#filter1_d_1016_10398)">
<path d="M9 65.1177H180V153.248H9V65.1177Z" fill="white"/>
</g>
</g>
<path d="M9 65.5561H180V64.6792H9V65.5561Z" fill="#04CAD6" mask="url(#path-13-inside-3_1016_10398)"/>
</g>
<path d="M151.293 77.6785L151.612 77.9978L148.467 81.1427H148.148V80.8234L151.293 77.6785ZM152.542 75.5889C152.456 75.5889 152.365 75.6236 152.299 75.6895L151.664 76.3248L152.966 77.6264L153.601 76.9912C153.736 76.8558 153.736 76.6372 153.601 76.5018L152.789 75.6895C152.719 75.6201 152.633 75.5889 152.542 75.5889ZM151.293 76.6962L147.454 80.5353V81.8369H148.755L152.594 77.9978L151.293 76.6962Z" fill="#00ABB6"/>
<path d="M161.286 79.489H161.798V82.2952H161.286V79.489ZM162.092 79.489H162.611V82.2952H162.092V79.489ZM159.637 76.1497H163.622V76.8653H159.637V76.1497ZM160.696 80.4852H163.285V81.0815H160.696V80.4852ZM159.897 77.1739H160.633V78.6472C160.633 79.6995 160.514 81.292 159.819 82.3162C159.693 82.1759 159.37 81.9444 159.202 81.8672C159.84 80.9272 159.897 79.5872 159.897 78.6402V77.1739ZM160.212 77.1739H163.446V78.9629H160.212V78.3034H162.64V77.8404H160.212V77.1739ZM160.423 79.2715H163.355V79.8959H161.005V82.3443H160.423V79.2715ZM162.913 79.2715H163.594V81.6287C163.594 81.9093 163.566 82.0987 163.397 82.218C163.243 82.3232 163.053 82.3443 162.808 82.3443C162.78 82.1478 162.682 81.8672 162.597 81.6778C162.71 81.6848 162.808 81.6848 162.857 81.6848C162.899 81.6848 162.913 81.6708 162.913 81.6147V79.2715ZM158.192 75.7639L158.9 76.0094C158.62 76.5566 158.297 77.181 158.037 77.5738L157.49 77.3493C157.736 76.9284 158.037 76.2479 158.192 75.7639ZM158.942 76.5917L159.609 76.8933C159.118 77.6861 158.479 78.6612 157.967 79.2575L157.497 78.9979C157.995 78.3666 158.599 77.3423 158.942 76.5917ZM157.104 77.3774L157.518 76.8232C157.876 77.1599 158.297 77.6229 158.465 77.9386L158.023 78.57C157.869 78.2262 157.455 77.7282 157.104 77.3774ZM158.732 78.2403L159.286 78.0158C159.539 78.4998 159.784 79.1382 159.847 79.5522L159.258 79.8047C159.202 79.3978 158.978 78.7384 158.732 78.2403ZM157.083 78.8366C157.687 78.8085 158.543 78.7524 159.384 78.6963L159.391 79.3908C158.613 79.4539 157.799 79.5101 157.175 79.5592L157.083 78.8366ZM158.844 80.0222L159.405 79.8538C159.574 80.2537 159.714 80.7798 159.756 81.1236L159.167 81.313C159.139 80.9622 159.006 80.4291 158.844 80.0222ZM157.385 79.8819L158.037 79.9941C157.967 80.6606 157.813 81.3551 157.617 81.8041C157.483 81.7129 157.189 81.5796 157.027 81.5165C157.224 81.1026 157.329 80.4712 157.385 79.8819ZM158.108 79.2084H158.816V82.3443H158.108V79.2084ZM164.569 80.0713H170.911V80.7448H164.569V80.0713ZM165.916 77.4616H170.167V78.0088H165.916V77.4616ZM165.916 78.3034H170.174V78.8506H165.916V78.3034ZM165.747 76.5145H170.518V77.1739H165.747V76.5145ZM167.494 76.9284H168.301V79.3908H167.494V76.9284ZM167.298 79.6223H168.14V82.3373H167.298V79.6223ZM167.235 80.3519L167.866 80.6606C167.143 81.3762 165.937 81.9935 164.87 82.3022C164.751 82.0917 164.513 81.783 164.33 81.6077C165.397 81.3832 166.61 80.8921 167.235 80.3519ZM168.231 80.3309C168.834 80.864 170.02 81.3551 171.072 81.5866C170.897 81.755 170.665 82.0637 170.546 82.2671C169.487 81.9654 168.308 81.3481 167.592 80.6466L168.231 80.3309ZM167.845 75.7568L168.792 75.8691C168.568 76.29 168.315 76.6829 168.119 76.9565L167.375 76.8091C167.55 76.5075 167.747 76.0725 167.845 75.7568ZM166.049 75.7428L166.912 75.9112C166.442 76.732 165.825 77.5387 164.962 78.2333C164.828 78.0438 164.555 77.7843 164.365 77.665C165.151 77.0968 165.726 76.3602 166.049 75.7428ZM165.369 76.9424H166.168V79.1523H170.721V79.7907H165.369V76.9424Z" fill="#00ABB6"/>
<path d="M17.831 81.1427C17.831 81.5245 18.1434 81.8369 18.5252 81.8369H21.3022C21.684 81.8369 21.9964 81.5245 21.9964 81.1427V76.9773H17.831V81.1427ZM18.6849 78.6712L19.1743 78.1818L19.9137 78.9177L20.6496 78.1818L21.139 78.6712L20.4031 79.4071L21.139 80.143L20.6496 80.6324L19.9137 79.8966L19.1778 80.6324L18.6884 80.143L19.4243 79.4071L18.6849 78.6712ZM21.1286 75.936L20.7815 75.5889H19.0459L18.6988 75.936H17.4839V76.6302H22.3435V75.936H21.1286Z" fill="#00ABB6"/>
<path d="M30.397 76.6057H31.2108V80.5483H30.397V76.6057ZM31.9474 75.8901H32.7822V81.313C32.7822 81.8111 32.677 82.0426 32.3964 82.1829C32.1018 82.3162 31.6387 82.3443 30.9933 82.3443C30.9512 82.0987 30.8179 81.7129 30.6917 81.4744C31.1617 81.4884 31.6107 81.4884 31.758 81.4884C31.8913 81.4884 31.9474 81.4463 31.9474 81.313V75.8901ZM27.0858 80.0573H29.7306V80.7658H27.0858V80.0573ZM27.0858 78.8997H29.7306V79.6083H27.0858V78.8997ZM27.8855 75.7498H28.7203V78.2262H27.8855V75.7498ZM29.036 77.679H29.8498V81.3691C29.8498 81.755 29.7867 81.9795 29.5341 82.1058C29.2886 82.239 28.9589 82.2461 28.4608 82.2461C28.4327 82.0216 28.3345 81.6778 28.2363 81.4674C28.5099 81.4814 28.8186 81.4744 28.9168 81.4744C29.008 81.4674 29.036 81.4463 29.036 81.3551V77.679ZM26.5245 76.2619L27.219 76.0234C27.4155 76.4373 27.6119 76.9845 27.6891 77.3493L26.9595 77.6229C26.8963 77.2581 26.7069 76.6829 26.5245 76.2619ZM29.3587 75.9673L30.1936 76.1497C30.0042 76.6688 29.7937 77.216 29.6183 77.5808L28.9168 77.3984C29.0781 77.0126 29.2675 76.4093 29.3587 75.9673ZM26.7981 77.679H29.464V78.4648H27.5979V82.2671H26.7981V77.679ZM36.8021 77.7843H39.5451V78.4718H36.8021V77.7843ZM36.3811 79.1102H40.0572V79.8187H36.3811V79.1102ZM38.149 76.5145C37.7561 77.1178 37.0476 77.8544 36.2969 78.3034C36.2128 78.1 36.0304 77.7983 35.8901 77.6299C36.6477 77.209 37.3913 76.4163 37.7491 75.7639H38.4928C38.9908 76.5005 39.7345 77.216 40.4711 77.5668C40.3097 77.7562 40.1344 78.0579 40.0151 78.2894C39.3276 77.8755 38.5699 77.1318 38.149 76.5145ZM37.7632 78.1491H38.5629V81.4814C38.5629 81.8532 38.4998 82.0707 38.2613 82.197C38.0368 82.3302 37.7281 82.3513 37.3001 82.3513C37.2721 82.1268 37.1528 81.783 37.0406 81.5656C37.3001 81.5726 37.5667 81.5726 37.6579 81.5726C37.7421 81.5726 37.7632 81.5515 37.7632 81.4674V78.1491ZM36.6547 80.0853L37.3843 80.2677C37.1598 80.9131 36.767 81.5656 36.3671 81.9725C36.2338 81.8392 35.9462 81.6006 35.7778 81.4884C36.1566 81.1446 36.4723 80.6185 36.6547 80.0853ZM38.7944 80.3589L39.4328 80.0573C39.7976 80.5273 40.1905 81.1657 40.3378 81.6006L39.6433 81.9444C39.51 81.5235 39.1382 80.857 38.7944 80.3589ZM34.0661 76.0585H35.7217V76.8091H34.8027V82.3513H34.0661V76.0585ZM35.4621 76.0585H35.6024L35.7217 76.0304L36.2689 76.3391C36.0865 76.9424 35.855 77.7071 35.6515 78.2543C36.0865 78.8015 36.1707 79.2715 36.1707 79.6784C36.1707 80.1344 36.0795 80.4291 35.855 80.5834C35.7427 80.6606 35.6094 80.7097 35.4551 80.7307C35.3288 80.7448 35.1605 80.7518 34.9991 80.7518C34.9921 80.5483 34.9289 80.2326 34.8167 80.0292C34.943 80.0362 35.0342 80.0432 35.1184 80.0362C35.1955 80.0362 35.2657 80.0222 35.3148 79.9801C35.399 79.917 35.4341 79.7766 35.4341 79.5802C35.4341 79.2505 35.3429 78.8155 34.943 78.3455C35.1394 77.7141 35.3639 76.746 35.4621 76.297V76.0585Z" fill="#00ABB6"/>
<path d="M17.8922 94.9448C18.1465 94.9711 18.4009 94.9887 18.6902 94.9887C19.1989 94.9887 21.7507 94.9887 22.2418 94.9887C22.4873 94.9887 22.803 94.9711 23.0573 94.9448V95.6727C22.7942 95.6551 22.4873 95.6376 22.2418 95.6376C21.7507 95.6376 19.1989 95.6376 18.699 95.6376C18.4096 95.6376 18.1202 95.6551 17.8922 95.6727V94.9448ZM16.8487 97.1459C17.0855 97.1722 17.3398 97.181 17.6116 97.181C18.1202 97.181 22.8819 97.181 23.3467 97.181C23.5308 97.181 23.8202 97.1722 24.0395 97.1459V97.865C23.8378 97.8562 23.5659 97.8475 23.3467 97.8475C22.8819 97.8475 18.1202 97.8475 17.6116 97.8475C17.3485 97.8475 17.0855 97.8562 16.8487 97.8738V97.1459ZM20.979 97.4967C20.979 98.6016 20.8387 99.5136 20.4441 100.25C20.1284 100.838 19.4619 101.46 18.7253 101.846L18.0764 101.373C18.7516 101.083 19.383 100.583 19.725 100.022C20.1635 99.3294 20.2336 98.4701 20.2424 97.5055L20.979 97.4967ZM28.2136 95.2255C28.1698 95.0062 28.1171 94.8133 28.0558 94.6291L28.8362 94.4976C28.8538 94.6555 28.8888 94.9098 28.9239 95.1027C28.9765 95.4885 29.9411 100.303 30.0639 100.882C30.1253 101.127 30.1955 101.425 30.2831 101.68L29.4764 101.829C29.4325 101.531 29.4062 101.259 29.3448 101.004C29.2571 100.452 28.3188 95.6815 28.2136 95.2255ZM25.7407 96.497C25.9599 96.4795 26.1967 96.4619 26.4773 96.4356C27.2665 96.3479 30.2919 95.8656 31.125 95.699C31.3793 95.6551 31.6073 95.6025 31.7564 95.5587L31.8967 96.2953C31.7651 96.3041 31.5021 96.3479 31.2653 96.383C30.3621 96.5233 27.3718 96.9968 26.6001 97.1284C26.3633 97.1722 26.1528 97.2161 25.8985 97.2775L25.7407 96.497ZM25.7144 99.0225C25.9248 99.0138 26.2581 98.9787 26.4861 98.9436C27.4244 98.8208 30.6865 98.2859 31.7388 98.093C32.0721 98.0316 32.3264 97.9702 32.5105 97.9176L32.6596 98.6542C32.4755 98.6718 32.1948 98.7244 31.8704 98.777C30.7041 98.9524 27.5384 99.4698 26.6527 99.6276C26.3107 99.689 26.0652 99.7416 25.8722 99.7942L25.7144 99.0225ZM40.2952 95.5675C40.2426 95.6376 40.1286 95.8305 40.0847 95.9445C39.734 96.8127 39.0675 98.0404 38.3397 98.8471C37.3575 99.9433 36.1035 100.987 34.718 101.618L34.1567 101.031C35.5774 100.487 36.8664 99.4347 37.7697 98.435C38.366 97.7598 39.0061 96.7162 39.2341 95.9884C38.9184 95.9884 36.1123 95.9884 35.8141 95.9884C35.4984 95.9884 35.0249 96.0235 34.9284 96.0322V95.243C35.0424 95.2605 35.5423 95.2956 35.8141 95.2956C36.1561 95.2956 38.8658 95.2956 39.199 95.2956C39.4797 95.2956 39.7164 95.2693 39.8567 95.2255L40.2952 95.5675ZM38.4537 98.3911C39.4007 99.1804 40.567 100.408 41.1634 101.136L40.5583 101.671C39.9269 100.838 38.9009 99.7153 37.9538 98.8822L38.4537 98.3911ZM45.0043 100.654C45.0043 100.163 45.0043 96.2865 45.0043 95.5587C45.0043 95.3044 44.9867 94.9185 44.9429 94.6379H45.8023C45.7672 94.9098 45.7409 95.2868 45.7409 95.5587C45.7409 96.9179 45.7497 100.241 45.7497 100.654C45.7497 100.934 45.7672 101.408 45.8023 101.697H44.9517C44.9955 101.417 45.0043 100.978 45.0043 100.654ZM45.583 96.9442C46.7406 97.2775 48.512 97.9527 49.4853 98.4262L49.1784 99.1716C48.1787 98.6367 46.5389 98.0141 45.583 97.7159V96.9442ZM52.7036 94.9448C52.958 94.9711 53.2123 94.9887 53.5016 94.9887C54.0103 94.9887 56.5621 94.9887 57.0532 94.9887C57.2987 94.9887 57.6144 94.9711 57.8687 94.9448V95.6727C57.6056 95.6551 57.2987 95.6376 57.0532 95.6376C56.5621 95.6376 54.0103 95.6376 53.5104 95.6376C53.221 95.6376 52.9316 95.6551 52.7036 95.6727V94.9448ZM51.6601 97.1459C51.8969 97.1722 52.1512 97.181 52.423 97.181C52.9316 97.181 57.6933 97.181 58.1581 97.181C58.3423 97.181 58.6316 97.1722 58.8509 97.1459V97.865C58.6492 97.8562 58.3773 97.8475 58.1581 97.8475C57.6933 97.8475 52.9316 97.8475 52.423 97.8475C52.16 97.8475 51.8969 97.8562 51.6601 97.8738V97.1459ZM55.7904 97.4967C55.7904 98.6016 55.6501 99.5136 55.2555 100.25C54.9398 100.838 54.2733 101.46 53.5367 101.846L52.8878 101.373C53.563 101.083 54.1944 100.583 54.5364 100.022C54.9749 99.3294 55.045 98.4701 55.0538 97.5055L55.7904 97.4967ZM63.025 95.2255C62.9812 95.0062 62.9286 94.8133 62.8672 94.6291L63.6476 94.4976C63.6652 94.6555 63.7002 94.9098 63.7353 95.1027C63.7879 95.4885 64.7526 100.303 64.8753 100.882C64.9367 101.127 65.0069 101.425 65.0946 101.68L64.2878 101.829C64.2439 101.531 64.2176 101.259 64.1562 101.004C64.0686 100.452 63.1302 95.6815 63.025 95.2255ZM60.5521 96.497C60.7713 96.4795 61.0081 96.4619 61.2887 96.4356C62.0779 96.3479 65.1033 95.8656 65.9364 95.699C66.1907 95.6551 66.4187 95.6025 66.5678 95.5587L66.7081 96.2953C66.5766 96.3041 66.3135 96.3479 66.0767 96.383C65.1735 96.5233 62.1832 96.9968 61.4115 97.1284C61.1747 97.1722 60.9643 97.2161 60.7099 97.2775L60.5521 96.497ZM60.5258 99.0225C60.7363 99.0138 61.0695 98.9787 61.2975 98.9436C62.2358 98.8208 65.4979 98.2859 66.5502 98.093C66.8835 98.0316 67.1378 97.9702 67.3219 97.9176L67.471 98.6542C67.2869 98.6718 67.0062 98.7244 66.6818 98.777C65.5155 98.9524 62.3498 99.4698 61.4641 99.6276C61.1221 99.689 60.8766 99.7416 60.6836 99.7942L60.5258 99.0225ZM75.1066 95.5675C75.054 95.6376 74.94 95.8305 74.8961 95.9445C74.5454 96.8127 73.8789 98.0404 73.1511 98.8471C72.1689 99.9433 70.9149 100.987 69.5294 101.618L68.9682 101.031C70.3888 100.487 71.6778 99.4347 72.5811 98.435C73.1774 97.7598 73.8175 96.7162 74.0455 95.9884C73.7298 95.9884 70.9237 95.9884 70.6255 95.9884C70.3098 95.9884 69.8363 96.0235 69.7398 96.0322V95.243C69.8538 95.2605 70.3537 95.2956 70.6255 95.2956C70.9675 95.2956 73.6772 95.2956 74.0105 95.2956C74.2911 95.2956 74.5278 95.2693 74.6681 95.2255L75.1066 95.5675ZM73.2651 98.3911C74.2121 99.1804 75.3785 100.408 75.9748 101.136L75.3697 101.671C74.7383 100.838 73.7123 99.7153 72.7652 98.8822L73.2651 98.3911ZM79.8157 100.654C79.8157 100.163 79.8157 96.2865 79.8157 95.5587C79.8157 95.3044 79.7981 94.9185 79.7543 94.6379H80.6137C80.5786 94.9098 80.5523 95.2868 80.5523 95.5587C80.5523 96.9179 80.5611 100.241 80.5611 100.654C80.5611 100.934 80.5786 101.408 80.6137 101.697H79.7631C79.8069 101.417 79.8157 100.978 79.8157 100.654ZM80.3944 96.9442C81.552 97.2775 83.3234 97.9527 84.2967 98.4262L83.9898 99.1716C82.9901 98.6367 81.3503 98.0141 80.3944 97.7159V96.9442ZM87.5151 94.9448C87.7694 94.9711 88.0237 94.9887 88.3131 94.9887C88.8217 94.9887 91.3735 94.9887 91.8646 94.9887C92.1101 94.9887 92.4258 94.9711 92.6801 94.9448V95.6727C92.4171 95.6551 92.1101 95.6376 91.8646 95.6376C91.3735 95.6376 88.8217 95.6376 88.3218 95.6376C88.0324 95.6376 87.7431 95.6551 87.5151 95.6727V94.9448ZM86.4715 97.1459C86.7083 97.1722 86.9626 97.181 87.2344 97.181C87.7431 97.181 92.5047 97.181 92.9695 97.181C93.1537 97.181 93.443 97.1722 93.6623 97.1459V97.865C93.4606 97.8562 93.1887 97.8475 92.9695 97.8475C92.5047 97.8475 87.7431 97.8475 87.2344 97.8475C86.9714 97.8475 86.7083 97.8562 86.4715 97.8738V97.1459ZM90.6018 97.4967C90.6018 98.6016 90.4615 99.5136 90.0669 100.25C89.7512 100.838 89.0847 101.46 88.3481 101.846L87.6992 101.373C88.3744 101.083 89.0058 100.583 89.3478 100.022C89.7863 99.3294 89.8564 98.4701 89.8652 97.5055L90.6018 97.4967ZM97.8364 95.2255C97.7926 95.0062 97.74 94.8133 97.6786 94.6291L98.459 94.4976C98.4766 94.6555 98.5117 94.9098 98.5467 95.1027C98.5993 95.4885 99.564 100.303 99.6867 100.882C99.7481 101.127 99.8183 101.425 99.906 101.68L99.0992 101.829C99.0553 101.531 99.029 101.259 98.9677 101.004C98.88 100.452 97.9417 95.6815 97.8364 95.2255ZM95.3635 96.497C95.5827 96.4795 95.8195 96.4619 96.1001 96.4356C96.8894 96.3479 99.9147 95.8656 100.748 95.699C101.002 95.6551 101.23 95.6025 101.379 95.5587L101.519 96.2953C101.388 96.3041 101.125 96.3479 100.888 96.383C99.9849 96.5233 96.9946 96.9968 96.2229 97.1284C95.9861 97.1722 95.7757 97.2161 95.5214 97.2775L95.3635 96.497ZM95.3372 99.0225C95.5477 99.0138 95.8809 98.9787 96.1089 98.9436C97.0472 98.8208 100.309 98.2859 101.362 98.093C101.695 98.0316 101.949 97.9702 102.133 97.9176L102.282 98.6542C102.098 98.6718 101.818 98.7244 101.493 98.777C100.327 98.9524 97.1612 99.4698 96.2755 99.6276C95.9335 99.689 95.688 99.7416 95.495 99.7942L95.3372 99.0225ZM109.918 95.5675C109.865 95.6376 109.751 95.8305 109.708 95.9445C109.357 96.8127 108.69 98.0404 107.962 98.8471C106.98 99.9433 105.726 100.987 104.341 101.618L103.78 101.031C105.2 100.487 106.489 99.4347 107.392 98.435C107.989 97.7598 108.629 96.7162 108.857 95.9884C108.541 95.9884 105.735 95.9884 105.437 95.9884C105.121 95.9884 104.648 96.0235 104.551 96.0322V95.243C104.665 95.2605 105.165 95.2956 105.437 95.2956C105.779 95.2956 108.489 95.2956 108.822 95.2956C109.102 95.2956 109.339 95.2693 109.48 95.2255L109.918 95.5675ZM108.076 98.3911C109.024 99.1804 110.19 100.408 110.786 101.136L110.181 101.671C109.55 100.838 108.524 99.7153 107.577 98.8822L108.076 98.3911ZM114.627 100.654C114.627 100.163 114.627 96.2865 114.627 95.5587C114.627 95.3044 114.61 94.9185 114.566 94.6379H115.425C115.39 94.9098 115.364 95.2868 115.364 95.5587C115.364 96.9179 115.372 100.241 115.372 100.654C115.372 100.934 115.39 101.408 115.425 101.697H114.574C114.618 101.417 114.627 100.978 114.627 100.654ZM115.206 96.9442C116.363 97.2775 118.135 97.9527 119.108 98.4262L118.801 99.1716C117.802 98.6367 116.162 98.0141 115.206 97.7159V96.9442ZM122.326 94.9448C122.581 94.9711 122.835 94.9887 123.124 94.9887C123.633 94.9887 126.185 94.9887 126.676 94.9887C126.922 94.9887 127.237 94.9711 127.492 94.9448V95.6727C127.228 95.6551 126.922 95.6376 126.676 95.6376C126.185 95.6376 123.633 95.6376 123.133 95.6376C122.844 95.6376 122.554 95.6551 122.326 95.6727V94.9448ZM121.283 97.1459C121.52 97.1722 121.774 97.181 122.046 97.181C122.554 97.181 127.316 97.181 127.781 97.181C127.965 97.181 128.254 97.1722 128.474 97.1459V97.865C128.272 97.8562 128 97.8475 127.781 97.8475C127.316 97.8475 122.554 97.8475 122.046 97.8475C121.783 97.8475 121.52 97.8562 121.283 97.8738V97.1459ZM125.413 97.4967C125.413 98.6016 125.273 99.5136 124.878 100.25C124.563 100.838 123.896 101.46 123.16 101.846L122.511 101.373C123.186 101.083 123.817 100.583 124.159 100.022C124.598 99.3294 124.668 98.4701 124.677 97.5055L125.413 97.4967ZM132.648 95.2255C132.604 95.0062 132.551 94.8133 132.49 94.6291L133.27 94.4976C133.288 94.6555 133.323 94.9098 133.358 95.1027C133.411 95.4885 134.375 100.303 134.498 100.882C134.56 101.127 134.63 101.425 134.717 101.68L133.911 101.829C133.867 101.531 133.84 101.259 133.779 101.004C133.691 100.452 132.753 95.6815 132.648 95.2255ZM130.175 96.497C130.394 96.4795 130.631 96.4619 130.912 96.4356C131.701 96.3479 134.726 95.8656 135.559 95.699C135.814 95.6551 136.042 95.6025 136.191 95.5587L136.331 96.2953C136.199 96.3041 135.936 96.3479 135.7 96.383C134.796 96.5233 131.806 96.9968 131.034 97.1284C130.798 97.1722 130.587 97.2161 130.333 97.2775L130.175 96.497ZM130.149 99.0225C130.359 99.0138 130.692 98.9787 130.92 98.9436C131.859 98.8208 135.121 98.2859 136.173 98.093C136.506 98.0316 136.761 97.9702 136.945 97.9176L137.094 98.6542C136.91 98.6718 136.629 98.7244 136.305 98.777C135.138 98.9524 131.973 99.4698 131.087 99.6276C130.745 99.689 130.499 99.7416 130.306 99.7942L130.149 99.0225ZM144.729 95.5675C144.677 95.6376 144.563 95.8305 144.519 95.9445C144.168 96.8127 143.502 98.0404 142.774 98.8471C141.792 99.9433 140.538 100.987 139.152 101.618L138.591 101.031C140.012 100.487 141.301 99.4347 142.204 98.435C142.8 97.7598 143.44 96.7162 143.668 95.9884C143.353 95.9884 140.546 95.9884 140.248 95.9884C139.933 95.9884 139.459 96.0235 139.363 96.0322V95.243C139.477 95.2605 139.976 95.2956 140.248 95.2956C140.59 95.2956 143.3 95.2956 143.633 95.2956C143.914 95.2956 144.151 95.2693 144.291 95.2255L144.729 95.5675ZM142.888 98.3911C143.835 99.1804 145.001 100.408 145.598 101.136L144.992 101.671C144.361 100.838 143.335 99.7153 142.388 98.8822L142.888 98.3911ZM149.438 100.654C149.438 100.163 149.438 96.2865 149.438 95.5587C149.438 95.3044 149.421 94.9185 149.377 94.6379H150.236C150.201 94.9098 150.175 95.2868 150.175 95.5587C150.175 96.9179 150.184 100.241 150.184 100.654C150.184 100.934 150.201 101.408 150.236 101.697H149.386C149.43 101.417 149.438 100.978 149.438 100.654ZM150.017 96.9442C151.175 97.2775 152.946 97.9527 153.92 98.4262L153.613 99.1716C152.613 98.6367 150.973 98.0141 150.017 97.7159V96.9442ZM157.138 94.9448C157.392 94.9711 157.646 94.9887 157.936 94.9887C158.444 94.9887 160.996 94.9887 161.487 94.9887C161.733 94.9887 162.049 94.9711 162.303 94.9448V95.6727C162.04 95.6551 161.733 95.6376 161.487 95.6376C160.996 95.6376 158.444 95.6376 157.945 95.6376C157.655 95.6376 157.366 95.6551 157.138 95.6727V94.9448ZM156.094 97.1459C156.331 97.1722 156.585 97.181 156.857 97.181C157.366 97.181 162.128 97.181 162.592 97.181C162.776 97.181 163.066 97.1722 163.285 97.1459V97.865C163.083 97.8562 162.812 97.8475 162.592 97.8475C162.128 97.8475 157.366 97.8475 156.857 97.8475C156.594 97.8475 156.331 97.8562 156.094 97.8738V97.1459ZM160.225 97.4967C160.225 98.6016 160.084 99.5136 159.69 100.25C159.374 100.838 158.708 101.46 157.971 101.846L157.322 101.373C157.997 101.083 158.629 100.583 158.971 100.022C159.409 99.3294 159.479 98.4701 159.488 97.5055L160.225 97.4967ZM167.459 95.2255C167.415 95.0062 167.363 94.8133 167.301 94.6291L168.082 94.4976C168.099 94.6555 168.134 94.9098 168.17 95.1027C168.222 95.4885 169.187 100.303 169.31 100.882C169.371 101.127 169.441 101.425 169.529 101.68L168.722 101.829C168.678 101.531 168.652 101.259 168.59 101.004C168.503 100.452 167.564 95.6815 167.459 95.2255ZM164.986 96.497C165.206 96.4795 165.442 96.4619 165.723 96.4356C166.512 96.3479 169.538 95.8656 170.371 95.699C170.625 95.6551 170.853 95.6025 171.002 95.5587L171.142 96.2953C171.011 96.3041 170.748 96.3479 170.511 96.383C169.608 96.5233 166.617 96.9968 165.846 97.1284C165.609 97.1722 165.398 97.2161 165.144 97.2775L164.986 96.497ZM164.96 99.0225C165.17 99.0138 165.504 98.9787 165.732 98.9436C166.67 98.8208 169.932 98.2859 170.984 98.093C171.318 98.0316 171.572 97.9702 171.756 97.9176L171.905 98.6542C171.721 98.6718 171.44 98.7244 171.116 98.777C169.95 98.9524 166.784 99.4698 165.898 99.6276C165.556 99.689 165.311 99.7416 165.118 99.7942L164.96 99.0225ZM17.8922 107.945C18.1465 107.971 18.4009 107.989 18.6902 107.989C19.1989 107.989 21.7507 107.989 22.2418 107.989C22.4873 107.989 22.803 107.971 23.0573 107.945V108.673C22.7942 108.655 22.4873 108.638 22.2418 108.638C21.7507 108.638 19.1989 108.638 18.699 108.638C18.4096 108.638 18.1202 108.655 17.8922 108.673V107.945ZM16.8487 110.146C17.0855 110.172 17.3398 110.181 17.6116 110.181C18.1202 110.181 22.8819 110.181 23.3467 110.181C23.5308 110.181 23.8202 110.172 24.0395 110.146V110.865C23.8378 110.856 23.5659 110.847 23.3467 110.847C22.8819 110.847 18.1202 110.847 17.6116 110.847C17.3485 110.847 17.0855 110.856 16.8487 110.874V110.146ZM20.979 110.497C20.979 111.602 20.8387 112.514 20.4441 113.25C20.1284 113.838 19.4619 114.46 18.7253 114.846L18.0764 114.373C18.7516 114.083 19.383 113.583 19.725 113.022C20.1635 112.329 20.2336 111.47 20.2424 110.505L20.979 110.497ZM28.2136 108.225C28.1698 108.006 28.1171 107.813 28.0558 107.629L28.8362 107.498C28.8538 107.655 28.8888 107.91 28.9239 108.103C28.9765 108.489 29.9411 113.303 30.0639 113.882C30.1253 114.127 30.1955 114.425 30.2831 114.68L29.4764 114.829C29.4325 114.531 29.4062 114.259 29.3448 114.004C29.2571 113.452 28.3188 108.681 28.2136 108.225ZM25.7407 109.497C25.9599 109.479 26.1967 109.462 26.4773 109.436C27.2665 109.348 30.2919 108.866 31.125 108.699C31.3793 108.655 31.6073 108.603 31.7564 108.559L31.8967 109.295C31.7651 109.304 31.5021 109.348 31.2653 109.383C30.3621 109.523 27.3718 109.997 26.6001 110.128C26.3633 110.172 26.1528 110.216 25.8985 110.277L25.7407 109.497ZM25.7144 112.023C25.9248 112.014 26.2581 111.979 26.4861 111.944C27.4244 111.821 30.6865 111.286 31.7388 111.093C32.0721 111.032 32.3264 110.97 32.5105 110.918L32.6596 111.654C32.4755 111.672 32.1948 111.724 31.8704 111.777C30.7041 111.952 27.5384 112.47 26.6527 112.628C26.3107 112.689 26.0652 112.742 25.8722 112.794L25.7144 112.023ZM40.2952 108.567C40.2426 108.638 40.1286 108.831 40.0847 108.945C39.734 109.813 39.0675 111.04 38.3397 111.847C37.3575 112.943 36.1035 113.987 34.718 114.618L34.1567 114.031C35.5774 113.487 36.8664 112.435 37.7697 111.435C38.366 110.76 39.0061 109.716 39.2341 108.988C38.9184 108.988 36.1123 108.988 35.8141 108.988C35.4984 108.988 35.0249 109.023 34.9284 109.032V108.243C35.0424 108.261 35.5423 108.296 35.8141 108.296C36.1561 108.296 38.8658 108.296 39.199 108.296C39.4797 108.296 39.7164 108.269 39.8567 108.225L40.2952 108.567ZM38.4537 111.391C39.4007 112.18 40.567 113.408 41.1634 114.136L40.5583 114.671C39.9269 113.838 38.9009 112.715 37.9538 111.882L38.4537 111.391ZM45.0043 113.654C45.0043 113.163 45.0043 109.287 45.0043 108.559C45.0043 108.304 44.9867 107.919 44.9429 107.638H45.8023C45.7672 107.91 45.7409 108.287 45.7409 108.559C45.7409 109.918 45.7497 113.241 45.7497 113.654C45.7497 113.934 45.7672 114.408 45.8023 114.697H44.9517C44.9955 114.417 45.0043 113.978 45.0043 113.654ZM45.583 109.944C46.7406 110.277 48.512 110.953 49.4853 111.426L49.1784 112.172C48.1787 111.637 46.5389 111.014 45.583 110.716V109.944ZM52.7036 107.945C52.958 107.971 53.2123 107.989 53.5016 107.989C54.0103 107.989 56.5621 107.989 57.0532 107.989C57.2987 107.989 57.6144 107.971 57.8687 107.945V108.673C57.6056 108.655 57.2987 108.638 57.0532 108.638C56.5621 108.638 54.0103 108.638 53.5104 108.638C53.221 108.638 52.9316 108.655 52.7036 108.673V107.945ZM51.6601 110.146C51.8969 110.172 52.1512 110.181 52.423 110.181C52.9316 110.181 57.6933 110.181 58.1581 110.181C58.3423 110.181 58.6316 110.172 58.8509 110.146V110.865C58.6492 110.856 58.3773 110.847 58.1581 110.847C57.6933 110.847 52.9316 110.847 52.423 110.847C52.16 110.847 51.8969 110.856 51.6601 110.874V110.146ZM55.7904 110.497C55.7904 111.602 55.6501 112.514 55.2555 113.25C54.9398 113.838 54.2733 114.46 53.5367 114.846L52.8878 114.373C53.563 114.083 54.1944 113.583 54.5364 113.022C54.9749 112.329 55.045 111.47 55.0538 110.505L55.7904 110.497ZM63.025 108.225C62.9812 108.006 62.9286 107.813 62.8672 107.629L63.6476 107.498C63.6652 107.655 63.7002 107.91 63.7353 108.103C63.7879 108.489 64.7526 113.303 64.8753 113.882C64.9367 114.127 65.0069 114.425 65.0946 114.68L64.2878 114.829C64.2439 114.531 64.2176 114.259 64.1562 114.004C64.0686 113.452 63.1302 108.681 63.025 108.225ZM60.5521 109.497C60.7713 109.479 61.0081 109.462 61.2887 109.436C62.0779 109.348 65.1033 108.866 65.9364 108.699C66.1907 108.655 66.4187 108.603 66.5678 108.559L66.7081 109.295C66.5766 109.304 66.3135 109.348 66.0767 109.383C65.1735 109.523 62.1832 109.997 61.4115 110.128C61.1747 110.172 60.9643 110.216 60.7099 110.277L60.5521 109.497ZM60.5258 112.023C60.7363 112.014 61.0695 111.979 61.2975 111.944C62.2358 111.821 65.4979 111.286 66.5502 111.093C66.8835 111.032 67.1378 110.97 67.3219 110.918L67.471 111.654C67.2869 111.672 67.0062 111.724 66.6818 111.777C65.5155 111.952 62.3498 112.47 61.4641 112.628C61.1221 112.689 60.8766 112.742 60.6836 112.794L60.5258 112.023ZM75.1066 108.567C75.054 108.638 74.94 108.831 74.8961 108.945C74.5454 109.813 73.8789 111.04 73.1511 111.847C72.1689 112.943 70.9149 113.987 69.5294 114.618L68.9682 114.031C70.3888 113.487 71.6778 112.435 72.5811 111.435C73.1774 110.76 73.8175 109.716 74.0455 108.988C73.7298 108.988 70.9237 108.988 70.6255 108.988C70.3098 108.988 69.8363 109.023 69.7398 109.032V108.243C69.8538 108.261 70.3537 108.296 70.6255 108.296C70.9675 108.296 73.6772 108.296 74.0105 108.296C74.2911 108.296 74.5278 108.269 74.6681 108.225L75.1066 108.567ZM73.2651 111.391C74.2121 112.18 75.3785 113.408 75.9748 114.136L75.3697 114.671C74.7383 113.838 73.7123 112.715 72.7652 111.882L73.2651 111.391ZM79.8157 113.654C79.8157 113.163 79.8157 109.287 79.8157 108.559C79.8157 108.304 79.7981 107.919 79.7543 107.638H80.6137C80.5786 107.91 80.5523 108.287 80.5523 108.559C80.5523 109.918 80.5611 113.241 80.5611 113.654C80.5611 113.934 80.5786 114.408 80.6137 114.697H79.7631C79.8069 114.417 79.8157 113.978 79.8157 113.654ZM80.3944 109.944C81.552 110.277 83.3234 110.953 84.2967 111.426L83.9898 112.172C82.9901 111.637 81.3503 111.014 80.3944 110.716V109.944ZM87.5151 107.945C87.7694 107.971 88.0237 107.989 88.3131 107.989C88.8217 107.989 91.3735 107.989 91.8646 107.989C92.1101 107.989 92.4258 107.971 92.6801 107.945V108.673C92.4171 108.655 92.1101 108.638 91.8646 108.638C91.3735 108.638 88.8217 108.638 88.3218 108.638C88.0324 108.638 87.7431 108.655 87.5151 108.673V107.945ZM86.4715 110.146C86.7083 110.172 86.9626 110.181 87.2344 110.181C87.7431 110.181 92.5047 110.181 92.9695 110.181C93.1537 110.181 93.443 110.172 93.6623 110.146V110.865C93.4606 110.856 93.1887 110.847 92.9695 110.847C92.5047 110.847 87.7431 110.847 87.2344 110.847C86.9714 110.847 86.7083 110.856 86.4715 110.874V110.146ZM90.6018 110.497C90.6018 111.602 90.4615 112.514 90.0669 113.25C89.7512 113.838 89.0847 114.46 88.3481 114.846L87.6992 114.373C88.3744 114.083 89.0058 113.583 89.3478 113.022C89.7863 112.329 89.8564 111.47 89.8652 110.505L90.6018 110.497ZM97.8364 108.225C97.7926 108.006 97.74 107.813 97.6786 107.629L98.459 107.498C98.4766 107.655 98.5117 107.91 98.5467 108.103C98.5993 108.489 99.564 113.303 99.6867 113.882C99.7481 114.127 99.8183 114.425 99.906 114.68L99.0992 114.829C99.0553 114.531 99.029 114.259 98.9677 114.004C98.88 113.452 97.9417 108.681 97.8364 108.225ZM95.3635 109.497C95.5827 109.479 95.8195 109.462 96.1001 109.436C96.8894 109.348 99.9147 108.866 100.748 108.699C101.002 108.655 101.23 108.603 101.379 108.559L101.519 109.295C101.388 109.304 101.125 109.348 100.888 109.383C99.9849 109.523 96.9946 109.997 96.2229 110.128C95.9861 110.172 95.7757 110.216 95.5214 110.277L95.3635 109.497ZM95.3372 112.023C95.5477 112.014 95.8809 111.979 96.1089 111.944C97.0472 111.821 100.309 111.286 101.362 111.093C101.695 111.032 101.949 110.97 102.133 110.918L102.282 111.654C102.098 111.672 101.818 111.724 101.493 111.777C100.327 111.952 97.1612 112.47 96.2755 112.628C95.9335 112.689 95.688 112.742 95.495 112.794L95.3372 112.023ZM109.918 108.567C109.865 108.638 109.751 108.831 109.708 108.945C109.357 109.813 108.69 111.04 107.962 111.847C106.98 112.943 105.726 113.987 104.341 114.618L103.78 114.031C105.2 113.487 106.489 112.435 107.392 111.435C107.989 110.76 108.629 109.716 108.857 108.988C108.541 108.988 105.735 108.988 105.437 108.988C105.121 108.988 104.648 109.023 104.551 109.032V108.243C104.665 108.261 105.165 108.296 105.437 108.296C105.779 108.296 108.489 108.296 108.822 108.296C109.102 108.296 109.339 108.269 109.48 108.225L109.918 108.567ZM108.076 111.391C109.024 112.18 110.19 113.408 110.786 114.136L110.181 114.671C109.55 113.838 108.524 112.715 107.577 111.882L108.076 111.391ZM114.627 113.654C114.627 113.163 114.627 109.287 114.627 108.559C114.627 108.304 114.61 107.919 114.566 107.638H115.425C115.39 107.91 115.364 108.287 115.364 108.559C115.364 109.918 115.372 113.241 115.372 113.654C115.372 113.934 115.39 114.408 115.425 114.697H114.574C114.618 114.417 114.627 113.978 114.627 113.654ZM115.206 109.944C116.363 110.277 118.135 110.953 119.108 111.426L118.801 112.172C117.802 111.637 116.162 111.014 115.206 110.716V109.944ZM122.326 107.945C122.581 107.971 122.835 107.989 123.124 107.989C123.633 107.989 126.185 107.989 126.676 107.989C126.922 107.989 127.237 107.971 127.492 107.945V108.673C127.228 108.655 126.922 108.638 126.676 108.638C126.185 108.638 123.633 108.638 123.133 108.638C122.844 108.638 122.554 108.655 122.326 108.673V107.945ZM121.283 110.146C121.52 110.172 121.774 110.181 122.046 110.181C122.554 110.181 127.316 110.181 127.781 110.181C127.965 110.181 128.254 110.172 128.474 110.146V110.865C128.272 110.856 128 110.847 127.781 110.847C127.316 110.847 122.554 110.847 122.046 110.847C121.783 110.847 121.52 110.856 121.283 110.874V110.146ZM125.413 110.497C125.413 111.602 125.273 112.514 124.878 113.25C124.563 113.838 123.896 114.46 123.16 114.846L122.511 114.373C123.186 114.083 123.817 113.583 124.159 113.022C124.598 112.329 124.668 111.47 124.677 110.505L125.413 110.497ZM132.648 108.225C132.604 108.006 132.551 107.813 132.49 107.629L133.27 107.498C133.288 107.655 133.323 107.91 133.358 108.103C133.411 108.489 134.375 113.303 134.498 113.882C134.56 114.127 134.63 114.425 134.717 114.68L133.911 114.829C133.867 114.531 133.84 114.259 133.779 114.004C133.691 113.452 132.753 108.681 132.648 108.225ZM130.175 109.497C130.394 109.479 130.631 109.462 130.912 109.436C131.701 109.348 134.726 108.866 135.559 108.699C135.814 108.655 136.042 108.603 136.191 108.559L136.331 109.295C136.199 109.304 135.936 109.348 135.7 109.383C134.796 109.523 131.806 109.997 131.034 110.128C130.798 110.172 130.587 110.216 130.333 110.277L130.175 109.497ZM130.149 112.023C130.359 112.014 130.692 111.979 130.92 111.944C131.859 111.821 135.121 111.286 136.173 111.093C136.506 111.032 136.761 110.97 136.945 110.918L137.094 111.654C136.91 111.672 136.629 111.724 136.305 111.777C135.138 111.952 131.973 112.47 131.087 112.628C130.745 112.689 130.499 112.742 130.306 112.794L130.149 112.023ZM144.729 108.567C144.677 108.638 144.563 108.831 144.519 108.945C144.168 109.813 143.502 111.04 142.774 111.847C141.792 112.943 140.538 113.987 139.152 114.618L138.591 114.031C140.012 113.487 141.301 112.435 142.204 111.435C142.8 110.76 143.44 109.716 143.668 108.988C143.353 108.988 140.546 108.988 140.248 108.988C139.933 108.988 139.459 109.023 139.363 109.032V108.243C139.477 108.261 139.976 108.296 140.248 108.296C140.59 108.296 143.3 108.296 143.633 108.296C143.914 108.296 144.151 108.269 144.291 108.225L144.729 108.567ZM142.888 111.391C143.835 112.18 145.001 113.408 145.598 114.136L144.992 114.671C144.361 113.838 143.335 112.715 142.388 111.882L142.888 111.391ZM149.438 113.654C149.438 113.163 149.438 109.287 149.438 108.559C149.438 108.304 149.421 107.919 149.377 107.638H150.236C150.201 107.91 150.175 108.287 150.175 108.559C150.175 109.918 150.184 113.241 150.184 113.654C150.184 113.934 150.201 114.408 150.236 114.697H149.386C149.43 114.417 149.438 113.978 149.438 113.654ZM150.017 109.944C151.175 110.277 152.946 110.953 153.92 111.426L153.613 112.172C152.613 111.637 150.973 111.014 150.017 110.716V109.944ZM157.138 107.945C157.392 107.971 157.646 107.989 157.936 107.989C158.444 107.989 160.996 107.989 161.487 107.989C161.733 107.989 162.049 107.971 162.303 107.945V108.673C162.04 108.655 161.733 108.638 161.487 108.638C160.996 108.638 158.444 108.638 157.945 108.638C157.655 108.638 157.366 108.655 157.138 108.673V107.945ZM156.094 110.146C156.331 110.172 156.585 110.181 156.857 110.181C157.366 110.181 162.128 110.181 162.592 110.181C162.776 110.181 163.066 110.172 163.285 110.146V110.865C163.083 110.856 162.812 110.847 162.592 110.847C162.128 110.847 157.366 110.847 156.857 110.847C156.594 110.847 156.331 110.856 156.094 110.874V110.146ZM160.225 110.497C160.225 111.602 160.084 112.514 159.69 113.25C159.374 113.838 158.708 114.46 157.971 114.846L157.322 114.373C157.997 114.083 158.629 113.583 158.971 113.022C159.409 112.329 159.479 111.47 159.488 110.505L160.225 110.497ZM167.459 108.225C167.415 108.006 167.363 107.813 167.301 107.629L168.082 107.498C168.099 107.655 168.134 107.91 168.17 108.103C168.222 108.489 169.187 113.303 169.31 113.882C169.371 114.127 169.441 114.425 169.529 114.68L168.722 114.829C168.678 114.531 168.652 114.259 168.59 114.004C168.503 113.452 167.564 108.681 167.459 108.225ZM164.986 109.497C165.206 109.479 165.442 109.462 165.723 109.436C166.512 109.348 169.538 108.866 170.371 108.699C170.625 108.655 170.853 108.603 171.002 108.559L171.142 109.295C171.011 109.304 170.748 109.348 170.511 109.383C169.608 109.523 166.617 109.997 165.846 110.128C165.609 110.172 165.398 110.216 165.144 110.277L164.986 109.497ZM164.96 112.023C165.17 112.014 165.504 111.979 165.732 111.944C166.67 111.821 169.932 111.286 170.984 111.093C171.318 111.032 171.572 110.97 171.756 110.918L171.905 111.654C171.721 111.672 171.44 111.724 171.116 111.777C169.95 111.952 166.784 112.47 165.898 112.628C165.556 112.689 165.311 112.742 165.118 112.794L164.96 112.023ZM17.8922 120.945C18.1465 120.971 18.4009 120.989 18.6902 120.989C19.1989 120.989 21.7507 120.989 22.2418 120.989C22.4873 120.989 22.803 120.971 23.0573 120.945V121.673C22.7942 121.655 22.4873 121.638 22.2418 121.638C21.7507 121.638 19.1989 121.638 18.699 121.638C18.4096 121.638 18.1202 121.655 17.8922 121.673V120.945ZM16.8487 123.146C17.0855 123.172 17.3398 123.181 17.6116 123.181C18.1202 123.181 22.8819 123.181 23.3467 123.181C23.5308 123.181 23.8202 123.172 24.0395 123.146V123.865C23.8378 123.856 23.5659 123.847 23.3467 123.847C22.8819 123.847 18.1202 123.847 17.6116 123.847C17.3485 123.847 17.0855 123.856 16.8487 123.874V123.146ZM20.979 123.497C20.979 124.602 20.8387 125.514 20.4441 126.25C20.1284 126.838 19.4619 127.46 18.7253 127.846L18.0764 127.373C18.7516 127.083 19.383 126.583 19.725 126.022C20.1635 125.329 20.2336 124.47 20.2424 123.505L20.979 123.497ZM28.2136 121.225C28.1698 121.006 28.1171 120.813 28.0558 120.629L28.8362 120.498C28.8538 120.655 28.8888 120.91 28.9239 121.103C28.9765 121.489 29.9411 126.303 30.0639 126.882C30.1253 127.127 30.1955 127.425 30.2831 127.68L29.4764 127.829C29.4325 127.531 29.4062 127.259 29.3448 127.004C29.2571 126.452 28.3188 121.681 28.2136 121.225ZM25.7407 122.497C25.9599 122.479 26.1967 122.462 26.4773 122.436C27.2665 122.348 30.2919 121.866 31.125 121.699C31.3793 121.655 31.6073 121.603 31.7564 121.559L31.8967 122.295C31.7651 122.304 31.5021 122.348 31.2653 122.383C30.3621 122.523 27.3718 122.997 26.6001 123.128C26.3633 123.172 26.1528 123.216 25.8985 123.277L25.7407 122.497ZM25.7144 125.023C25.9248 125.014 26.2581 124.979 26.4861 124.944C27.4244 124.821 30.6865 124.286 31.7388 124.093C32.0721 124.032 32.3264 123.97 32.5105 123.918L32.6596 124.654C32.4755 124.672 32.1948 124.724 31.8704 124.777C30.7041 124.952 27.5384 125.47 26.6527 125.628C26.3107 125.689 26.0652 125.742 25.8722 125.794L25.7144 125.023ZM40.2952 121.567C40.2426 121.638 40.1286 121.831 40.0847 121.945C39.734 122.813 39.0675 124.04 38.3397 124.847C37.3575 125.943 36.1035 126.987 34.718 127.618L34.1567 127.031C35.5774 126.487 36.8664 125.435 37.7697 124.435C38.366 123.76 39.0061 122.716 39.2341 121.988C38.9184 121.988 36.1123 121.988 35.8141 121.988C35.4984 121.988 35.0249 122.023 34.9284 122.032V121.243C35.0424 121.261 35.5423 121.296 35.8141 121.296C36.1561 121.296 38.8658 121.296 39.199 121.296C39.4797 121.296 39.7164 121.269 39.8567 121.225L40.2952 121.567ZM38.4537 124.391C39.4007 125.18 40.567 126.408 41.1634 127.136L40.5583 127.671C39.9269 126.838 38.9009 125.715 37.9538 124.882L38.4537 124.391ZM45.0043 126.654C45.0043 126.163 45.0043 122.287 45.0043 121.559C45.0043 121.304 44.9867 120.919 44.9429 120.638H45.8023C45.7672 120.91 45.7409 121.287 45.7409 121.559C45.7409 122.918 45.7497 126.241 45.7497 126.654C45.7497 126.934 45.7672 127.408 45.8023 127.697H44.9517C44.9955 127.417 45.0043 126.978 45.0043 126.654ZM45.583 122.944C46.7406 123.277 48.512 123.953 49.4853 124.426L49.1784 125.172C48.1787 124.637 46.5389 124.014 45.583 123.716V122.944ZM52.7036 120.945C52.958 120.971 53.2123 120.989 53.5016 120.989C54.0103 120.989 56.5621 120.989 57.0532 120.989C57.2987 120.989 57.6144 120.971 57.8687 120.945V121.673C57.6056 121.655 57.2987 121.638 57.0532 121.638C56.5621 121.638 54.0103 121.638 53.5104 121.638C53.221 121.638 52.9316 121.655 52.7036 121.673V120.945ZM51.6601 123.146C51.8969 123.172 52.1512 123.181 52.423 123.181C52.9316 123.181 57.6933 123.181 58.1581 123.181C58.3423 123.181 58.6316 123.172 58.8509 123.146V123.865C58.6492 123.856 58.3773 123.847 58.1581 123.847C57.6933 123.847 52.9316 123.847 52.423 123.847C52.16 123.847 51.8969 123.856 51.6601 123.874V123.146ZM55.7904 123.497C55.7904 124.602 55.6501 125.514 55.2555 126.25C54.9398 126.838 54.2733 127.46 53.5367 127.846L52.8878 127.373C53.563 127.083 54.1944 126.583 54.5364 126.022C54.9749 125.329 55.045 124.47 55.0538 123.505L55.7904 123.497ZM63.025 121.225C62.9812 121.006 62.9286 120.813 62.8672 120.629L63.6476 120.498C63.6652 120.655 63.7002 120.91 63.7353 121.103C63.7879 121.489 64.7526 126.303 64.8753 126.882C64.9367 127.127 65.0069 127.425 65.0946 127.68L64.2878 127.829C64.2439 127.531 64.2176 127.259 64.1562 127.004C64.0686 126.452 63.1302 121.681 63.025 121.225ZM60.5521 122.497C60.7713 122.479 61.0081 122.462 61.2887 122.436C62.0779 122.348 65.1033 121.866 65.9364 121.699C66.1907 121.655 66.4187 121.603 66.5678 121.559L66.7081 122.295C66.5766 122.304 66.3135 122.348 66.0767 122.383C65.1735 122.523 62.1832 122.997 61.4115 123.128C61.1747 123.172 60.9643 123.216 60.7099 123.277L60.5521 122.497ZM60.5258 125.023C60.7363 125.014 61.0695 124.979 61.2975 124.944C62.2358 124.821 65.4979 124.286 66.5502 124.093C66.8835 124.032 67.1378 123.97 67.3219 123.918L67.471 124.654C67.2869 124.672 67.0062 124.724 66.6818 124.777C65.5155 124.952 62.3498 125.47 61.4641 125.628C61.1221 125.689 60.8766 125.742 60.6836 125.794L60.5258 125.023ZM75.1066 121.567C75.054 121.638 74.94 121.831 74.8961 121.945C74.5454 122.813 73.8789 124.04 73.1511 124.847C72.1689 125.943 70.9149 126.987 69.5294 127.618L68.9682 127.031C70.3888 126.487 71.6778 125.435 72.5811 124.435C73.1774 123.76 73.8175 122.716 74.0455 121.988C73.7298 121.988 70.9237 121.988 70.6255 121.988C70.3098 121.988 69.8363 122.023 69.7398 122.032V121.243C69.8538 121.261 70.3537 121.296 70.6255 121.296C70.9675 121.296 73.6772 121.296 74.0105 121.296C74.2911 121.296 74.5278 121.269 74.6681 121.225L75.1066 121.567ZM73.2651 124.391C74.2121 125.18 75.3785 126.408 75.9748 127.136L75.3697 127.671C74.7383 126.838 73.7123 125.715 72.7652 124.882L73.2651 124.391ZM79.8157 126.654C79.8157 126.163 79.8157 122.287 79.8157 121.559C79.8157 121.304 79.7981 120.919 79.7543 120.638H80.6137C80.5786 120.91 80.5523 121.287 80.5523 121.559C80.5523 122.918 80.5611 126.241 80.5611 126.654C80.5611 126.934 80.5786 127.408 80.6137 127.697H79.7631C79.8069 127.417 79.8157 126.978 79.8157 126.654ZM80.3944 122.944C81.552 123.277 83.3234 123.953 84.2967 124.426L83.9898 125.172C82.9901 124.637 81.3503 124.014 80.3944 123.716V122.944ZM87.5151 120.945C87.7694 120.971 88.0237 120.989 88.3131 120.989C88.8217 120.989 91.3735 120.989 91.8646 120.989C92.1101 120.989 92.4258 120.971 92.6801 120.945V121.673C92.4171 121.655 92.1101 121.638 91.8646 121.638C91.3735 121.638 88.8217 121.638 88.3218 121.638C88.0324 121.638 87.7431 121.655 87.5151 121.673V120.945ZM86.4715 123.146C86.7083 123.172 86.9626 123.181 87.2344 123.181C87.7431 123.181 92.5047 123.181 92.9695 123.181C93.1537 123.181 93.443 123.172 93.6623 123.146V123.865C93.4606 123.856 93.1887 123.847 92.9695 123.847C92.5047 123.847 87.7431 123.847 87.2344 123.847C86.9714 123.847 86.7083 123.856 86.4715 123.874V123.146ZM90.6018 123.497C90.6018 124.602 90.4615 125.514 90.0669 126.25C89.7512 126.838 89.0847 127.46 88.3481 127.846L87.6992 127.373C88.3744 127.083 89.0058 126.583 89.3478 126.022C89.7863 125.329 89.8564 124.47 89.8652 123.505L90.6018 123.497ZM97.8364 121.225C97.7926 121.006 97.74 120.813 97.6786 120.629L98.459 120.498C98.4766 120.655 98.5117 120.91 98.5467 121.103C98.5993 121.489 99.564 126.303 99.6867 126.882C99.7481 127.127 99.8183 127.425 99.906 127.68L99.0992 127.829C99.0553 127.531 99.029 127.259 98.9677 127.004C98.88 126.452 97.9417 121.681 97.8364 121.225ZM95.3635 122.497C95.5827 122.479 95.8195 122.462 96.1001 122.436C96.8894 122.348 99.9147 121.866 100.748 121.699C101.002 121.655 101.23 121.603 101.379 121.559L101.519 122.295C101.388 122.304 101.125 122.348 100.888 122.383C99.9849 122.523 96.9946 122.997 96.2229 123.128C95.9861 123.172 95.7757 123.216 95.5214 123.277L95.3635 122.497ZM95.3372 125.023C95.5477 125.014 95.8809 124.979 96.1089 124.944C97.0472 124.821 100.309 124.286 101.362 124.093C101.695 124.032 101.949 123.97 102.133 123.918L102.282 124.654C102.098 124.672 101.818 124.724 101.493 124.777C100.327 124.952 97.1612 125.47 96.2755 125.628C95.9335 125.689 95.688 125.742 95.495 125.794L95.3372 125.023ZM109.918 121.567C109.865 121.638 109.751 121.831 109.708 121.945C109.357 122.813 108.69 124.04 107.962 124.847C106.98 125.943 105.726 126.987 104.341 127.618L103.78 127.031C105.2 126.487 106.489 125.435 107.392 124.435C107.989 123.76 108.629 122.716 108.857 121.988C108.541 121.988 105.735 121.988 105.437 121.988C105.121 121.988 104.648 122.023 104.551 122.032V121.243C104.665 121.261 105.165 121.296 105.437 121.296C105.779 121.296 108.489 121.296 108.822 121.296C109.102 121.296 109.339 121.269 109.48 121.225L109.918 121.567ZM108.076 124.391C109.024 125.18 110.19 126.408 110.786 127.136L110.181 127.671C109.55 126.838 108.524 125.715 107.577 124.882L108.076 124.391ZM114.627 126.654C114.627 126.163 114.627 122.287 114.627 121.559C114.627 121.304 114.61 120.919 114.566 120.638H115.425C115.39 120.91 115.364 121.287 115.364 121.559C115.364 122.918 115.372 126.241 115.372 126.654C115.372 126.934 115.39 127.408 115.425 127.697H114.574C114.618 127.417 114.627 126.978 114.627 126.654ZM115.206 122.944C116.363 123.277 118.135 123.953 119.108 124.426L118.801 125.172C117.802 124.637 116.162 124.014 115.206 123.716V122.944ZM122.326 120.945C122.581 120.971 122.835 120.989 123.124 120.989C123.633 120.989 126.185 120.989 126.676 120.989C126.922 120.989 127.237 120.971 127.492 120.945V121.673C127.228 121.655 126.922 121.638 126.676 121.638C126.185 121.638 123.633 121.638 123.133 121.638C122.844 121.638 122.554 121.655 122.326 121.673V120.945ZM121.283 123.146C121.52 123.172 121.774 123.181 122.046 123.181C122.554 123.181 127.316 123.181 127.781 123.181C127.965 123.181 128.254 123.172 128.474 123.146V123.865C128.272 123.856 128 123.847 127.781 123.847C127.316 123.847 122.554 123.847 122.046 123.847C121.783 123.847 121.52 123.856 121.283 123.874V123.146ZM125.413 123.497C125.413 124.602 125.273 125.514 124.878 126.25C124.563 126.838 123.896 127.46 123.16 127.846L122.511 127.373C123.186 127.083 123.817 126.583 124.159 126.022C124.598 125.329 124.668 124.47 124.677 123.505L125.413 123.497ZM132.648 121.225C132.604 121.006 132.551 120.813 132.49 120.629L133.27 120.498C133.288 120.655 133.323 120.91 133.358 121.103C133.411 121.489 134.375 126.303 134.498 126.882C134.56 127.127 134.63 127.425 134.717 127.68L133.911 127.829C133.867 127.531 133.84 127.259 133.779 127.004C133.691 126.452 132.753 121.681 132.648 121.225ZM130.175 122.497C130.394 122.479 130.631 122.462 130.912 122.436C131.701 122.348 134.726 121.866 135.559 121.699C135.814 121.655 136.042 121.603 136.191 121.559L136.331 122.295C136.199 122.304 135.936 122.348 135.7 122.383C134.796 122.523 131.806 122.997 131.034 123.128C130.798 123.172 130.587 123.216 130.333 123.277L130.175 122.497ZM130.149 125.023C130.359 125.014 130.692 124.979 130.92 124.944C131.859 124.821 135.121 124.286 136.173 124.093C136.506 124.032 136.761 123.97 136.945 123.918L137.094 124.654C136.91 124.672 136.629 124.724 136.305 124.777C135.138 124.952 131.973 125.47 131.087 125.628C130.745 125.689 130.499 125.742 130.306 125.794L130.149 125.023ZM144.729 121.567C144.677 121.638 144.563 121.831 144.519 121.945C144.168 122.813 143.502 124.04 142.774 124.847C141.792 125.943 140.538 126.987 139.152 127.618L138.591 127.031C140.012 126.487 141.301 125.435 142.204 124.435C142.8 123.76 143.44 122.716 143.668 121.988C143.353 121.988 140.546 121.988 140.248 121.988C139.933 121.988 139.459 122.023 139.363 122.032V121.243C139.477 121.261 139.976 121.296 140.248 121.296C140.59 121.296 143.3 121.296 143.633 121.296C143.914 121.296 144.151 121.269 144.291 121.225L144.729 121.567ZM142.888 124.391C143.835 125.18 145.001 126.408 145.598 127.136L144.992 127.671C144.361 126.838 143.335 125.715 142.388 124.882L142.888 124.391ZM149.438 126.654C149.438 126.163 149.438 122.287 149.438 121.559C149.438 121.304 149.421 120.919 149.377 120.638H150.236C150.201 120.91 150.175 121.287 150.175 121.559C150.175 122.918 150.184 126.241 150.184 126.654C150.184 126.934 150.201 127.408 150.236 127.697H149.386C149.43 127.417 149.438 126.978 149.438 126.654ZM150.017 122.944C151.175 123.277 152.946 123.953 153.92 124.426L153.613 125.172C152.613 124.637 150.973 124.014 150.017 123.716V122.944ZM157.138 120.945C157.392 120.971 157.646 120.989 157.936 120.989C158.444 120.989 160.996 120.989 161.487 120.989C161.733 120.989 162.049 120.971 162.303 120.945V121.673C162.04 121.655 161.733 121.638 161.487 121.638C160.996 121.638 158.444 121.638 157.945 121.638C157.655 121.638 157.366 121.655 157.138 121.673V120.945ZM156.094 123.146C156.331 123.172 156.585 123.181 156.857 123.181C157.366 123.181 162.128 123.181 162.592 123.181C162.776 123.181 163.066 123.172 163.285 123.146V123.865C163.083 123.856 162.812 123.847 162.592 123.847C162.128 123.847 157.366 123.847 156.857 123.847C156.594 123.847 156.331 123.856 156.094 123.874V123.146ZM160.225 123.497C160.225 124.602 160.084 125.514 159.69 126.25C159.374 126.838 158.708 127.46 157.971 127.846L157.322 127.373C157.997 127.083 158.629 126.583 158.971 126.022C159.409 125.329 159.479 124.47 159.488 123.505L160.225 123.497ZM167.459 121.225C167.415 121.006 167.363 120.813 167.301 120.629L168.082 120.498C168.099 120.655 168.134 120.91 168.17 121.103C168.222 121.489 169.187 126.303 169.31 126.882C169.371 127.127 169.441 127.425 169.529 127.68L168.722 127.829C168.678 127.531 168.652 127.259 168.59 127.004C168.503 126.452 167.564 121.681 167.459 121.225ZM164.986 122.497C165.206 122.479 165.442 122.462 165.723 122.436C166.512 122.348 169.538 121.866 170.371 121.699C170.625 121.655 170.853 121.603 171.002 121.559L171.142 122.295C171.011 122.304 170.748 122.348 170.511 122.383C169.608 122.523 166.617 122.997 165.846 123.128C165.609 123.172 165.398 123.216 165.144 123.277L164.986 122.497ZM164.96 125.023C165.17 125.014 165.504 124.979 165.732 124.944C166.67 124.821 169.932 124.286 170.984 124.093C171.318 124.032 171.572 123.97 171.756 123.918L171.905 124.654C171.721 124.672 171.44 124.724 171.116 124.777C169.95 124.952 166.784 125.47 165.898 125.628C165.556 125.689 165.311 125.742 165.118 125.794L164.96 125.023ZM17.8922 133.945C18.1465 133.971 18.4009 133.989 18.6902 133.989C19.1989 133.989 21.7507 133.989 22.2418 133.989C22.4873 133.989 22.803 133.971 23.0573 133.945V134.673C22.7942 134.655 22.4873 134.638 22.2418 134.638C21.7507 134.638 19.1989 134.638 18.699 134.638C18.4096 134.638 18.1202 134.655 17.8922 134.673V133.945ZM16.8487 136.146C17.0855 136.172 17.3398 136.181 17.6116 136.181C18.1202 136.181 22.8819 136.181 23.3467 136.181C23.5308 136.181 23.8202 136.172 24.0395 136.146V136.865C23.8378 136.856 23.5659 136.847 23.3467 136.847C22.8819 136.847 18.1202 136.847 17.6116 136.847C17.3485 136.847 17.0855 136.856 16.8487 136.874V136.146ZM20.979 136.497C20.979 137.602 20.8387 138.514 20.4441 139.25C20.1284 139.838 19.4619 140.46 18.7253 140.846L18.0764 140.373C18.7516 140.083 19.383 139.583 19.725 139.022C20.1635 138.329 20.2336 137.47 20.2424 136.505L20.979 136.497ZM28.2136 134.225C28.1698 134.006 28.1171 133.813 28.0558 133.629L28.8362 133.498C28.8538 133.655 28.8888 133.91 28.9239 134.103C28.9765 134.489 29.9411 139.303 30.0639 139.882C30.1253 140.127 30.1955 140.425 30.2831 140.68L29.4764 140.829C29.4325 140.531 29.4062 140.259 29.3448 140.004C29.2571 139.452 28.3188 134.681 28.2136 134.225ZM25.7407 135.497C25.9599 135.479 26.1967 135.462 26.4773 135.436C27.2665 135.348 30.2919 134.866 31.125 134.699C31.3793 134.655 31.6073 134.603 31.7564 134.559L31.8967 135.295C31.7651 135.304 31.5021 135.348 31.2653 135.383C30.3621 135.523 27.3718 135.997 26.6001 136.128C26.3633 136.172 26.1528 136.216 25.8985 136.277L25.7407 135.497ZM25.7144 138.023C25.9248 138.014 26.2581 137.979 26.4861 137.944C27.4244 137.821 30.6865 137.286 31.7388 137.093C32.0721 137.032 32.3264 136.97 32.5105 136.918L32.6596 137.654C32.4755 137.672 32.1948 137.724 31.8704 137.777C30.7041 137.952 27.5384 138.47 26.6527 138.628C26.3107 138.689 26.0652 138.742 25.8722 138.794L25.7144 138.023ZM40.2952 134.567C40.2426 134.638 40.1286 134.831 40.0847 134.945C39.734 135.813 39.0675 137.04 38.3397 137.847C37.3575 138.943 36.1035 139.987 34.718 140.618L34.1567 140.031C35.5774 139.487 36.8664 138.435 37.7697 137.435C38.366 136.76 39.0061 135.716 39.2341 134.988C38.9184 134.988 36.1123 134.988 35.8141 134.988C35.4984 134.988 35.0249 135.023 34.9284 135.032V134.243C35.0424 134.261 35.5423 134.296 35.8141 134.296C36.1561 134.296 38.8658 134.296 39.199 134.296C39.4797 134.296 39.7164 134.269 39.8567 134.225L40.2952 134.567ZM38.4537 137.391C39.4007 138.18 40.567 139.408 41.1634 140.136L40.5583 140.671C39.9269 139.838 38.9009 138.715 37.9538 137.882L38.4537 137.391ZM45.0043 139.654C45.0043 139.163 45.0043 135.287 45.0043 134.559C45.0043 134.304 44.9867 133.919 44.9429 133.638H45.8023C45.7672 133.91 45.7409 134.287 45.7409 134.559C45.7409 135.918 45.7497 139.241 45.7497 139.654C45.7497 139.934 45.7672 140.408 45.8023 140.697H44.9517C44.9955 140.417 45.0043 139.978 45.0043 139.654ZM45.583 135.944C46.7406 136.277 48.512 136.953 49.4853 137.426L49.1784 138.172C48.1787 137.637 46.5389 137.014 45.583 136.716V135.944ZM52.7036 133.945C52.958 133.971 53.2123 133.989 53.5016 133.989C54.0103 133.989 56.5621 133.989 57.0532 133.989C57.2987 133.989 57.6144 133.971 57.8687 133.945V134.673C57.6056 134.655 57.2987 134.638 57.0532 134.638C56.5621 134.638 54.0103 134.638 53.5104 134.638C53.221 134.638 52.9316 134.655 52.7036 134.673V133.945ZM51.6601 136.146C51.8969 136.172 52.1512 136.181 52.423 136.181C52.9316 136.181 57.6933 136.181 58.1581 136.181C58.3423 136.181 58.6316 136.172 58.8509 136.146V136.865C58.6492 136.856 58.3773 136.847 58.1581 136.847C57.6933 136.847 52.9316 136.847 52.423 136.847C52.16 136.847 51.8969 136.856 51.6601 136.874V136.146ZM55.7904 136.497C55.7904 137.602 55.6501 138.514 55.2555 139.25C54.9398 139.838 54.2733 140.46 53.5367 140.846L52.8878 140.373C53.563 140.083 54.1944 139.583 54.5364 139.022C54.9749 138.329 55.045 137.47 55.0538 136.505L55.7904 136.497ZM63.025 134.225C62.9812 134.006 62.9286 133.813 62.8672 133.629L63.6476 133.498C63.6652 133.655 63.7002 133.91 63.7353 134.103C63.7879 134.489 64.7526 139.303 64.8753 139.882C64.9367 140.127 65.0069 140.425 65.0946 140.68L64.2878 140.829C64.2439 140.531 64.2176 140.259 64.1562 140.004C64.0686 139.452 63.1302 134.681 63.025 134.225ZM60.5521 135.497C60.7713 135.479 61.0081 135.462 61.2887 135.436C62.0779 135.348 65.1033 134.866 65.9364 134.699C66.1907 134.655 66.4187 134.603 66.5678 134.559L66.7081 135.295C66.5766 135.304 66.3135 135.348 66.0767 135.383C65.1735 135.523 62.1832 135.997 61.4115 136.128C61.1747 136.172 60.9643 136.216 60.7099 136.277L60.5521 135.497ZM60.5258 138.023C60.7363 138.014 61.0695 137.979 61.2975 137.944C62.2358 137.821 65.4979 137.286 66.5502 137.093C66.8835 137.032 67.1378 136.97 67.3219 136.918L67.471 137.654C67.2869 137.672 67.0062 137.724 66.6818 137.777C65.5155 137.952 62.3498 138.47 61.4641 138.628C61.1221 138.689 60.8766 138.742 60.6836 138.794L60.5258 138.023ZM75.1066 134.567C75.054 134.638 74.94 134.831 74.8961 134.945C74.5454 135.813 73.8789 137.04 73.1511 137.847C72.1689 138.943 70.9149 139.987 69.5294 140.618L68.9682 140.031C70.3888 139.487 71.6778 138.435 72.5811 137.435C73.1774 136.76 73.8175 135.716 74.0455 134.988C73.7298 134.988 70.9237 134.988 70.6255 134.988C70.3098 134.988 69.8363 135.023 69.7398 135.032V134.243C69.8538 134.261 70.3537 134.296 70.6255 134.296C70.9675 134.296 73.6772 134.296 74.0105 134.296C74.2911 134.296 74.5278 134.269 74.6681 134.225L75.1066 134.567ZM73.2651 137.391C74.2121 138.18 75.3785 139.408 75.9748 140.136L75.3697 140.671C74.7383 139.838 73.7123 138.715 72.7652 137.882L73.2651 137.391ZM79.8157 139.654C79.8157 139.163 79.8157 135.287 79.8157 134.559C79.8157 134.304 79.7981 133.919 79.7543 133.638H80.6137C80.5786 133.91 80.5523 134.287 80.5523 134.559C80.5523 135.918 80.5611 139.241 80.5611 139.654C80.5611 139.934 80.5786 140.408 80.6137 140.697H79.7631C79.8069 140.417 79.8157 139.978 79.8157 139.654ZM80.3944 135.944C81.552 136.277 83.3234 136.953 84.2967 137.426L83.9898 138.172C82.9901 137.637 81.3503 137.014 80.3944 136.716V135.944ZM87.5151 133.945C87.7694 133.971 88.0237 133.989 88.3131 133.989C88.8217 133.989 91.3735 133.989 91.8646 133.989C92.1101 133.989 92.4258 133.971 92.6801 133.945V134.673C92.4171 134.655 92.1101 134.638 91.8646 134.638C91.3735 134.638 88.8217 134.638 88.3218 134.638C88.0324 134.638 87.7431 134.655 87.5151 134.673V133.945ZM86.4715 136.146C86.7083 136.172 86.9626 136.181 87.2344 136.181C87.7431 136.181 92.5047 136.181 92.9695 136.181C93.1537 136.181 93.443 136.172 93.6623 136.146V136.865C93.4606 136.856 93.1887 136.847 92.9695 136.847C92.5047 136.847 87.7431 136.847 87.2344 136.847C86.9714 136.847 86.7083 136.856 86.4715 136.874V136.146ZM90.6018 136.497C90.6018 137.602 90.4615 138.514 90.0669 139.25C89.7512 139.838 89.0847 140.46 88.3481 140.846L87.6992 140.373C88.3744 140.083 89.0058 139.583 89.3478 139.022C89.7863 138.329 89.8564 137.47 89.8652 136.505L90.6018 136.497ZM97.8364 134.225C97.7926 134.006 97.74 133.813 97.6786 133.629L98.459 133.498C98.4766 133.655 98.5117 133.91 98.5467 134.103C98.5993 134.489 99.564 139.303 99.6867 139.882C99.7481 140.127 99.8183 140.425 99.906 140.68L99.0992 140.829C99.0553 140.531 99.029 140.259 98.9677 140.004C98.88 139.452 97.9417 134.681 97.8364 134.225ZM95.3635 135.497C95.5827 135.479 95.8195 135.462 96.1001 135.436C96.8894 135.348 99.9147 134.866 100.748 134.699C101.002 134.655 101.23 134.603 101.379 134.559L101.519 135.295C101.388 135.304 101.125 135.348 100.888 135.383C99.9849 135.523 96.9946 135.997 96.2229 136.128C95.9861 136.172 95.7757 136.216 95.5214 136.277L95.3635 135.497ZM95.3372 138.023C95.5477 138.014 95.8809 137.979 96.1089 137.944C97.0472 137.821 100.309 137.286 101.362 137.093C101.695 137.032 101.949 136.97 102.133 136.918L102.282 137.654C102.098 137.672 101.818 137.724 101.493 137.777C100.327 137.952 97.1612 138.47 96.2755 138.628C95.9335 138.689 95.688 138.742 95.495 138.794L95.3372 138.023ZM109.918 134.567C109.865 134.638 109.751 134.831 109.708 134.945C109.357 135.813 108.69 137.04 107.962 137.847C106.98 138.943 105.726 139.987 104.341 140.618L103.78 140.031C105.2 139.487 106.489 138.435 107.392 137.435C107.989 136.76 108.629 135.716 108.857 134.988C108.541 134.988 105.735 134.988 105.437 134.988C105.121 134.988 104.648 135.023 104.551 135.032V134.243C104.665 134.261 105.165 134.296 105.437 134.296C105.779 134.296 108.489 134.296 108.822 134.296C109.102 134.296 109.339 134.269 109.48 134.225L109.918 134.567ZM108.076 137.391C109.024 138.18 110.19 139.408 110.786 140.136L110.181 140.671C109.55 139.838 108.524 138.715 107.577 137.882L108.076 137.391ZM114.627 139.654C114.627 139.163 114.627 135.287 114.627 134.559C114.627 134.304 114.61 133.919 114.566 133.638H115.425C115.39 133.91 115.364 134.287 115.364 134.559C115.364 135.918 115.372 139.241 115.372 139.654C115.372 139.934 115.39 140.408 115.425 140.697H114.574C114.618 140.417 114.627 139.978 114.627 139.654ZM115.206 135.944C116.363 136.277 118.135 136.953 119.108 137.426L118.801 138.172C117.802 137.637 116.162 137.014 115.206 136.716V135.944ZM122.326 133.945C122.581 133.971 122.835 133.989 123.124 133.989C123.633 133.989 126.185 133.989 126.676 133.989C126.922 133.989 127.237 133.971 127.492 133.945V134.673C127.228 134.655 126.922 134.638 126.676 134.638C126.185 134.638 123.633 134.638 123.133 134.638C122.844 134.638 122.554 134.655 122.326 134.673V133.945ZM121.283 136.146C121.52 136.172 121.774 136.181 122.046 136.181C122.554 136.181 127.316 136.181 127.781 136.181C127.965 136.181 128.254 136.172 128.474 136.146V136.865C128.272 136.856 128 136.847 127.781 136.847C127.316 136.847 122.554 136.847 122.046 136.847C121.783 136.847 121.52 136.856 121.283 136.874V136.146ZM125.413 136.497C125.413 137.602 125.273 138.514 124.878 139.25C124.563 139.838 123.896 140.46 123.16 140.846L122.511 140.373C123.186 140.083 123.817 139.583 124.159 139.022C124.598 138.329 124.668 137.47 124.677 136.505L125.413 136.497ZM132.648 134.225C132.604 134.006 132.551 133.813 132.49 133.629L133.27 133.498C133.288 133.655 133.323 133.91 133.358 134.103C133.411 134.489 134.375 139.303 134.498 139.882C134.56 140.127 134.63 140.425 134.717 140.68L133.911 140.829C133.867 140.531 133.84 140.259 133.779 140.004C133.691 139.452 132.753 134.681 132.648 134.225ZM130.175 135.497C130.394 135.479 130.631 135.462 130.912 135.436C131.701 135.348 134.726 134.866 135.559 134.699C135.814 134.655 136.042 134.603 136.191 134.559L136.331 135.295C136.199 135.304 135.936 135.348 135.7 135.383C134.796 135.523 131.806 135.997 131.034 136.128C130.798 136.172 130.587 136.216 130.333 136.277L130.175 135.497ZM130.149 138.023C130.359 138.014 130.692 137.979 130.92 137.944C131.859 137.821 135.121 137.286 136.173 137.093C136.506 137.032 136.761 136.97 136.945 136.918L137.094 137.654C136.91 137.672 136.629 137.724 136.305 137.777C135.138 137.952 131.973 138.47 131.087 138.628C130.745 138.689 130.499 138.742 130.306 138.794L130.149 138.023ZM144.729 134.567C144.677 134.638 144.563 134.831 144.519 134.945C144.168 135.813 143.502 137.04 142.774 137.847C141.792 138.943 140.538 139.987 139.152 140.618L138.591 140.031C140.012 139.487 141.301 138.435 142.204 137.435C142.8 136.76 143.44 135.716 143.668 134.988C143.353 134.988 140.546 134.988 140.248 134.988C139.933 134.988 139.459 135.023 139.363 135.032V134.243C139.477 134.261 139.976 134.296 140.248 134.296C140.59 134.296 143.3 134.296 143.633 134.296C143.914 134.296 144.151 134.269 144.291 134.225L144.729 134.567ZM142.888 137.391C143.835 138.18 145.001 139.408 145.598 140.136L144.992 140.671C144.361 139.838 143.335 138.715 142.388 137.882L142.888 137.391ZM149.438 139.654C149.438 139.163 149.438 135.287 149.438 134.559C149.438 134.304 149.421 133.919 149.377 133.638H150.236C150.201 133.91 150.175 134.287 150.175 134.559C150.175 135.918 150.184 139.241 150.184 139.654C150.184 139.934 150.201 140.408 150.236 140.697H149.386C149.43 140.417 149.438 139.978 149.438 139.654ZM150.017 135.944C151.175 136.277 152.946 136.953 153.92 137.426L153.613 138.172C152.613 137.637 150.973 137.014 150.017 136.716V135.944ZM157.138 133.945C157.392 133.971 157.646 133.989 157.936 133.989C158.444 133.989 160.996 133.989 161.487 133.989C161.733 133.989 162.049 133.971 162.303 133.945V134.673C162.04 134.655 161.733 134.638 161.487 134.638C160.996 134.638 158.444 134.638 157.945 134.638C157.655 134.638 157.366 134.655 157.138 134.673V133.945ZM156.094 136.146C156.331 136.172 156.585 136.181 156.857 136.181C157.366 136.181 162.128 136.181 162.592 136.181C162.776 136.181 163.066 136.172 163.285 136.146V136.865C163.083 136.856 162.812 136.847 162.592 136.847C162.128 136.847 157.366 136.847 156.857 136.847C156.594 136.847 156.331 136.856 156.094 136.874V136.146ZM160.225 136.497C160.225 137.602 160.084 138.514 159.69 139.25C159.374 139.838 158.708 140.46 157.971 140.846L157.322 140.373C157.997 140.083 158.629 139.583 158.971 139.022C159.409 138.329 159.479 137.47 159.488 136.505L160.225 136.497ZM167.459 134.225C167.415 134.006 167.363 133.813 167.301 133.629L168.082 133.498C168.099 133.655 168.134 133.91 168.17 134.103C168.222 134.489 169.187 139.303 169.31 139.882C169.371 140.127 169.441 140.425 169.529 140.68L168.722 140.829C168.678 140.531 168.652 140.259 168.59 140.004C168.503 139.452 167.564 134.681 167.459 134.225ZM164.986 135.497C165.206 135.479 165.442 135.462 165.723 135.436C166.512 135.348 169.538 134.866 170.371 134.699C170.625 134.655 170.853 134.603 171.002 134.559L171.142 135.295C171.011 135.304 170.748 135.348 170.511 135.383C169.608 135.523 166.617 135.997 165.846 136.128C165.609 136.172 165.398 136.216 165.144 136.277L164.986 135.497ZM164.96 138.023C165.17 138.014 165.504 137.979 165.732 137.944C166.67 137.821 169.932 137.286 170.984 137.093C171.318 137.032 171.572 136.97 171.756 136.918L171.905 137.654C171.721 137.672 171.44 137.724 171.116 137.777C169.95 137.952 166.784 138.47 165.898 138.628C165.556 138.689 165.311 138.742 165.118 138.794L164.96 138.023Z" fill="black"/>
<rect x="21.2773" y="41" width="143.815" height="15.3461" rx="3.94615" fill="#00ABB6"/>
<g filter="url(#filter2_d_1016_10398)">
<rect x="22.5068" y="41.6177" width="75.8538" height="13.1538" rx="3.94615" fill="white"/>
</g>
<path d="M130.326 47.2446C130.447 47.4182 130.621 47.7124 130.717 47.9053L130.457 48.0259C130.36 47.8282 130.196 47.5388 130.066 47.3555L130.326 47.2446ZM130.852 47.0516C130.982 47.2301 131.166 47.5291 131.257 47.7076L130.997 47.8233C130.891 47.6159 130.736 47.341 130.601 47.1626L130.852 47.0516ZM130.645 48.2044C130.606 48.2767 130.558 48.3876 130.534 48.4648C130.404 48.9471 130.105 49.6031 129.68 50.1239C129.241 50.6593 128.662 51.103 127.756 51.4358L127.408 51.1223C128.296 50.8619 128.894 50.423 129.333 49.9117C129.709 49.468 130.003 48.8458 130.105 48.4069H128.315L128.469 48.0597C128.667 48.0597 129.859 48.0597 130.008 48.0597C130.138 48.0597 130.244 48.0452 130.326 48.0114L130.645 48.2044ZM129.029 47.4761C128.952 47.6015 128.865 47.7655 128.817 47.8571C128.532 48.3876 128.026 49.0773 127.254 49.5934L126.916 49.3426C127.751 48.8458 128.224 48.1465 128.436 47.7124C128.484 47.6304 128.556 47.452 128.585 47.3314L129.029 47.4761ZM132.574 47.5147C132.699 47.5291 132.849 47.5388 133.003 47.5388C133.264 47.5388 134.619 47.5388 134.903 47.5388C135.053 47.5388 135.222 47.5291 135.338 47.5147V47.915C135.227 47.9053 135.058 47.9005 134.894 47.9005C134.624 47.9005 133.268 47.9005 133.003 47.9005C132.858 47.9005 132.704 47.9053 132.574 47.915V47.5147ZM135.694 48.7831C135.67 48.8314 135.637 48.8892 135.627 48.9278C135.502 49.4005 135.284 49.9021 134.923 50.2976C134.421 50.8522 133.813 51.132 133.201 51.3056L132.902 50.9632C133.582 50.8233 134.185 50.5098 134.6 50.0757C134.889 49.7719 135.082 49.3619 135.169 49.0098C134.932 49.0098 132.902 49.0098 132.613 49.0098C132.497 49.0098 132.313 49.0146 132.14 49.0291V48.624C132.313 48.6384 132.477 48.6529 132.613 48.6529C132.849 48.6529 134.903 48.6529 135.149 48.6529C135.26 48.6529 135.366 48.6384 135.42 48.6143L135.694 48.7831ZM140.436 47.9005C140.402 47.968 140.382 48.0452 140.363 48.1417C140.257 48.6481 140.026 49.4246 139.64 49.9214C139.201 50.4857 138.627 50.9342 137.744 51.2091L137.416 50.8474C138.352 50.6159 138.892 50.2059 139.297 49.6899C139.64 49.251 139.862 48.5806 139.929 48.1175C139.649 48.1175 137.739 48.1175 137.46 48.1175C137.267 48.1175 137.103 48.1272 136.982 48.132V47.7028C137.112 47.7221 137.305 47.7365 137.465 47.7365C137.739 47.7365 139.664 47.7365 139.881 47.7365C139.953 47.7365 140.05 47.7317 140.141 47.7124L140.436 47.9005Z" fill="white"/>
<path d="M50.9783 46.9636H54.1374V51.0005H53.7563V47.3302H51.3496V51.0198H50.9783V46.9636ZM51.2242 48.6372H53.9155V48.9941H51.2242V48.6372ZM51.2194 50.3446H53.9252V50.7063H51.2194V50.3446ZM57.4894 48.4829H59.1534V48.8253H57.4894V48.4829ZM57.3302 48.4829H57.692V50.4507C57.692 50.6388 57.745 50.6774 58.0103 50.6774C58.1357 50.6774 58.7627 50.6774 58.9267 50.6774C59.1871 50.6774 59.2257 50.552 59.2546 49.8816C59.3415 49.9443 59.4958 50.007 59.5971 50.0311C59.544 50.8076 59.4331 51.0246 58.9508 51.0246C58.8302 51.0246 58.0923 51.0246 57.9814 51.0246C57.4798 51.0246 57.3302 50.9089 57.3302 50.4459V48.4829ZM57.2772 46.9105H59.3415V49.0954H58.9749V47.253H57.2772V46.9105ZM55.3624 48.097H56.8672V48.3864H55.3624V48.097ZM55.3914 46.8093H56.8865V47.0986H55.3914V46.8093ZM55.3624 48.7433H56.8672V49.0327H55.3624V48.7433ZM55.1357 47.4411H57.0553V47.7401H55.1357V47.4411ZM55.5312 49.3944H56.8528V50.8028H55.5312V50.4989H56.5296V49.6935H55.5312V49.3944ZM55.3576 49.3944H55.6807V51.0246H55.3576V49.3944ZM61.9025 47.5617H64.3478V47.8945H61.9025V47.5617ZM61.9942 48.5263H64.2465V48.8542H61.9942V48.5263ZM61.753 49.5391H64.4153V49.8767H61.753V49.5391ZM62.9202 47.6774H63.2723V51.0729H62.9202V47.6774ZM63.7835 46.6308L64.1356 46.7466C63.9909 47.0408 63.8269 47.3784 63.687 47.5954L63.4073 47.4941C63.5327 47.2626 63.6967 46.8864 63.7835 46.6308ZM62.1099 46.7707L62.4041 46.6646C62.5681 46.9202 62.7273 47.2626 62.7851 47.4845L62.4716 47.6099C62.4186 47.3832 62.2642 47.0311 62.1099 46.7707ZM60.1855 48.097H61.6228V48.3864H60.1855V48.097ZM60.2096 46.8093H61.6131V47.0986H60.2096V46.8093ZM60.1855 48.7433H61.6228V49.0327H60.1855V48.7433ZM59.9588 47.4411H61.7916V47.7401H59.9588V47.4411ZM60.3591 49.3944H61.6228V50.8028H60.3591V50.4989H61.3045V49.6935H60.3591V49.3944ZM60.1807 49.3944H60.4942V51.0246H60.1807V49.3944ZM67.7529 47.171H68.076V50.6195H67.7529V47.171ZM66.7979 47.0215H69.0792V50.9764H68.7416V47.3591H67.1259V51.015H66.7979V47.0215ZM66.9764 48.6951H68.8911V49.0279H66.9764V48.6951ZM66.9764 50.4169H68.8767V50.7497H66.9764V50.4169ZM65.597 48.9073H65.9201V51.068H65.597V48.9073ZM65.5488 46.6356L65.8719 46.7659C65.6886 47.1228 65.4523 47.552 65.2642 47.8221L65.0086 47.7064C65.1967 47.4266 65.4234 46.9588 65.5488 46.6356ZM66.142 47.1903L66.4507 47.3398C66.1131 47.8752 65.6356 48.56 65.2642 48.9748L65.0375 48.8446C65.4089 48.4202 65.8767 47.7015 66.142 47.1903ZM64.7771 47.6678L64.9603 47.4266C65.2208 47.6437 65.5198 47.9523 65.65 48.1597L65.4571 48.4395C65.3317 48.2176 65.0327 47.8896 64.7771 47.6678ZM66.0069 48.2948L66.2819 48.1742C66.4941 48.4877 66.7063 48.9025 66.7883 49.1726L66.4989 49.3124C66.4217 49.0423 66.2143 48.6131 66.0069 48.2948ZM64.7433 48.7674C65.1822 48.7433 65.8333 48.6999 66.4796 48.6517L66.4844 48.9459C65.8815 48.9989 65.2642 49.0568 64.7964 49.1002L64.7433 48.7674ZM66.0938 49.462L66.3735 49.3751C66.5134 49.6693 66.6484 50.0552 66.7063 50.3108L66.4024 50.4121C66.359 50.1565 66.2288 49.761 66.0938 49.462ZM65.0423 49.3896L65.3558 49.4475C65.2931 49.9009 65.1774 50.3687 65.0279 50.6774C64.9652 50.6388 64.8205 50.5713 64.7385 50.5423C64.8976 50.2481 64.9893 49.814 65.0423 49.3896Z" fill="#00ABB6"/>
<rect x="9" y="69" width="41" height="20" rx="5" stroke="#FF0000" stroke-width="2"/>
<rect x="140" y="69" width="41" height="20" rx="5" stroke="#FF0000" stroke-width="2"/>
<defs>
<filter id="filter0_d_1016_10398" x="7.24616" y="65.1177" width="174.508" height="91.6385" filterUnits="userSpaceOnUse" color-interpolation-filters="sRGB">
<feFlood flood-opacity="0" result="BackgroundImageFix"/>
<feColorMatrix in="SourceAlpha" type="matrix" values="0 0 0 0 0 0 0 0 0 0 0 0 0 0 0 0 0 0 127 0" result="hardAlpha"/>
<feOffset dy="1.75384"/>
<feGaussianBlur stdDeviation="0.876922"/>
<feComposite in2="hardAlpha" operator="out"/>
<feColorMatrix type="matrix" values="0 0 0 0 0.0156863 0 0 0 0 0.792157 0 0 0 0 0.839216 0 0 0 0.15 0"/>
<feBlend mode="normal" in2="BackgroundImageFix" result="effect1_dropShadow_1016_10398"/>
<feBlend mode="normal" in="SourceGraphic" in2="effect1_dropShadow_1016_10398" result="shape"/>
</filter>
<filter id="filter1_d_1016_10398" x="7.24616" y="65.1177" width="174.508" height="91.6385" filterUnits="userSpaceOnUse" color-interpolation-filters="sRGB">
<feFlood flood-opacity="0" result="BackgroundImageFix"/>
<feColorMatrix in="SourceAlpha" type="matrix" values="0 0 0 0 0 0 0 0 0 0 0 0 0 0 0 0 0 0 127 0" result="hardAlpha"/>
<feOffset dy="1.75384"/>
<feGaussianBlur stdDeviation="0.876922"/>
<feComposite in2="hardAlpha" operator="out"/>
<feColorMatrix type="matrix" values="0 0 0 0 0.0156863 0 0 0 0 0.792157 0 0 0 0 0.839216 0 0 0 0.15 0"/>
<feBlend mode="normal" in2="BackgroundImageFix" result="effect1_dropShadow_1016_10398"/>
<feBlend mode="normal" in="SourceGraphic" in2="effect1_dropShadow_1016_10398" result="shape"/>
</filter>
<filter id="filter2_d_1016_10398" x="20.753" y="41.6177" width="79.3617" height="16.6615" filterUnits="userSpaceOnUse" color-interpolation-filters="sRGB">
<feFlood flood-opacity="0" result="BackgroundImageFix"/>
<feColorMatrix in="SourceAlpha" type="matrix" values="0 0 0 0 0 0 0 0 0 0 0 0 0 0 0 0 0 0 127 0" result="hardAlpha"/>
<feOffset dy="1.75384"/>
<feGaussianBlur stdDeviation="0.876922"/>
<feComposite in2="hardAlpha" operator="out"/>
<feColorMatrix type="matrix" values="0 0 0 0 0 0 0 0 0 0 0 0 0 0 0 0 0 0 0.25 0"/>
<feBlend mode="normal" in2="BackgroundImageFix" result="effect1_dropShadow_1016_10398"/>
<feBlend mode="normal" in="SourceGraphic" in2="effect1_dropShadow_1016_10398" result="shape"/>
</filter>
<clipPath id="clip0_1016_10398">
<path d="M9 65.1177H180V153.248H9V65.1177Z" fill="white"/>
</clipPath>
</defs>
</svg>
