<svg width="61" height="26" viewBox="0 0 61 26" fill="none" xmlns="http://www.w3.org/2000/svg">
<g filter="url(#filter0_d_1016_10447)">
<rect x="2" y="1" width="57" height="22" rx="4.58232" fill="white"/>
<rect x="1.85" y="0.85" width="57.3" height="22.3" rx="4.73232" stroke="#00ABB6" stroke-width="0.3"/>
</g>
<path d="M22.79 7.81C23.04 8.18 23.39 8.81 23.58 9.18L22.78 9.53C22.57 9.12 22.26 8.52 21.99 8.14L22.79 7.81ZM23.97 7.36C24.23 7.74 24.6 8.37 24.78 8.72L23.98 9.06C23.77 8.65 23.45 8.06 23.18 7.69L23.97 7.36ZM23.68 10.01C23.57 10.21 23.43 10.48 23.35 10.73C23.08 11.62 22.51 12.96 21.61 14.07C20.66 15.23 19.45 16.15 17.57 16.89L16.39 15.84C18.44 15.22 19.55 14.35 20.42 13.36C21.1 12.58 21.68 11.38 21.84 10.64H18.47L18.93 9.5C19.38 9.5 21.47 9.5 21.79 9.5C22.1 9.5 22.43 9.46 22.66 9.38L23.68 10.01ZM20.42 8.43C20.19 8.78 19.93 9.24 19.81 9.45C19.14 10.66 17.94 12.07 16.51 13.05L15.38 12.22C17.14 11.15 18.01 9.86 18.51 9C18.66 8.76 18.87 8.29 18.96 7.95L20.42 8.43ZM27.63 8.33C27.9 8.37 28.33 8.39 28.67 8.39C29.3 8.39 31.93 8.39 32.51 8.39C32.83 8.39 33.32 8.37 33.59 8.33V9.63C33.33 9.61 32.86 9.59 32.49 9.59C31.94 9.59 29.26 9.59 28.67 9.59C28.34 9.59 27.92 9.6 27.63 9.63V8.33ZM34.44 11.24C34.37 11.37 34.28 11.55 34.25 11.65C33.94 12.62 33.51 13.6 32.77 14.42C31.76 15.55 30.48 16.22 29.2 16.59L28.2 15.46C29.71 15.14 30.9 14.49 31.67 13.7C32.2 13.16 32.52 12.53 32.69 11.98C32.19 11.98 28.76 11.98 27.87 11.98C27.62 11.98 27.12 11.99 26.7 12.02V10.72C27.13 10.76 27.55 10.79 27.87 10.79C28.55 10.79 32.13 10.79 32.81 10.79C33.14 10.79 33.41 10.75 33.55 10.68L34.44 11.24ZM44.69 9.35C44.59 9.54 44.52 9.83 44.47 10.04C44.24 11.02 43.8 12.57 42.96 13.69C42.06 14.88 40.73 15.88 38.94 16.45L37.85 15.25C39.84 14.79 40.96 13.92 41.77 12.91C42.44 12.07 42.81 10.94 42.95 10.08C42.34 10.08 39.04 10.08 38.29 10.08C37.83 10.08 37.36 10.11 37.1 10.12V8.71C37.4 8.75 37.96 8.79 38.29 8.79C39.04 8.79 42.36 8.79 42.92 8.79C43.11 8.79 43.43 8.78 43.7 8.72L44.69 9.35Z" fill="#00ABB6"/>
<defs>
<filter id="filter0_d_1016_10447" x="0.700195" y="0.700195" width="59.5996" height="24.5996" filterUnits="userSpaceOnUse" color-interpolation-filters="sRGB">
<feFlood flood-opacity="0" result="BackgroundImageFix"/>
<feColorMatrix in="SourceAlpha" type="matrix" values="0 0 0 0 0 0 0 0 0 0 0 0 0 0 0 0 0 0 127 0" result="hardAlpha"/>
<feOffset dy="1"/>
<feGaussianBlur stdDeviation="0.5"/>
<feComposite in2="hardAlpha" operator="out"/>
<feColorMatrix type="matrix" values="0 0 0 0 0 0 0 0 0 0 0 0 0 0 0 0 0 0 0.25 0"/>
<feBlend mode="normal" in2="BackgroundImageFix" result="effect1_dropShadow_1016_10447"/>
<feBlend mode="normal" in="SourceGraphic" in2="effect1_dropShadow_1016_10447" result="shape"/>
</filter>
</defs>
</svg>
