<svg width="26" height="32" viewBox="0 0 26 32" fill="none" xmlns="http://www.w3.org/2000/svg">
<path d="M17.3918 3.98977H16.4678V2.30981H14.6198V3.98977H5.38012V2.30981H3.53217V3.98977H2.6082C1.59183 3.98977 0.760254 4.74574 0.760254 5.66972V19.1093C0.760254 20.0333 1.59183 20.7893 2.6082 20.7893H17.3918C18.4081 20.7893 19.2397 20.0333 19.2397 19.1093V5.66972C19.2397 4.74574 18.4081 3.98977 17.3918 3.98977ZM17.3918 19.1093H2.6082V8.18964H17.3918V19.1093Z" fill="#ADADAD"/>
<path d="M7.94804 24.4996H11.9673V25.0617H7.94804V24.4996ZM7.94804 26.3552H11.9981V26.9096H7.94804V26.3552ZM7.88644 28.2186H11.9596V28.773H7.88644V28.2186ZM7.59385 24.4996H8.17904V26.8788C8.17904 28.2109 7.98654 30.028 6.66218 31.183C6.57748 31.0598 6.34649 30.8519 6.22329 30.7672C7.46296 29.6816 7.59385 28.1185 7.59385 26.8788V24.4996ZM11.7132 24.4996H12.3138V30.3283C12.3138 30.7364 12.206 30.9366 11.9134 31.0367C11.6131 31.1368 11.105 31.1445 10.2734 31.1445C10.2349 30.9751 10.1271 30.6979 10.027 30.5362C10.6661 30.5593 11.2974 30.5516 11.4745 30.5516C11.6516 30.5439 11.7132 30.49 11.7132 30.3206V24.4996Z" fill="#ADADAD"/>
</svg>
