<svg width="256" height="159" viewBox="0 0 256 159" fill="none" xmlns="http://www.w3.org/2000/svg">
<mask id="mask0_1649_11932" style="mask-type:alpha" maskUnits="userSpaceOnUse" x="60" y="0" width="196" height="159">
<rect x="60" width="196" height="159" fill="#D9D9D9"/>
</mask>
<g mask="url(#mask0_1649_11932)">
<mask id="path-2-inside-1_1649_11932" fill="white">
<path d="M76 12C76 9.23857 78.2386 7 81 7H244C246.761 7 249 9.23858 249 12V312H76V12Z"/>
</mask>
<path d="M76 12C76 9.23857 78.2386 7 81 7H244C246.761 7 249 9.23858 249 12V312H76V12Z" fill="white"/>
<path d="M75 12C75 8.68629 77.6863 6 81 6H244C247.314 6 250 8.68629 250 12H248C248 9.79086 246.209 8 244 8H81C78.7909 8 77 9.79086 77 12H75ZM249 312H76H249ZM75 312V12C75 8.68629 77.6863 6 81 6V8C78.7909 8 77 9.79086 77 12V312H75ZM244 6C247.314 6 250 8.68629 250 12V312H248V12C248 9.79086 246.209 8 244 8V6Z" fill="#D9D9D9" mask="url(#path-2-inside-1_1649_11932)"/>
<mask id="path-4-inside-2_1649_11932" fill="white">
<path d="M68 7.00001C68 2.58173 71.5817 -1 76 -1H249C253.418 -1 257 2.58172 257 7V312H68V7.00001Z"/>
</mask>
<path d="M65 7C65 0.924868 69.9249 -4 76 -4H249C255.075 -4 260 0.924868 260 7H254C254 4.23858 251.761 2 249 2H76C73.2386 2 71 4.23858 71 7H65ZM257 312H68H257ZM65 312V7C65 0.924868 69.9249 -4 76 -4V2C73.2386 2 71 4.23858 71 7V312H65ZM249 -4C255.075 -4 260 0.924868 260 7V312H254V7C254 4.23858 251.761 2 249 2V-4Z" fill="#A29C9C" fill-opacity="0.5" mask="url(#path-4-inside-2_1649_11932)"/>
<path d="M77 12C77 9.79086 78.7909 8 81 8H244C246.209 8 248 9.79086 248 12V30H77V12Z" fill="#04CAD6"/>
<path d="M162.024 15.704H166.2V16.288H162.024V15.704ZM162.024 17.632H166.232V18.208H162.024V17.632ZM161.96 19.568H166.192V20.144H161.96V19.568ZM161.656 15.704H162.264V18.176C162.264 19.56 162.064 21.448 160.688 22.648C160.6 22.52 160.36 22.304 160.232 22.216C161.52 21.088 161.656 19.464 161.656 18.176V15.704ZM165.936 15.704H166.56V21.76C166.56 22.184 166.448 22.392 166.144 22.496C165.832 22.6 165.304 22.608 164.44 22.608C164.4 22.432 164.288 22.144 164.184 21.976C164.848 22 165.504 21.992 165.688 21.992C165.872 21.984 165.936 21.928 165.936 21.752V15.704Z" fill="white"/>
<g clip-path="url(#clip0_1649_11932)">
<rect width="171" height="286.971" transform="translate(77 61.2876)" fill="white"/>
<path d="M957.959 158.612H-94.4546V159.522H957.959V158.612Z" fill="#04CAD6" mask="url(#path-8-inside-3_1649_11932)"/>
<rect width="24.4747" height="24.4747" transform="translate(76.8687 117.681)" fill="white"/>
<path d="M91.1823 131.127V132.023H87.2147V131.259L89.091 129.247C89.2795 129.037 89.4282 128.853 89.5371 128.693C89.646 128.531 89.7244 128.386 89.7722 128.259C89.8226 128.129 89.8478 128.005 89.8478 127.889C89.8478 127.713 89.8186 127.563 89.7602 127.438C89.7018 127.311 89.6155 127.213 89.5013 127.144C89.3897 127.075 89.2516 127.04 89.087 127.04C88.9117 127.04 88.7603 127.083 88.6329 127.168C88.5081 127.253 88.4124 127.371 88.3461 127.522C88.2823 127.673 88.2504 127.845 88.2504 128.036H87.0992C87.0992 127.691 87.1815 127.375 87.3462 127.088C87.5108 126.798 87.7432 126.569 88.0433 126.399C88.3434 126.226 88.6993 126.14 89.1109 126.14C89.5172 126.14 89.8598 126.206 90.1386 126.339C90.4201 126.469 90.6326 126.658 90.776 126.905C90.9221 127.149 90.9951 127.441 90.9951 127.781C90.9951 127.972 90.9646 128.159 90.9035 128.343C90.8424 128.523 90.7548 128.704 90.6406 128.884C90.529 129.062 90.3936 129.243 90.2342 129.426C90.0749 129.609 89.8983 129.799 89.7044 129.996L88.6966 131.127H91.1823Z" fill="#333333"/>
<rect width="24.4747" height="24.4747" transform="translate(101.343 117.681)" fill="white"/>
<path d="M112.864 128.625H113.478C113.674 128.625 113.836 128.592 113.964 128.526C114.091 128.457 114.186 128.361 114.247 128.239C114.31 128.114 114.342 127.97 114.342 127.805C114.342 127.656 114.313 127.525 114.255 127.411C114.199 127.294 114.113 127.203 113.996 127.14C113.879 127.073 113.732 127.04 113.554 127.04C113.413 127.04 113.283 127.068 113.163 127.124C113.044 127.179 112.948 127.258 112.876 127.359C112.805 127.46 112.769 127.582 112.769 127.725H111.618C111.618 127.407 111.703 127.129 111.873 126.893C112.045 126.656 112.276 126.472 112.566 126.339C112.855 126.206 113.174 126.14 113.522 126.14C113.915 126.14 114.259 126.204 114.553 126.331C114.848 126.456 115.078 126.64 115.243 126.885C115.407 127.129 115.49 127.432 115.49 127.793C115.49 127.976 115.447 128.154 115.362 128.327C115.277 128.497 115.155 128.651 114.996 128.789C114.839 128.924 114.648 129.033 114.422 129.115C114.196 129.195 113.943 129.235 113.661 129.235H112.864V128.625ZM112.864 129.498V128.904H113.661C113.977 128.904 114.255 128.94 114.494 129.012C114.733 129.084 114.933 129.187 115.095 129.323C115.257 129.455 115.379 129.613 115.462 129.797C115.544 129.977 115.585 130.178 115.585 130.398C115.585 130.669 115.533 130.911 115.43 131.123C115.326 131.333 115.18 131.511 114.992 131.657C114.806 131.803 114.588 131.915 114.338 131.992C114.089 132.066 113.817 132.103 113.522 132.103C113.277 132.103 113.037 132.07 112.801 132.004C112.567 131.934 112.355 131.832 112.163 131.697C111.975 131.559 111.823 131.386 111.709 131.179C111.598 130.969 111.542 130.721 111.542 130.434H112.693C112.693 130.583 112.73 130.716 112.805 130.832C112.879 130.949 112.981 131.041 113.111 131.107C113.244 131.174 113.392 131.207 113.554 131.207C113.737 131.207 113.894 131.174 114.024 131.107C114.156 131.038 114.257 130.943 114.326 130.82C114.398 130.696 114.434 130.551 114.434 130.386C114.434 130.174 114.395 130.004 114.318 129.876C114.241 129.746 114.131 129.651 113.988 129.59C113.844 129.528 113.674 129.498 113.478 129.498H112.864Z" fill="#333333"/>
<rect width="24.4747" height="24.4747" transform="translate(125.818 117.681)" fill="white"/>
<path d="M140.227 129.856V130.757H136.048L135.993 130.06L138.411 126.223H139.323L138.335 127.877L137.132 129.856H140.227ZM139.57 126.223V132.023H138.423V126.223H139.57Z" fill="#333333"/>
<rect width="24.4747" height="24.4747" transform="translate(150.293 117.681)" fill="white"/>
<path d="M161.718 129.382L160.802 129.163L161.133 126.223H164.391V127.152H162.077L161.933 128.438C162.01 128.393 162.127 128.345 162.284 128.295C162.44 128.242 162.616 128.215 162.81 128.215C163.091 128.215 163.341 128.259 163.558 128.347C163.776 128.434 163.961 128.562 164.112 128.729C164.266 128.896 164.383 129.101 164.463 129.343C164.542 129.584 164.582 129.858 164.582 130.163C164.582 130.421 164.542 130.666 164.463 130.9C164.383 131.131 164.262 131.338 164.1 131.522C163.938 131.702 163.735 131.844 163.491 131.948C163.246 132.051 162.957 132.103 162.622 132.103C162.373 132.103 162.131 132.066 161.897 131.992C161.666 131.917 161.458 131.807 161.272 131.661C161.089 131.515 160.941 131.338 160.83 131.131C160.721 130.921 160.664 130.682 160.658 130.414H161.798C161.814 130.579 161.856 130.721 161.925 130.84C161.997 130.957 162.091 131.047 162.208 131.111C162.325 131.175 162.462 131.207 162.618 131.207C162.764 131.207 162.889 131.179 162.993 131.123C163.096 131.067 163.18 130.99 163.244 130.892C163.308 130.791 163.354 130.674 163.383 130.542C163.415 130.406 163.431 130.26 163.431 130.103C163.431 129.947 163.412 129.805 163.375 129.677C163.338 129.55 163.281 129.439 163.204 129.347C163.127 129.254 163.029 129.182 162.909 129.131C162.792 129.081 162.656 129.056 162.499 129.056C162.286 129.056 162.122 129.089 162.005 129.155C161.891 129.222 161.795 129.297 161.718 129.382Z" fill="#333333"/>
<rect width="24.4747" height="24.4747" transform="translate(174.768 117.681)" fill="white"/>
<path d="M188.073 126.164H188.241V127.08H188.173C187.87 127.08 187.601 127.125 187.364 127.215C187.128 127.306 186.927 127.434 186.763 127.602C186.601 127.766 186.476 127.966 186.388 128.199C186.303 128.433 186.261 128.695 186.261 128.984V129.948C186.261 130.155 186.281 130.338 186.321 130.498C186.363 130.654 186.423 130.786 186.5 130.892C186.58 130.996 186.673 131.074 186.779 131.127C186.885 131.178 187.005 131.203 187.137 131.203C187.262 131.203 187.375 131.176 187.476 131.123C187.579 131.07 187.667 130.996 187.739 130.9C187.813 130.802 187.869 130.688 187.906 130.558C187.946 130.425 187.966 130.28 187.966 130.123C187.966 129.967 187.946 129.822 187.906 129.689C187.869 129.556 187.813 129.442 187.739 129.347C187.664 129.248 187.574 129.173 187.468 129.119C187.362 129.066 187.242 129.04 187.109 129.04C186.929 129.04 186.769 129.082 186.631 129.167C186.496 129.25 186.39 129.356 186.313 129.486C186.236 129.616 186.195 129.753 186.189 129.896L185.843 129.673C185.851 129.469 185.893 129.275 185.97 129.092C186.05 128.908 186.159 128.746 186.297 128.606C186.438 128.462 186.606 128.351 186.803 128.271C186.999 128.189 187.221 128.147 187.468 128.147C187.739 128.147 187.976 128.199 188.181 128.303C188.388 128.406 188.561 128.548 188.699 128.729C188.837 128.91 188.94 129.118 189.01 129.354C189.079 129.591 189.113 129.843 189.113 130.111C189.113 130.393 189.067 130.654 188.974 130.896C188.883 131.138 188.752 131.349 188.579 131.529C188.409 131.71 188.205 131.851 187.966 131.952C187.727 132.053 187.459 132.103 187.161 132.103C186.853 132.103 186.573 132.047 186.321 131.936C186.071 131.822 185.856 131.662 185.675 131.458C185.495 131.253 185.355 131.01 185.257 130.729C185.161 130.447 185.114 130.139 185.114 129.805V129.358C185.114 128.891 185.181 128.464 185.317 128.076C185.455 127.685 185.653 127.348 185.91 127.064C186.168 126.777 186.479 126.555 186.843 126.399C187.206 126.242 187.617 126.164 188.073 126.164Z" fill="#333333"/>
<rect width="24.4747" height="24.4747" transform="translate(199.242 117.681)" fill="white"/>
<path d="M213.528 126.223V126.841L211.285 132.023H210.074L212.317 127.12H209.429V126.223H213.528Z" fill="#333333"/>
<rect width="24.4747" height="24.4747" transform="translate(223.717 117.681)" fill="white"/>
<path d="M237.971 130.434C237.971 130.798 237.886 131.105 237.716 131.354C237.546 131.601 237.312 131.788 237.015 131.916C236.72 132.041 236.385 132.103 236.011 132.103C235.636 132.103 235.3 132.041 235.003 131.916C234.706 131.788 234.471 131.601 234.298 131.354C234.125 131.105 234.039 130.798 234.039 130.434C234.039 130.19 234.088 129.969 234.186 129.773C234.285 129.574 234.421 129.404 234.597 129.263C234.775 129.119 234.983 129.011 235.222 128.936C235.461 128.859 235.721 128.821 236.003 128.821C236.38 128.821 236.717 128.887 237.015 129.02C237.312 129.153 237.546 129.34 237.716 129.582C237.886 129.823 237.971 130.107 237.971 130.434ZM236.815 130.358C236.815 130.18 236.781 130.028 236.712 129.9C236.646 129.77 236.551 129.671 236.429 129.601C236.307 129.532 236.165 129.498 236.003 129.498C235.841 129.498 235.699 129.532 235.577 129.601C235.454 129.671 235.359 129.77 235.29 129.9C235.223 130.028 235.19 130.18 235.19 130.358C235.19 130.534 235.223 130.685 235.29 130.812C235.359 130.94 235.454 131.038 235.577 131.107C235.701 131.174 235.846 131.207 236.011 131.207C236.175 131.207 236.318 131.174 236.437 131.107C236.559 131.038 236.652 130.94 236.716 130.812C236.782 130.685 236.815 130.534 236.815 130.358ZM237.847 127.761C237.847 128.056 237.769 128.317 237.612 128.546C237.456 128.772 237.238 128.948 236.959 129.076C236.683 129.203 236.367 129.267 236.011 129.267C235.652 129.267 235.334 129.203 235.055 129.076C234.776 128.948 234.558 128.772 234.401 128.546C234.245 128.317 234.166 128.056 234.166 127.761C234.166 127.411 234.245 127.116 234.401 126.877C234.561 126.635 234.779 126.452 235.055 126.327C235.334 126.202 235.65 126.14 236.003 126.14C236.361 126.14 236.679 126.202 236.955 126.327C237.234 126.452 237.452 126.635 237.608 126.877C237.768 127.116 237.847 127.411 237.847 127.761ZM236.7 127.813C236.7 127.656 236.672 127.521 236.616 127.407C236.561 127.29 236.481 127.199 236.377 127.136C236.276 127.072 236.152 127.04 236.003 127.04C235.859 127.04 235.736 127.071 235.632 127.132C235.531 127.193 235.453 127.282 235.397 127.399C235.344 127.513 235.318 127.651 235.318 127.813C235.318 127.97 235.344 128.108 235.397 128.227C235.453 128.344 235.533 128.436 235.636 128.502C235.74 128.568 235.865 128.602 236.011 128.602C236.157 128.602 236.28 128.568 236.381 128.502C236.485 128.436 236.563 128.344 236.616 128.227C236.672 128.108 236.7 127.97 236.7 127.813Z" fill="#333333"/>
<path d="M101.475 116.716H77V117.625H101.475V116.716Z" fill="#04CAD6" mask="url(#path-17-inside-4_1649_11932)"/>
<path d="M87.0016 106.725H91.4458V112.239H90.6244V107.496H87.7911V112.246H87.0016V106.725ZM87.5428 108.865H90.9682V109.622H87.5428V108.865ZM87.5364 111.061H90.9682V111.832H87.5364V111.061Z" fill="#FC8686"/>
<path d="M150.424 116.716H125.949V117.625H150.424V116.716Z" fill="#04CAD6" mask="url(#path-20-inside-5_1649_11932)"/>
<path d="M136.097 107.61L136.874 107.776C136.766 108.578 136.575 109.336 136.027 109.794L135.333 109.361C135.798 108.973 136.008 108.336 136.097 107.61ZM140.007 107.598L140.853 107.922C140.529 108.54 140.14 109.221 139.822 109.667L139.16 109.374C139.459 108.903 139.816 108.164 140.007 107.598ZM138.122 106.433H138.542V108.425C138.542 109.393 139.141 110.87 141.127 111.603C140.955 111.774 140.713 112.099 140.599 112.322C139.071 111.698 138.3 110.418 138.122 109.788C137.95 110.437 137.25 111.679 135.741 112.322C135.639 112.15 135.371 111.825 135.206 111.666C137.129 110.934 137.708 109.387 137.708 108.432V106.433H138.122Z" fill="#333333"/>
<path d="M199.374 116.716H174.899V117.625H199.374V116.716Z" fill="#04CAD6" mask="url(#path-23-inside-6_1649_11932)"/>
<path d="M184.308 107.827H189.911V108.585H184.308V107.827ZM186.696 106.343H187.511V112.322H186.696V106.343ZM186.53 108.247L187.205 108.47C186.632 109.813 185.69 111.03 184.595 111.724C184.461 111.526 184.2 111.227 184.022 111.068C185.072 110.495 186.04 109.368 186.53 108.247ZM187.657 108.279C188.16 109.361 189.154 110.469 190.192 111.03C190.007 111.182 189.739 111.488 189.612 111.698C188.549 111.01 187.606 109.794 187.021 108.502L187.657 108.279Z" fill="#333333"/>
<path d="M125.949 116.716H101.475V117.625H125.949V116.716Z" fill="#04CAD6" mask="url(#path-26-inside-7_1649_11932)"/>
<path d="M112.215 106.643H115.398V107.388H112.215V106.643ZM112.221 108.164H115.43V108.89H112.221V108.164ZM112.189 109.673H115.386V110.412H112.189V109.673ZM111.693 106.643H112.476V108.75C112.476 109.858 112.304 111.418 111.228 112.322C111.113 112.163 110.801 111.876 110.636 111.774C111.604 110.953 111.693 109.724 111.693 108.75V106.643ZM115.042 106.643H115.85V111.354C115.85 111.806 115.742 112.036 115.449 112.163C115.144 112.297 114.692 112.309 114.029 112.309C113.985 112.08 113.838 111.711 113.711 111.507C114.163 111.533 114.692 111.526 114.844 111.526C114.991 111.52 115.042 111.475 115.042 111.342V106.643Z" fill="#333333"/>
<path d="M174.899 116.716H150.424V117.625H174.899V116.716Z" fill="#04CAD6" mask="url(#path-29-inside-8_1649_11932)"/>
<path d="M159.776 107.903H161.553V108.674H159.776V107.903ZM162.253 106.35H163.062V111.335C163.062 111.794 162.966 112.023 162.699 112.163C162.425 112.297 162.005 112.328 161.426 112.328C161.394 112.093 161.241 111.704 161.12 111.475C161.54 111.494 161.941 111.494 162.081 111.494C162.209 111.488 162.253 111.45 162.253 111.329V106.35ZM161.292 107.903H161.451L161.585 107.878L162.113 108.069C161.82 109.807 161.12 111.106 160.209 111.774C160.076 111.596 159.764 111.284 159.579 111.17C160.451 110.584 161.075 109.476 161.292 108.069V107.903ZM163.017 107.279C163.425 108.967 164.259 110.469 165.685 111.151C165.494 111.31 165.227 111.628 165.099 111.864C163.622 111.03 162.864 109.374 162.412 107.407L163.017 107.279ZM164.8 107.337L165.52 107.84C164.978 108.413 164.297 109.056 163.762 109.457L163.215 109.024C163.73 108.597 164.405 107.903 164.8 107.337Z" fill="#333333"/>
<path d="M223.848 116.716H199.374V117.625H223.848V116.716Z" fill="#04CAD6" mask="url(#path-32-inside-9_1649_11932)"/>
<path d="M211.559 107.069C211.031 107.814 210.056 108.648 209.012 109.202C208.917 109.024 208.7 108.744 208.535 108.585C209.63 108.05 210.655 107.095 211.126 106.324H211.922C212.61 107.292 213.635 108.094 214.647 108.508C214.462 108.699 214.284 108.96 214.144 109.196C213.17 108.68 212.107 107.821 211.559 107.069ZM209.961 108.254H213.17V108.922H209.961V108.254ZM209.203 109.552H213.921V110.208H209.203V109.552ZM208.878 111.488H214.29V112.144H208.878V111.488ZM211.139 108.521H211.954V111.813H211.139V108.521ZM209.598 110.45L210.216 110.195C210.458 110.52 210.712 110.96 210.808 111.259L210.146 111.545C210.063 111.252 209.827 110.788 209.598 110.45ZM212.839 110.202L213.565 110.476C213.304 110.864 213.023 111.278 212.801 111.545L212.228 111.31C212.431 111.01 212.699 110.546 212.839 110.202Z" fill="#333333"/>
<path d="M248.323 116.716H223.848V117.625H248.323V116.716Z" fill="#04CAD6" mask="url(#path-35-inside-10_1649_11932)"/>
<path d="M233.582 108.317H238.542V109.069H233.582V108.317ZM233.162 111.303H238.962V112.055H233.162V111.303ZM235.632 106.356H236.454V111.813H235.632V106.356Z" fill="#0094FF"/>
<line x1="101.786" y1="116.771" x2="101.786" y2="348.258" stroke="#04CAD6" stroke-width="0.454787"/>
<line x1="125.89" y1="116.771" x2="125.89" y2="348.258" stroke="#04CAD6" stroke-width="0.454787"/>
<line x1="150.448" y1="116.771" x2="150.448" y2="348.258" stroke="#04CAD6" stroke-width="0.454787"/>
<line x1="174.552" y1="117.227" x2="174.552" y2="348.713" stroke="#04CAD6" stroke-width="0.454787"/>
<line x1="199.11" y1="116.771" x2="199.11" y2="348.258" stroke="#04CAD6" stroke-width="0.454787"/>
<line x1="223.669" y1="116.771" x2="223.669" y2="348.258" stroke="#04CAD6" stroke-width="0.454787"/>
<path d="M236.858 153.155C239.997 153.155 242.543 150.61 242.543 147.47C242.543 144.33 239.997 141.785 236.858 141.785C233.718 141.785 231.173 144.33 231.173 147.47C231.173 150.61 233.718 153.155 236.858 153.155Z" fill="#A6FF4D"/>
<path d="M234.494 149.245C234.508 149.301 234.862 150.628 236.858 150.628C238.853 150.628 239.207 149.301 239.221 149.245C239.239 149.176 239.208 149.105 239.147 149.07C239.085 149.035 239.008 149.045 238.957 149.094C238.951 149.1 238.34 149.68 236.858 149.68C235.375 149.68 234.764 149.1 234.758 149.095C234.728 149.065 234.687 149.049 234.647 149.049C234.62 149.049 234.593 149.055 234.569 149.069C234.507 149.104 234.476 149.176 234.494 149.245Z" fill="#664500"/>
<path d="M234.963 147.154C235.399 147.154 235.752 146.659 235.752 146.049C235.752 145.438 235.399 144.943 234.963 144.943C234.527 144.943 234.173 145.438 234.173 146.049C234.173 146.659 234.527 147.154 234.963 147.154Z" fill="#664500"/>
<path d="M238.753 147.154C239.189 147.154 239.543 146.659 239.543 146.049C239.543 145.438 239.189 144.943 238.753 144.943C238.317 144.943 237.963 145.438 237.963 146.049C237.963 146.659 238.317 147.154 238.753 147.154Z" fill="#664500"/>
<path d="M144.309 147.925C144.309 151.064 141.763 153.609 138.624 153.609C135.485 153.609 132.939 151.064 132.939 147.925C132.939 144.785 135.485 142.24 138.624 142.24C141.763 142.24 144.309 144.785 144.309 147.925Z" fill="#4DCAFF"/>
<path d="M138.202 145.57C138.137 145.541 138.06 145.56 138.015 145.616C138.012 145.62 137.706 145.996 136.962 146.199C136.717 146.266 136.478 146.299 136.253 146.299C135.939 146.299 135.76 146.232 135.759 146.232C135.693 146.205 135.616 146.228 135.574 146.286C135.531 146.344 135.534 146.423 135.579 146.479C135.602 146.506 136.141 147.157 136.882 147.157C136.993 147.157 137.104 147.142 137.211 147.113C138.113 146.867 138.288 145.784 138.295 145.738C138.306 145.667 138.268 145.598 138.202 145.57ZM141.668 146.25C141.625 146.193 141.548 146.173 141.482 146.2C141.48 146.201 141.282 146.281 140.933 146.281C140.725 146.281 140.504 146.253 140.279 146.197C139.53 146.013 139.215 145.645 139.212 145.642C139.166 145.586 139.089 145.568 139.024 145.599C138.958 145.629 138.922 145.699 138.934 145.77C138.943 145.816 139.145 146.894 140.052 147.117C140.15 147.142 140.251 147.154 140.351 147.154C141.108 147.154 141.645 146.472 141.668 146.443C141.711 146.386 141.711 146.307 141.668 146.25ZM136.097 145.398C135.955 145.398 135.827 145.302 135.791 145.159C135.749 144.99 135.851 144.819 136.019 144.776C136.031 144.773 137.154 144.473 137.71 143.362C137.788 143.206 137.977 143.142 138.133 143.221C138.29 143.299 138.353 143.489 138.275 143.645C137.586 145.022 136.231 145.374 136.174 145.389C136.148 145.395 136.122 145.398 136.097 145.398ZM141.151 145.398C141.125 145.398 141.1 145.395 141.074 145.389C141.017 145.374 139.662 145.022 138.973 143.644C138.895 143.488 138.958 143.298 139.114 143.22C139.27 143.142 139.46 143.206 139.538 143.362C140.094 144.472 141.217 144.773 141.229 144.776C141.397 144.819 141.499 144.991 141.457 145.16C141.42 145.303 141.292 145.398 141.151 145.398ZM138.624 151.388C137.48 151.388 136.72 151.521 135.782 151.703C135.567 151.745 135.15 151.703 135.15 151.072C135.15 149.809 136.601 148.229 138.624 148.229C140.647 148.229 142.098 149.809 142.098 151.072C142.098 151.703 141.681 151.745 141.466 151.703C140.527 151.521 139.768 151.388 138.624 151.388Z" fill="#664500"/>
<path d="M136.097 150.135C136.097 150.135 137.045 149.82 138.624 149.82C140.203 149.82 141.15 150.135 141.15 150.135C141.15 150.135 140.519 148.872 138.624 148.872C136.729 148.872 136.097 150.135 136.097 150.135Z" fill="white"/>
<path d="M168.867 148.379C168.867 151.519 166.322 154.064 163.182 154.064C160.043 154.064 157.498 151.519 157.498 148.379C157.498 145.24 160.043 142.694 163.182 142.694C166.322 142.694 168.867 145.24 168.867 148.379Z" fill="#4DCAFF"/>
<path d="M162.76 146.025C162.695 145.996 162.618 146.015 162.573 146.071C162.57 146.075 162.264 146.451 161.52 146.654C161.275 146.721 161.036 146.754 160.811 146.754C160.498 146.754 160.318 146.688 160.318 146.687C160.251 146.66 160.174 146.683 160.132 146.741C160.09 146.799 160.092 146.878 160.137 146.934C160.16 146.961 160.699 147.612 161.44 147.612C161.551 147.612 161.662 147.597 161.769 147.568C162.671 147.322 162.846 146.239 162.853 146.193C162.864 146.122 162.826 146.053 162.76 146.025ZM166.226 146.705C166.183 146.648 166.106 146.628 166.04 146.655C166.038 146.656 165.84 146.736 165.491 146.736C165.283 146.736 165.062 146.708 164.837 146.652C164.088 146.468 163.773 146.1 163.77 146.097C163.724 146.041 163.648 146.023 163.582 146.054C163.517 146.084 163.48 146.154 163.493 146.225C163.501 146.271 163.704 147.349 164.61 147.572C164.708 147.597 164.809 147.609 164.909 147.609C165.666 147.609 166.204 146.927 166.226 146.898C166.27 146.841 166.269 146.762 166.226 146.705ZM160.655 145.853C160.513 145.853 160.385 145.757 160.349 145.614C160.307 145.445 160.409 145.274 160.577 145.231C160.589 145.228 161.712 144.928 162.268 143.817C162.346 143.661 162.535 143.598 162.692 143.676C162.848 143.754 162.911 143.944 162.833 144.1C162.144 145.477 160.789 145.829 160.732 145.844C160.706 145.85 160.68 145.853 160.655 145.853ZM165.709 145.853C165.683 145.853 165.658 145.85 165.632 145.844C165.575 145.829 164.22 145.477 163.531 144.099C163.453 143.943 163.517 143.754 163.673 143.676C163.828 143.598 164.018 143.661 164.096 143.817C164.652 144.927 165.775 145.228 165.787 145.231C165.955 145.274 166.057 145.446 166.015 145.615C165.978 145.758 165.85 145.853 165.709 145.853ZM163.182 151.843C162.038 151.843 161.279 151.976 160.34 152.159C160.125 152.2 159.708 152.159 159.708 151.527C159.708 150.264 161.159 148.684 163.182 148.684C165.205 148.684 166.656 150.264 166.656 151.527C166.656 152.159 166.239 152.2 166.024 152.159C165.086 151.976 164.326 151.843 163.182 151.843Z" fill="#664500"/>
<path d="M160.656 150.59C160.656 150.59 161.603 150.275 163.182 150.275C164.761 150.275 165.709 150.59 165.709 150.59C165.709 150.59 165.077 149.327 163.182 149.327C161.287 149.327 160.656 150.59 160.656 150.59Z" fill="white"/>
<path d="M193.425 148.834C193.425 151.974 190.88 154.519 187.741 154.519C184.601 154.519 182.056 151.974 182.056 148.834C182.056 145.695 184.601 143.149 187.741 143.149C190.88 143.149 193.425 145.695 193.425 148.834Z" fill="#4DCAFF"/>
<path d="M187.319 146.479C187.253 146.451 187.176 146.47 187.132 146.526C187.129 146.53 186.823 146.906 186.078 147.108C185.834 147.175 185.595 147.209 185.369 147.209C185.056 147.209 184.877 147.142 184.876 147.142C184.81 147.115 184.733 147.137 184.691 147.195C184.648 147.253 184.65 147.333 184.696 147.388C184.718 147.416 185.258 148.067 185.999 148.067C186.109 148.067 186.22 148.052 186.328 148.022C187.229 147.777 187.405 146.693 187.412 146.647C187.423 146.577 187.384 146.508 187.319 146.479ZM190.785 147.16C190.741 147.103 190.665 147.082 190.599 147.11C190.597 147.111 190.399 147.19 190.05 147.19C189.841 147.19 189.621 147.162 189.395 147.107C188.647 146.923 188.331 146.554 188.329 146.552C188.283 146.496 188.206 146.478 188.141 146.508C188.075 146.538 188.038 146.609 188.051 146.679C188.059 146.725 188.262 147.804 189.169 148.027C189.267 148.051 189.367 148.064 189.468 148.064C190.224 148.064 190.762 147.382 190.785 147.352C190.828 147.295 190.828 147.217 190.785 147.16ZM185.213 146.308C185.072 146.308 184.943 146.212 184.907 146.069C184.865 145.9 184.968 145.728 185.136 145.686C185.147 145.683 186.271 145.382 186.826 144.272C186.904 144.116 187.094 144.052 187.25 144.13C187.406 144.208 187.469 144.398 187.391 144.554C186.703 145.932 185.348 146.284 185.291 146.299C185.265 146.305 185.239 146.308 185.213 146.308ZM190.267 146.308C190.242 146.308 190.216 146.305 190.191 146.298C190.133 146.284 188.778 145.931 188.09 144.554C188.012 144.398 188.075 144.208 188.231 144.13C188.387 144.052 188.577 144.115 188.655 144.271C189.21 145.382 190.334 145.683 190.345 145.686C190.514 145.729 190.616 145.901 190.573 146.069C190.537 146.212 190.408 146.308 190.267 146.308ZM187.741 152.297C186.596 152.297 185.837 152.431 184.898 152.613C184.684 152.655 184.267 152.613 184.267 151.982C184.267 150.718 185.718 149.139 187.741 149.139C189.763 149.139 191.215 150.718 191.215 151.982C191.215 152.613 190.798 152.655 190.583 152.613C189.644 152.431 188.885 152.297 187.741 152.297Z" fill="#664500"/>
<path d="M185.214 151.045C185.214 151.045 186.161 150.729 187.74 150.729C189.32 150.729 190.267 151.045 190.267 151.045C190.267 151.045 189.635 149.782 187.74 149.782C185.846 149.782 185.214 151.045 185.214 151.045Z" fill="white"/>
<path d="M217.529 148.379C217.529 151.519 214.984 154.064 211.845 154.064C208.705 154.064 206.16 151.519 206.16 148.379C206.16 145.24 208.705 142.694 211.845 142.694C214.984 142.694 217.529 145.24 217.529 148.379Z" fill="#4DCAFF"/>
<path d="M211.423 146.025C211.357 145.996 211.28 146.015 211.236 146.071C211.233 146.075 210.927 146.451 210.182 146.654C209.938 146.721 209.699 146.754 209.473 146.754C209.16 146.754 208.981 146.688 208.98 146.687C208.914 146.66 208.837 146.683 208.795 146.741C208.752 146.799 208.754 146.878 208.8 146.934C208.822 146.961 209.362 147.612 210.103 147.612C210.213 147.612 210.324 147.597 210.432 147.568C211.333 147.322 211.509 146.239 211.516 146.193C211.527 146.122 211.488 146.053 211.423 146.025ZM214.889 146.705C214.845 146.648 214.769 146.628 214.703 146.655C214.701 146.656 214.503 146.736 214.154 146.736C213.945 146.736 213.725 146.708 213.499 146.652C212.751 146.468 212.435 146.1 212.433 146.097C212.387 146.041 212.31 146.023 212.245 146.054C212.179 146.084 212.142 146.154 212.155 146.225C212.163 146.271 212.366 147.349 213.273 147.572C213.371 147.597 213.471 147.609 213.572 147.609C214.328 147.609 214.866 146.927 214.889 146.898C214.932 146.841 214.932 146.762 214.889 146.705ZM209.317 145.853C209.176 145.853 209.047 145.757 209.011 145.614C208.969 145.445 209.072 145.274 209.24 145.231C209.251 145.228 210.375 144.928 210.93 143.817C211.008 143.661 211.198 143.598 211.354 143.676C211.51 143.754 211.573 143.944 211.495 144.1C210.807 145.477 209.452 145.829 209.395 145.844C209.369 145.85 209.343 145.853 209.317 145.853ZM214.371 145.853C214.346 145.853 214.32 145.85 214.295 145.844C214.237 145.829 212.882 145.477 212.194 144.099C212.116 143.943 212.179 143.754 212.335 143.676C212.491 143.598 212.681 143.661 212.759 143.817C213.314 144.927 214.438 145.228 214.449 145.231C214.618 145.274 214.72 145.446 214.677 145.615C214.641 145.758 214.512 145.853 214.371 145.853ZM211.845 151.843C210.7 151.843 209.941 151.976 209.002 152.159C208.788 152.2 208.371 152.159 208.371 151.527C208.371 150.264 209.822 148.684 211.845 148.684C213.867 148.684 215.319 150.264 215.319 151.527C215.319 152.159 214.902 152.2 214.687 152.159C213.748 151.976 212.989 151.843 211.845 151.843Z" fill="#664500"/>
<path d="M209.318 150.59C209.318 150.59 210.265 150.275 211.844 150.275C213.424 150.275 214.371 150.59 214.371 150.59C214.371 150.59 213.739 149.327 211.844 149.327C209.95 149.327 209.318 150.59 209.318 150.59Z" fill="white"/>
<path d="M119.75 147.925C119.75 151.064 117.205 153.609 114.065 153.609C110.926 153.609 108.38 151.064 108.38 147.925C108.38 144.785 110.926 142.24 114.065 142.24C117.205 142.24 119.75 144.785 119.75 147.925Z" fill="#4DCAFF"/>
<path d="M113.643 145.57C113.578 145.541 113.501 145.56 113.456 145.616C113.454 145.62 113.147 145.996 112.403 146.199C112.158 146.266 111.92 146.299 111.694 146.299C111.381 146.299 111.202 146.232 111.201 146.232C111.135 146.205 111.058 146.228 111.015 146.286C110.973 146.344 110.975 146.423 111.021 146.479C111.043 146.506 111.583 147.157 112.323 147.157C112.434 147.157 112.545 147.142 112.653 147.113C113.554 146.867 113.73 145.784 113.737 145.738C113.747 145.667 113.709 145.598 113.643 145.57ZM117.11 146.25C117.066 146.193 116.99 146.173 116.923 146.2C116.921 146.201 116.723 146.281 116.375 146.281C116.166 146.281 115.946 146.253 115.72 146.197C114.972 146.013 114.656 145.645 114.653 145.642C114.607 145.586 114.531 145.568 114.465 145.599C114.4 145.629 114.363 145.699 114.376 145.77C114.384 145.816 114.587 146.894 115.494 147.117C115.592 147.142 115.692 147.154 115.792 147.154C116.549 147.154 117.087 146.472 117.109 146.443C117.153 146.386 117.153 146.307 117.11 146.25ZM111.538 145.398C111.397 145.398 111.268 145.302 111.232 145.159C111.19 144.99 111.292 144.819 111.461 144.776C111.472 144.773 112.596 144.473 113.151 143.362C113.229 143.206 113.418 143.142 113.575 143.221C113.731 143.299 113.794 143.489 113.716 143.645C113.027 145.022 111.672 145.374 111.615 145.389C111.59 145.395 111.564 145.398 111.538 145.398ZM116.592 145.398C116.567 145.398 116.541 145.395 116.516 145.389C116.458 145.374 115.103 145.022 114.415 143.644C114.337 143.488 114.4 143.298 114.556 143.22C114.712 143.142 114.901 143.206 114.98 143.362C115.535 144.472 116.658 144.773 116.67 144.776C116.838 144.819 116.941 144.991 116.898 145.16C116.861 145.303 116.733 145.398 116.592 145.398ZM114.065 151.388C112.921 151.388 112.162 151.521 111.223 151.703C111.009 151.745 110.591 151.703 110.591 151.072C110.591 149.809 112.043 148.229 114.065 148.229C116.088 148.229 117.539 149.809 117.539 151.072C117.539 151.703 117.122 151.745 116.908 151.703C115.969 151.521 115.21 151.388 114.065 151.388Z" fill="#664500"/>
<path d="M111.539 150.135C111.539 150.135 112.486 149.82 114.065 149.82C115.644 149.82 116.592 150.135 116.592 150.135C116.592 150.135 115.96 148.872 114.065 148.872C112.17 148.872 111.539 150.135 111.539 150.135Z" fill="white"/>
<path d="M88.1424 153.893C91.282 153.893 93.8272 151.488 93.8272 148.521C93.8272 145.554 91.282 143.149 88.1424 143.149C85.0027 143.149 82.4575 145.554 82.4575 148.521C82.4575 151.488 85.0027 153.893 88.1424 153.893Z" fill="#D3CAB3"/>
<path d="M86.6663 150.521C86.6178 150.484 86.58 150.434 86.562 150.374C86.5171 150.229 86.6054 150.084 86.7593 150.051C88.2734 149.729 89.293 150.482 89.3362 150.514C89.4646 150.611 89.4896 150.781 89.394 150.895C89.2984 151.008 89.1171 151.022 88.989 150.926C88.9523 150.899 88.1453 150.318 86.9218 150.579C86.8301 150.598 86.7365 150.574 86.6663 150.521Z" fill="#65471B"/>
<path d="M86.5099 147.514C86.9024 147.514 87.2205 147.138 87.2205 146.674C87.2205 146.211 86.9024 145.835 86.5099 145.835C86.1175 145.835 85.7993 146.211 85.7993 146.674C85.7993 147.138 86.1175 147.514 86.5099 147.514Z" fill="#65471B"/>
<path d="M90.2741 147.849C90.6665 147.849 90.9847 147.474 90.9847 147.01C90.9847 146.547 90.6665 146.171 90.2741 146.171C89.8816 146.171 89.5635 146.547 89.5635 147.01C89.5635 147.474 89.8816 147.849 90.2741 147.849Z" fill="#65471B"/>
<path d="M85.2314 145.15C85.1766 145.123 85.1301 145.08 85.1007 145.024C85.0285 144.889 85.0873 144.731 85.2321 144.673C86.6587 144.094 87.8067 144.659 87.8548 144.684C87.9996 144.757 88.0581 144.92 87.9856 145.048C87.9134 145.176 87.7381 145.221 87.5933 145.149C87.5522 145.129 86.6463 144.696 85.494 145.164C85.408 145.198 85.311 145.19 85.2314 145.15ZM89.2894 146.335C89.2373 146.304 89.1938 146.259 89.1684 146.201C89.1058 146.062 89.1761 145.908 89.3249 145.859C90.7899 145.373 91.8947 146.01 91.9409 146.038C92.0797 146.12 92.1265 146.287 92.0452 146.41C91.9643 146.533 91.7857 146.567 91.647 146.485C91.6068 146.463 90.735 145.973 89.5513 146.366C89.4623 146.394 89.3663 146.38 89.2894 146.335Z" fill="#65471B"/>
</g>
<rect x="91" y="39.1494" width="144" height="15.3659" rx="3.95122" fill="#00ABB6"/>
<g filter="url(#filter0_d_1649_11932)">
<rect x="92.7563" y="40.0532" width="75.9512" height="13.1707" rx="3.95122" fill="white"/>
</g>
<path d="M114.612 44.7389H117.133V45.0915H114.612V44.7389ZM114.612 45.9028H117.153V46.2505H114.612V45.9028ZM114.574 47.0715H117.128V47.4192H114.574V47.0715ZM114.39 44.7389H114.757V46.2312C114.757 47.0666 114.637 48.2063 113.806 48.9307C113.753 48.8535 113.608 48.7231 113.531 48.6699C114.308 47.989 114.39 47.0087 114.39 46.2312V44.7389ZM116.974 44.7389H117.351V48.3947C117.351 48.6506 117.283 48.7762 117.1 48.839C116.911 48.9017 116.592 48.9066 116.071 48.9066C116.047 48.8003 115.979 48.6265 115.916 48.5251C116.317 48.5396 116.713 48.5347 116.824 48.5347C116.935 48.5299 116.974 48.4961 116.974 48.3898V44.7389ZM119.896 47.4433H121.359V47.7234H119.896V47.4433ZM119.881 46.7141H121.528V48.4768H119.881V48.1967H121.185V46.999H119.881V46.7141ZM119.722 46.7141H120.055V48.7231H119.722V46.7141ZM118.833 45.3764H120.176V45.642H118.833V45.3764ZM121.06 45.3764H122.426V45.642H121.06V45.3764ZM122.276 44.6906H122.639V48.4478C122.639 48.6796 122.586 48.8003 122.431 48.8631C122.276 48.9211 122.016 48.9259 121.61 48.9259C121.596 48.8245 121.538 48.6555 121.484 48.554C121.779 48.5685 122.074 48.5637 122.161 48.5589C122.248 48.5589 122.276 48.5299 122.276 48.4478V44.6906ZM118.862 44.6906H120.408V46.3519H118.862V46.0718H120.065V44.9707H118.862V44.6906ZM122.455 44.6906V44.9707H121.19V46.0815H122.455V46.3567H120.842V44.6906H122.455ZM118.655 44.6906H119.012V48.9307H118.655V44.6906ZM125.498 44.7437C125.488 44.8548 125.478 45.019 125.473 45.1349C125.411 47.1053 124.879 48.0083 123.928 48.6699L123.576 48.385C123.73 48.3029 123.923 48.1677 124.068 48.0325C124.672 47.4868 125.068 46.6706 125.077 45.1446C125.077 45.0335 125.068 44.8548 125.048 44.7437H125.498ZM127.178 45.7482C127.164 45.8303 127.154 45.9173 127.149 45.98C127.135 46.4485 127.072 47.849 126.855 48.3126C126.758 48.5202 126.604 48.6072 126.338 48.6072C126.096 48.6072 125.816 48.5927 125.565 48.5734L125.517 48.1725C125.778 48.2063 126.029 48.2305 126.236 48.2305C126.372 48.2305 126.463 48.187 126.517 48.0711C126.7 47.6993 126.763 46.5113 126.763 45.9945H124.218C124.025 45.9945 123.832 45.9994 123.658 46.0138V45.6082C123.827 45.6227 124.025 45.6323 124.213 45.6323H126.599C126.729 45.6323 126.821 45.6227 126.903 45.6082L127.178 45.7482ZM128.951 48.3898C128.984 48.3126 128.994 48.245 128.994 48.1532C128.994 47.849 128.994 45.8496 128.994 45.3909C128.994 45.2605 128.975 45.0432 128.955 44.9514H129.429C129.414 45.0673 129.395 45.2508 129.395 45.386C129.395 45.8448 129.395 47.8828 129.395 48.1291C130.322 47.8924 131.438 47.2598 132.041 46.4823L132.259 46.8203C131.631 47.5978 130.636 48.1918 129.429 48.5444C129.38 48.5589 129.303 48.583 129.226 48.6265L128.951 48.3898ZM133.804 45.0045C134.142 45.2315 134.765 45.7337 135.031 45.9994L134.731 46.3084C134.485 46.0573 133.886 45.5357 133.524 45.2991L133.804 45.0045ZM133.389 48.2401C134.229 48.1146 134.857 47.82 135.316 47.5351C136.064 47.0666 136.648 46.3519 136.928 45.7531L137.16 46.1684C136.832 46.7672 136.272 47.424 135.542 47.8828C135.055 48.187 134.446 48.4864 133.64 48.6361L133.389 48.2401ZM141.231 44.6472C141.352 44.821 141.526 45.1156 141.623 45.3088L141.362 45.4247C141.265 45.2315 141.101 44.9417 140.971 44.7582L141.231 44.6472ZM141.758 44.454C141.888 44.6327 142.072 44.9321 142.163 45.1108L141.903 45.2267C141.796 45.019 141.642 44.7437 141.507 44.5651L141.758 44.454ZM139.387 46.4436C140.005 46.801 140.802 47.3564 141.275 47.7476L140.995 48.0808C140.546 47.6751 139.725 47.0811 139.126 46.7093L139.387 46.4436ZM141.594 45.5599C141.555 45.6275 141.511 45.7434 141.482 45.8207C141.338 46.3133 141.033 46.9507 140.608 47.4771C140.174 48.0132 139.541 48.5299 138.624 48.8679L138.281 48.5685C139.179 48.2933 139.836 47.7814 140.27 47.2646C140.647 46.8203 140.951 46.207 141.062 45.7579H139.271L139.425 45.415H140.961C141.091 45.415 141.198 45.3957 141.275 45.3667L141.594 45.5599ZM139.966 44.8645C139.884 44.99 139.802 45.1542 139.754 45.2412C139.464 45.7724 138.918 46.5064 138.15 47.0376L137.827 46.7865C138.653 46.2698 139.15 45.5454 139.372 45.1059C139.42 45.019 139.502 44.8452 139.531 44.7244L139.966 44.8645ZM142.854 46.4485C143.004 46.463 143.255 46.4775 143.53 46.4775C143.883 46.4775 145.819 46.4775 146.177 46.4775C146.418 46.4775 146.587 46.4581 146.698 46.4485V46.9217C146.597 46.9169 146.394 46.9024 146.181 46.9024C145.814 46.9024 143.887 46.9024 143.53 46.9024C143.264 46.9024 143.009 46.9121 142.854 46.9217V46.4485Z" fill="#00ABB6"/>
<path d="M191.441 44.7389H193.962V45.0915H191.441V44.7389ZM191.441 45.9028H193.981V46.2505H191.441V45.9028ZM191.402 47.0715H193.957V47.4192H191.402V47.0715ZM191.219 44.7389H191.586V46.2312C191.586 47.0666 191.465 48.2063 190.635 48.9307C190.581 48.8535 190.437 48.7231 190.359 48.6699C191.137 47.989 191.219 47.0087 191.219 46.2312V44.7389ZM193.803 44.7389H194.179V48.3947C194.179 48.6506 194.112 48.7762 193.928 48.839C193.74 48.9017 193.421 48.9066 192.899 48.9066C192.875 48.8003 192.808 48.6265 192.745 48.5251C193.146 48.5396 193.542 48.5347 193.653 48.5347C193.764 48.5299 193.803 48.4961 193.803 48.3898V44.7389ZM196.724 47.4433H198.188V47.7234H196.724V47.4433ZM196.71 46.7141H198.357V48.4768H196.71V48.1967H198.014V46.999H196.71V46.7141ZM196.55 46.7141H196.884V48.7231H196.55V46.7141ZM195.662 45.3764H197.004V45.642H195.662V45.3764ZM197.888 45.3764H199.255V45.642H197.888V45.3764ZM199.105 44.6906H199.467V48.4478C199.467 48.6796 199.414 48.8003 199.26 48.8631C199.105 48.9211 198.844 48.9259 198.439 48.9259C198.424 48.8245 198.366 48.6555 198.313 48.554C198.608 48.5685 198.902 48.5637 198.989 48.5589C199.076 48.5589 199.105 48.5299 199.105 48.4478V44.6906ZM195.691 44.6906H197.236V46.3519H195.691V46.0718H196.893V44.9707H195.691V44.6906ZM199.284 44.6906V44.9707H198.019V46.0815H199.284V46.3567H197.671V44.6906H199.284ZM195.483 44.6906H195.841V48.9307H195.483V44.6906ZM203.572 44.6761C203.693 44.85 203.867 45.1446 203.963 45.3377L203.703 45.4585C203.606 45.2605 203.442 44.9707 203.311 44.7872L203.572 44.6761ZM204.099 44.483C204.229 44.6616 204.412 44.9611 204.504 45.1397L204.243 45.2556C204.137 45.048 203.983 44.7727 203.847 44.594L204.099 44.483ZM203.891 45.6372C203.852 45.7096 203.804 45.8207 203.78 45.8979C203.649 46.3809 203.35 47.0376 202.925 47.5592C202.486 48.0953 201.906 48.5396 200.998 48.8728L200.65 48.5589C201.539 48.2981 202.138 47.8586 202.577 47.3467C202.954 46.9024 203.249 46.2795 203.35 45.84H201.558L201.713 45.4923C201.911 45.4923 203.104 45.4923 203.253 45.4923C203.384 45.4923 203.49 45.4778 203.572 45.444L203.891 45.6372ZM202.273 44.9079C202.196 45.0335 202.109 45.1977 202.061 45.2895C201.776 45.8207 201.269 46.5113 200.496 47.028L200.158 46.7769C200.993 46.2795 201.467 45.5792 201.679 45.1446C201.727 45.0625 201.8 44.8838 201.829 44.7631L202.273 44.9079ZM205.823 44.9466C205.948 44.9611 206.098 44.9707 206.252 44.9707C206.513 44.9707 207.87 44.9707 208.155 44.9707C208.305 44.9707 208.474 44.9611 208.59 44.9466V45.3474C208.479 45.3377 208.31 45.3329 208.145 45.3329C207.875 45.3329 206.518 45.3329 206.252 45.3329C206.108 45.3329 205.953 45.3377 205.823 45.3474V44.9466ZM208.947 46.2167C208.923 46.265 208.889 46.3229 208.88 46.3616C208.754 46.8348 208.537 47.3371 208.174 47.7331C207.672 48.2884 207.064 48.5685 206.45 48.7424L206.151 48.3995C206.832 48.2595 207.436 47.9456 207.851 47.5109C208.141 47.2067 208.334 46.7962 208.421 46.4436C208.184 46.4436 206.151 46.4436 205.861 46.4436C205.745 46.4436 205.562 46.4485 205.388 46.463V46.0573C205.562 46.0718 205.726 46.0863 205.861 46.0863C206.098 46.0863 208.155 46.0863 208.401 46.0863C208.513 46.0863 208.619 46.0718 208.672 46.0476L208.947 46.2167ZM213.694 45.3329C213.661 45.4005 213.641 45.4778 213.622 45.5744C213.516 46.0815 213.284 46.859 212.897 47.3564C212.458 47.9214 211.883 48.3705 211 48.6458L210.671 48.2836C211.608 48.0518 212.149 47.6413 212.555 47.1246C212.897 46.6851 213.12 46.0138 213.187 45.5502C212.907 45.5502 210.995 45.5502 210.715 45.5502C210.521 45.5502 210.357 45.5599 210.237 45.5647V45.1349C210.367 45.1542 210.56 45.1687 210.719 45.1687C210.995 45.1687 212.922 45.1687 213.139 45.1687C213.211 45.1687 213.308 45.1639 213.4 45.1446L213.694 45.3329Z" fill="white"/>
<rect x="171" y="36" width="67" height="21" rx="5" stroke="#FF0000" stroke-width="2"/>
</g>
<path d="M95 7.5H5C2.51472 7.5 0.5 9.51472 0.5 12V60C0.5 62.4853 2.51472 64.5 5 64.5H95C97.4853 64.5 99.5 62.4853 99.5 60V12C99.5 9.51472 97.4853 7.5 95 7.5Z" fill="white" stroke="black" stroke-linejoin="round"/>
<path d="M16.65 19C16.9 19.36 17.26 19.97 17.46 20.37L16.92 20.62C16.72 20.21 16.38 19.61 16.11 19.23L16.65 19ZM17.74 18.6C18.01 18.97 18.39 19.59 18.58 19.96L18.04 20.2C17.82 19.77 17.5 19.2 17.22 18.83L17.74 18.6ZM17.31 20.99C17.23 21.14 17.13 21.37 17.08 21.53C16.81 22.53 16.19 23.89 15.31 24.97C14.4 26.08 13.2 27 11.32 27.69L10.6 27.04C12.44 26.5 13.68 25.59 14.59 24.53C15.37 23.61 15.98 22.32 16.19 21.41H12.48L12.8 20.69C13.21 20.69 15.68 20.69 15.99 20.69C16.26 20.69 16.48 20.66 16.65 20.59L17.31 20.99ZM13.96 19.48C13.8 19.74 13.62 20.08 13.52 20.27C12.93 21.37 11.88 22.8 10.28 23.87L9.58 23.35C11.31 22.32 12.29 20.87 12.73 19.97C12.83 19.8 12.98 19.43 13.04 19.18L13.96 19.48ZM21.51 19.56C21.77 19.59 22.08 19.61 22.4 19.61C22.94 19.61 25.75 19.61 26.34 19.61C26.65 19.61 27 19.59 27.24 19.56V20.39C27.01 20.37 26.66 20.36 26.32 20.36C25.76 20.36 22.95 20.36 22.4 20.36C22.1 20.36 21.78 20.37 21.51 20.39V19.56ZM27.98 22.19C27.93 22.29 27.86 22.41 27.84 22.49C27.58 23.47 27.13 24.51 26.38 25.33C25.34 26.48 24.08 27.06 22.81 27.42L22.19 26.71C23.6 26.42 24.85 25.77 25.71 24.87C26.31 24.24 26.71 23.39 26.89 22.66C26.4 22.66 22.19 22.66 21.59 22.66C21.35 22.66 20.97 22.67 20.61 22.7V21.86C20.97 21.89 21.31 21.92 21.59 21.92C22.08 21.92 26.34 21.92 26.85 21.92C27.08 21.92 27.3 21.89 27.41 21.84L27.98 22.19ZM38.01 20.36C37.94 20.5 37.9 20.66 37.86 20.86C37.64 21.91 37.16 23.52 36.36 24.55C35.45 25.72 34.26 26.65 32.43 27.22L31.75 26.47C33.69 25.99 34.81 25.14 35.65 24.07C36.36 23.16 36.82 21.77 36.96 20.81C36.38 20.81 32.42 20.81 31.84 20.81C31.44 20.81 31.1 20.83 30.85 20.84V19.95C31.12 19.99 31.52 20.02 31.85 20.02C32.42 20.02 36.41 20.02 36.86 20.02C37.01 20.02 37.21 20.01 37.4 19.97L38.01 20.36ZM44.2 19.1C44.11 19.49 44 20.04 43.74 20.71C43.49 21.32 43.12 21.99 42.72 22.51C43.11 22.28 43.68 22.14 44.12 22.14C44.89 22.14 45.49 22.6 45.49 23.41C45.49 23.93 45.51 25.08 45.52 25.7H44.75C44.79 25.17 44.8 24.14 44.79 23.62C44.78 23.04 44.38 22.77 43.86 22.77C43.22 22.77 42.59 23.09 42.13 23.5C41.84 23.78 41.56 24.14 41.23 24.55L40.54 24.04C41.98 22.66 42.65 21.5 42.99 20.65C43.21 20.1 43.35 19.5 43.38 19.03L44.2 19.1ZM40.77 20.18C41.31 20.25 42 20.28 42.46 20.28C43.81 20.28 45.54 20.2 46.95 19.95V20.69C45.55 20.9 43.69 20.99 42.42 20.99C41.99 20.99 41.33 20.97 40.77 20.93V20.18ZM48.41 22.59C48.16 22.67 47.8 22.81 47.53 22.91C46.82 23.19 45.87 23.57 44.9 24.07C43.91 24.59 43.21 25.13 43.21 25.82C43.21 26.6 43.98 26.72 45.01 26.72C45.79 26.72 46.87 26.63 47.75 26.47L47.72 27.28C46.96 27.37 45.85 27.45 44.98 27.45C43.56 27.45 42.41 27.14 42.41 25.93C42.41 24.71 43.65 23.96 44.84 23.35C45.79 22.86 46.6 22.55 47.26 22.24C47.56 22.1 47.81 21.99 48.09 21.85L48.41 22.59ZM53.95 22.42C55.23 23.17 56.87 24.32 57.86 25.12L57.27 25.82C56.35 24.98 54.64 23.75 53.4 22.98L53.95 22.42ZM58.52 20.6C58.44 20.74 58.34 20.97 58.29 21.13C57.99 22.15 57.36 23.48 56.48 24.56C55.57 25.68 54.27 26.75 52.37 27.45L51.66 26.82C53.52 26.26 54.88 25.2 55.78 24.13C56.55 23.21 57.18 21.94 57.41 21.01H53.71L54.03 20.29H57.21C57.48 20.29 57.7 20.26 57.86 20.2L58.52 20.6ZM55.15 19.15C54.98 19.41 54.8 19.75 54.7 19.94C54.11 21.04 52.98 22.55 51.38 23.65L50.72 23.14C52.43 22.07 53.46 20.57 53.92 19.65C54.02 19.48 54.18 19.12 54.24 18.86L55.15 19.15ZM64.83 21.25C65 21.65 65.49 22.97 65.61 23.4L64.87 23.67C64.76 23.21 64.3 21.94 64.09 21.5L64.83 21.25ZM68.45 21.81C68.38 22.01 68.33 22.17 68.29 22.3C68.03 23.4 67.59 24.48 66.88 25.38C65.95 26.55 64.73 27.33 63.62 27.75L62.96 27.08C64.11 26.74 65.39 25.98 66.21 24.96C66.92 24.09 67.43 22.81 67.59 21.53L68.45 21.81ZM62.5 21.75C62.7 22.17 63.23 23.48 63.41 24.01L62.66 24.29C62.5 23.77 61.96 22.38 61.76 22.03L62.5 21.75ZM78.25 19.82C78.25 20.19 78.54 20.48 78.91 20.48C79.27 20.48 79.57 20.19 79.57 19.82C79.57 19.46 79.27 19.16 78.91 19.16C78.54 19.16 78.25 19.46 78.25 19.82ZM77.79 19.82C77.79 19.2 78.29 18.7 78.91 18.7C79.53 18.7 80.03 19.2 80.03 19.82C80.03 20.44 79.53 20.94 78.91 20.94C78.29 20.94 77.79 20.44 77.79 19.82ZM78.66 20.49C78.59 20.63 78.55 20.8 78.51 20.99C78.29 22.04 77.81 23.66 77.01 24.68C76.1 25.86 74.91 26.78 73.08 27.36L72.4 26.61C74.34 26.12 75.46 25.27 76.3 24.2C77.01 23.3 77.47 21.9 77.61 20.94C77.03 20.94 73.07 20.94 72.49 20.94C72.09 20.94 71.75 20.96 71.5 20.98V20.09C71.77 20.12 72.17 20.16 72.5 20.16C73.07 20.16 77.06 20.16 77.51 20.16C77.67 20.16 77.86 20.15 78.05 20.1L78.66 20.49ZM86.67 19.08C86.65 19.2 86.62 19.59 86.62 19.71C86.59 20.36 86.61 22.29 86.62 23.09L85.86 22.7C85.86 22.26 85.85 20.27 85.82 19.72C85.8 19.45 85.77 19.17 85.75 19.08H86.67ZM81.35 20.48C82.71 20.46 85.21 20.37 86.75 20.37C87.97 20.37 89.21 20.37 89.68 20.38L89.67 21.12C89.11 21.09 88.21 21.07 86.74 21.07C85.02 21.07 82.88 21.14 81.37 21.25L81.35 20.48ZM86.6 23.38C86.6 24.72 85.98 25.39 85.07 25.39C84.23 25.39 83.42 24.8 83.42 23.71C83.42 22.72 84.24 21.98 85.19 21.98C86.35 21.98 86.94 22.84 86.94 23.99C86.94 25.35 86.28 26.85 83.96 27.54L83.29 26.89C85.11 26.46 86.17 25.57 86.17 23.92C86.17 23.02 85.73 22.64 85.19 22.64C84.66 22.64 84.17 23.05 84.17 23.7C84.17 24.33 84.64 24.69 85.19 24.69C85.81 24.69 86.21 24.17 86.05 23.1L86.6 23.38ZM11.38 33.64C11.6 33.66 11.88 33.67 12.08 33.67C12.61 33.67 14.98 33.6 15.51 33.55C15.81 33.52 15.95 33.5 16.06 33.46L16.52 34.05C16.34 34.17 16.14 34.3 15.95 34.45C15.46 34.83 14.1 36 13.32 36.64C13.78 36.49 14.26 36.44 14.71 36.44C16.37 36.44 17.56 37.43 17.56 38.78C17.56 40.39 16.23 41.44 14.11 41.44C12.75 41.44 11.92 40.85 11.92 40.01C11.92 39.33 12.54 38.71 13.46 38.71C14.79 38.71 15.46 39.65 15.53 40.66L14.81 40.78C14.75 39.93 14.26 39.32 13.46 39.32C13 39.32 12.65 39.6 12.65 39.95C12.65 40.44 13.2 40.73 13.99 40.73C15.69 40.73 16.76 40.03 16.76 38.78C16.76 37.79 15.82 37.06 14.51 37.06C12.85 37.06 11.95 37.76 10.69 39.05L10.11 38.47C10.94 37.79 12.23 36.71 12.8 36.22C13.36 35.76 14.62 34.71 15.12 34.26C14.59 34.29 12.59 34.37 12.07 34.4C11.84 34.42 11.62 34.43 11.4 34.46L11.38 33.64ZM27.33 35.04C27.11 35.17 26.86 35.31 26.56 35.46C25.89 35.81 24.5 36.47 23.52 37.11C22.59 37.72 22.03 38.38 22.03 39.13C22.03 39.96 22.83 40.48 24.41 40.48C25.49 40.48 26.83 40.34 27.61 40.14L27.6 41.04C26.85 41.17 25.69 41.28 24.44 41.28C22.56 41.28 21.2 40.72 21.2 39.22C21.2 38.14 21.93 37.29 23.11 36.51C24.13 35.83 25.53 35.16 26.18 34.79C26.47 34.62 26.69 34.49 26.9 34.32L27.33 35.04ZM22.27 33.22C22.73 34.5 23.35 35.75 23.81 36.56L23.13 36.97C22.62 36.15 22.02 34.8 21.48 33.56L22.27 33.22ZM37.05 33C37.3 33.36 37.66 33.97 37.86 34.37L37.32 34.62C37.12 34.21 36.78 33.61 36.51 33.23L37.05 33ZM38.14 32.6C38.41 32.97 38.79 33.59 38.98 33.96L38.44 34.2C38.22 33.77 37.9 33.2 37.62 32.83L38.14 32.6ZM37.71 34.99C37.63 35.14 37.53 35.37 37.48 35.53C37.21 36.53 36.59 37.89 35.71 38.97C34.8 40.08 33.6 41 31.72 41.69L31 41.04C32.84 40.5 34.08 39.59 34.99 38.53C35.77 37.61 36.38 36.32 36.59 35.41H32.88L33.2 34.69C33.61 34.69 36.08 34.69 36.39 34.69C36.66 34.69 36.88 34.66 37.05 34.59L37.71 34.99ZM34.36 33.48C34.2 33.74 34.02 34.08 33.92 34.27C33.33 35.37 32.28 36.8 30.68 37.87L29.98 37.35C31.71 36.32 32.69 34.87 33.13 33.97C33.23 33.8 33.38 33.43 33.44 33.18L34.36 33.48ZM41.91 33.56C42.17 33.59 42.48 33.61 42.8 33.61C43.34 33.61 46.15 33.61 46.74 33.61C47.05 33.61 47.4 33.59 47.64 33.56V34.39C47.41 34.37 47.06 34.36 46.72 34.36C46.16 34.36 43.35 34.36 42.8 34.36C42.5 34.36 42.18 34.37 41.91 34.39V33.56ZM48.38 36.19C48.33 36.29 48.26 36.41 48.24 36.49C47.98 37.47 47.53 38.51 46.78 39.33C45.74 40.48 44.48 41.06 43.21 41.42L42.59 40.71C44 40.42 45.25 39.77 46.11 38.87C46.71 38.24 47.11 37.39 47.29 36.66C46.8 36.66 42.59 36.66 41.99 36.66C41.75 36.66 41.37 36.67 41.01 36.7V35.86C41.37 35.89 41.71 35.92 41.99 35.92C42.48 35.92 46.74 35.92 47.25 35.92C47.48 35.92 47.7 35.89 47.81 35.84L48.38 36.19ZM58.41 34.36C58.34 34.5 58.3 34.66 58.26 34.86C58.04 35.91 57.56 37.52 56.76 38.55C55.85 39.72 54.66 40.65 52.83 41.22L52.15 40.47C54.09 39.99 55.21 39.14 56.05 38.07C56.76 37.16 57.22 35.77 57.36 34.81C56.78 34.81 52.82 34.81 52.24 34.81C51.84 34.81 51.5 34.83 51.25 34.84V33.95C51.52 33.99 51.92 34.02 52.25 34.02C52.82 34.02 56.81 34.02 57.26 34.02C57.41 34.02 57.61 34.01 57.8 33.97L58.41 34.36ZM61.29 40.46H68.7V41.18H61.29V40.46ZM60.57 33.26H69.42V33.97H60.57V33.26ZM60.88 34.97H61.61V41.8H60.88V34.97ZM68.4 34.97H69.14V41.77H68.4V34.97ZM64.58 33.48H65.34V35.41H64.58V33.48ZM64.63 35.35H65.29V39.31H64.63V35.35ZM63.2 37.63V38.94H66.73V37.63H63.2ZM63.2 35.72V37.02H66.73V35.72H63.2ZM62.56 35.08H67.39V39.58H62.56V35.08ZM73.75 37.05H76.49V37.67H73.75V37.05ZM73.75 38.79H76.52V39.41H73.75V38.79ZM71.69 40.58H78.75V41.28H71.69V40.58ZM71.23 35.24H79.16V41.81H78.4V35.94H71.96V41.81H71.23V35.24ZM73.4 35.68H74.08V40.9H73.4V35.68ZM76.2 35.68H76.89V40.87H76.2V35.68ZM74.7 33.6L75.57 33.8C75.36 34.47 75.15 35.24 74.95 35.74L74.27 35.55C74.43 35.01 74.63 34.18 74.7 33.6ZM70.78 33.27H79.64V33.99H70.78V33.27ZM80.95 38.26C81.2 38.07 81.41 37.87 81.67 37.6C82.21 37.06 83.04 35.92 83.64 35.22C84.22 34.53 84.74 34.43 85.4 35.11C86 35.72 86.77 36.71 87.41 37.4C88.01 38.06 89.01 39.11 89.91 39.91L89.27 40.64C88.51 39.92 87.6 38.9 86.92 38.12C86.27 37.39 85.5 36.42 85.04 35.91C84.61 35.44 84.42 35.52 84.08 35.94C83.61 36.52 82.79 37.62 82.28 38.24C82.08 38.51 81.85 38.81 81.69 39.02L80.95 38.26ZM15.42 46.61L16.17 46.74C15.59 47.71 14.69 48.67 13.34 49.41C13.24 49.25 13.02 49.01 12.86 48.9C14.11 48.27 14.98 47.38 15.42 46.61ZM15.18 47.48H17.61V48.1H14.74L15.18 47.48ZM17.35 47.48H17.49L17.62 47.44L18.1 47.67C17.31 49.77 15.44 50.96 13.43 51.54C13.36 51.36 13.17 51.08 13.04 50.93C14.89 50.48 16.69 49.35 17.35 47.6V47.48ZM14.14 48.81L14.62 48.43C15.17 48.75 15.82 49.25 16.14 49.62L15.64 50.04C15.34 49.68 14.68 49.15 14.14 48.81ZM15.95 50.37L16.71 50.5C16.07 51.59 15.03 52.66 13.47 53.46C13.37 53.29 13.15 53.05 12.99 52.94C14.46 52.25 15.46 51.25 15.95 50.37ZM15.67 51.32H18.06V51.96H15.22L15.67 51.32ZM17.84 51.32H17.99L18.13 51.29L18.61 51.5C17.76 54.03 15.63 55.26 13.21 55.81C13.13 55.62 12.96 55.33 12.83 55.17C15.09 54.74 17.13 53.58 17.84 51.44V51.32ZM14.36 52.82L14.87 52.4C15.51 52.75 16.26 53.31 16.62 53.72L16.09 54.19C15.74 53.77 15 53.2 14.36 52.82ZM11.12 47.43H11.85V55.78H11.12V47.43ZM9.48 49.42H13.11V50.13H9.48V49.42ZM11.16 49.69L11.63 49.89C11.23 51.3 10.43 53.05 9.66 53.98C9.59 53.77 9.41 53.46 9.28 53.29C10 52.49 10.8 50.93 11.16 49.69ZM12.6 46.75L13.13 47.33C12.21 47.7 10.81 47.98 9.65 48.14C9.61 47.97 9.51 47.73 9.42 47.56C10.55 47.37 11.87 47.09 12.6 46.75ZM11.82 50.71C12.07 50.93 13.01 51.88 13.21 52.13L12.77 52.72C12.53 52.31 11.78 51.36 11.47 51.01L11.82 50.71ZM19.89 53.14H24.45V53.71H19.89V53.14ZM19.62 48.32H24.61V48.9H19.62V48.32ZM21.79 47.41H22.48V54.77H21.79V47.41ZM19.61 54.79C20.83 54.68 22.7 54.5 24.49 54.31L24.5 54.9C22.8 55.1 20.99 55.31 19.72 55.44L19.61 54.79ZM20.54 51.27V52.01H23.78V51.27H20.54ZM20.54 50.05V50.77H23.78V50.05H20.54ZM19.91 49.53H24.42V52.53H19.91V49.53ZM24.06 46.7L24.44 47.28C23.26 47.54 21.4 47.71 19.9 47.76C19.87 47.6 19.8 47.35 19.72 47.2C21.21 47.12 23.03 46.94 24.06 46.7ZM24.54 48.94H28.15V49.64H24.54V48.94ZM27.86 48.94H28.58C28.58 48.94 28.57 49.22 28.57 49.32C28.46 53.54 28.36 54.94 28.03 55.37C27.85 55.63 27.65 55.72 27.35 55.75C27.07 55.78 26.59 55.78 26.13 55.75C26.11 55.54 26.03 55.23 25.91 55.03C26.4 55.07 26.84 55.08 27.04 55.08C27.2 55.08 27.3 55.05 27.39 54.92C27.64 54.61 27.75 53.17 27.86 49.12V48.94ZM25.75 46.73H26.47C26.46 50.71 26.45 54.07 24.06 55.86C23.94 55.68 23.68 55.44 23.5 55.32C25.79 53.68 25.74 50.51 25.75 46.73ZM30.18 48.42C30.56 48.41 30.88 48.39 31.08 48.37C31.72 48.3 33.61 48.12 35.45 47.96C36.55 47.87 37.48 47.81 38.15 47.79L38.16 48.59C37.58 48.58 36.71 48.6 36.2 48.74C34.77 49.2 33.9 50.73 33.9 51.91C33.9 53.86 35.73 54.49 37.35 54.55L37.06 55.37C35.21 55.3 33.11 54.32 33.11 52.08C33.11 50.53 34.06 49.25 34.97 48.71C33.9 48.82 31.35 49.07 30.27 49.3L30.18 48.42ZM36.71 49.81C36.94 50.14 37.32 50.76 37.54 51.21L37.02 51.44C36.79 50.96 36.51 50.45 36.21 50.03L36.71 49.81ZM37.8 49.39C38.05 49.72 38.44 50.33 38.67 50.77L38.16 51.02C37.92 50.54 37.62 50.04 37.31 49.62L37.8 49.39ZM41.39 48.15C42.78 48.32 44.09 48.34 45.11 48.24C45.93 48.17 46.75 48 47.47 47.76L47.58 48.49C46.93 48.68 46.08 48.85 45.28 48.92C44.27 49.02 42.87 49.02 41.44 48.88L41.39 48.15ZM41.19 50.2C42.9 50.38 44.6 50.35 45.77 50.21C46.72 50.11 47.53 49.91 48.06 49.75L48.19 50.49C47.64 50.64 46.88 50.79 46.04 50.89C44.81 51.05 42.96 51.08 41.24 50.95L41.19 50.2ZM44.61 48.02C44.53 47.73 44.44 47.42 44.33 47.13L45.18 47.02C45.28 47.86 45.59 48.87 45.84 49.58C46.11 50.36 46.55 51.32 47.07 52.09C47.18 52.25 47.3 52.39 47.45 52.52L47.03 53.13C46.47 52.99 45.54 52.89 44.85 52.82L44.91 52.21C45.45 52.26 46.1 52.33 46.41 52.37C45.86 51.51 45.44 50.55 45.15 49.74C44.9 49.05 44.75 48.52 44.61 48.02ZM42.65 52.36C42.41 52.7 42.23 53.04 42.23 53.49C42.23 54.31 42.96 54.73 44.53 54.73C45.46 54.73 46.19 54.66 46.92 54.52L46.88 55.31C46.18 55.43 45.4 55.49 44.54 55.49C42.59 55.49 41.49 54.91 41.47 53.62C41.47 53.05 41.64 52.63 41.87 52.19L42.65 52.36ZM55.52 47.07C55.5 47.24 55.48 47.44 55.47 47.74C55.45 48.14 55.45 49.48 55.45 50.32C55.45 51.64 55.6 53.39 55.6 54.06C55.6 54.76 55.14 55.47 53.84 55.47C52.4 55.47 51.61 54.96 51.61 53.99C51.61 53.08 52.48 52.47 53.92 52.47C56.03 52.47 57.68 53.61 58.45 54.24L57.99 54.95C57.09 54.12 55.61 53.12 53.83 53.12C52.87 53.12 52.36 53.49 52.36 53.95C52.36 54.42 52.75 54.76 53.74 54.76C54.32 54.76 54.81 54.59 54.81 53.89C54.81 53.12 54.71 51.2 54.71 50.32C54.71 49.42 54.71 48.37 54.71 47.67C54.71 47.5 54.7 47.2 54.67 47.07H55.52ZM51.7 48.15C52.34 48.27 53.59 48.37 54.25 48.37C55.52 48.37 56.86 48.28 58.16 48.07V48.8C57.03 48.93 55.6 49.06 54.26 49.06C53.57 49.06 52.34 48.97 51.71 48.89L51.7 48.15ZM51.65 50.28C52.36 50.39 53.5 50.46 54.16 50.46C55.61 50.46 56.94 50.36 58.24 50.17V50.92C56.88 51.09 55.66 51.16 54.16 51.16C53.47 51.16 52.37 51.11 51.66 51.03L51.65 50.28ZM66.27 47.08C66.25 47.2 66.22 47.59 66.22 47.71C66.19 48.36 66.21 50.29 66.22 51.09L65.46 50.7C65.46 50.26 65.45 48.27 65.42 47.72C65.4 47.45 65.37 47.17 65.35 47.08H66.27ZM60.95 48.48C62.31 48.46 64.81 48.37 66.35 48.37C67.57 48.37 68.81 48.37 69.28 48.38L69.27 49.12C68.71 49.09 67.81 49.07 66.34 49.07C64.62 49.07 62.48 49.14 60.97 49.25L60.95 48.48ZM66.2 51.38C66.2 52.72 65.58 53.39 64.67 53.39C63.83 53.39 63.02 52.8 63.02 51.71C63.02 50.72 63.84 49.98 64.79 49.98C65.95 49.98 66.54 50.84 66.54 51.99C66.54 53.35 65.88 54.85 63.56 55.54L62.89 54.89C64.71 54.46 65.77 53.57 65.77 51.92C65.77 51.02 65.33 50.64 64.79 50.64C64.26 50.64 63.77 51.05 63.77 51.7C63.77 52.33 64.24 52.69 64.79 52.69C65.41 52.69 65.81 52.17 65.65 51.1L66.2 51.38Z" fill="black"/>
<path d="M214.875 76.9044C214.162 76.1913 213.151 75.78 212.04 75.8938C210.434 76.0557 209.113 77.3594 208.934 78.965C208.693 81.0869 210.334 82.8763 212.403 82.8763C213.799 82.8763 214.997 82.0582 215.557 80.8813C215.697 80.5882 215.487 80.2513 215.164 80.2513C215.002 80.2513 214.849 80.3388 214.779 80.4832C214.284 81.5463 213.099 82.2201 211.804 81.9313C210.832 81.7169 210.049 80.925 209.844 79.9538C209.476 78.2563 210.767 76.7513 212.403 76.7513C213.129 76.7513 213.777 77.0532 214.249 77.53L213.589 78.1907C213.313 78.4663 213.506 78.9388 213.895 78.9388H215.466C215.706 78.9388 215.903 78.7419 215.903 78.5013V76.9307C215.903 76.5413 215.431 76.3444 215.155 76.62L214.875 76.9044Z" fill="#00ABB6"/>
<path d="M221.556 77.2165C220.982 78.0495 219.925 79.0365 218.784 79.7155C218.672 79.5195 218.434 79.2185 218.252 79.0505C219.442 78.3925 220.576 77.2655 221.094 76.3835H221.948C222.697 77.4685 223.845 78.4555 224.951 78.9735C224.734 79.1765 224.545 79.4565 224.391 79.7085C223.327 79.0785 222.158 78.0495 221.556 77.2165ZM220.079 78.5745H223.061V79.3515H220.079V78.5745ZM219.12 80.0235H223.173V80.8145H219.12V80.0235ZM223.033 80.0235H223.152L223.299 79.9815L223.971 80.1775C223.628 81.0385 223.117 82.1375 222.69 83.0265L221.794 82.7885C222.242 81.9065 222.781 80.7445 223.033 80.1145V80.0235ZM227.254 76.7615H230.754V77.5805H227.254V76.7615ZM227.261 78.4345H230.789V79.2325H227.261V78.4345ZM227.226 80.0935H230.74V80.9055H227.226V80.0935ZM226.68 76.7615H227.541V79.0785C227.541 80.2965 227.352 82.0115 226.169 83.0055C226.043 82.8305 225.7 82.5155 225.518 82.4035C226.582 81.5005 226.68 80.1495 226.68 79.0785V76.7615ZM230.362 76.7615H231.251V81.9415C231.251 82.4385 231.132 82.6905 230.81 82.8305C230.474 82.9775 229.977 82.9915 229.249 82.9915C229.2 82.7395 229.039 82.3335 228.899 82.1095C229.396 82.1375 229.977 82.1305 230.145 82.1305C230.306 82.1235 230.362 82.0745 230.362 81.9275V76.7615Z" fill="#00ABB6"/>
<rect x="0.218751" y="-0.218751" width="18.8126" height="18.8126" rx="1.96876" transform="matrix(1 0 0 -1 111.172 88.5625)" fill="white"/>
<rect x="0.218751" y="-0.218751" width="18.8126" height="18.8126" rx="1.96876" transform="matrix(1 0 0 -1 111.172 88.5625)" stroke="#00ABB6" stroke-width="0.437502"/>
<path d="M121.852 79.3766L119.387 77.3444C119.304 77.2753 119.263 77.1935 119.266 77.0989C119.268 77.0044 119.312 76.9226 119.396 76.8537C119.48 76.7846 119.579 76.75 119.694 76.75C119.808 76.75 119.907 76.7846 119.991 76.8537L122.564 78.9826C122.632 79.0379 122.682 79.1001 122.715 79.1693C122.749 79.2384 122.766 79.3075 122.766 79.3766C122.766 79.4457 122.749 79.5149 122.715 79.584C122.682 79.6531 122.632 79.7153 122.564 79.7706L119.983 81.8996C119.899 81.9687 119.801 82.0021 119.689 81.9999C119.577 81.9977 119.48 81.9619 119.396 81.8926C119.312 81.8235 119.27 81.7417 119.27 81.6471C119.27 81.5526 119.312 81.4708 119.396 81.4019L121.852 79.3766Z" fill="#00ABB6"/>
<rect x="88.2188" y="69.9692" width="18.8126" height="18.8126" rx="1.96876" fill="white"/>
<rect x="88.2188" y="69.9692" width="18.8126" height="18.8126" rx="1.96876" stroke="#00ABB6" stroke-width="0.437502"/>
<path d="M96.7887 79.3771L99.2532 77.3449C99.337 77.2758 99.3776 77.194 99.3749 77.0994C99.3722 77.0049 99.3288 76.9231 99.2448 76.8542C99.161 76.785 99.0617 76.7505 98.947 76.7505C98.8324 76.7505 98.7332 76.785 98.6496 76.8542L96.0762 78.9831C96.0091 79.0384 95.9588 79.1006 95.9253 79.1697C95.8918 79.2389 95.875 79.308 95.875 79.3771C95.875 79.4462 95.8918 79.5153 95.9253 79.5845C95.9588 79.6536 96.0091 79.7158 96.0762 79.7711L98.658 81.9C98.7418 81.9692 98.8396 82.0026 98.9514 82.0004C99.0632 81.9982 99.161 81.9624 99.2448 81.8931C99.3286 81.824 99.3705 81.7422 99.3705 81.6476C99.3705 81.553 99.3286 81.4713 99.2448 81.4024L96.7887 79.3771Z" fill="#00ABB6"/>
<path d="M141 83.1255V82.156L143.265 80.0586C143.458 79.8722 143.62 79.7044 143.75 79.5553C143.883 79.4061 143.983 79.2601 144.052 79.1171C144.12 78.9721 144.154 78.8157 144.154 78.6479C144.154 78.4615 144.112 78.301 144.027 78.1663C143.942 78.0296 143.826 77.925 143.679 77.8525C143.532 77.7779 143.365 77.7406 143.178 77.7406C142.984 77.7406 142.814 77.78 142.669 77.8587C142.524 77.9374 142.412 78.0503 142.333 78.1974C142.254 78.3445 142.215 78.5195 142.215 78.7225H140.938C140.938 78.3061 141.032 77.9447 141.221 77.6381C141.409 77.3315 141.673 77.0943 142.013 76.9265C142.353 76.7587 142.744 76.6748 143.188 76.6748C143.643 76.6748 144.04 76.7556 144.378 76.9172C144.717 77.0767 144.982 77.2983 145.17 77.5821C145.359 77.8659 145.453 78.1912 145.453 78.5578C145.453 78.7981 145.405 79.0353 145.31 79.2694C145.217 79.5035 145.05 79.7634 144.81 80.0493C144.569 80.3331 144.231 80.6739 143.794 81.0716L142.865 81.982V82.0255H145.537V83.1255H141ZM149.007 83.2653C148.472 83.2632 148.012 83.1317 147.627 82.8707C147.244 82.6097 146.949 82.2316 146.742 81.7365C146.537 81.2415 146.435 80.6459 146.437 79.9499C146.437 79.2559 146.54 78.6645 146.745 78.1756C146.952 77.6868 147.247 77.3149 147.63 77.0601C148.016 76.8033 148.474 76.6748 149.007 76.6748C149.539 76.6748 149.997 76.8033 150.38 77.0601C150.766 77.317 151.062 77.6899 151.269 78.1787C151.476 78.6655 151.579 79.2559 151.577 79.9499C151.577 80.648 151.473 81.2446 151.266 81.7397C151.061 82.2347 150.767 82.6128 150.383 82.8738C150 83.1348 149.541 83.2653 149.007 83.2653ZM149.007 82.1498C149.371 82.1498 149.662 81.9665 149.88 81.5998C150.097 81.2332 150.205 80.6832 150.203 79.9499C150.203 79.4672 150.153 79.0653 150.054 78.7443C149.957 78.4232 149.818 78.1818 149.638 78.0203C149.459 77.8587 149.249 77.7779 149.007 77.7779C148.644 77.7779 148.354 77.9592 148.137 78.3217C147.919 78.6842 147.809 79.2269 147.807 79.9499C147.807 80.4387 147.856 80.8468 147.953 81.1741C148.053 81.4994 148.193 81.7438 148.373 81.9074C148.553 82.069 148.764 82.1498 149.007 82.1498ZM152.536 83.1255V82.156L154.801 80.0586C154.994 79.8722 155.155 79.7044 155.286 79.5553C155.418 79.4061 155.519 79.2601 155.587 79.1171C155.656 78.9721 155.69 78.8157 155.69 78.6479C155.69 78.4615 155.647 78.301 155.562 78.1663C155.477 78.0296 155.361 77.925 155.214 77.8525C155.067 77.7779 154.9 77.7406 154.714 77.7406C154.519 77.7406 154.349 77.78 154.204 77.8587C154.059 77.9374 153.948 78.0503 153.869 78.1974C153.79 78.3445 153.751 78.5195 153.751 78.7225H152.474C152.474 78.3061 152.568 77.9447 152.756 77.6381C152.945 77.3315 153.209 77.0943 153.549 76.9265C153.889 76.7587 154.28 76.6748 154.723 76.6748C155.179 76.6748 155.576 76.7556 155.913 76.9172C156.253 77.0767 156.517 77.2983 156.706 77.5821C156.894 77.8659 156.989 78.1912 156.989 78.5578C156.989 78.7981 156.941 79.0353 156.846 79.2694C156.752 79.5035 156.586 79.7634 156.345 80.0493C156.105 80.3331 155.766 80.6739 155.329 81.0716L154.4 81.982V82.0255H157.072V83.1255H152.536ZM160.4 83.2125C159.936 83.2125 159.522 83.1327 159.16 82.9732C158.799 82.8117 158.514 82.59 158.305 82.3083C158.098 82.0245 157.991 81.6972 157.985 81.3264H159.34C159.348 81.4818 159.399 81.6185 159.492 81.7365C159.588 81.8525 159.714 81.9427 159.871 82.0069C160.029 82.0711 160.206 82.1032 160.403 82.1032C160.608 82.1032 160.789 82.0669 160.946 81.9944C161.104 81.9219 161.227 81.8215 161.316 81.693C161.405 81.5646 161.45 81.4165 161.45 81.2487C161.45 81.0788 161.402 80.9287 161.307 80.7982C161.214 80.6656 161.079 80.562 160.903 80.4874C160.729 80.4129 160.522 80.3756 160.281 80.3756H159.688V79.3875H160.281C160.484 79.3875 160.664 79.3522 160.819 79.2818C160.976 79.2114 161.099 79.114 161.186 78.9897C161.273 78.8634 161.316 78.7163 161.316 78.5485C161.316 78.389 161.278 78.2492 161.201 78.129C161.127 78.0068 161.021 77.9115 160.884 77.8432C160.75 77.7748 160.592 77.7406 160.412 77.7406C160.23 77.7406 160.063 77.7738 159.912 77.84C159.76 77.9043 159.639 77.9964 159.548 78.1166C159.457 78.2367 159.408 78.3776 159.402 78.5392H158.113C158.119 78.1725 158.223 77.8494 158.426 77.5697C158.629 77.2901 158.903 77.0715 159.247 76.9141C159.593 76.7546 159.983 76.6748 160.418 76.6748C160.857 76.6748 161.242 76.7546 161.571 76.9141C161.9 77.0736 162.156 77.289 162.338 77.5604C162.523 77.8297 162.614 78.1321 162.612 78.4677C162.614 78.824 162.503 79.1213 162.279 79.3595C162.058 79.5977 161.769 79.7489 161.413 79.8132V79.8629C161.881 79.9229 162.237 80.0856 162.481 80.3507C162.728 80.6138 162.85 80.9432 162.848 81.3388C162.85 81.7013 162.746 82.0234 162.534 82.3052C162.325 82.5869 162.036 82.8085 161.667 82.9701C161.299 83.1317 160.876 83.2125 160.4 83.2125ZM165.469 75.6617L166.537 75.933C166.073 77.2367 165.303 78.4967 164.524 79.2842C164.323 79.1005 163.877 78.7505 163.623 78.6017C164.411 77.9192 165.093 76.7992 165.469 75.6617ZM165.653 76.6592H171.218V77.6742H165.146L165.653 76.6592ZM165.032 78.7242H171.017V79.7042H166.091V81.5417H165.032V78.7242ZM163.649 81.0255H171.699V82.0405H163.649V81.0255ZM167.604 77.1842H168.689V83.913H167.604V77.1842ZM175.06 83.2653C174.526 83.2632 174.066 83.1317 173.681 82.8707C173.298 82.6097 173.002 82.2316 172.795 81.7365C172.59 81.2415 172.489 80.6459 172.491 79.9499C172.491 79.2559 172.593 78.6645 172.798 78.1756C173.005 77.6868 173.301 77.3149 173.684 77.0601C174.069 76.8033 174.528 76.6748 175.06 76.6748C175.593 76.6748 176.051 76.8033 176.434 77.0601C176.819 77.317 177.115 77.6899 177.322 78.1787C177.53 78.6655 177.632 79.2559 177.63 79.9499C177.63 80.648 177.526 81.2446 177.319 81.7397C177.114 82.2347 176.82 82.6128 176.437 82.8738C176.054 83.1348 175.595 83.2653 175.06 83.2653ZM175.06 82.1498C175.425 82.1498 175.716 81.9665 175.934 81.5998C176.151 81.2332 176.259 80.6832 176.257 79.9499C176.257 79.4672 176.207 79.0653 176.108 78.7443C176.01 78.4232 175.871 78.1818 175.691 78.0203C175.513 77.8587 175.303 77.7779 175.06 77.7779C174.698 77.7779 174.408 77.9592 174.19 78.3217C173.973 78.6842 173.863 79.2269 173.861 79.9499C173.861 80.4387 173.91 80.8468 174.007 81.1741C174.106 81.4994 174.246 81.7438 174.426 81.9074C174.607 82.069 174.818 82.1498 175.06 82.1498ZM181.085 83.2653C180.55 83.2632 180.09 83.1317 179.705 82.8707C179.322 82.6097 179.027 82.2316 178.819 81.7365C178.614 81.2415 178.513 80.6459 178.515 79.9499C178.515 79.2559 178.617 78.6645 178.822 78.1756C179.03 77.6868 179.325 77.3149 179.708 77.0601C180.093 76.8033 180.552 76.6748 181.085 76.6748C181.617 76.6748 182.075 76.8033 182.458 77.0601C182.843 77.317 183.139 77.6899 183.347 78.1787C183.554 78.6655 183.656 79.2559 183.654 79.9499C183.654 80.648 183.551 81.2446 183.344 81.7397C183.138 82.2347 182.844 82.6128 182.461 82.8738C182.078 83.1348 181.619 83.2653 181.085 83.2653ZM181.085 82.1498C181.449 82.1498 181.74 81.9665 181.958 81.5998C182.175 81.2332 182.283 80.6832 182.281 79.9499C182.281 79.4672 182.231 79.0653 182.132 78.7443C182.034 78.4232 181.896 78.1818 181.715 78.0203C181.537 77.8587 181.327 77.7779 181.085 77.7779C180.722 77.7779 180.432 77.9592 180.215 78.3217C179.997 78.6842 179.887 79.2269 179.885 79.9499C179.885 80.4387 179.934 80.8468 180.031 81.1741C180.131 81.4994 180.27 81.7438 180.451 81.9074C180.631 82.069 180.842 82.1498 181.085 82.1498ZM186.452 76.108H190.827V77.1317H186.452V76.108ZM186.46 78.1992H190.87V79.1967H186.46V78.1992ZM186.417 80.273H190.809V81.288H186.417V80.273ZM185.734 76.108H186.81V79.0042C186.81 80.5267 186.574 82.6705 185.095 83.913C184.938 83.6942 184.509 83.3005 184.282 83.1605C185.612 82.0317 185.734 80.343 185.734 79.0042V76.108ZM190.337 76.108H191.448V82.583C191.448 83.2042 191.299 83.5192 190.897 83.6942C190.477 83.878 189.855 83.8955 188.945 83.8955C188.884 83.5805 188.683 83.073 188.508 82.793C189.129 82.828 189.855 82.8192 190.065 82.8192C190.267 82.8105 190.337 82.7492 190.337 82.5655V76.108Z" fill="black"/>
<path d="M204 35V31" stroke="black" stroke-width="2"/>
<path d="M205 30L99 31" stroke="black" stroke-width="2"/>
<defs>
<filter id="filter0_d_1649_11932" x="91.0003" y="40.0532" width="79.4634" height="16.6831" filterUnits="userSpaceOnUse" color-interpolation-filters="sRGB">
<feFlood flood-opacity="0" result="BackgroundImageFix"/>
<feColorMatrix in="SourceAlpha" type="matrix" values="0 0 0 0 0 0 0 0 0 0 0 0 0 0 0 0 0 0 127 0" result="hardAlpha"/>
<feOffset dy="1.7561"/>
<feGaussianBlur stdDeviation="0.878049"/>
<feComposite in2="hardAlpha" operator="out"/>
<feColorMatrix type="matrix" values="0 0 0 0 0 0 0 0 0 0 0 0 0 0 0 0 0 0 0.25 0"/>
<feBlend mode="normal" in2="BackgroundImageFix" result="effect1_dropShadow_1649_11932"/>
<feBlend mode="normal" in="SourceGraphic" in2="effect1_dropShadow_1649_11932" result="shape"/>
</filter>
<clipPath id="clip0_1649_11932">
<rect width="171" height="286.971" fill="white" transform="translate(77 61.2876)"/>
</clipPath>
</defs>
</svg>
