<svg width="85" height="23" viewBox="0 0 85 23" fill="none" xmlns="http://www.w3.org/2000/svg">
<g filter="url(#filter0_d_1016_10393)">
<rect x="1" width="83" height="22" rx="11" fill="white" shape-rendering="crispEdges"/>
<rect x="1.22917" y="0.229167" width="82.5417" height="21.5417" rx="10.7708" stroke="#00ABB6" stroke-width="0.458333" shape-rendering="crispEdges"/>
<path d="M17.07 7.37H25.96V8.48H17.07V7.37ZM20.87 6.51H22.11V7.83H20.87V6.51ZM22.21 7.82H23.38V10.28C23.38 10.8 23.3 11.08 22.94 11.25C22.6 11.42 22.14 11.43 21.54 11.43C21.49 11.11 21.35 10.68 21.21 10.37C21.56 10.38 21.94 10.38 22.06 10.38C22.18 10.38 22.21 10.36 22.21 10.25V7.82ZM20.18 7.67H21.3V8.46C21.3 9.51 21.13 10.87 19.65 11.8C19.47 11.55 19.05 11.16 18.78 10.98C20.04 10.24 20.18 9.22 20.18 8.43V7.67ZM23.66 9.31L24.59 8.77C25.16 9.33 25.86 10.12 26.18 10.66L25.18 11.26C24.9 10.72 24.23 9.9 23.66 9.31ZM18.35 8.81L19.47 9.11C19.05 9.9 18.39 10.71 17.69 11.19C17.48 10.98 17.1 10.66 16.86 10.5C17.5 10.1 18.08 9.41 18.35 8.81ZM20.01 12.42C21.03 13.92 23.21 14.62 26.26 14.77C26.01 15.05 25.71 15.56 25.56 15.9C22.35 15.63 20.25 14.73 18.94 12.76L20.01 12.42ZM20.26 11.08L21.51 11.32C20.7 12.48 19.56 13.4 17.83 14.1C17.67 13.82 17.33 13.39 17.08 13.21C18.68 12.68 19.72 11.89 20.26 11.08ZM20.24 11.81H23.78V12.76H19.4L20.24 11.81ZM23.45 11.81H23.71L23.91 11.77L24.69 12.29C23.4 14.61 20.52 15.56 17.35 15.92C17.25 15.63 16.99 15.1 16.78 14.85C19.85 14.61 22.49 13.83 23.45 12V11.81ZM31.87 6.49L32.98 6.66C32.55 7.74 31.92 8.76 30.82 9.58C30.65 9.33 30.28 8.99 30.03 8.84C31 8.19 31.59 7.3 31.87 6.49ZM32.15 7.22H34.11V8.14H31.6L32.15 7.22ZM32.31 9.54H33.16C33.09 10.51 32.88 11.19 32 11.61C31.9 11.4 31.67 11.11 31.49 10.97C32.13 10.69 32.28 10.23 32.31 9.54ZM33.54 9.58H34.41V10.4C34.41 10.58 34.42 10.6 34.57 10.6C34.63 10.6 34.88 10.6 34.95 10.6C35.07 10.6 35.11 10.57 35.13 10.48C35.29 10.6 35.63 10.72 35.87 10.76C35.78 11.2 35.54 11.34 35.08 11.34C34.94 11.34 34.57 11.34 34.43 11.34C33.69 11.34 33.54 11.13 33.54 10.4V9.58ZM30.24 12.5H36.47V13.49H30.24V12.5ZM33.96 12.83C34.31 13.97 35.11 14.65 36.63 14.88C36.38 15.1 36.09 15.57 35.95 15.87C34.18 15.5 33.37 14.56 32.92 12.94L33.96 12.83ZM31.68 8.86H35.38V9.8H31.68V12.19H30.68V8.86H31.68ZM35.12 8.86H36.14V12.17H35.12V8.86ZM33.72 7.22H33.96L34.13 7.18L34.89 7.66C34.6 8.27 34.12 9.04 33.75 9.53C33.53 9.37 33.18 9.15 32.94 9.03C33.24 8.58 33.57 7.86 33.72 7.42V7.22ZM32.79 11.68H33.88C33.73 13.94 33.28 15.26 30.38 15.93C30.28 15.65 30.01 15.22 29.79 15C32.39 14.5 32.67 13.51 32.79 11.68ZM27.1 11.54C27.9 11.36 29.09 11.04 30.22 10.72L30.38 11.8C29.35 12.12 28.25 12.44 27.37 12.69L27.1 11.54ZM27.26 8.41H30.32V9.51H27.26V8.41ZM28.32 6.52H29.42V14.63C29.42 15.19 29.32 15.5 29.01 15.68C28.71 15.87 28.28 15.91 27.63 15.91C27.6 15.61 27.46 15.12 27.32 14.79C27.68 14.81 28.03 14.81 28.15 14.8C28.27 14.8 28.32 14.77 28.32 14.63V6.52ZM41.01 7.07C40.95 7.49 40.9 8.01 40.88 8.41C40.83 9.49 40.76 11.72 40.76 12.96C40.76 13.97 41.36 14.3 42.14 14.3C43.79 14.3 44.83 13.35 45.56 12.26L46.47 13.37C45.82 14.33 44.4 15.66 42.12 15.66C40.48 15.66 39.43 14.94 39.43 13.23C39.43 11.89 39.52 9.27 39.52 8.41C39.52 7.93 39.48 7.45 39.4 7.06L41.01 7.07ZM48.52 8.45C48.95 8.5 49.49 8.52 49.85 8.52C51.09 8.52 52.44 8.31 53.41 8L53.44 9.16C52.58 9.4 51.14 9.66 49.86 9.65C49.46 9.65 49.04 9.64 48.61 9.62L48.52 8.45ZM52.41 6.95C52.28 7.48 52.04 8.46 51.77 9.31C51.31 10.75 50.41 12.61 49.56 13.79L48.35 13.17C49.25 12.07 50.15 10.32 50.54 9.24C50.78 8.52 51 7.59 51.03 6.82L52.41 6.95ZM54.76 10.07C54.73 10.49 54.74 10.91 54.75 11.35C54.77 11.94 54.86 13.43 54.86 13.99C54.86 14.92 54.36 15.65 52.93 15.65C51.69 15.65 50.71 15.09 50.71 13.99C50.71 13.02 51.53 12.26 52.92 12.26C54.67 12.26 56.05 13.14 56.88 13.89L56.22 14.97C55.5 14.3 54.36 13.27 52.85 13.27C52.27 13.27 51.89 13.52 51.89 13.87C51.89 14.24 52.21 14.5 52.76 14.5C53.44 14.5 53.66 14.12 53.66 13.56C53.66 12.96 53.55 11.12 53.5 10.07H54.76ZM56.48 10.6C55.9 10.13 54.76 9.48 54.07 9.17L54.72 8.19C55.44 8.5 56.67 9.17 57.19 9.54L56.48 10.6ZM60.69 7.86C60.62 8.21 60.57 8.8 60.57 9.08C60.57 9.73 60.57 10.47 60.63 11.2C60.77 12.64 61.07 13.63 61.7 13.63C62.18 13.63 62.57 12.45 62.76 11.66L63.77 12.87C63.1 14.62 62.48 15.22 61.68 15.22C60.57 15.22 59.62 14.24 59.34 11.56C59.24 10.64 59.23 9.46 59.23 8.85C59.23 8.58 59.22 8.15 59.15 7.84L60.69 7.86ZM65.69 8.08C66.64 9.23 67.41 11.73 67.52 13.26L66.2 13.78C66.05 12.16 65.51 9.74 64.42 8.5L65.69 8.08Z" fill="#00ABB6"/>
</g>
<defs>
<filter id="filter0_d_1016_10393" x="0.541667" y="0" width="83.9167" height="22.9167" filterUnits="userSpaceOnUse" color-interpolation-filters="sRGB">
<feFlood flood-opacity="0" result="BackgroundImageFix"/>
<feColorMatrix in="SourceAlpha" type="matrix" values="0 0 0 0 0 0 0 0 0 0 0 0 0 0 0 0 0 0 127 0" result="hardAlpha"/>
<feOffset dy="0.458333"/>
<feGaussianBlur stdDeviation="0.229167"/>
<feComposite in2="hardAlpha" operator="out"/>
<feColorMatrix type="matrix" values="0 0 0 0 0 0 0 0 0 0 0 0 0 0 0 0 0 0 0.25 0"/>
<feBlend mode="normal" in2="BackgroundImageFix" result="effect1_dropShadow_1016_10393"/>
<feBlend mode="normal" in="SourceGraphic" in2="effect1_dropShadow_1016_10393" result="shape"/>
</filter>
</defs>
</svg>
