<svg width="189" height="262" viewBox="0 0 189 262" fill="none" xmlns="http://www.w3.org/2000/svg">
<mask id="path-1-inside-1_2045_11213" fill="white">
<path d="M8 13C8 10.2386 10.2386 8 13 8H176C178.761 8 181 10.2386 181 13V262H8V13Z"/>
</mask>
<path d="M8 13C8 10.2386 10.2386 8 13 8H176C178.761 8 181 10.2386 181 13V262H8V13Z" fill="#EEFEFF"/>
<path d="M7 13C7 9.68629 9.68629 7 13 7H176C179.314 7 182 9.68629 182 13H180C180 10.7909 178.209 9 176 9H13C10.7909 9 9 10.7909 9 13H7ZM181 262H8H181ZM7 262V13C7 9.68629 9.68629 7 13 7V9C10.7909 9 9 10.7909 9 13V262H7ZM176 7C179.314 7 182 9.68629 182 13V262H180V13C180 10.7909 178.209 9 176 9V7Z" fill="#D9D9D9" mask="url(#path-1-inside-1_2045_11213)"/>
<path d="M9 13.1367C9 10.9276 10.7909 9.13672 13 9.13672H176C178.209 9.13672 180 10.9276 180 13.1367V31.4709H9V13.1367Z" fill="#04CAD6"/>
<path d="M79.408 16.824H84.648V23.52H84.016V17.432H80.024V23.552H79.408V16.824ZM79.816 19.6H84.28V20.192H79.816V19.6ZM79.808 22.432H84.296V23.032H79.808V22.432ZM90.208 19.344H92.968V19.912H90.208V19.344ZM89.944 19.344H90.544V22.608C90.544 22.92 90.632 22.984 91.072 22.984C91.28 22.984 92.32 22.984 92.592 22.984C93.024 22.984 93.088 22.776 93.136 21.664C93.28 21.768 93.536 21.872 93.704 21.912C93.616 23.2 93.432 23.56 92.632 23.56C92.432 23.56 91.208 23.56 91.024 23.56C90.192 23.56 89.944 23.368 89.944 22.6V19.344ZM89.856 16.736H93.28V20.36H92.672V17.304H89.856V16.736ZM86.68 18.704H89.176V19.184H86.68V18.704ZM86.728 16.568H89.208V17.048H86.728V16.568ZM86.68 19.776H89.176V20.256H86.68V19.776ZM86.304 17.616H89.488V18.112H86.304V17.616ZM86.96 20.856H89.152V23.192H86.96V22.688H88.616V21.352H86.96V20.856ZM86.672 20.856H87.208V23.56H86.672V20.856ZM98.92 17.232H99.504V21.656H98.92V17.232ZM100.72 16.432H101.32V22.84C101.32 23.256 101.208 23.44 100.96 23.536C100.696 23.64 100.248 23.656 99.512 23.648C99.472 23.48 99.376 23.216 99.28 23.04C99.856 23.056 100.352 23.056 100.512 23.048C100.664 23.048 100.72 23 100.72 22.848V16.432ZM94.928 21.192H97.92V21.72H94.928V21.192ZM94.928 19.864H97.92V20.384H94.928V19.864ZM96.056 16.28H96.648V18.872H96.056V16.28ZM97.464 18.488H98.048V22.88C98.048 23.208 97.976 23.376 97.752 23.472C97.528 23.568 97.176 23.576 96.576 23.568C96.552 23.416 96.48 23.176 96.4 23.016C96.816 23.032 97.2 23.024 97.312 23.024C97.424 23.016 97.464 22.984 97.464 22.872V18.488ZM94.464 16.776L94.968 16.592C95.216 17.072 95.472 17.704 95.568 18.112L95.04 18.32C94.944 17.904 94.704 17.256 94.464 16.776ZM97.808 16.528L98.408 16.688C98.176 17.248 97.896 17.888 97.656 18.304L97.16 18.152C97.384 17.72 97.664 17.016 97.808 16.528ZM94.696 18.488H97.768V19.056H95.272V23.6H94.696V18.488ZM105.648 18.624H108.744V19.128H105.648V18.624ZM105.112 20.128H109.376V20.648H105.112V20.128ZM107.16 16.848C106.696 17.6 105.84 18.504 104.928 19.064C104.864 18.928 104.72 18.712 104.616 18.592C105.536 18.056 106.432 17.12 106.864 16.304H107.408C107.984 17.184 108.92 18.064 109.776 18.528C109.656 18.656 109.52 18.872 109.44 19.032C108.6 18.512 107.68 17.632 107.16 16.848ZM106.88 18.872H107.456V22.96C107.456 23.28 107.392 23.448 107.176 23.536C106.976 23.632 106.648 23.648 106.136 23.648C106.112 23.488 106.024 23.24 105.936 23.08C106.312 23.096 106.648 23.088 106.752 23.088C106.856 23.088 106.88 23.056 106.88 22.96V18.872ZM105.632 21.08L106.16 21.216C105.896 21.944 105.448 22.672 104.992 23.144C104.896 23.048 104.688 22.872 104.56 22.784C105.008 22.36 105.4 21.728 105.632 21.08ZM108.048 21.288L108.504 21.072C108.936 21.616 109.424 22.368 109.624 22.84L109.128 23.096C108.936 22.624 108.464 21.856 108.048 21.288ZM102.64 16.632H104.528V17.176H103.184V23.648H102.64V16.632ZM104.344 16.632H104.448L104.544 16.608L104.928 16.84C104.696 17.496 104.4 18.32 104.128 18.96C104.72 19.624 104.848 20.184 104.848 20.68C104.848 21.112 104.76 21.448 104.536 21.608C104.424 21.68 104.28 21.728 104.12 21.752C103.96 21.768 103.76 21.768 103.576 21.76C103.568 21.616 103.52 21.384 103.432 21.232C103.616 21.248 103.768 21.256 103.896 21.24C103.992 21.24 104.08 21.216 104.144 21.168C104.272 21.08 104.312 20.864 104.312 20.624C104.312 20.192 104.168 19.648 103.592 19.024C103.88 18.296 104.176 17.344 104.344 16.792V16.632Z" fill="white"/>
<mask id="path-5-inside-2_2045_11213" fill="white">
<path d="M0 7.99999C0 3.58172 3.58172 0 8 0H181C185.418 0 189 3.58172 189 8V262H0V7.99999Z"/>
</mask>
<path d="M-3 8C-3 1.92487 1.92487 -3 8 -3H181C187.075 -3 192 1.92487 192 8H186C186 5.23858 183.761 3 181 3H8C5.23858 3 3 5.23858 3 8H-3ZM189 262H0H189ZM-3 262V8C-3 1.92487 1.92487 -3 8 -3V3C5.23858 3 3 5.23858 3 8V262H-3ZM181 -3C187.075 -3 192 1.92487 192 8V262H186V8C186 5.23858 183.761 3 181 3V-3Z" fill="#A29C9C" fill-opacity="0.5" mask="url(#path-5-inside-2_2045_11213)"/>
<g clip-path="url(#clip0_2045_11213)">
<rect width="171" height="231" transform="translate(9 31)" fill="#EEFEFF"/>
<path d="M43.2057 26.8877C42.738 26.8877 42.3395 26.7604 42.0104 26.5058C41.6813 26.2492 41.4299 25.8777 41.256 25.3913C41.0821 24.9028 40.9952 24.3129 40.9952 23.6216C40.9952 22.9345 41.0821 22.3477 41.256 21.8613C41.4319 21.3728 41.6844 21.0003 42.0135 20.7436C42.3447 20.4849 42.7421 20.3555 43.2057 20.3555C43.6694 20.3555 44.0657 20.4849 44.3948 20.7436C44.726 21.0003 44.9785 21.3728 45.1523 21.8613C45.3283 22.3477 45.4162 22.9345 45.4162 23.6216C45.4162 24.3129 45.3293 24.9028 45.1554 25.3913C44.9816 25.8777 44.7301 26.2492 44.401 26.5058C44.0719 26.7604 43.6735 26.8877 43.2057 26.8877ZM43.2057 26.2047C43.6694 26.2047 44.0295 25.9812 44.2861 25.5341C44.5428 25.087 44.6711 24.4495 44.6711 23.6216C44.6711 23.0711 44.6121 22.6023 44.4942 22.2152C44.3782 21.8282 44.2106 21.5332 43.9912 21.3304C43.7739 21.1276 43.512 21.0261 43.2057 21.0261C42.7462 21.0261 42.3871 21.2528 42.1284 21.7061C41.8697 22.1573 41.7403 22.7958 41.7403 23.6216C41.7403 24.1722 41.7983 24.6399 41.9142 25.0249C42.0301 25.4099 42.1967 25.7028 42.414 25.9035C42.6334 26.1043 42.8973 26.2047 43.2057 26.2047ZM48.6699 26.8877C48.2021 26.8877 47.8037 26.7604 47.4746 26.5058C47.1455 26.2492 46.894 25.8777 46.7202 25.3913C46.5463 24.9028 46.4594 24.3129 46.4594 23.6216C46.4594 22.9345 46.5463 22.3477 46.7202 21.8613C46.8961 21.3728 47.1486 21.0003 47.4777 20.7436C47.8089 20.4849 48.2063 20.3555 48.6699 20.3555C49.1335 20.3555 49.5299 20.4849 49.859 20.7436C50.1901 21.0003 50.4427 21.3728 50.6165 21.8613C50.7924 22.3477 50.8804 22.9345 50.8804 23.6216C50.8804 24.3129 50.7935 24.9028 50.6196 25.3913C50.4458 25.8777 50.1943 26.2492 49.8652 26.5058C49.5361 26.7604 49.1377 26.8877 48.6699 26.8877ZM48.6699 26.2047C49.1335 26.2047 49.4937 25.9812 49.7503 25.5341C50.007 25.087 50.1353 24.4495 50.1353 23.6216C50.1353 23.0711 50.0763 22.6023 49.9583 22.2152C49.8424 21.8282 49.6748 21.5332 49.4554 21.3304C49.2381 21.1276 48.9762 21.0261 48.6699 21.0261C48.2104 21.0261 47.8513 21.2528 47.5926 21.7061C47.3339 22.1573 47.2045 22.7958 47.2045 23.6216C47.2045 24.1722 47.2625 24.6399 47.3784 25.0249C47.4943 25.4099 47.6609 25.7028 47.8782 25.9035C48.0976 26.1043 48.3615 26.2047 48.6699 26.2047ZM54.1341 26.8877C53.6663 26.8877 53.2679 26.7604 52.9388 26.5058C52.6097 26.2492 52.3582 25.8777 52.1844 25.3913C52.0105 24.9028 51.9236 24.3129 51.9236 23.6216C51.9236 22.9345 52.0105 22.3477 52.1844 21.8613C52.3603 21.3728 52.6128 21.0003 52.9419 20.7436C53.2731 20.4849 53.6705 20.3555 54.1341 20.3555C54.5977 20.3555 54.9941 20.4849 55.3232 20.7436C55.6543 21.0003 55.9068 21.3728 56.0807 21.8613C56.2566 22.3477 56.3446 22.9345 56.3446 23.6216C56.3446 24.3129 56.2577 24.9028 56.0838 25.3913C55.9099 25.8777 55.6585 26.2492 55.3294 26.5058C55.0003 26.7604 54.6018 26.8877 54.1341 26.8877ZM54.1341 26.2047C54.5977 26.2047 54.9578 25.9812 55.2145 25.5341C55.4711 25.087 55.5995 24.4495 55.5995 23.6216C55.5995 23.0711 55.5405 22.6023 55.4225 22.2152C55.3066 21.8282 55.139 21.5332 54.9196 21.3304C54.7022 21.1276 54.4404 21.0261 54.1341 21.0261C53.6746 21.0261 53.3155 21.2528 53.0568 21.7061C52.798 22.1573 52.6687 22.7958 52.6687 23.6216C52.6687 24.1722 52.7266 24.6399 52.8425 25.0249C52.9585 25.4099 53.1251 25.7028 53.3424 25.9035C53.5618 26.1043 53.8257 26.2047 54.1341 26.2047ZM59.5983 26.8877C59.1305 26.8877 58.7321 26.7604 58.403 26.5058C58.0739 26.2492 57.8224 25.8777 57.6485 25.3913C57.4747 24.9028 57.3878 24.3129 57.3878 23.6216C57.3878 22.9345 57.4747 22.3477 57.6485 21.8613C57.8245 21.3728 58.077 21.0003 58.4061 20.7436C58.7372 20.4849 59.1346 20.3555 59.5983 20.3555C60.0619 20.3555 60.4582 20.4849 60.7873 20.7436C61.1185 21.0003 61.371 21.3728 61.5449 21.8613C61.7208 22.3477 61.8088 22.9345 61.8088 23.6216C61.8088 24.3129 61.7218 24.9028 61.548 25.3913C61.3741 25.8777 61.1226 26.2492 60.7935 26.5058C60.4645 26.7604 60.066 26.8877 59.5983 26.8877ZM59.5983 26.2047C60.0619 26.2047 60.422 25.9812 60.6787 25.5341C60.9353 25.087 61.0637 24.4495 61.0637 23.6216C61.0637 23.0711 61.0047 22.6023 60.8867 22.2152C60.7708 21.8282 60.6031 21.5332 60.3837 21.3304C60.1664 21.1276 59.9046 21.0261 59.5983 21.0261C59.1388 21.0261 58.7797 21.2528 58.5209 21.7061C58.2622 22.1573 58.1329 22.7958 58.1329 23.6216C58.1329 24.1722 58.1908 24.6399 58.3067 25.0249C58.4226 25.4099 58.5893 25.7028 58.8066 25.9035C59.026 26.1043 59.2899 26.2047 59.5983 26.2047ZM64.7521 19.4307L65.4078 19.5968C64.9269 20.8907 64.1488 22.106 63.3358 22.8928C63.2046 22.7791 62.9336 22.5606 62.7675 22.4732C63.598 21.7475 64.3237 20.611 64.7521 19.4307ZM64.6122 20.5148H70.2512V21.153H64.2975L64.6122 20.5148ZM64.1838 22.4994H70.0589V23.1114H64.8395V25.1834H64.1838V22.4994ZM62.7413 24.8512H70.6621V25.4894H62.7413V24.8512ZM66.8066 20.847H67.4798V27.5089H66.8066V20.847ZM76.5372 19.4569H77.2017V20.8732H76.5372V19.4569ZM76.0389 21.0044L76.7383 21.2055C76.4498 21.8786 76.1001 22.6917 75.8116 23.1988L75.2608 23.0152C75.5406 22.4906 75.8728 21.6164 76.0389 21.0044ZM77.5339 21.8174L78.041 21.5464C78.5917 22.1584 79.2037 23.0065 79.466 23.5572L78.9152 23.872C78.6617 23.3212 78.0759 22.4557 77.5339 21.8174ZM74.5439 20.6197H79.3261V21.2142H74.5439V20.6197ZM74.5789 22.8578C75.6018 22.8141 77.1667 22.7179 78.6792 22.613L78.6704 23.1901C77.2191 23.295 75.6979 23.3999 74.6401 23.4698L74.5789 22.8578ZM77.3328 23.7846H77.9535V26.6084C77.9535 26.827 77.9885 26.8532 78.1721 26.8532C78.2595 26.8532 78.6617 26.8532 78.7753 26.8532C78.9502 26.8532 78.9852 26.7134 79.0114 25.7517C79.1425 25.8653 79.4048 25.9702 79.5709 26.0052C79.5185 27.1505 79.3611 27.4477 78.8365 27.4477C78.7141 27.4477 78.1983 27.4477 78.0759 27.4477C77.4814 27.4477 77.3328 27.2554 77.3328 26.6084V23.7846ZM72.7779 19.4657L73.3549 19.693C73.0227 20.3312 72.6118 21.1093 72.2708 21.5901L71.8162 21.3803C72.1484 20.882 72.5506 20.0427 72.7779 19.4657ZM73.757 20.4623L74.3078 20.7071C73.7133 21.7125 72.874 22.9802 72.2271 23.7496L71.8249 23.5223C72.4719 22.7354 73.2937 21.4065 73.757 20.4623ZM71.3965 21.3016L71.7287 20.8732C72.2183 21.2841 72.7691 21.8524 73.0052 22.2458L72.6555 22.7442C72.4194 22.3333 71.8686 21.7213 71.3965 21.3016ZM73.451 22.4906L73.9057 22.307C74.2641 22.8666 74.6138 23.6184 74.7362 24.0993L74.2466 24.3266C74.1242 23.837 73.8008 23.0677 73.451 22.4906ZM71.3703 23.3824C72.1309 23.3562 73.2237 23.3124 74.3341 23.2513L74.3253 23.7933C73.2762 23.8632 72.2183 23.9244 71.4227 23.9769L71.3703 23.3824ZM73.6784 24.5539L74.1505 24.4053C74.3953 24.8949 74.6313 25.5593 74.7187 25.9965L74.2117 26.1713C74.133 25.7342 73.8969 25.061 73.6784 24.5539ZM71.8599 24.4577L72.4282 24.5627C72.3058 25.3845 72.0872 26.2325 71.8074 26.792C71.6938 26.7221 71.4315 26.5997 71.2916 26.5385C71.5801 26.0052 71.755 25.2271 71.8599 24.4577ZM72.8041 23.6272H73.3899V27.5264H72.8041V23.6272ZM75.7154 23.7933H76.3449C76.2662 25.7079 75.9777 26.8882 74.4215 27.5352C74.3428 27.3865 74.1679 27.168 74.0368 27.0543C75.4356 26.5035 75.6455 25.4894 75.7154 23.7933ZM83.6101 22.4557H88.3049V23.1026H83.6101V22.4557ZM85.6646 19.4832H86.329V27.5002H85.6646V19.4832ZM80.5589 22.106H83.2866V22.6305H80.5589V22.106ZM80.6113 19.7717H83.2953V20.2962H80.6113V19.7717ZM80.5589 23.2775H83.2866V23.802H80.5589V23.2775ZM80.1479 20.917H83.6275V21.459H80.1479V20.917ZM80.8648 24.4577H83.2603V27.0106H80.8648V26.4598H82.6746V24.9998H80.8648V24.4577ZM80.5501 24.4577H81.1359V27.4128H80.5501V24.4577ZM91.2905 26.8877C90.8227 26.8877 90.4243 26.7604 90.0952 26.5058C89.7661 26.2492 89.5146 25.8777 89.3408 25.3913C89.1669 24.9028 89.08 24.3129 89.08 23.6216C89.08 22.9345 89.1669 22.3477 89.3408 21.8613C89.5167 21.3728 89.7692 21.0003 90.0983 20.7436C90.4295 20.4849 90.8269 20.3555 91.2905 20.3555C91.7541 20.3555 92.1505 20.4849 92.4796 20.7436C92.8107 21.0003 93.0633 21.3728 93.2371 21.8613C93.413 22.3477 93.501 22.9345 93.501 23.6216C93.501 24.3129 93.4141 24.9028 93.2402 25.3913C93.0664 25.8777 92.8149 26.2492 92.4858 26.5058C92.1567 26.7604 91.7583 26.8877 91.2905 26.8877ZM91.2905 26.2047C91.7541 26.2047 92.1143 25.9812 92.3709 25.5341C92.6276 25.087 92.7559 24.4495 92.7559 23.6216C92.7559 23.0711 92.6969 22.6023 92.5789 22.2152C92.463 21.8282 92.2954 21.5332 92.076 21.3304C91.8587 21.1276 91.5968 21.0261 91.2905 21.0261C90.831 21.0261 90.4719 21.2528 90.2132 21.7061C89.9545 22.1573 89.8251 22.7958 89.8251 23.6216C89.8251 24.1722 89.8831 24.6399 89.999 25.0249C90.1149 25.4099 90.2815 25.7028 90.4988 25.9035C90.7182 26.1043 90.9821 26.2047 91.2905 26.2047ZM96.7547 26.8877C96.2869 26.8877 95.8885 26.7604 95.5594 26.5058C95.2303 26.2492 94.9788 25.8777 94.805 25.3913C94.6311 24.9028 94.5442 24.3129 94.5442 23.6216C94.5442 22.9345 94.6311 22.3477 94.805 21.8613C94.9809 21.3728 95.2334 21.0003 95.5625 20.7436C95.8937 20.4849 96.2911 20.3555 96.7547 20.3555C97.2183 20.3555 97.6147 20.4849 97.9438 20.7436C98.2749 21.0003 98.5274 21.3728 98.7013 21.8613C98.8772 22.3477 98.9652 22.9345 98.9652 23.6216C98.9652 24.3129 98.8783 24.9028 98.7044 25.3913C98.5305 25.8777 98.2791 26.2492 97.95 26.5058C97.6209 26.7604 97.2224 26.8877 96.7547 26.8877ZM96.7547 26.2047C97.2183 26.2047 97.5784 25.9812 97.8351 25.5341C98.0917 25.087 98.2201 24.4495 98.2201 23.6216C98.2201 23.0711 98.1611 22.6023 98.0431 22.2152C97.9272 21.8282 97.7596 21.5332 97.5402 21.3304C97.3228 21.1276 97.061 21.0261 96.7547 21.0261C96.2952 21.0261 95.9361 21.2528 95.6774 21.7061C95.4186 22.1573 95.2893 22.7958 95.2893 23.6216C95.2893 24.1722 95.3472 24.6399 95.4631 25.0249C95.5791 25.4099 95.7457 25.7028 95.963 25.9035C96.1824 26.1043 96.4463 26.2047 96.7547 26.2047ZM101.699 19.9203H106.262V20.5585H101.699V19.9203ZM101.699 22.0273H106.297V22.6567H101.699V22.0273ZM101.629 24.143H106.254V24.7725H101.629V24.143ZM101.297 19.9203H101.961V22.6218C101.961 24.1343 101.742 26.1975 100.239 27.5089C100.142 27.3691 99.8802 27.133 99.7403 27.0368C101.148 25.8041 101.297 24.0293 101.297 22.6218V19.9203ZM105.974 19.9203H106.656V26.5385C106.656 27.0019 106.533 27.2292 106.201 27.3428C105.86 27.4565 105.283 27.4652 104.339 27.4652C104.295 27.2729 104.173 26.9581 104.059 26.7746C104.785 26.8008 105.502 26.792 105.703 26.792C105.904 26.7833 105.974 26.7221 105.974 26.5298V19.9203ZM110.962 26.8877C110.494 26.8877 110.095 26.7604 109.766 26.5058C109.437 26.2492 109.186 25.8777 109.012 25.3913C108.838 24.9028 108.751 24.3129 108.751 23.6216C108.751 22.9345 108.838 22.3477 109.012 21.8613C109.188 21.3728 109.44 21.0003 109.769 20.7436C110.101 20.4849 110.498 20.3555 110.962 20.3555C111.425 20.3555 111.822 20.4849 112.151 20.7436C112.482 21.0003 112.734 21.3728 112.908 21.8613C113.084 22.3477 113.172 22.9345 113.172 23.6216C113.172 24.3129 113.085 24.9028 112.911 25.3913C112.737 25.8777 112.486 26.2492 112.157 26.5058C111.828 26.7604 111.429 26.8877 110.962 26.8877ZM110.962 26.2047C111.425 26.2047 111.785 25.9812 112.042 25.5341C112.299 25.087 112.427 24.4495 112.427 23.6216C112.427 23.0711 112.368 22.6023 112.25 22.2152C112.134 21.8282 111.966 21.5332 111.747 21.3304C111.53 21.1276 111.268 21.0261 110.962 21.0261C110.502 21.0261 110.143 21.2528 109.884 21.7061C109.626 22.1573 109.496 22.7958 109.496 23.6216C109.496 24.1722 109.554 24.6399 109.67 25.0249C109.786 25.4099 109.953 25.7028 110.17 25.9035C110.389 26.1043 110.653 26.2047 110.962 26.2047ZM116.426 26.8877C115.958 26.8877 115.56 26.7604 115.23 26.5058C114.901 26.2492 114.65 25.8777 114.476 25.3913C114.302 24.9028 114.215 24.3129 114.215 23.6216C114.215 22.9345 114.302 22.3477 114.476 21.8613C114.652 21.3728 114.904 21.0003 115.234 20.7436C115.565 20.4849 115.962 20.3555 116.426 20.3555C116.889 20.3555 117.286 20.4849 117.615 20.7436C117.946 21.0003 118.198 21.3728 118.372 21.8613C118.548 22.3477 118.636 22.9345 118.636 23.6216C118.636 24.3129 118.549 24.9028 118.375 25.3913C118.202 25.8777 117.95 26.2492 117.621 26.5058C117.292 26.7604 116.893 26.8877 116.426 26.8877ZM116.426 26.2047C116.889 26.2047 117.249 25.9812 117.506 25.5341C117.763 25.087 117.891 24.4495 117.891 23.6216C117.891 23.0711 117.832 22.6023 117.714 22.2152C117.598 21.8282 117.431 21.5332 117.211 21.3304C116.994 21.1276 116.732 21.0261 116.426 21.0261C115.966 21.0261 115.607 21.2528 115.348 21.7061C115.09 22.1573 114.96 22.7958 114.96 23.6216C114.96 24.1722 115.018 24.6399 115.134 25.0249C115.25 25.4099 115.417 25.7028 115.634 25.9035C115.853 26.1043 116.117 26.2047 116.426 26.2047ZM120.697 20.0514H126.423V27.3691H125.732V20.7159H121.37V27.404H120.697V20.0514ZM121.142 23.0851H126.021V23.7321H121.142V23.0851ZM121.134 26.1801H126.038V26.8358H121.134V26.1801ZM141.015 19.5356C143.191 19.5356 144.957 21.3016 144.957 23.4786C144.957 25.6642 143.191 27.4303 141.015 27.4303C138.829 27.4303 137.063 25.6642 137.063 23.4786C137.063 21.3016 138.829 19.5356 141.015 19.5356ZM141.015 20.2088C139.205 20.2088 137.736 21.6776 137.736 23.4786C137.736 25.2883 139.205 26.7571 141.015 26.7571C142.816 26.7571 144.284 25.2883 144.284 23.4786C144.284 21.6776 142.816 20.2088 141.015 20.2088ZM43.9183 31.882H45.7105V32.3453H43.9183V31.882ZM43.7696 30.7891H45.9728V33.4732H43.7609V32.9923H45.3958V31.2613H43.7696V30.7891ZM46.4536 31.882H48.2983V32.3453H46.4536V31.882ZM46.3312 30.7891H48.5781V33.4732H46.3225V32.9923H48.0011V31.2613H46.3312V30.7891ZM44.5477 35.3528H48.4295V35.8162H44.5477V35.3528ZM44.5477 36.4894H48.4295V36.9527H44.5477V36.4894ZM44.574 37.6784H48.8666V38.1855H44.574V37.6784ZM44.7488 33.3508L45.3608 33.5343C44.9674 34.3824 44.3204 35.3179 43.6123 35.9211C43.5161 35.7987 43.3325 35.5889 43.2188 35.484C43.8571 34.9419 44.4603 34.0764 44.7488 33.3508ZM44.8013 34.1638H48.648V34.6796H44.8013V38.4565H44.198V34.6971L44.7051 34.1638H44.8013ZM46.576 33.4032L47.223 33.5518C47.0306 33.9365 46.8121 34.3387 46.6372 34.6097L46.1476 34.4611C46.2963 34.1551 46.4886 33.7005 46.576 33.4032ZM46.1564 34.5572H46.7421V37.8707H46.1564V34.5572ZM41.4528 31.0077H43.4024V36.8129H41.4528V36.2271H42.8079V31.6022H41.4528V31.0077ZM41.4878 33.5693H43.1139V34.1551H41.4878V33.5693ZM41.1468 31.0077H41.7326V37.5385H41.1468V31.0077ZM50.755 31.0514H56.4815V38.3691H55.7908V31.7159H51.4282V38.404H50.755V31.0514ZM51.2009 34.0851H56.0793V34.7321H51.2009V34.0851ZM51.1922 37.1801H56.0968V37.8358H51.1922V37.1801Z" fill="white"/>
<rect x="13" y="179" width="165" height="28" rx="3" stroke="#FF0404" stroke-width="2"/>
<path d="M48.0468 124.954H52.8333V131.071H52.256V125.51H48.6095V131.1H48.0468V124.954ZM48.4195 127.49H52.4972V128.031H48.4195V127.49ZM48.4122 130.077H52.5118V130.625H48.4122V130.077ZM58.2045 127.256H60.7256V127.775H58.2045V127.256ZM57.9633 127.256H58.5114V130.238C58.5114 130.523 58.5918 130.581 58.9937 130.581C59.1837 130.581 60.1337 130.581 60.3822 130.581C60.7768 130.581 60.8353 130.391 60.8791 129.375C61.0106 129.47 61.2445 129.565 61.398 129.602C61.3176 130.778 61.1495 131.107 60.4187 131.107C60.236 131.107 59.118 131.107 58.9499 131.107C58.1899 131.107 57.9633 130.932 57.9633 130.23V127.256ZM57.883 124.874H61.0106V128.184H60.4553V125.393H57.883V124.874ZM54.9818 126.671H57.2618V127.11H54.9818V126.671ZM55.0256 124.72H57.291V125.159H55.0256V124.72ZM54.9818 127.651H57.2618V128.089H54.9818V127.651ZM54.6383 125.678H57.5468V126.131H54.6383V125.678ZM55.2376 128.637H57.2399V130.771H55.2376V130.311H56.7503V129.09H55.2376V128.637ZM54.9745 128.637H55.4641V131.107H54.9745V128.637ZM65.3222 124.823C65.2564 125.108 65.176 125.51 64.986 125.999C64.8033 126.445 64.533 126.935 64.2406 127.315C64.5256 127.146 64.9422 127.044 65.2637 127.044C65.8264 127.044 66.2649 127.38 66.2649 127.972C66.2649 128.352 66.2795 129.193 66.2868 129.646H65.7241C65.7533 129.258 65.7606 128.506 65.7533 128.126C65.746 127.702 65.4537 127.505 65.0737 127.505C64.606 127.505 64.1456 127.738 63.8095 128.038C63.5976 128.243 63.393 128.506 63.1518 128.805L62.6476 128.433C63.6999 127.424 64.1895 126.576 64.438 125.955C64.5987 125.553 64.701 125.115 64.723 124.771L65.3222 124.823ZM62.8156 125.612C63.2103 125.663 63.7145 125.685 64.0506 125.685C65.0372 125.685 66.3014 125.626 67.3318 125.444V125.985C66.3087 126.138 64.9495 126.204 64.0214 126.204C63.7072 126.204 63.2249 126.189 62.8156 126.16V125.612ZM68.3987 127.373C68.216 127.431 67.953 127.534 67.7556 127.607C67.2368 127.811 66.5426 128.089 65.8337 128.455C65.1103 128.835 64.5987 129.229 64.5987 129.733C64.5987 130.303 65.1614 130.391 65.9141 130.391C66.4841 130.391 67.2733 130.325 67.9164 130.208L67.8945 130.8C67.3391 130.866 66.528 130.925 65.8922 130.925C64.8545 130.925 64.0141 130.698 64.0141 129.814C64.0141 128.922 64.9203 128.374 65.7899 127.928C66.4841 127.57 67.076 127.344 67.5583 127.117C67.7776 127.015 67.9603 126.935 68.1649 126.832L68.3987 127.373ZM74.0549 125.327H74.5883V129.368H74.0549V125.327ZM75.6991 124.596H76.2472V130.45C76.2472 130.83 76.1449 130.998 75.9183 131.085C75.6772 131.18 75.268 131.195 74.5956 131.188C74.5591 131.034 74.4714 130.793 74.3837 130.632C74.9099 130.647 75.363 130.647 75.5091 130.64C75.648 130.64 75.6991 130.596 75.6991 130.457V124.596ZM70.4083 128.944H73.1414V129.426H70.4083V128.944ZM70.4083 127.731H73.1414V128.206H70.4083V127.731ZM71.4387 124.457H71.9795V126.825H71.4387V124.457ZM72.7249 126.474H73.2583V130.486C73.2583 130.786 73.1926 130.939 72.988 131.027C72.7833 131.115 72.4618 131.122 71.9137 131.115C71.8918 130.976 71.826 130.756 71.753 130.61C72.133 130.625 72.4837 130.618 72.586 130.618C72.6883 130.61 72.7249 130.581 72.7249 130.479V126.474ZM69.9845 124.91L70.4449 124.742C70.6714 125.181 70.9053 125.758 70.993 126.131L70.5106 126.321C70.423 125.941 70.2037 125.349 69.9845 124.91ZM73.0391 124.684L73.5872 124.83C73.3753 125.341 73.1195 125.926 72.9003 126.306L72.4472 126.167C72.6518 125.773 72.9076 125.13 73.0391 124.684ZM70.1964 126.474H73.0026V126.993H70.7226V131.144H70.1964V126.474ZM80.493 126.598H83.321V127.059H80.493V126.598ZM80.0033 127.972H83.8983V128.447H80.0033V127.972ZM81.8741 124.976C81.4503 125.663 80.6683 126.489 79.8353 127C79.7768 126.876 79.6453 126.679 79.5503 126.569C80.3906 126.08 81.2091 125.225 81.6037 124.479H82.1006C82.6268 125.283 83.4818 126.087 84.2637 126.511C84.1541 126.628 84.0299 126.825 83.9568 126.971C83.1895 126.496 82.3491 125.692 81.8741 124.976ZM81.6183 126.825H82.1445V130.559C82.1445 130.851 82.086 131.005 81.8887 131.085C81.706 131.173 81.4064 131.188 80.9387 131.188C80.9168 131.041 80.8364 130.815 80.756 130.669C81.0995 130.683 81.4064 130.676 81.5014 130.676C81.5964 130.676 81.6183 130.647 81.6183 130.559V126.825ZM80.4783 128.842L80.9606 128.966C80.7195 129.631 80.3103 130.296 79.8937 130.727C79.806 130.64 79.616 130.479 79.4991 130.398C79.9083 130.011 80.2664 129.434 80.4783 128.842ZM82.6853 129.032L83.1018 128.835C83.4964 129.331 83.9422 130.018 84.1249 130.45L83.6718 130.683C83.4964 130.252 83.0653 129.551 82.6853 129.032ZM77.7453 124.779H79.4699V125.276H78.2422V131.188H77.7453V124.779ZM79.3018 124.779H79.3968L79.4845 124.757L79.8353 124.969C79.6233 125.568 79.353 126.321 79.1045 126.905C79.6453 127.512 79.7622 128.023 79.7622 128.476C79.7622 128.871 79.6818 129.178 79.4772 129.324C79.3749 129.39 79.2433 129.434 79.0972 129.456C78.951 129.47 78.7683 129.47 78.6003 129.463C78.593 129.331 78.5491 129.12 78.4687 128.981C78.6368 128.995 78.7756 129.003 78.8926 128.988C78.9803 128.988 79.0606 128.966 79.1191 128.922C79.236 128.842 79.2726 128.645 79.2726 128.425C79.2726 128.031 79.141 127.534 78.6149 126.964C78.878 126.299 79.1483 125.429 79.3018 124.925V124.779ZM89.3426 124.808C89.328 124.896 89.306 125.181 89.306 125.268C89.2841 125.743 89.2987 127.154 89.306 127.738L88.7506 127.453C88.7506 127.132 88.7433 125.678 88.7214 125.276C88.7068 125.078 88.6849 124.874 88.6703 124.808H89.3426ZM85.4549 125.831C86.4487 125.816 88.2756 125.751 89.401 125.751C90.2926 125.751 91.1987 125.751 91.5422 125.758L91.5349 126.299C91.1256 126.277 90.468 126.262 89.3937 126.262C88.1368 126.262 86.573 126.313 85.4695 126.394L85.4549 125.831ZM89.2914 127.95C89.2914 128.93 88.8383 129.419 88.1733 129.419C87.5595 129.419 86.9676 128.988 86.9676 128.191C86.9676 127.468 87.5668 126.927 88.261 126.927C89.1087 126.927 89.5399 127.556 89.5399 128.396C89.5399 129.39 89.0576 130.486 87.3622 130.99L86.8726 130.515C88.2026 130.201 88.9772 129.551 88.9772 128.345C88.9772 127.687 88.6556 127.41 88.261 127.41C87.8737 127.41 87.5156 127.709 87.5156 128.184C87.5156 128.645 87.8591 128.908 88.261 128.908C88.7141 128.908 89.0064 128.528 88.8895 127.746L89.2914 127.95ZM94.0999 125.217C94.2606 125.232 94.4653 125.239 94.6114 125.239C94.9987 125.239 96.7306 125.188 97.118 125.151C97.3372 125.13 97.4395 125.115 97.5199 125.086L97.856 125.517C97.7245 125.605 97.5783 125.7 97.4395 125.809C97.0814 126.087 96.0876 126.942 95.5176 127.41C95.8537 127.3 96.2045 127.263 96.5333 127.263C97.7464 127.263 98.616 127.987 98.616 128.973C98.616 130.15 97.6441 130.917 96.0949 130.917C95.101 130.917 94.4945 130.486 94.4945 129.872C94.4945 129.375 94.9476 128.922 95.6199 128.922C96.5918 128.922 97.0814 129.609 97.1326 130.347L96.6064 130.435C96.5626 129.814 96.2045 129.368 95.6199 129.368C95.2837 129.368 95.028 129.573 95.028 129.828C95.028 130.186 95.4299 130.398 96.0072 130.398C97.2495 130.398 98.0314 129.887 98.0314 128.973C98.0314 128.25 97.3445 127.716 96.3872 127.716C95.1741 127.716 94.5164 128.228 93.5956 129.171L93.1718 128.747C93.7783 128.25 94.721 127.461 95.1376 127.103C95.5468 126.766 96.4676 125.999 96.833 125.67C96.4456 125.692 94.9841 125.751 94.6041 125.773C94.436 125.787 94.2753 125.795 94.1145 125.816L94.0999 125.217ZM105.902 126.24C105.741 126.335 105.558 126.438 105.339 126.547C104.849 126.803 103.834 127.285 103.118 127.753C102.438 128.199 102.029 128.681 102.029 129.229C102.029 129.836 102.613 130.216 103.768 130.216C104.557 130.216 105.536 130.113 106.106 129.967L106.099 130.625C105.551 130.72 104.703 130.8 103.79 130.8C102.416 130.8 101.422 130.391 101.422 129.295C101.422 128.506 101.956 127.885 102.818 127.315C103.563 126.818 104.586 126.328 105.061 126.058C105.273 125.933 105.434 125.838 105.588 125.714L105.902 126.24ZM102.204 124.91C102.54 125.846 102.993 126.759 103.329 127.351L102.833 127.651C102.46 127.051 102.021 126.065 101.627 125.159L102.204 124.91ZM112.523 124.735L112.808 124.413C113.173 124.53 113.626 124.735 113.86 124.918L113.56 125.283C113.341 125.093 112.895 124.866 112.523 124.735ZM108.744 125.203H114.437V125.656H108.744V125.203ZM109.263 126.153H111.507V126.54H109.263V126.153ZM109.38 127.037H109.841V128.367H109.38V127.037ZM113.261 126.006L113.772 126.131C113.363 127.344 112.625 128.33 111.733 128.966C111.653 128.864 111.448 128.681 111.339 128.586C112.223 128.016 112.91 127.103 113.261 126.006ZM111.536 124.457H112.062C112.143 126.708 113.136 128.535 113.882 128.528C114.065 128.528 114.138 128.265 114.174 127.6C114.284 127.702 114.466 127.797 114.605 127.848C114.518 128.776 114.32 129.032 113.853 129.032C112.698 129.032 111.653 126.913 111.536 124.457ZM109.38 127.037H111.39V128.571H109.38V128.177H110.922V127.424H109.38V127.037ZM109.746 129.244H110.286V130.376C110.286 130.559 110.36 130.596 110.747 130.596C110.93 130.596 111.843 130.596 112.084 130.596C112.406 130.596 112.457 130.508 112.486 129.828C112.603 129.916 112.83 129.989 112.983 130.026C112.91 130.888 112.749 131.093 112.128 131.093C111.96 131.093 110.871 131.093 110.71 131.093C109.936 131.093 109.746 130.946 109.746 130.384V129.244ZM110.316 129.003L110.666 128.696C111.127 128.908 111.668 129.258 111.923 129.543L111.551 129.894C111.302 129.609 110.769 129.236 110.316 129.003ZM112.837 129.463L113.283 129.215C113.809 129.624 114.357 130.23 114.583 130.683L114.094 130.954C113.889 130.508 113.363 129.887 112.837 129.463ZM108.818 129.288L109.3 129.456C109.117 130.048 108.818 130.661 108.299 131.034L107.846 130.727C108.335 130.391 108.657 129.836 108.818 129.288ZM108.489 125.203H109V126.306C109 127.154 108.869 128.352 108.196 129.178C108.123 129.076 107.904 128.893 107.794 128.835C108.408 128.075 108.489 127.044 108.489 126.299V125.203ZM118.281 128.645H121.189V129.068H118.281V128.645ZM117.601 125.035H121.942V125.451H117.601V125.035ZM117.777 125.919H121.759V126.321H117.777V125.919ZM117.375 126.832H122.154V127.249H117.375V126.832ZM118.281 129.624H121.211V130.033H118.281V129.624ZM117.908 127.68H121.189V128.104H118.42V131.173H117.908V127.68ZM121.058 127.68H121.584V130.566C121.584 130.844 121.526 130.99 121.321 131.071C121.116 131.151 120.788 131.158 120.269 131.151C120.247 131.02 120.174 130.815 120.108 130.676C120.473 130.691 120.824 130.691 120.926 130.683C121.029 130.683 121.058 130.654 121.058 130.559V127.68ZM119.472 124.457H120.013V126.964H119.472V124.457ZM116.264 124.457H116.768V131.173H116.264V124.457ZM115.687 125.868L116.096 125.926C116.074 126.496 115.95 127.344 115.782 127.892L115.358 127.753C115.526 127.249 115.643 126.445 115.687 125.868ZM116.834 125.678L117.199 125.531C117.36 125.868 117.536 126.299 117.601 126.569L117.221 126.752C117.148 126.474 116.98 126.021 116.834 125.678ZM124.127 127.227H128.307V127.76H124.127V127.227ZM128.124 127.227H128.694C128.694 127.227 128.687 127.417 128.68 127.49C128.578 129.755 128.475 130.603 128.212 130.881C128.066 131.063 127.905 131.115 127.649 131.136C127.408 131.158 126.948 131.151 126.488 131.129C126.48 130.961 126.407 130.735 126.305 130.574C126.787 130.618 127.24 130.625 127.416 130.625C127.562 130.625 127.649 130.61 127.723 130.53C127.92 130.333 128.029 129.5 128.124 127.329V127.227ZM125.128 124.611L125.706 124.779C125.179 126.014 124.317 127.103 123.396 127.804C123.294 127.687 123.06 127.475 122.921 127.373C123.857 126.745 124.668 125.736 125.128 124.611ZM127.679 124.596C128.154 125.575 129.096 126.686 129.893 127.249C129.747 127.366 129.542 127.585 129.433 127.738C128.621 127.081 127.701 125.897 127.153 124.808L127.679 124.596ZM125.669 127.373H126.254C126.086 128.973 125.706 130.486 123.667 131.217C123.601 131.078 123.44 130.859 123.316 130.742C125.231 130.106 125.523 128.754 125.669 127.373ZM134.183 126.964H137.391V127.483H134.183V126.964ZM133.898 125.056L134.585 125.261C134.577 125.312 134.533 125.341 134.438 125.356V127.125C134.438 128.286 134.314 129.96 133.408 131.158C133.328 131.041 133.13 130.866 132.991 130.793C133.81 129.697 133.898 128.221 133.898 127.117V125.056ZM136.594 124.545L137.062 124.969C136.287 125.29 135.162 125.546 134.197 125.714C134.168 125.583 134.08 125.378 134.015 125.268C134.935 125.086 135.995 124.815 136.594 124.545ZM135.761 127.132H136.302V131.18H135.761V127.132ZM130.733 126.028H133.393V126.555H130.733V126.028ZM131.873 124.457H132.4V131.173H131.873V124.457ZM131.844 126.35L132.195 126.474C131.946 127.651 131.413 129.083 130.85 129.814C130.792 129.668 130.653 129.448 130.558 129.324C131.084 128.666 131.618 127.402 131.844 126.35ZM132.348 127.154C132.538 127.358 133.255 128.243 133.415 128.455L133.079 128.9C132.889 128.535 132.312 127.709 132.071 127.417L132.348 127.154ZM142.075 125.612C141.98 126.372 141.834 127.227 141.607 128.009C141.161 129.507 140.577 130.281 139.904 130.281C139.247 130.281 138.596 129.536 138.596 128.323C138.596 126.737 140.007 125.356 141.797 125.356C143.507 125.356 144.596 126.562 144.596 128.045C144.596 129.573 143.588 130.596 141.848 130.822L141.512 130.281C141.746 130.26 141.965 130.23 142.141 130.194C143.076 129.982 143.997 129.28 143.997 128.016C143.997 126.847 143.186 125.882 141.783 125.882C140.175 125.882 139.174 127.205 139.174 128.279C139.174 129.2 139.59 129.609 139.919 129.609C140.263 129.609 140.657 129.112 141.03 127.877C141.242 127.183 141.395 126.357 141.468 125.597L142.075 125.612ZM59.6441 137.261C59.8487 137.283 60.068 137.298 60.3018 137.298C60.7256 137.298 62.4283 137.298 62.8376 137.298C63.0422 137.298 63.3053 137.283 63.5172 137.261V137.868C63.298 137.853 63.0422 137.838 62.8376 137.838C62.4283 137.838 60.7256 137.838 60.3164 137.838C60.068 137.838 59.8341 137.853 59.6441 137.868V137.261ZM58.7745 139.095C58.9718 139.117 59.1837 139.132 59.4103 139.132C59.8341 139.132 63.8022 139.132 64.1895 139.132C64.343 139.132 64.5841 139.117 64.7668 139.095V139.702C64.606 139.687 64.3722 139.68 64.1895 139.68C63.8022 139.68 59.8341 139.68 59.4103 139.68C59.191 139.68 58.9718 139.687 58.7745 139.702V139.095ZM62.2164 139.388C62.2164 140.308 62.0995 141.068 61.778 141.682C61.5076 142.172 60.9595 142.698 60.3383 143.012L59.7976 142.618C60.3603 142.376 60.8864 141.96 61.1787 141.492C61.5441 140.915 61.5953 140.199 61.6026 139.395L62.2164 139.388ZM63.8972 136.662C64.0799 136.925 64.343 137.371 64.4891 137.663L64.0945 137.838C63.9556 137.546 63.7072 137.108 63.5099 136.83L63.8972 136.662ZM64.6937 136.37C64.891 136.64 65.1687 137.093 65.3076 137.363L64.9203 137.539C64.7595 137.225 64.5183 136.808 64.3137 136.538L64.6937 136.37ZM66.4987 139.431C66.7253 139.453 67.1053 139.475 67.5218 139.475C68.0553 139.475 70.9857 139.475 71.5264 139.475C71.8918 139.475 72.1476 139.446 72.3157 139.431V140.148C72.1622 140.14 71.8553 140.118 71.5337 140.118C70.9783 140.118 68.0626 140.118 67.5218 140.118C67.1199 140.118 66.7326 140.133 66.4987 140.148V139.431ZM76.3933 139.249C77.3287 139.797 78.5272 140.637 79.2506 141.222L78.8195 141.733C78.1472 141.12 76.8976 140.221 75.9914 139.658L76.3933 139.249ZM79.733 137.919C79.6745 138.021 79.6014 138.189 79.5649 138.306C79.3456 139.051 78.8853 140.023 78.2422 140.813C77.5772 141.631 76.6272 142.413 75.2387 142.925L74.7199 142.464C76.0791 142.055 77.073 141.28 77.7306 140.498C78.2933 139.826 78.7537 138.898 78.9218 138.218H76.218L76.4518 137.692H78.7756C78.973 137.692 79.1337 137.67 79.2506 137.626L79.733 137.919ZM77.2703 136.859C77.146 137.049 77.0145 137.298 76.9414 137.436C76.5103 138.24 75.6845 139.344 74.5153 140.148L74.033 139.775C75.2826 138.993 76.0353 137.897 76.3714 137.225C76.4445 137.1 76.5614 136.837 76.6053 136.647L77.2703 136.859ZM84.1906 136.852C84.1468 137.049 84.1249 137.203 84.0956 137.363C84.0006 138.182 83.6718 140.433 83.6718 141.222C83.6718 141.931 84.0737 142.362 84.9068 142.362C86.0176 142.362 86.7264 141.88 86.7264 141.12C86.7264 140.63 86.4633 140.089 85.9226 139.636L86.5656 139.497C87.0699 140.053 87.3183 140.564 87.3183 141.185C87.3183 142.274 86.3464 142.939 84.8995 142.939C83.913 142.939 83.1091 142.501 83.1091 141.31C83.1091 140.528 83.4526 138.343 83.533 137.334C83.5549 137.078 83.5549 136.947 83.5403 136.815L84.1906 136.852ZM81.8522 137.824C82.466 138.021 83.343 138.116 83.9933 138.116C84.5487 138.116 85.053 138.087 85.4841 138.021L85.4695 138.576C85.0018 138.62 84.5706 138.642 83.9787 138.642C83.3356 138.642 82.4587 138.533 81.8156 138.357L81.8522 137.824ZM81.6695 139.643C82.3783 139.892 83.2333 139.958 83.9056 139.958C84.4099 139.958 84.9141 139.943 85.4256 139.87L85.4183 140.425C84.9287 140.476 84.4756 140.491 83.986 140.491C83.1895 140.491 82.3053 140.403 81.6403 140.199L81.6695 139.643ZM93.0549 137.327H93.5883V141.368H93.0549V137.327ZM94.6991 136.596H95.2472V142.45C95.2472 142.83 95.1449 142.998 94.9183 143.085C94.6772 143.18 94.268 143.195 93.5957 143.188C93.5591 143.034 93.4714 142.793 93.3837 142.632C93.9099 142.647 94.363 142.647 94.5091 142.64C94.648 142.64 94.6991 142.596 94.6991 142.457V136.596ZM89.4083 140.944H92.1414V141.426H89.4083V140.944ZM89.4083 139.731H92.1414V140.206H89.4083V139.731ZM90.4387 136.457H90.9795V138.825H90.4387V136.457ZM91.7249 138.474H92.2583V142.486C92.2583 142.786 92.1926 142.939 91.988 143.027C91.7833 143.115 91.4618 143.122 90.9137 143.115C90.8918 142.976 90.826 142.756 90.753 142.61C91.133 142.625 91.4837 142.618 91.586 142.618C91.6883 142.61 91.7249 142.581 91.7249 142.479V138.474ZM88.9845 136.91L89.4449 136.742C89.6714 137.181 89.9053 137.758 89.993 138.131L89.5106 138.321C89.423 137.941 89.2037 137.349 88.9845 136.91ZM92.0391 136.684L92.5872 136.83C92.3753 137.341 92.1195 137.926 91.9003 138.306L91.4472 138.167C91.6518 137.773 91.9076 137.13 92.0391 136.684ZM89.1964 138.474H92.0026V138.993H89.7226V143.144H89.1964V138.474ZM99.493 138.598H102.321V139.059H99.493V138.598ZM99.0033 139.972H102.898V140.447H99.0033V139.972ZM100.874 136.976C100.45 137.663 99.6683 138.489 98.8353 139C98.7768 138.876 98.6453 138.679 98.5503 138.569C99.3906 138.08 100.209 137.225 100.604 136.479H101.101C101.627 137.283 102.482 138.087 103.264 138.511C103.154 138.628 103.03 138.825 102.957 138.971C102.189 138.496 101.349 137.692 100.874 136.976ZM100.618 138.825H101.144V142.559C101.144 142.851 101.086 143.005 100.889 143.085C100.706 143.173 100.406 143.188 99.9387 143.188C99.9168 143.041 99.8364 142.815 99.756 142.669C100.099 142.683 100.406 142.676 100.501 142.676C100.596 142.676 100.618 142.647 100.618 142.559V138.825ZM99.4783 140.842L99.9606 140.966C99.7195 141.631 99.3103 142.296 98.8937 142.727C98.806 142.64 98.616 142.479 98.4991 142.398C98.9083 142.011 99.2664 141.434 99.4783 140.842ZM101.685 141.032L102.102 140.835C102.496 141.331 102.942 142.018 103.125 142.45L102.672 142.683C102.496 142.252 102.065 141.551 101.685 141.032ZM96.7453 136.779H98.4699V137.276H97.2422V143.188H96.7453V136.779ZM98.3018 136.779H98.3968L98.4845 136.757L98.8353 136.969C98.6233 137.568 98.353 138.321 98.1045 138.905C98.6453 139.512 98.7622 140.023 98.7622 140.476C98.7622 140.871 98.6818 141.178 98.4772 141.324C98.3749 141.39 98.2433 141.434 98.0972 141.456C97.951 141.47 97.7683 141.47 97.6003 141.463C97.593 141.331 97.5491 141.12 97.4687 140.981C97.6368 140.995 97.7756 141.003 97.8926 140.988C97.9803 140.988 98.0606 140.966 98.1191 140.922C98.236 140.842 98.2726 140.645 98.2726 140.425C98.2726 140.031 98.141 139.534 97.6149 138.964C97.878 138.299 98.1483 137.429 98.3018 136.925V136.779ZM107.583 137.422C107.539 137.261 107.473 137.042 107.4 136.845L108.028 136.771C108.094 137.195 108.284 137.824 108.452 138.299C108.679 138.927 109.051 139.607 109.366 140.031C109.461 140.177 109.57 140.301 109.68 140.418L109.388 140.835C109.037 140.747 108.145 140.666 107.619 140.63L107.663 140.148C108.072 140.184 108.613 140.228 108.876 140.257C108.569 139.79 108.167 139.066 107.926 138.401C107.765 137.985 107.663 137.648 107.583 137.422ZM104.908 137.992C106.128 138.131 107.283 138.138 108.116 138.05C108.693 137.985 109.417 137.853 109.987 137.656L110.053 138.233C109.534 138.379 108.839 138.496 108.306 138.562C107.378 138.671 106.216 138.679 104.923 138.569L104.908 137.992ZM106.041 140.316C105.821 140.674 105.69 140.988 105.69 141.331C105.69 142.033 106.326 142.333 107.414 142.347C108.153 142.347 108.788 142.274 109.293 142.165L109.271 142.749C108.81 142.83 108.196 142.91 107.378 142.903C105.989 142.895 105.113 142.398 105.113 141.405C105.113 140.995 105.259 140.615 105.471 140.184L106.041 140.316ZM118.478 142.04C118.084 142.435 117.631 142.654 117.134 142.654C116.644 142.654 116.323 142.333 116.323 141.733C116.323 140.915 116.593 139.716 116.593 139.008C116.593 138.584 116.381 138.401 116.008 138.401C115.321 138.401 114.262 139.307 113.575 140.14L113.582 139.417C114.035 138.92 115.248 137.868 116.147 137.868C116.834 137.868 117.17 138.255 117.17 138.847C117.17 139.578 116.893 140.835 116.893 141.573C116.893 141.821 117.017 142.018 117.28 142.018C117.623 142.018 118.011 141.806 118.383 141.419L118.478 142.04ZM113.568 138.547C113.326 138.584 112.537 138.679 111.996 138.766L111.931 138.16C112.091 138.167 112.23 138.167 112.413 138.153C112.8 138.131 113.714 138.021 114.05 137.911L114.262 138.16C114.138 138.35 113.94 138.664 113.816 138.869L113.597 139.87C113.261 140.389 112.581 141.375 112.121 142.011L111.755 141.514C112.208 140.944 113.195 139.607 113.48 139.125L113.509 138.745L113.568 138.547ZM113.494 137.341C113.494 137.173 113.502 136.983 113.465 136.801L114.152 136.823C114.05 137.298 113.831 139.388 113.831 140.674C113.831 141.339 113.831 141.785 113.86 142.435C113.867 142.559 113.889 142.742 113.896 142.881H113.268C113.283 142.742 113.29 142.566 113.29 142.45C113.29 141.741 113.297 141.375 113.304 140.571C113.319 139.928 113.494 137.612 113.494 137.341ZM123.141 136.801C123.126 136.925 123.111 137.071 123.104 137.29C123.089 137.583 123.089 138.562 123.089 139.176C123.089 140.14 123.199 141.419 123.199 141.909C123.199 142.42 122.863 142.939 121.913 142.939C120.861 142.939 120.283 142.566 120.283 141.858C120.283 141.193 120.919 140.747 121.971 140.747C123.513 140.747 124.719 141.58 125.282 142.04L124.946 142.559C124.288 141.953 123.206 141.222 121.906 141.222C121.204 141.222 120.831 141.492 120.831 141.828C120.831 142.172 121.116 142.42 121.84 142.42C122.264 142.42 122.622 142.296 122.622 141.785C122.622 141.222 122.549 139.819 122.549 139.176C122.549 138.518 122.549 137.751 122.549 137.239C122.549 137.115 122.541 136.896 122.519 136.801H123.141ZM120.349 137.59C120.817 137.678 121.73 137.751 122.213 137.751C123.141 137.751 124.12 137.685 125.07 137.531V138.065C124.244 138.16 123.199 138.255 122.22 138.255C121.716 138.255 120.817 138.189 120.356 138.131L120.349 137.59ZM120.313 139.146C120.831 139.227 121.664 139.278 122.147 139.278C123.206 139.278 124.178 139.205 125.128 139.066V139.614C124.134 139.738 123.243 139.79 122.147 139.79C121.643 139.79 120.839 139.753 120.32 139.695L120.313 139.146ZM131.143 136.808C131.128 136.896 131.106 137.181 131.106 137.268C131.084 137.743 131.099 139.154 131.106 139.738L130.551 139.453C130.551 139.132 130.543 137.678 130.521 137.276C130.507 137.078 130.485 136.874 130.47 136.808H131.143ZM127.255 137.831C128.249 137.816 130.076 137.751 131.201 137.751C132.093 137.751 132.999 137.751 133.342 137.758L133.335 138.299C132.926 138.277 132.268 138.262 131.194 138.262C129.937 138.262 128.373 138.313 127.269 138.394L127.255 137.831ZM131.091 139.95C131.091 140.93 130.638 141.419 129.973 141.419C129.36 141.419 128.768 140.988 128.768 140.191C128.768 139.468 129.367 138.927 130.061 138.927C130.909 138.927 131.34 139.556 131.34 140.396C131.34 141.39 130.858 142.486 129.162 142.99L128.673 142.515C130.003 142.201 130.777 141.551 130.777 140.345C130.777 139.687 130.456 139.41 130.061 139.41C129.674 139.41 129.316 139.709 129.316 140.184C129.316 140.645 129.659 140.908 130.061 140.908C130.514 140.908 130.806 140.528 130.689 139.746L131.091 139.95ZM59.4468 160.954H64.2333V167.071H63.656V161.51H60.0095V167.1H59.4468V160.954ZM59.8195 163.49H63.8972V164.031H59.8195V163.49ZM59.8122 166.077H63.9118V166.625H59.8122V166.077ZM69.6045 163.256H72.1257V163.775H69.6045V163.256ZM69.3633 163.256H69.9114V166.238C69.9114 166.523 69.9918 166.581 70.3937 166.581C70.5837 166.581 71.5337 166.581 71.7822 166.581C72.1768 166.581 72.2353 166.391 72.2791 165.375C72.4107 165.47 72.6445 165.565 72.798 165.602C72.7176 166.778 72.5495 167.107 71.8187 167.107C71.636 167.107 70.518 167.107 70.3499 167.107C69.5899 167.107 69.3633 166.932 69.3633 166.23V163.256ZM69.283 160.874H72.4107V164.184H71.8553V161.393H69.283V160.874ZM66.3818 162.671H68.6618V163.11H66.3818V162.671ZM66.4257 160.72H68.691V161.159H66.4257V160.72ZM66.3818 163.651H68.6618V164.089H66.3818V163.651ZM66.0383 161.678H68.9468V162.131H66.0383V161.678ZM66.6376 164.637H68.6399V166.771H66.6376V166.311H68.1503V165.09H66.6376V164.637ZM66.3745 164.637H66.8641V167.107H66.3745V164.637ZM76.7222 160.823C76.6564 161.108 76.576 161.51 76.386 161.999C76.2033 162.445 75.933 162.935 75.6406 163.315C75.9256 163.146 76.3422 163.044 76.6637 163.044C77.2264 163.044 77.6649 163.38 77.6649 163.972C77.6649 164.352 77.6795 165.193 77.6868 165.646H77.1241C77.1533 165.258 77.1606 164.506 77.1533 164.126C77.146 163.702 76.8537 163.505 76.4737 163.505C76.006 163.505 75.5456 163.738 75.2095 164.038C74.9976 164.243 74.793 164.506 74.5518 164.805L74.0476 164.433C75.0999 163.424 75.5895 162.576 75.838 161.955C75.9987 161.553 76.101 161.115 76.123 160.771L76.7222 160.823ZM74.2156 161.612C74.6103 161.663 75.1145 161.685 75.4506 161.685C76.4372 161.685 77.7014 161.626 78.7318 161.444V161.985C77.7087 162.138 76.3495 162.204 75.4214 162.204C75.1072 162.204 74.6249 162.189 74.2156 162.16V161.612ZM79.7987 163.373C79.616 163.431 79.353 163.534 79.1556 163.607C78.6368 163.811 77.9426 164.089 77.2337 164.455C76.5103 164.835 75.9987 165.229 75.9987 165.733C75.9987 166.303 76.5614 166.391 77.3141 166.391C77.8841 166.391 78.6733 166.325 79.3164 166.208L79.2945 166.8C78.7391 166.866 77.928 166.925 77.2922 166.925C76.2545 166.925 75.4141 166.698 75.4141 165.814C75.4141 164.922 76.3203 164.374 77.1899 163.928C77.8841 163.57 78.476 163.344 78.9583 163.117C79.1776 163.015 79.3603 162.935 79.5649 162.832L79.7987 163.373ZM85.4549 161.327H85.9883V165.368H85.4549V161.327ZM87.0991 160.596H87.6472V166.45C87.6472 166.83 87.5449 166.998 87.3183 167.085C87.0772 167.18 86.668 167.195 85.9956 167.188C85.9591 167.034 85.8714 166.793 85.7837 166.632C86.3099 166.647 86.763 166.647 86.9091 166.64C87.048 166.64 87.0991 166.596 87.0991 166.457V160.596ZM81.8083 164.944H84.5414V165.426H81.8083V164.944ZM81.8083 163.731H84.5414V164.206H81.8083V163.731ZM82.8387 160.457H83.3795V162.825H82.8387V160.457ZM84.1249 162.474H84.6583V166.486C84.6583 166.786 84.5926 166.939 84.388 167.027C84.1833 167.115 83.8618 167.122 83.3137 167.115C83.2918 166.976 83.226 166.756 83.153 166.61C83.533 166.625 83.8837 166.618 83.986 166.618C84.0883 166.61 84.1249 166.581 84.1249 166.479V162.474ZM81.3845 160.91L81.8449 160.742C82.0714 161.181 82.3053 161.758 82.393 162.131L81.9106 162.321C81.823 161.941 81.6037 161.349 81.3845 160.91ZM84.4391 160.684L84.9872 160.83C84.7753 161.341 84.5195 161.926 84.3003 162.306L83.8472 162.167C84.0518 161.773 84.3076 161.13 84.4391 160.684ZM81.5964 162.474H84.4026V162.993H82.1226V167.144H81.5964V162.474ZM91.893 162.598H94.721V163.059H91.893V162.598ZM91.4033 163.972H95.2983V164.447H91.4033V163.972ZM93.2741 160.976C92.8503 161.663 92.0683 162.489 91.2353 163C91.1768 162.876 91.0453 162.679 90.9503 162.569C91.7907 162.08 92.6091 161.225 93.0037 160.479H93.5007C94.0268 161.283 94.8818 162.087 95.6637 162.511C95.5541 162.628 95.4299 162.825 95.3568 162.971C94.5895 162.496 93.7491 161.692 93.2741 160.976ZM93.0183 162.825H93.5445V166.559C93.5445 166.851 93.486 167.005 93.2887 167.085C93.106 167.173 92.8064 167.188 92.3387 167.188C92.3168 167.041 92.2364 166.815 92.156 166.669C92.4995 166.683 92.8064 166.676 92.9014 166.676C92.9964 166.676 93.0183 166.647 93.0183 166.559V162.825ZM91.8783 164.842L92.3607 164.966C92.1195 165.631 91.7103 166.296 91.2937 166.727C91.206 166.64 91.016 166.479 90.8991 166.398C91.3083 166.011 91.6664 165.434 91.8783 164.842ZM94.0853 165.032L94.5018 164.835C94.8964 165.331 95.3422 166.018 95.5249 166.45L95.0718 166.683C94.8964 166.252 94.4653 165.551 94.0853 165.032ZM89.1453 160.779H90.8699V161.276H89.6422V167.188H89.1453V160.779ZM90.7018 160.779H90.7968L90.8845 160.757L91.2353 160.969C91.0233 161.568 90.753 162.321 90.5045 162.905C91.0453 163.512 91.1622 164.023 91.1622 164.476C91.1622 164.871 91.0818 165.178 90.8772 165.324C90.7749 165.39 90.6433 165.434 90.4972 165.456C90.351 165.47 90.1683 165.47 90.0003 165.463C89.993 165.331 89.9491 165.12 89.8687 164.981C90.0368 164.995 90.1757 165.003 90.2926 164.988C90.3803 164.988 90.4607 164.966 90.5191 164.922C90.636 164.842 90.6726 164.645 90.6726 164.425C90.6726 164.031 90.541 163.534 90.0149 162.964C90.278 162.299 90.5483 161.429 90.7018 160.925V160.779ZM98.6453 160.903C98.6087 161.144 98.5868 161.4 98.5722 161.641C98.543 162.467 98.4845 164.199 98.4845 165.288C98.4845 166.091 98.9887 166.369 99.683 166.369C101.02 166.369 101.78 165.624 102.306 164.864L102.716 165.361C102.219 166.055 101.269 166.968 99.6683 166.968C98.616 166.968 97.8926 166.537 97.8926 165.339C97.8926 164.257 97.9656 162.408 97.9656 161.641C97.9656 161.371 97.9437 161.115 97.8999 160.903H98.6453ZM107.941 160.801C107.926 160.925 107.911 161.071 107.904 161.29C107.889 161.583 107.889 162.562 107.889 163.176C107.889 164.14 107.999 165.419 107.999 165.909C107.999 166.42 107.663 166.939 106.713 166.939C105.661 166.939 105.083 166.566 105.083 165.858C105.083 165.193 105.719 164.747 106.771 164.747C108.313 164.747 109.519 165.58 110.082 166.04L109.746 166.559C109.088 165.953 108.006 165.222 106.706 165.222C106.004 165.222 105.631 165.492 105.631 165.828C105.631 166.172 105.916 166.42 106.64 166.42C107.064 166.42 107.422 166.296 107.422 165.785C107.422 165.222 107.349 163.819 107.349 163.176C107.349 162.518 107.349 161.751 107.349 161.239C107.349 161.115 107.341 160.896 107.319 160.801H107.941ZM105.149 161.59C105.617 161.678 106.53 161.751 107.013 161.751C107.941 161.751 108.92 161.685 109.87 161.531V162.065C109.044 162.16 107.999 162.255 107.02 162.255C106.516 162.255 105.617 162.189 105.156 162.131L105.149 161.59ZM105.113 163.146C105.631 163.227 106.464 163.278 106.947 163.278C108.006 163.278 108.978 163.205 109.928 163.066V163.614C108.934 163.738 108.043 163.79 106.947 163.79C106.443 163.79 105.639 163.753 105.12 163.695L105.113 163.146ZM115.943 160.808C115.928 160.896 115.906 161.181 115.906 161.268C115.884 161.743 115.899 163.154 115.906 163.738L115.351 163.453C115.351 163.132 115.343 161.678 115.321 161.276C115.307 161.078 115.285 160.874 115.27 160.808H115.943ZM112.055 161.831C113.049 161.816 114.876 161.751 116.001 161.751C116.893 161.751 117.799 161.751 118.142 161.758L118.135 162.299C117.726 162.277 117.068 162.262 115.994 162.262C114.737 162.262 113.173 162.313 112.069 162.394L112.055 161.831ZM115.891 163.95C115.891 164.93 115.438 165.419 114.773 165.419C114.159 165.419 113.568 164.988 113.568 164.191C113.568 163.468 114.167 162.927 114.861 162.927C115.709 162.927 116.14 163.556 116.14 164.396C116.14 165.39 115.658 166.486 113.962 166.99L113.473 166.515C114.803 166.201 115.577 165.551 115.577 164.345C115.577 163.687 115.256 163.41 114.861 163.41C114.474 163.41 114.116 163.709 114.116 164.184C114.116 164.645 114.459 164.908 114.861 164.908C115.314 164.908 115.606 164.528 115.489 163.746L115.891 163.95ZM122.154 160.896C122.125 161.035 122.096 161.188 122.066 161.334C122.023 161.597 121.92 162.196 121.825 162.65C121.577 163.673 121.051 165.492 120.225 166.83L119.633 166.588C120.466 165.478 121.051 163.526 121.248 162.628C121.379 162.05 121.482 161.393 121.482 160.83L122.154 160.896ZM124.675 161.678C125.128 162.27 125.764 163.614 126.005 164.294L125.443 164.564C125.223 163.811 124.653 162.518 124.142 161.919L124.675 161.678ZM119.523 162.503C119.757 162.511 119.947 162.511 120.181 162.503C120.722 162.489 122.205 162.321 122.702 162.321C123.353 162.321 123.886 162.569 123.886 163.563C123.886 164.433 123.769 165.595 123.469 166.201C123.236 166.691 122.87 166.808 122.403 166.808C122.118 166.808 121.774 166.756 121.54 166.705L121.445 166.091C121.752 166.186 122.132 166.245 122.337 166.245C122.607 166.245 122.826 166.186 122.98 165.865C123.214 165.375 123.323 164.418 123.323 163.629C123.323 162.964 123.016 162.84 122.549 162.84C122.059 162.84 120.693 163 120.247 163.044C120.079 163.066 119.772 163.103 119.589 163.132L119.523 162.503ZM129.805 164.835C129.586 163.614 131.303 163.293 131.303 162.46C131.303 161.955 130.945 161.59 130.2 161.59C129.696 161.59 129.235 161.809 128.811 162.248L128.424 161.89C128.906 161.378 129.476 161.035 130.266 161.035C131.296 161.035 131.961 161.568 131.961 162.408C131.961 163.512 130.214 163.738 130.405 164.835H129.805ZM130.12 166.632C129.856 166.632 129.652 166.45 129.652 166.157C129.652 165.865 129.864 165.668 130.12 165.668C130.375 165.668 130.587 165.865 130.587 166.157C130.587 166.45 130.375 166.632 130.12 166.632Z" fill="black"/>
<path d="M77.0102 67.8498C80.7403 61.0073 82.2737 56.6264 84.9174 55.4088C87.5612 54.1913 89.7264 64.7714 89.7264 64.7714L95.6138 64.5831C95.6138 64.5831 104.28 53.2849 106.304 54.0358C108.328 54.7868 107.699 66.4665 107.699 66.4665C112.434 72.5298 113.897 76.0245 114.206 82.4757C114.206 82.4757 116.908 75.7328 118.406 80.1354C120.14 85.2291 115.475 89.7772 114.84 91.1768C114.559 91.7976 114.582 92.8532 114.4 94.1315C114.364 94.3825 114.494 94.8908 117.44 93.5003C120.386 92.1098 121.161 91.7045 122.246 91.7045C123.331 91.7045 126.432 94.0357 119.455 96.2995C112.479 98.5634 113.625 96.9118 113.445 97.2622C113.445 98.7878 109.378 103.298 108.292 103.609C108.292 103.609 106.432 111.851 103.176 111.851C99.9203 111.851 98.2149 105.941 98.2149 105.941C95.1141 106.097 96.1994 106.563 92.3234 105.63C92.3234 105.63 93.3835 111.851 90.3436 111.851C87.0518 111.851 80.7403 102.063 80.7403 102.063C78.6799 101.276 74.3387 94.1315 73.7684 91.7045C73.7684 91.7045 68.5886 97.7713 69.1034 93.0429C69.5904 88.5694 73.7684 85.4228 73.7684 82.4681C73.7684 79.5133 73.2801 74.6924 77.0102 67.8498Z" fill="#FFE925"/>
<ellipse cx="88.7576" cy="74.9939" rx="1.08528" ry="1.08859" fill="#2F2E2E"/>
<ellipse cx="97.4398" cy="74.9939" rx="1.08528" ry="1.08859" fill="#2F2E2E"/>
<path d="M93.5992 80.2913C94.1697 80.2913 94.5166 80.1506 94.7555 79.9433C95.0051 79.7268 95.1932 79.3895 95.3494 78.89C95.4154 78.6791 95.2491 78.4056 94.936 78.4056L91.8654 78.4056C91.7208 78.4056 91.5974 78.4718 91.5235 78.5634C91.4531 78.6507 91.4305 78.7542 91.4671 78.8623C91.6668 79.4523 91.916 79.7855 92.2178 79.9838C92.5264 80.1866 92.9548 80.2913 93.5992 80.2913Z" fill="white" stroke="#2F2E2E" stroke-width="0.913462"/>
<ellipse cx="97.6128" cy="78.2068" rx="0.685096" ry="1.82692" fill="#36C5F2"/>
<ellipse cx="88.9351" cy="78.2068" rx="0.685096" ry="1.82692" fill="#36C5F2"/>
<g filter="url(#filter0_d_2045_11213)">
<rect x="17" y="181.885" width="156.202" height="21.9231" rx="10.9615" fill="#FF4747" shape-rendering="crispEdges"/>
<path d="M77.2192 190.581H82.3199V196.909H81.3772V191.465H78.1253V196.917H77.2192V190.581ZM77.8403 193.036H81.7718V193.906H77.8403V193.036ZM77.833 195.557H81.7718V196.442H77.833V195.557ZM87.5888 192.876H89.993V193.701H87.5888V192.876ZM87.2307 192.876H88.1149V195.755C88.1149 196.069 88.1807 196.113 88.5315 196.113C88.6922 196.113 89.3718 196.113 89.5692 196.113C89.898 196.113 89.9565 195.945 90.0003 195.024C90.1976 195.17 90.5703 195.316 90.8188 195.375C90.7092 196.588 90.4607 196.946 89.6349 196.946C89.4303 196.946 88.6118 196.946 88.4218 196.946C87.5084 196.946 87.2307 196.69 87.2307 195.755V192.876ZM87.2088 190.508H90.4242V194.074H89.5399V191.341H87.2088V190.508ZM84.2711 192.386H86.6315V193.044H84.2711V192.386ZM84.3149 190.369H86.6534V191.034H84.3149V190.369ZM84.2711 193.38H86.6315V194.045H84.2711V193.38ZM83.913 191.356H86.9238V192.05H83.913V191.356ZM84.673 194.396H86.6095V196.617H84.673V195.923H85.8422V195.09H84.673V194.396ZM84.2492 194.396H85.0092V196.909H84.2492V194.396ZM94.8526 190.486C94.7942 190.756 94.6992 191.187 94.4945 191.714C94.3411 192.072 94.1292 192.488 93.9245 192.781C94.1218 192.693 94.5092 192.642 94.7576 192.642C95.3642 192.642 95.8245 193 95.8245 193.679C95.8245 194.074 95.8465 194.871 95.8538 195.331H94.9768C95.0061 194.987 95.0207 194.366 95.0134 193.972C95.0134 193.504 94.7211 193.351 94.4142 193.351C94.0122 193.351 93.5518 193.592 93.2742 193.855C93.0549 194.074 92.8503 194.337 92.6018 194.659L91.8199 194.074C92.7553 193.212 93.318 192.422 93.6249 191.619C93.7711 191.224 93.8661 190.778 93.888 190.406L94.8526 190.486ZM92.0976 191.166C92.4703 191.217 93.0111 191.246 93.3838 191.246C94.3484 191.246 95.6711 191.195 96.7307 191.005L96.7234 191.852C95.693 191.999 94.2242 192.064 93.3326 192.064C93.033 192.064 92.4995 192.05 92.0976 192.013V191.166ZM97.8853 193.241C97.6588 193.307 97.2642 193.453 97.0157 193.548C96.5407 193.731 95.883 193.994 95.1961 194.344C94.5311 194.688 94.173 195.002 94.173 195.404C94.173 195.806 94.5238 195.916 95.2326 195.916C95.8538 195.916 96.6722 195.835 97.3153 195.704L97.2861 196.646C96.7965 196.712 95.9049 196.778 95.2107 196.778C94.0707 196.778 93.2157 196.493 93.2157 195.55C93.2157 194.534 94.2607 193.935 95.1376 193.497C95.8099 193.146 96.2703 192.971 96.7088 192.766C96.9938 192.642 97.2495 192.525 97.5272 192.386L97.8853 193.241ZM103.198 191.027H104.046V195.134H103.198V191.027ZM104.813 190.281H105.683V195.93C105.683 196.449 105.573 196.69 105.281 196.836C104.974 196.975 104.491 197.004 103.819 197.004C103.775 196.749 103.636 196.347 103.505 196.098C103.995 196.113 104.462 196.113 104.616 196.113C104.755 196.113 104.813 196.069 104.813 195.93V190.281ZM99.7488 194.622H102.504V195.36H99.7488V194.622ZM99.7488 193.416H102.504V194.154H99.7488V193.416ZM100.582 190.135H101.451V192.715H100.582V190.135ZM101.78 192.145H102.628V195.989C102.628 196.391 102.562 196.624 102.299 196.756C102.043 196.895 101.7 196.902 101.181 196.902C101.152 196.668 101.05 196.31 100.947 196.091C101.232 196.106 101.554 196.098 101.656 196.098C101.751 196.091 101.78 196.069 101.78 195.974V192.145ZM99.1642 190.669L99.8876 190.42C100.092 190.851 100.297 191.421 100.377 191.801L99.6172 192.086C99.5515 191.706 99.3542 191.107 99.1642 190.669ZM102.116 190.362L102.986 190.552C102.789 191.092 102.57 191.662 102.387 192.042L101.656 191.852C101.824 191.451 102.021 190.822 102.116 190.362ZM99.4492 192.145H102.226V192.963H100.282V196.924H99.4492V192.145ZM109.87 192.254H112.727V192.971H109.87V192.254ZM109.431 193.636H113.261V194.374H109.431V193.636ZM111.273 190.932C110.864 191.56 110.126 192.327 109.344 192.795C109.256 192.583 109.066 192.269 108.92 192.094C109.709 191.655 110.484 190.829 110.856 190.15H111.631C112.15 190.917 112.925 191.662 113.692 192.028C113.524 192.225 113.341 192.539 113.217 192.781C112.501 192.349 111.711 191.575 111.273 190.932ZM110.871 192.634H111.704V196.106C111.704 196.493 111.638 196.719 111.39 196.851C111.156 196.99 110.835 197.012 110.389 197.012C110.36 196.778 110.235 196.42 110.118 196.193C110.389 196.201 110.666 196.201 110.761 196.201C110.849 196.201 110.871 196.179 110.871 196.091V192.634ZM109.716 194.651L110.476 194.841C110.243 195.514 109.833 196.193 109.417 196.617C109.278 196.478 108.978 196.23 108.803 196.113C109.198 195.755 109.526 195.207 109.716 194.651ZM111.945 194.936L112.61 194.622C112.99 195.112 113.4 195.777 113.553 196.23L112.83 196.588C112.691 196.149 112.303 195.455 111.945 194.936ZM107.02 190.457H108.745V191.239H107.787V197.012H107.02V190.457ZM108.474 190.457H108.62L108.745 190.427L109.315 190.749C109.125 191.377 108.883 192.174 108.671 192.744C109.125 193.314 109.212 193.804 109.212 194.227C109.212 194.702 109.117 195.009 108.883 195.17C108.766 195.251 108.628 195.302 108.467 195.324C108.335 195.338 108.16 195.346 107.992 195.346C107.985 195.134 107.919 194.805 107.802 194.593C107.933 194.6 108.028 194.607 108.116 194.6C108.196 194.6 108.27 194.586 108.321 194.542C108.408 194.476 108.445 194.33 108.445 194.125C108.445 193.782 108.35 193.329 107.933 192.839C108.138 192.181 108.372 191.173 108.474 190.705V190.457Z" fill="white"/>
</g>
<g filter="url(#filter1_d_2045_11213)">
<rect x="17.4565" y="222.077" width="156.202" height="21.9231" rx="10.9615" fill="white" shape-rendering="crispEdges"/>
<rect x="17.6849" y="222.306" width="155.745" height="21.4663" rx="10.7332" stroke="#00ABB6" stroke-width="0.456731" shape-rendering="crispEdges"/>
<path d="M79.2176 231.321C79.1738 231.117 79.1226 230.941 79.0642 230.773L80.1018 230.605C80.1165 230.744 80.1457 230.993 80.1749 231.168C80.248 231.65 80.9715 235.348 81.1249 236.093C81.1761 236.305 81.2418 236.568 81.3076 236.809L80.2553 236.992C80.2188 236.722 80.2042 236.473 80.153 236.254C80.0434 235.596 79.3345 231.913 79.2176 231.321ZM77.2226 232.257C77.4492 232.242 77.6684 232.228 77.9022 232.198C78.5234 232.125 81.0811 231.731 81.7388 231.599C81.9653 231.563 82.243 231.497 82.4184 231.446L82.6011 232.41C82.4403 232.418 82.1407 232.461 81.9215 232.491C81.1468 232.615 78.633 233.017 78.0849 233.112C77.8584 233.156 77.6684 233.199 77.4199 233.265L77.2226 232.257ZM77.2299 234.398C77.4199 234.391 77.7561 234.354 77.9826 234.318C78.7645 234.208 81.4318 233.777 82.2722 233.616C82.5572 233.565 82.8276 233.499 83.0249 233.448L83.2149 234.413C83.0176 234.427 82.718 234.478 82.4476 234.522C81.5195 234.661 78.8888 235.092 78.1653 235.231C77.8511 235.289 77.5953 235.333 77.4345 235.377L77.2299 234.398ZM87.0807 231.899C87.1026 232.074 87.1538 232.264 87.1976 232.454C87.4461 233.331 88.133 235.845 88.3157 236.451C88.3522 236.583 88.4545 236.904 88.5057 237.051L87.5192 237.299C87.4899 237.102 87.4461 236.861 87.3876 236.656C87.2049 236.02 86.5399 233.411 86.3061 232.651C86.2549 232.469 86.1745 232.286 86.0942 232.133L87.0807 231.899ZM90.5884 233.031C90.2742 233.667 89.5434 234.771 89.0318 235.311L88.2207 234.909C88.6007 234.573 89.1049 233.959 89.3022 233.601C88.9222 233.667 85.948 234.288 85.3488 234.42L85.1222 233.55C85.3488 233.528 85.5534 233.506 85.7945 233.463C86.1892 233.404 89.1122 232.849 89.6311 232.732C89.7553 232.703 89.9015 232.659 89.9965 232.615L90.5884 233.031ZM93.5188 230.985C94.023 231.329 94.973 232.089 95.4042 232.534L94.6588 233.294C94.2788 232.885 93.358 232.089 92.8245 231.723L93.5188 230.985ZM92.598 235.852C93.7453 235.691 94.688 235.319 95.3968 234.902C96.6465 234.157 97.5965 233.046 98.0642 232.059L98.6268 233.083C98.0788 234.076 97.1068 235.085 95.9303 235.794C95.1849 236.239 94.2422 236.641 93.2192 236.817L92.598 235.852ZM101.418 235.567C101.418 234.968 101.418 232.498 101.418 231.614C101.418 231.365 101.396 230.993 101.36 230.773H102.449C102.412 230.993 102.383 231.365 102.383 231.614C102.383 232.491 102.383 234.5 102.383 235.311C102.383 235.772 102.515 235.925 103.311 235.925C104.078 235.925 104.897 235.83 105.62 235.684L105.584 236.678C104.985 236.766 104.108 236.831 103.318 236.831C101.66 236.831 101.418 236.437 101.418 235.567ZM106.015 232.359C105.949 232.461 105.847 232.629 105.781 232.754C105.46 233.368 104.795 234.369 104.268 234.888L103.465 234.413C103.947 233.981 104.422 233.309 104.626 232.929C104.181 233.017 100.805 233.689 99.8765 233.894L99.7011 232.936C100.695 232.819 104.13 232.147 104.795 231.986C104.999 231.935 105.182 231.884 105.313 231.811L106.015 232.359ZM110.626 236.378C110.663 236.239 110.685 236.042 110.685 235.845C110.685 235.458 110.685 232.176 110.685 231.584C110.685 231.256 110.633 230.971 110.633 230.956H111.715C111.715 230.971 111.664 231.263 111.664 231.592C111.664 232.176 111.664 234.961 111.664 235.406C112.263 235.151 112.979 234.573 113.476 233.864L114.031 234.676C113.425 235.465 112.38 236.254 111.554 236.671C111.401 236.751 111.313 236.831 111.24 236.883L110.626 236.378ZM107.243 236.276C107.893 235.823 108.288 235.151 108.485 234.522C108.697 233.901 108.704 232.513 108.704 231.636C108.704 231.336 108.675 231.146 108.631 230.963H109.705C109.705 230.993 109.654 231.321 109.654 231.621C109.654 232.491 109.632 234.033 109.442 234.771C109.216 235.589 108.763 236.313 108.134 236.868L107.243 236.276Z" fill="#00ABB6"/>
</g>
</g>
<defs>
<filter id="filter0_d_2045_11213" x="16.0865" y="181.885" width="158.029" height="23.7498" filterUnits="userSpaceOnUse" color-interpolation-filters="sRGB">
<feFlood flood-opacity="0" result="BackgroundImageFix"/>
<feColorMatrix in="SourceAlpha" type="matrix" values="0 0 0 0 0 0 0 0 0 0 0 0 0 0 0 0 0 0 127 0" result="hardAlpha"/>
<feOffset dy="0.913462"/>
<feGaussianBlur stdDeviation="0.456731"/>
<feComposite in2="hardAlpha" operator="out"/>
<feColorMatrix type="matrix" values="0 0 0 0 0 0 0 0 0 0 0 0 0 0 0 0 0 0 0.25 0"/>
<feBlend mode="normal" in2="BackgroundImageFix" result="effect1_dropShadow_2045_11213"/>
<feBlend mode="normal" in="SourceGraphic" in2="effect1_dropShadow_2045_11213" result="shape"/>
</filter>
<filter id="filter1_d_2045_11213" x="16.5431" y="222.077" width="158.029" height="23.7498" filterUnits="userSpaceOnUse" color-interpolation-filters="sRGB">
<feFlood flood-opacity="0" result="BackgroundImageFix"/>
<feColorMatrix in="SourceAlpha" type="matrix" values="0 0 0 0 0 0 0 0 0 0 0 0 0 0 0 0 0 0 127 0" result="hardAlpha"/>
<feOffset dy="0.913462"/>
<feGaussianBlur stdDeviation="0.456731"/>
<feComposite in2="hardAlpha" operator="out"/>
<feColorMatrix type="matrix" values="0 0 0 0 0 0 0 0 0 0 0 0 0 0 0 0 0 0 0.25 0"/>
<feBlend mode="normal" in2="BackgroundImageFix" result="effect1_dropShadow_2045_11213"/>
<feBlend mode="normal" in="SourceGraphic" in2="effect1_dropShadow_2045_11213" result="shape"/>
</filter>
<clipPath id="clip0_2045_11213">
<rect width="171" height="231" fill="white" transform="translate(9 31)"/>
</clipPath>
</defs>
</svg>
