<svg width="116" height="24" viewBox="0 0 116 24" fill="none" xmlns="http://www.w3.org/2000/svg">
<g filter="url(#filter0_d_1005_10422)">
<rect x="1" width="114" height="22" rx="11" fill="#00ABB6" shape-rendering="crispEdges"/>
<path d="M33.53 7.11H40.51V15.77H39.22V8.32H34.77V15.78H33.53V7.11ZM34.38 10.47H39.76V11.66H34.38V10.47ZM34.37 13.92H39.76V15.13H34.37V13.92ZM47.72 10.25H51.01V11.38H47.72V10.25ZM47.23 10.25H48.44V14.19C48.44 14.62 48.53 14.68 49.01 14.68C49.23 14.68 50.16 14.68 50.43 14.68C50.88 14.68 50.96 14.45 51.02 13.19C51.29 13.39 51.8 13.59 52.14 13.67C51.99 15.33 51.65 15.82 50.52 15.82C50.24 15.82 49.12 15.82 48.86 15.82C47.61 15.82 47.23 15.47 47.23 14.19V10.25ZM47.2 7.01H51.6V11.89H50.39V8.15H47.2V7.01ZM43.18 9.58H46.41V10.48H43.18V9.58ZM43.24 6.82H46.44V7.73H43.24V6.82ZM43.18 10.94H46.41V11.85H43.18V10.94ZM42.69 8.17H46.81V9.12H42.69V8.17ZM43.73 12.33H46.38V15.37H43.73V14.42H45.33V13.28H43.73V12.33ZM43.15 12.33H44.19V15.77H43.15V12.33ZM57.66 6.98C57.58 7.35 57.45 7.94 57.17 8.66C56.96 9.15 56.67 9.72 56.39 10.12C56.66 10 57.19 9.93 57.53 9.93C58.36 9.93 58.99 10.42 58.99 11.35C58.99 11.89 59.02 12.98 59.03 13.61H57.83C57.87 13.14 57.89 12.29 57.88 11.75C57.88 11.11 57.48 10.9 57.06 10.9C56.51 10.9 55.88 11.23 55.5 11.59C55.2 11.89 54.92 12.25 54.58 12.69L53.51 11.89C54.79 10.71 55.56 9.63 55.98 8.53C56.18 7.99 56.31 7.38 56.34 6.87L57.66 6.98ZM53.89 7.91C54.4 7.98 55.14 8.02 55.65 8.02C56.97 8.02 58.78 7.95 60.23 7.69L60.22 8.85C58.81 9.05 56.8 9.14 55.58 9.14C55.17 9.14 54.44 9.12 53.89 9.07V7.91ZM61.81 10.75C61.5 10.84 60.96 11.04 60.62 11.17C59.97 11.42 59.07 11.78 58.13 12.26C57.22 12.73 56.73 13.16 56.73 13.71C56.73 14.26 57.21 14.41 58.18 14.41C59.03 14.41 60.15 14.3 61.03 14.12L60.99 15.41C60.32 15.5 59.1 15.59 58.15 15.59C56.59 15.59 55.42 15.2 55.42 13.91C55.42 12.52 56.85 11.7 58.05 11.1C58.97 10.62 59.6 10.38 60.2 10.1C60.59 9.93 60.94 9.77 61.32 9.58L61.81 10.75ZM64.94 12.67H71.6V15.92H70.39V13.42H66.1V15.93H64.94V12.67ZM65.55 13.79H70.82V14.49H65.55V13.79ZM65.55 14.88H70.82V15.64H65.55V14.88ZM67.55 6.48H68.76V12.06H67.55V6.48ZM64.71 7.11H71.55V10.08H64.6V9.38H70.36V7.81H64.71V7.11ZM63.69 8.17H72.71V9H63.69V8.17ZM64.38 10.43H71.97V11.16H64.38V10.43ZM63.67 11.52H72.7V12.35H63.67V11.52ZM80.94 7.8C80.62 8.03 80.29 8.29 80.06 8.48C79.41 9 78.09 10.02 77.42 10.6C76.89 11.05 76.9 11.17 77.44 11.64C78.19 12.27 80.09 13.76 81.11 14.75L79.95 15.83C79.67 15.51 79.37 15.2 79.07 14.9C78.47 14.27 77 13.01 76.08 12.24C75.09 11.39 75.17 10.85 76.17 10.02C76.95 9.38 78.33 8.27 79 7.61C79.29 7.33 79.61 7 79.77 6.76L80.94 7.8Z" fill="white"/>
</g>
<defs>
<filter id="filter0_d_1005_10422" x="0" y="0" width="116" height="24" filterUnits="userSpaceOnUse" color-interpolation-filters="sRGB">
<feFlood flood-opacity="0" result="BackgroundImageFix"/>
<feColorMatrix in="SourceAlpha" type="matrix" values="0 0 0 0 0 0 0 0 0 0 0 0 0 0 0 0 0 0 127 0" result="hardAlpha"/>
<feOffset dy="1"/>
<feGaussianBlur stdDeviation="0.5"/>
<feComposite in2="hardAlpha" operator="out"/>
<feColorMatrix type="matrix" values="0 0 0 0 0 0 0 0 0 0 0 0 0 0 0 0 0 0 0.25 0"/>
<feBlend mode="normal" in2="BackgroundImageFix" result="effect1_dropShadow_1005_10422"/>
<feBlend mode="normal" in="SourceGraphic" in2="effect1_dropShadow_1005_10422" result="shape"/>
</filter>
</defs>
</svg>
