<svg width="320" height="368" viewBox="0 0 320 368" fill="none" xmlns="http://www.w3.org/2000/svg">
<mask id="path-1-inside-1_1005_10472" fill="white">
<path d="M61 14C61 11.2386 63.2386 9 66 9H229C231.761 9 234 11.2386 234 14V368H61V14Z"/>
</mask>
<path d="M61 14C61 11.2386 63.2386 9 66 9H229C231.761 9 234 11.2386 234 14V368H61V14Z" fill="#EEFEFF"/>
<path d="M60 14C60 10.6863 62.6863 8 66 8H229C232.314 8 235 10.6863 235 14H233C233 11.7909 231.209 10 229 10H66C63.7909 10 62 11.7909 62 14H60ZM234 368H61H234ZM60 368V14C60 10.6863 62.6863 8 66 8V10C63.7909 10 62 11.7909 62 14V368H60ZM229 8C232.314 8 235 10.6863 235 14V368H233V14C233 11.7909 231.209 10 229 10V8Z" fill="#D9D9D9" mask="url(#path-1-inside-1_1005_10472)"/>
<path d="M62 14C62 11.7909 63.7909 10 66 10H229C231.209 10 233 11.7909 233 14V32.3342H62V14Z" fill="#04CAD6"/>
<rect x="71.5" y="14.1973" width="25.4615" height="12.4005" rx="4.5" fill="#04CAD6"/>
<rect x="71.5" y="14.1973" width="25.4615" height="12.4005" rx="4.5" stroke="white"/>
<path d="M75.6464 21.0508C75.4512 20.8556 75.4512 20.539 75.6464 20.3437L78.8284 17.1617C79.0237 16.9665 79.3403 16.9665 79.5355 17.1617C79.7308 17.357 79.7308 17.6736 79.5355 17.8688L76.7071 20.6973L79.5355 23.5257C79.7308 23.721 79.7308 24.0375 79.5355 24.2328C79.3403 24.4281 79.0237 24.4281 78.8284 24.2328L75.6464 21.0508ZM77 21.1973L76 21.1973L76 20.1973L77 20.1973L77 21.1973Z" fill="white"/>
<path d="M84.76 20.5453H87.724V20.8133H84.76V20.5453ZM86.376 20.6933C86.576 21.3093 87.056 21.6413 87.864 21.7533C87.796 21.8173 87.716 21.9413 87.68 22.0213C86.824 21.8653 86.34 21.4773 86.1 20.7453L86.376 20.6933ZM86.044 20.0333H86.348C86.28 21.1053 86.08 21.7373 84.812 22.0293C84.784 21.9573 84.704 21.8413 84.648 21.7853C85.832 21.5333 85.984 20.9893 86.044 20.0333ZM84.596 19.1293H84.896V19.9493C84.896 20.5413 84.82 21.3813 84.372 21.9533C84.32 21.9013 84.188 21.8173 84.112 21.7853C84.548 21.2493 84.596 20.4893 84.596 19.9413V19.1293ZM84.744 19.1293H87.488V20.0733H84.744V19.8333H87.192V19.3653H84.744V19.1293ZM84.32 18.5613H87.7V18.8373H84.32V18.5613ZM88.952 18.7533C89.04 18.7613 89.152 18.7653 89.232 18.7653C89.444 18.7653 90.392 18.7373 90.604 18.7173C90.724 18.7053 90.78 18.6973 90.824 18.6813L91.008 18.9173C90.936 18.9653 90.856 19.0173 90.78 19.0773C90.584 19.2293 90.04 19.6973 89.728 19.9533C89.912 19.8933 90.104 19.8733 90.284 19.8733C90.948 19.8733 91.424 20.2693 91.424 20.8093C91.424 21.4533 90.892 21.8733 90.044 21.8733C89.5 21.8733 89.168 21.6373 89.168 21.3013C89.168 21.0293 89.416 20.7813 89.784 20.7813C90.316 20.7813 90.584 21.1573 90.612 21.5613L90.324 21.6093C90.3 21.2693 90.104 21.0253 89.784 21.0253C89.6 21.0253 89.46 21.1373 89.46 21.2773C89.46 21.4733 89.68 21.5893 89.996 21.5893C90.676 21.5893 91.104 21.3093 91.104 20.8093C91.104 20.4133 90.728 20.1213 90.204 20.1213C89.54 20.1213 89.18 20.4013 88.676 20.9173L88.444 20.6853C88.776 20.4133 89.292 19.9813 89.52 19.7853C89.744 19.6013 90.248 19.1813 90.448 19.0013C90.236 19.0133 89.436 19.0453 89.228 19.0573C89.136 19.0653 89.048 19.0693 88.96 19.0813L88.952 18.7533Z" fill="white"/>
<path d="M121.344 23.7129V23.1769C123.088 21.6409 123.976 20.4969 123.976 19.5289C123.976 18.8969 123.64 18.4569 122.984 18.4569C122.52 18.4569 122.136 18.7449 121.824 19.1049L121.296 18.6009C121.808 18.0489 122.328 17.7209 123.096 17.7209C124.176 17.7209 124.872 18.4169 124.872 19.4889C124.872 20.6169 123.96 21.7929 122.712 22.9929C123.016 22.9609 123.392 22.9289 123.68 22.9289H125.152V23.7129H121.344ZM128.163 23.8249C127.003 23.8249 126.259 22.7929 126.259 20.7449C126.259 18.7129 127.003 17.7209 128.163 17.7209C129.315 17.7209 130.067 18.7129 130.067 20.7449C130.067 22.7929 129.315 23.8249 128.163 23.8249ZM128.163 23.0889C128.763 23.0889 129.179 22.4489 129.179 20.7449C129.179 19.0649 128.763 18.4409 128.163 18.4409C127.563 18.4409 127.139 19.0649 127.139 20.7449C127.139 22.4489 127.563 23.0889 128.163 23.0889ZM131.109 23.7129V23.1769C132.853 21.6409 133.741 20.4969 133.741 19.5289C133.741 18.8969 133.405 18.4569 132.749 18.4569C132.285 18.4569 131.901 18.7449 131.589 19.1049L131.061 18.6009C131.573 18.0489 132.093 17.7209 132.861 17.7209C133.941 17.7209 134.637 18.4169 134.637 19.4889C134.637 20.6169 133.725 21.7929 132.477 22.9929C132.781 22.9609 133.157 22.9289 133.445 22.9289H134.917V23.7129H131.109ZM137.784 23.8249C136.864 23.8249 136.264 23.4569 135.864 23.0089L136.32 22.4169C136.664 22.7689 137.096 23.0649 137.712 23.0649C138.368 23.0649 138.824 22.6969 138.824 22.0889C138.824 21.4329 138.408 21.0169 137.088 21.0169V20.3289C138.24 20.3289 138.624 19.8969 138.624 19.3049C138.624 18.7849 138.288 18.4569 137.72 18.4569C137.272 18.4569 136.888 18.6729 136.552 19.0089L136.064 18.4249C136.536 18.0089 137.08 17.7209 137.76 17.7209C138.816 17.7209 139.56 18.2649 139.56 19.2329C139.56 19.9129 139.168 20.3849 138.544 20.6169V20.6569C139.224 20.8329 139.76 21.3369 139.76 22.1369C139.76 23.2009 138.872 23.8249 137.784 23.8249ZM140.626 25.1529L142.85 17.3209H143.482L141.266 25.1529H140.626ZM144.647 23.7129V22.9529H145.943V18.8569H144.879V18.2729C145.439 18.1769 145.823 18.0329 146.167 17.8249H146.863V22.9529H148.015V23.7129H144.647ZM151.13 23.8249C149.97 23.8249 149.226 22.7929 149.226 20.7449C149.226 18.7129 149.97 17.7209 151.13 17.7209C152.282 17.7209 153.034 18.7129 153.034 20.7449C153.034 22.7929 152.282 23.8249 151.13 23.8249ZM151.13 23.0889C151.73 23.0889 152.146 22.4489 152.146 20.7449C152.146 19.0649 151.73 18.4409 151.13 18.4409C150.53 18.4409 150.106 19.0649 150.106 20.7449C150.106 22.4489 150.53 23.0889 151.13 23.0889ZM153.828 25.1529L156.052 17.3209H156.684L154.468 25.1529H153.828ZM157.849 23.7129V22.9529H159.145V18.8569H158.081V18.2729C158.641 18.1769 159.025 18.0329 159.369 17.8249H160.065V22.9529H161.217V23.7129H157.849ZM164.332 23.8249C163.172 23.8249 162.428 22.7929 162.428 20.7449C162.428 18.7129 163.172 17.7209 164.332 17.7209C165.484 17.7209 166.236 18.7129 166.236 20.7449C166.236 22.7929 165.484 23.8249 164.332 23.8249ZM164.332 23.0889C164.932 23.0889 165.348 22.4489 165.348 20.7449C165.348 19.0649 164.932 18.4409 164.332 18.4409C163.732 18.4409 163.308 19.0649 163.308 20.7449C163.308 22.4489 163.732 23.0889 164.332 23.0889ZM168.83 25.3049C168.078 24.0969 167.638 22.8009 167.638 21.2169C167.638 19.6329 168.078 18.3369 168.83 17.1209L169.398 17.3769C168.718 18.5289 168.398 19.8809 168.398 21.2169C168.398 22.5529 168.718 23.9049 169.398 25.0569L168.83 25.3049ZM171.626 18.5689L172.386 18.7369C172.25 19.7129 171.994 20.6809 171.29 21.2409L170.618 20.8009C171.234 20.3129 171.506 19.4729 171.626 18.5689ZM176.602 18.5609L177.434 18.8809C177.034 19.6409 176.53 20.5289 176.122 21.0969L175.482 20.8009C175.866 20.2089 176.346 19.2649 176.602 18.5609ZM174.066 17.0729H174.474V19.6329C174.474 20.6809 175.122 22.7369 177.778 23.6889C177.61 23.8569 177.37 24.1769 177.258 24.3929C175.114 23.5529 174.25 21.8169 174.058 21.0329C173.882 21.8329 173.082 23.5129 170.978 24.3929C170.874 24.2249 170.618 23.9129 170.45 23.7529C173.026 22.7769 173.658 20.6809 173.658 19.6329V17.0729H174.066ZM179.37 25.3049L178.794 25.0569C179.474 23.9049 179.802 22.5529 179.802 21.2169C179.802 19.8809 179.474 18.5289 178.794 17.3769L179.37 17.1209C180.114 18.3369 180.554 19.6329 180.554 21.2169C180.554 22.8009 180.114 24.0969 179.37 25.3049Z" fill="white"/>
<path d="M211.513 23.728V23.357C213.123 21.95 213.858 20.921 213.858 20.046C213.858 19.458 213.557 19.024 212.92 19.024C212.5 19.024 212.136 19.283 211.849 19.619L211.478 19.262C211.898 18.807 212.346 18.506 212.997 18.506C213.914 18.506 214.488 19.101 214.488 20.018C214.488 21.047 213.683 22.09 212.472 23.231C212.745 23.203 213.053 23.182 213.312 23.182H214.733V23.728H211.513ZM217.195 23.826C216.397 23.826 215.907 23.49 215.557 23.14L215.879 22.72C216.166 23.021 216.544 23.294 217.132 23.294C217.741 23.294 218.224 22.825 218.224 22.083C218.224 21.348 217.804 20.907 217.167 20.907C216.824 20.907 216.607 21.019 216.313 21.215L215.97 20.998L216.131 18.597H218.63V19.143H216.691L216.558 20.627C216.789 20.501 217.02 20.424 217.328 20.424C218.182 20.424 218.875 20.928 218.875 22.062C218.875 23.182 218.056 23.826 217.195 23.826ZM220.84 20.389C220.315 20.389 219.853 19.997 219.853 19.395C219.853 18.779 220.315 18.387 220.84 18.387C221.365 18.387 221.827 18.779 221.827 19.395C221.827 19.997 221.365 20.389 220.84 20.389ZM220.84 20.025C221.183 20.025 221.435 19.759 221.435 19.395C221.435 19.017 221.183 18.751 220.84 18.751C220.49 18.751 220.252 19.017 220.252 19.395C220.252 19.759 220.49 20.025 220.84 20.025ZM224.676 23.826C223.374 23.826 222.422 22.846 222.422 21.18C222.422 19.521 223.395 18.52 224.704 18.52C225.32 18.52 225.81 18.821 226.111 19.15L225.74 19.57C225.467 19.283 225.138 19.101 224.718 19.101C223.745 19.101 223.115 19.892 223.115 21.159C223.115 22.44 223.717 23.231 224.69 23.231C225.173 23.231 225.53 23.035 225.852 22.678L226.23 23.084C225.824 23.56 225.32 23.826 224.676 23.826Z" fill="white"/>
<path d="M196.709 15.728V17.1495M200.04 17.1239L199.047 18.129M201.418 20.4973H200.014M200.04 23.8707L199.047 22.8657M196.709 25.2666V23.8451M193.378 23.8707L194.371 22.8657M192 20.4973H193.403M193.378 17.1239L194.371 18.129M196.709 17.9382C197.209 17.9382 197.697 18.0883 198.113 18.3695C198.528 18.6507 198.852 19.0504 199.043 19.518C199.234 19.9856 199.285 20.5001 199.187 20.9966C199.09 21.493 198.849 21.949 198.496 22.3069C198.142 22.6648 197.692 22.9085 197.202 23.0073C196.712 23.106 196.204 23.0553 195.742 22.8616C195.28 22.6679 194.886 22.3399 194.608 21.9191C194.33 21.4982 194.182 21.0035 194.182 20.4973C194.182 19.8186 194.448 19.1677 194.922 18.6877C195.396 18.2078 196.039 17.9382 196.709 17.9382Z" stroke="white" stroke-width="0.520833" stroke-linecap="round" stroke-linejoin="round"/>
<path d="M199.155 20.5741C199.155 22.0543 198.174 22.8747 196.85 23.0981C195.389 23.0981 194.204 22.0543 194.204 20.5741C194.204 19.094 195.389 17.894 196.85 17.894C198.312 17.894 199.155 19.094 199.155 20.5741Z" fill="white"/>
<g filter="url(#filter0_d_1005_10472)">
<mask id="path-11-inside-2_1005_10472" fill="white">
<path d="M62 31.5H233V279.5H62V31.5Z"/>
</mask>
<path d="M62 31.5H233V279.5H62V31.5Z" fill="white"/>
<path d="M62 32.5H233V30.5H62V32.5Z" fill="#04CAD6" mask="url(#path-11-inside-2_1005_10472)"/>
</g>
<mask id="mask0_1005_10472" style="mask-type:alpha" maskUnits="userSpaceOnUse" x="101" y="59" width="132" height="222">
<rect x="101.066" y="59.5" width="131.933" height="221" fill="#D9D9D9"/>
</mask>
<g mask="url(#mask0_1005_10472)">
<g clip-path="url(#clip0_1005_10472)">
<path d="M128.859 166.426C128.228 139.242 125.234 123.332 131.119 115.033C137.004 106.733 162.006 134.894 162.006 134.894L179.51 124.031C179.51 124.031 186.061 74.7611 193.501 73.4891C200.94 72.2172 219.395 108.586 219.395 108.586C244.309 118.613 254.832 126.607 267.013 145.547C267.013 145.547 263.441 120.462 275.654 131.136C289.785 143.485 283.584 165.376 284.103 170.711C284.333 173.078 286.243 176.225 287.92 180.404C288.249 181.224 289.53 182.531 296.027 173.181C302.525 163.831 304.167 161.252 307.454 159.354C310.741 157.457 324.196 159.073 307.012 178.109C289.828 197.145 290.421 190.153 290.486 191.526C293.145 196.133 288.689 216.862 285.945 219.699C285.945 219.699 294.679 247.84 284.817 253.534C274.956 259.227 259.489 244.365 259.489 244.365C250.368 250.257 254.469 249.768 241.103 253.728C241.103 253.728 255.158 270.657 245.951 275.973C235.981 281.729 199.802 263.212 199.802 263.212C192.189 264.438 166.585 250.456 160.627 244.125C160.627 244.125 155.515 271.502 148.831 256.324C142.507 241.964 149.676 225.157 144.525 216.235C139.373 207.313 129.49 193.61 128.859 166.426Z" fill="#FFFAC9"/>
<circle cx="176.893" cy="167.457" r="3.79555" transform="rotate(-30 176.893 167.457)" fill="#EEEEEE"/>
<circle cx="203.19" cy="152.275" r="3.79555" transform="rotate(-30 203.19 152.275)" fill="#EEEEEE"/>
<path d="M201.047 175.425C203.031 174.28 203.937 173.04 204.287 171.695C204.653 170.288 204.461 168.589 203.863 166.438C203.701 165.858 202.992 165.537 202.377 165.892L190.939 172.496C190.321 172.853 190.267 173.602 190.666 173.998C192.58 175.897 194.167 176.763 195.691 176.95C197.216 177.137 198.893 176.669 201.047 175.425Z" fill="white" stroke="#EEEEEE" stroke-width="2.16889"/>
</g>
</g>
<path d="M71.34 45.49C72.06 45.57 72.98 45.61 73.99 45.61C74.95 45.61 75.96 45.55 76.68 45.47V46.29C76 46.34 74.91 46.41 73.99 46.41C72.99 46.41 72.13 46.37 71.34 46.3V45.49ZM71.74 49.52C71.62 49.91 71.54 50.28 71.54 50.65C71.54 51.42 72.32 51.94 73.92 51.94C75.29 51.94 76.58 51.79 77.34 51.55L77.35 52.41C76.63 52.6 75.36 52.75 73.94 52.75C71.91 52.75 70.73 52.09 70.73 50.83C70.73 50.31 70.84 49.84 70.93 49.44L71.74 49.52ZM81.74 45.49C82.46 45.57 83.38 45.61 84.39 45.61C85.35 45.61 86.36 45.55 87.08 45.47V46.29C86.4 46.34 85.31 46.41 84.39 46.41C83.39 46.41 82.53 46.37 81.74 46.3V45.49ZM82.14 49.52C82.02 49.91 81.94 50.28 81.94 50.65C81.94 51.42 82.72 51.94 84.32 51.94C85.69 51.94 86.98 51.79 87.74 51.55L87.75 52.41C87.03 52.6 85.76 52.75 84.34 52.75C82.31 52.75 81.13 52.09 81.13 50.83C81.13 50.31 81.24 49.84 81.33 49.44L82.14 49.52ZM94.35 45.75C95.44 45.94 97.47 45.9 98.46 45.75V46.56C97.39 46.68 95.45 46.68 94.36 46.56L94.35 45.75ZM94.74 49.83C94.65 50.19 94.6 50.47 94.6 50.74C94.6 51.2 94.92 51.65 96.29 51.65C97.18 51.65 97.96 51.57 98.76 51.38L98.78 52.22C98.16 52.35 97.32 52.43 96.28 52.43C94.61 52.43 93.86 51.87 93.86 50.93C93.86 50.6 93.91 50.24 94.02 49.76L94.74 49.83ZM92.45 44.98C92.39 45.15 92.31 45.47 92.27 45.65C92.08 46.58 91.77 48.36 91.77 49.49C91.77 49.97 91.8 50.39 91.86 50.88C92.03 50.43 92.26 49.83 92.43 49.42L92.85 49.75C92.6 50.46 92.23 51.51 92.14 51.99C92.11 52.13 92.09 52.32 92.09 52.44C92.1 52.54 92.11 52.68 92.12 52.79L91.41 52.84C91.21 52.13 91.04 50.98 91.04 49.62C91.04 48.15 91.37 46.44 91.49 45.61C91.52 45.38 91.55 45.13 91.56 44.91L92.45 44.98ZM102.03 50.21H108.47V53.31H107.71V50.74H102.76V53.33H102.03V50.21ZM102.41 51.34H108V51.84H102.41V51.34ZM102.41 52.48H108V53H102.41V52.48ZM104.78 44.09H105.54V49.52H104.78V44.09ZM101.82 44.79H108.42V47.52H101.7V47.03H107.67V45.29H101.82V44.79ZM100.76 45.87H109.64V46.43H100.76V45.87ZM101.43 48.08H108.97V48.59H101.43V48.08ZM100.74 49.18H109.65V49.74H100.74V49.18ZM112.83 45.53C112.78 45.76 112.75 46.24 112.74 46.5C112.73 47.12 112.74 48.04 112.81 48.86C112.98 50.53 113.46 51.64 114.18 51.64C114.69 51.64 115.16 50.61 115.42 49.61L116.05 50.32C115.44 52.01 114.84 52.59 114.16 52.59C113.21 52.59 112.31 51.65 112.03 49.06C111.94 48.2 111.92 46.98 111.92 46.4C111.92 46.17 111.92 45.74 111.86 45.51L112.83 45.53ZM118.03 45.8C118.93 46.96 119.65 49.09 119.8 50.78L118.99 51.1C118.82 49.3 118.21 47.24 117.26 46.07L118.03 45.8ZM121.537 45.86C121.917 45.85 122.237 45.83 122.437 45.81C123.087 45.74 124.967 45.56 126.817 45.4C127.907 45.31 128.837 45.25 129.507 45.23L129.517 46.03C128.937 46.02 128.067 46.04 127.557 46.18C126.127 46.64 125.257 48.17 125.257 49.35C125.257 51.3 127.087 51.92 128.707 51.99L128.427 52.81C126.567 52.74 124.467 51.76 124.467 49.52C124.467 47.96 125.417 46.69 126.337 46.15C125.257 46.26 122.717 46.51 121.627 46.74L121.537 45.86ZM137.835 45.13C137.615 45.29 137.305 45.56 137.145 45.7C136.455 46.3 135.015 47.43 134.275 48.05C133.675 48.57 133.665 48.72 134.315 49.26C135.225 50.01 136.995 51.43 138.055 52.5L137.345 53.15C137.135 52.91 136.895 52.67 136.655 52.42C135.945 51.7 134.435 50.4 133.495 49.63C132.555 48.84 132.665 48.41 133.565 47.65C134.325 47.02 135.845 45.82 136.515 45.14C136.715 44.94 136.975 44.65 137.085 44.47L137.835 45.13ZM145.315 44.78C145.255 45 145.175 45.38 145.135 45.57C144.995 46.29 144.785 47.43 144.505 48.42C144.145 49.84 143.475 51.91 142.945 53L142.065 52.71C142.675 51.68 143.375 49.64 143.745 48.23C143.995 47.31 144.255 46.06 144.325 45.53C144.365 45.25 144.385 44.91 144.365 44.7L145.315 44.78ZM143.105 46.45C144.205 46.45 145.675 46.28 146.915 45.96V46.75C145.675 47.03 144.165 47.19 143.085 47.19C142.645 47.19 142.295 47.18 141.925 47.15L141.905 46.38C142.375 46.44 142.735 46.45 143.105 46.45ZM146.265 47.83C146.785 47.78 147.445 47.74 148.095 47.74C148.675 47.74 149.285 47.76 149.825 47.82L149.805 48.58C149.285 48.52 148.705 48.47 148.115 48.47C147.485 48.47 146.875 48.5 146.265 48.57V47.83ZM146.465 50.26C146.385 50.58 146.325 50.9 146.325 51.16C146.325 51.63 146.595 52.09 148.015 52.09C148.665 52.09 149.355 52.01 149.975 51.89L149.945 52.7C149.405 52.77 148.735 52.84 148.005 52.84C146.435 52.84 145.575 52.35 145.575 51.36C145.575 50.98 145.635 50.61 145.725 50.18L146.465 50.26ZM148.735 45.09C148.995 45.44 149.355 46.06 149.565 46.46L149.025 46.7C148.825 46.3 148.475 45.69 148.205 45.31L148.735 45.09ZM149.845 44.68C150.115 45.05 150.495 45.67 150.685 46.05L150.145 46.29C149.935 45.85 149.595 45.29 149.315 44.91L149.845 44.68ZM156.825 45.42C156.765 45.2 156.675 44.9 156.575 44.63L157.435 44.53C157.525 45.11 157.785 45.97 158.015 46.62C158.325 47.48 158.835 48.41 159.265 48.99C159.395 49.19 159.545 49.36 159.695 49.52L159.295 50.09C158.815 49.97 157.595 49.86 156.875 49.81L156.935 49.15C157.495 49.2 158.235 49.26 158.595 49.3C158.175 48.66 157.625 47.67 157.295 46.76C157.075 46.19 156.935 45.73 156.825 45.42ZM153.165 46.2C154.835 46.39 156.415 46.4 157.555 46.28C158.345 46.19 159.335 46.01 160.115 45.74L160.205 46.53C159.495 46.73 158.545 46.89 157.815 46.98C156.545 47.13 154.955 47.14 153.185 46.99L153.165 46.2ZM154.715 49.38C154.415 49.87 154.235 50.3 154.235 50.77C154.235 51.73 155.105 52.14 156.595 52.16C157.605 52.16 158.475 52.06 159.165 51.91L159.135 52.71C158.505 52.82 157.665 52.93 156.545 52.92C154.645 52.91 153.445 52.23 153.445 50.87C153.445 50.31 153.645 49.79 153.935 49.2L154.715 49.38ZM164.225 45.53C164.175 45.76 164.145 46.24 164.135 46.5C164.125 47.12 164.135 48.04 164.205 48.86C164.375 50.53 164.855 51.64 165.575 51.64C166.085 51.64 166.555 50.61 166.815 49.61L167.445 50.32C166.835 52.01 166.235 52.59 165.555 52.59C164.605 52.59 163.705 51.65 163.425 49.06C163.335 48.2 163.315 46.98 163.315 46.4C163.315 46.17 163.315 45.74 163.255 45.51L164.225 45.53ZM169.425 45.8C170.325 46.96 171.045 49.09 171.195 50.78L170.385 51.1C170.215 49.3 169.605 47.24 168.655 46.07L169.425 45.8ZM75.95 60.7C75.95 58.75 76.74 57.17 77.94 55.95L78.54 56.26C77.38 57.45 76.67 58.92 76.67 60.7C76.67 62.49 77.38 63.96 78.54 65.15L77.94 65.46C76.74 64.24 75.95 62.66 75.95 60.7ZM81.9 58.16V58.87H86.92V58.16H81.9ZM81.9 56.96V57.65H86.92V56.96H81.9ZM81.17 56.42H87.66V59.4H81.17V56.42ZM79.98 59.96H88.79V60.58H79.98V59.96ZM84.42 61.21H87.98V61.82H84.42V61.21ZM81.28 61.27H83.75V61.83H81.28V61.27ZM81.28 62.53H83.75V63.09H81.28V62.53ZM85.47 61.77C86.05 63.2 87.33 64.29 89.03 64.71C88.87 64.85 88.67 65.12 88.57 65.3C86.81 64.78 85.52 63.59 84.86 61.95L85.47 61.77ZM87.75 61.21H87.89L88.02 61.18L88.48 61.37C87.82 63.4 86.21 64.65 84.47 65.25C84.39 65.07 84.2 64.8 84.06 64.66C85.66 64.18 87.2 63.01 87.75 61.33V61.21ZM79.89 64.06C80.87 63.98 82.32 63.82 83.73 63.66V64.28C82.38 64.44 80.99 64.61 79.96 64.73L79.89 64.06ZM83.35 60.16H84.07V65.3H83.35V60.16ZM80.84 60.17H81.54V64.24H80.84V60.17ZM90.42 58.98H99.21V59.74H90.42V58.98ZM95.29 59.28C95.94 61.7 97.3 63.72 99.38 64.58C99.19 64.75 98.94 65.07 98.81 65.28C96.65 64.26 95.29 62.15 94.54 59.46L95.29 59.28ZM94.41 56.11H95.22C95.18 58.73 95.16 63.29 90.79 65.29C90.67 65.09 90.43 64.82 90.22 64.67C94.47 62.82 94.39 58.51 94.41 56.11ZM103.51 57.2273V64.5H102.629V58.1506H102.586L100.811 59.3295V58.4347L102.629 57.2273H103.51ZM108.373 64.5994C107.838 64.5994 107.383 64.4538 107.006 64.1626C106.63 63.8691 106.342 63.4441 106.143 62.8878C105.944 62.3291 105.845 61.6544 105.845 60.8636C105.845 60.0777 105.944 59.4065 106.143 58.8501C106.345 58.2914 106.633 57.8653 107.01 57.5717C107.389 57.2758 107.843 57.1278 108.373 57.1278C108.904 57.1278 109.357 57.2758 109.734 57.5717C110.112 57.8653 110.401 58.2914 110.6 58.8501C110.801 59.4065 110.902 60.0777 110.902 60.8636C110.902 61.6544 110.802 62.3291 110.604 62.8878C110.405 63.4441 110.117 63.8691 109.741 64.1626C109.364 64.4538 108.908 64.5994 108.373 64.5994ZM108.373 63.8182C108.904 63.8182 109.316 63.5625 109.609 63.0511C109.903 62.5398 110.05 61.8106 110.05 60.8636C110.05 60.2339 109.982 59.6977 109.847 59.255C109.715 58.8123 109.523 58.4749 109.272 58.2429C109.023 58.0109 108.724 57.8949 108.373 57.8949C107.848 57.8949 107.437 58.1541 107.141 58.6726C106.845 59.1887 106.697 59.919 106.697 60.8636C106.697 61.4934 106.764 62.0284 106.896 62.4688C107.029 62.9091 107.219 63.2441 107.468 63.4737C107.719 63.7034 108.021 63.8182 108.373 63.8182ZM115.023 64.5994C114.488 64.5994 114.033 64.4538 113.656 64.1626C113.28 63.8691 112.992 63.4441 112.793 62.8878C112.594 62.3291 112.495 61.6544 112.495 60.8636C112.495 60.0777 112.594 59.4065 112.793 58.8501C112.995 58.2914 113.283 57.8653 113.66 57.5717C114.039 57.2758 114.493 57.1278 115.023 57.1278C115.554 57.1278 116.007 57.2758 116.384 57.5717C116.762 57.8653 117.051 58.2914 117.25 58.8501C117.451 59.4065 117.552 60.0777 117.552 60.8636C117.552 61.6544 117.452 62.3291 117.254 62.8878C117.055 63.4441 116.767 63.8691 116.391 64.1626C116.014 64.4538 115.558 64.5994 115.023 64.5994ZM115.023 63.8182C115.554 63.8182 115.966 63.5625 116.259 63.0511C116.553 62.5398 116.7 61.8106 116.7 60.8636C116.7 60.2339 116.632 59.6977 116.497 59.255C116.365 58.8123 116.173 58.4749 115.922 58.2429C115.673 58.0109 115.374 57.8949 115.023 57.8949C114.498 57.8949 114.087 58.1541 113.791 58.6726C113.495 59.1887 113.347 59.919 113.347 60.8636C113.347 61.4934 113.414 62.0284 113.546 62.4688C113.679 62.9091 113.869 63.2441 114.118 63.4737C114.369 63.7034 114.671 63.8182 115.023 63.8182ZM121.673 64.5994C121.138 64.5994 120.683 64.4538 120.306 64.1626C119.93 63.8691 119.642 63.4441 119.443 62.8878C119.244 62.3291 119.145 61.6544 119.145 60.8636C119.145 60.0777 119.244 59.4065 119.443 58.8501C119.645 58.2914 119.933 57.8653 120.31 57.5717C120.689 57.2758 121.143 57.1278 121.673 57.1278C122.204 57.1278 122.657 57.2758 123.034 57.5717C123.412 57.8653 123.701 58.2914 123.9 58.8501C124.101 59.4065 124.202 60.0777 124.202 60.8636C124.202 61.6544 124.102 62.3291 123.904 62.8878C123.705 63.4441 123.417 63.8691 123.041 64.1626C122.664 64.4538 122.208 64.5994 121.673 64.5994ZM121.673 63.8182C122.204 63.8182 122.616 63.5625 122.909 63.0511C123.203 62.5398 123.35 61.8106 123.35 60.8636C123.35 60.2339 123.282 59.6977 123.147 59.255C123.015 58.8123 122.823 58.4749 122.572 58.2429C122.323 58.0109 122.024 57.8949 121.673 57.8949C121.148 57.8949 120.737 58.1541 120.441 58.6726C120.145 59.1887 119.997 59.919 119.997 60.8636C119.997 61.4934 120.064 62.0284 120.196 62.4688C120.329 62.9091 120.519 63.2441 120.768 63.4737C121.019 63.7034 121.321 63.8182 121.673 63.8182ZM132.438 58.18L133.228 58.41C131.968 62.08 129.698 64.14 126.058 65.32C125.978 65.13 125.738 64.77 125.578 64.59C129.148 63.57 131.318 61.61 132.438 58.18ZM127.898 58.23C128.978 61.43 131.228 63.73 134.838 64.57C134.658 64.75 134.418 65.09 134.298 65.31C130.588 64.34 128.388 61.96 127.158 58.46L127.898 58.23ZM125.698 57.8H134.738V58.54H125.698V57.8ZM129.798 56.1H130.568V58.25H129.798V56.1ZM137.928 59H142.728V59.69H137.928V59ZM136.298 61.51H144.918V62.22H136.298V61.51ZM140.208 60.76H140.998V64.37C140.998 64.82 140.888 65.04 140.528 65.16C140.178 65.28 139.648 65.29 138.798 65.29C138.748 65.07 138.598 64.75 138.468 64.54C139.148 64.56 139.798 64.56 139.978 64.55C140.158 64.54 140.208 64.5 140.208 64.36V60.76ZM142.498 59H142.698L142.868 58.96L143.358 59.33C142.698 60.06 141.708 60.84 140.788 61.31C140.698 61.17 140.498 60.98 140.378 60.88C141.158 60.46 142.048 59.71 142.498 59.15V59ZM140.188 56.09H140.978V57.7H140.188V56.09ZM136.398 57.19H144.788V59.54H144.018V57.9H137.138V59.54H136.398V57.19ZM149.038 60.7C149.038 62.66 148.248 64.24 147.048 65.46L146.448 65.15C147.608 63.96 148.318 62.49 148.318 60.7C148.318 58.92 147.608 57.45 146.448 56.26L147.048 55.95C148.248 57.17 149.038 58.75 149.038 60.7Z" fill="#A29C9C"/>
<path d="M78 305.4V298.2C78 297.54 77.415 297 76.7 297H68.9C68.185 297 67.6 297.54 67.6 298.2V305.4C67.6 306.06 68.185 306.6 68.9 306.6H76.7C77.415 306.6 78 306.06 78 305.4ZM70.85 303L72.1695 304.626L74.1 302.4L76.7 305.4H68.9L70.85 303ZM65 299.4V307.8C65 308.46 65.585 309 66.3 309H75.4V307.8H66.3V299.4H65Z" fill="#00ABB6"/>
<path d="M88.702 299.435H96.316V301.406H95.614V300.065H89.368V301.406H88.702V299.435ZM90.79 301.199H94.993V301.793H90.79V301.199ZM90.484 302.882H94.381V303.485H90.484V302.882ZM88.486 304.547H96.532V305.177H88.486V304.547ZM94.21 302.882H94.885C94.885 302.882 94.867 303.089 94.858 303.188C94.642 305.618 94.426 306.572 94.066 306.932C93.85 307.139 93.643 307.202 93.301 307.22C93.004 307.238 92.419 307.229 91.834 307.193C91.816 307.004 91.726 306.734 91.609 306.554C92.23 306.617 92.851 306.617 93.076 306.617C93.283 306.617 93.391 306.608 93.499 306.518C93.805 306.257 94.012 305.294 94.201 302.99L94.21 302.882ZM90.691 300.128L91.366 300.2C91.15 301.361 90.817 302.882 90.574 303.782L89.89 303.719C90.151 302.801 90.493 301.262 90.691 300.128ZM102.328 306.131L102.769 305.699C103.777 306.041 104.875 306.473 105.55 306.788L104.983 307.238C104.362 306.923 103.345 306.491 102.328 306.131ZM97.504 304.961H105.496V305.537H97.504V304.961ZM97.765 299.696H105.271V300.281H97.765V299.696ZM101.122 298.94H101.833V301.145H101.122V298.94ZM99.511 302.351V302.954H103.624V302.351H99.511ZM99.511 303.377V303.989H103.624V303.377H99.511ZM99.511 301.325V301.91H103.624V301.325H99.511ZM98.863 300.875H104.308V304.439H98.863V300.875ZM100.105 305.708L100.708 306.095C99.988 306.545 98.863 306.995 97.963 307.238C97.864 307.103 97.648 306.896 97.504 306.77C98.413 306.527 99.538 306.095 100.105 305.708ZM110.5 302.126C111.022 302.126 111.454 302.558 111.454 303.08C111.454 303.611 111.022 304.043 110.5 304.043C109.969 304.043 109.537 303.611 109.537 303.08C109.537 302.558 109.969 302.126 110.5 302.126ZM115.621 304.826H119.725V305.339H115.621V304.826ZM115.378 300.488H119.869V301.01H115.378V300.488ZM117.331 299.669H117.952V306.293H117.331V299.669ZM115.369 306.311C116.467 306.212 118.15 306.05 119.761 305.879L119.77 306.41C118.24 306.59 116.611 306.779 115.468 306.896L115.369 306.311ZM116.206 303.143V303.809H119.122V303.143H116.206ZM116.206 302.045V302.693H119.122V302.045H116.206ZM115.639 301.577H119.698V304.277H115.639V301.577ZM119.374 299.03L119.716 299.552C118.654 299.786 116.98 299.939 115.63 299.984C115.603 299.84 115.54 299.615 115.468 299.48C116.809 299.408 118.447 299.246 119.374 299.03ZM119.806 301.046H123.055V301.676H119.806V301.046ZM122.794 301.046H123.442C123.442 301.046 123.433 301.298 123.433 301.388C123.334 305.186 123.244 306.446 122.947 306.833C122.785 307.067 122.605 307.148 122.335 307.175C122.083 307.202 121.651 307.202 121.237 307.175C121.219 306.986 121.147 306.707 121.039 306.527C121.48 306.563 121.876 306.572 122.056 306.572C122.2 306.572 122.29 306.545 122.371 306.428C122.596 306.149 122.695 304.853 122.794 301.208V301.046ZM120.895 299.057H121.543C121.534 302.639 121.525 305.663 119.374 307.274C119.266 307.112 119.032 306.896 118.87 306.788C120.931 305.312 120.886 302.459 120.895 299.057ZM125.161 306.014H131.83V306.662H125.161V306.014ZM124.513 299.534H132.478V300.173H124.513V299.534ZM124.792 301.073H125.449V307.22H124.792V301.073ZM131.56 301.073H132.226V307.193H131.56V301.073ZM128.122 299.732H128.806V301.469H128.122V299.732ZM128.167 301.415H128.761V304.979H128.167V301.415ZM126.88 303.467V304.646H130.057V303.467H126.88ZM126.88 301.748V302.918H130.057V301.748H126.88ZM126.304 301.172H130.651V305.222H126.304V301.172ZM137.14 299.39C137.059 299.741 136.96 300.236 136.726 300.839C136.501 301.388 136.168 301.991 135.808 302.459C136.159 302.252 136.672 302.126 137.068 302.126C137.761 302.126 138.301 302.54 138.301 303.269C138.301 303.737 138.319 304.772 138.328 305.33H137.635C137.671 304.853 137.68 303.926 137.671 303.458C137.662 302.936 137.302 302.693 136.834 302.693C136.258 302.693 135.691 302.981 135.277 303.35C135.016 303.602 134.764 303.926 134.467 304.295L133.846 303.836C135.142 302.594 135.745 301.55 136.051 300.785C136.249 300.29 136.375 299.75 136.402 299.327L137.14 299.39ZM134.053 300.362C134.539 300.425 135.16 300.452 135.574 300.452C136.789 300.452 138.346 300.38 139.615 300.155V300.821C138.355 301.01 136.681 301.091 135.538 301.091C135.151 301.091 134.557 301.073 134.053 301.037V300.362ZM140.929 302.531C140.704 302.603 140.38 302.729 140.137 302.819C139.498 303.071 138.643 303.413 137.77 303.863C136.879 304.331 136.249 304.817 136.249 305.438C136.249 306.14 136.942 306.248 137.869 306.248C138.571 306.248 139.543 306.167 140.335 306.023L140.308 306.752C139.624 306.833 138.625 306.905 137.842 306.905C136.564 306.905 135.529 306.626 135.529 305.537C135.529 304.439 136.645 303.764 137.716 303.215C138.571 302.774 139.3 302.495 139.894 302.216C140.164 302.09 140.389 301.991 140.641 301.865L140.929 302.531ZM145.591 303.917L146.14 304.106C145.924 304.871 145.573 305.744 144.961 306.284L144.466 305.888C145.024 305.429 145.393 304.628 145.591 303.917ZM147.742 304.259L148.255 304.079C148.561 304.682 148.813 305.474 148.903 305.996L148.354 306.203C148.273 305.672 148.021 304.871 147.742 304.259ZM148.858 304.061L149.389 303.791C149.947 304.466 150.496 305.384 150.73 306.005L150.154 306.311C149.938 305.681 149.389 304.736 148.858 304.061ZM148.552 301.46C148.984 302.315 149.848 303.116 150.748 303.494C150.595 303.62 150.388 303.872 150.289 304.043C149.344 303.575 148.453 302.648 147.967 301.658L148.552 301.46ZM147.013 299.885L147.697 299.993C147.22 302 146.23 303.332 144.673 304.16C144.583 304.016 144.349 303.746 144.214 303.629C145.717 302.918 146.626 301.694 147.013 299.885ZM149.551 299.03L150.082 299.543C148.777 299.966 146.707 300.173 144.979 300.254C144.952 300.092 144.871 299.84 144.79 299.678C146.482 299.588 148.489 299.372 149.551 299.03ZM144.475 301.181H150.514V301.802H144.475V301.181ZM146.716 302.981H147.346V306.482C147.346 306.824 147.283 307.013 147.031 307.112C146.797 307.211 146.401 307.211 145.789 307.211C145.771 307.04 145.681 306.797 145.6 306.608C146.05 306.626 146.446 306.626 146.563 306.617C146.68 306.608 146.716 306.581 146.716 306.473V302.981ZM142.765 299.507L143.152 299.03C143.665 299.264 144.295 299.651 144.619 299.957L144.205 300.497C143.908 300.191 143.287 299.768 142.765 299.507ZM142.333 301.955L142.711 301.46C143.251 301.667 143.908 302.027 144.232 302.315L143.845 302.855C143.521 302.567 142.873 302.18 142.333 301.955ZM142.531 306.725C142.9 306.059 143.413 304.952 143.782 303.98L144.322 304.358C143.98 305.258 143.539 306.311 143.143 307.112L142.531 306.725ZM154.096 300.947H159.586V301.631H154.096V300.947ZM157.759 299.048H158.443V306.302C158.443 306.815 158.299 307.022 157.957 307.121C157.606 307.238 156.994 307.247 156.013 307.238C155.977 307.058 155.851 306.752 155.743 306.563C156.508 306.59 157.255 306.59 157.462 306.581C157.678 306.563 157.759 306.509 157.759 306.302V299.048ZM154.663 302.855L155.248 302.576C155.716 303.278 156.319 304.214 156.607 304.763L155.977 305.105C155.707 304.547 155.122 303.575 154.663 302.855ZM152.665 301.397L153.34 300.713L153.349 300.731V307.202H152.665V301.397ZM153.646 299.003L154.303 299.201C153.7 300.767 152.755 302.315 151.756 303.332C151.675 303.17 151.459 302.828 151.333 302.666C152.26 301.784 153.124 300.407 153.646 299.003ZM166.255 303.08C166.255 301.325 166.966 299.903 168.046 298.805L168.586 299.084C167.542 300.155 166.903 301.478 166.903 303.08C166.903 304.691 167.542 306.014 168.586 307.085L168.046 307.364C166.966 306.266 166.255 304.844 166.255 303.08ZM171.169 306.239H175.876V306.842H171.169V306.239ZM172.366 298.868L173.005 299.093C172.276 300.317 171.133 301.415 170.008 302.108C169.9 301.982 169.648 301.73 169.495 301.622C170.629 300.992 171.727 299.975 172.366 298.868ZM175.651 299.885H175.795L175.912 299.849L176.38 300.164C175.048 302.279 172.114 303.647 169.585 304.241C169.531 304.052 169.378 303.773 169.252 303.629C171.655 303.143 174.517 301.811 175.651 299.993V299.885ZM171.664 300.299C172.87 301.856 175.246 303.107 177.721 303.584C177.559 303.737 177.379 304.016 177.28 304.205C174.796 303.647 172.438 302.333 171.106 300.569L171.664 300.299ZM170.818 303.998H176.155V307.229H175.453V304.619H171.493V307.265H170.818V303.998ZM172.015 299.885H175.822V300.488H171.61L172.015 299.885ZM183.319 306.5V301.829C183.319 301.469 183.337 301.064 183.364 300.623H183.328C183.067 301.037 182.851 301.406 182.617 301.748L180.934 304.025H185.11V304.682H179.989V304.133L183.076 299.894H184.093V306.5H183.319ZM191.797 300.677H195.55V301.316H191.797V300.677ZM191.923 301.037C192.31 303.206 193.237 305.618 195.712 306.635C195.568 306.77 195.343 307.067 195.244 307.256C192.742 306.104 191.824 303.602 191.419 301.442L191.923 301.037ZM194.272 300.893L195.001 301.01C194.497 303.773 193.489 306.059 190.744 307.238C190.654 307.094 190.456 306.833 190.33 306.698C192.949 305.618 193.876 303.467 194.272 300.893ZM192.112 298.931L192.805 299.075C192.418 300.722 191.77 302.225 190.861 303.215C190.78 303.062 190.537 302.747 190.393 302.603C191.23 301.757 191.797 300.398 192.112 298.931ZM187.459 300.875H190.735V301.523H187.459V300.875ZM188.863 298.94H189.511V307.211H188.863V298.94ZM188.827 301.271L189.259 301.424C188.962 302.927 188.296 304.781 187.603 305.726C187.522 305.537 187.351 305.276 187.243 305.123C187.891 304.259 188.548 302.63 188.827 301.271ZM189.439 302.306C189.718 302.612 190.78 303.953 191.005 304.277L190.591 304.826C190.303 304.295 189.439 303.062 189.106 302.63L189.439 302.306ZM201.148 299.363C201.13 299.516 201.112 299.696 201.103 299.966C201.085 300.326 201.085 301.532 201.085 302.288C201.085 303.476 201.22 305.051 201.22 305.654C201.22 306.284 200.806 306.923 199.636 306.923C198.34 306.923 197.629 306.464 197.629 305.591C197.629 304.772 198.412 304.223 199.708 304.223C201.607 304.223 203.092 305.249 203.785 305.816L203.371 306.455C202.561 305.708 201.229 304.808 199.627 304.808C198.763 304.808 198.304 305.141 198.304 305.555C198.304 305.978 198.655 306.284 199.546 306.284C200.068 306.284 200.509 306.131 200.509 305.501C200.509 304.808 200.419 303.08 200.419 302.288C200.419 301.478 200.419 300.533 200.419 299.903C200.419 299.75 200.41 299.48 200.383 299.363H201.148ZM197.71 300.335C198.286 300.443 199.411 300.533 200.005 300.533C201.148 300.533 202.354 300.452 203.524 300.263V300.92C202.507 301.037 201.22 301.154 200.014 301.154C199.393 301.154 198.286 301.073 197.719 301.001L197.71 300.335ZM197.665 302.252C198.304 302.351 199.33 302.414 199.924 302.414C201.229 302.414 202.426 302.324 203.596 302.153V302.828C202.372 302.981 201.274 303.044 199.924 303.044C199.303 303.044 198.313 302.999 197.674 302.927L197.665 302.252ZM205.702 300.578C206.044 300.569 206.332 300.551 206.512 300.533C207.088 300.47 208.789 300.308 210.445 300.164C211.435 300.083 212.272 300.029 212.875 300.011L212.884 300.731C212.362 300.722 211.579 300.74 211.12 300.866C209.833 301.28 209.05 302.657 209.05 303.719C209.05 305.474 210.697 306.041 212.155 306.095L211.894 306.833C210.229 306.77 208.339 305.888 208.339 303.872C208.339 302.477 209.194 301.325 210.013 300.839C209.05 300.938 206.755 301.163 205.783 301.37L205.702 300.578ZM211.579 301.829C211.786 302.126 212.128 302.684 212.326 303.089L211.858 303.296C211.651 302.864 211.399 302.405 211.129 302.027L211.579 301.829ZM212.56 301.451C212.785 301.748 213.136 302.297 213.343 302.693L212.884 302.918C212.668 302.486 212.398 302.036 212.119 301.658L212.56 301.451ZM216.736 303.08C216.736 304.844 216.025 306.266 214.945 307.364L214.405 307.085C215.449 306.014 216.088 304.691 216.088 303.08C216.088 301.478 215.449 300.155 214.405 299.084L214.945 298.805C216.025 299.903 216.736 301.325 216.736 303.08Z" fill="#00ABB6"/>
<g filter="url(#filter1_d_1005_10472)">
<rect x="66" y="328.5" width="164" height="24" rx="12" fill="#00ABB6" shape-rendering="crispEdges"/>
<path d="M142.955 340.085H144.401V347.076H142.955V340.085ZM139.812 341.579H147.496V342.881H139.812V341.579ZM144.676 342.152C145.333 343.455 146.6 344.781 147.842 345.498C147.52 345.773 147.066 346.287 146.827 346.645C145.572 345.749 144.341 344.136 143.6 342.546L144.676 342.152ZM142.764 342.045L143.887 342.439C143.11 344.124 141.784 345.713 140.374 346.609C140.147 346.263 139.693 345.749 139.382 345.474C140.744 344.769 142.071 343.407 142.764 342.045ZM141.963 337.635V339.236H145.476V337.635H141.963ZM140.601 336.38H146.91V340.503H140.601V336.38ZM139.035 335.878L140.374 336.309C139.573 338.34 138.294 340.479 136.968 341.829C136.848 341.495 136.454 340.706 136.215 340.36C137.326 339.284 138.402 337.587 139.035 335.878ZM137.888 339.188L139.238 337.826L139.25 337.838V347.04H137.888V339.188ZM152.109 342.726H159.434V344.052H152.109V342.726ZM153.041 339.714H157.606V341.005H153.041V339.714ZM155.156 341.734H156.602V345.558C156.602 346.275 156.482 346.645 155.968 346.86C155.467 347.064 154.762 347.076 153.805 347.076C153.746 346.657 153.578 346.096 153.399 345.701C154.009 345.725 154.714 345.725 154.905 345.725C155.096 345.713 155.156 345.677 155.156 345.522V341.734ZM157.247 339.714H157.606L157.904 339.631L158.801 340.348C158.072 341.172 157.08 342.116 156.172 342.726C155.992 342.475 155.622 342.08 155.407 341.889C156.088 341.399 156.901 340.527 157.247 339.977V339.714ZM148.607 337.408H159.267V338.782H148.607V337.408ZM152.348 335.842L153.865 336.213C152.981 339.117 151.475 342.033 148.906 343.789C148.751 343.395 148.416 342.738 148.189 342.379C150.364 340.957 151.726 338.268 152.348 335.842ZM149.958 340.838H151.416V347.064H149.958V340.838Z" fill="white"/>
</g>
<rect x="66" y="290.5" width="157" height="24" rx="5" stroke="#FF0000" stroke-width="2"/>
<mask id="path-24-inside-3_1005_10472" fill="white">
<path d="M53 8C53 3.58172 56.5817 0 61 0H234C238.418 0 242 3.58172 242 8V368H53V8Z"/>
</mask>
<path d="M50 8C50 1.92487 54.9249 -3 61 -3H234C240.075 -3 245 1.92487 245 8H239C239 5.23858 236.761 3 234 3H61C58.2386 3 56 5.23858 56 8H50ZM242 368H53H242ZM50 368V8C50 1.92487 54.9249 -3 61 -3V3C58.2386 3 56 5.23858 56 8V368H50ZM234 -3C240.075 -3 245 1.92487 245 8V368H239V8C239 5.23858 236.761 3 234 3V-3Z" fill="#A29C9C" fill-opacity="0.5" mask="url(#path-24-inside-3_1005_10472)"/>
<line x1="240.5" y1="9.5" x2="240.5" y2="270.5" stroke="#D0CDCD" stroke-width="3"/>
<rect x="60" y="32.5" width="175" height="247" rx="5" stroke="#FF0000" stroke-width="2"/>
<rect x="159.5" y="228.5" width="160" height="53" rx="4.5" fill="white" stroke="black" stroke-linejoin="round"/>
<path d="M168.78 242.15H177.24V244.34H176.46V242.85H169.52V244.34H168.78V242.15ZM171.1 244.11H175.77V244.77H171.1V244.11ZM170.76 245.98H175.09V246.65H170.76V245.98ZM168.54 247.83H177.48V248.53H168.54V247.83ZM174.9 245.98H175.65C175.65 245.98 175.63 246.21 175.62 246.32C175.38 249.02 175.14 250.08 174.74 250.48C174.5 250.71 174.27 250.78 173.89 250.8C173.56 250.82 172.91 250.81 172.26 250.77C172.24 250.56 172.14 250.26 172.01 250.06C172.7 250.13 173.39 250.13 173.64 250.13C173.87 250.13 173.99 250.12 174.11 250.02C174.45 249.73 174.68 248.66 174.89 246.1L174.9 245.98ZM170.99 242.92L171.74 243C171.5 244.29 171.13 245.98 170.86 246.98L170.1 246.91C170.39 245.89 170.77 244.18 170.99 242.92ZM184.12 249.59L184.61 249.11C185.73 249.49 186.95 249.97 187.7 250.32L187.07 250.82C186.38 250.47 185.25 249.99 184.12 249.59ZM178.76 248.29H187.64V248.93H178.76V248.29ZM179.05 242.44H187.39V243.09H179.05V242.44ZM182.78 241.6H183.57V244.05H182.78V241.6ZM180.99 245.39V246.06H185.56V245.39H180.99ZM180.99 246.53V247.21H185.56V246.53H180.99ZM180.99 244.25V244.9H185.56V244.25H180.99ZM180.27 243.75H186.32V247.71H180.27V243.75ZM181.65 249.12L182.32 249.55C181.52 250.05 180.27 250.55 179.27 250.82C179.16 250.67 178.92 250.44 178.76 250.3C179.77 250.03 181.02 249.55 181.65 249.12ZM196.53 244.04C196.31 244.17 196.06 244.31 195.76 244.46C195.09 244.81 193.7 245.47 192.72 246.11C191.79 246.72 191.23 247.38 191.23 248.13C191.23 248.96 192.03 249.48 193.61 249.48C194.69 249.48 196.03 249.34 196.81 249.14L196.8 250.04C196.05 250.17 194.89 250.28 193.64 250.28C191.76 250.28 190.4 249.72 190.4 248.22C190.4 247.14 191.13 246.29 192.31 245.51C193.33 244.83 194.73 244.16 195.38 243.79C195.67 243.62 195.89 243.49 196.1 243.32L196.53 244.04ZM191.47 242.22C191.93 243.5 192.55 244.75 193.01 245.56L192.33 245.97C191.82 245.15 191.22 243.8 190.68 242.56L191.47 242.22ZM199.29 248.14H203.85V248.71H199.29V248.14ZM199.02 243.32H204.01V243.9H199.02V243.32ZM201.19 242.41H201.88V249.77H201.19V242.41ZM199.01 249.79C200.23 249.68 202.1 249.5 203.89 249.31L203.9 249.9C202.2 250.1 200.39 250.31 199.12 250.44L199.01 249.79ZM199.94 246.27V247.01H203.18V246.27H199.94ZM199.94 245.05V245.77H203.18V245.05H199.94ZM199.31 244.53H203.82V247.53H199.31V244.53ZM203.46 241.7L203.84 242.28C202.66 242.54 200.8 242.71 199.3 242.76C199.27 242.6 199.2 242.35 199.12 242.2C200.61 242.12 202.43 241.94 203.46 241.7ZM203.94 243.94H207.55V244.64H203.94V243.94ZM207.26 243.94H207.98C207.98 243.94 207.97 244.22 207.97 244.32C207.86 248.54 207.76 249.94 207.43 250.37C207.25 250.63 207.05 250.72 206.75 250.75C206.47 250.78 205.99 250.78 205.53 250.75C205.51 250.54 205.43 250.23 205.31 250.03C205.8 250.07 206.24 250.08 206.44 250.08C206.6 250.08 206.7 250.05 206.79 249.92C207.04 249.61 207.15 248.17 207.26 244.12V243.94ZM205.15 241.73H205.87C205.86 245.71 205.85 249.07 203.46 250.86C203.34 250.68 203.08 250.44 202.9 250.32C205.19 248.68 205.14 245.51 205.15 241.73ZM210.09 249.46H217.5V250.18H210.09V249.46ZM209.37 242.26H218.22V242.97H209.37V242.26ZM209.68 243.97H210.41V250.8H209.68V243.97ZM217.2 243.97H217.94V250.77H217.2V243.97ZM213.38 242.48H214.14V244.41H213.38V242.48ZM213.43 244.35H214.09V248.31H213.43V244.35ZM212 246.63V247.94H215.53V246.63H212ZM212 244.72V246.02H215.53V244.72H212ZM211.36 244.08H216.19V248.58H211.36V244.08ZM223.6 242.1C223.51 242.49 223.4 243.04 223.14 243.71C222.89 244.32 222.52 244.99 222.12 245.51C222.51 245.28 223.08 245.14 223.52 245.14C224.29 245.14 224.89 245.6 224.89 246.41C224.89 246.93 224.91 248.08 224.92 248.7H224.15C224.19 248.17 224.2 247.14 224.19 246.62C224.18 246.04 223.78 245.77 223.26 245.77C222.62 245.77 221.99 246.09 221.53 246.5C221.24 246.78 220.96 247.14 220.63 247.55L219.94 247.04C221.38 245.66 222.05 244.5 222.39 243.65C222.61 243.1 222.75 242.5 222.78 242.03L223.6 242.1ZM220.17 243.18C220.71 243.25 221.4 243.28 221.86 243.28C223.21 243.28 224.94 243.2 226.35 242.95V243.69C224.95 243.9 223.09 243.99 221.82 243.99C221.39 243.99 220.73 243.97 220.17 243.93V243.18ZM227.81 245.59C227.56 245.67 227.2 245.81 226.93 245.91C226.22 246.19 225.27 246.57 224.3 247.07C223.31 247.59 222.61 248.13 222.61 248.82C222.61 249.6 223.38 249.72 224.41 249.72C225.19 249.72 226.27 249.63 227.15 249.47L227.12 250.28C226.36 250.37 225.25 250.45 224.38 250.45C222.96 250.45 221.81 250.14 221.81 248.93C221.81 247.71 223.05 246.96 224.24 246.35C225.19 245.86 226 245.55 226.66 245.24C226.96 245.1 227.21 244.99 227.49 244.85L227.81 245.59ZM231.61 249.71H236.84V250.38H231.61V249.71ZM232.94 241.52L233.65 241.77C232.84 243.13 231.57 244.35 230.32 245.12C230.2 244.98 229.92 244.7 229.75 244.58C231.01 243.88 232.23 242.75 232.94 241.52ZM236.59 242.65H236.75L236.88 242.61L237.4 242.96C235.92 245.31 232.66 246.83 229.85 247.49C229.79 247.28 229.62 246.97 229.48 246.81C232.15 246.27 235.33 244.79 236.59 242.77V242.65ZM232.16 243.11C233.5 244.84 236.14 246.23 238.89 246.76C238.71 246.93 238.51 247.24 238.4 247.45C235.64 246.83 233.02 245.37 231.54 243.41L232.16 243.11ZM231.22 247.22H237.15V250.81H236.37V247.91H231.97V250.85H231.22V247.22ZM232.55 242.65H236.78V243.32H232.1L232.55 242.65ZM242.79 250V245.01C242.79 244.64 242.82 244.05 242.85 243.67H242.8C242.62 244.03 242.42 244.4 242.22 244.76L240.55 247.26H244.63V247.98H239.59V247.38L242.64 242.67H243.65V250H242.79ZM250.477 243.53H254.647V244.24H250.477V243.53ZM250.617 243.93C251.047 246.34 252.077 249.02 254.827 250.15C254.667 250.3 254.417 250.63 254.307 250.84C251.527 249.56 250.507 246.78 250.057 244.38L250.617 243.93ZM253.227 243.77L254.037 243.9C253.477 246.97 252.357 249.51 249.307 250.82C249.207 250.66 248.987 250.37 248.847 250.22C251.757 249.02 252.787 246.63 253.227 243.77ZM250.827 241.59L251.597 241.75C251.167 243.58 250.447 245.25 249.437 246.35C249.347 246.18 249.077 245.83 248.917 245.67C249.847 244.73 250.477 243.22 250.827 241.59ZM245.657 243.75H249.297V244.47H245.657V243.75ZM247.217 241.6H247.937V250.79H247.217V241.6ZM247.177 244.19L247.657 244.36C247.327 246.03 246.587 248.09 245.817 249.14C245.727 248.93 245.537 248.64 245.417 248.47C246.137 247.51 246.867 245.7 247.177 244.19ZM247.857 245.34C248.167 245.68 249.347 247.17 249.597 247.53L249.137 248.14C248.817 247.55 247.857 246.18 247.487 245.7L247.857 245.34ZM261.067 242.07C261.047 242.24 261.027 242.44 261.017 242.74C260.997 243.14 260.997 244.48 260.997 245.32C260.997 246.64 261.147 248.39 261.147 249.06C261.147 249.76 260.687 250.47 259.387 250.47C257.947 250.47 257.157 249.96 257.157 248.99C257.157 248.08 258.027 247.47 259.467 247.47C261.577 247.47 263.227 248.61 263.997 249.24L263.537 249.95C262.637 249.12 261.157 248.12 259.377 248.12C258.417 248.12 257.907 248.49 257.907 248.95C257.907 249.42 258.297 249.76 259.287 249.76C259.867 249.76 260.357 249.59 260.357 248.89C260.357 248.12 260.257 246.2 260.257 245.32C260.257 244.42 260.257 243.37 260.257 242.67C260.257 242.5 260.247 242.2 260.217 242.07H261.067ZM257.247 243.15C257.887 243.27 259.137 243.37 259.797 243.37C261.067 243.37 262.407 243.28 263.707 243.07V243.8C262.577 243.93 261.147 244.06 259.807 244.06C259.117 244.06 257.887 243.97 257.257 243.89L257.247 243.15ZM257.197 245.28C257.907 245.39 259.047 245.46 259.707 245.46C261.157 245.46 262.487 245.36 263.787 245.17V245.92C262.427 246.09 261.207 246.16 259.707 246.16C259.017 246.16 257.917 246.11 257.207 246.03L257.197 245.28ZM266.327 243.42C266.707 243.41 267.027 243.39 267.227 243.37C267.867 243.3 269.757 243.12 271.597 242.96C272.697 242.87 273.627 242.81 274.297 242.79L274.307 243.59C273.727 243.58 272.857 243.6 272.347 243.74C270.917 244.2 270.047 245.73 270.047 246.91C270.047 248.86 271.877 249.49 273.497 249.55L273.207 250.37C271.357 250.3 269.257 249.32 269.257 247.08C269.257 245.53 270.207 244.25 271.117 243.71C270.047 243.82 267.497 244.07 266.417 244.3L266.327 243.42ZM272.857 244.81C273.087 245.14 273.467 245.76 273.687 246.21L273.167 246.44C272.937 245.96 272.657 245.45 272.357 245.03L272.857 244.81ZM273.947 244.39C274.197 244.72 274.587 245.33 274.817 245.77L274.307 246.02C274.067 245.54 273.767 245.04 273.457 244.62L273.947 244.39ZM277.507 242.28H284.057V250.65H283.267V243.04H278.277V250.69H277.507V242.28ZM278.017 245.75H283.597V246.49H278.017V245.75ZM278.007 249.29H283.617V250.04H278.007V249.29ZM291.207 245.43H294.657V246.14H291.207V245.43ZM290.877 245.43H291.627V249.51C291.627 249.9 291.737 249.98 292.287 249.98C292.547 249.98 293.847 249.98 294.187 249.98C294.727 249.98 294.807 249.72 294.867 248.33C295.047 248.46 295.367 248.59 295.577 248.64C295.467 250.25 295.237 250.7 294.237 250.7C293.987 250.7 292.457 250.7 292.227 250.7C291.187 250.7 290.877 250.46 290.877 249.5V245.43ZM290.767 242.17H295.047V246.7H294.287V242.88H290.767V242.17ZM286.797 244.63H289.917V245.23H286.797V244.63ZM286.857 241.96H289.957V242.56H286.857V241.96ZM286.797 245.97H289.917V246.57H286.797V245.97ZM286.327 243.27H290.307V243.89H286.327V243.27ZM287.147 247.32H289.887V250.24H287.147V249.61H289.217V247.94H287.147V247.32ZM286.787 247.32H287.457V250.7H286.787V247.32ZM300.697 243.25C301.787 243.44 303.817 243.4 304.807 243.25V244.06C303.737 244.18 301.797 244.18 300.707 244.06L300.697 243.25ZM301.087 247.33C300.997 247.69 300.947 247.97 300.947 248.24C300.947 248.7 301.267 249.15 302.637 249.15C303.527 249.15 304.307 249.07 305.107 248.88L305.127 249.72C304.507 249.85 303.667 249.93 302.627 249.93C300.957 249.93 300.207 249.37 300.207 248.43C300.207 248.1 300.257 247.74 300.367 247.26L301.087 247.33ZM298.797 242.48C298.737 242.65 298.657 242.97 298.617 243.15C298.427 244.08 298.117 245.86 298.117 246.99C298.117 247.47 298.147 247.89 298.207 248.38C298.377 247.93 298.607 247.33 298.777 246.92L299.197 247.25C298.947 247.96 298.577 249.01 298.487 249.49C298.457 249.63 298.437 249.82 298.437 249.94C298.447 250.04 298.457 250.18 298.467 250.29L297.757 250.34C297.557 249.63 297.387 248.48 297.387 247.12C297.387 245.65 297.717 243.94 297.837 243.11C297.867 242.88 297.897 242.63 297.907 242.41L298.797 242.48ZM171.99 264.13L172.6 264.34C172.36 265.19 171.97 266.16 171.29 266.76L170.74 266.32C171.36 265.81 171.77 264.92 171.99 264.13ZM174.38 264.51L174.95 264.31C175.29 264.98 175.57 265.86 175.67 266.44L175.06 266.67C174.97 266.08 174.69 265.19 174.38 264.51ZM175.62 264.29L176.21 263.99C176.83 264.74 177.44 265.76 177.7 266.45L177.06 266.79C176.82 266.09 176.21 265.04 175.62 264.29ZM175.28 261.4C175.76 262.35 176.72 263.24 177.72 263.66C177.55 263.8 177.32 264.08 177.21 264.27C176.16 263.75 175.17 262.72 174.63 261.62L175.28 261.4ZM173.57 259.65L174.33 259.77C173.8 262 172.7 263.48 170.97 264.4C170.87 264.24 170.61 263.94 170.46 263.81C172.13 263.02 173.14 261.66 173.57 259.65ZM176.39 258.7L176.98 259.27C175.53 259.74 173.23 259.97 171.31 260.06C171.28 259.88 171.19 259.6 171.1 259.42C172.98 259.32 175.21 259.08 176.39 258.7ZM170.75 261.09H177.46V261.78H170.75V261.09ZM173.24 263.09H173.94V266.98C173.94 267.36 173.87 267.57 173.59 267.68C173.33 267.79 172.89 267.79 172.21 267.79C172.19 267.6 172.09 267.33 172 267.12C172.5 267.14 172.94 267.14 173.07 267.13C173.2 267.12 173.24 267.09 173.24 266.97V263.09ZM168.85 259.23L169.28 258.7C169.85 258.96 170.55 259.39 170.91 259.73L170.45 260.33C170.12 259.99 169.43 259.52 168.85 259.23ZM168.37 261.95L168.79 261.4C169.39 261.63 170.12 262.03 170.48 262.35L170.05 262.95C169.69 262.63 168.97 262.2 168.37 261.95ZM168.59 267.25C169 266.51 169.57 265.28 169.98 264.2L170.58 264.62C170.2 265.62 169.71 266.79 169.27 267.68L168.59 267.25ZM181.64 260.83H187.74V261.59H181.64V260.83ZM185.71 258.72H186.47V266.78C186.47 267.35 186.31 267.58 185.93 267.69C185.54 267.82 184.86 267.83 183.77 267.82C183.73 267.62 183.59 267.28 183.47 267.07C184.32 267.1 185.15 267.1 185.38 267.09C185.62 267.07 185.71 267.01 185.71 266.78V258.72ZM182.27 262.95L182.92 262.64C183.44 263.42 184.11 264.46 184.43 265.07L183.73 265.45C183.43 264.83 182.78 263.75 182.27 262.95ZM180.05 261.33L180.8 260.57L180.81 260.59V267.78H180.05V261.33ZM181.14 258.67L181.87 258.89C181.2 260.63 180.15 262.35 179.04 263.48C178.95 263.3 178.71 262.92 178.57 262.74C179.6 261.76 180.56 260.23 181.14 258.67ZM194.67 259.08C194.65 259.2 194.62 259.59 194.62 259.71C194.59 260.36 194.61 262.29 194.62 263.09L193.86 262.7C193.86 262.26 193.85 260.27 193.82 259.72C193.8 259.45 193.77 259.17 193.75 259.08H194.67ZM189.35 260.48C190.71 260.46 193.21 260.37 194.75 260.37C195.97 260.37 197.21 260.37 197.68 260.38L197.67 261.12C197.11 261.09 196.21 261.07 194.74 261.07C193.02 261.07 190.88 261.14 189.37 261.25L189.35 260.48ZM194.6 263.38C194.6 264.72 193.98 265.39 193.07 265.39C192.23 265.39 191.42 264.8 191.42 263.71C191.42 262.72 192.24 261.98 193.19 261.98C194.35 261.98 194.94 262.84 194.94 263.99C194.94 265.35 194.28 266.85 191.96 267.54L191.29 266.89C193.11 266.46 194.17 265.57 194.17 263.92C194.17 263.02 193.73 262.64 193.19 262.64C192.66 262.64 192.17 263.05 192.17 263.7C192.17 264.33 192.64 264.69 193.19 264.69C193.81 264.69 194.21 264.17 194.05 263.1L194.6 263.38ZM200.98 259.64C201.2 259.66 201.48 259.67 201.68 259.67C202.21 259.67 204.58 259.6 205.11 259.55C205.41 259.52 205.55 259.5 205.66 259.46L206.12 260.05C205.94 260.17 205.74 260.3 205.55 260.45C205.06 260.83 203.7 262 202.92 262.64C203.38 262.49 203.86 262.44 204.31 262.44C205.97 262.44 207.16 263.43 207.16 264.78C207.16 266.39 205.83 267.44 203.71 267.44C202.35 267.44 201.52 266.85 201.52 266.01C201.52 265.33 202.14 264.71 203.06 264.71C204.39 264.71 205.06 265.65 205.13 266.66L204.41 266.78C204.35 265.93 203.86 265.32 203.06 265.32C202.6 265.32 202.25 265.6 202.25 265.95C202.25 266.44 202.8 266.73 203.59 266.73C205.29 266.73 206.36 266.03 206.36 264.78C206.36 263.79 205.42 263.06 204.11 263.06C202.45 263.06 201.55 263.76 200.29 265.05L199.71 264.47C200.54 263.79 201.83 262.71 202.4 262.22C202.96 261.76 204.22 260.71 204.72 260.26C204.19 260.29 202.19 260.37 201.67 260.4C201.44 260.42 201.22 260.43 201 260.46L200.98 259.64ZM211.14 259.99C211.86 260.07 212.78 260.11 213.79 260.11C214.75 260.11 215.76 260.05 216.48 259.97V260.79C215.8 260.84 214.71 260.91 213.79 260.91C212.79 260.91 211.93 260.87 211.14 260.8V259.99ZM211.54 264.02C211.42 264.41 211.34 264.78 211.34 265.15C211.34 265.92 212.12 266.44 213.72 266.44C215.09 266.44 216.38 266.29 217.14 266.05L217.15 266.91C216.43 267.1 215.16 267.25 213.74 267.25C211.71 267.25 210.53 266.59 210.53 265.33C210.53 264.81 210.64 264.34 210.73 263.94L211.54 264.02ZM227.13 261.04C226.91 261.17 226.66 261.31 226.36 261.46C225.69 261.81 224.3 262.47 223.32 263.11C222.39 263.72 221.83 264.38 221.83 265.13C221.83 265.96 222.63 266.48 224.21 266.48C225.29 266.48 226.63 266.34 227.41 266.14L227.4 267.04C226.65 267.17 225.49 267.28 224.24 267.28C222.36 267.28 221 266.72 221 265.22C221 264.14 221.73 263.29 222.91 262.51C223.93 261.83 225.33 261.16 225.98 260.79C226.27 260.62 226.49 260.49 226.7 260.32L227.13 261.04ZM222.07 259.22C222.53 260.5 223.15 261.75 223.61 262.56L222.93 262.97C222.42 262.15 221.82 260.8 221.28 259.56L222.07 259.22ZM233.44 259.24C233.4 259.42 233.36 259.64 233.32 259.83C233.25 260.19 233.12 261.01 232.98 261.63C232.64 263.04 231.93 265.53 230.8 267.35L229.98 267.03C231.12 265.5 231.92 262.83 232.19 261.61C232.38 260.81 232.51 259.91 232.51 259.14L233.44 259.24ZM236.88 260.39C237.5 261.2 238.37 263.02 238.71 263.94L237.93 264.31C237.64 263.29 236.85 261.55 236.15 260.72L236.88 260.39ZM229.84 261.43C230.15 261.45 230.41 261.44 230.73 261.43C231.48 261.41 233.51 261.19 234.19 261.19C235.08 261.19 235.81 261.53 235.81 262.88C235.81 264.07 235.65 265.66 235.23 266.49C234.92 267.16 234.42 267.33 233.77 267.33C233.39 267.33 232.91 267.26 232.6 267.18L232.46 266.35C232.88 266.48 233.41 266.55 233.69 266.55C234.06 266.55 234.36 266.47 234.56 266.04C234.88 265.36 235.04 264.06 235.04 262.98C235.04 262.06 234.62 261.89 233.98 261.89C233.31 261.89 231.43 262.12 230.82 262.18C230.59 262.21 230.18 262.26 229.92 262.3L229.84 261.43ZM236.99 258.94C237.24 259.3 237.6 259.91 237.81 260.32L237.27 260.56C237.07 260.15 236.73 259.55 236.45 259.17L236.99 258.94ZM238.09 258.54C238.36 258.91 238.74 259.54 238.94 259.91L238.39 260.15C238.18 259.71 237.85 259.14 237.56 258.77L238.09 258.54ZM240.18 260.42C240.56 260.41 240.88 260.39 241.08 260.37C241.72 260.3 243.61 260.12 245.45 259.96C246.55 259.87 247.48 259.81 248.15 259.79L248.16 260.59C247.58 260.58 246.71 260.6 246.2 260.74C244.77 261.2 243.9 262.73 243.9 263.91C243.9 265.86 245.73 266.49 247.35 266.55L247.06 267.37C245.21 267.3 243.11 266.32 243.11 264.08C243.11 262.53 244.06 261.25 244.97 260.71C243.9 260.82 241.35 261.07 240.27 261.3L240.18 260.42ZM246.71 261.81C246.94 262.14 247.32 262.76 247.54 263.21L247.02 263.44C246.79 262.96 246.51 262.45 246.21 262.03L246.71 261.81ZM247.8 261.39C248.05 261.72 248.44 262.33 248.67 262.77L248.16 263.02C247.92 262.54 247.62 262.04 247.31 261.62L247.8 261.39ZM251.39 260.15C252.78 260.32 254.09 260.34 255.11 260.24C255.93 260.17 256.75 260 257.47 259.76L257.58 260.49C256.93 260.68 256.08 260.85 255.28 260.92C254.27 261.02 252.87 261.02 251.44 260.88L251.39 260.15ZM251.19 262.2C252.9 262.38 254.6 262.35 255.77 262.21C256.72 262.11 257.53 261.91 258.06 261.75L258.19 262.49C257.64 262.64 256.88 262.79 256.04 262.89C254.81 263.05 252.96 263.08 251.24 262.95L251.19 262.2ZM254.61 260.02C254.53 259.73 254.44 259.42 254.33 259.13L255.18 259.02C255.28 259.86 255.59 260.87 255.84 261.58C256.11 262.36 256.55 263.32 257.07 264.09C257.18 264.25 257.3 264.39 257.45 264.52L257.03 265.13C256.47 264.99 255.54 264.89 254.85 264.82L254.91 264.21C255.45 264.26 256.1 264.33 256.41 264.37C255.86 263.51 255.44 262.55 255.15 261.74C254.9 261.05 254.75 260.52 254.61 260.02ZM252.65 264.36C252.41 264.7 252.23 265.04 252.23 265.49C252.23 266.31 252.96 266.73 254.53 266.73C255.46 266.73 256.19 266.66 256.92 266.52L256.88 267.31C256.18 267.43 255.4 267.49 254.54 267.49C252.59 267.49 251.49 266.91 251.47 265.62C251.47 265.05 251.64 264.63 251.87 264.19L252.65 264.36ZM265.52 259.07C265.5 259.24 265.48 259.44 265.47 259.74C265.45 260.14 265.45 261.48 265.45 262.32C265.45 263.64 265.6 265.39 265.6 266.06C265.6 266.76 265.14 267.47 263.84 267.47C262.4 267.47 261.61 266.96 261.61 265.99C261.61 265.08 262.48 264.47 263.92 264.47C266.03 264.47 267.68 265.61 268.45 266.24L267.99 266.95C267.09 266.12 265.61 265.12 263.83 265.12C262.87 265.12 262.36 265.49 262.36 265.95C262.36 266.42 262.75 266.76 263.74 266.76C264.32 266.76 264.81 266.59 264.81 265.89C264.81 265.12 264.71 263.2 264.71 262.32C264.71 261.42 264.71 260.37 264.71 259.67C264.71 259.5 264.7 259.2 264.67 259.07H265.52ZM261.7 260.15C262.34 260.27 263.59 260.37 264.25 260.37C265.52 260.37 266.86 260.28 268.16 260.07V260.8C267.03 260.93 265.6 261.06 264.26 261.06C263.57 261.06 262.34 260.97 261.71 260.89L261.7 260.15ZM261.65 262.28C262.36 262.39 263.5 262.46 264.16 262.46C265.61 262.46 266.94 262.36 268.24 262.17V262.92C266.88 263.09 265.66 263.16 264.16 263.16C263.47 263.16 262.37 263.11 261.66 263.03L261.65 262.28ZM276.27 259.08C276.25 259.2 276.22 259.59 276.22 259.71C276.19 260.36 276.21 262.29 276.22 263.09L275.46 262.7C275.46 262.26 275.45 260.27 275.42 259.72C275.4 259.45 275.37 259.17 275.35 259.08H276.27ZM270.95 260.48C272.31 260.46 274.81 260.37 276.35 260.37C277.57 260.37 278.81 260.37 279.28 260.38L279.27 261.12C278.71 261.09 277.81 261.07 276.34 261.07C274.62 261.07 272.48 261.14 270.97 261.25L270.95 260.48ZM276.2 263.38C276.2 264.72 275.58 265.39 274.67 265.39C273.83 265.39 273.02 264.8 273.02 263.71C273.02 262.72 273.84 261.98 274.79 261.98C275.95 261.98 276.54 262.84 276.54 263.99C276.54 265.35 275.88 266.85 273.56 267.54L272.89 266.89C274.71 266.46 275.77 265.57 275.77 263.92C275.77 263.02 275.33 262.64 274.79 262.64C274.26 262.64 273.77 263.05 273.77 263.7C273.77 264.33 274.24 264.69 274.79 264.69C275.41 264.69 275.81 264.17 275.65 263.1L276.2 263.38Z" fill="black"/>
<line x1="59" y1="94.5" x2="34" y2="94.5" stroke="black"/>
<rect x="0.5" y="108.5" width="71" height="30" rx="4.5" fill="white" stroke="black" stroke-linejoin="round"/>
<path d="M10.76 120.28H17.31V128.65H16.52V121.04H11.53V128.69H10.76V120.28ZM11.27 123.75H16.85V124.49H11.27V123.75ZM11.26 127.29H16.87V128.04H11.26V127.29ZM24.46 123.43H27.91V124.14H24.46V123.43ZM24.13 123.43H24.88V127.51C24.88 127.9 24.99 127.98 25.54 127.98C25.8 127.98 27.1 127.98 27.44 127.98C27.98 127.98 28.06 127.72 28.12 126.33C28.3 126.46 28.62 126.59 28.83 126.64C28.72 128.25 28.49 128.7 27.49 128.7C27.24 128.7 25.71 128.7 25.48 128.7C24.44 128.7 24.13 128.46 24.13 127.5V123.43ZM24.02 120.17H28.3V124.7H27.54V120.88H24.02V120.17ZM20.05 122.63H23.17V123.23H20.05V122.63ZM20.11 119.96H23.21V120.56H20.11V119.96ZM20.05 123.97H23.17V124.57H20.05V123.97ZM19.58 121.27H23.56V121.89H19.58V121.27ZM20.4 125.32H23.14V128.24H20.4V127.61H22.47V125.94H20.4V125.32ZM20.04 125.32H20.71V128.7H20.04V125.32ZM34 120.1C33.91 120.49 33.8 121.04 33.54 121.71C33.29 122.32 32.92 122.99 32.52 123.51C32.91 123.28 33.48 123.14 33.92 123.14C34.69 123.14 35.29 123.6 35.29 124.41C35.29 124.93 35.31 126.08 35.32 126.7H34.55C34.59 126.17 34.6 125.14 34.59 124.62C34.58 124.04 34.18 123.77 33.66 123.77C33.02 123.77 32.39 124.09 31.93 124.5C31.64 124.78 31.36 125.14 31.03 125.55L30.34 125.04C31.78 123.66 32.45 122.5 32.79 121.65C33.01 121.1 33.15 120.5 33.18 120.03L34 120.1ZM30.57 121.18C31.11 121.25 31.8 121.28 32.26 121.28C33.61 121.28 35.34 121.2 36.75 120.95V121.69C35.35 121.9 33.49 121.99 32.22 121.99C31.79 121.99 31.13 121.97 30.57 121.93V121.18ZM38.21 123.59C37.96 123.67 37.6 123.81 37.33 123.91C36.62 124.19 35.67 124.57 34.7 125.07C33.71 125.59 33.01 126.13 33.01 126.82C33.01 127.6 33.78 127.72 34.81 127.72C35.59 127.72 36.67 127.63 37.55 127.47L37.52 128.28C36.76 128.37 35.65 128.45 34.78 128.45C33.36 128.45 32.21 128.14 32.21 126.93C32.21 125.71 33.45 124.96 34.64 124.35C35.59 123.86 36.4 123.55 37.06 123.24C37.36 123.1 37.61 122.99 37.89 122.85L38.21 123.59ZM41.87 120.21H44.7V120.97H41.87V120.21ZM44.32 120.21H45.09C45.09 122 45.31 125.8 49.26 128.14C49.09 128.27 48.79 128.59 48.65 128.77C44.65 126.35 44.32 122.09 44.32 120.21ZM44.04 122.17L44.89 122.33C44.17 125.38 42.85 127.49 40.64 128.79C40.5 128.63 40.16 128.32 39.96 128.18C42.18 127.02 43.43 125 44.04 122.17ZM50.62 121.79H58.38V122.55H50.62V121.79ZM58.09 121.79H58.87C58.87 121.79 58.86 122.07 58.85 122.19C58.62 126.33 58.41 127.82 57.97 128.32C57.73 128.61 57.49 128.69 57.11 128.72C56.76 128.76 56.12 128.74 55.5 128.7C55.49 128.48 55.39 128.15 55.25 127.93C55.93 127.99 56.57 128 56.82 128C57.04 128 57.16 127.97 57.29 127.85C57.67 127.48 57.89 125.92 58.09 121.95V121.79ZM53.89 119.62H54.68V121.36C54.68 123.64 54.4 126.73 50.9 128.84C50.79 128.66 50.51 128.38 50.33 128.25C53.65 126.27 53.89 123.43 53.89 121.36V119.62Z" fill="black"/>
<line x1="34.5" y1="95" x2="34.5" y2="108" stroke="black"/>
<line x1="266.5" y1="282" x2="266.5" y2="303" stroke="black"/>
<line x1="267" y1="303.5" x2="224" y2="303.5" stroke="black"/>
<defs>
<filter id="filter0_d_1005_10472" x="58" y="31.5" width="179" height="256" filterUnits="userSpaceOnUse" color-interpolation-filters="sRGB">
<feFlood flood-opacity="0" result="BackgroundImageFix"/>
<feColorMatrix in="SourceAlpha" type="matrix" values="0 0 0 0 0 0 0 0 0 0 0 0 0 0 0 0 0 0 127 0" result="hardAlpha"/>
<feOffset dy="4"/>
<feGaussianBlur stdDeviation="2"/>
<feComposite in2="hardAlpha" operator="out"/>
<feColorMatrix type="matrix" values="0 0 0 0 0.0156863 0 0 0 0 0.792157 0 0 0 0 0.839216 0 0 0 0.15 0"/>
<feBlend mode="normal" in2="BackgroundImageFix" result="effect1_dropShadow_1005_10472"/>
<feBlend mode="normal" in="SourceGraphic" in2="effect1_dropShadow_1005_10472" result="shape"/>
</filter>
<filter id="filter1_d_1005_10472" x="63.4497" y="328.5" width="169.101" height="29.1006" filterUnits="userSpaceOnUse" color-interpolation-filters="sRGB">
<feFlood flood-opacity="0" result="BackgroundImageFix"/>
<feColorMatrix in="SourceAlpha" type="matrix" values="0 0 0 0 0 0 0 0 0 0 0 0 0 0 0 0 0 0 127 0" result="hardAlpha"/>
<feOffset dy="2.5503"/>
<feGaussianBlur stdDeviation="1.27515"/>
<feComposite in2="hardAlpha" operator="out"/>
<feColorMatrix type="matrix" values="0 0 0 0 0 0 0 0 0 0 0 0 0 0 0 0 0 0 0.25 0"/>
<feBlend mode="normal" in2="BackgroundImageFix" result="effect1_dropShadow_1005_10472"/>
<feBlend mode="normal" in="SourceGraphic" in2="effect1_dropShadow_1005_10472" result="shape"/>
</filter>
<clipPath id="clip0_1005_10472">
<rect width="191.679" height="197.466" fill="white" transform="translate(80.6572 138.495) rotate(-30)"/>
</clipPath>
</defs>
</svg>
