<svg width="257" height="151" viewBox="0 0 257 151" fill="none" xmlns="http://www.w3.org/2000/svg">
<path d="M54.152 34.392H61.176V35.512H54.152V34.392ZM53.608 40.008H62.408V41.16H53.608V40.008ZM57.384 37.88H58.584V46.776C58.584 47.496 58.408 47.848 57.912 48.04C57.384 48.232 56.552 48.264 55.272 48.248C55.208 47.928 55 47.4 54.84 47.08C55.848 47.112 56.744 47.112 57.032 47.096C57.304 47.08 57.384 47 57.384 46.76V37.88ZM60.744 34.392H61.032L61.288 34.328L62.072 34.904C61.112 36.264 59.624 37.816 58.344 38.776C58.168 38.552 57.832 38.232 57.624 38.072C58.776 37.208 60.104 35.704 60.744 34.664V34.392ZM47.688 36.872H52.952V37.992H47.688V36.872ZM50.104 33.576L51.24 33.704C50.632 36.904 49.624 41.224 48.904 43.88L47.896 43.352C48.6 40.904 49.56 36.616 50.104 33.576ZM48.488 42.84L49.16 42.008C50.952 43.016 53.064 44.552 54.024 45.736L53.304 46.712C52.344 45.512 50.28 43.88 48.488 42.84ZM52.552 36.872H52.744L52.968 36.824L53.688 36.968C53.256 43.16 51.512 46.552 48.568 48.312C48.408 48.024 48.072 47.592 47.816 47.352C50.488 45.944 52.152 42.552 52.552 37.112V36.872ZM72.168 36.968H76.504V37.912H72.168V36.968ZM72.008 39.448H76.728V40.392H72.008V39.448ZM73.816 35.608H74.792V39.992H73.816V35.608ZM70.84 34.232H77.832V35.288H70.84V34.232ZM72.744 41.608H76.408V45.752H72.744V44.824H75.48V42.52H72.744V41.608ZM72.248 41.608H73.16V46.376H72.248V41.608ZM77.384 34.232H78.504V46.776C78.504 47.48 78.36 47.864 77.912 48.056C77.464 48.264 76.664 48.28 75.464 48.28C75.416 47.96 75.272 47.416 75.096 47.08C75.976 47.128 76.808 47.112 77.08 47.096C77.32 47.096 77.384 47.032 77.384 46.776V34.232ZM70.232 34.232H71.336V39.976C71.336 42.488 71.16 46.024 69.816 48.392C69.624 48.184 69.144 47.848 68.872 47.72C70.136 45.496 70.232 42.344 70.232 39.976V34.232ZM64.904 38.408H69.016V39.368H64.904V38.408ZM65 34.136H68.968V35.096H65V34.136ZM64.904 40.552H69.016V41.512H64.904V40.552ZM64.248 36.232H69.416V37.224H64.248V36.232ZM65.464 42.712H69V47.368H65.464V46.376H67.992V43.704H65.464V42.712ZM64.872 42.712H65.864V48.12H64.872V42.712Z" fill="black"/>
<path d="M130.95 57.2C130.95 55.25 131.74 53.67 132.94 52.45L133.54 52.76C132.38 53.95 131.67 55.42 131.67 57.2C131.67 58.99 132.38 60.46 133.54 61.65L132.94 61.96C131.74 60.74 130.95 59.16 130.95 57.2ZM140.99 52.98L141.38 52.54C141.88 52.7 142.5 52.98 142.82 53.23L142.41 53.73C142.11 53.47 141.5 53.16 140.99 52.98ZM135.82 53.62H143.61V54.24H135.82V53.62ZM136.53 54.92H139.6V55.45H136.53V54.92ZM136.69 56.13H137.32V57.95H136.69V56.13ZM142 54.72L142.7 54.89C142.14 56.55 141.13 57.9 139.91 58.77C139.8 58.63 139.52 58.38 139.37 58.25C140.58 57.47 141.52 56.22 142 54.72ZM139.64 52.6H140.36C140.47 55.68 141.83 58.18 142.85 58.17C143.1 58.17 143.2 57.81 143.25 56.9C143.4 57.04 143.65 57.17 143.84 57.24C143.72 58.51 143.45 58.86 142.81 58.86C141.23 58.86 139.8 55.96 139.64 52.6ZM136.69 56.13H139.44V58.23H136.69V57.69H138.8V56.66H136.69V56.13ZM137.19 59.15H137.93V60.7C137.93 60.95 138.03 61 138.56 61C138.81 61 140.06 61 140.39 61C140.83 61 140.9 60.88 140.94 59.95C141.1 60.07 141.41 60.17 141.62 60.22C141.52 61.4 141.3 61.68 140.45 61.68C140.22 61.68 138.73 61.68 138.51 61.68C137.45 61.68 137.19 61.48 137.19 60.71V59.15ZM137.97 58.82L138.45 58.4C139.08 58.69 139.82 59.17 140.17 59.56L139.66 60.04C139.32 59.65 138.59 59.14 137.97 58.82ZM141.42 59.45L142.03 59.11C142.75 59.67 143.5 60.5 143.81 61.12L143.14 61.49C142.86 60.88 142.14 60.03 141.42 59.45ZM135.92 59.21L136.58 59.44C136.33 60.25 135.92 61.09 135.21 61.6L134.59 61.18C135.26 60.72 135.7 59.96 135.92 59.21ZM135.47 53.62H136.17V55.13C136.17 56.29 135.99 57.93 135.07 59.06C134.97 58.92 134.67 58.67 134.52 58.59C135.36 57.55 135.47 56.14 135.47 55.12V53.62ZM148.67 58.33H152.65V58.91H148.67V58.33ZM147.74 53.39H153.68V53.96H147.74V53.39ZM147.98 54.6H153.43V55.15H147.98V54.6ZM147.43 55.85H153.97V56.42H147.43V55.85ZM148.67 59.67H152.68V60.23H148.67V59.67ZM148.16 57.01H152.65V57.59H148.86V61.79H148.16V57.01ZM152.47 57.01H153.19V60.96C153.19 61.34 153.11 61.54 152.83 61.65C152.55 61.76 152.1 61.77 151.39 61.76C151.36 61.58 151.26 61.3 151.17 61.11C151.67 61.13 152.15 61.13 152.29 61.12C152.43 61.12 152.47 61.08 152.47 60.95V57.01ZM150.3 52.6H151.04V56.03H150.3V52.6ZM145.91 52.6H146.6V61.79H145.91V52.6ZM145.12 54.53L145.68 54.61C145.65 55.39 145.48 56.55 145.25 57.3L144.67 57.11C144.9 56.42 145.06 55.32 145.12 54.53ZM146.69 54.27L147.19 54.07C147.41 54.53 147.65 55.12 147.74 55.49L147.22 55.74C147.12 55.36 146.89 54.74 146.69 54.27ZM155.91 54.21H158.95V60.75H155.91V60.07H158.25V54.88H155.91V54.21ZM155.46 54.21H156.16V61.55H155.46V54.21ZM155.86 56.99H158.62V57.66H155.86V56.99ZM156.99 52.58L157.8 52.73C157.6 53.35 157.35 54.04 157.15 54.49L156.55 54.34C156.72 53.86 156.91 53.1 156.99 52.58ZM160.37 54.18H163.44V54.88H160.37V54.18ZM163.18 54.18H163.88C163.88 54.18 163.88 54.46 163.88 54.57C163.72 59.16 163.58 60.71 163.18 61.2C162.96 61.49 162.73 61.58 162.38 61.61C162.04 61.65 161.45 61.63 160.89 61.6C160.87 61.38 160.78 61.07 160.64 60.87C161.29 60.92 161.89 60.93 162.12 60.93C162.32 60.93 162.44 60.9 162.55 60.77C162.88 60.41 163.04 58.75 163.18 54.34V54.18ZM160.58 52.56L161.3 52.73C160.93 54.22 160.34 55.69 159.65 56.64C159.52 56.52 159.21 56.31 159.03 56.21C159.71 55.33 160.26 53.95 160.58 52.56ZM160.12 56.78L160.7 56.44C161.27 57.15 161.96 58.12 162.28 58.71L161.64 59.11C161.34 58.5 160.67 57.51 160.12 56.78ZM165.76 54.7C166.13 54.74 166.56 54.76 166.99 54.76C168.07 54.76 169.33 54.63 170.48 54.25L170.5 54.99C169.52 55.26 168.21 55.48 166.99 55.47C166.62 55.47 166.19 55.46 165.82 55.45L165.76 54.7ZM169.31 53.07C169.18 53.56 168.97 54.5 168.73 55.21C168.25 56.65 167.33 58.47 166.5 59.59L165.73 59.19C166.62 58.15 167.55 56.37 167.96 55.19C168.18 54.56 168.4 53.68 168.43 52.98L169.31 53.07ZM171.67 56.16C171.64 56.57 171.64 56.87 171.65 57.23C171.67 57.88 171.76 59.4 171.76 60.06C171.76 60.86 171.25 61.51 170.01 61.51C168.91 61.51 168.02 61.07 168.02 60.07C168.02 59.15 168.89 58.57 170.01 58.57C171.69 58.57 172.98 59.41 173.8 60.12L173.38 60.8C172.61 60.1 171.46 59.21 169.99 59.21C169.25 59.21 168.75 59.55 168.75 60.01C168.75 60.47 169.14 60.79 169.92 60.79C170.75 60.79 171.03 60.35 171.03 59.81C171.03 59.05 170.92 57.26 170.88 56.16H171.67ZM173.67 56.42C173.13 55.96 172.04 55.35 171.38 55.04L171.78 54.44C172.51 54.75 173.64 55.4 174.12 55.76L173.67 56.42ZM178.18 53.16H184.57V53.8H178.18V53.16ZM178.97 54.49H184.17V56.74H178.97V56.15H183.44V55.08H178.97V54.49ZM178.62 54.49H179.31V56.26C179.31 57.76 179.12 59.96 178.03 61.46C177.92 61.32 177.63 61.08 177.47 60.99C178.49 59.59 178.62 57.64 178.62 56.25V54.49ZM179.15 57.48H183.94V58.08H179.79V61.82H179.15V57.48ZM183.69 57.48H184.37V61.06C184.37 61.38 184.31 61.58 184.11 61.69C183.9 61.8 183.61 61.81 183.15 61.81C183.12 61.63 183.02 61.35 182.93 61.17C183.23 61.18 183.49 61.18 183.58 61.17C183.67 61.17 183.69 61.15 183.69 61.06V57.48ZM179.45 59.22H183.95V59.83H179.45V59.22ZM180.7 57.68H181.25V61.76H180.7V57.68ZM182.19 57.68H182.75V61.76H182.19V57.68ZM177.32 52.66L178.02 52.85C177.45 54.58 176.56 56.34 175.57 57.51C175.5 57.33 175.3 56.93 175.17 56.74C176.05 55.74 176.84 54.2 177.32 52.66ZM176.52 55.11L177.21 54.42L177.23 54.44V61.8H176.52V55.11ZM188.58 53.11C188.37 53.85 188.18 55.2 188.12 55.9C188.53 54.87 189.57 53.62 190.84 53.62C192.16 53.62 193.12 54.96 193.12 57.06C193.12 59.83 191.37 61.06 188.9 61.51L188.42 60.79C190.6 60.46 192.29 59.58 192.29 57.07C192.29 55.49 191.76 54.35 190.71 54.35C189.46 54.35 188.3 56.17 188.18 57.48C188.13 57.86 188.13 58.21 188.2 58.71L187.42 58.77C187.37 58.39 187.32 57.83 187.32 57.18C187.32 56.23 187.51 54.76 187.63 53.94C187.67 53.64 187.69 53.36 187.71 53.08L188.58 53.11ZM199.64 53.24C199.6 53.42 199.56 53.64 199.52 53.83C199.45 54.19 199.32 55.01 199.18 55.63C198.84 57.04 198.13 59.53 197 61.35L196.18 61.03C197.32 59.5 198.12 56.83 198.39 55.61C198.58 54.81 198.71 53.91 198.71 53.14L199.64 53.24ZM203.08 54.39C203.7 55.2 204.57 57.02 204.91 57.94L204.13 58.31C203.84 57.29 203.05 55.55 202.35 54.72L203.08 54.39ZM196.04 55.43C196.35 55.45 196.61 55.44 196.93 55.43C197.68 55.41 199.71 55.19 200.39 55.19C201.28 55.19 202.01 55.53 202.01 56.88C202.01 58.07 201.85 59.66 201.43 60.49C201.12 61.16 200.62 61.33 199.97 61.33C199.59 61.33 199.11 61.26 198.8 61.18L198.66 60.35C199.08 60.48 199.61 60.55 199.89 60.55C200.26 60.55 200.56 60.47 200.76 60.04C201.08 59.36 201.24 58.06 201.24 56.98C201.24 56.06 200.82 55.89 200.18 55.89C199.51 55.89 197.63 56.12 197.02 56.18C196.79 56.21 196.38 56.26 196.12 56.3L196.04 55.43ZM203.19 52.94C203.44 53.3 203.8 53.91 204.01 54.32L203.47 54.56C203.27 54.15 202.93 53.55 202.65 53.17L203.19 52.94ZM204.29 52.54C204.56 52.91 204.94 53.54 205.14 53.91L204.59 54.15C204.38 53.71 204.05 53.14 203.76 52.77L204.29 52.54ZM206.56 54.7C206.93 54.74 207.36 54.76 207.79 54.76C208.87 54.76 210.13 54.63 211.28 54.25L211.3 54.99C210.32 55.26 209.01 55.48 207.79 55.47C207.42 55.47 206.99 55.46 206.62 55.45L206.56 54.7ZM210.11 53.07C209.98 53.56 209.77 54.5 209.53 55.21C209.05 56.65 208.13 58.47 207.3 59.59L206.53 59.19C207.42 58.15 208.35 56.37 208.76 55.19C208.98 54.56 209.2 53.68 209.23 52.98L210.11 53.07ZM212.47 56.16C212.44 56.57 212.44 56.87 212.45 57.23C212.47 57.88 212.56 59.4 212.56 60.06C212.56 60.86 212.05 61.51 210.81 61.51C209.71 61.51 208.82 61.07 208.82 60.07C208.82 59.15 209.69 58.57 210.81 58.57C212.49 58.57 213.78 59.41 214.6 60.12L214.18 60.8C213.41 60.1 212.26 59.21 210.79 59.21C210.05 59.21 209.55 59.55 209.55 60.01C209.55 60.47 209.94 60.79 210.72 60.79C211.55 60.79 211.83 60.35 211.83 59.81C211.83 59.05 211.72 57.26 211.68 56.16H212.47ZM214.47 56.42C213.93 55.96 212.84 55.35 212.18 55.04L212.58 54.44C213.31 54.75 214.44 55.4 214.92 55.76L214.47 56.42ZM218.03 54.03C217.98 54.26 217.95 54.74 217.94 55C217.93 55.62 217.94 56.54 218.01 57.36C218.18 59.03 218.66 60.14 219.38 60.14C219.89 60.14 220.36 59.11 220.62 58.11L221.25 58.82C220.64 60.51 220.04 61.09 219.36 61.09C218.41 61.09 217.51 60.15 217.23 57.56C217.14 56.7 217.12 55.48 217.12 54.9C217.12 54.67 217.12 54.24 217.06 54.01L218.03 54.03ZM223.23 54.3C224.13 55.46 224.85 57.59 225 59.28L224.19 59.6C224.02 57.8 223.41 55.74 222.46 54.57L223.23 54.3ZM229.04 57.2C229.04 59.16 228.25 60.74 227.05 61.96L226.45 61.65C227.61 60.46 228.32 58.99 228.32 57.2C228.32 55.42 227.61 53.95 226.45 52.76L227.05 52.45C228.25 53.67 229.04 55.25 229.04 57.2Z" fill="black"/>
<path d="M6.95 141.2C6.95 139.25 7.74 137.67 8.94 136.45L9.54 136.76C8.38 137.95 7.67 139.42 7.67 141.2C7.67 142.99 8.38 144.46 9.54 145.65L8.94 145.96C7.74 144.74 6.95 143.16 6.95 141.2ZM15.72 142.39H18.6V142.97H15.31L15.72 142.39ZM18.37 142.39H18.53L18.68 142.36L19.12 142.62C18.23 144.48 16.23 145.39 14.03 145.82C13.96 145.64 13.77 145.32 13.64 145.17C15.76 144.83 17.64 144.05 18.37 142.51V142.39ZM15.65 142.79C16.39 144.03 18 144.86 19.94 145.15C19.77 145.31 19.57 145.61 19.47 145.81C17.48 145.42 15.87 144.47 15.02 142.99L15.65 142.79ZM15.5 140.56V141.24H18.42V140.56H15.5ZM15.5 139.41V140.07H18.42V139.41H15.5ZM14.81 138.89H19.13V141.75H14.81V138.89ZM15.1 137.61H19.74V138.25H15.1V137.61ZM15.33 136.6L16.05 136.72C15.67 137.65 15.14 138.71 14.32 139.57C14.19 139.42 13.95 139.22 13.78 139.14C14.54 138.38 15.06 137.38 15.33 136.6ZM16.1 141.53L16.84 141.67C16.27 142.55 15.41 143.44 14.19 144.14C14.08 143.98 13.85 143.76 13.69 143.65C14.84 143.05 15.66 142.23 16.1 141.53ZM12 141.51L12.68 140.69V145.81H12V141.51ZM10.73 138.51H13.45V139.17H10.73V138.51ZM11.97 136.66H12.65V138.87H11.97V136.66ZM12.59 140.74C12.85 141.02 13.8 142.19 14.01 142.48L13.57 142.99C13.31 142.52 12.52 141.44 12.21 141.06L12.59 140.74ZM13.19 138.51H13.33L13.46 138.47L13.85 138.72C13.25 140.55 12.03 142.32 10.88 143.32C10.8 143.14 10.61 142.81 10.49 142.68C11.57 141.81 12.7 140.19 13.19 138.66V138.51ZM13.76 140.33L14.2 140.65C13.93 141.08 13.61 141.56 13.35 141.87L13 141.6C13.24 141.26 13.58 140.7 13.76 140.33ZM20.79 141.94H25.7V142.57H20.79V141.94ZM20.85 138.45H25.67V139.06H20.85V138.45ZM22.65 141.08L23.35 141.23C22.9 142.21 22.27 143.43 21.81 144.22L21.15 143.99C21.6 143.23 22.23 142 22.65 141.08ZM24.15 142.31L24.85 142.4C24.51 144.35 23.46 145.31 21.15 145.8C21.1 145.6 20.95 145.33 20.81 145.18C22.9 144.83 23.84 144.01 24.15 142.31ZM24.78 136.8L25.42 137.08C25.13 137.54 24.8 138.04 24.52 138.38L24.02 138.13C24.27 137.77 24.6 137.19 24.78 136.8ZM22.92 136.6H23.61V141.2H22.92V136.6ZM21.22 137.08L21.79 136.84C22.07 137.24 22.34 137.77 22.44 138.13L21.85 138.4C21.76 138.04 21.5 137.49 21.22 137.08ZM22.93 138.72L23.44 139.02C22.95 139.86 22.01 140.75 21.15 141.22C21.06 141.05 20.88 140.8 20.74 140.65C21.57 140.29 22.49 139.49 22.93 138.72ZM23.53 139.07C23.89 139.26 25.11 140.03 25.4 140.24L24.99 140.79C24.63 140.45 23.59 139.67 23.17 139.39L23.53 139.07ZM26.43 138.45H29.99V139.15H26.43V138.45ZM26.68 136.6L27.44 136.71C27.11 138.67 26.52 140.46 25.64 141.63C25.52 141.49 25.21 141.24 25.03 141.12C25.88 140.06 26.4 138.37 26.68 136.6ZM28.65 138.85L29.41 138.93C28.93 142.38 27.87 144.53 25.35 145.83C25.27 145.65 25.05 145.32 24.9 145.16C27.28 144.04 28.24 142.02 28.65 138.85ZM26.83 139.07C27.27 141.82 28.23 144.18 30.09 145.16C29.91 145.31 29.67 145.6 29.56 145.8C27.6 144.65 26.65 142.21 26.15 139.18L26.83 139.07ZM21.75 143.85L22.15 143.34C23.35 143.8 24.59 144.46 25.31 145.01L24.79 145.55C24.1 144.99 22.91 144.32 21.75 143.85ZM36.23 138.18C36.1 139.22 35.9 140.39 35.59 141.46C34.98 143.51 34.18 144.57 33.26 144.57C32.36 144.57 31.47 143.55 31.47 141.89C31.47 139.72 33.4 137.83 35.85 137.83C38.19 137.83 39.68 139.48 39.68 141.51C39.68 143.6 38.3 145 35.92 145.31L35.46 144.57C35.78 144.54 36.08 144.5 36.32 144.45C37.6 144.16 38.86 143.2 38.86 141.47C38.86 139.87 37.75 138.55 35.83 138.55C33.63 138.55 32.26 140.36 32.26 141.83C32.26 143.09 32.83 143.65 33.28 143.65C33.75 143.65 34.29 142.97 34.8 141.28C35.09 140.33 35.3 139.2 35.4 138.16L36.23 138.18ZM47.59 136.98L47.98 136.54C48.48 136.7 49.1 136.98 49.42 137.23L49.01 137.73C48.71 137.47 48.1 137.16 47.59 136.98ZM42.42 137.62H50.21V138.24H42.42V137.62ZM43.13 138.92H46.2V139.45H43.13V138.92ZM43.29 140.13H43.92V141.95H43.29V140.13ZM48.6 138.72L49.3 138.89C48.74 140.55 47.73 141.9 46.51 142.77C46.4 142.63 46.12 142.38 45.97 142.25C47.18 141.47 48.12 140.22 48.6 138.72ZM46.24 136.6H46.96C47.07 139.68 48.43 142.18 49.45 142.17C49.7 142.17 49.8 141.81 49.85 140.9C50 141.04 50.25 141.17 50.44 141.24C50.32 142.51 50.05 142.86 49.41 142.86C47.83 142.86 46.4 139.96 46.24 136.6ZM43.29 140.13H46.04V142.23H43.29V141.69H45.4V140.66H43.29V140.13ZM43.79 143.15H44.53V144.7C44.53 144.95 44.63 145 45.16 145C45.41 145 46.66 145 46.99 145C47.43 145 47.5 144.88 47.54 143.95C47.7 144.07 48.01 144.17 48.22 144.22C48.12 145.4 47.9 145.68 47.05 145.68C46.82 145.68 45.33 145.68 45.11 145.68C44.05 145.68 43.79 145.48 43.79 144.71V143.15ZM44.57 142.82L45.05 142.4C45.68 142.69 46.42 143.17 46.77 143.56L46.26 144.04C45.92 143.65 45.19 143.14 44.57 142.82ZM48.02 143.45L48.63 143.11C49.35 143.67 50.1 144.5 50.41 145.12L49.74 145.49C49.46 144.88 48.74 144.03 48.02 143.45ZM42.52 143.21L43.18 143.44C42.93 144.25 42.52 145.09 41.81 145.6L41.19 145.18C41.86 144.72 42.3 143.96 42.52 143.21ZM42.07 137.62H42.77V139.13C42.77 140.29 42.59 141.93 41.67 143.06C41.57 142.92 41.27 142.67 41.12 142.59C41.96 141.55 42.07 140.14 42.07 139.12V137.62ZM55.27 142.33H59.25V142.91H55.27V142.33ZM54.34 137.39H60.28V137.96H54.34V137.39ZM54.58 138.6H60.03V139.15H54.58V138.6ZM54.03 139.85H60.57V140.42H54.03V139.85ZM55.27 143.67H59.28V144.23H55.27V143.67ZM54.76 141.01H59.25V141.59H55.46V145.79H54.76V141.01ZM59.07 141.01H59.79V144.96C59.79 145.34 59.71 145.54 59.43 145.65C59.15 145.76 58.7 145.77 57.99 145.76C57.96 145.58 57.86 145.3 57.77 145.11C58.27 145.13 58.75 145.13 58.89 145.12C59.03 145.12 59.07 145.08 59.07 144.95V141.01ZM56.9 136.6H57.64V140.03H56.9V136.6ZM52.51 136.6H53.2V145.79H52.51V136.6ZM51.72 138.53L52.28 138.61C52.25 139.39 52.08 140.55 51.85 141.3L51.27 141.11C51.5 140.42 51.66 139.32 51.72 138.53ZM53.29 138.27L53.79 138.07C54.01 138.53 54.25 139.12 54.34 139.49L53.82 139.74C53.72 139.36 53.49 138.74 53.29 138.27ZM65.44 137.24C65.4 137.42 65.36 137.64 65.32 137.83C65.25 138.19 65.12 139.01 64.98 139.63C64.64 141.04 63.93 143.53 62.8 145.35L61.98 145.03C63.12 143.5 63.92 140.83 64.19 139.61C64.38 138.81 64.51 137.91 64.51 137.14L65.44 137.24ZM68.88 138.39C69.5 139.2 70.37 141.02 70.71 141.94L69.93 142.31C69.64 141.29 68.85 139.55 68.15 138.72L68.88 138.39ZM61.84 139.43C62.15 139.45 62.41 139.44 62.73 139.43C63.48 139.41 65.51 139.19 66.19 139.19C67.08 139.19 67.81 139.53 67.81 140.88C67.81 142.07 67.65 143.66 67.23 144.49C66.92 145.16 66.42 145.33 65.77 145.33C65.39 145.33 64.91 145.26 64.6 145.18L64.46 144.35C64.88 144.48 65.41 144.55 65.69 144.55C66.06 144.55 66.36 144.47 66.56 144.04C66.88 143.36 67.04 142.06 67.04 140.98C67.04 140.06 66.62 139.89 65.98 139.89C65.31 139.89 63.43 140.12 62.82 140.18C62.59 140.21 62.18 140.26 61.92 140.3L61.84 139.43ZM68.99 136.94C69.24 137.3 69.6 137.91 69.81 138.32L69.27 138.56C69.07 138.15 68.73 137.55 68.45 137.17L68.99 136.94ZM70.09 136.54C70.36 136.91 70.74 137.54 70.94 137.91L70.39 138.15C70.18 137.71 69.85 137.14 69.56 136.77L70.09 136.54ZM73.67 137.21H76.5V137.97H73.67V137.21ZM76.12 137.21H76.89C76.89 139 77.11 142.8 81.06 145.14C80.89 145.27 80.59 145.59 80.45 145.77C76.45 143.35 76.12 139.09 76.12 137.21ZM75.84 139.17L76.69 139.33C75.97 142.38 74.65 144.49 72.44 145.79C72.3 145.63 71.96 145.32 71.76 145.18C73.98 144.02 75.23 142 75.84 139.17ZM84.98 137.11C84.77 137.85 84.58 139.2 84.52 139.9C84.93 138.87 85.97 137.62 87.24 137.62C88.56 137.62 89.52 138.96 89.52 141.06C89.52 143.83 87.77 145.06 85.3 145.51L84.82 144.79C87 144.46 88.69 143.58 88.69 141.07C88.69 139.49 88.16 138.35 87.11 138.35C85.86 138.35 84.7 140.17 84.58 141.48C84.53 141.86 84.53 142.21 84.6 142.71L83.82 142.77C83.77 142.39 83.72 141.83 83.72 141.18C83.72 140.23 83.91 138.76 84.03 137.94C84.07 137.64 84.09 137.36 84.11 137.08L84.98 137.11ZM96.03 139.16V140.09H99.95V139.16H96.03ZM96.03 137.65V138.57H99.95V137.65H96.03ZM95.32 137.02H100.68V140.72H95.32V137.02ZM95.41 141.18H96.13V145.12H95.41V141.18ZM95.75 142.39H97.94V143.06H95.75V142.39ZM94.46 144.91C95.33 144.78 96.64 144.53 97.94 144.3L97.97 144.97C96.79 145.2 95.55 145.44 94.63 145.61L94.46 144.91ZM100.71 141.8L101.24 142.37C100.54 142.83 99.56 143.26 98.71 143.59C98.67 143.44 98.56 143.2 98.46 143.05C99.26 142.71 100.18 142.22 100.71 141.8ZM98.25 141.18H98.98V144.63C98.98 144.92 99.03 144.97 99.35 144.97C99.49 144.97 100.24 144.97 100.42 144.97C100.71 144.97 100.76 144.8 100.79 143.78C100.95 143.91 101.24 144.02 101.44 144.07C101.37 145.31 101.17 145.64 100.49 145.64C100.32 145.64 99.42 145.64 99.25 145.64C98.46 145.64 98.25 145.42 98.25 144.63V141.18ZM92.69 137.24L93.11 136.69C93.72 136.96 94.46 137.41 94.82 137.76L94.38 138.37C94.03 138.01 93.29 137.53 92.69 137.24ZM92.17 139.94L92.59 139.37C93.2 139.62 93.95 140.04 94.33 140.37L93.89 140.99C93.53 140.65 92.79 140.21 92.17 139.94ZM92.44 145.21C92.92 144.44 93.58 143.13 94.07 141.99L94.66 142.44C94.22 143.5 93.62 144.74 93.11 145.67L92.44 145.21ZM108.04 138.1C108.29 138.47 108.76 139.22 108.99 139.7L108.4 139.96C108.15 139.43 107.8 138.81 107.47 138.35L108.04 138.1ZM109.33 137.59C109.59 137.94 110.07 138.69 110.31 139.16L109.74 139.44C109.47 138.91 109.1 138.3 108.77 137.85L109.33 137.59ZM105.27 137.28C105.22 137.62 105.19 137.96 105.17 138.29C105.13 139.42 105.05 141.79 105.05 143.28C105.05 144.38 105.74 144.76 106.69 144.76C108.52 144.76 109.56 143.74 110.28 142.7L110.84 143.38C110.16 144.32 108.87 145.58 106.67 145.58C105.23 145.58 104.24 144.99 104.24 143.35C104.24 141.87 104.34 139.34 104.34 138.29C104.34 137.92 104.32 137.57 104.25 137.28H105.27ZM114.58 137.64C114.8 137.66 115.08 137.67 115.28 137.67C115.81 137.67 118.18 137.6 118.71 137.55C119.01 137.52 119.15 137.5 119.26 137.46L119.72 138.05C119.54 138.17 119.34 138.3 119.15 138.45C118.66 138.83 117.3 140 116.52 140.64C116.98 140.49 117.46 140.44 117.91 140.44C119.57 140.44 120.76 141.43 120.76 142.78C120.76 144.39 119.43 145.44 117.31 145.44C115.95 145.44 115.12 144.85 115.12 144.01C115.12 143.33 115.74 142.71 116.66 142.71C117.99 142.71 118.66 143.65 118.73 144.66L118.01 144.78C117.95 143.93 117.46 143.32 116.66 143.32C116.2 143.32 115.85 143.6 115.85 143.95C115.85 144.44 116.4 144.73 117.19 144.73C118.89 144.73 119.96 144.03 119.96 142.78C119.96 141.79 119.02 141.06 117.71 141.06C116.05 141.06 115.15 141.76 113.89 143.05L113.31 142.47C114.14 141.79 115.43 140.71 116 140.22C116.56 139.76 117.82 138.71 118.32 138.26C117.79 138.29 115.79 138.37 115.27 138.4C115.04 138.42 114.82 138.43 114.6 138.46L114.58 137.64ZM125.44 141.2C125.44 143.16 124.65 144.74 123.45 145.96L122.85 145.65C124.01 144.46 124.72 142.99 124.72 141.2C124.72 139.42 124.01 137.95 122.85 136.76L123.45 136.45C124.65 137.67 125.44 139.25 125.44 141.2Z" fill="black"/>
<path d="M63 104.994C69.0751 104.994 74 100.071 74 93.997C74 87.9235 69.0751 83 63 83C56.9249 83 52 87.9235 52 93.997C52 100.071 56.9249 104.994 63 104.994Z" fill="#D3CAB3"/>
<path d="M60.1444 99.074C60.0505 98.9941 59.9774 98.8852 59.9425 98.7543C59.8558 98.4373 60.0266 98.1217 60.3242 98.0508C63.2541 97.3472 65.227 98.99 65.3105 99.0602C65.559 99.2711 65.6075 99.6425 65.4224 99.8905C65.2374 100.137 64.8867 100.167 64.6388 99.9574C64.5677 99.8995 63.0063 98.6323 60.6387 99.2008C60.4614 99.2428 60.2802 99.1898 60.1444 99.074Z" fill="#65471B"/>
<path d="M59.8418 92.5177C60.6012 92.5177 61.2168 91.6983 61.2168 90.6876C61.2168 89.6768 60.6012 88.8574 59.8418 88.8574C59.0824 88.8574 58.4668 89.6768 58.4668 90.6876C58.4668 91.6983 59.0824 92.5177 59.8418 92.5177Z" fill="#65471B"/>
<path d="M67.125 93.2486C67.8844 93.2486 68.5 92.4293 68.5 91.4185C68.5 90.4078 67.8844 89.5884 67.125 89.5884C66.3656 89.5884 65.75 90.4078 65.75 91.4185C65.75 92.4293 66.3656 93.2486 67.125 93.2486Z" fill="#65471B"/>
<path d="M57.3679 87.3635C57.2618 87.3029 57.1718 87.2092 57.1149 87.0886C56.9751 86.7937 57.089 86.4498 57.3692 86.3223C60.1296 85.0607 62.3509 86.2927 62.4441 86.3458C62.7243 86.5049 62.8375 86.8605 62.6971 87.1409C62.5573 87.42 62.2183 87.5172 61.9381 87.3601C61.8585 87.3167 60.1056 86.3733 57.8758 87.3924C57.7096 87.4676 57.5219 87.451 57.3679 87.3635ZM65.22 89.9475C65.119 89.8799 65.0349 89.78 64.9857 89.6553C64.8647 89.3507 65.0006 89.0165 65.2886 88.9084C68.1233 87.85 70.2612 89.2391 70.3505 89.2991C70.619 89.4782 70.7096 89.8413 70.5524 90.1108C70.3958 90.3795 70.0503 90.4518 69.7817 90.2748C69.7041 90.2252 68.0172 89.1578 65.7266 90.0136C65.5545 90.0763 65.3688 90.0453 65.22 89.9475Z" fill="#65471B"/>
<path d="M57.28 125.085H61.6V125.955H56.665L57.28 125.085ZM61.255 125.085H61.495L61.72 125.04L62.38 125.43C61.045 128.22 58.045 129.585 54.745 130.23C54.64 129.96 54.355 129.48 54.16 129.255C57.34 128.745 60.16 127.575 61.255 125.265V125.085ZM57.175 125.685C58.285 127.545 60.7 128.79 63.61 129.225C63.355 129.465 63.055 129.915 62.905 130.215C59.92 129.63 57.505 128.205 56.23 125.985L57.175 125.685ZM56.95 122.34V123.36H61.33V122.34H56.95ZM56.95 120.615V121.605H61.33V120.615H56.95ZM55.915 119.835H62.395V124.125H55.915V119.835ZM56.35 117.915H63.31V118.875H56.35V117.915ZM56.695 116.4L57.775 116.58C57.205 117.975 56.41 119.565 55.18 120.855C54.985 120.63 54.625 120.33 54.37 120.21C55.51 119.07 56.29 117.57 56.695 116.4ZM57.85 123.795L58.96 124.005C58.105 125.325 56.815 126.66 54.985 127.71C54.82 127.47 54.475 127.14 54.235 126.975C55.96 126.075 57.19 124.845 57.85 123.795ZM51.7 123.765L52.72 122.535V130.215H51.7V123.765ZM49.795 119.265H53.875V120.255H49.795V119.265ZM51.655 116.49H52.675V119.805H51.655V116.49ZM52.585 122.61C52.975 123.03 54.4 124.785 54.715 125.22L54.055 125.985C53.665 125.28 52.48 123.66 52.015 123.09L52.585 122.61ZM53.485 119.265H53.695L53.89 119.205L54.475 119.58C53.575 122.325 51.745 124.98 50.02 126.48C49.9 126.21 49.615 125.715 49.435 125.52C51.055 124.215 52.75 121.785 53.485 119.49V119.265ZM54.34 121.995L55 122.475C54.595 123.12 54.115 123.84 53.725 124.305L53.2 123.9C53.56 123.39 54.07 122.55 54.34 121.995ZM64.84 118.065H69.475V119.07H64.84V118.065ZM64.78 124.095H71.125V125.085H64.78V124.095ZM67.525 122.49H68.56V130.185H67.525V122.49ZM68.455 125.49C68.965 125.82 70.735 127.2 71.155 127.56L70.495 128.43C69.985 127.845 68.485 126.525 67.87 126.03L68.455 125.49ZM67.57 124.47L68.38 124.95C67.645 126.57 66.28 128.4 65.02 129.435C64.885 129.15 64.615 128.73 64.39 128.505C65.59 127.68 66.925 126 67.57 124.47ZM66.805 116.4H67.765V117.495C67.765 119.28 67.525 121.53 65.17 123.24C65.02 123.015 64.645 122.7 64.405 122.55C66.595 121.02 66.805 119.01 66.805 117.48V116.4ZM72.205 121.95H78.1V122.925H72.205V121.95ZM72.205 125.055H78.145V126.03H72.205V125.055ZM72.235 128.445H78.43V129.48H72.235V128.445ZM72.91 116.355L73.93 116.61C73.33 118.38 72.355 120.105 71.335 121.23C71.14 121.05 70.69 120.75 70.435 120.615C71.485 119.565 72.385 117.975 72.91 116.355ZM75.94 116.445L77.05 116.73C76.66 117.69 76.165 118.785 75.76 119.475L74.83 119.205C75.22 118.47 75.7 117.285 75.94 116.445ZM72.865 118.845H78.235V119.88H72.865V130.185H71.83V119.325L72.265 118.845H72.865ZM74.935 119.295H75.985V128.79H74.935V119.295ZM68.965 118.065H69.925V121.515C69.925 121.74 69.94 121.89 69.985 121.935C70.015 121.98 70.075 121.995 70.15 121.995C70.225 121.995 70.375 121.995 70.465 121.995C70.555 121.995 70.645 121.98 70.705 121.965C70.735 121.935 70.795 121.89 70.825 121.785C70.855 121.68 70.885 121.44 70.9 121.125C71.065 121.275 71.335 121.41 71.575 121.485C71.545 121.83 71.5 122.235 71.425 122.4C71.35 122.55 71.23 122.655 71.08 122.715C70.945 122.79 70.705 122.82 70.525 122.82C70.375 122.82 70.06 122.82 69.925 122.82C69.655 122.82 69.385 122.745 69.205 122.595C69.025 122.415 68.965 122.19 68.965 121.44V118.065Z" fill="black"/>
<path d="M162.728 33.512H175.4V34.52H162.728V33.512ZM161.816 37.672H176.2V38.68H161.816V37.672ZM166.776 33.928H167.896V38.232H166.776V33.928ZM169.944 33.928H171.096V38.232H169.944V33.928ZM163.512 35.112L164.504 34.728C165.096 35.464 165.64 36.488 165.832 37.192L164.792 37.608C164.6 36.92 164.072 35.88 163.512 35.112ZM164.696 31.96L165.752 31.544C166.264 32.056 166.744 32.792 166.968 33.304L165.864 33.8C165.672 33.272 165.176 32.488 164.696 31.96ZM173.432 34.648L174.52 35.032C174.024 35.928 173.416 36.92 172.92 37.56L171.992 37.24C172.456 36.536 173.096 35.432 173.432 34.648ZM172.04 31.544L173.224 31.928C172.808 32.584 172.312 33.224 171.928 33.672L170.872 33.304C171.272 32.824 171.768 32.056 172.04 31.544ZM164.184 39.656H173.88V46.216H172.616V40.616H165.384V46.264H164.184V39.656ZM164.84 42.184H173.192V43.128H164.84V42.184ZM164.856 44.744H173.208V45.72H164.856V44.744ZM181.768 37.88V43.544H180.632V39H178.296V37.88H181.768ZM181.768 43.064C182.552 44.248 183.928 44.792 185.816 44.856C187.576 44.936 191.272 44.888 193.192 44.76C193.048 45.032 192.872 45.592 192.808 45.944C191.032 46.024 187.608 46.056 185.816 45.976C183.72 45.896 182.264 45.336 181.272 44.072C180.456 44.76 179.592 45.464 178.68 46.152L178.088 44.968C178.888 44.472 179.88 43.752 180.728 43.064H181.768ZM178.568 32.68L179.4 31.928C180.424 32.648 181.624 33.736 182.152 34.52L181.24 35.352C180.744 34.568 179.576 33.432 178.568 32.68ZM184.968 34.248L185.736 33.576C187.24 34.104 189.256 34.984 190.328 35.624L189.512 36.376C188.504 35.752 186.52 34.84 184.968 34.248ZM183.448 35.592H191.72V36.52H184.584V43.88H183.448V35.592ZM191.144 35.592H192.296V42.68C192.296 43.272 192.184 43.544 191.752 43.72C191.336 43.912 190.664 43.912 189.592 43.912C189.544 43.608 189.4 43.192 189.256 42.92C190.008 42.952 190.68 42.936 190.888 42.936C191.096 42.936 191.144 42.872 191.144 42.664V35.592ZM183.448 32.232H191.432V33.192H183.448V32.232ZM184.072 37.928H191.608V38.824H184.072V37.928ZM184.072 40.28H191.608V41.208H184.072V40.28ZM187.272 35.976H188.36V43.816H187.272V35.976ZM191.032 32.232H191.304L191.56 32.168L192.296 32.744C191.224 33.752 189.608 34.744 188.152 35.352C187.992 35.144 187.688 34.824 187.512 34.648C188.824 34.136 190.312 33.208 191.032 32.456V32.232Z" fill="black"/>
<path d="M187 93.997C187 100.07 182.075 104.994 176 104.994C169.926 104.994 165 100.07 165 93.997C165 87.9242 169.926 83 176 83C182.075 83 187 87.9242 187 93.997Z" fill="#4DCAFF"/>
<path d="M175.184 89.4409C175.057 89.3859 174.908 89.4226 174.822 89.5313C174.816 89.5387 174.224 90.2657 172.784 90.6579C172.31 90.7874 171.848 90.8528 171.412 90.8528C170.806 90.8528 170.459 90.7233 170.457 90.7227C170.329 90.6708 170.18 90.7141 170.099 90.8259C170.016 90.9383 170.02 91.0917 170.108 91.1998C170.152 91.253 171.196 92.5115 172.629 92.5115C172.844 92.5115 173.058 92.4828 173.267 92.426C175.011 91.9507 175.35 89.8551 175.364 89.7659C175.385 89.6297 175.311 89.4965 175.184 89.4409ZM181.891 90.7575C181.806 90.6469 181.658 90.6078 181.53 90.6604C181.526 90.6622 181.143 90.8168 180.469 90.8168C180.065 90.8168 179.639 90.7624 179.202 90.6549C177.754 90.2987 177.143 89.5863 177.138 89.5808C177.049 89.4733 176.901 89.4385 176.774 89.4971C176.647 89.5552 176.576 89.6914 176.601 89.8283C176.617 89.9168 177.009 92.0032 178.764 92.4352C178.954 92.4822 179.148 92.506 179.342 92.506C180.806 92.506 181.847 91.1864 181.89 91.1302C181.974 91.0196 181.974 90.8675 181.891 90.7575ZM171.11 89.1092C170.836 89.1092 170.587 88.9241 170.518 88.6467C170.437 88.3198 170.635 87.9887 170.96 87.9062C170.982 87.9007 173.156 87.3191 174.231 85.1704C174.382 84.8686 174.748 84.7458 175.051 84.8973C175.353 85.0482 175.475 85.4154 175.324 85.7172C173.991 88.3815 171.37 89.0634 171.259 89.0915C171.21 89.1037 171.159 89.1092 171.11 89.1092ZM180.889 89.1092C180.84 89.1092 180.791 89.1031 180.741 89.0908C180.63 89.0634 178.008 88.3809 176.676 85.7166C176.525 85.4148 176.647 85.0476 176.949 84.8967C177.25 84.7458 177.618 84.868 177.769 85.1698C178.844 87.3185 181.017 87.9001 181.04 87.9056C181.366 87.9893 181.564 88.3217 181.481 88.6479C181.41 88.9247 181.162 89.1092 180.889 89.1092ZM176 100.696C173.786 100.696 172.317 100.954 170.5 101.307C170.085 101.387 169.278 101.307 169.278 100.085C169.278 97.641 172.086 94.5863 176 94.5863C179.914 94.5863 182.722 97.641 182.722 100.085C182.722 101.307 181.915 101.387 181.5 101.307C179.683 100.954 178.214 100.696 176 100.696Z" fill="#664500"/>
<path d="M171.111 98.2739C171.111 98.2739 172.945 97.6629 176 97.6629C179.056 97.6629 180.889 98.2739 180.889 98.2739C180.889 98.2739 179.667 95.8301 176 95.8301C172.334 95.8301 171.111 98.2739 171.111 98.2739Z" fill="white"/>
<path d="M163.035 117.465H175.95V118.605H163.035V117.465ZM170.385 121.83L171.225 121.11C172.98 122.25 175.275 123.945 176.385 125.1L175.47 125.955C174.42 124.8 172.17 123.045 170.385 121.83ZM170.1 117.855L171.33 118.305C169.62 121.41 166.815 124.38 163.425 126.165C163.245 125.88 162.885 125.43 162.66 125.19C165.915 123.555 168.705 120.675 170.1 117.855ZM168.87 120.855L170.085 119.655V130.185H168.87V120.855ZM184.995 119.595H189.06V120.48H184.995V119.595ZM184.845 121.92H189.27V122.805H184.845V121.92ZM186.54 118.32H187.455V122.43H186.54V118.32ZM183.75 117.03H190.305V118.02H183.75V117.03ZM185.535 123.945H188.97V127.83H185.535V126.96H188.1V124.8H185.535V123.945ZM185.07 123.945H185.925V128.415H185.07V123.945ZM189.885 117.03H190.935V128.79C190.935 129.45 190.8 129.81 190.38 129.99C189.96 130.185 189.21 130.2 188.085 130.2C188.04 129.9 187.905 129.39 187.74 129.075C188.565 129.12 189.345 129.105 189.6 129.09C189.825 129.09 189.885 129.03 189.885 128.79V117.03ZM183.18 117.03H184.215V122.415C184.215 124.77 184.05 128.085 182.79 130.305C182.61 130.11 182.16 129.795 181.905 129.675C183.09 127.59 183.18 124.635 183.18 122.415V117.03ZM178.185 120.945H182.04V121.845H178.185V120.945ZM178.275 116.94H181.995V117.84H178.275V116.94ZM178.185 122.955H182.04V123.855H178.185V122.955ZM177.57 118.905H182.415V119.835H177.57V118.905ZM178.71 124.98H182.025V129.345H178.71V128.415H181.08V125.91H178.71V124.98ZM178.155 124.98H179.085V130.05H178.155V124.98Z" fill="black"/>
<g clip-path="url(#clip0_1649_11918)">
<path d="M75 11C75 17.0751 70.0751 22 64 22C57.9256 22 53 17.0751 53 11C53 4.92556 57.9256 0 64 0C70.0751 0 75 4.92556 75 11Z" fill="#BDFF00"/>
<path d="M70.7221 16.4998C72.4096 16.4998 73.7776 15.1318 73.7776 13.4442C73.7776 11.7567 72.4096 10.3887 70.7221 10.3887C69.0345 10.3887 67.6665 11.7567 67.6665 13.4442C67.6665 15.1318 69.0345 16.4998 70.7221 16.4998Z" fill="#FFDEEC"/>
<path d="M57.2777 16.4998C58.9653 16.4998 60.3333 15.1318 60.3333 13.4442C60.3333 11.7567 58.9653 10.3887 57.2777 10.3887C55.5902 10.3887 54.2222 11.7567 54.2222 13.4442C54.2222 15.1318 55.5902 16.4998 57.2777 16.4998Z" fill="#FFDEEC"/>
<path d="M70.7223 8.55568C70.642 8.55576 70.5626 8.53999 70.4884 8.50926C70.4143 8.47853 70.3469 8.43345 70.2903 8.37662C68.7154 6.80301 65.9789 7.31573 65.952 7.32184C65.8733 7.33766 65.7922 7.33775 65.7135 7.3221C65.6347 7.30645 65.5598 7.27539 65.4932 7.23068C65.4265 7.18598 65.3693 7.12852 65.3249 7.06163C65.2805 6.99473 65.2498 6.91972 65.2345 6.8409C65.2029 6.68231 65.2355 6.51764 65.3252 6.3831C65.415 6.24856 65.5545 6.15517 65.713 6.12346C65.8518 6.09535 69.1126 5.47262 71.1538 7.51251C71.2395 7.59783 71.2979 7.70667 71.3216 7.82524C71.3454 7.94381 71.3334 8.06676 71.2872 8.17851C71.241 8.29025 71.1626 8.38576 71.062 8.45291C70.9615 8.52005 70.8432 8.55582 70.7223 8.55568ZM57.2779 8.55568C57.1569 8.55595 57.0386 8.52026 56.9379 8.45316C56.8372 8.38606 56.7588 8.29056 56.7125 8.17879C56.6662 8.06702 56.6541 7.94401 56.6779 7.82539C56.7016 7.70676 56.7601 7.59786 56.8458 7.51251C58.8869 5.47079 62.149 6.09596 62.2865 6.12346C62.4455 6.15514 62.5854 6.24869 62.6754 6.38353C62.7655 6.51836 62.7982 6.68343 62.7666 6.84243C62.7349 7.00143 62.6413 7.14132 62.5065 7.23135C62.3717 7.32137 62.2066 7.35414 62.0476 7.32246C62.0054 7.31329 59.2799 6.80729 57.7099 8.37723C57.5952 8.49162 57.4398 8.55581 57.2779 8.55568ZM68.889 11.6112C68.8087 11.6113 68.7292 11.5955 68.6551 11.5648C68.5809 11.5341 68.5136 11.489 68.4569 11.4322C67.66 10.6347 65.9575 10.837 65.3696 10.9824C65.2123 11.0215 65.0459 10.9966 64.907 10.913C64.7681 10.8295 64.6681 10.6942 64.6289 10.5369C64.5898 10.3796 64.6147 10.2132 64.6983 10.0743C64.7818 9.9354 64.9171 9.83538 65.0744 9.79623C65.1881 9.76812 67.8703 9.11729 69.321 10.5681C69.4068 10.6534 69.4652 10.7623 69.489 10.8809C69.5127 10.9996 69.5007 11.1226 69.4544 11.2343C69.4081 11.3461 69.3296 11.4416 69.2289 11.5087C69.1283 11.5758 69.01 11.6115 68.889 11.6112ZM59.1112 11.6112C58.9902 11.6115 58.8719 11.5758 58.7712 11.5087C58.6706 11.4416 58.5921 11.3461 58.5458 11.2343C58.4995 11.1226 58.4875 10.9996 58.5112 10.8809C58.535 10.7623 58.5934 10.6534 58.6791 10.5681C60.1293 9.1179 62.8127 9.76812 62.9264 9.79623C63.0837 9.83538 63.219 9.9354 63.3025 10.0743C63.3861 10.2132 63.411 10.3796 63.3719 10.5369C63.3327 10.6942 63.2327 10.8295 63.0938 10.913C62.9549 10.9966 62.7885 11.0215 62.6312 10.9824C62.0421 10.8376 60.3401 10.6359 59.5439 11.4322C59.487 11.489 59.4196 11.534 59.3453 11.5647C59.2711 11.5955 59.1915 11.6113 59.1112 11.6112Z" fill="#664500"/>
<path d="M60.9443 15.2778C60.9443 15.2778 61.5554 17.7223 63.9999 17.7223C66.4443 17.7223 67.0554 15.2778 67.0554 15.2778C67.0554 15.2778 66.4443 15.8889 63.9999 15.8889C61.5554 15.8889 60.9443 15.2778 60.9443 15.2778Z" fill="#664500"/>
<path d="M63.9999 18.0278C61.3477 18.0278 60.6547 15.3786 60.648 15.3517C60.6323 15.2876 60.6377 15.2202 60.6634 15.1594C60.6891 15.0987 60.7338 15.0479 60.7907 15.0146C60.8477 14.9812 60.9138 14.9672 60.9794 14.9746C61.045 14.9819 61.1064 15.0102 61.1546 15.0553C61.1784 15.0761 61.806 15.5833 63.9999 15.5833C66.2268 15.5833 66.8397 15.0608 66.8459 15.0559C66.8951 15.0123 66.9569 14.9853 67.0223 14.9787C67.0878 14.9721 67.1537 14.9863 67.2107 15.0193C67.2668 15.0521 67.3109 15.1022 67.3363 15.1621C67.3618 15.222 67.3672 15.2885 67.3519 15.3517C67.3451 15.3786 66.6521 18.0278 63.9999 18.0278ZM61.5243 15.8938C61.8769 16.544 62.609 17.4167 63.9999 17.4167C65.3908 17.4167 66.1235 16.544 66.4755 15.8938C65.9744 16.0514 65.1916 16.1944 63.9999 16.1944C62.8082 16.1944 62.0254 16.0514 61.5243 15.8938Z" fill="#664500"/>
</g>
<path d="M176 22C182.075 22 187 17.0751 187 11C187 4.92487 182.075 0 176 0C169.925 0 165 4.92487 165 11C165 17.0751 169.925 22 176 22Z" fill="#FFF95D"/>
<path d="M171.426 14.4351C171.454 14.5444 172.14 17.1104 176 17.1104C179.861 17.1104 180.547 14.5444 180.575 14.4351C180.608 14.3025 180.548 14.165 180.43 14.0966C180.311 14.0288 180.161 14.0489 180.063 14.1436C180.051 14.1552 178.869 15.2776 176 15.2776C173.132 15.2776 171.949 14.1552 171.938 14.1443C171.879 14.0862 171.801 14.0557 171.723 14.0557C171.671 14.0557 171.619 14.0685 171.572 14.0948C171.453 14.1632 171.393 14.3019 171.426 14.4351Z" fill="#664500"/>
<path d="M172.333 10.3891C173.177 10.3891 173.861 9.43149 173.861 8.25022C173.861 7.06894 173.177 6.11133 172.333 6.11133C171.49 6.11133 170.806 7.06894 170.806 8.25022C170.806 9.43149 171.49 10.3891 172.333 10.3891Z" fill="#664500"/>
<path d="M179.667 10.3891C180.511 10.3891 181.195 9.43149 181.195 8.25022C181.195 7.06894 180.511 6.11133 179.667 6.11133C178.823 6.11133 178.139 7.06894 178.139 8.25022C178.139 9.43149 178.823 10.3891 179.667 10.3891Z" fill="#664500"/>
<defs>
<clipPath id="clip0_1649_11918">
<rect width="22" height="22" fill="white" transform="translate(53)"/>
</clipPath>
</defs>
</svg>
