<svg width="189" height="180" viewBox="0 0 189 180" fill="none" xmlns="http://www.w3.org/2000/svg">
<mask id="path-1-inside-1_1016_10489" fill="white">
<path d="M8 13C8 10.2386 10.2386 8 13 8H176C178.761 8 181 10.2386 181 13V180H8V13Z"/>
</mask>
<path d="M8 13C8 10.2386 10.2386 8 13 8H176C178.761 8 181 10.2386 181 13V180H8V13Z" fill="#EEFEFF"/>
<path d="M7 13C7 9.68629 9.68629 7 13 7H176C179.314 7 182 9.68629 182 13H180C180 10.7909 178.209 9 176 9H13C10.7909 9 9 10.7909 9 13H7ZM181 180H8H181ZM7 180V13C7 9.68629 9.68629 7 13 7V9C10.7909 9 9 10.7909 9 13V180H7ZM176 7C179.314 7 182 9.68629 182 13V180H180V13C180 10.7909 178.209 9 176 9V7Z" fill="#D9D9D9" mask="url(#path-1-inside-1_1016_10489)"/>
<mask id="path-3-inside-2_1016_10489" fill="white">
<path d="M0 8C0 3.58172 3.58172 0 8 0H181C185.418 0 189 3.58172 189 8V180H0V8Z"/>
</mask>
<path d="M-3 8C-3 1.92487 1.92487 -3 8 -3H181C187.075 -3 192 1.92487 192 8H186C186 5.23858 183.761 3 181 3H8C5.23858 3 3 5.23858 3 8H-3ZM189 180H0H189ZM-3 180V8C-3 1.92487 1.92487 -3 8 -3V3C5.23858 3 3 5.23858 3 8V180H-3ZM181 -3C187.075 -3 192 1.92487 192 8V180H186V8C186 5.23858 183.761 3 181 3V-3Z" fill="#A29C9C" fill-opacity="0.5" mask="url(#path-3-inside-2_1016_10489)"/>
<path d="M9 13C9 10.7909 10.7909 9 13 9H176C178.209 9 180 10.7909 180 13V31H9V13Z" fill="#04CAD6"/>
<rect x="18.5" y="13.5" width="25.4615" height="12.2" rx="4.5" fill="#04CAD6"/>
<rect x="18.5" y="13.5" width="25.4615" height="12.2" rx="4.5" stroke="white"/>
<path d="M22.6464 20.3536C22.4512 20.1583 22.4512 19.8417 22.6464 19.6464L25.8284 16.4645C26.0237 16.2692 26.3403 16.2692 26.5355 16.4645C26.7308 16.6597 26.7308 16.9763 26.5355 17.1716L23.7071 20L26.5355 22.8284C26.7308 23.0237 26.7308 23.3403 26.5355 23.5355C26.3403 23.7308 26.0237 23.7308 25.8284 23.5355L22.6464 20.3536ZM24 20.5L23 20.5L23 19.5L24 19.5L24 20.5Z" fill="white"/>
<path d="M31.76 19.848H34.724V20.116H31.76V19.848ZM33.376 19.996C33.576 20.612 34.056 20.944 34.864 21.056C34.796 21.12 34.716 21.244 34.68 21.324C33.824 21.168 33.34 20.78 33.1 20.048L33.376 19.996ZM33.044 19.336H33.348C33.28 20.408 33.08 21.04 31.812 21.332C31.784 21.26 31.704 21.144 31.648 21.088C32.832 20.836 32.984 20.292 33.044 19.336ZM31.596 18.432H31.896V19.252C31.896 19.844 31.82 20.684 31.372 21.256C31.32 21.204 31.188 21.12 31.112 21.088C31.548 20.552 31.596 19.792 31.596 19.244V18.432ZM31.744 18.432H34.488V19.376H31.744V19.136H34.192V18.668H31.744V18.432ZM31.32 17.864H34.7V18.14H31.32V17.864ZM35.952 18.056C36.04 18.064 36.152 18.068 36.232 18.068C36.444 18.068 37.392 18.04 37.604 18.02C37.724 18.008 37.78 18 37.824 17.984L38.008 18.22C37.936 18.268 37.856 18.32 37.78 18.38C37.584 18.532 37.04 19 36.728 19.256C36.912 19.196 37.104 19.176 37.284 19.176C37.948 19.176 38.424 19.572 38.424 20.112C38.424 20.756 37.892 21.176 37.044 21.176C36.5 21.176 36.168 20.94 36.168 20.604C36.168 20.332 36.416 20.084 36.784 20.084C37.316 20.084 37.584 20.46 37.612 20.864L37.324 20.912C37.3 20.572 37.104 20.328 36.784 20.328C36.6 20.328 36.46 20.44 36.46 20.58C36.46 20.776 36.68 20.892 36.996 20.892C37.676 20.892 38.104 20.612 38.104 20.112C38.104 19.716 37.728 19.424 37.204 19.424C36.54 19.424 36.18 19.704 35.676 20.22L35.444 19.988C35.776 19.716 36.292 19.284 36.52 19.088C36.744 18.904 37.248 18.484 37.448 18.304C37.236 18.316 36.436 18.348 36.228 18.36C36.136 18.368 36.048 18.372 35.96 18.384L35.952 18.056Z" fill="white"/>
<path d="M68.352 23V22.576C70.192 20.968 71.032 19.792 71.032 18.792C71.032 18.12 70.688 17.624 69.96 17.624C69.48 17.624 69.064 17.92 68.736 18.304L68.312 17.896C68.792 17.376 69.304 17.032 70.048 17.032C71.096 17.032 71.752 17.712 71.752 18.76C71.752 19.936 70.832 21.128 69.448 22.432C69.76 22.4 70.112 22.376 70.408 22.376H72.032V23H68.352ZM74.6615 23.112C73.5415 23.112 72.8295 22.096 72.8295 20.048C72.8295 18.016 73.5415 17.032 74.6615 17.032C75.7655 17.032 76.4775 18.016 76.4775 20.048C76.4775 22.096 75.7655 23.112 74.6615 23.112ZM74.6615 22.52C75.3255 22.52 75.7735 21.776 75.7735 20.048C75.7735 18.344 75.3255 17.616 74.6615 17.616C73.9895 17.616 73.5335 18.344 73.5335 20.048C73.5335 21.776 73.9895 22.52 74.6615 22.52ZM77.227 23V22.576C79.067 20.968 79.907 19.792 79.907 18.792C79.907 18.12 79.563 17.624 78.835 17.624C78.355 17.624 77.939 17.92 77.611 18.304L77.187 17.896C77.667 17.376 78.179 17.032 78.923 17.032C79.971 17.032 80.627 17.712 80.627 18.76C80.627 19.936 79.707 21.128 78.323 22.432C78.635 22.4 78.987 22.376 79.283 22.376H80.907V23H77.227ZM83.4165 23.112C82.4965 23.112 81.9285 22.728 81.5445 22.304L81.9125 21.824C82.2565 22.184 82.6965 22.504 83.3685 22.504C84.0645 22.504 84.5605 22.08 84.5605 21.408C84.5605 20.704 84.0885 20.24 82.7365 20.24V19.672C83.9445 19.672 84.3525 19.192 84.3525 18.552C84.3525 17.992 83.9765 17.624 83.3685 17.624C82.8965 17.624 82.4805 17.864 82.1525 18.2L81.7605 17.728C82.2005 17.328 82.7205 17.032 83.3925 17.032C84.3765 17.032 85.0965 17.568 85.0965 18.504C85.0965 19.216 84.6805 19.688 84.0565 19.912V19.944C84.7445 20.112 85.3045 20.632 85.3045 21.44C85.3045 22.48 84.4645 23.112 83.4165 23.112ZM85.838 24.432L88.238 16.648H88.758L86.366 24.432H85.838ZM89.5868 23V22.392H90.8908V18.024H89.8428V17.552C90.3708 17.464 90.7468 17.328 91.0588 17.136H91.6188V22.392H92.8028V23H89.5868ZM95.5443 23.112C94.4243 23.112 93.7123 22.096 93.7123 20.048C93.7123 18.016 94.4243 17.032 95.5443 17.032C96.6483 17.032 97.3603 18.016 97.3603 20.048C97.3603 22.096 96.6483 23.112 95.5443 23.112ZM95.5443 22.52C96.2083 22.52 96.6563 21.776 96.6563 20.048C96.6563 18.344 96.2083 17.616 95.5443 17.616C94.8723 17.616 94.4163 18.344 94.4163 20.048C94.4163 21.776 94.8723 22.52 95.5443 22.52ZM97.8458 24.432L100.246 16.648H100.766L98.3738 24.432H97.8458ZM101.595 23V22.392H102.899V18.024H101.851V17.552C102.379 17.464 102.755 17.328 103.067 17.136H103.627V22.392H104.811V23H101.595ZM107.552 23.112C106.432 23.112 105.72 22.096 105.72 20.048C105.72 18.016 106.432 17.032 107.552 17.032C108.656 17.032 109.368 18.016 109.368 20.048C109.368 22.096 108.656 23.112 107.552 23.112ZM107.552 22.52C108.216 22.52 108.664 21.776 108.664 20.048C108.664 18.344 108.216 17.616 107.552 17.616C106.88 17.616 106.424 18.344 106.424 20.048C106.424 21.776 106.88 22.52 107.552 22.52ZM111.678 24.576C110.934 23.376 110.494 22.096 110.494 20.52C110.494 18.952 110.934 17.656 111.678 16.456L112.126 16.672C111.438 17.808 111.102 19.16 111.102 20.52C111.102 21.88 111.438 23.232 112.126 24.368L111.678 24.576ZM114.077 17.904L114.669 18.032C114.533 18.992 114.261 19.968 113.549 20.512L113.029 20.16C113.669 19.672 113.949 18.8 114.077 17.904ZM119.101 17.896L119.749 18.152C119.357 18.904 118.845 19.808 118.437 20.384L117.933 20.152C118.325 19.56 118.829 18.592 119.101 17.896ZM116.429 16.4H116.749V18.992C116.749 19.912 117.317 22.12 120.093 23.096C119.965 23.232 119.781 23.48 119.693 23.656C117.373 22.768 116.589 20.928 116.429 20.152C116.269 20.936 115.541 22.72 113.269 23.656C113.189 23.52 112.989 23.28 112.853 23.152C115.549 22.128 116.109 19.92 116.109 18.992V16.4H116.429ZM121.261 24.576L120.805 24.368C121.493 23.232 121.829 21.88 121.829 20.52C121.829 19.16 121.493 17.808 120.805 16.672L121.261 16.456C121.997 17.656 122.437 18.952 122.437 20.52C122.437 22.096 121.997 23.376 121.261 24.576Z" fill="white"/>
<path d="M158.513 23V22.629C160.123 21.222 160.858 20.193 160.858 19.318C160.858 18.73 160.557 18.296 159.92 18.296C159.5 18.296 159.136 18.555 158.849 18.891L158.478 18.534C158.898 18.079 159.346 17.778 159.997 17.778C160.914 17.778 161.488 18.373 161.488 19.29C161.488 20.319 160.683 21.362 159.472 22.503C159.745 22.475 160.053 22.454 160.312 22.454H161.733V23H158.513ZM163.915 23.098C163.117 23.098 162.627 22.762 162.277 22.412L162.599 21.992C162.886 22.293 163.264 22.566 163.852 22.566C164.461 22.566 164.944 22.097 164.944 21.355C164.944 20.62 164.524 20.179 163.887 20.179C163.544 20.179 163.327 20.291 163.033 20.487L162.69 20.27L162.851 17.869H165.35V18.415H163.411L163.278 19.899C163.509 19.773 163.74 19.696 164.048 19.696C164.902 19.696 165.595 20.2 165.595 21.334C165.595 22.454 164.776 23.098 163.915 23.098ZM167.28 19.661C166.755 19.661 166.293 19.269 166.293 18.667C166.293 18.051 166.755 17.659 167.28 17.659C167.805 17.659 168.267 18.051 168.267 18.667C168.267 19.269 167.805 19.661 167.28 19.661ZM167.28 19.297C167.623 19.297 167.875 19.031 167.875 18.667C167.875 18.289 167.623 18.023 167.28 18.023C166.93 18.023 166.692 18.289 166.692 18.667C166.692 19.031 166.93 19.297 167.28 19.297ZM171.116 23.098C169.814 23.098 168.862 22.118 168.862 20.452C168.862 18.793 169.835 17.792 171.144 17.792C171.76 17.792 172.25 18.093 172.551 18.422L172.18 18.842C171.907 18.555 171.578 18.373 171.158 18.373C170.185 18.373 169.555 19.164 169.555 20.431C169.555 21.712 170.157 22.503 171.13 22.503C171.613 22.503 171.97 22.307 172.292 21.95L172.67 22.356C172.264 22.832 171.76 23.098 171.116 23.098Z" fill="white"/>
<path d="M143.709 15V16.4002M147.04 16.375L146.047 17.365M148.418 19.6979H147.014M147.04 23.0208L146.047 22.0308M143.709 24.3958V22.9956M140.378 23.0208L141.371 22.0308M139 19.6979H140.403M140.378 16.375L141.371 17.365M143.709 17.1771C144.209 17.1771 144.697 17.3249 145.113 17.6019C145.528 17.8789 145.852 18.2726 146.043 18.7332C146.234 19.1939 146.285 19.7007 146.187 20.1897C146.09 20.6787 145.849 21.1279 145.496 21.4804C145.142 21.833 144.692 22.073 144.202 22.1703C143.712 22.2676 143.204 22.2177 142.742 22.0269C142.28 21.8361 141.886 21.513 141.608 21.0984C141.33 20.6839 141.182 20.1965 141.182 19.6979C141.182 19.0293 141.448 18.3882 141.922 17.9154C142.396 17.4427 143.039 17.1771 143.709 17.1771Z" stroke="white" stroke-width="0.520833" stroke-linecap="round" stroke-linejoin="round"/>
<path d="M146.155 19.7738C146.155 21.2318 145.174 22.04 143.85 22.26C142.389 22.26 141.204 21.2318 141.204 19.7738C141.204 18.3158 142.389 17.1338 143.85 17.1338C145.312 17.1338 146.155 18.3158 146.155 19.7738Z" fill="white"/>
<rect x="16.5781" y="41.8311" width="155.368" height="16.5789" rx="4.26316" fill="#00ABB6"/>
<g filter="url(#filter0_d_1016_10489)">
<rect x="88.5781" y="42.8062" width="81.9474" height="14.2105" rx="4.26316" fill="white"/>
</g>
<path d="M127.618 48.3999C127.748 48.5875 127.936 48.9054 128.04 49.1138L127.759 49.244C127.654 49.0304 127.477 48.7178 127.337 48.5198L127.618 48.3999ZM128.186 48.1915C128.327 48.3843 128.525 48.7074 128.624 48.9001L128.342 49.0252C128.228 48.8011 128.061 48.5041 127.915 48.3114L128.186 48.1915ZM127.962 49.4368C127.92 49.515 127.868 49.6348 127.842 49.7182C127.701 50.2393 127.378 50.9479 126.92 51.5106C126.446 52.089 125.82 52.5684 124.841 52.9279L124.466 52.5892C125.424 52.3078 126.07 51.8337 126.545 51.2814C126.951 50.802 127.269 50.1298 127.378 49.6557H125.445L125.612 49.2805C125.825 49.2805 127.112 49.2805 127.274 49.2805C127.415 49.2805 127.529 49.2649 127.618 49.2284L127.962 49.4368ZM126.216 48.65C126.133 48.7855 126.039 48.9627 125.987 49.0617C125.68 49.6348 125.132 50.3799 124.299 50.9375L123.934 50.6665C124.835 50.1298 125.346 49.3743 125.575 48.9054C125.627 48.8168 125.706 48.624 125.737 48.4937L126.216 48.65ZM130.046 48.6917C130.181 48.7074 130.343 48.7178 130.51 48.7178C130.791 48.7178 132.255 48.7178 132.563 48.7178C132.724 48.7178 132.907 48.7074 133.032 48.6917V49.1242C132.912 49.1138 132.729 49.1086 132.552 49.1086C132.26 49.1086 130.796 49.1086 130.51 49.1086C130.353 49.1086 130.187 49.1138 130.046 49.1242V48.6917ZM133.417 50.0621C133.391 50.1142 133.355 50.1767 133.344 50.2184C133.209 50.729 132.974 51.2709 132.584 51.6982C132.042 52.2974 131.385 52.5996 130.723 52.7872L130.4 52.4173C131.135 52.2661 131.786 51.9275 132.234 51.4585C132.547 51.1303 132.755 50.6874 132.849 50.307C132.594 50.307 130.4 50.307 130.088 50.307C129.963 50.307 129.765 50.3122 129.577 50.3278V49.8901C129.765 49.9058 129.942 49.9214 130.088 49.9214C130.343 49.9214 132.563 49.9214 132.828 49.9214C132.948 49.9214 133.063 49.9058 133.12 49.8797L133.417 50.0621ZM138.539 49.1086C138.503 49.1815 138.482 49.2649 138.461 49.3691C138.346 49.9162 138.096 50.7551 137.679 51.2918C137.205 51.9014 136.585 52.386 135.632 52.683L135.277 52.2922C136.288 52.0421 136.872 51.5992 137.309 51.0417C137.679 50.5675 137.919 49.8433 137.992 49.343C137.69 49.343 135.626 49.343 135.324 49.343C135.116 49.343 134.939 49.3535 134.808 49.3587V48.8949C134.949 48.9158 135.158 48.9314 135.329 48.9314C135.626 48.9314 137.705 48.9314 137.94 48.9314C138.018 48.9314 138.122 48.9262 138.221 48.9054L138.539 49.1086Z" fill="#00ABB6"/>
<path d="M40.7066 48.5458H44.1195V52.907H43.7079V48.9418H41.1078V52.9279H40.7066V48.5458ZM40.9723 50.3539H43.8798V50.7395H40.9723V50.3539ZM40.9671 52.1984H43.8902V52.5892H40.9671V52.1984ZM47.7408 50.1871H49.5384V50.5571H47.7408V50.1871ZM47.5689 50.1871H47.9597V52.313C47.9597 52.5163 48.017 52.5579 48.3036 52.5579C48.439 52.5579 49.1164 52.5579 49.2936 52.5579C49.5749 52.5579 49.6166 52.4225 49.6479 51.6982C49.7417 51.7659 49.9084 51.8337 50.0178 51.8597C49.9605 52.6986 49.8407 52.9331 49.3196 52.9331C49.1893 52.9331 48.3921 52.9331 48.2723 52.9331C47.7304 52.9331 47.5689 52.808 47.5689 52.3078V50.1871ZM47.5116 48.4885H49.7417V50.8489H49.3457V48.8585H47.5116V48.4885ZM45.443 49.7703H47.0687V50.0829H45.443V49.7703ZM45.4742 48.3791H47.0895V48.6917H45.4742V48.3791ZM45.443 50.4685H47.0687V50.7811H45.443V50.4685ZM45.1981 49.0617H47.2719V49.3847H45.1981V49.0617ZM45.6253 51.1719H47.053V52.6934H45.6253V52.3651H46.7039V51.495H45.6253V51.1719ZM45.4378 51.1719H45.7869V52.9331H45.4378V51.1719ZM52.5084 49.1919H55.1502V49.5515H52.5084V49.1919ZM52.6074 50.234H55.0408V50.5884H52.6074V50.234ZM52.3469 51.3283H55.2231V51.693H52.3469V51.3283ZM53.6079 49.317H53.9882V52.9852H53.6079V49.317ZM54.5406 48.1863L54.9209 48.3114C54.7646 48.6292 54.5874 48.9939 54.4363 49.2284L54.1341 49.119C54.2696 48.8689 54.4468 48.4625 54.5406 48.1863ZM52.7325 48.3374L53.0503 48.2228C53.2275 48.4989 53.3994 48.8689 53.462 49.1086L53.1233 49.244C53.066 48.9991 52.8992 48.6188 52.7325 48.3374ZM50.6535 49.7703H52.2062V50.0829H50.6535V49.7703ZM50.6796 48.3791H52.1958V48.6917H50.6796V48.3791ZM50.6535 50.4685H52.2062V50.7811H50.6535V50.4685ZM50.4086 49.0617H52.3886V49.3847H50.4086V49.0617ZM50.8411 51.1719H52.2062V52.6934H50.8411V52.3651H51.8623V51.495H50.8411V51.1719ZM50.6483 51.1719H50.987V52.9331H50.6483V51.1719ZM58.8288 48.7699H59.1779V52.4954H58.8288V48.7699ZM57.7971 48.6084H60.2617V52.881H59.897V48.9731H58.1514V52.9227H57.7971V48.6084ZM57.9899 50.4164H60.0585V50.7759H57.9899V50.4164ZM57.9899 52.2766H60.0429V52.6361H57.9899V52.2766ZM56.4997 50.6457H56.8488V52.98H56.4997V50.6457ZM56.4476 48.1915L56.7967 48.3322C56.5987 48.7178 56.3434 49.1815 56.1402 49.4733L55.864 49.3483C56.0672 49.046 56.3121 48.5406 56.4476 48.1915ZM57.0885 48.7907L57.422 48.9523C57.0572 49.5306 56.5414 50.2705 56.1402 50.7186L55.8953 50.5779C56.2965 50.1194 56.8019 49.343 57.0885 48.7907ZM55.6139 49.3066L55.8119 49.046C56.0933 49.2805 56.4163 49.614 56.557 49.838L56.3486 50.1403C56.2131 49.9006 55.8901 49.5463 55.6139 49.3066ZM56.9426 49.9839L57.2396 49.8537C57.4689 50.1924 57.6981 50.6405 57.7867 50.9323L57.4741 51.0834C57.3907 50.7916 57.1667 50.3278 56.9426 49.9839ZM55.5774 50.4946C56.0516 50.4685 56.755 50.4216 57.4532 50.3695L57.4584 50.6874C56.8071 50.7447 56.1402 50.8072 55.6348 50.8541L55.5774 50.4946ZM57.0364 51.2449L57.3386 51.1511C57.4897 51.4689 57.6356 51.8858 57.6981 52.1619L57.3699 52.2714C57.323 51.9952 57.1823 51.5679 57.0364 51.2449ZM55.9005 51.1667L56.2392 51.2293C56.1714 51.719 56.0464 52.2245 55.8849 52.5579C55.8171 52.5163 55.6608 52.4433 55.5722 52.412C55.7442 52.0942 55.8432 51.6253 55.9005 51.1667Z" fill="white"/>
<g filter="url(#filter1_d_1016_10489)">
<rect x="9" y="68.3579" width="171" height="101.262" rx="2.26747" fill="#FBFBFB"/>
</g>
<path d="M88.2171 140.677C87.6956 140.677 87.3736 140.46 87.1559 140.219L87.3645 139.947C87.5595 140.151 87.809 140.333 88.1899 140.333C88.5844 140.333 88.8656 140.092 88.8656 139.711C88.8656 139.312 88.598 139.049 87.8316 139.049V138.727C88.5164 138.727 88.7477 138.455 88.7477 138.092C88.7477 137.775 88.5346 137.566 88.1899 137.566C87.9223 137.566 87.6865 137.702 87.5006 137.893L87.2784 137.625C87.5278 137.398 87.8226 137.231 88.2035 137.231C88.7613 137.231 89.1694 137.535 89.1694 138.065C89.1694 138.469 88.9336 138.736 88.5799 138.863V138.881C88.9699 138.977 89.2874 139.271 89.2874 139.729C89.2874 140.319 88.8112 140.677 88.2171 140.677ZM90.1204 140.614V140.269H90.8596V137.793H90.2655V137.525C90.5648 137.476 90.7779 137.398 90.9548 137.29H91.2722V140.269H91.9434V140.614H90.1204ZM93.044 140.677C92.8807 140.677 92.7492 140.546 92.7492 140.36C92.7492 140.169 92.8807 140.042 93.044 140.042C93.2118 140.042 93.3478 140.169 93.3478 140.36C93.3478 140.546 93.2118 140.677 93.044 140.677ZM94.7551 140.614C94.8141 139.358 95.0408 138.55 95.6938 137.643H94.0839V137.29H96.1609V137.539C95.3809 138.541 95.2404 139.317 95.1859 140.614H94.7551ZM97.4883 139.326C97.0302 139.326 96.7309 138.945 96.7309 138.274C96.7309 137.607 97.0302 137.231 97.4883 137.231C97.9463 137.231 98.2456 137.607 98.2456 138.274C98.2456 138.945 97.9463 139.326 97.4883 139.326ZM97.4883 139.072C97.7513 139.072 97.9282 138.8 97.9282 138.274C97.9282 137.743 97.7513 137.485 97.4883 137.485C97.2252 137.485 97.0438 137.743 97.0438 138.274C97.0438 138.8 97.2252 139.072 97.4883 139.072ZM97.5835 140.677L99.4156 137.231H99.6968L97.8647 140.677H97.5835ZM99.8056 140.677C99.3476 140.677 99.0483 140.296 99.0483 139.621C99.0483 138.959 99.3476 138.578 99.8056 138.578C100.255 138.578 100.558 138.959 100.558 139.621C100.558 140.296 100.255 140.677 99.8056 140.677ZM99.8056 140.423C100.064 140.423 100.246 140.151 100.246 139.621C100.246 139.09 100.064 138.836 99.8056 138.836C99.5426 138.836 99.3612 139.09 99.3612 139.621C99.3612 140.151 99.5426 140.423 99.8056 140.423Z" fill="black"/>
<path d="M83.0713 131.286C83.0713 131.471 83.2194 131.619 83.4099 131.619C83.5951 131.619 83.7485 131.471 83.7485 131.286C83.7485 131.095 83.5951 130.942 83.4099 130.942C83.2194 130.942 83.0713 131.095 83.0713 131.286ZM82.8332 131.286C82.8332 130.963 83.0871 130.704 83.4099 130.704C83.7273 130.704 83.9919 130.963 83.9919 131.286C83.9919 131.603 83.7273 131.863 83.4099 131.863C83.0871 131.863 82.8332 131.603 82.8332 131.286ZM81.9443 131.117C81.9338 131.191 81.9126 131.381 81.9126 131.492C81.9126 131.773 81.9126 132.217 81.9126 132.476C81.9126 132.905 81.9126 134.619 81.9126 135C81.9126 135.275 81.7803 135.418 81.4576 135.418C81.2354 135.418 80.9232 135.407 80.7063 135.381L80.6693 134.963C80.9021 135.005 81.1401 135.021 81.283 135.021C81.4258 135.021 81.484 134.963 81.484 134.82C81.4893 134.534 81.4893 132.725 81.4893 132.476C81.4893 132.296 81.4893 131.773 81.4893 131.492C81.4893 131.376 81.4682 131.196 81.4523 131.117H81.9443ZM79.5688 132.005C79.7169 132.027 79.8492 132.037 80.0132 132.037C80.3254 132.037 82.9972 132.037 83.3146 132.037C83.4363 132.037 83.6109 132.027 83.7432 132.011V132.45C83.6056 132.439 83.4469 132.434 83.3199 132.434C83.0025 132.434 80.3412 132.434 80.0185 132.434C79.8545 132.434 79.7063 132.439 79.5688 132.455V132.005ZM80.7857 133.254C80.5582 133.704 80.0661 134.381 79.7645 134.704L79.3995 134.455C79.754 134.132 80.2037 133.503 80.41 133.074L80.7857 133.254ZM82.9919 133.074C83.2776 133.413 83.6956 134.074 83.9072 134.46L83.521 134.677C83.3094 134.259 82.9125 133.603 82.6321 133.27L82.9919 133.074ZM88.3726 131.244C88.5049 131.439 88.743 131.815 88.8647 132.069L88.5631 132.206C88.4308 131.926 88.2509 131.609 88.0763 131.37L88.3726 131.244ZM89.0604 130.99C89.2033 131.175 89.4414 131.556 89.5683 131.799L89.2668 131.937C89.1292 131.661 88.944 131.355 88.7694 131.122L89.0604 130.99ZM86.1082 131.164C86.4203 131.339 87.0288 131.746 87.2616 131.915L87.0076 132.275C86.7589 132.085 86.1822 131.699 85.8701 131.524L86.1082 131.164ZM85.3146 134.947C85.8965 134.847 86.5526 134.64 87.0923 134.333C87.9705 133.831 88.6636 133.143 89.0922 132.397L89.3514 132.831C88.8911 133.54 88.161 134.228 87.3145 134.72C86.7801 135.032 86.05 135.28 85.5632 135.381L85.3146 134.947ZM85.3146 132.355C85.6267 132.524 86.2457 132.905 86.4732 133.069L86.2299 133.439C85.9706 133.254 85.3992 132.884 85.0765 132.72L85.3146 132.355ZM91.2191 131.281C91.3725 131.296 91.5259 131.307 91.7005 131.307C92.0074 131.307 93.547 131.307 93.8433 131.307C93.9914 131.307 94.1819 131.296 94.3353 131.281V131.72C94.1766 131.709 93.9914 131.699 93.8433 131.699C93.547 131.699 92.0074 131.699 91.7058 131.699C91.5312 131.699 91.3566 131.709 91.2191 131.72V131.281ZM90.5895 132.609C90.7323 132.624 90.8857 132.63 91.0497 132.63C91.3566 132.63 94.2295 132.63 94.5099 132.63C94.621 132.63 94.7956 132.624 94.9279 132.609V133.042C94.8062 133.037 94.6422 133.032 94.5099 133.032C94.2295 133.032 91.3566 133.032 91.0497 133.032C90.891 133.032 90.7323 133.037 90.5895 133.048V132.609ZM93.0814 132.82C93.0814 133.487 92.9968 134.037 92.7587 134.481C92.5682 134.836 92.1661 135.212 91.7217 135.444L91.3302 135.159C91.7375 134.984 92.1185 134.683 92.3248 134.344C92.5894 133.926 92.6317 133.407 92.637 132.825L93.0814 132.82ZM95.9142 133.831C96.6126 133.661 97.3904 133.291 97.8242 133.027C98.3215 132.725 98.8083 132.286 99.0834 131.952L99.4114 132.27C99.1046 132.598 98.5543 133.058 98.0041 133.392C97.5597 133.656 96.8243 134.005 96.1206 134.222L95.9142 133.831ZM97.7766 133.27L98.2157 133.159V135.143C98.2157 135.302 98.221 135.524 98.2422 135.603H97.7501C97.7607 135.524 97.7766 135.302 97.7766 135.143V133.27ZM104.771 130.794C104.898 130.979 105.088 131.291 105.194 131.492L104.898 131.624C104.792 131.408 104.612 131.106 104.48 130.915L104.771 130.794ZM105.453 130.662C105.58 130.841 105.776 131.154 105.887 131.36L105.591 131.487C105.475 131.27 105.305 130.963 105.163 130.783L105.453 130.662ZM105.247 131.746C105.215 131.82 105.189 131.91 105.168 132.011C105.057 132.566 104.797 133.423 104.379 133.963C103.898 134.587 103.268 135.074 102.3 135.381L101.94 134.984C102.962 134.725 103.559 134.275 103.999 133.709C104.374 133.233 104.623 132.492 104.692 131.984C104.39 131.984 102.29 131.984 101.988 131.984C101.776 131.984 101.597 131.995 101.459 132.005V131.535C101.607 131.55 101.813 131.572 101.988 131.572C102.29 131.572 104.401 131.572 104.644 131.572C104.723 131.572 104.829 131.566 104.924 131.54L105.247 131.746Z" fill="black"/>
<path d="M94.2664 126.546C97.4919 126.546 100.107 124.431 100.107 121.823C100.107 119.214 97.4919 117.1 94.2664 117.1C91.041 117.1 88.4263 119.214 88.4263 121.823C88.4263 124.431 91.041 126.546 94.2664 126.546Z" fill="#A6FF4D"/>
<path d="M91.8379 123.297C91.8525 123.344 92.2169 124.446 94.2665 124.446C96.3164 124.446 96.6804 123.344 96.695 123.297C96.7128 123.24 96.681 123.181 96.6181 123.152C96.5548 123.123 96.4757 123.131 96.4234 123.172C96.4173 123.177 95.7894 123.659 94.2665 123.659C92.7435 123.659 92.1153 123.177 92.1095 123.172C92.0783 123.147 92.0368 123.134 91.9953 123.134C91.968 123.134 91.9405 123.14 91.9155 123.151C91.8519 123.18 91.8201 123.24 91.8379 123.297Z" fill="#664500"/>
<path d="M92.3199 121.56C92.7679 121.56 93.1311 121.149 93.1311 120.642C93.1311 120.135 92.7679 119.724 92.3199 119.724C91.8719 119.724 91.5088 120.135 91.5088 120.642C91.5088 121.149 91.8719 121.56 92.3199 121.56Z" fill="#664500"/>
<path d="M96.2135 121.56C96.6615 121.56 97.0246 121.149 97.0246 120.642C97.0246 120.135 96.6615 119.724 96.2135 119.724C95.7655 119.724 95.4023 120.135 95.4023 120.642C95.4023 121.149 95.7655 121.56 96.2135 121.56Z" fill="#664500"/>
<path d="M59.1455 90.0551H62.2565V90.3499H59.1455V90.0551ZM59.1954 90.7082H61.8211V90.9939H59.1954V90.7082ZM58.6739 91.3567H61.4085V91.6514H58.6739V91.3567ZM59.2045 89.5654L59.5627 89.647C59.3405 90.3454 58.9687 90.9712 58.5378 91.3748C58.4698 91.3159 58.3156 91.207 58.2249 91.1571C58.6693 90.7898 59.0185 90.2048 59.2045 89.5654ZM60.4244 91.7285L60.7509 91.8374C60.2611 92.7035 59.463 93.3656 58.6013 93.7874C58.5514 93.7148 58.4245 93.5833 58.3474 93.5244C59.2181 93.1525 59.989 92.5176 60.4244 91.7285ZM61.2815 91.3567H61.6307C61.6307 92.5312 61.6987 93.4155 62.0433 93.4155C62.134 93.4155 62.1522 93.157 62.1613 92.7716C62.2293 92.8441 62.329 92.9258 62.4016 92.9711C62.3699 93.5425 62.2973 93.7466 62.0207 93.7511C61.3722 93.7466 61.2996 92.7625 61.2815 91.3567ZM58.7873 92.1367L59.0276 91.9145C59.726 92.2909 60.574 92.8849 60.9867 93.3294L60.7146 93.5833C60.3291 93.1434 59.4902 92.5312 58.7873 92.1367ZM63.6215 91.2932H66.2155V91.6242H63.6215V91.2932ZM66.1021 91.2932H66.4558C66.4558 91.2932 66.4513 91.4111 66.4468 91.4564C66.3833 92.8623 66.3198 93.3883 66.1565 93.5607C66.0658 93.674 65.9661 93.7058 65.8073 93.7194C65.6577 93.733 65.372 93.7284 65.0863 93.7148C65.0818 93.6105 65.0364 93.47 64.9729 93.3702C65.2722 93.3974 65.5534 93.4019 65.6622 93.4019C65.7529 93.4019 65.8073 93.3929 65.8527 93.343C65.9751 93.2205 66.0432 92.7035 66.1021 91.3567V91.2932ZM64.2428 89.6697L64.6011 89.774C64.2745 90.5404 63.7394 91.2161 63.168 91.6514C63.1045 91.5789 62.9594 91.4474 62.8732 91.3839C63.4537 90.9939 63.9571 90.3681 64.2428 89.6697ZM65.8255 89.6606C66.1203 90.2683 66.7053 90.9576 67.1996 91.3068C67.1089 91.3793 66.9819 91.5154 66.9139 91.6106C66.4105 91.2025 65.8391 90.4678 65.499 89.7921L65.8255 89.6606ZM64.5784 91.3839H64.9412C64.8369 92.377 64.6011 93.3158 63.3358 93.7693C63.295 93.6831 63.1952 93.547 63.1181 93.4745C64.3063 93.0799 64.4877 92.241 64.5784 91.3839ZM69.5759 89.8012C69.5351 89.978 69.4852 90.2275 69.3673 90.5313C69.2539 90.8079 69.0861 91.1118 68.9047 91.3476C69.0816 91.2433 69.3401 91.1798 69.5396 91.1798C69.8888 91.1798 70.1609 91.3884 70.1609 91.7557C70.1609 91.9916 70.17 92.5131 70.1745 92.7942H69.8253C69.8434 92.5539 69.848 92.0868 69.8434 91.851C69.8389 91.588 69.6575 91.4655 69.4217 91.4655C69.1315 91.4655 68.8458 91.6106 68.6372 91.7966C68.5056 91.9235 68.3787 92.0868 68.229 92.2727L67.9161 92.0414C68.5691 91.4156 68.873 90.8896 69.0272 90.5041C69.1269 90.2547 69.1904 89.9826 69.204 89.7694L69.5759 89.8012ZM68.0204 90.291C68.2653 90.3227 68.5782 90.3363 68.7868 90.3363C69.399 90.3363 70.1836 90.3 70.823 90.1867V90.5222C70.1881 90.6175 69.3446 90.6583 68.7687 90.6583C68.5737 90.6583 68.2744 90.6492 68.0204 90.6311V90.291ZM71.4851 91.3839C71.3717 91.4202 71.2085 91.4836 71.086 91.529C70.764 91.656 70.3332 91.8283 69.8933 92.0551C69.4444 92.2909 69.1269 92.5358 69.1269 92.8487C69.1269 93.2024 69.4761 93.2568 69.9432 93.2568C70.2969 93.2568 70.7867 93.216 71.1858 93.1434L71.1722 93.5108C70.8275 93.5516 70.3242 93.5879 69.9296 93.5879C69.2857 93.5879 68.7641 93.4473 68.7641 92.8986C68.7641 92.3453 69.3265 92.0052 69.8661 91.7285C70.2969 91.5063 70.6643 91.3657 70.9636 91.2252C71.0996 91.1617 71.213 91.1118 71.34 91.0483L71.4851 91.3839ZM74.0882 91.3068C74.6686 91.6469 75.4124 92.1684 75.8613 92.5312L75.5938 92.8487C75.1765 92.4677 74.4011 91.9099 73.8387 91.5607L74.0882 91.3068ZM76.1606 90.4814C76.1243 90.5449 76.079 90.6492 76.0563 90.7218C75.9203 91.1843 75.6346 91.7875 75.2355 92.2773C74.8228 92.7852 74.2333 93.2704 73.3716 93.5879L73.0497 93.3022C73.8932 93.0482 74.5099 92.5675 74.9181 92.0823C75.2672 91.665 75.5529 91.0891 75.6572 90.6674H73.9793L74.1244 90.3408H75.5665C75.689 90.3408 75.7888 90.3272 75.8613 90.3L76.1606 90.4814ZM74.6324 89.8239C74.5553 89.9418 74.4736 90.096 74.4283 90.1821C74.1607 90.681 73.6483 91.3657 72.9227 91.8646L72.6234 91.6333C73.3988 91.1481 73.8659 90.4678 74.0746 90.0506C74.1199 89.9735 74.1925 89.8103 74.2197 89.6923L74.6324 89.8239ZM79.1129 90.7762C79.19 90.9576 79.4122 91.5562 79.4666 91.7512L79.131 91.8737C79.0811 91.665 78.8725 91.0891 78.7773 90.8896L79.1129 90.7762ZM80.7545 91.0302C80.7228 91.1209 80.7001 91.1934 80.682 91.2524C80.5641 91.7512 80.3645 92.241 80.0425 92.6491C79.6208 93.1797 79.0675 93.5334 78.5641 93.7239L78.2648 93.4201C78.7864 93.2659 79.3668 92.9212 79.7387 92.4587C80.0607 92.0641 80.292 91.4836 80.3645 90.9032L80.7545 91.0302ZM78.0562 91.0029C78.1469 91.1934 78.3873 91.7875 78.4689 92.0278L78.1288 92.1548C78.0562 91.919 77.8113 91.2886 77.7206 91.1299L78.0562 91.0029ZM85.2895 90.1277C85.2895 90.2955 85.421 90.427 85.5888 90.427C85.752 90.427 85.8881 90.2955 85.8881 90.1277C85.8881 89.9644 85.752 89.8284 85.5888 89.8284C85.421 89.8284 85.2895 89.9644 85.2895 90.1277ZM85.0809 90.1277C85.0809 89.8465 85.3076 89.6198 85.5888 89.6198C85.8699 89.6198 86.0967 89.8465 86.0967 90.1277C86.0967 90.4089 85.8699 90.6356 85.5888 90.6356C85.3076 90.6356 85.0809 90.4089 85.0809 90.1277ZM85.4754 90.4315C85.4437 90.495 85.4255 90.5721 85.4074 90.6583C85.3076 91.1345 85.0899 91.8691 84.7271 92.3317C84.3145 92.8668 83.7748 93.284 82.9449 93.547L82.6365 93.2069C83.5163 92.9847 84.0242 92.5992 84.4052 92.114C84.7271 91.7059 84.9357 91.071 84.9992 90.6356C84.7362 90.6356 82.9404 90.6356 82.6773 90.6356C82.4959 90.6356 82.3418 90.6447 82.2284 90.6538V90.2501C82.3508 90.2637 82.5322 90.2819 82.6819 90.2819C82.9404 90.2819 84.7498 90.2819 84.9539 90.2819C85.0264 90.2819 85.1126 90.2774 85.1988 90.2547L85.4754 90.4315ZM87.8971 89.8511C87.8744 90.0007 87.8608 90.1594 87.8517 90.3091C87.8336 90.8215 87.7973 91.8963 87.7973 92.572C87.7973 93.0709 88.1102 93.2432 88.541 93.2432C89.3709 93.2432 89.8426 92.7806 90.1691 92.309L90.423 92.6174C90.1146 93.0482 89.5251 93.6151 88.532 93.6151C87.8789 93.6151 87.43 93.3475 87.43 92.6038C87.43 91.9326 87.4753 90.7853 87.4753 90.3091C87.4753 90.1413 87.4617 89.9826 87.4345 89.8511H87.8971ZM91.3152 90.3726C91.4875 90.3681 91.6326 90.359 91.7233 90.3499C92.0181 90.3182 92.8707 90.2365 93.7096 90.164C94.2039 90.1232 94.6257 90.096 94.9295 90.0869L94.9341 90.4497C94.671 90.4451 94.2765 90.4542 94.0452 90.5177C93.3967 90.7263 93.0022 91.4202 93.0022 91.9553C93.0022 92.8396 93.8321 93.1208 94.5667 93.1525L94.4397 93.5244C93.5962 93.4926 92.6439 93.0482 92.6439 92.0324C92.6439 91.3249 93.0747 90.749 93.4919 90.5041C93.0022 90.554 91.8503 90.6674 91.356 90.7717L91.3152 90.3726ZM97.6505 90.4451H99.9497V90.7581H97.6505V90.4451ZM97.7366 91.3521H99.8545V91.6605H97.7366V91.3521ZM97.5099 92.3045H100.013V92.6219H97.5099V92.3045ZM98.6074 90.554H98.9384V93.7466H98.6074V90.554ZM99.4191 89.5699L99.7502 89.6787C99.6141 89.9554 99.4599 90.2728 99.3284 90.4769L99.0654 90.3817C99.1833 90.164 99.3375 89.8103 99.4191 89.5699ZM97.8455 89.7014L98.1221 89.6016C98.2763 89.842 98.426 90.164 98.4804 90.3726L98.1856 90.4905C98.1357 90.2774 97.9906 89.9463 97.8455 89.7014ZM96.036 90.9485H97.3875V91.2206H96.036V90.9485ZM96.0587 89.7377H97.3784V90.0098H96.0587V89.7377ZM96.036 91.5562H97.3875V91.8283H96.036V91.5562ZM95.8229 90.3318H97.5462V90.6129H95.8229V90.3318ZM96.1993 92.1684H97.3875V93.4926H96.1993V93.2069H97.0882V92.4496H96.1993V92.1684ZM96.0315 92.1684H96.3263V93.7012H96.0315V92.1684ZM103.333 90.0778H103.637V93.3203H103.333V90.0778ZM102.435 89.9372H104.58V93.6559H104.262V90.2547H102.743V93.6922H102.435V89.9372ZM102.603 91.5109H104.403V91.8238H102.603V91.5109ZM102.603 93.1298H104.389V93.4427H102.603V93.1298ZM101.306 91.7104H101.609V93.742H101.306V91.7104ZM101.26 89.5744L101.564 89.6969C101.392 90.0325 101.17 90.4361 100.993 90.69L100.752 90.5812C100.929 90.3182 101.142 89.8783 101.26 89.5744ZM101.818 90.096L102.108 90.2365C101.791 90.7399 101.342 91.3839 100.993 91.7739L100.78 91.6514C101.129 91.2524 101.569 90.5767 101.818 90.096ZM100.535 90.5449L100.707 90.3182C100.952 90.5222 101.233 90.8125 101.356 91.0075L101.174 91.2705C101.056 91.0619 100.775 90.7535 100.535 90.5449ZM101.691 91.1345L101.95 91.0211C102.149 91.3159 102.349 91.7059 102.426 91.9598L102.154 92.0913C102.081 91.8374 101.886 91.4338 101.691 91.1345ZM100.503 91.5789C100.916 91.5562 101.528 91.5154 102.136 91.47L102.14 91.7467C101.573 91.7966 100.993 91.851 100.553 91.8918L100.503 91.5789ZM101.773 92.2319L102.036 92.1503C102.167 92.4269 102.294 92.7897 102.349 93.0301L102.063 93.1253C102.022 92.8849 101.9 92.5131 101.773 92.2319ZM100.784 92.1639L101.079 92.2183C101.02 92.6446 100.911 93.0845 100.771 93.3747C100.712 93.3384 100.576 93.275 100.498 93.2477C100.648 92.9711 100.734 92.563 100.784 92.1639ZM107.169 89.8012C107.129 89.978 107.079 90.2275 106.961 90.5313C106.847 90.8079 106.68 91.1118 106.498 91.3476C106.675 91.2433 106.934 91.1798 107.133 91.1798C107.482 91.1798 107.754 91.3884 107.754 91.7557C107.754 91.9916 107.763 92.5131 107.768 92.7942H107.419C107.437 92.5539 107.441 92.0868 107.437 91.851C107.432 91.588 107.251 91.4655 107.015 91.4655C106.725 91.4655 106.439 91.6106 106.231 91.7966C106.099 91.9235 105.972 92.0868 105.822 92.2727L105.51 92.0414C106.163 91.4156 106.466 90.8896 106.621 90.5041C106.72 90.2547 106.784 89.9826 106.797 89.7694L107.169 89.8012ZM105.614 90.291C105.859 90.3227 106.172 90.3363 106.38 90.3363C106.992 90.3363 107.777 90.3 108.416 90.1867V90.5222C107.782 90.6175 106.938 90.6583 106.362 90.6583C106.167 90.6583 105.868 90.6492 105.614 90.6311V90.291ZM109.079 91.3839C108.965 91.4202 108.802 91.4836 108.679 91.529C108.357 91.656 107.927 91.8283 107.487 92.0551C107.038 92.2909 106.72 92.5358 106.72 92.8487C106.72 93.2024 107.07 93.2568 107.537 93.2568C107.89 93.2568 108.38 93.216 108.779 93.1434L108.766 93.5108C108.421 93.5516 107.918 93.5879 107.523 93.5879C106.879 93.5879 106.358 93.4473 106.358 92.8986C106.358 92.3453 106.92 92.0052 107.46 91.7285C107.89 91.5063 108.258 91.3657 108.557 91.2252C108.693 91.1617 108.806 91.1118 108.933 91.0483L109.079 91.3839ZM110.249 89.9554H113.89V90.2501H110.249V89.9554ZM110.457 90.622H113.713V90.9077H110.457V90.622ZM110.081 91.3159H114.044V91.6152H110.081V91.3159ZM111.881 89.5744H112.226V91.5471H111.881V89.5744ZM111.868 91.4156L112.162 91.5562C111.691 92.0732 110.852 92.5494 110.149 92.7806C110.094 92.6945 109.999 92.5675 109.927 92.4995C110.625 92.2999 111.446 91.8646 111.868 91.4156ZM112.362 91.461C112.634 92.4315 113.223 93.148 114.185 93.4337C114.108 93.5017 114.013 93.6423 113.963 93.733C112.96 93.3883 112.366 92.6219 112.053 91.5245L112.362 91.461ZM113.654 91.7648L113.926 91.978C113.604 92.2364 113.174 92.5131 112.847 92.6945L112.638 92.5085C112.956 92.3181 113.396 92.0052 113.654 91.7648ZM110.43 93.4337C110.951 93.3203 111.768 93.1162 112.543 92.9258L112.575 93.2296C111.858 93.4155 111.083 93.6105 110.539 93.7466L110.43 93.4337ZM111.069 92.2591L111.314 92.0142L111.41 92.0414V93.411H111.069V92.2591ZM116.602 91.1934H116.969V93.3067C116.969 93.5244 116.915 93.6287 116.756 93.6876C116.593 93.7375 116.325 93.742 115.926 93.742C115.908 93.6423 115.854 93.4926 115.799 93.3883C116.108 93.3974 116.407 93.3974 116.493 93.3929C116.579 93.3929 116.602 93.3702 116.602 93.2976V91.1934ZM115.573 91.7966L115.926 91.8873C115.704 92.4451 115.346 92.9892 114.983 93.3384C114.915 93.275 114.761 93.1797 114.67 93.1298C115.042 92.8079 115.378 92.309 115.573 91.7966ZM117.613 91.9326L117.926 91.8011C118.262 92.2274 118.616 92.8033 118.747 93.1888L118.407 93.3384C118.284 92.962 117.944 92.368 117.613 91.9326ZM115.192 89.9146H118.38V90.2501H115.192V89.9146ZM114.784 91.012H118.783V91.3521H114.784V91.012Z" fill="black" fill-opacity="0.63"/>
<path d="M120.476 105.479C125.484 108.878 129.328 113.196 131.661 118.044C133.995 122.893 134.745 128.119 133.842 133.25C132.94 138.381 130.414 143.256 126.493 147.435C122.572 151.613 117.38 154.963 111.384 157.183L106.88 149.769C111.297 148.134 115.124 145.665 118.013 142.586C120.902 139.507 122.763 135.915 123.428 132.134C124.093 128.353 123.541 124.503 121.821 120.93C120.102 117.357 117.269 114.175 113.579 111.671L120.476 105.479Z" fill="#4DCAFF"/>
<path d="M60.6102 145.805C57.5827 142.109 55.5886 137.956 54.7582 133.617C53.9278 129.278 54.2798 124.851 55.7913 120.625L65.916 122.832C64.8022 125.945 64.5428 129.207 65.1547 132.404C65.7666 135.602 67.236 138.662 69.4668 141.386L60.6102 145.805Z" fill="#D3CAB3"/>
<path d="M111.609 157.099C102.687 160.455 92.4864 161.104 82.9857 158.921C73.485 156.738 65.3619 151.878 60.1927 145.284L69.1592 141.002C72.9681 145.86 78.9536 149.442 85.9542 151.05C92.9549 152.659 100.471 152.18 107.046 149.707L111.609 157.099Z" fill="#F7F384"/>
<path d="M55.7749 120.671C57.593 115.558 61.0526 110.892 65.8265 107.114C70.6003 103.336 76.5303 100.572 83.0552 99.0828C89.5801 97.5936 96.4839 97.4287 103.113 98.6038C109.742 99.7789 115.878 102.255 120.939 105.798L113.92 111.906C110.191 109.296 105.67 107.471 100.785 106.605C95.9004 105.739 90.8133 105.861 86.0054 106.958C81.1976 108.055 76.828 110.092 73.3104 112.876C69.7928 115.66 67.2435 119.098 65.9039 122.865L55.7749 120.671Z" fill="#A6FF4D"/>
<path d="M79.9051 78.6313L80.2679 78.2322C80.5521 78.3229 80.9209 78.4922 81.1144 78.6374L80.7334 79.0788C80.5641 78.9337 80.2013 78.7402 79.9051 78.6313ZM76.8274 78.855H81.4893V79.4295H76.8274V78.855ZM77.2929 79.7137H79.0767V80.1792H77.2929V79.7137ZM77.3111 80.4634H77.8916V81.576H77.3111V80.4634ZM80.4553 79.5806L81.1265 79.7439C80.7758 80.7295 80.153 81.5397 79.3972 82.0476C79.2944 81.9146 79.0404 81.6607 78.8953 81.5397C79.6209 81.1225 80.1832 80.4211 80.4553 79.5806ZM79.0344 78.2927H79.7176C79.7599 79.9616 80.3827 81.4551 80.9209 81.449C81.0539 81.449 81.1083 81.2434 81.1386 80.7234C81.2837 80.8565 81.5135 80.9834 81.6828 81.0439C81.586 81.9025 81.3683 82.1021 80.8786 82.1021C79.8204 82.1021 79.113 80.3062 79.0344 78.2927ZM77.3111 80.4634H79.0404V81.7755H77.3111V81.31H78.4478V80.929H77.3111V80.4634ZM77.5469 82.2835H78.2664V83.0635C78.2664 83.2267 78.3148 83.2509 78.599 83.2509C78.726 83.2509 79.2581 83.2509 79.4213 83.2509C79.6511 83.2509 79.6934 83.1844 79.7176 82.7067C79.8627 82.8156 80.1711 82.9184 80.3646 82.9607C80.28 83.7105 80.0804 83.8919 79.4879 83.8919C79.3246 83.8919 78.6776 83.8919 78.5144 83.8919C77.7283 83.8919 77.5469 83.6923 77.5469 83.0695V82.2835ZM78.1092 82.1202L78.5748 81.7332C78.9134 81.9146 79.3185 82.2049 79.512 82.4346L79.0102 82.87C78.8348 82.6402 78.4418 82.3258 78.1092 82.1202ZM80.0986 82.4951L80.7032 82.1867C81.1023 82.5495 81.5135 83.0574 81.6767 83.4505L81.0176 83.7891C80.8786 83.4142 80.4916 82.876 80.0986 82.4951ZM76.7367 82.2774L77.3836 82.5072C77.2385 83.0151 77.0027 83.523 76.5915 83.8495L75.9869 83.4384C76.3557 83.1663 76.6097 82.7309 76.7367 82.2774ZM76.4887 78.855H77.1539V79.7802C77.1539 80.5239 77.039 81.5942 76.4646 82.2774C76.3618 82.1504 76.0715 81.9086 75.9325 81.836C76.4404 81.2314 76.4887 80.3848 76.4887 79.7741V78.855ZM84.8935 81.7755H86.9856V82.2895H84.8935V81.7755ZM84.1498 78.7039H87.7596V79.2239H84.1498V78.7039ZM84.313 79.4658H87.5903V79.9555H84.313V79.4658ZM83.9623 80.2095H87.947V80.7295H83.9623V80.2095ZM84.8996 82.5616H86.9977V83.0635H84.8996V82.5616ZM84.3675 80.9653H86.9554V81.4914H85.0386V83.9765H84.3675V80.9653ZM86.8526 80.9653H87.5359V83.2751C87.5359 83.5895 87.4754 83.7649 87.2577 83.8616C87.04 83.9644 86.7438 83.9705 86.3205 83.9705C86.2963 83.7891 86.2056 83.523 86.127 83.3537C86.3689 83.3658 86.6591 83.3658 86.7438 83.3598C86.8224 83.3598 86.8526 83.3356 86.8526 83.263V80.9653ZM85.5707 78.2927H86.2903V80.3788H85.5707V78.2927ZM82.9707 78.2927H83.6237V83.9705H82.9707V78.2927ZM82.4507 79.4899L82.9586 79.5504C82.9465 80.0583 82.8498 80.7839 82.7288 81.2555L82.1967 81.0741C82.3297 80.6569 82.4144 79.9797 82.4507 79.4899ZM83.527 79.3025L83.9744 79.115C84.1014 79.3932 84.2586 79.762 84.3251 79.9858L83.8535 80.2095C83.793 79.9737 83.6479 79.5927 83.527 79.3025ZM91.962 79.2844C91.8773 79.9011 91.7564 80.6086 91.5448 81.3221C91.182 82.5435 90.662 83.2932 90.0029 83.2932C89.3257 83.2932 88.7694 82.5495 88.7694 81.5276C88.7694 80.1369 89.9847 78.9397 91.5508 78.9397C93.0443 78.9397 93.9936 79.9797 93.9936 81.3039C93.9936 82.5737 93.2136 83.4746 91.6899 83.7105L91.2303 82.997C91.4662 82.9667 91.6355 82.9365 91.7987 82.9002C92.5666 82.7128 93.1713 82.1625 93.1713 81.2737C93.1713 80.3244 92.5787 79.6471 91.5327 79.6471C90.2508 79.6471 89.5494 80.6932 89.5494 81.4551C89.5494 82.0658 89.7912 82.3621 90.021 82.3621C90.281 82.3621 90.5108 81.9751 90.7647 81.1588C90.9401 80.5904 91.0731 79.8951 91.1336 79.2602L91.962 79.2844ZM96.1885 80.2458H99.2239V80.8807H96.1885V80.2458ZM96.116 83.1179H99.236V83.7528H96.116V83.1179ZM95.7955 81.4853H99.6472V83.9826H98.9035V82.1263H96.509V83.9826H95.7955V81.4853ZM97.676 79.0123C97.1802 79.7197 96.249 80.5179 95.2513 81.05C95.1546 80.8807 94.955 80.6146 94.7978 80.4634C95.8439 79.9555 96.8174 79.0425 97.2648 78.2988H98.0207C98.6797 79.2299 99.6532 79.9979 100.627 80.3909C100.445 80.5723 100.276 80.8202 100.149 81.0439C99.2179 80.5541 98.2021 79.7318 97.676 79.0123ZM103.602 80.3244H106.879V81.0439H103.602V80.3244ZM104.877 78.3169H105.615V83.9705H104.877V78.3169ZM101.437 80.149H103.39V80.6932H101.437V80.149ZM101.473 78.4802H103.402V79.0304H101.473V78.4802ZM101.437 80.9714H103.39V81.5216H101.437V80.9714ZM101.141 79.2964H103.632V79.8709H101.141V79.2964ZM101.77 81.8118H103.372V83.65H101.77V83.0756H102.737V82.3863H101.77V81.8118ZM101.419 81.8118H102.048V83.8919H101.419V81.8118Z" fill="#00ABB6"/>
<rect x="85" y="40" width="90" height="21" rx="3" stroke="#FF0000" stroke-width="2"/>
<path d="M130.326 47.2446C130.447 47.4182 130.621 47.7124 130.717 47.9053L130.457 48.0259C130.36 47.8282 130.196 47.5388 130.066 47.3555L130.326 47.2446ZM130.852 47.0516C130.982 47.2301 131.166 47.5291 131.257 47.7076L130.997 47.8233C130.891 47.6159 130.736 47.341 130.601 47.1626L130.852 47.0516ZM130.645 48.2044C130.606 48.2767 130.558 48.3876 130.534 48.4648C130.404 48.9471 130.105 49.6031 129.68 50.1239C129.241 50.6593 128.662 51.103 127.756 51.4358L127.408 51.1223C128.296 50.8619 128.894 50.423 129.333 49.9117C129.709 49.468 130.003 48.8458 130.105 48.4069H128.315L128.469 48.0597C128.667 48.0597 129.859 48.0597 130.008 48.0597C130.138 48.0597 130.244 48.0452 130.326 48.0114L130.645 48.2044ZM129.029 47.4761C128.952 47.6015 128.865 47.7655 128.817 47.8571C128.532 48.3876 128.026 49.0773 127.254 49.5934L126.916 49.3426C127.751 48.8458 128.224 48.1465 128.436 47.7124C128.484 47.6304 128.556 47.452 128.585 47.3314L129.029 47.4761ZM132.574 47.5147C132.699 47.5291 132.849 47.5388 133.003 47.5388C133.264 47.5388 134.619 47.5388 134.903 47.5388C135.053 47.5388 135.222 47.5291 135.338 47.5147V47.915C135.227 47.9053 135.058 47.9005 134.894 47.9005C134.624 47.9005 133.268 47.9005 133.003 47.9005C132.858 47.9005 132.704 47.9053 132.574 47.915V47.5147ZM135.694 48.7831C135.67 48.8314 135.637 48.8892 135.627 48.9278C135.502 49.4005 135.284 49.9021 134.923 50.2976C134.421 50.8522 133.813 51.132 133.201 51.3056L132.902 50.9632C133.582 50.8233 134.185 50.5098 134.6 50.0757C134.889 49.7719 135.082 49.3619 135.169 49.0098C134.932 49.0098 132.902 49.0098 132.613 49.0098C132.497 49.0098 132.313 49.0146 132.14 49.0291V48.624C132.313 48.6384 132.477 48.6529 132.613 48.6529C132.849 48.6529 134.903 48.6529 135.149 48.6529C135.26 48.6529 135.366 48.6384 135.42 48.6143L135.694 48.7831ZM140.436 47.9005C140.402 47.968 140.382 48.0452 140.363 48.1417C140.257 48.6481 140.026 49.4246 139.64 49.9214C139.201 50.4857 138.627 50.9342 137.744 51.2091L137.416 50.8474C138.352 50.6159 138.892 50.2059 139.297 49.6899C139.64 49.251 139.862 48.5806 139.929 48.1175C139.649 48.1175 137.739 48.1175 137.46 48.1175C137.267 48.1175 137.103 48.1272 136.982 48.132V47.7028C137.112 47.7221 137.305 47.7365 137.465 47.7365C137.739 47.7365 139.664 47.7365 139.881 47.7365C139.953 47.7365 140.05 47.7317 140.141 47.7124L140.436 47.9005Z" fill="white"/>
<defs>
<filter id="filter0_d_1016_10489" x="86.6834" y="42.8062" width="85.7367" height="17.9999" filterUnits="userSpaceOnUse" color-interpolation-filters="sRGB">
<feFlood flood-opacity="0" result="BackgroundImageFix"/>
<feColorMatrix in="SourceAlpha" type="matrix" values="0 0 0 0 0 0 0 0 0 0 0 0 0 0 0 0 0 0 127 0" result="hardAlpha"/>
<feOffset dy="1.89474"/>
<feGaussianBlur stdDeviation="0.947368"/>
<feComposite in2="hardAlpha" operator="out"/>
<feColorMatrix type="matrix" values="0 0 0 0 0 0 0 0 0 0 0 0 0 0 0 0 0 0 0.25 0"/>
<feBlend mode="normal" in2="BackgroundImageFix" result="effect1_dropShadow_1016_10489"/>
<feBlend mode="normal" in="SourceGraphic" in2="effect1_dropShadow_1016_10489" result="shape"/>
</filter>
<filter id="filter1_d_1016_10489" x="8.62209" y="68.3579" width="171.756" height="102.018" filterUnits="userSpaceOnUse" color-interpolation-filters="sRGB">
<feFlood flood-opacity="0" result="BackgroundImageFix"/>
<feColorMatrix in="SourceAlpha" type="matrix" values="0 0 0 0 0 0 0 0 0 0 0 0 0 0 0 0 0 0 127 0" result="hardAlpha"/>
<feOffset dy="0.377912"/>
<feGaussianBlur stdDeviation="0.188956"/>
<feComposite in2="hardAlpha" operator="out"/>
<feColorMatrix type="matrix" values="0 0 0 0 0 0 0 0 0 0 0 0 0 0 0 0 0 0 0.25 0"/>
<feBlend mode="normal" in2="BackgroundImageFix" result="effect1_dropShadow_1016_10489"/>
<feBlend mode="normal" in="SourceGraphic" in2="effect1_dropShadow_1016_10489" result="shape"/>
</filter>
</defs>
</svg>
