<svg width="344" height="173" viewBox="0 0 344 173" fill="none" xmlns="http://www.w3.org/2000/svg">
<path d="M217.098 52.1509C217.218 52.3241 217.391 52.6176 217.487 52.8101L217.228 52.9303C217.131 52.7331 216.968 52.4444 216.838 52.2616L217.098 52.1509ZM217.622 51.9584C217.752 52.1365 217.935 52.4348 218.026 52.6128L217.766 52.7283C217.661 52.5214 217.507 52.2471 217.372 52.0691L217.622 51.9584ZM217.415 53.1084C217.377 53.1805 217.329 53.2912 217.305 53.3682C217.175 53.8493 216.876 54.5037 216.453 55.0233C216.015 55.5574 215.438 56 214.533 56.332L214.187 56.0192C215.072 55.7594 215.669 55.3216 216.107 54.8116C216.482 54.3689 216.775 53.7483 216.876 53.3104H215.091L215.245 52.964C215.443 52.964 216.631 52.964 216.78 52.964C216.91 52.964 217.016 52.9496 217.098 52.9159L217.415 53.1084ZM215.803 52.3818C215.726 52.5069 215.64 52.6705 215.592 52.7619C215.308 53.2912 214.803 53.9792 214.033 54.494L213.696 54.2438C214.528 53.7483 215 53.0506 215.212 52.6176C215.26 52.5358 215.332 52.3578 215.361 52.2375L215.803 52.3818ZM219.34 52.4203C219.465 52.4348 219.614 52.4444 219.768 52.4444C220.028 52.4444 221.38 52.4444 221.664 52.4444C221.813 52.4444 221.981 52.4348 222.097 52.4203V52.8197C221.986 52.8101 221.818 52.8052 221.654 52.8052C221.385 52.8052 220.033 52.8052 219.768 52.8052C219.624 52.8052 219.47 52.8101 219.34 52.8197V52.4203ZM222.453 53.6857C222.429 53.7338 222.395 53.7916 222.385 53.8301C222.26 54.3016 222.044 54.802 221.683 55.1965C221.183 55.7498 220.576 56.0289 219.965 56.2021L219.667 55.8605C220.345 55.7209 220.947 55.4082 221.361 54.9752C221.649 54.6721 221.842 54.2631 221.928 53.9119C221.693 53.9119 219.667 53.9119 219.378 53.9119C219.263 53.9119 219.08 53.9167 218.907 53.9311V53.527C219.08 53.5414 219.244 53.5558 219.378 53.5558C219.614 53.5558 221.664 53.5558 221.909 53.5558C222.02 53.5558 222.126 53.5414 222.179 53.5173L222.453 53.6857ZM227.182 52.8052C227.149 52.8726 227.129 52.9496 227.11 53.0458C227.004 53.551 226.773 54.3256 226.388 54.8212C225.951 55.3841 225.378 55.8316 224.498 56.1059L224.17 55.745C225.104 55.5141 225.643 55.1051 226.047 54.5903C226.388 54.1524 226.61 53.4836 226.677 53.0218C226.398 53.0218 224.493 53.0218 224.214 53.0218C224.021 53.0218 223.858 53.0314 223.737 53.0362V52.608C223.867 52.6272 224.06 52.6417 224.219 52.6417C224.493 52.6417 226.413 52.6417 226.629 52.6417C226.701 52.6417 226.797 52.6368 226.889 52.6176L227.182 52.8052Z" fill="#00ABB6"/>
<path d="M136.847 52.2856H139.998V56.3127H139.618V52.6513H137.217V56.332H136.847V52.2856ZM137.092 53.9552H139.777V54.3112H137.092V53.9552ZM137.087 55.6584H139.787V56.0192H137.087V55.6584ZM143.342 53.8012H145.002V54.1428H143.342V53.8012ZM143.183 53.8012H143.544V55.7642C143.544 55.9519 143.597 55.9904 143.862 55.9904C143.987 55.9904 144.612 55.9904 144.776 55.9904C145.036 55.9904 145.074 55.8653 145.103 55.1965C145.19 55.259 145.344 55.3216 145.445 55.3457C145.392 56.1203 145.281 56.3368 144.8 56.3368C144.68 56.3368 143.944 56.3368 143.833 56.3368C143.333 56.3368 143.183 56.2213 143.183 55.7594V53.8012ZM143.13 52.2327H145.19V54.4122H144.824V52.5743H143.13V52.2327ZM141.22 53.4163H142.721V53.705H141.22V53.4163ZM141.249 52.1317H142.741V52.4203H141.249V52.1317ZM141.22 54.061H142.721V54.3497H141.22V54.061ZM140.994 52.7619H142.909V53.0602H140.994V52.7619ZM141.389 54.7106H142.707V56.1155H141.389V55.8124H142.385V55.0089H141.389V54.7106ZM141.216 54.7106H141.538V56.3368H141.216V54.7106ZM147.745 52.8822H150.184V53.2142H147.745V52.8822ZM147.836 53.8445H150.083V54.1717H147.836V53.8445ZM147.595 54.8549H150.251V55.1917H147.595V54.8549ZM148.76 52.9977H149.111V56.3849H148.76V52.9977ZM149.621 51.9536L149.972 52.0691C149.828 52.3626 149.664 52.6994 149.525 52.9159L149.246 52.8149C149.371 52.5839 149.534 52.2086 149.621 51.9536ZM147.951 52.0932L148.245 51.9873C148.409 52.2423 148.567 52.5839 148.625 52.8052L148.312 52.9303C148.259 52.7042 148.105 52.353 147.951 52.0932ZM146.032 53.4163H147.466V53.705H146.032V53.4163ZM146.056 52.1317H147.456V52.4203H146.056V52.1317ZM146.032 54.061H147.466V54.3497H146.032V54.061ZM145.806 52.7619H147.634V53.0602H145.806V52.7619ZM146.205 54.7106H147.466V56.1155H146.205V55.8124H147.148V55.0089H146.205V54.7106ZM146.027 54.7106H146.34V56.3368H146.027V54.7106ZM153.581 52.4925H153.903V55.9326H153.581V52.4925ZM152.628 52.3434H154.904V56.2887H154.567V52.6801H152.955V56.3272H152.628V52.3434ZM152.806 54.0129H154.716V54.3449H152.806V54.0129ZM152.806 55.7306H154.702V56.0625H152.806V55.7306ZM151.43 54.2246H151.752V56.3801H151.43V54.2246ZM151.382 51.9584L151.704 52.0883C151.522 52.4444 151.286 52.8726 151.098 53.142L150.843 53.0266C151.031 52.7475 151.257 52.2808 151.382 51.9584ZM151.974 52.5117L152.282 52.6609C151.945 53.195 151.469 53.8782 151.098 54.292L150.872 54.1621C151.242 53.7387 151.709 53.0218 151.974 52.5117ZM150.612 52.9881L150.795 52.7475C151.055 52.964 151.353 53.2719 151.483 53.4788L151.291 53.7579C151.165 53.5366 150.867 53.2094 150.612 52.9881ZM151.839 53.6136L152.113 53.4933C152.325 53.806 152.537 54.2198 152.619 54.4892L152.33 54.6288C152.253 54.3593 152.046 53.9311 151.839 53.6136ZM150.578 54.0851C151.016 54.061 151.666 54.0177 152.311 53.9696L152.315 54.2631C151.714 54.316 151.098 54.3738 150.631 54.4171L150.578 54.0851ZM151.926 54.7779L152.205 54.6913C152.344 54.9848 152.479 55.3697 152.537 55.6247L152.234 55.7258C152.19 55.4707 152.06 55.0762 151.926 54.7779ZM150.877 54.7057L151.19 54.7635C151.127 55.2157 151.012 55.6824 150.862 55.9904C150.8 55.9519 150.655 55.8845 150.574 55.8557C150.732 55.5622 150.824 55.1291 150.877 54.7057Z" fill="white"/>
<mask id="path-3-inside-1_1649_11930" fill="white">
<path d="M83 13C83 10.2386 85.2386 8 88 8H251C253.761 8 256 10.2386 256 13V173H83V13Z"/>
</mask>
<path d="M83 13C83 10.2386 85.2386 8 88 8H251C253.761 8 256 10.2386 256 13V173H83V13Z" fill="#EEFEFF"/>
<path d="M82 13C82 9.68629 84.6863 7 88 7H251C254.314 7 257 9.68629 257 13H255C255 10.7909 253.209 9 251 9H88C85.7909 9 84 10.7909 84 13H82ZM256 173H83H256ZM82 173V13C82 9.68629 84.6863 7 88 7V9C85.7909 9 84 10.7909 84 13V173H82ZM251 7C254.314 7 257 9.68629 257 13V173H255V13C255 10.7909 253.209 9 251 9V7Z" fill="#D9D9D9" mask="url(#path-3-inside-1_1649_11930)"/>
<mask id="path-5-inside-2_1649_11930" fill="white">
<path d="M75 8C75 3.58172 78.5817 0 83 0H256C260.418 0 264 3.58172 264 8V173H75V8Z"/>
</mask>
<path d="M72 8C72 1.92487 76.9249 -3 83 -3H256C262.075 -3 267 1.92487 267 8H261C261 5.23858 258.761 3 256 3H83C80.2386 3 78 5.23858 78 8H72ZM264 173H75H264ZM72 173V8C72 1.92487 76.9249 -3 83 -3V3C80.2386 3 78 5.23858 78 8V173H72ZM256 -3C262.075 -3 267 1.92487 267 8V173H261V8C261 5.23858 258.761 3 256 3V-3Z" fill="#A29C9C" fill-opacity="0.5" mask="url(#path-5-inside-2_1649_11930)"/>
<path d="M84 13C84 10.7909 85.7909 9 88 9H251C253.209 9 255 10.7909 255 13V31H84V13Z" fill="#04CAD6"/>
<rect x="93.5" y="13.5" width="25.4615" height="12.2" rx="4.5" fill="#04CAD6"/>
<rect x="93.5" y="13.5" width="25.4615" height="12.2" rx="4.5" stroke="white"/>
<path d="M97.6464 20.3536C97.4512 20.1583 97.4512 19.8417 97.6464 19.6464L100.828 16.4645C101.024 16.2692 101.34 16.2692 101.536 16.4645C101.731 16.6597 101.731 16.9763 101.536 17.1716L98.7071 20L101.536 22.8284C101.731 23.0237 101.731 23.3403 101.536 23.5355C101.34 23.7308 101.024 23.7308 100.828 23.5355L97.6464 20.3536ZM99 20.5L98 20.5L98 19.5L99 19.5L99 20.5Z" fill="white"/>
<path d="M106.76 19.848H109.724V20.116H106.76V19.848ZM108.376 19.996C108.576 20.612 109.056 20.944 109.864 21.056C109.796 21.12 109.716 21.244 109.68 21.324C108.824 21.168 108.34 20.78 108.1 20.048L108.376 19.996ZM108.044 19.336H108.348C108.28 20.408 108.08 21.04 106.812 21.332C106.784 21.26 106.704 21.144 106.648 21.088C107.832 20.836 107.984 20.292 108.044 19.336ZM106.596 18.432H106.896V19.252C106.896 19.844 106.82 20.684 106.372 21.256C106.32 21.204 106.188 21.12 106.112 21.088C106.548 20.552 106.596 19.792 106.596 19.244V18.432ZM106.744 18.432H109.488V19.376H106.744V19.136H109.192V18.668H106.744V18.432ZM106.32 17.864H109.7V18.14H106.32V17.864ZM110.952 18.056C111.04 18.064 111.152 18.068 111.232 18.068C111.444 18.068 112.392 18.04 112.604 18.02C112.724 18.008 112.78 18 112.824 17.984L113.008 18.22C112.936 18.268 112.856 18.32 112.78 18.38C112.584 18.532 112.04 19 111.728 19.256C111.912 19.196 112.104 19.176 112.284 19.176C112.948 19.176 113.424 19.572 113.424 20.112C113.424 20.756 112.892 21.176 112.044 21.176C111.5 21.176 111.168 20.94 111.168 20.604C111.168 20.332 111.416 20.084 111.784 20.084C112.316 20.084 112.584 20.46 112.612 20.864L112.324 20.912C112.3 20.572 112.104 20.328 111.784 20.328C111.6 20.328 111.46 20.44 111.46 20.58C111.46 20.776 111.68 20.892 111.996 20.892C112.676 20.892 113.104 20.612 113.104 20.112C113.104 19.716 112.728 19.424 112.204 19.424C111.54 19.424 111.18 19.704 110.676 20.22L110.444 19.988C110.776 19.716 111.292 19.284 111.52 19.088C111.744 18.904 112.248 18.484 112.448 18.304C112.236 18.316 111.436 18.348 111.228 18.36C111.136 18.368 111.048 18.372 110.96 18.384L110.952 18.056Z" fill="white"/>
<path d="M143.352 23V22.576C145.192 20.968 146.032 19.792 146.032 18.792C146.032 18.12 145.688 17.624 144.96 17.624C144.48 17.624 144.064 17.92 143.736 18.304L143.312 17.896C143.792 17.376 144.304 17.032 145.048 17.032C146.096 17.032 146.752 17.712 146.752 18.76C146.752 19.936 145.832 21.128 144.448 22.432C144.76 22.4 145.112 22.376 145.408 22.376H147.032V23H143.352ZM149.662 23.112C148.542 23.112 147.83 22.096 147.83 20.048C147.83 18.016 148.542 17.032 149.662 17.032C150.766 17.032 151.477 18.016 151.477 20.048C151.477 22.096 150.766 23.112 149.662 23.112ZM149.662 22.52C150.326 22.52 150.774 21.776 150.774 20.048C150.774 18.344 150.326 17.616 149.662 17.616C148.99 17.616 148.534 18.344 148.534 20.048C148.534 21.776 148.99 22.52 149.662 22.52ZM152.227 23V22.576C154.067 20.968 154.907 19.792 154.907 18.792C154.907 18.12 154.563 17.624 153.835 17.624C153.355 17.624 152.939 17.92 152.611 18.304L152.187 17.896C152.667 17.376 153.179 17.032 153.923 17.032C154.971 17.032 155.627 17.712 155.627 18.76C155.627 19.936 154.707 21.128 153.323 22.432C153.635 22.4 153.987 22.376 154.283 22.376H155.907V23H152.227ZM158.417 23.112C157.497 23.112 156.929 22.728 156.545 22.304L156.913 21.824C157.257 22.184 157.697 22.504 158.368 22.504C159.065 22.504 159.561 22.08 159.561 21.408C159.561 20.704 159.089 20.24 157.737 20.24V19.672C158.945 19.672 159.353 19.192 159.353 18.552C159.353 17.992 158.977 17.624 158.368 17.624C157.897 17.624 157.481 17.864 157.153 18.2L156.761 17.728C157.201 17.328 157.721 17.032 158.393 17.032C159.377 17.032 160.097 17.568 160.097 18.504C160.097 19.216 159.681 19.688 159.057 19.912V19.944C159.745 20.112 160.305 20.632 160.305 21.44C160.305 22.48 159.465 23.112 158.417 23.112ZM160.838 24.432L163.238 16.648H163.758L161.366 24.432H160.838ZM164.587 23V22.392H165.891V18.024H164.843V17.552C165.371 17.464 165.747 17.328 166.059 17.136H166.619V22.392H167.803V23H164.587ZM170.544 23.112C169.424 23.112 168.712 22.096 168.712 20.048C168.712 18.016 169.424 17.032 170.544 17.032C171.648 17.032 172.36 18.016 172.36 20.048C172.36 22.096 171.648 23.112 170.544 23.112ZM170.544 22.52C171.208 22.52 171.656 21.776 171.656 20.048C171.656 18.344 171.208 17.616 170.544 17.616C169.872 17.616 169.416 18.344 169.416 20.048C169.416 21.776 169.872 22.52 170.544 22.52ZM172.846 24.432L175.246 16.648H175.766L173.374 24.432H172.846ZM176.595 23V22.392H177.899V18.024H176.851V17.552C177.379 17.464 177.755 17.328 178.067 17.136H178.627V22.392H179.811V23H176.595ZM182.552 23.112C181.432 23.112 180.72 22.096 180.72 20.048C180.72 18.016 181.432 17.032 182.552 17.032C183.656 17.032 184.368 18.016 184.368 20.048C184.368 22.096 183.656 23.112 182.552 23.112ZM182.552 22.52C183.216 22.52 183.664 21.776 183.664 20.048C183.664 18.344 183.216 17.616 182.552 17.616C181.88 17.616 181.424 18.344 181.424 20.048C181.424 21.776 181.88 22.52 182.552 22.52ZM186.678 24.576C185.934 23.376 185.494 22.096 185.494 20.52C185.494 18.952 185.934 17.656 186.678 16.456L187.126 16.672C186.438 17.808 186.102 19.16 186.102 20.52C186.102 21.88 186.438 23.232 187.126 24.368L186.678 24.576ZM189.077 17.904L189.669 18.032C189.533 18.992 189.261 19.968 188.549 20.512L188.029 20.16C188.669 19.672 188.949 18.8 189.077 17.904ZM194.101 17.896L194.749 18.152C194.357 18.904 193.845 19.808 193.437 20.384L192.933 20.152C193.325 19.56 193.829 18.592 194.101 17.896ZM191.429 16.4H191.749V18.992C191.749 19.912 192.317 22.12 195.093 23.096C194.965 23.232 194.781 23.48 194.693 23.656C192.373 22.768 191.589 20.928 191.429 20.152C191.269 20.936 190.541 22.72 188.269 23.656C188.189 23.52 187.989 23.28 187.853 23.152C190.549 22.128 191.109 19.92 191.109 18.992V16.4H191.429ZM196.261 24.576L195.805 24.368C196.493 23.232 196.829 21.88 196.829 20.52C196.829 19.16 196.493 17.808 195.805 16.672L196.261 16.456C196.997 17.656 197.437 18.952 197.437 20.52C197.437 22.096 196.997 23.376 196.261 24.576Z" fill="white"/>
<path d="M233.513 23V22.629C235.123 21.222 235.858 20.193 235.858 19.318C235.858 18.73 235.557 18.296 234.92 18.296C234.5 18.296 234.136 18.555 233.849 18.891L233.478 18.534C233.898 18.079 234.346 17.778 234.997 17.778C235.914 17.778 236.488 18.373 236.488 19.29C236.488 20.319 235.683 21.362 234.472 22.503C234.745 22.475 235.053 22.454 235.312 22.454H236.733V23H233.513ZM238.915 23.098C238.117 23.098 237.627 22.762 237.277 22.412L237.599 21.992C237.886 22.293 238.264 22.566 238.852 22.566C239.461 22.566 239.944 22.097 239.944 21.355C239.944 20.62 239.524 20.179 238.887 20.179C238.544 20.179 238.327 20.291 238.033 20.487L237.69 20.27L237.851 17.869H240.35V18.415H238.411L238.278 19.899C238.509 19.773 238.74 19.696 239.048 19.696C239.902 19.696 240.595 20.2 240.595 21.334C240.595 22.454 239.776 23.098 238.915 23.098ZM242.28 19.661C241.755 19.661 241.293 19.269 241.293 18.667C241.293 18.051 241.755 17.659 242.28 17.659C242.805 17.659 243.267 18.051 243.267 18.667C243.267 19.269 242.805 19.661 242.28 19.661ZM242.28 19.297C242.623 19.297 242.875 19.031 242.875 18.667C242.875 18.289 242.623 18.023 242.28 18.023C241.93 18.023 241.692 18.289 241.692 18.667C241.692 19.031 241.93 19.297 242.28 19.297ZM246.116 23.098C244.814 23.098 243.862 22.118 243.862 20.452C243.862 18.793 244.835 17.792 246.144 17.792C246.76 17.792 247.25 18.093 247.551 18.422L247.18 18.842C246.907 18.555 246.578 18.373 246.158 18.373C245.185 18.373 244.555 19.164 244.555 20.431C244.555 21.712 245.157 22.503 246.13 22.503C246.613 22.503 246.97 22.307 247.292 21.95L247.67 22.356C247.264 22.832 246.76 23.098 246.116 23.098Z" fill="white"/>
<path d="M218.709 15V16.4002M222.04 16.375L221.047 17.365M223.418 19.6979H222.014M222.04 23.0208L221.047 22.0308M218.709 24.3958V22.9956M215.378 23.0208L216.371 22.0308M214 19.6979H215.403M215.378 16.375L216.371 17.365M218.709 17.1771C219.209 17.1771 219.697 17.3249 220.113 17.6019C220.528 17.8789 220.852 18.2726 221.043 18.7332C221.234 19.1939 221.285 19.7007 221.187 20.1897C221.09 20.6787 220.849 21.1279 220.496 21.4804C220.142 21.833 219.692 22.073 219.202 22.1703C218.712 22.2676 218.204 22.2177 217.742 22.0269C217.28 21.8361 216.886 21.513 216.608 21.0984C216.33 20.6839 216.182 20.1965 216.182 19.6979C216.182 19.0293 216.448 18.3882 216.922 17.9154C217.396 17.4427 218.039 17.1771 218.709 17.1771Z" stroke="white" stroke-width="0.520833" stroke-linecap="round" stroke-linejoin="round"/>
<path d="M221.155 19.7738C221.155 21.2318 220.174 22.04 218.85 22.26C217.389 22.26 216.204 21.2318 216.204 19.7738C216.204 18.3158 217.389 17.1338 218.85 17.1338C220.312 17.1338 221.155 18.3158 221.155 19.7738Z" fill="white"/>
<rect x="103.422" y="45" width="143.467" height="15.3089" rx="3.93658" fill="#00ABB6"/>
<g filter="url(#filter0_d_1649_11930)">
<rect x="169.906" y="45.9004" width="75.6699" height="13.1219" rx="3.93658" fill="white"/>
</g>
<path d="M123.232 50.596H127.817V56.455H127.264V51.128H123.771V56.483H123.232V50.596ZM123.589 53.025H127.495V53.543H123.589V53.025ZM123.582 55.503H127.509V56.028H123.582V55.503ZM132.682 52.801H135.097V53.298H132.682V52.801ZM132.451 52.801H132.976V55.657C132.976 55.93 133.053 55.986 133.438 55.986C133.62 55.986 134.53 55.986 134.768 55.986C135.146 55.986 135.202 55.804 135.244 54.831C135.37 54.922 135.594 55.013 135.741 55.048C135.664 56.175 135.503 56.49 134.803 56.49C134.628 56.49 133.557 56.49 133.396 56.49C132.668 56.49 132.451 56.322 132.451 55.65V52.801ZM132.374 50.519H135.37V53.69H134.838V51.016H132.374V50.519ZM129.595 52.241H131.779V52.661H129.595V52.241ZM129.637 50.372H131.807V50.792H129.637V50.372ZM129.595 53.179H131.779V53.599H129.595V53.179ZM129.266 51.289H132.052V51.723H129.266V51.289ZM129.84 54.124H131.758V56.168H129.84V55.727H131.289V54.558H129.84V54.124ZM129.588 54.124H130.057V56.49H129.588V54.124ZM139.087 51.464H142.636V51.947H139.087V51.464ZM139.22 52.864H142.489V53.34H139.22V52.864ZM138.87 54.334H142.734V54.824H138.87V54.334ZM140.564 51.632H141.075V56.56H140.564V51.632ZM141.817 50.113L142.328 50.281C142.118 50.708 141.88 51.198 141.677 51.513L141.271 51.366C141.453 51.03 141.691 50.484 141.817 50.113ZM139.388 50.316L139.815 50.162C140.053 50.533 140.284 51.03 140.368 51.352L139.913 51.534C139.836 51.205 139.612 50.694 139.388 50.316ZM136.595 52.241H138.681V52.661H136.595V52.241ZM136.63 50.372H138.667V50.792H136.63V50.372ZM136.595 53.179H138.681V53.599H136.595V53.179ZM136.266 51.289H138.926V51.723H136.266V51.289ZM136.847 54.124H138.681V56.168H136.847V55.727H138.219V54.558H136.847V54.124ZM136.588 54.124H137.043V56.49H136.588V54.124ZM147.578 50.897H148.047V55.902H147.578V50.897ZM146.192 50.68H149.503V56.42H149.013V51.17H146.668V56.476H146.192V50.68ZM146.451 53.109H149.23V53.592H146.451V53.109ZM146.451 55.608H149.209V56.091H146.451V55.608ZM144.449 53.417H144.918V56.553H144.449V53.417ZM144.379 50.12L144.848 50.309C144.582 50.827 144.239 51.45 143.966 51.842L143.595 51.674C143.868 51.268 144.197 50.589 144.379 50.12ZM145.24 50.925L145.688 51.142C145.198 51.919 144.505 52.913 143.966 53.515L143.637 53.326C144.176 52.71 144.855 51.667 145.24 50.925ZM143.259 51.618L143.525 51.268C143.903 51.583 144.337 52.031 144.526 52.332L144.246 52.738C144.064 52.416 143.63 51.94 143.259 51.618ZM145.044 52.528L145.443 52.353C145.751 52.808 146.059 53.41 146.178 53.802L145.758 54.005C145.646 53.613 145.345 52.99 145.044 52.528ZM143.21 53.214C143.847 53.179 144.792 53.116 145.73 53.046L145.737 53.473C144.862 53.55 143.966 53.634 143.287 53.697L143.21 53.214ZM145.17 54.222L145.576 54.096C145.779 54.523 145.975 55.083 146.059 55.454L145.618 55.601C145.555 55.23 145.366 54.656 145.17 54.222ZM143.644 54.117L144.099 54.201C144.008 54.859 143.84 55.538 143.623 55.986C143.532 55.93 143.322 55.832 143.203 55.79C143.434 55.363 143.567 54.733 143.644 54.117Z" fill="white"/>
<path d="M203.12 49.6C203.32 49.888 203.608 50.376 203.768 50.696L203.336 50.896C203.176 50.568 202.904 50.088 202.688 49.784L203.12 49.6ZM203.992 49.28C204.208 49.576 204.512 50.072 204.664 50.368L204.232 50.56C204.056 50.216 203.8 49.76 203.576 49.464L203.992 49.28ZM203.648 51.192C203.584 51.312 203.504 51.496 203.464 51.624C203.248 52.424 202.752 53.512 202.048 54.376C201.32 55.264 200.36 56 198.856 56.552L198.28 56.032C199.752 55.6 200.744 54.872 201.472 54.024C202.096 53.288 202.584 52.256 202.752 51.528H199.784L200.04 50.952C200.368 50.952 202.344 50.952 202.592 50.952C202.808 50.952 202.984 50.928 203.12 50.872L203.648 51.192ZM200.968 49.984C200.84 50.192 200.696 50.464 200.616 50.616C200.144 51.496 199.304 52.64 198.024 53.496L197.464 53.08C198.848 52.256 199.632 51.096 199.984 50.376C200.064 50.24 200.184 49.944 200.232 49.744L200.968 49.984ZM206.848 50.048C207.056 50.072 207.304 50.088 207.56 50.088C207.992 50.088 210.24 50.088 210.712 50.088C210.96 50.088 211.24 50.072 211.432 50.048V50.712C211.248 50.696 210.968 50.688 210.696 50.688C210.248 50.688 208 50.688 207.56 50.688C207.32 50.688 207.064 50.696 206.848 50.712V50.048ZM212.024 52.152C211.984 52.232 211.928 52.328 211.912 52.392C211.704 53.176 211.344 54.008 210.744 54.664C209.912 55.584 208.904 56.048 207.888 56.336L207.392 55.768C208.52 55.536 209.52 55.016 210.208 54.296C210.688 53.792 211.008 53.112 211.152 52.528C210.76 52.528 207.392 52.528 206.912 52.528C206.72 52.528 206.416 52.536 206.128 52.56V51.888C206.416 51.912 206.688 51.936 206.912 51.936C207.304 51.936 210.712 51.936 211.12 51.936C211.304 51.936 211.48 51.912 211.568 51.872L212.024 52.152ZM219.888 50.688C219.832 50.8 219.8 50.928 219.768 51.088C219.592 51.928 219.208 53.216 218.568 54.04C217.84 54.976 216.888 55.72 215.424 56.176L214.88 55.576C216.432 55.192 217.328 54.512 218 53.656C218.568 52.928 218.936 51.816 219.048 51.048C218.584 51.048 215.416 51.048 214.952 51.048C214.632 51.048 214.36 51.064 214.16 51.072V50.36C214.376 50.392 214.696 50.416 214.96 50.416C215.416 50.416 218.608 50.416 218.968 50.416C219.088 50.416 219.248 50.408 219.4 50.376L219.888 50.688Z" fill="#00ABB6"/>
<g filter="url(#filter1_d_1649_11930)">
<rect x="93.4404" y="68.3828" width="157.901" height="93.5045" rx="2.09378" fill="#FBFBFB"/>
</g>
<path d="M166.59 135.545C166.108 135.545 165.811 135.344 165.61 135.122L165.802 134.871C165.982 135.059 166.213 135.227 166.564 135.227C166.929 135.227 167.188 135.005 167.188 134.653C167.188 134.285 166.941 134.042 166.234 134.042V133.744C166.866 133.744 167.08 133.493 167.08 133.158C167.08 132.865 166.883 132.672 166.564 132.672C166.317 132.672 166.1 132.798 165.928 132.974L165.723 132.727C165.953 132.517 166.225 132.362 166.577 132.362C167.092 132.362 167.469 132.643 167.469 133.133C167.469 133.506 167.251 133.753 166.925 133.87V133.887C167.285 133.975 167.578 134.247 167.578 134.67C167.578 135.214 167.138 135.545 166.59 135.545ZM168.347 135.486V135.168H169.03V132.882H168.481V132.635C168.757 132.589 168.954 132.517 169.118 132.417H169.411V135.168H170.03V135.486H168.347ZM171.047 135.545C170.896 135.545 170.775 135.424 170.775 135.252C170.775 135.076 170.896 134.959 171.047 134.959C171.202 134.959 171.327 135.076 171.327 135.252C171.327 135.424 171.202 135.545 171.047 135.545ZM172.627 135.486C172.681 134.326 172.891 133.581 173.494 132.743H172.007V132.417H173.925V132.647C173.205 133.573 173.075 134.289 173.025 135.486H172.627ZM175.151 134.297C174.728 134.297 174.451 133.945 174.451 133.326C174.451 132.71 174.728 132.362 175.151 132.362C175.574 132.362 175.85 132.71 175.85 133.326C175.85 133.945 175.574 134.297 175.151 134.297ZM175.151 134.063C175.393 134.063 175.557 133.811 175.557 133.326C175.557 132.836 175.393 132.597 175.151 132.597C174.908 132.597 174.74 132.836 174.74 133.326C174.74 133.811 174.908 134.063 175.151 134.063ZM175.239 135.545L176.93 132.362H177.19L175.498 135.545H175.239ZM177.29 135.545C176.867 135.545 176.591 135.193 176.591 134.569C176.591 133.958 176.867 133.606 177.29 133.606C177.705 133.606 177.986 133.958 177.986 134.569C177.986 135.193 177.705 135.545 177.29 135.545ZM177.29 135.31C177.529 135.31 177.697 135.059 177.697 134.569C177.697 134.079 177.529 133.845 177.29 133.845C177.048 133.845 176.88 134.079 176.88 134.569C176.88 135.059 177.048 135.31 177.29 135.31Z" fill="black"/>
<path d="M161.837 126.95C161.837 127.121 161.974 127.258 162.15 127.258C162.321 127.258 162.463 127.121 162.463 126.95C162.463 126.774 162.321 126.633 162.15 126.633C161.974 126.633 161.837 126.774 161.837 126.95ZM161.618 126.95C161.618 126.652 161.852 126.413 162.15 126.413C162.443 126.413 162.688 126.652 162.688 126.95C162.688 127.243 162.443 127.483 162.15 127.483C161.852 127.483 161.618 127.243 161.618 126.95ZM160.797 126.794C160.787 126.862 160.768 127.038 160.768 127.141C160.768 127.4 160.768 127.81 160.768 128.049C160.768 128.445 160.768 130.028 160.768 130.38C160.768 130.634 160.645 130.766 160.347 130.766C160.142 130.766 159.854 130.756 159.654 130.732L159.619 130.346C159.834 130.385 160.054 130.399 160.186 130.399C160.318 130.399 160.372 130.346 160.372 130.214C160.377 129.95 160.377 128.279 160.377 128.049C160.377 127.883 160.377 127.4 160.377 127.141C160.377 127.033 160.357 126.867 160.343 126.794H160.797ZM158.603 127.615C158.74 127.634 158.862 127.644 159.014 127.644C159.302 127.644 161.769 127.644 162.062 127.644C162.175 127.644 162.336 127.634 162.458 127.619V128.025C162.331 128.015 162.184 128.01 162.067 128.01C161.774 128.01 159.317 128.01 159.019 128.01C158.867 128.01 158.73 128.015 158.603 128.03V127.615ZM159.727 128.768C159.517 129.183 159.063 129.808 158.784 130.106L158.447 129.877C158.774 129.579 159.19 128.997 159.38 128.601L159.727 128.768ZM161.764 128.601C162.028 128.914 162.414 129.525 162.609 129.881L162.253 130.082C162.057 129.696 161.691 129.09 161.432 128.782L161.764 128.601ZM166.733 126.911C166.855 127.092 167.075 127.439 167.187 127.673L166.909 127.8C166.786 127.541 166.62 127.248 166.459 127.028L166.733 126.911ZM167.368 126.677C167.5 126.848 167.72 127.199 167.837 127.424L167.558 127.551C167.431 127.297 167.26 127.014 167.099 126.799L167.368 126.677ZM164.642 126.838C164.93 126.999 165.492 127.375 165.707 127.532L165.472 127.864C165.243 127.688 164.71 127.331 164.422 127.17L164.642 126.838ZM163.909 130.331C164.446 130.238 165.052 130.048 165.55 129.764C166.361 129.3 167.001 128.665 167.397 127.976L167.637 128.377C167.211 129.031 166.537 129.667 165.756 130.121C165.262 130.409 164.588 130.639 164.139 130.732L163.909 130.331ZM163.909 127.937C164.197 128.093 164.769 128.445 164.979 128.597L164.754 128.939C164.515 128.768 163.987 128.426 163.689 128.274L163.909 127.937ZM169.361 126.945C169.503 126.96 169.644 126.97 169.806 126.97C170.089 126.97 171.511 126.97 171.784 126.97C171.921 126.97 172.097 126.96 172.239 126.945V127.351C172.092 127.341 171.921 127.331 171.784 127.331C171.511 127.331 170.089 127.331 169.811 127.331C169.649 127.331 169.488 127.341 169.361 127.351V126.945ZM168.78 128.172C168.912 128.186 169.053 128.191 169.205 128.191C169.488 128.191 172.141 128.191 172.4 128.191C172.502 128.191 172.664 128.186 172.786 128.172V128.572C172.673 128.567 172.522 128.562 172.4 128.562C172.141 128.562 169.488 128.562 169.205 128.562C169.058 128.562 168.912 128.567 168.78 128.577V128.172ZM171.081 128.367C171.081 128.983 171.003 129.491 170.783 129.901C170.607 130.228 170.236 130.575 169.825 130.79L169.464 130.526C169.84 130.365 170.192 130.087 170.382 129.774C170.626 129.388 170.666 128.909 170.67 128.372L171.081 128.367ZM173.697 129.3C174.341 129.144 175.06 128.802 175.46 128.558C175.919 128.279 176.369 127.874 176.623 127.566L176.926 127.859C176.643 128.162 176.134 128.587 175.626 128.895C175.216 129.139 174.537 129.461 173.887 129.662L173.697 129.3ZM175.416 128.782L175.822 128.68V130.512C175.822 130.658 175.827 130.863 175.846 130.937H175.392C175.402 130.863 175.416 130.658 175.416 130.512V128.782ZM181.875 126.496C181.992 126.667 182.168 126.955 182.266 127.141L181.992 127.263C181.894 127.063 181.728 126.784 181.606 126.608L181.875 126.496ZM182.505 126.374C182.622 126.54 182.803 126.828 182.906 127.019L182.632 127.136C182.525 126.936 182.368 126.652 182.236 126.486L182.505 126.374ZM182.315 127.375C182.285 127.444 182.261 127.527 182.241 127.619C182.139 128.132 181.899 128.924 181.513 129.422C181.069 129.999 180.487 130.448 179.593 130.732L179.261 130.365C180.204 130.126 180.756 129.71 181.162 129.188C181.508 128.748 181.738 128.064 181.802 127.595C181.523 127.595 179.584 127.595 179.305 127.595C179.11 127.595 178.944 127.605 178.817 127.615V127.18C178.953 127.194 179.144 127.214 179.305 127.214C179.584 127.214 181.533 127.214 181.758 127.214C181.831 127.214 181.929 127.209 182.017 127.185L182.315 127.375Z" fill="black"/>
<path d="M172.175 122.113C175.153 122.113 177.568 120.16 177.568 117.752C177.568 115.343 175.153 113.391 172.175 113.391C169.197 113.391 166.782 115.343 166.782 117.752C166.782 120.16 169.197 122.113 172.175 122.113Z" fill="#A6FF4D"/>
<path d="M169.933 119.113C169.946 119.157 170.283 120.174 172.175 120.174C174.068 120.174 174.404 119.157 174.418 119.113C174.434 119.061 174.405 119.006 174.347 118.979C174.288 118.952 174.215 118.96 174.167 118.998C174.161 119.002 173.582 119.447 172.175 119.447C170.769 119.447 170.189 119.002 170.184 118.998C170.155 118.975 170.116 118.963 170.078 118.963C170.053 118.963 170.027 118.968 170.004 118.978C169.946 119.006 169.916 119.061 169.933 119.113Z" fill="#664500"/>
<path d="M170.377 117.51C170.791 117.51 171.126 117.13 171.126 116.661C171.126 116.193 170.791 115.813 170.377 115.813C169.964 115.813 169.628 116.193 169.628 116.661C169.628 117.13 169.964 117.51 170.377 117.51Z" fill="#664500"/>
<path d="M173.973 117.51C174.386 117.51 174.722 117.13 174.722 116.661C174.722 116.193 174.386 115.813 173.973 115.813C173.559 115.813 173.224 116.193 173.224 116.661C173.224 117.13 173.559 117.51 173.973 117.51Z" fill="#664500"/>
<path d="M139.745 88.8004H142.617V89.0726H139.745V88.8004ZM139.791 89.4034H142.215V89.6672H139.791V89.4034ZM139.309 90.0022H141.834V90.2744H139.309V90.0022ZM139.799 88.3481L140.13 88.4235C139.925 89.0684 139.581 89.6462 139.184 90.0189C139.121 89.9645 138.978 89.864 138.895 89.8179C139.305 89.4787 139.628 88.9386 139.799 88.3481ZM140.926 90.3456L141.227 90.4461C140.775 91.2459 140.038 91.8573 139.242 92.2467C139.196 92.1797 139.079 92.0583 139.008 92.0038C139.812 91.6605 140.524 91.0742 140.926 90.3456ZM141.717 90.0022H142.04C142.04 91.0868 142.102 91.9033 142.421 91.9033C142.504 91.9033 142.521 91.6646 142.529 91.3087C142.592 91.3757 142.684 91.4511 142.751 91.493C142.722 92.0206 142.655 92.209 142.4 92.2132C141.801 92.209 141.734 91.3003 141.717 90.0022ZM139.414 90.7224L139.636 90.5173C140.281 90.8648 141.064 91.4134 141.445 91.8238L141.194 92.0583C140.838 91.6521 140.063 91.0868 139.414 90.7224ZM143.878 89.9436H146.273V90.2493H143.878V89.9436ZM146.168 89.9436H146.495C146.495 89.9436 146.491 90.0524 146.487 90.0943C146.428 91.3925 146.369 91.8782 146.219 92.0373C146.135 92.142 146.043 92.1713 145.896 92.1839C145.758 92.1965 145.494 92.1923 145.23 92.1797C145.226 92.0834 145.184 91.9536 145.126 91.8615C145.402 91.8866 145.662 91.8908 145.762 91.8908C145.846 91.8908 145.896 91.8824 145.938 91.8363C146.051 91.7233 146.114 91.2459 146.168 90.0022V89.9436ZM144.452 88.4444L144.782 88.5407C144.481 89.2484 143.987 89.8724 143.459 90.2744C143.4 90.2074 143.266 90.0859 143.187 90.0273C143.723 89.6672 144.188 89.0893 144.452 88.4444ZM145.913 88.436C146.185 88.9972 146.725 89.6337 147.182 89.9561C147.098 90.0231 146.981 90.1488 146.918 90.2367C146.453 89.8598 145.926 89.1814 145.612 88.5575L145.913 88.436ZM144.761 90.0273H145.096C145 90.9444 144.782 91.8112 143.614 92.23C143.576 92.1504 143.484 92.0248 143.413 91.9578C144.51 91.5935 144.678 90.8188 144.761 90.0273ZM149.376 88.5659C149.338 88.7292 149.292 88.9595 149.183 89.2401C149.079 89.4955 148.924 89.7761 148.756 89.9938C148.92 89.8975 149.158 89.8389 149.343 89.8389C149.665 89.8389 149.916 90.0315 149.916 90.3707C149.916 90.5884 149.925 91.07 149.929 91.3296H149.606C149.623 91.1077 149.627 90.6764 149.623 90.4586C149.619 90.2158 149.452 90.1027 149.234 90.1027C148.966 90.1027 148.702 90.2367 148.509 90.4084C148.388 90.5256 148.271 90.6764 148.132 90.8481L147.843 90.6345C148.446 90.0566 148.727 89.5709 148.869 89.2149C148.962 88.9846 149.02 88.7334 149.033 88.5365L149.376 88.5659ZM147.94 89.0181C148.166 89.0474 148.455 89.06 148.647 89.06C149.213 89.06 149.937 89.0265 150.528 88.9218V89.2317C149.941 89.3196 149.163 89.3573 148.631 89.3573C148.451 89.3573 148.174 89.3489 147.94 89.3322V89.0181ZM151.139 90.0273C151.034 90.0608 150.884 90.1194 150.771 90.1613C150.473 90.2786 150.075 90.4377 149.669 90.6471C149.255 90.8648 148.962 91.091 148.962 91.3799C148.962 91.7065 149.284 91.7568 149.715 91.7568C150.042 91.7568 150.494 91.7191 150.863 91.6521L150.85 91.9913C150.532 92.029 150.067 92.0625 149.703 92.0625C149.108 92.0625 148.627 91.9326 148.627 91.426C148.627 90.9151 149.146 90.601 149.644 90.3456C150.042 90.1404 150.381 90.0106 150.658 89.8807C150.783 89.8221 150.888 89.7761 151.005 89.7174L151.139 90.0273ZM153.543 89.9561C154.079 90.2702 154.766 90.7518 155.18 91.0868L154.933 91.3799C154.548 91.0281 153.832 90.5131 153.312 90.1906L153.543 89.9561ZM155.456 89.194C155.423 89.2526 155.381 89.3489 155.36 89.4159C155.235 89.8431 154.971 90.4 154.602 90.8523C154.221 91.3213 153.677 91.7693 152.881 92.0625L152.584 91.7986C153.363 91.5641 153.932 91.1203 154.309 90.6722C154.632 90.2869 154.895 89.7551 154.992 89.3657H153.442L153.576 89.0642H154.908C155.021 89.0642 155.113 89.0516 155.18 89.0265L155.456 89.194ZM154.045 88.5868C153.974 88.6957 153.899 88.838 153.857 88.9176C153.61 89.3782 153.137 90.0106 152.467 90.4712L152.19 90.2576C152.906 89.8096 153.338 89.1814 153.53 88.7962C153.572 88.725 153.639 88.5742 153.664 88.4654L154.045 88.5868ZM158.183 89.4662C158.254 89.6337 158.459 90.1864 158.509 90.3665L158.199 90.4796C158.153 90.2869 157.961 89.7551 157.873 89.5709L158.183 89.4662ZM159.698 89.7007C159.669 89.7844 159.648 89.8514 159.631 89.9059C159.523 90.3665 159.338 90.8188 159.041 91.1956C158.652 91.6856 158.141 92.0122 157.676 92.1881L157.399 91.9075C157.881 91.7651 158.417 91.4469 158.76 91.0198C159.058 90.6554 159.271 90.1194 159.338 89.5834L159.698 89.7007ZM157.207 89.6756C157.291 89.8514 157.513 90.4 157.588 90.6219L157.274 90.7392C157.207 90.5214 156.981 89.9394 156.897 89.7928L157.207 89.6756ZM163.886 88.8674C163.886 89.0223 164.007 89.1437 164.162 89.1437C164.313 89.1437 164.439 89.0223 164.439 88.8674C164.439 88.7166 164.313 88.591 164.162 88.591C164.007 88.591 163.886 88.7166 163.886 88.8674ZM163.693 88.8674C163.693 88.6077 163.903 88.3984 164.162 88.3984C164.422 88.3984 164.631 88.6077 164.631 88.8674C164.631 89.127 164.422 89.3364 164.162 89.3364C163.903 89.3364 163.693 89.127 163.693 88.8674ZM164.058 89.1479C164.028 89.2066 164.012 89.2777 163.995 89.3573C163.903 89.797 163.702 90.4754 163.367 90.9025C162.986 91.3966 162.487 91.7819 161.721 92.0248L161.436 91.7107C162.249 91.5055 162.718 91.1496 163.069 90.7015C163.367 90.3246 163.559 89.7384 163.618 89.3364C163.375 89.3364 161.717 89.3364 161.474 89.3364C161.306 89.3364 161.164 89.3447 161.059 89.3531V88.9804C161.172 88.993 161.34 89.0097 161.478 89.0097C161.717 89.0097 163.388 89.0097 163.576 89.0097C163.643 89.0097 163.723 89.0056 163.802 88.9846L164.058 89.1479ZM166.294 88.6119C166.273 88.7501 166.26 88.8967 166.252 89.0349C166.235 89.5081 166.202 90.5005 166.202 91.1245C166.202 91.5851 166.491 91.7442 166.888 91.7442C167.655 91.7442 168.09 91.3171 168.392 90.8816L168.626 91.1663C168.342 91.5641 167.797 92.0876 166.88 92.0876C166.277 92.0876 165.863 91.8405 165.863 91.1538C165.863 90.534 165.904 89.4746 165.904 89.0349C165.904 88.8799 165.892 88.7334 165.867 88.6119H166.294ZM169.45 89.0935C169.609 89.0893 169.743 89.0809 169.827 89.0726C170.099 89.0432 170.886 88.9679 171.661 88.9009C172.118 88.8632 172.507 88.838 172.788 88.8297L172.792 89.1647C172.549 89.1605 172.185 89.1689 171.971 89.2275C171.372 89.4201 171.008 90.0608 171.008 90.5549C171.008 91.3715 171.774 91.6311 172.453 91.6605L172.335 92.0038C171.556 91.9745 170.677 91.5641 170.677 90.6261C170.677 89.9729 171.075 89.4411 171.46 89.2149C171.008 89.261 169.944 89.3657 169.488 89.462L169.45 89.0935ZM175.3 89.1605H177.423V89.4494H175.3V89.1605ZM175.38 89.998H177.335V90.2828H175.38V89.998ZM175.17 90.8774H177.482V91.1705H175.17V90.8774ZM176.184 89.261H176.489V92.209H176.184V89.261ZM176.933 88.3523L177.239 88.4528C177.113 88.7082 176.971 89.0014 176.849 89.1898L176.607 89.1019C176.715 88.9009 176.858 88.5742 176.933 88.3523ZM175.48 88.4737L175.736 88.3816C175.878 88.6035 176.016 88.9009 176.066 89.0935L175.794 89.2024C175.748 89.0056 175.614 88.6999 175.48 88.4737ZM173.809 89.6253H175.057V89.8766H173.809V89.6253ZM173.83 88.5072H175.049V88.7585H173.83V88.5072ZM173.809 90.1864H175.057V90.4377H173.809V90.1864ZM173.613 89.0558H175.204V89.3154H173.613V89.0558ZM173.96 90.7518H175.057V91.9745H173.96V91.7107H174.781V91.0114H173.96V90.7518ZM173.805 90.7518H174.077V92.1672H173.805V90.7518ZM180.547 88.8213H180.828V91.8154H180.547V88.8213ZM179.718 88.6915H181.699V92.1253H181.406V88.9846H180.003V92.1588H179.718V88.6915ZM179.873 90.1446H181.535V90.4335H179.873V90.1446ZM179.873 91.6395H181.523V91.9285H179.873V91.6395ZM178.675 90.3288H178.956V92.2048H178.675V90.3288ZM178.633 88.3565L178.914 88.4695C178.755 88.7794 178.55 89.1521 178.386 89.3866L178.164 89.2861C178.328 89.0432 178.525 88.637 178.633 88.3565ZM179.148 88.838L179.416 88.9679C179.123 89.4327 178.709 90.0273 178.386 90.3874L178.19 90.2744C178.512 89.9059 178.918 89.2819 179.148 88.838ZM177.963 89.2526L178.123 89.0432C178.349 89.2317 178.608 89.4997 178.721 89.6797L178.554 89.9226C178.445 89.73 178.185 89.4452 177.963 89.2526ZM179.031 89.797L179.27 89.6923C179.454 89.9645 179.638 90.3246 179.71 90.5591L179.458 90.6806C179.391 90.4461 179.211 90.0734 179.031 89.797ZM177.934 90.2074C178.315 90.1864 178.88 90.1488 179.442 90.1069L179.446 90.3623C178.922 90.4084 178.386 90.4586 177.98 90.4963L177.934 90.2074ZM179.107 90.8104L179.349 90.735C179.471 90.9905 179.588 91.3255 179.638 91.5474L179.375 91.6353C179.337 91.4134 179.224 91.07 179.107 90.8104ZM178.194 90.7476L178.466 90.7978C178.411 91.1915 178.311 91.5976 178.181 91.8656C178.127 91.8321 178.001 91.7735 177.93 91.7484C178.068 91.493 178.148 91.1161 178.194 90.7476ZM184.09 88.5659C184.052 88.7292 184.006 88.9595 183.897 89.2401C183.792 89.4955 183.638 89.7761 183.47 89.9938C183.633 89.8975 183.872 89.8389 184.056 89.8389C184.379 89.8389 184.63 90.0315 184.63 90.3707C184.63 90.5884 184.638 91.07 184.643 91.3296H184.32C184.337 91.1077 184.341 90.6764 184.337 90.4586C184.333 90.2158 184.165 90.1027 183.947 90.1027C183.679 90.1027 183.416 90.2367 183.223 90.4084C183.102 90.5256 182.984 90.6764 182.846 90.8481L182.557 90.6345C183.16 90.0566 183.441 89.5709 183.583 89.2149C183.675 88.9846 183.734 88.7334 183.746 88.5365L184.09 88.5659ZM182.653 89.0181C182.88 89.0474 183.169 89.06 183.361 89.06C183.926 89.06 184.651 89.0265 185.241 88.9218V89.2317C184.655 89.3196 183.876 89.3573 183.344 89.3573C183.164 89.3573 182.888 89.3489 182.653 89.3322V89.0181ZM185.853 90.0273C185.748 90.0608 185.597 90.1194 185.484 90.1613C185.187 90.2786 184.789 90.4377 184.383 90.6471C183.968 90.8648 183.675 91.091 183.675 91.3799C183.675 91.7065 183.998 91.7568 184.429 91.7568C184.756 91.7568 185.208 91.7191 185.576 91.6521L185.564 91.9913C185.246 92.029 184.781 92.0625 184.416 92.0625C183.822 92.0625 183.34 91.9326 183.34 91.426C183.34 90.9151 183.859 90.601 184.358 90.3456C184.756 90.1404 185.095 90.0106 185.371 89.8807C185.497 89.8221 185.601 89.7761 185.719 89.7174L185.853 90.0273ZM186.933 88.7082H190.296V88.9804H186.933V88.7082ZM187.126 89.3238H190.132V89.5876H187.126V89.3238ZM186.778 89.9645H190.438V90.2409H186.778V89.9645ZM188.441 88.3565H188.759V90.1781H188.441V88.3565ZM188.428 90.0566L188.7 90.1864C188.265 90.6638 187.49 91.1035 186.841 91.3171C186.791 91.2375 186.703 91.1203 186.636 91.0575C187.281 90.8732 188.039 90.4712 188.428 90.0566ZM188.885 90.0985C189.136 90.9946 189.68 91.6563 190.568 91.9201C190.497 91.9829 190.409 92.1127 190.363 92.1965C189.437 91.8782 188.889 91.1705 188.6 90.1571L188.885 90.0985ZM190.078 90.3791L190.329 90.5759C190.032 90.8146 189.634 91.07 189.333 91.2375L189.14 91.0658C189.433 90.8899 189.839 90.601 190.078 90.3791ZM187.101 91.9201C187.582 91.8154 188.336 91.627 189.052 91.4511L189.081 91.7316C188.42 91.9033 187.704 92.0834 187.201 92.209L187.101 91.9201ZM187.691 90.8355L187.917 90.6094L188.005 90.6345V91.8991H187.691V90.8355ZM192.8 89.8514H193.139V91.8028C193.139 92.0038 193.089 92.1002 192.942 92.1546C192.792 92.2007 192.544 92.2048 192.176 92.2048C192.159 92.1127 192.109 91.9745 192.059 91.8782C192.343 91.8866 192.62 91.8866 192.699 91.8824C192.779 91.8824 192.8 91.8615 192.8 91.7945V89.8514ZM191.849 90.4084L192.176 90.4921C191.971 91.0072 191.64 91.5097 191.305 91.8321C191.242 91.7735 191.1 91.6856 191.016 91.6395C191.359 91.3422 191.669 90.8816 191.849 90.4084ZM193.734 90.534L194.023 90.4126C194.333 90.8062 194.659 91.338 194.781 91.694L194.467 91.8321C194.353 91.4846 194.039 90.936 193.734 90.534ZM191.498 88.6705H194.441V88.9804H191.498V88.6705ZM191.121 89.6839H194.814V89.998H191.121V89.6839Z" fill="black" fill-opacity="0.63"/>
<path d="M196.377 102.66C201.001 105.798 204.551 109.786 206.706 114.263C208.86 118.74 209.552 123.566 208.719 128.304C207.886 133.042 205.554 137.543 201.933 141.402C198.313 145.26 193.518 148.354 187.982 150.403L183.822 143.557C187.902 142.047 191.435 139.768 194.102 136.925C196.77 134.082 198.489 130.765 199.103 127.273C199.717 123.782 199.207 120.226 197.619 116.928C196.031 113.629 193.416 110.69 190.008 108.378L196.377 102.66Z" fill="#4DCAFF"/>
<path d="M141.097 139.897C138.302 136.484 136.46 132.649 135.693 128.642C134.927 124.636 135.252 120.548 136.647 116.646L145.996 118.683C144.968 121.558 144.728 124.571 145.293 127.523C145.858 130.475 147.215 133.301 149.275 135.816L141.097 139.897Z" fill="#D3CAB3"/>
<path d="M188.189 150.325C179.951 153.425 170.531 154.024 161.759 152.008C152.986 149.993 145.485 145.505 140.712 139.416L148.991 135.462C152.508 139.948 158.035 143.255 164.5 144.74C170.964 146.226 177.905 145.784 183.975 143.5L188.189 150.325Z" fill="#F7F384"/>
<path d="M136.632 116.688C138.311 111.967 141.506 107.658 145.914 104.17C150.322 100.682 155.798 98.129 161.823 96.7539C167.848 95.3787 174.223 95.2265 180.344 96.3116C186.466 97.3967 192.131 99.6833 196.804 102.955L190.323 108.595C186.88 106.184 182.705 104.5 178.195 103.7C173.684 102.9 168.987 103.013 164.547 104.026C160.107 105.039 156.073 106.92 152.824 109.49C149.576 112.061 147.222 115.236 145.985 118.715L136.632 116.688Z" fill="#A6FF4D"/>
<path d="M158.914 78.3282L159.249 77.9597C159.511 78.0435 159.852 78.1998 160.03 78.3338L159.679 78.7414C159.522 78.6074 159.187 78.4287 158.914 78.3282ZM156.072 78.5348H160.377V79.0652H156.072V78.5348ZM156.502 79.3277H158.149V79.7576H156.502V79.3277ZM156.518 80.02H157.054V81.0473H156.518V80.02ZM159.422 79.2048L160.042 79.3556C159.718 80.2657 159.143 81.0138 158.445 81.4828C158.35 81.36 158.115 81.1255 157.981 81.0138C158.651 80.6286 159.171 79.9809 159.422 79.2048ZM158.11 78.0156H158.741C158.78 79.5566 159.355 80.9357 159.852 80.9301C159.975 80.9301 160.025 80.7403 160.053 80.2601C160.187 80.3829 160.399 80.5002 160.555 80.556C160.466 81.3488 160.265 81.5331 159.813 81.5331C158.836 81.5331 158.182 79.8748 158.11 78.0156ZM156.518 80.02H158.115V81.2316H156.518V80.8017H157.568V80.4499H156.518V80.02ZM156.736 81.7006H157.401V82.4209C157.401 82.5716 157.445 82.5939 157.708 82.5939C157.825 82.5939 158.316 82.5939 158.467 82.5939C158.679 82.5939 158.718 82.5325 158.741 82.0914C158.875 82.1919 159.159 82.2869 159.338 82.3259C159.26 83.0183 159.076 83.1858 158.528 83.1858C158.378 83.1858 157.78 83.1858 157.63 83.1858C156.904 83.1858 156.736 83.0015 156.736 82.4264V81.7006ZM157.255 81.5498L157.685 81.1925C157.998 81.36 158.372 81.628 158.551 81.8402L158.087 82.2422C157.925 82.03 157.563 81.7397 157.255 81.5498ZM159.092 81.896L159.651 81.6113C160.019 81.9463 160.399 82.4153 160.55 82.7782L159.941 83.0909C159.813 82.7447 159.455 82.2478 159.092 81.896ZM155.988 81.695L156.585 81.9072C156.451 82.3762 156.234 82.8452 155.854 83.1467L155.296 82.767C155.636 82.5158 155.871 82.1138 155.988 81.695ZM155.759 78.5348H156.373V79.3891C156.373 80.0758 156.267 81.0641 155.737 81.695C155.642 81.5778 155.374 81.3544 155.245 81.2874C155.714 80.7291 155.759 79.9474 155.759 79.3835V78.5348ZM163.52 81.2316H165.452V81.7062H163.52V81.2316ZM162.833 78.3952H166.167V78.8754H162.833V78.3952ZM162.984 79.0987H166.01V79.551H162.984V79.0987ZM162.66 79.7855H166.34V80.2657H162.66V79.7855ZM163.526 81.9574H165.463V82.4209H163.526V81.9574ZM163.034 80.4834H165.424V80.9692H163.654V83.2639H163.034V80.4834ZM165.329 80.4834H165.96V82.6163C165.96 82.9066 165.904 83.0685 165.703 83.1579C165.502 83.2528 165.229 83.2584 164.838 83.2584C164.815 83.0909 164.732 82.8452 164.659 82.6889C164.882 82.7 165.15 82.7 165.229 82.6944C165.301 82.6944 165.329 82.6721 165.329 82.6051V80.4834ZM164.145 78.0156H164.81V79.9418H164.145V78.0156ZM161.745 78.0156H162.348V83.2584H161.745V78.0156ZM161.264 79.1211L161.733 79.1769C161.722 79.6459 161.633 80.3159 161.521 80.7514L161.03 80.5839C161.153 80.1987 161.231 79.5733 161.264 79.1211ZM162.258 78.948L162.671 78.7749C162.789 79.0317 162.934 79.3723 162.995 79.5789L162.56 79.7855C162.504 79.5677 162.37 79.216 162.258 78.948ZM170.047 78.9312C169.969 79.5007 169.857 80.154 169.662 80.8128C169.327 81.9407 168.847 82.633 168.238 82.633C167.613 82.633 167.099 81.9463 167.099 81.0027C167.099 79.7185 168.221 78.613 169.667 78.613C171.046 78.613 171.923 79.5733 171.923 80.7961C171.923 81.9686 171.203 82.8005 169.796 83.0183L169.371 82.3594C169.589 82.3315 169.746 82.3036 169.896 82.2701C170.605 82.097 171.164 81.5889 171.164 80.7682C171.164 79.8916 170.617 79.2662 169.651 79.2662C168.467 79.2662 167.819 80.2322 167.819 80.9357C167.819 81.4996 168.043 81.7732 168.255 81.7732C168.495 81.7732 168.707 81.4158 168.942 80.6621C169.103 80.1372 169.226 79.4952 169.282 78.9089L170.047 78.9312ZM173.95 79.819H176.753V80.4052H173.95V79.819ZM173.883 82.4711H176.764V83.0574H173.883V82.4711ZM173.587 80.9636H177.144V83.2695H176.457V81.5554H174.246V83.2695H173.587V80.9636ZM175.323 78.68C174.866 79.3332 174.006 80.0702 173.084 80.5616C172.995 80.4052 172.811 80.1596 172.666 80.02C173.632 79.551 174.531 78.7079 174.944 78.0211H175.642C176.25 78.881 177.149 79.5901 178.048 79.953C177.881 80.1205 177.724 80.3494 177.607 80.556C176.747 80.1037 175.809 79.3444 175.323 78.68ZM180.795 79.8916H183.821V80.556H180.795V79.8916ZM181.973 78.0379H182.654V83.2584H181.973V78.0379ZM178.796 79.7297H180.6V80.2322H178.796V79.7297ZM178.83 78.1886H180.611V78.6967H178.83V78.1886ZM178.796 80.489H180.6V80.9971H178.796V80.489ZM178.523 78.9424H180.823V79.4728H178.523V78.9424ZM179.103 81.2651H180.583V82.9624H179.103V82.432H179.997V81.7955H179.103V81.2651ZM178.779 81.2651H179.36V83.1858H178.779V81.2651Z" fill="#00ABB6"/>
<path d="M310 52L250 52" stroke="black" stroke-width="2"/>
<path d="M310 70V51" stroke="black" stroke-width="2"/>
<rect x="252.5" y="72.5" width="91" height="59" rx="4.5" fill="white" stroke="black" stroke-linejoin="round"/>
<path d="M268.65 84C268.9 84.36 269.26 84.97 269.46 85.37L268.92 85.62C268.72 85.21 268.38 84.61 268.11 84.23L268.65 84ZM269.74 83.6C270.01 83.97 270.39 84.59 270.58 84.96L270.04 85.2C269.82 84.77 269.5 84.2 269.22 83.83L269.74 83.6ZM269.31 85.99C269.23 86.14 269.13 86.37 269.08 86.53C268.81 87.53 268.19 88.89 267.31 89.97C266.4 91.08 265.2 92 263.32 92.69L262.6 92.04C264.44 91.5 265.68 90.59 266.59 89.53C267.37 88.61 267.98 87.32 268.19 86.41H264.48L264.8 85.69C265.21 85.69 267.68 85.69 267.99 85.69C268.26 85.69 268.48 85.66 268.65 85.59L269.31 85.99ZM265.96 84.48C265.8 84.74 265.62 85.08 265.52 85.27C264.93 86.37 263.88 87.8 262.28 88.87L261.58 88.35C263.31 87.32 264.29 85.87 264.73 84.97C264.83 84.8 264.98 84.43 265.04 84.18L265.96 84.48ZM273.51 84.56C273.77 84.59 274.08 84.61 274.4 84.61C274.94 84.61 277.75 84.61 278.34 84.61C278.65 84.61 279 84.59 279.24 84.56V85.39C279.01 85.37 278.66 85.36 278.32 85.36C277.76 85.36 274.95 85.36 274.4 85.36C274.1 85.36 273.78 85.37 273.51 85.39V84.56ZM279.98 87.19C279.93 87.29 279.86 87.41 279.84 87.49C279.58 88.47 279.13 89.51 278.38 90.33C277.34 91.48 276.08 92.06 274.81 92.42L274.19 91.71C275.6 91.42 276.85 90.77 277.71 89.87C278.31 89.24 278.71 88.39 278.89 87.66C278.4 87.66 274.19 87.66 273.59 87.66C273.35 87.66 272.97 87.67 272.61 87.7V86.86C272.97 86.89 273.31 86.92 273.59 86.92C274.08 86.92 278.34 86.92 278.85 86.92C279.08 86.92 279.3 86.89 279.41 86.84L279.98 87.19ZM290.01 85.36C289.94 85.5 289.9 85.66 289.86 85.86C289.64 86.91 289.16 88.52 288.36 89.55C287.45 90.72 286.26 91.65 284.43 92.22L283.75 91.47C285.69 90.99 286.81 90.14 287.65 89.07C288.36 88.16 288.82 86.77 288.96 85.81C288.38 85.81 284.42 85.81 283.84 85.81C283.44 85.81 283.1 85.83 282.85 85.84V84.95C283.12 84.99 283.52 85.02 283.85 85.02C284.42 85.02 288.41 85.02 288.86 85.02C289.01 85.02 289.21 85.01 289.4 84.97L290.01 85.36ZM296.2 84.1C296.11 84.49 296 85.04 295.74 85.71C295.49 86.32 295.12 86.99 294.72 87.51C295.11 87.28 295.68 87.14 296.12 87.14C296.89 87.14 297.49 87.6 297.49 88.41C297.49 88.93 297.51 90.08 297.52 90.7H296.75C296.79 90.17 296.8 89.14 296.79 88.62C296.78 88.04 296.38 87.77 295.86 87.77C295.22 87.77 294.59 88.09 294.13 88.5C293.84 88.78 293.56 89.14 293.23 89.55L292.54 89.04C293.98 87.66 294.65 86.5 294.99 85.65C295.21 85.1 295.35 84.5 295.38 84.03L296.2 84.1ZM292.77 85.18C293.31 85.25 294 85.28 294.46 85.28C295.81 85.28 297.54 85.2 298.95 84.95V85.69C297.55 85.9 295.69 85.99 294.42 85.99C293.99 85.99 293.33 85.97 292.77 85.93V85.18ZM300.41 87.59C300.16 87.67 299.8 87.81 299.53 87.91C298.82 88.19 297.87 88.57 296.9 89.07C295.91 89.59 295.21 90.13 295.21 90.82C295.21 91.6 295.98 91.72 297.01 91.72C297.79 91.72 298.87 91.63 299.75 91.47L299.72 92.28C298.96 92.37 297.85 92.45 296.98 92.45C295.56 92.45 294.41 92.14 294.41 90.93C294.41 89.71 295.65 88.96 296.84 88.35C297.79 87.86 298.6 87.55 299.26 87.24C299.56 87.1 299.81 86.99 300.09 86.85L300.41 87.59ZM305.95 87.42C307.23 88.17 308.87 89.32 309.86 90.12L309.27 90.82C308.35 89.98 306.64 88.75 305.4 87.98L305.95 87.42ZM310.52 85.6C310.44 85.74 310.34 85.97 310.29 86.13C309.99 87.15 309.36 88.48 308.48 89.56C307.57 90.68 306.27 91.75 304.37 92.45L303.66 91.82C305.52 91.26 306.88 90.2 307.78 89.13C308.55 88.21 309.18 86.94 309.41 86.01H305.71L306.03 85.29H309.21C309.48 85.29 309.7 85.26 309.86 85.2L310.52 85.6ZM307.15 84.15C306.98 84.41 306.8 84.75 306.7 84.94C306.11 86.04 304.98 87.55 303.38 88.65L302.72 88.14C304.43 87.07 305.46 85.57 305.92 84.65C306.02 84.48 306.18 84.12 306.24 83.86L307.15 84.15ZM316.83 86.25C317 86.65 317.49 87.97 317.61 88.4L316.87 88.67C316.76 88.21 316.3 86.94 316.09 86.5L316.83 86.25ZM320.45 86.81C320.38 87.01 320.33 87.17 320.29 87.3C320.03 88.4 319.59 89.48 318.88 90.38C317.95 91.55 316.73 92.33 315.62 92.75L314.96 92.08C316.11 91.74 317.39 90.98 318.21 89.96C318.92 89.09 319.43 87.81 319.59 86.53L320.45 86.81ZM314.5 86.75C314.7 87.17 315.23 88.48 315.41 89.01L314.66 89.29C314.5 88.77 313.96 87.38 313.76 87.03L314.5 86.75ZM330.25 84.82C330.25 85.19 330.54 85.48 330.91 85.48C331.27 85.48 331.57 85.19 331.57 84.82C331.57 84.46 331.27 84.16 330.91 84.16C330.54 84.16 330.25 84.46 330.25 84.82ZM329.79 84.82C329.79 84.2 330.29 83.7 330.91 83.7C331.53 83.7 332.03 84.2 332.03 84.82C332.03 85.44 331.53 85.94 330.91 85.94C330.29 85.94 329.79 85.44 329.79 84.82ZM330.66 85.49C330.59 85.63 330.55 85.8 330.51 85.99C330.29 87.04 329.81 88.66 329.01 89.68C328.1 90.86 326.91 91.78 325.08 92.36L324.4 91.61C326.34 91.12 327.46 90.27 328.3 89.2C329.01 88.3 329.47 86.9 329.61 85.94C329.03 85.94 325.07 85.94 324.49 85.94C324.09 85.94 323.75 85.96 323.5 85.98V85.09C323.77 85.12 324.17 85.16 324.5 85.16C325.07 85.16 329.06 85.16 329.51 85.16C329.67 85.16 329.86 85.15 330.05 85.1L330.66 85.49ZM264.4 98.21C264.35 98.54 264.32 98.89 264.3 99.22C264.26 100.35 264.18 102.72 264.18 104.21C264.18 105.31 264.87 105.69 265.82 105.69C267.65 105.69 268.69 104.67 269.41 103.63L269.97 104.31C269.29 105.26 267.99 106.51 265.8 106.51C264.36 106.51 263.37 105.92 263.37 104.28C263.37 102.8 263.47 100.27 263.47 99.22C263.47 98.85 263.44 98.5 263.38 98.21H264.4ZM271.737 99.36C272.117 99.35 272.437 99.33 272.637 99.31C273.287 99.24 275.167 99.06 277.017 98.9C278.107 98.81 279.037 98.75 279.707 98.73L279.717 99.53C279.137 99.52 278.267 99.54 277.757 99.68C276.327 100.14 275.457 101.67 275.457 102.85C275.457 104.8 277.287 105.42 278.907 105.49L278.627 106.31C276.767 106.24 274.667 105.26 274.667 103.02C274.667 101.46 275.617 100.19 276.537 99.65C275.457 99.76 272.917 100.01 271.827 100.24L271.737 99.36ZM287.347 97.6H288.107V99.22H287.347V97.6ZM286.777 99.37L287.577 99.6C287.247 100.37 286.847 101.3 286.517 101.88L285.887 101.67C286.207 101.07 286.587 100.07 286.777 99.37ZM288.487 100.3L289.067 99.99C289.697 100.69 290.397 101.66 290.697 102.29L290.067 102.65C289.777 102.02 289.107 101.03 288.487 100.3ZM285.067 98.93H290.537V99.61H285.067V98.93ZM285.107 101.49C286.277 101.44 288.067 101.33 289.797 101.21L289.787 101.87C288.127 101.99 286.387 102.11 285.177 102.19L285.107 101.49ZM288.257 102.55H288.967V105.78C288.967 106.03 289.007 106.06 289.217 106.06C289.317 106.06 289.777 106.06 289.907 106.06C290.107 106.06 290.147 105.9 290.177 104.8C290.327 104.93 290.627 105.05 290.817 105.09C290.757 106.4 290.577 106.74 289.977 106.74C289.837 106.74 289.247 106.74 289.107 106.74C288.427 106.74 288.257 106.52 288.257 105.78V102.55ZM283.047 97.61L283.707 97.87C283.327 98.6 282.857 99.49 282.467 100.04L281.947 99.8C282.327 99.23 282.787 98.27 283.047 97.61ZM284.167 98.75L284.797 99.03C284.117 100.18 283.157 101.63 282.417 102.51L281.957 102.25C282.697 101.35 283.637 99.83 284.167 98.75ZM281.467 99.71L281.847 99.22C282.407 99.69 283.037 100.34 283.307 100.79L282.907 101.36C282.637 100.89 282.007 100.19 281.467 99.71ZM283.817 101.07L284.337 100.86C284.747 101.5 285.147 102.36 285.287 102.91L284.727 103.17C284.587 102.61 284.217 101.73 283.817 101.07ZM281.437 102.09C282.307 102.06 283.557 102.01 284.827 101.94L284.817 102.56C283.617 102.64 282.407 102.71 281.497 102.77L281.437 102.09ZM284.077 103.43L284.617 103.26C284.897 103.82 285.167 104.58 285.267 105.08L284.687 105.28C284.597 104.78 284.327 104.01 284.077 103.43ZM281.997 103.32L282.647 103.44C282.507 104.38 282.257 105.35 281.937 105.99C281.807 105.91 281.507 105.77 281.347 105.7C281.677 105.09 281.877 104.2 281.997 103.32ZM283.077 102.37H283.747V106.83H283.077V102.37ZM286.407 102.56H287.127C287.037 104.75 286.707 106.1 284.927 106.84C284.837 106.67 284.637 106.42 284.487 106.29C286.087 105.66 286.327 104.5 286.407 102.56ZM295.637 101.03H301.007V101.77H295.637V101.03ZM297.987 97.63H298.747V106.8H297.987V97.63ZM292.147 100.63H295.267V101.23H292.147V100.63ZM292.207 97.96H295.277V98.56H292.207V97.96ZM292.147 101.97H295.267V102.57H292.147V101.97ZM291.677 99.27H295.657V99.89H291.677V99.27ZM292.497 103.32H295.237V106.24H292.497V105.61H294.567V103.94H292.497V103.32ZM292.137 103.32H292.807V106.7H292.137V103.32ZM302.787 105.46H310.197V106.18H302.787V105.46ZM302.067 98.26H310.917V98.97H302.067V98.26ZM302.377 99.97H303.107V106.8H302.377V99.97ZM309.897 99.97H310.637V106.77H309.897V99.97ZM306.077 98.48H306.837V100.41H306.077V98.48ZM306.127 100.35H306.787V104.31H306.127V100.35ZM304.697 102.63V103.94H308.227V102.63H304.697ZM304.697 100.72V102.02H308.227V100.72H304.697ZM304.057 100.08H308.887V104.58H304.057V100.08ZM315.247 102.05H317.987V102.67H315.247V102.05ZM315.247 103.79H318.017V104.41H315.247V103.79ZM313.187 105.58H320.247V106.28H313.187V105.58ZM312.727 100.24H320.657V106.81H319.897V100.94H313.457V106.81H312.727V100.24ZM314.897 100.68H315.577V105.9H314.897V100.68ZM317.697 100.68H318.387V105.87H317.697V100.68ZM316.197 98.6L317.067 98.8C316.857 99.47 316.647 100.24 316.447 100.74L315.767 100.55C315.927 100.01 316.127 99.18 316.197 98.6ZM312.277 98.27H321.137V98.99H312.277V98.27ZM322.447 103.26C322.697 103.07 322.907 102.87 323.167 102.6C323.707 102.06 324.537 100.92 325.137 100.22C325.717 99.53 326.237 99.43 326.897 100.11C327.497 100.72 328.267 101.71 328.907 102.4C329.507 103.06 330.507 104.11 331.407 104.91L330.767 105.64C330.007 104.92 329.097 103.9 328.417 103.12C327.767 102.39 326.997 101.42 326.537 100.91C326.107 100.44 325.917 100.52 325.577 100.94C325.107 101.52 324.287 102.62 323.777 103.24C323.577 103.51 323.347 103.81 323.187 104.02L322.447 103.26ZM267.42 111.61L268.17 111.74C267.59 112.71 266.69 113.67 265.34 114.41C265.24 114.25 265.02 114.01 264.86 113.9C266.11 113.27 266.98 112.38 267.42 111.61ZM267.18 112.48H269.61V113.1H266.74L267.18 112.48ZM269.35 112.48H269.49L269.62 112.44L270.1 112.67C269.31 114.77 267.44 115.96 265.43 116.54C265.36 116.36 265.17 116.08 265.04 115.93C266.89 115.48 268.69 114.35 269.35 112.6V112.48ZM266.14 113.81L266.62 113.43C267.17 113.75 267.82 114.25 268.14 114.62L267.64 115.04C267.34 114.68 266.68 114.15 266.14 113.81ZM267.95 115.37L268.71 115.5C268.07 116.59 267.03 117.66 265.47 118.46C265.37 118.29 265.15 118.05 264.99 117.94C266.46 117.25 267.46 116.25 267.95 115.37ZM267.67 116.32H270.06V116.96H267.22L267.67 116.32ZM269.84 116.32H269.99L270.13 116.29L270.61 116.5C269.76 119.03 267.63 120.26 265.21 120.81C265.13 120.62 264.96 120.33 264.83 120.17C267.09 119.74 269.13 118.58 269.84 116.44V116.32ZM266.36 117.82L266.87 117.4C267.51 117.75 268.26 118.31 268.62 118.72L268.09 119.19C267.74 118.77 267 118.2 266.36 117.82ZM263.12 112.43H263.85V120.78H263.12V112.43ZM261.48 114.42H265.11V115.13H261.48V114.42ZM263.16 114.69L263.63 114.89C263.23 116.3 262.43 118.05 261.66 118.98C261.59 118.77 261.41 118.46 261.28 118.29C262 117.49 262.8 115.93 263.16 114.69ZM264.6 111.75L265.13 112.33C264.21 112.7 262.81 112.98 261.65 113.14C261.61 112.97 261.51 112.73 261.42 112.56C262.55 112.37 263.87 112.09 264.6 111.75ZM263.82 115.71C264.07 115.93 265.01 116.88 265.21 117.13L264.77 117.72C264.53 117.31 263.78 116.36 263.47 116.01L263.82 115.71ZM271.89 118.14H276.45V118.71H271.89V118.14ZM271.62 113.32H276.61V113.9H271.62V113.32ZM273.79 112.41H274.48V119.77H273.79V112.41ZM271.61 119.79C272.83 119.68 274.7 119.5 276.49 119.31L276.5 119.9C274.8 120.1 272.99 120.31 271.72 120.44L271.61 119.79ZM272.54 116.27V117.01H275.78V116.27H272.54ZM272.54 115.05V115.77H275.78V115.05H272.54ZM271.91 114.53H276.42V117.53H271.91V114.53ZM276.06 111.7L276.44 112.28C275.26 112.54 273.4 112.71 271.9 112.76C271.87 112.6 271.8 112.35 271.72 112.2C273.21 112.12 275.03 111.94 276.06 111.7ZM276.54 113.94H280.15V114.64H276.54V113.94ZM279.86 113.94H280.58C280.58 113.94 280.57 114.22 280.57 114.32C280.46 118.54 280.36 119.94 280.03 120.37C279.85 120.63 279.65 120.72 279.35 120.75C279.07 120.78 278.59 120.78 278.13 120.75C278.11 120.54 278.03 120.23 277.91 120.03C278.4 120.07 278.84 120.08 279.04 120.08C279.2 120.08 279.3 120.05 279.39 119.92C279.64 119.61 279.75 118.17 279.86 114.12V113.94ZM277.75 111.73H278.47C278.46 115.71 278.45 119.07 276.06 120.86C275.94 120.68 275.68 120.44 275.5 120.32C277.79 118.68 277.74 115.51 277.75 111.73ZM282.18 113.42C282.56 113.41 282.88 113.39 283.08 113.37C283.72 113.3 285.61 113.12 287.45 112.96C288.55 112.87 289.48 112.81 290.15 112.79L290.16 113.59C289.58 113.58 288.71 113.6 288.2 113.74C286.77 114.2 285.9 115.73 285.9 116.91C285.9 118.86 287.73 119.49 289.35 119.55L289.06 120.37C287.21 120.3 285.11 119.32 285.11 117.08C285.11 115.53 286.06 114.25 286.97 113.71C285.9 113.82 283.35 114.07 282.27 114.3L282.18 113.42ZM288.71 114.81C288.94 115.14 289.32 115.76 289.54 116.21L289.02 116.44C288.79 115.96 288.51 115.45 288.21 115.03L288.71 114.81ZM289.8 114.39C290.05 114.72 290.44 115.33 290.67 115.77L290.16 116.02C289.92 115.54 289.62 115.04 289.31 114.62L289.8 114.39ZM293.39 113.15C294.78 113.32 296.09 113.34 297.11 113.24C297.93 113.17 298.75 113 299.47 112.76L299.58 113.49C298.93 113.68 298.08 113.85 297.28 113.92C296.27 114.02 294.87 114.02 293.44 113.88L293.39 113.15ZM293.19 115.2C294.9 115.38 296.6 115.35 297.77 115.21C298.72 115.11 299.53 114.91 300.06 114.75L300.19 115.49C299.64 115.64 298.88 115.79 298.04 115.89C296.81 116.05 294.96 116.08 293.24 115.95L293.19 115.2ZM296.61 113.02C296.53 112.73 296.44 112.42 296.33 112.13L297.18 112.02C297.28 112.86 297.59 113.87 297.84 114.58C298.11 115.36 298.55 116.32 299.07 117.09C299.18 117.25 299.3 117.39 299.45 117.52L299.03 118.13C298.47 117.99 297.54 117.89 296.85 117.82L296.91 117.21C297.45 117.26 298.1 117.33 298.41 117.37C297.86 116.51 297.44 115.55 297.15 114.74C296.9 114.05 296.75 113.52 296.61 113.02ZM294.65 117.36C294.41 117.7 294.23 118.04 294.23 118.49C294.23 119.31 294.96 119.73 296.53 119.73C297.46 119.73 298.19 119.66 298.92 119.52L298.88 120.31C298.18 120.43 297.4 120.49 296.54 120.49C294.59 120.49 293.49 119.91 293.47 118.62C293.47 118.05 293.64 117.63 293.87 117.19L294.65 117.36ZM307.52 112.07C307.5 112.24 307.48 112.44 307.47 112.74C307.45 113.14 307.45 114.48 307.45 115.32C307.45 116.64 307.6 118.39 307.6 119.06C307.6 119.76 307.14 120.47 305.84 120.47C304.4 120.47 303.61 119.96 303.61 118.99C303.61 118.08 304.48 117.47 305.92 117.47C308.03 117.47 309.68 118.61 310.45 119.24L309.99 119.95C309.09 119.12 307.61 118.12 305.83 118.12C304.87 118.12 304.36 118.49 304.36 118.95C304.36 119.42 304.75 119.76 305.74 119.76C306.32 119.76 306.81 119.59 306.81 118.89C306.81 118.12 306.71 116.2 306.71 115.32C306.71 114.42 306.71 113.37 306.71 112.67C306.71 112.5 306.7 112.2 306.67 112.07H307.52ZM303.7 113.15C304.34 113.27 305.59 113.37 306.25 113.37C307.52 113.37 308.86 113.28 310.16 113.07V113.8C309.03 113.93 307.6 114.06 306.26 114.06C305.57 114.06 304.34 113.97 303.71 113.89L303.7 113.15ZM303.65 115.28C304.36 115.39 305.5 115.46 306.16 115.46C307.61 115.46 308.94 115.36 310.24 115.17V115.92C308.88 116.09 307.66 116.16 306.16 116.16C305.47 116.16 304.37 116.11 303.66 116.03L303.65 115.28ZM318.27 112.08C318.25 112.2 318.22 112.59 318.22 112.71C318.19 113.36 318.21 115.29 318.22 116.09L317.46 115.7C317.46 115.26 317.45 113.27 317.42 112.72C317.4 112.45 317.37 112.17 317.35 112.08H318.27ZM312.95 113.48C314.31 113.46 316.81 113.37 318.35 113.37C319.57 113.37 320.81 113.37 321.28 113.38L321.27 114.12C320.71 114.09 319.81 114.07 318.34 114.07C316.62 114.07 314.48 114.14 312.97 114.25L312.95 113.48ZM318.2 116.38C318.2 117.72 317.58 118.39 316.67 118.39C315.83 118.39 315.02 117.8 315.02 116.71C315.02 115.72 315.84 114.98 316.79 114.98C317.95 114.98 318.54 115.84 318.54 116.99C318.54 118.35 317.88 119.85 315.56 120.54L314.89 119.89C316.71 119.46 317.77 118.57 317.77 116.92C317.77 116.02 317.33 115.64 316.79 115.64C316.26 115.64 315.77 116.05 315.77 116.7C315.77 117.33 316.24 117.69 316.79 117.69C317.41 117.69 317.81 117.17 317.65 116.1L318.2 116.38Z" fill="black"/>
<rect x="97" y="41" width="153" height="21" rx="5" stroke="#FF0000" stroke-width="2"/>
<line x1="89" y1="83" x2="41" y2="83" stroke="black" stroke-width="2"/>
<line x1="41" y1="112" x2="41" y2="82" stroke="black" stroke-width="2"/>
<rect x="90" y="66" width="160" height="95" rx="5" stroke="#FF0000" stroke-width="2"/>
<rect x="0.5" y="104.5" width="100" height="45" rx="4.5" fill="white" stroke="black" stroke-linejoin="round"/>
<path d="M9.44 119.69H18.59V120.51H9.44V119.69ZM20.96 116.28H27.51V124.65H26.72V117.04H21.73V124.69H20.96V116.28ZM21.47 119.75H27.05V120.49H21.47V119.75ZM21.46 123.29H27.07V124.04H21.46V123.29ZM35.03 117.18C34.9 118.22 34.7 119.39 34.39 120.46C33.78 122.51 32.98 123.57 32.06 123.57C31.16 123.57 30.27 122.55 30.27 120.89C30.27 118.72 32.2 116.83 34.65 116.83C36.99 116.83 38.48 118.48 38.48 120.51C38.48 122.6 37.1 124 34.72 124.31L34.26 123.57C34.58 123.54 34.88 123.5 35.12 123.45C36.4 123.16 37.66 122.2 37.66 120.47C37.66 118.87 36.55 117.55 34.63 117.55C32.43 117.55 31.06 119.36 31.06 120.83C31.06 122.09 31.63 122.65 32.08 122.65C32.55 122.65 33.09 121.97 33.6 120.28C33.89 119.33 34.1 118.2 34.2 117.16L35.03 117.18ZM46.39 115.98L46.78 115.54C47.28 115.7 47.9 115.98 48.22 116.23L47.81 116.73C47.51 116.47 46.9 116.16 46.39 115.98ZM41.22 116.62H49.01V117.24H41.22V116.62ZM41.93 117.92H45V118.45H41.93V117.92ZM42.09 119.13H42.72V120.95H42.09V119.13ZM47.4 117.72L48.1 117.89C47.54 119.55 46.53 120.9 45.31 121.77C45.2 121.63 44.92 121.38 44.77 121.25C45.98 120.47 46.92 119.22 47.4 117.72ZM45.04 115.6H45.76C45.87 118.68 47.23 121.18 48.25 121.17C48.5 121.17 48.6 120.81 48.65 119.9C48.8 120.04 49.05 120.17 49.24 120.24C49.12 121.51 48.85 121.86 48.21 121.86C46.63 121.86 45.2 118.96 45.04 115.6ZM42.09 119.13H44.84V121.23H42.09V120.69H44.2V119.66H42.09V119.13ZM42.59 122.15H43.33V123.7C43.33 123.95 43.43 124 43.96 124C44.21 124 45.46 124 45.79 124C46.23 124 46.3 123.88 46.34 122.95C46.5 123.07 46.81 123.17 47.02 123.22C46.92 124.4 46.7 124.68 45.85 124.68C45.62 124.68 44.13 124.68 43.91 124.68C42.85 124.68 42.59 124.48 42.59 123.71V122.15ZM43.37 121.82L43.85 121.4C44.48 121.69 45.22 122.17 45.57 122.56L45.06 123.04C44.72 122.65 43.99 122.14 43.37 121.82ZM46.82 122.45L47.43 122.11C48.15 122.67 48.9 123.5 49.21 124.12L48.54 124.49C48.26 123.88 47.54 123.03 46.82 122.45ZM41.32 122.21L41.98 122.44C41.73 123.25 41.32 124.09 40.61 124.6L39.99 124.18C40.66 123.72 41.1 122.96 41.32 122.21ZM40.87 116.62H41.57V118.13C41.57 119.29 41.39 120.93 40.47 122.06C40.37 121.92 40.07 121.67 39.92 121.59C40.76 120.55 40.87 119.14 40.87 118.12V116.62ZM54.07 121.33H58.05V121.91H54.07V121.33ZM53.14 116.39H59.08V116.96H53.14V116.39ZM53.38 117.6H58.83V118.15H53.38V117.6ZM52.83 118.85H59.37V119.42H52.83V118.85ZM54.07 122.67H58.08V123.23H54.07V122.67ZM53.56 120.01H58.05V120.59H54.26V124.79H53.56V120.01ZM57.87 120.01H58.59V123.96C58.59 124.34 58.51 124.54 58.23 124.65C57.95 124.76 57.5 124.77 56.79 124.76C56.76 124.58 56.66 124.3 56.57 124.11C57.07 124.13 57.55 124.13 57.69 124.12C57.83 124.12 57.87 124.08 57.87 123.95V120.01ZM55.7 115.6H56.44V119.03H55.7V115.6ZM51.31 115.6H52V124.79H51.31V115.6ZM50.52 117.53L51.08 117.61C51.05 118.39 50.88 119.55 50.65 120.3L50.07 120.11C50.3 119.42 50.46 118.32 50.52 117.53ZM52.09 117.27L52.59 117.07C52.81 117.53 53.05 118.12 53.14 118.49L52.62 118.74C52.52 118.36 52.29 117.74 52.09 117.27ZM65.63 117.18C65.5 118.22 65.3 119.39 64.99 120.46C64.38 122.51 63.58 123.57 62.66 123.57C61.76 123.57 60.87 122.55 60.87 120.89C60.87 118.72 62.8 116.83 65.25 116.83C67.59 116.83 69.08 118.48 69.08 120.51C69.08 122.6 67.7 124 65.32 124.31L64.86 123.57C65.18 123.54 65.48 123.5 65.72 123.45C67 123.16 68.26 122.2 68.26 120.47C68.26 118.87 67.15 117.55 65.23 117.55C63.03 117.55 61.66 119.36 61.66 120.83C61.66 122.09 62.23 122.65 62.68 122.65C63.15 122.65 63.69 121.97 64.2 120.28C64.49 119.33 64.7 118.2 64.8 117.16L65.63 117.18ZM76.63 116.69H77.34V122.2H76.63V116.69ZM78.67 115.78H79.41V123.77C79.41 124.28 79.29 124.5 78.97 124.63C78.66 124.75 78.09 124.78 77.31 124.78C77.28 124.56 77.17 124.21 77.06 123.98C77.67 124.01 78.26 124 78.46 124C78.62 123.99 78.67 123.94 78.67 123.77V115.78ZM71.71 123.67H75.07V124.27H71.71V123.67ZM70.75 120.53H75.92V121.13H70.75V120.53ZM71.3 118.07H75.45V118.64H71.3V118.07ZM71.35 119.29H75.33V119.84H71.35V119.29ZM72.99 115.63H73.72V116.87H72.99V115.63ZM73.01 117.42H73.71V120.86H73.01V117.42ZM71.35 121.68H75.46V124.67H74.75V122.27H72.04V124.78H71.35V121.68ZM70.75 116.53H76.03V118.11H75.33V117.13H71.42V118.11H70.75V116.53ZM82.88 118.87H87.93V119.54H82.88V118.87ZM82.7 123.73H88.06V124.4H82.7V123.73ZM82.36 120.8H88.48V124.81H87.72V121.48H83.09V124.81H82.36V120.8ZM85.37 116.37C84.55 117.59 82.91 119.01 81.2 119.94C81.1 119.77 80.9 119.5 80.73 119.34C82.49 118.45 84.16 116.92 84.95 115.63H85.71C86.79 117.12 88.54 118.51 90.14 119.22C89.95 119.4 89.77 119.66 89.64 119.88C88.07 119.06 86.31 117.65 85.37 116.37ZM13.6 130.1C13.51 130.49 13.4 131.04 13.14 131.71C12.89 132.32 12.52 132.99 12.12 133.51C12.51 133.28 13.08 133.14 13.52 133.14C14.29 133.14 14.89 133.6 14.89 134.41C14.89 134.93 14.91 136.08 14.92 136.7H14.15C14.19 136.17 14.2 135.14 14.19 134.62C14.18 134.04 13.78 133.77 13.26 133.77C12.62 133.77 11.99 134.09 11.53 134.5C11.24 134.78 10.96 135.14 10.63 135.55L9.94 135.04C11.38 133.66 12.05 132.5 12.39 131.65C12.61 131.1 12.75 130.5 12.78 130.03L13.6 130.1ZM10.17 131.18C10.71 131.25 11.4 131.28 11.86 131.28C13.21 131.28 14.94 131.2 16.35 130.95V131.69C14.95 131.9 13.09 131.99 11.82 131.99C11.39 131.99 10.73 131.97 10.17 131.93V131.18ZM17.81 133.59C17.56 133.67 17.2 133.81 16.93 133.91C16.22 134.19 15.27 134.57 14.3 135.07C13.31 135.59 12.61 136.13 12.61 136.82C12.61 137.6 13.38 137.72 14.41 137.72C15.19 137.72 16.27 137.63 17.15 137.47L17.12 138.28C16.36 138.37 15.25 138.45 14.38 138.45C12.96 138.45 11.81 138.14 11.81 136.93C11.81 135.71 13.05 134.96 14.24 134.35C15.19 133.86 16 133.55 16.66 133.24C16.96 133.1 17.21 132.99 17.49 132.85L17.81 133.59ZM22.41 133.6L22.99 133.39C23.25 133.68 23.51 134.1 23.59 134.39L22.98 134.62C22.9 134.34 22.67 133.9 22.41 133.6ZM25.24 133.35L25.89 133.57C25.66 133.95 25.42 134.34 25.22 134.6L24.69 134.4C24.87 134.11 25.12 133.65 25.24 133.35ZM22.69 134.93V135.98H25.6V134.93H22.69ZM22.05 134.39H26.26V136.52H22.05V134.39ZM24.43 136.28H25.08V137.68C25.08 137.87 25.11 137.9 25.29 137.9C25.38 137.9 25.8 137.9 25.92 137.9C26.09 137.9 26.13 137.81 26.15 137.08C26.28 137.18 26.54 137.27 26.72 137.32C26.65 138.24 26.48 138.46 26 138.46C25.88 138.46 25.33 138.46 25.2 138.46C24.58 138.46 24.43 138.28 24.43 137.68V136.28ZM23.04 136.31H23.67C23.54 137.46 23.11 138.15 21.77 138.55C21.71 138.39 21.54 138.14 21.4 138.02C22.57 137.73 22.93 137.21 23.04 136.31ZM20.47 131.39H23.28V131.91H20.47V131.39ZM25.08 131.39H27.91V131.91H25.08V131.39ZM27.62 130.03H28.36V137.85C28.36 138.29 28.27 138.52 27.99 138.65C27.72 138.78 27.28 138.79 26.62 138.79C26.59 138.59 26.49 138.23 26.38 138.03C26.85 138.05 27.3 138.05 27.44 138.04C27.57 138.04 27.62 137.99 27.62 137.85V130.03ZM20.53 130.03H23.74V133.31H20.53V132.74H23.03V130.6H20.53V130.03ZM27.98 130.03V130.6H25.34V132.76H27.98V133.32H24.62V130.03H27.98ZM20.08 130.03H20.82V138.81H20.08V130.03ZM32.04 135.15V135.65H36.72V135.15H32.04ZM32.04 136.09V136.6H36.72V136.09H32.04ZM32.04 134.23V134.71H36.72V134.23H32.04ZM31.33 133.76H37.46V137.06H31.33V133.76ZM35.01 136.8H35.75V137.83C35.75 138.05 35.83 138.08 36.28 138.08C36.49 138.08 37.55 138.08 37.84 138.08C38.2 138.08 38.27 137.97 38.31 137.15C38.45 137.26 38.75 137.36 38.95 137.4C38.87 138.45 38.65 138.7 37.91 138.7C37.7 138.7 36.41 138.7 36.21 138.7C35.26 138.7 35.01 138.52 35.01 137.84V136.8ZM32.86 136.82H33.6C33.31 138.01 32.48 138.55 30.18 138.82C30.13 138.65 29.96 138.38 29.84 138.24C31.92 138.05 32.6 137.68 32.86 136.82ZM35.32 132.46H38.64V133.06H35.32V132.46ZM35.43 130.62H38.91V131.22H35.43V130.62ZM35.59 129.6L36.27 129.75C35.96 130.75 35.45 131.75 34.89 132.39C34.77 132.28 34.48 132.08 34.31 131.99C34.86 131.4 35.32 130.5 35.59 129.6ZM32.03 130.21H32.65V131.14H32.03V130.21ZM32.03 132.09H32.65V133.05H32.03V132.09ZM30.68 130.93H34.13V132.38H30.68V131.91H33.46V131.39H30.68V130.93ZM34.35 129.97V130.44H30.99V132.93H34.48V133.41H30.3V129.97H34.35ZM40.38 131.42C40.76 131.41 41.08 131.39 41.28 131.37C41.92 131.3 43.81 131.12 45.65 130.96C46.75 130.87 47.68 130.81 48.35 130.79L48.36 131.59C47.78 131.58 46.91 131.6 46.4 131.74C44.97 132.2 44.1 133.73 44.1 134.91C44.1 136.86 45.93 137.49 47.55 137.55L47.26 138.37C45.41 138.3 43.31 137.32 43.31 135.08C43.31 133.53 44.26 132.25 45.17 131.71C44.1 131.82 41.55 132.07 40.47 132.3L40.38 131.42ZM46.91 132.81C47.14 133.14 47.52 133.76 47.74 134.21L47.22 134.44C46.99 133.96 46.71 133.45 46.41 133.03L46.91 132.81ZM48 132.39C48.25 132.72 48.64 133.33 48.87 133.77L48.36 134.02C48.12 133.54 47.82 133.04 47.51 132.62L48 132.39ZM51.59 131.15C52.98 131.32 54.29 131.34 55.31 131.24C56.13 131.17 56.95 131 57.67 130.76L57.78 131.49C57.13 131.68 56.28 131.85 55.48 131.92C54.47 132.02 53.07 132.02 51.64 131.88L51.59 131.15ZM51.39 133.2C53.1 133.38 54.8 133.35 55.97 133.21C56.92 133.11 57.73 132.91 58.26 132.75L58.39 133.49C57.84 133.64 57.08 133.79 56.24 133.89C55.01 134.05 53.16 134.08 51.44 133.95L51.39 133.2ZM54.81 131.02C54.73 130.73 54.64 130.42 54.53 130.13L55.38 130.02C55.48 130.86 55.79 131.87 56.04 132.58C56.31 133.36 56.75 134.32 57.27 135.09C57.38 135.25 57.5 135.39 57.65 135.52L57.23 136.13C56.67 135.99 55.74 135.89 55.05 135.82L55.11 135.21C55.65 135.26 56.3 135.33 56.61 135.37C56.06 134.51 55.64 133.55 55.35 132.74C55.1 132.05 54.95 131.52 54.81 131.02ZM52.85 135.36C52.61 135.7 52.43 136.04 52.43 136.49C52.43 137.31 53.16 137.73 54.73 137.73C55.66 137.73 56.39 137.66 57.12 137.52L57.08 138.31C56.38 138.43 55.6 138.49 54.74 138.49C52.79 138.49 51.69 137.91 51.67 136.62C51.67 136.05 51.84 135.63 52.07 135.19L52.85 135.36ZM65.72 130.07C65.7 130.24 65.68 130.44 65.67 130.74C65.65 131.14 65.65 132.48 65.65 133.32C65.65 134.64 65.8 136.39 65.8 137.06C65.8 137.76 65.34 138.47 64.04 138.47C62.6 138.47 61.81 137.96 61.81 136.99C61.81 136.08 62.68 135.47 64.12 135.47C66.23 135.47 67.88 136.61 68.65 137.24L68.19 137.95C67.29 137.12 65.81 136.12 64.03 136.12C63.07 136.12 62.56 136.49 62.56 136.95C62.56 137.42 62.95 137.76 63.94 137.76C64.52 137.76 65.01 137.59 65.01 136.89C65.01 136.12 64.91 134.2 64.91 133.32C64.91 132.42 64.91 131.37 64.91 130.67C64.91 130.5 64.9 130.2 64.87 130.07H65.72ZM61.9 131.15C62.54 131.27 63.79 131.37 64.45 131.37C65.72 131.37 67.06 131.28 68.36 131.07V131.8C67.23 131.93 65.8 132.06 64.46 132.06C63.77 132.06 62.54 131.97 61.91 131.89L61.9 131.15ZM61.85 133.28C62.56 133.39 63.7 133.46 64.36 133.46C65.81 133.46 67.14 133.36 68.44 133.17V133.92C67.08 134.09 65.86 134.16 64.36 134.16C63.67 134.16 62.57 134.11 61.86 134.03L61.85 133.28ZM76.47 130.08C76.45 130.2 76.42 130.59 76.42 130.71C76.39 131.36 76.41 133.29 76.42 134.09L75.66 133.7C75.66 133.26 75.65 131.27 75.62 130.72C75.6 130.45 75.57 130.17 75.55 130.08H76.47ZM71.15 131.48C72.51 131.46 75.01 131.37 76.55 131.37C77.77 131.37 79.01 131.37 79.48 131.38L79.47 132.12C78.91 132.09 78.01 132.07 76.54 132.07C74.82 132.07 72.68 132.14 71.17 132.25L71.15 131.48ZM76.4 134.38C76.4 135.72 75.78 136.39 74.87 136.39C74.03 136.39 73.22 135.8 73.22 134.71C73.22 133.72 74.04 132.98 74.99 132.98C76.15 132.98 76.74 133.84 76.74 134.99C76.74 136.35 76.08 137.85 73.76 138.54L73.09 137.89C74.91 137.46 75.97 136.57 75.97 134.92C75.97 134.02 75.53 133.64 74.99 133.64C74.46 133.64 73.97 134.05 73.97 134.7C73.97 135.33 74.44 135.69 74.99 135.69C75.61 135.69 76.01 135.17 75.85 134.1L76.4 134.38Z" fill="black"/>
<defs>
<filter id="filter0_d_1649_11930" x="168.157" y="45.9004" width="79.1691" height="16.6213" filterUnits="userSpaceOnUse" color-interpolation-filters="sRGB">
<feFlood flood-opacity="0" result="BackgroundImageFix"/>
<feColorMatrix in="SourceAlpha" type="matrix" values="0 0 0 0 0 0 0 0 0 0 0 0 0 0 0 0 0 0 127 0" result="hardAlpha"/>
<feOffset dy="1.74959"/>
<feGaussianBlur stdDeviation="0.874797"/>
<feComposite in2="hardAlpha" operator="out"/>
<feColorMatrix type="matrix" values="0 0 0 0 0 0 0 0 0 0 0 0 0 0 0 0 0 0 0.25 0"/>
<feBlend mode="normal" in2="BackgroundImageFix" result="effect1_dropShadow_1649_11930"/>
<feBlend mode="normal" in="SourceGraphic" in2="effect1_dropShadow_1649_11930" result="shape"/>
</filter>
<filter id="filter1_d_1649_11930" x="93.0915" y="68.3828" width="158.599" height="94.2028" filterUnits="userSpaceOnUse" color-interpolation-filters="sRGB">
<feFlood flood-opacity="0" result="BackgroundImageFix"/>
<feColorMatrix in="SourceAlpha" type="matrix" values="0 0 0 0 0 0 0 0 0 0 0 0 0 0 0 0 0 0 127 0" result="hardAlpha"/>
<feOffset dy="0.348963"/>
<feGaussianBlur stdDeviation="0.174481"/>
<feComposite in2="hardAlpha" operator="out"/>
<feColorMatrix type="matrix" values="0 0 0 0 0 0 0 0 0 0 0 0 0 0 0 0 0 0 0.25 0"/>
<feBlend mode="normal" in2="BackgroundImageFix" result="effect1_dropShadow_1649_11930"/>
<feBlend mode="normal" in="SourceGraphic" in2="effect1_dropShadow_1649_11930" result="shape"/>
</filter>
</defs>
</svg>
