<svg width="34" height="32" viewBox="0 0 34 32" fill="none" xmlns="http://www.w3.org/2000/svg">
<path d="M8.84728 14.1895H11.0213C11.6192 14.1895 12.1084 13.5955 12.1084 12.8695V10.2296C12.1084 9.5036 11.6192 8.90962 11.0213 8.90962H8.84728C8.24942 8.90962 7.76025 9.5036 7.76025 10.2296V12.8695C7.76025 13.5955 8.24942 14.1895 8.84728 14.1895ZM8.84728 20.7893H11.0213C11.6192 20.7893 12.1084 20.1953 12.1084 19.4693V16.8294C12.1084 16.1034 11.6192 15.5094 11.0213 15.5094H8.84728C8.24942 15.5094 7.76025 16.1034 7.76025 16.8294V19.4693C7.76025 20.1953 8.24942 20.7893 8.84728 20.7893ZM8.84728 7.58966H11.0213C11.6192 7.58966 12.1084 6.99568 12.1084 6.2697V3.62978C12.1084 2.9038 11.6192 2.30981 11.0213 2.30981H8.84728C8.24942 2.30981 7.76025 2.9038 7.76025 3.62978V6.2697C7.76025 6.99568 8.24942 7.58966 8.84728 7.58966ZM14.2824 14.1895H25.1527C25.7506 14.1895 26.2397 13.5955 26.2397 12.8695V10.2296C26.2397 9.5036 25.7506 8.90962 25.1527 8.90962H14.2824C13.6846 8.90962 13.1954 9.5036 13.1954 10.2296V12.8695C13.1954 13.5955 13.6846 14.1895 14.2824 14.1895ZM14.2824 20.7893H25.1527C25.7506 20.7893 26.2397 20.1953 26.2397 19.4693V16.8294C26.2397 16.1034 25.7506 15.5094 25.1527 15.5094H14.2824C13.6846 15.5094 13.1954 16.1034 13.1954 16.8294V19.4693C13.1954 20.1953 13.6846 20.7893 14.2824 20.7893ZM13.1954 3.62978V6.2697C13.1954 6.99568 13.6846 7.58966 14.2824 7.58966H25.1527C25.7506 7.58966 26.2397 6.99568 26.2397 6.2697V3.62978C26.2397 2.9038 25.7506 2.30981 25.1527 2.30981H14.2824C13.6846 2.30981 13.1954 2.9038 13.1954 3.62978Z" fill="#ADADAD"/>
<path d="M14.6054 27.1329V29.8586H14.0587V27.6719H13.1116V27.1329H14.6054ZM14.6054 29.6277C14.9673 30.2051 15.6526 30.4669 16.5688 30.5054C17.4389 30.5439 19.2483 30.5208 20.1954 30.4592C20.1261 30.5824 20.0337 30.8442 20.0106 31.0059C19.1328 31.0444 17.4543 31.0598 16.5765 31.029C15.5525 30.9905 14.8518 30.7133 14.3667 30.105C14.0356 30.4361 13.6891 30.7672 13.3195 31.1137L13.0192 30.567C13.3503 30.3129 13.7584 29.9664 14.1126 29.6277H14.6054ZM13.1501 24.5612L13.5967 24.2763C14.051 24.6382 14.5669 25.1695 14.7825 25.5622L14.2974 25.8856C14.0972 25.5006 13.5967 24.9462 13.1501 24.5612ZM15.7834 24.3918H19.3946V24.8769H15.7834V24.3918ZM16.3609 25.5776H18.771V26.0011H16.3609V25.5776ZM16.2916 26.6247H18.8403V27.0482H16.2916V26.6247ZM17.2772 25.0309H17.77V26.8634H17.2772V25.0309ZM15.4755 24.3918H16.0067V26.3937C16.0067 27.464 15.9066 28.9732 15.2676 30.0049C15.1675 29.9048 14.9365 29.7585 14.8133 29.7047C15.4139 28.7345 15.4755 27.3793 15.4755 26.3937V24.3918ZM19.1405 24.3918H19.6718V29.4583C19.6718 29.7585 19.6025 29.9048 19.4023 29.9972C19.2021 30.0819 18.8711 30.0896 18.3167 30.0896C18.3013 29.9433 18.2243 29.7278 18.155 29.5892C18.54 29.5969 18.8942 29.5969 18.9943 29.5969C19.1021 29.5892 19.1405 29.5584 19.1405 29.4506V24.3918ZM16.7228 27.4794H18.5708V29.1734H16.7228V28.7576H18.1088V27.8952H16.7228V27.4794ZM16.4995 27.4794H16.9615V29.5661H16.4995V27.4794Z" fill="#ADADAD"/>
</svg>
