<svg width="253" height="236" viewBox="0 0 253 236" fill="none" xmlns="http://www.w3.org/2000/svg">
<path d="M71.3663 71.0085C79.3928 47.2539 81.8168 32.5238 89.5336 27.1881C97.2503 21.8524 110.034 54.14 110.034 54.14L128.627 50.2466C128.627 50.2466 149.843 9.61988 156.691 10.864C163.539 12.1082 168.06 49.4426 168.06 49.4426C186.486 65.9889 193.083 76.2349 197.664 96.4887C197.664 96.4887 202.481 73.6255 209.698 86.7263C218.048 101.884 205.77 118.897 204.537 123.684C203.99 125.807 204.652 129.137 204.788 133.286C204.814 134.101 205.511 135.637 214.091 129.585C222.67 123.533 224.906 121.815 228.353 121.207C231.8 120.6 242.949 126.244 222.055 137.32C201.161 148.395 203.88 142.523 203.503 143.734C204.355 148.564 193.956 165.121 190.683 166.714C190.683 166.714 189.375 193.853 179.035 195.677C168.694 197.5 159.979 179.744 159.979 179.744C150.217 181.972 139.819 186.345 126.988 185.561C126.988 185.561 87.8324 210.473 82.1633 192.449C77.1704 176.575 96.5478 174.174 96.5478 174.174C89.5642 172.834 77.555 155.721 74.3884 148.355C74.3884 148.355 49.5362 144.59 48.5313 129.33C47.5806 114.893 70.8813 128.466 69.2317 119.11C67.582 109.754 63.3399 94.7632 71.3663 71.0085Z" fill="#FFE925"/>
<path d="M125.695 88.3079C127.775 87.9411 128.952 87.1523 129.679 86.0972C130.44 84.9939 130.809 83.4609 130.969 81.4085C131.012 80.8551 130.499 80.3529 129.854 80.4667L117.86 82.5816C117.211 82.696 116.929 83.3281 117.15 83.7968C118.209 86.0458 119.311 87.2971 120.573 87.9395C121.836 88.5827 123.436 88.7062 125.695 88.3079Z" fill="white" stroke="black" stroke-width="2"/>
<mask id="path-3-inside-1_179_3239" fill="white">
<path d="M53.9644 217.73L224.789 187.609L227.22 201.396L56.3954 231.517L53.9644 217.73Z"/>
</mask>
<path d="M53.9644 217.73L224.789 187.609L227.22 201.396L56.3954 231.517L53.9644 217.73Z" fill="#D9D9D9"/>
<path d="M223.804 187.783L226.235 201.57L228.205 201.223L225.774 187.435L223.804 187.783Z" fill="white" mask="url(#path-3-inside-1_179_3239)"/>
<path d="M227.22 201.396L224.789 187.609L243.911 188.807L244.866 194.223L227.22 201.396Z" fill="#D9D9D9"/>
<path d="M251.157 190.068L245.39 194.131L244.452 188.813L251.157 190.068Z" fill="#D9D9D9"/>
<path d="M114.293 75.0764C114.97 76.9368 113.786 77.3679 109.526 78.9181C105.267 80.4683 104.627 80.68 103.949 78.8196C103.272 76.9592 103.913 76.7475 108.172 75.1973C112.431 73.6471 113.447 72.7509 114.293 75.0764Z" fill="black"/>
<path d="M132.177 71.9229C132.177 73.9026 133.438 73.9026 137.97 73.9026C142.503 73.9026 143.177 73.8824 143.177 71.9026C143.177 69.9228 142.503 69.943 137.97 69.943C133.438 69.943 132.177 69.4481 132.177 71.9229Z" fill="black"/>
</svg>
