<svg width="277" height="464" viewBox="0 0 277 464" fill="none" xmlns="http://www.w3.org/2000/svg">
<mask id="mask0_258_7915" style="mask-type:alpha" maskUnits="userSpaceOnUse" x="0" y="0" width="277" height="464">
<rect width="277" height="464" fill="#D9D9D9"/>
</mask>
<g mask="url(#mask0_258_7915)">
<g clip-path="url(#clip0_258_7915)">
<path d="M58.3518 224.496C57.0263 167.422 50.742 134.019 63.0971 116.594C75.4523 99.1685 127.946 158.294 127.946 158.294L164.695 135.485C164.695 135.485 178.451 32.0412 194.07 29.3706C209.69 26.7 248.436 103.057 248.436 103.057C300.744 124.11 322.838 140.894 348.412 180.66C348.412 180.66 340.913 127.993 366.556 150.402C396.224 176.33 383.205 222.291 384.294 233.493C384.777 238.462 388.787 245.07 392.308 253.843C392.999 255.565 395.687 258.309 409.33 238.679C422.973 219.049 426.419 213.633 433.32 209.649C440.221 205.664 468.472 209.059 432.392 249.025C396.313 288.992 397.56 274.311 397.695 277.195C403.279 286.867 393.923 330.39 388.161 336.346C388.161 336.346 406.498 395.429 385.794 407.382C365.09 419.336 332.615 388.133 332.615 388.133C313.466 400.503 322.075 399.476 294.013 407.791C294.013 407.791 323.522 443.335 304.192 454.495C283.259 466.581 207.3 427.704 207.3 427.704C191.315 430.276 137.56 400.921 125.05 387.629C125.05 387.629 114.317 445.107 100.284 413.241C87.007 383.092 102.057 347.805 91.2424 329.073C80.4274 310.341 59.6773 281.57 58.3518 224.496Z" fill="#FFFAC9"/>
<circle cx="159.203" cy="226.661" r="7.96894" transform="rotate(-30 159.203 226.661)" fill="#EEEEEE"/>
<circle cx="214.413" cy="194.785" r="7.96894" transform="rotate(-30 214.413 194.785)" fill="#EEEEEE"/>
<path d="M209.914 243.391C214.08 240.986 215.982 238.382 216.717 235.558C217.485 232.605 217.082 229.038 215.825 224.522C215.487 223.304 213.998 222.629 212.706 223.375L188.692 237.24C187.393 237.99 187.281 239.562 188.118 240.393C192.137 244.38 195.469 246.199 198.668 246.591C201.871 246.984 205.391 246.002 209.914 243.391Z" fill="white" stroke="#EEEEEE" stroke-width="4.55368"/>
</g>
</g>
<defs>
<clipPath id="clip0_258_7915">
<rect width="402.439" height="414.589" fill="white" transform="translate(-42.8501 165.854) rotate(-30)"/>
</clipPath>
</defs>
</svg>
