<svg width="57" height="55" viewBox="0 0 57 55" fill="none" xmlns="http://www.w3.org/2000/svg">
<path d="M14.0953 1.87498C1.23371 16.4767 0.00189682 38.2471 0 50.371C-0.000750831 55.1701 43.3402 56.4329 43.3402 48.8554V44.0562C43.3402 44.0562 52.1477 40.7729 53.2047 39.0048C53.8378 37.9459 49.9859 39.2838 51.443 37.7419C51.443 37.7419 55.495 34.7109 56.0235 33.7006C56.552 32.6902 51.7953 34.9635 51.7953 34.9635C51.7953 34.9635 51.8518 28.5411 50.7383 30.6696C48.6242 34.7109 43.3402 40.7726 43.3402 40.7726C43.3402 40.7726 43.3402 11.4733 34.8839 1.87498C32.8569 -0.425688 30.6543 9.36578 30.6543 9.36578H16.9127C16.9127 9.36578 18.3223 -2.92386 14.0953 1.87498Z" fill="#FFD15A"/>
<circle cx="18.1458" cy="15.8841" r="1.23322" fill="#2F2E2E"/>
<circle cx="25.8975" cy="15.8841" r="1.23322" fill="#2F2E2E"/>
<path d="M20.3345 23.5407C21.0947 22.8248 20.9237 23.1429 21.1267 22.8355C21.3297 22.528 21.4554 22.1672 21.4909 21.7894L20.9251 21.7251C20.8998 21.9936 20.8105 22.2501 20.6662 22.4687C20.5219 22.6873 20.632 22.5652 20.1031 22.97C19.5742 23.3748 19.5742 24.2566 20.3345 23.5407Z" fill="#2F2E2E"/>
<path d="M21.935 22.986C21.1748 22.2701 21.3459 22.5883 21.1428 22.2808C20.9398 21.9733 20.8142 21.6125 20.7786 21.2347L21.3444 21.1704C21.3697 21.439 21.459 21.6954 21.6033 21.914C21.7476 22.1326 21.6375 22.0105 22.1664 22.4153C22.6953 22.8201 22.6953 23.7019 21.935 22.986Z" fill="#2F2E2E"/>
<path d="M22.5504 20.8692C22.0775 21.7636 22.0003 22.0522 21.2894 22.0522C20.5784 22.0522 20.5012 21.7637 19.9758 20.8692C19.9758 20.0884 20.5522 20.321 21.2631 20.321C21.974 20.321 22.5504 20.0884 22.5504 20.8692Z" fill="#2F2E2E"/>
</svg>
