<svg width="9" height="12" viewBox="0 0 9 12" fill="none" xmlns="http://www.w3.org/2000/svg">
<path d="M2.12409 6.00367L7.75716 1.35873C7.94876 1.20073 8.04149 1.01367 8.03536 0.797541C8.02923 0.581409 7.93011 0.394557 7.73799 0.236987C7.54639 0.0789957 7.31954 0 7.05743 0C6.79532 0 6.56872 0.0789957 6.37763 0.236987L0.495486 5.10312C0.342206 5.22952 0.227246 5.37171 0.150606 5.5297C0.0739655 5.68769 0.0356445 5.84568 0.0356445 6.00367C0.0356445 6.16167 0.0739655 6.31966 0.150606 6.47765C0.227246 6.63564 0.342206 6.77783 0.495486 6.90423L6.39679 11.7704C6.58839 11.9284 6.81193 12.0048 7.06739 11.9998C7.32286 11.9947 7.54639 11.913 7.73799 11.7546C7.9296 11.5966 8.0254 11.4095 8.0254 11.1934C8.0254 10.9772 7.9296 10.7904 7.73799 10.6328L2.12409 6.00367Z" fill="#00ABB6"/>
</svg>
