<svg width="22" height="22" viewBox="0 0 22 22" fill="none" xmlns="http://www.w3.org/2000/svg">
<path d="M11 22C17.0751 22 22 17.0751 22 11C22 4.92487 17.0751 0 11 0C4.92487 0 0 4.92487 0 11C0 17.0751 4.92487 22 11 22Z" fill="#D3CAB3"/>
<path d="M8.14449 16.0785C8.05066 15.9985 7.97755 15.8896 7.94261 15.7587C7.8559 15.4416 8.02672 15.126 8.32437 15.055C11.2543 14.3513 13.2271 15.9944 13.3106 16.0647C13.5591 16.2756 13.6076 16.6471 13.4226 16.8952C13.2375 17.142 12.8868 17.1716 12.639 16.9621C12.5678 16.9042 11.0064 15.6367 8.63884 16.2053C8.46155 16.2474 8.28037 16.1943 8.14449 16.0785Z" fill="#65471B"/>
<path d="M7.84168 9.52038C8.60108 9.52038 9.21669 8.70078 9.21669 7.68975C9.21669 6.67873 8.60108 5.85913 7.84168 5.85913C7.08229 5.85913 6.46667 6.67873 6.46667 7.68975C6.46667 8.70078 7.08229 9.52038 7.84168 9.52038Z" fill="#65471B"/>
<path d="M15.125 10.2513C15.8844 10.2513 16.5 9.43173 16.5 8.42071C16.5 7.40969 15.8844 6.59009 15.125 6.59009C14.3656 6.59009 13.75 7.40969 13.75 8.42071C13.75 9.43173 14.3656 10.2513 15.125 10.2513Z" fill="#65471B"/>
<path d="M5.36815 4.36443C5.26203 4.30377 5.17209 4.21004 5.11515 4.08942C4.97539 3.79443 5.08927 3.4505 5.36945 3.32299C8.1298 2.06099 10.3512 3.29335 10.4443 3.34642C10.7245 3.50563 10.8377 3.86128 10.6973 4.1418C10.5576 4.42095 10.2185 4.51813 9.93833 4.36098C9.85874 4.31756 8.10586 3.37399 5.87609 4.39338C5.7098 4.4685 5.52215 4.45196 5.36815 4.36443ZM13.2202 6.94908C13.1193 6.88153 13.0352 6.78159 12.986 6.65684C12.865 6.3522 13.0009 6.01792 13.2888 5.90971C16.1236 4.85103 18.2615 6.24054 18.3508 6.3005C18.6193 6.47971 18.7099 6.84294 18.5526 7.11243C18.3961 7.38123 18.0505 7.4536 17.782 7.27647C17.7043 7.22684 16.0175 6.15921 13.7269 7.01525C13.5547 7.07797 13.369 7.04695 13.2202 6.94908Z" fill="#65471B"/>
</svg>
