<svg width="21" height="16" viewBox="0 0 22 20" xmlns="http://www.w3.org/2000/svg">
<path d="M0 1.10333C0.00201305 0.811531 0.11759 0.532242 0.321764 0.325797C0.525938 0.119353 0.802318 0.00232739 1.0912 0H20.9088C21.5116 0 22 0.494445 22 1.10333V18.8967C21.998 19.1885 21.8824 19.4678 21.6782 19.6742C21.4741 19.8806 21.1977 19.9977 20.9088 20H1.0912C0.801695 19.9997 0.524147 19.8833 0.319538 19.6764C0.11493 19.4696 -1.46801e-07 19.1891 0 18.8967V1.10333ZM9.4842 6.01667C9.418 5.97205 9.34106 5.94641 9.26157 5.94247C9.18208 5.93853 9.10302 5.95644 9.03281 5.99429C8.9626 6.03214 8.90387 6.08852 8.86287 6.15742C8.82188 6.22632 8.80015 6.30517 8.8 6.38556V13.6144C8.80015 13.6948 8.82188 13.7737 8.86287 13.8426C8.90387 13.9115 8.9626 13.9679 9.03281 14.0057C9.10302 14.0436 9.18208 14.0615 9.26157 14.0575C9.34106 14.0536 9.418 14.0279 9.4842 13.9833L14.8511 10.37C14.9112 10.3293 14.9605 10.2742 14.9946 10.2097C15.0286 10.1451 15.0464 10.0731 15.0464 10C15.0464 9.92687 15.0286 9.85486 14.9946 9.79034C14.9605 9.72581 14.9112 9.67074 14.8511 9.63L9.4842 6.01667Z"/>
</svg>
