<svg width="22" height="22" viewBox="0 0 22 22" fill="none" xmlns="http://www.w3.org/2000/svg">
<path d="M22 11C22 17.0751 17.0751 22 11 22C4.92556 22 0 17.0751 0 11C0 4.92556 4.92556 0 11 0C17.0751 0 22 4.92556 22 11Z" fill="#6BD2FE"/>
<path d="M10.1835 6.4424C10.057 6.3874 9.90789 6.42407 9.82172 6.53285C9.81622 6.54018 9.22344 7.2674 7.78366 7.65974C7.31005 7.78929 6.84805 7.85468 6.41171 7.85468C5.80549 7.85468 5.45899 7.72512 5.45716 7.72451C5.32882 7.67257 5.18032 7.71596 5.09843 7.82779C5.01593 7.94024 5.02021 8.09362 5.10821 8.20179C5.1516 8.25496 6.19599 9.51385 7.62905 9.51385C7.84355 9.51385 8.05805 9.48513 8.26644 9.42829C10.0106 8.95285 10.3503 6.85674 10.3638 6.76751C10.3846 6.63124 10.3106 6.49801 10.1835 6.4424ZM16.8905 7.75935C16.8061 7.64874 16.6582 7.60962 16.5299 7.66218C16.5262 7.66401 16.1431 7.81862 15.4684 7.81862C15.0644 7.81862 14.6385 7.76424 14.2016 7.65668C12.7538 7.3004 12.1427 6.58785 12.1378 6.58235C12.0486 6.47479 11.9007 6.43996 11.7736 6.49862C11.6471 6.55668 11.5762 6.69296 11.6007 6.82985C11.6166 6.91846 12.0089 9.0054 13.7634 9.43746C13.9534 9.48451 14.1478 9.50835 14.3415 9.50835C15.8057 9.50835 16.8465 8.18835 16.8898 8.13212C16.9742 8.02151 16.9736 7.86935 16.8905 7.75935ZM6.10982 6.11057C5.83605 6.11057 5.58732 5.9254 5.51766 5.64796C5.43638 5.32101 5.63438 4.98979 5.9601 4.90729C5.9821 4.90179 8.15583 4.32001 9.23077 2.17074C9.38172 1.86885 9.74777 1.74601 10.0509 1.89757C10.3528 2.04851 10.475 2.41579 10.3241 2.71768C8.99122 5.38274 6.36955 6.06474 6.25893 6.09285C6.20943 6.10507 6.15932 6.11057 6.10982 6.11057ZM15.8888 6.11057C15.8399 6.11057 15.7904 6.10446 15.7409 6.09224C15.6297 6.06474 13.0081 5.38212 11.6758 2.71707C11.5249 2.41518 11.6471 2.0479 11.949 1.89696C12.2503 1.74601 12.6176 1.86824 12.7691 2.17012C13.8434 4.3194 16.0172 4.90118 16.0398 4.90668C16.3655 4.9904 16.5635 5.32285 16.481 5.64918C16.4101 5.92601 16.162 6.11057 15.8888 6.11057ZM10.9999 17.7003C8.78588 17.7003 7.31677 17.9582 5.49993 18.3114C5.08499 18.3915 4.27771 18.3114 4.27771 17.0892C4.27771 14.6447 7.08577 11.5892 10.9999 11.5892C14.9135 11.5892 17.7222 14.6447 17.7222 17.0892C17.7222 18.3114 16.9149 18.3921 16.4999 18.3114C14.6831 17.9582 13.214 17.7003 10.9999 17.7003Z" fill="#664500"/>
<path d="M6.11096 15.2779C6.11096 15.2779 7.9443 14.6668 10.9999 14.6668C14.0554 14.6668 15.8888 15.2779 15.8888 15.2779C15.8888 15.2779 14.6665 12.8335 10.9999 12.8335C7.33319 12.8335 6.11096 15.2779 6.11096 15.2779Z" fill="white"/>
</svg>
