<svg width="342" height="51" viewBox="0 0 342 51" fill="none" xmlns="http://www.w3.org/2000/svg">
<path d="M48.8571 31.3036C48.8571 41.9713 37.9201 50.6192 24.4286 50.6192C10.937 50.6192 0 41.9713 0 31.3036C0 25.9532 2.65116 18.8052 5.30233 15.2072C6.43854 13.1242 7.00664 1.00458 11.3621 1.00458C15.7176 0.625811 20.2625 11.2305 20.6412 11.988C22.1138 11.7689 22.6861 11.6092 24.2392 11.6092C25.2 11.6092 26.5266 11.7133 27.4585 11.7986C28.4053 10.0942 31.814 -0.889098 37.1163 0.0577445C40.5249 1.0046 41.0745 14.6089 42.7973 15.9647C47.2422 19.4627 48.8571 25.9532 48.8571 31.3036Z" fill="#FFE925" fill-opacity="0.77"/>
<circle cx="19.1264" cy="25.1859" r="1.32558" fill="#2F2E2E" fill-opacity="0.55"/>
<circle cx="29.7309" cy="25.1859" r="1.32558" fill="#2F2E2E" fill-opacity="0.55"/>
<path d="M24.9075 33.0505C25.4251 33.0505 26.7826 32.6358 27.3245 31.0026C27.4249 30.7 27.2763 30.3792 27.0028 30.2151L26.5794 29.9612C26.5343 29.9342 26.4865 29.9119 26.4368 29.8947L25.8655 29.6977L24.7137 29.3137C24.5305 29.2527 24.331 29.2639 24.1558 29.345L22.9666 29.8959C22.9313 29.9123 22.8973 29.9314 22.8649 29.9529L22.1909 30.4021C21.9398 30.5695 21.8053 30.873 21.8923 31.1619C22.5188 33.2411 24.3775 33.0505 24.9075 33.0505Z" fill="white" fill-opacity="0.6"/>
<path d="M26.3846 30.286L26.5794 29.9612L26.3846 30.286C26.362 30.2725 26.3381 30.2613 26.3133 30.2528L25.7439 30.0564L24.5939 29.673C24.5023 29.6425 24.4026 29.6481 24.315 29.6887L23.1258 30.2396L22.9666 29.8959L23.1258 30.2396C23.1081 30.2478 23.0912 30.2573 23.075 30.2681L22.8649 29.9529L23.075 30.2681L22.401 30.7173C22.2662 30.8072 22.2234 30.9477 22.255 31.0526C22.5309 31.9685 23.0583 32.3532 23.5607 32.5282C24.0174 32.6873 24.4612 32.6792 24.7664 32.6736C24.8175 32.6726 24.8648 32.6718 24.9075 32.6718C25.2922 32.6718 26.4835 32.3347 26.965 30.8834C27.0005 30.7766 26.9558 30.6286 26.808 30.5399L26.3846 30.286Z" stroke="#2F2E2E" stroke-opacity="0.55" stroke-width="0.757475"/>
<path d="M97.7141 31.3036C97.7141 41.9713 86.777 50.6192 73.2855 50.6192C59.794 50.6192 48.8569 41.9713 48.8569 31.3036C48.8569 25.9532 51.5081 18.8052 54.1593 15.2072C55.2955 13.1242 55.8636 1.00458 60.2191 1.00458C64.5745 0.625811 69.1194 11.2305 69.4981 11.988C70.9707 11.7689 71.5431 11.6092 73.0961 11.6092C74.0569 11.6092 75.3835 11.7133 76.3154 11.7986C77.2622 10.0942 80.6709 -0.889098 85.9732 0.0577445C89.3819 1.0046 89.9314 14.6089 91.6543 15.9647C96.0991 19.4627 97.7141 25.9532 97.7141 31.3036Z" fill="#FFBBDC" fill-opacity="0.6"/>
<circle cx="67.9833" cy="25.1859" r="1.32558" fill="#2F2E2E" fill-opacity="0.55"/>
<circle cx="78.5878" cy="25.1859" r="1.32558" fill="#2F2E2E" fill-opacity="0.55"/>
<path d="M73.7644 33.0505C74.282 33.0505 75.6396 32.6358 76.1814 31.0026C76.2819 30.7 76.1332 30.3792 75.8597 30.2151L75.4363 29.9612C75.3912 29.9342 75.3434 29.9119 75.2937 29.8947L74.7224 29.6977L73.5706 29.3137C73.3875 29.2527 73.1879 29.2639 73.0127 29.345L71.8235 29.8959C71.7882 29.9123 71.7542 29.9314 71.7218 29.9529L71.0479 30.4021C70.7968 30.5695 70.6622 30.873 70.7493 31.1619C71.3757 33.2411 73.2344 33.0505 73.7644 33.0505Z" fill="white" fill-opacity="0.6"/>
<path d="M75.2415 30.286L75.4363 29.9612L75.2415 30.286C75.219 30.2725 75.1951 30.2613 75.1702 30.2528L74.6008 30.0564L73.4509 29.673C73.3593 29.6425 73.2595 29.6481 73.1719 29.6887L71.9827 30.2396L71.8235 29.8959L71.9827 30.2396C71.9651 30.2478 71.9481 30.2573 71.9319 30.2681L71.7218 29.9529L71.9319 30.2681L71.2579 30.7173C71.1231 30.8072 71.0803 30.9477 71.1119 31.0526C71.3878 31.9685 71.9152 32.3532 72.4176 32.5282C72.8743 32.6873 73.3181 32.6792 73.6233 32.6736C73.6745 32.6726 73.7217 32.6718 73.7644 32.6718C74.1491 32.6718 75.3404 32.3347 75.822 30.8834C75.8574 30.7766 75.8127 30.6286 75.6649 30.5399L75.2415 30.286Z" stroke="#2F2E2E" stroke-opacity="0.55" stroke-width="0.757475"/>
<path d="M146.571 31.3036C146.571 41.9713 135.634 50.6192 122.143 50.6192C108.651 50.6192 97.7144 41.9713 97.7144 31.3036C97.7144 25.9532 100.366 18.8052 103.017 15.2072C104.153 13.1242 104.721 1.00458 109.076 1.00458C113.432 0.625811 117.977 11.2305 118.356 11.988C119.828 11.7689 120.4 11.6092 121.954 11.6092C122.914 11.6092 124.241 11.7133 125.173 11.7986C126.12 10.0942 129.528 -0.889098 134.831 0.0577445C138.239 1.0046 138.789 14.6089 140.512 15.9647C144.957 19.4627 146.571 25.9532 146.571 31.3036Z" fill="#FFE925" fill-opacity="0.77"/>
<circle cx="116.841" cy="25.1859" r="1.32558" fill="#2F2E2E" fill-opacity="0.55"/>
<circle cx="127.445" cy="25.1859" r="1.32558" fill="#2F2E2E" fill-opacity="0.55"/>
<path d="M122.622 33.0505C123.139 33.0505 124.497 32.6358 125.039 31.0026C125.139 30.7 124.991 30.3792 124.717 30.2151L124.294 29.9612C124.249 29.9342 124.201 29.9119 124.151 29.8947L123.58 29.6977L122.428 29.3137C122.245 29.2527 122.045 29.2639 121.87 29.345L120.681 29.8959C120.646 29.9123 120.612 29.9314 120.579 29.9529L119.905 30.4021C119.654 30.5695 119.52 30.873 119.607 31.1619C120.233 33.2411 122.092 33.0505 122.622 33.0505Z" fill="white" fill-opacity="0.6"/>
<path d="M124.099 30.286L124.294 29.9612L124.099 30.286C124.076 30.2725 124.053 30.2613 124.028 30.2528L123.458 30.0564L122.308 29.673C122.217 29.6425 122.117 29.6481 122.029 29.6887L120.84 30.2396L120.681 29.8959L120.84 30.2396C120.823 30.2478 120.806 30.2573 120.789 30.2681L120.579 29.9529L120.789 30.2681L120.115 30.7173C119.981 30.8072 119.938 30.9477 119.969 31.0526C120.245 31.9685 120.773 32.3532 121.275 32.5282C121.732 32.6873 122.176 32.6792 122.481 32.6736C122.532 32.6726 122.579 32.6718 122.622 32.6718C123.007 32.6718 124.198 32.3347 124.679 30.8834C124.715 30.7766 124.67 30.6286 124.522 30.5399L124.099 30.286Z" stroke="#2F2E2E" stroke-opacity="0.55" stroke-width="0.757475"/>
<path d="M195.428 31.3036C195.428 41.9713 184.491 50.6192 171 50.6192C157.508 50.6192 146.571 41.9713 146.571 31.3036C146.571 25.9532 149.222 18.8052 151.874 15.2072C153.01 13.1242 153.578 1.00458 157.933 1.00458C162.289 0.625811 166.834 11.2305 167.212 11.988C168.685 11.7689 169.257 11.6092 170.81 11.6092C171.771 11.6092 173.098 11.7133 174.03 11.7986C174.977 10.0942 178.385 -0.889098 183.688 0.0577445C187.096 1.0046 187.646 14.6089 189.369 15.9647C193.813 19.4627 195.428 25.9532 195.428 31.3036Z" fill="#FFBBDC" fill-opacity="0.6"/>
<circle cx="165.698" cy="25.1859" r="1.32558" fill="#2F2E2E" fill-opacity="0.55"/>
<circle cx="176.302" cy="25.1859" r="1.32558" fill="#2F2E2E" fill-opacity="0.55"/>
<path d="M171.479 33.0505C171.996 33.0505 173.354 32.6358 173.896 31.0026C173.996 30.7 173.848 30.3792 173.574 30.2151L173.151 29.9612C173.106 29.9342 173.058 29.9119 173.008 29.8947L172.437 29.6977L171.285 29.3137C171.102 29.2527 170.902 29.2639 170.727 29.345L169.538 29.8959C169.503 29.9123 169.469 29.9314 169.436 29.9529L168.762 30.4021C168.511 30.5695 168.377 30.873 168.464 31.1619C169.09 33.2411 170.949 33.0505 171.479 33.0505Z" fill="white" fill-opacity="0.6"/>
<path d="M172.956 30.286L173.151 29.9612L172.956 30.286C172.933 30.2725 172.909 30.2613 172.885 30.2528L172.315 30.0564L171.165 29.673C171.074 29.6425 170.974 29.6481 170.886 29.6887L169.697 30.2396L169.538 29.8959L169.697 30.2396C169.679 30.2478 169.662 30.2573 169.646 30.2681L169.436 29.9529L169.646 30.2681L168.972 30.7173C168.837 30.8072 168.795 30.9477 168.826 31.0526C169.102 31.9685 169.63 32.3532 170.132 32.5282C170.589 32.6873 171.032 32.6792 171.338 32.6736C171.389 32.6726 171.436 32.6718 171.479 32.6718C171.863 32.6718 173.055 32.3347 173.536 30.8834C173.572 30.7766 173.527 30.6286 173.379 30.5399L172.956 30.286Z" stroke="#2F2E2E" stroke-opacity="0.55" stroke-width="0.757475"/>
<path d="M244.286 31.3036C244.286 41.9713 233.349 50.6192 219.857 50.6192C206.366 50.6192 195.429 41.9713 195.429 31.3036C195.429 25.9532 198.08 18.8052 200.731 15.2072C201.867 13.1242 202.435 1.00458 206.791 1.00458C211.146 0.625811 215.691 11.2305 216.07 11.988C217.542 11.7689 218.115 11.6092 219.668 11.6092C220.629 11.6092 221.955 11.7133 222.887 11.7986C223.834 10.0942 227.243 -0.889098 232.545 0.0577445C235.954 1.0046 236.503 14.6089 238.226 15.9647C242.671 19.4627 244.286 25.9532 244.286 31.3036Z" fill="#FFE925" fill-opacity="0.77"/>
<circle cx="214.555" cy="25.1859" r="1.32558" fill="#2F2E2E" fill-opacity="0.55"/>
<circle cx="225.16" cy="25.1859" r="1.32558" fill="#2F2E2E" fill-opacity="0.55"/>
<path d="M220.336 33.0505C220.854 33.0505 222.211 32.6358 222.753 31.0026C222.854 30.7 222.705 30.3792 222.432 30.2151L222.008 29.9612C221.963 29.9342 221.915 29.9119 221.865 29.8947L221.294 29.6977L220.142 29.3137C219.959 29.2527 219.76 29.2639 219.584 29.345L218.395 29.8959C218.36 29.9123 218.326 29.9314 218.294 29.9529L217.62 30.4021C217.369 30.5695 217.234 30.873 217.321 31.1619C217.948 33.2411 219.806 33.0505 220.336 33.0505Z" fill="white" fill-opacity="0.6"/>
<path d="M221.813 30.286L222.008 29.9612L221.813 30.286C221.791 30.2725 221.767 30.2613 221.742 30.2528L221.173 30.0564L220.023 29.673C219.931 29.6425 219.831 29.6481 219.744 29.6887L218.555 30.2396L218.395 29.8959L218.555 30.2396C218.537 30.2478 218.52 30.2573 218.504 30.2681L218.294 29.9529L218.504 30.2681L217.83 30.7173C217.695 30.8072 217.652 30.9477 217.684 31.0526C217.96 31.9685 218.487 32.3532 218.989 32.5282C219.446 32.6873 219.89 32.6792 220.195 32.6736C220.246 32.6726 220.293 32.6718 220.336 32.6718C220.721 32.6718 221.912 32.3347 222.394 30.8834C222.429 30.7766 222.384 30.6286 222.237 30.5399L221.813 30.286Z" stroke="#2F2E2E" stroke-opacity="0.55" stroke-width="0.757475"/>
<path d="M293.143 31.3036C293.143 41.9713 282.206 50.6192 268.714 50.6192C255.223 50.6192 244.286 41.9713 244.286 31.3036C244.286 25.9532 246.937 18.8052 249.588 15.2072C250.724 13.1242 251.292 1.00458 255.648 1.00458C260.003 0.625811 264.548 11.2305 264.927 11.988C266.399 11.7689 266.972 11.6092 268.525 11.6092C269.486 11.6092 270.812 11.7133 271.744 11.7986C272.691 10.0942 276.1 -0.889098 281.402 0.0577445C284.811 1.0046 285.36 14.6089 287.083 15.9647C291.528 19.4627 293.143 25.9532 293.143 31.3036Z" fill="#FFBBDC" fill-opacity="0.6"/>
<circle cx="263.412" cy="25.1859" r="1.32558" fill="#2F2E2E" fill-opacity="0.55"/>
<circle cx="274.017" cy="25.1859" r="1.32558" fill="#2F2E2E" fill-opacity="0.55"/>
<path d="M269.193 33.0505C269.711 33.0505 271.068 32.6358 271.61 31.0026C271.711 30.7 271.562 30.3792 271.288 30.2151L270.865 29.9612C270.82 29.9342 270.772 29.9119 270.722 29.8947L270.151 29.6977L268.999 29.3137C268.816 29.2527 268.617 29.2639 268.441 29.345L267.252 29.8959C267.217 29.9123 267.183 29.9314 267.151 29.9529L266.477 30.4021C266.225 30.5695 266.091 30.873 266.178 31.1619C266.804 33.2411 268.663 33.0505 269.193 33.0505Z" fill="white" fill-opacity="0.6"/>
<path d="M270.67 30.286L270.865 29.9612L270.67 30.286C270.648 30.2725 270.624 30.2613 270.599 30.2528L270.03 30.0564L268.88 29.673C268.788 29.6425 268.688 29.6481 268.601 29.6887L267.411 30.2396L267.252 29.8959L267.411 30.2396C267.394 30.2478 267.377 30.2573 267.361 30.2681L267.151 29.9529L267.361 30.2681L266.687 30.7173C266.552 30.8072 266.509 30.9477 266.541 31.0526C266.817 31.9685 267.344 32.3532 267.846 32.5282C268.303 32.6873 268.747 32.6792 269.052 32.6736C269.103 32.6726 269.15 32.6718 269.193 32.6718C269.578 32.6718 270.769 32.3347 271.251 30.8834C271.286 30.7766 271.241 30.6286 271.094 30.5399L270.67 30.286Z" stroke="#2F2E2E" stroke-opacity="0.55" stroke-width="0.757475"/>
<path d="M342 31.3036C342 41.9713 331.063 50.6192 317.572 50.6192C304.08 50.6192 293.143 41.9713 293.143 31.3036C293.143 25.9532 295.794 18.8052 298.445 15.2072C299.582 13.1242 300.15 1.00458 304.505 1.00458C308.861 0.625811 313.406 11.2305 313.784 11.988C315.257 11.7689 315.829 11.6092 317.382 11.6092C318.343 11.6092 319.67 11.7133 320.602 11.7986C321.548 10.0942 324.957 -0.889098 330.259 0.0577445C333.668 1.0046 334.218 14.6089 335.94 15.9647C340.385 19.4627 342 25.9532 342 31.3036Z" fill="#FFE925" fill-opacity="0.77"/>
<circle cx="312.269" cy="25.1859" r="1.32558" fill="#2F2E2E" fill-opacity="0.55"/>
<circle cx="322.874" cy="25.1859" r="1.32558" fill="#2F2E2E" fill-opacity="0.55"/>
<path d="M318.051 33.0505C318.568 33.0505 319.926 32.6358 320.468 31.0026C320.568 30.7 320.419 30.3792 320.146 30.2151L319.722 29.9612C319.677 29.9342 319.63 29.9119 319.58 29.8947L319.009 29.6977L317.857 29.3137C317.674 29.2527 317.474 29.2639 317.299 29.345L316.11 29.8959C316.074 29.9123 316.04 29.9314 316.008 29.9529L315.334 30.4021C315.083 30.5695 314.948 30.873 315.035 31.1619C315.662 33.2411 317.521 33.0505 318.051 33.0505Z" fill="white" fill-opacity="0.6"/>
<path d="M319.528 30.286L319.722 29.9612L319.528 30.286C319.505 30.2725 319.481 30.2613 319.456 30.2528L318.887 30.0564L317.737 29.673C317.645 29.6425 317.546 29.6481 317.458 29.6887L316.269 30.2396L316.11 29.8959L316.269 30.2396C316.251 30.2478 316.234 30.2573 316.218 30.2681L316.008 29.9529L316.218 30.2681L315.544 30.7173C315.409 30.8072 315.366 30.9477 315.398 31.0526C315.674 31.9685 316.201 32.3532 316.704 32.5282C317.16 32.6873 317.604 32.6792 317.909 32.6736C317.961 32.6726 318.008 32.6718 318.051 32.6718C318.435 32.6718 319.627 32.3347 320.108 30.8834C320.144 30.7766 320.099 30.6286 319.951 30.5399L319.528 30.286Z" stroke="#2F2E2E" stroke-opacity="0.55" stroke-width="0.757475"/>
</svg>
