<svg width="103" height="109" viewBox="0 0 103 109" fill="none" xmlns="http://www.w3.org/2000/svg">
<path d="M14.876 25.8602C21.8621 13.0839 24.7339 4.9039 29.6853 2.6305C34.6368 0.3571 38.692 20.1122 38.692 20.1122L49.7185 19.7606C49.7185 19.7606 65.9494 -1.33518 69.7402 0.0669186C73.5311 1.46902 72.3518 23.2773 72.3518 23.2773C81.2214 34.5986 83.9612 41.1238 84.539 53.1694C84.539 53.1694 89.5994 40.5792 92.4056 48.7996C95.6525 58.3106 86.9152 66.8027 85.7271 69.416C85.2001 70.5752 85.2432 72.5462 84.902 74.9331C84.835 75.4017 85.0789 76.3508 90.596 73.7544C96.113 71.1581 97.5649 70.4013 99.5975 70.4013C101.63 70.4013 107.438 74.7541 94.3708 78.9811C81.3041 83.2082 83.4517 80.1243 83.1137 80.7786C83.1137 83.6271 75.4967 92.0478 73.4641 92.6286C73.4641 92.6286 69.9796 108.018 63.8818 108.018C57.784 108.018 54.5899 96.9842 54.5899 96.9842C48.7825 97.2745 50.8151 98.1457 43.5558 96.4034C43.5558 96.4034 45.5413 108.018 39.848 108.018C33.6828 108.018 21.8621 89.7433 21.8621 89.7433C18.003 88.273 9.87264 74.9331 8.80437 70.4013C8.80437 70.4013 -0.896771 81.7292 0.067385 72.9005C0.979583 64.5475 8.80437 58.6722 8.80437 53.1552C8.80437 47.6381 7.88997 38.6366 14.876 25.8602Z" fill="#FFE925"/>
<path d="M45.9452 49.3631C47.172 49.3631 47.9243 49.0306 48.4467 48.5006C48.9931 47.9462 49.3589 47.1068 49.6573 45.949C49.7378 45.6369 49.4949 45.2979 49.1144 45.2979L42.0416 45.298C41.6591 45.298 41.4339 45.631 41.5129 45.9214C41.8921 47.3145 42.3962 48.1412 43.0528 48.6358C43.7103 49.1311 44.6131 49.3631 45.9452 49.3631Z" fill="white" stroke="#2F2E2E" stroke-width="1.16149"/>
<circle cx="53.1381" cy="39.2001" r="2.0326" fill="#2F2E2E"/>
<circle cx="36.8773" cy="39.2001" r="2.0326" fill="#2F2E2E"/>
</svg>
