<svg width="22" height="22" viewBox="0 0 22 22" fill="none" xmlns="http://www.w3.org/2000/svg">
<path d="M11 22C17.0751 22 22 17.0751 22 11C22 4.92487 17.0751 0 11 0C4.92487 0 0 4.92487 0 11C0 17.0751 4.92487 22 11 22Z" fill="#FFF95D"/>
<path d="M6.42589 14.4351C6.45339 14.5444 7.13967 17.1104 11.0001 17.1104C14.8611 17.1104 15.5467 14.5444 15.5742 14.4351C15.6078 14.3025 15.5479 14.165 15.4294 14.0966C15.3102 14.0288 15.1611 14.0489 15.0627 14.1436C15.0511 14.1552 13.8686 15.2776 11.0001 15.2776C8.1315 15.2776 6.94839 14.1552 6.93739 14.1443C6.87873 14.0862 6.8005 14.0557 6.72228 14.0557C6.67095 14.0557 6.619 14.0685 6.57195 14.0948C6.45217 14.1632 6.39228 14.3019 6.42589 14.4351Z" fill="#664500"/>
<path d="M7.3332 10.3891C8.17696 10.3891 8.86097 9.43149 8.86097 8.25022C8.86097 7.06894 8.17696 6.11133 7.3332 6.11133C6.48943 6.11133 5.80542 7.06894 5.80542 8.25022C5.80542 9.43149 6.48943 10.3891 7.3332 10.3891Z" fill="#664500"/>
<path d="M14.6667 10.3891C15.5105 10.3891 16.1945 9.43149 16.1945 8.25022C16.1945 7.06894 15.5105 6.11133 14.6667 6.11133C13.8229 6.11133 13.1389 7.06894 13.1389 8.25022C13.1389 9.43149 13.8229 10.3891 14.6667 10.3891Z" fill="#664500"/>
</svg>
