<svg width="22" height="22" viewBox="0 0 22 22" fill="none" xmlns="http://www.w3.org/2000/svg">
<g clip-path="url(#clip0_803_10262)">
<path d="M22 11C22 17.0751 17.0751 22 11 22C4.92556 22 0 17.0751 0 11C0 4.92556 4.92556 0 11 0C17.0751 0 22 4.92556 22 11Z" fill="#BDFF00"/>
<path d="M17.7222 16.5C19.4097 16.5 20.7777 15.132 20.7777 13.4445C20.7777 11.7569 19.4097 10.3889 17.7222 10.3889C16.0346 10.3889 14.6666 11.7569 14.6666 13.4445C14.6666 15.132 16.0346 16.5 17.7222 16.5Z" fill="#FFDEEC"/>
<path d="M4.27772 16.5C5.96526 16.5 7.33328 15.132 7.33328 13.4445C7.33328 11.7569 5.96526 10.3889 4.27772 10.3889C2.59019 10.3889 1.22217 11.7569 1.22217 13.4445C1.22217 15.132 2.59019 16.5 4.27772 16.5Z" fill="#FFDEEC"/>
<path d="M17.7222 8.55543C17.6419 8.55552 17.5624 8.53974 17.4883 8.50901C17.4141 8.47829 17.3468 8.43321 17.2901 8.37638C15.7153 6.80277 12.9787 7.31549 12.9519 7.3216C12.8731 7.33741 12.7921 7.3375 12.7133 7.32186C12.6346 7.30621 12.5597 7.27514 12.493 7.23044C12.4264 7.18573 12.3692 7.12828 12.3248 7.06138C12.2804 6.99449 12.2497 6.91947 12.2344 6.84066C12.2028 6.68207 12.2354 6.5174 12.3251 6.38286C12.4148 6.24832 12.5543 6.15492 12.7129 6.12321C12.8516 6.0951 16.1125 5.47238 18.1536 7.51227C18.2393 7.59758 18.2978 7.70642 18.3215 7.82499C18.3453 7.94356 18.3333 8.06652 18.2871 8.17826C18.2409 8.29001 18.1625 8.38551 18.0619 8.45266C17.9614 8.51981 17.8431 8.55558 17.7222 8.55543ZM4.27774 8.55543C4.15676 8.5557 4.03843 8.52002 3.93777 8.45292C3.83711 8.38581 3.75865 8.29032 3.71236 8.17855C3.66607 8.06678 3.65402 7.94377 3.67776 7.82514C3.7015 7.70652 3.75995 7.59762 3.84569 7.51227C5.8868 5.47055 9.14891 6.09571 9.28641 6.12321C9.44541 6.1549 9.5853 6.24845 9.67533 6.38328C9.76535 6.51811 9.79812 6.68319 9.76644 6.84218C9.73475 7.00118 9.6412 7.14108 9.50637 7.2311C9.37153 7.32112 9.20646 7.3539 9.04746 7.32221C9.0053 7.31305 6.27974 6.80705 4.7098 8.37699C4.59512 8.49138 4.43972 8.55556 4.27774 8.55543ZM15.8889 11.611C15.8086 11.6111 15.7291 11.5953 15.655 11.5646C15.5808 11.5338 15.5135 11.4888 15.4568 11.4319C14.6599 10.6344 12.9574 10.8367 12.3695 10.9822C12.2122 11.0213 12.0458 10.9964 11.9069 10.9128C11.768 10.8293 11.6679 10.694 11.6288 10.5367C11.5897 10.3794 11.6146 10.213 11.6982 10.0741C11.7817 9.93516 11.917 9.83513 12.0743 9.79599C12.188 9.76788 14.8701 9.11704 16.3209 10.5678C16.4066 10.6532 16.4651 10.7621 16.4888 10.8807C16.5126 10.9993 16.5005 11.1223 16.4542 11.2341C16.4079 11.3459 16.3295 11.4414 16.2288 11.5085C16.1282 11.5756 16.0098 11.6113 15.8889 11.611ZM6.11108 11.611C5.9901 11.6113 5.87177 11.5756 5.7711 11.5085C5.67044 11.4414 5.59198 11.3459 5.54569 11.2341C5.4994 11.1223 5.48736 10.9993 5.5111 10.8807C5.53483 10.7621 5.59328 10.6532 5.67902 10.5678C7.12919 9.11766 9.81258 9.76788 9.92624 9.79599C10.0835 9.83513 10.2188 9.93516 10.3024 10.0741C10.3859 10.213 10.4109 10.3794 10.3717 10.5367C10.3326 10.694 10.2326 10.8293 10.0937 10.9128C9.95477 10.9964 9.78837 11.0213 9.63108 10.9822C9.04197 10.8373 7.34002 10.6357 6.54374 11.4319C6.48692 11.4887 6.41946 11.5338 6.34522 11.5645C6.27098 11.5952 6.19142 11.611 6.11108 11.611Z" fill="#664500"/>
<path d="M7.94446 15.2778C7.94446 15.2778 8.55557 17.7223 11 17.7223C13.4445 17.7223 14.0556 15.2778 14.0556 15.2778C14.0556 15.2778 13.4445 15.8889 11 15.8889C8.55557 15.8889 7.94446 15.2778 7.94446 15.2778Z" fill="#664500"/>
<path d="M11 18.0278C8.34781 18.0278 7.65481 15.3786 7.64808 15.3517C7.63238 15.2876 7.63779 15.2202 7.66352 15.1594C7.68924 15.0987 7.7339 15.0479 7.79084 15.0146C7.84779 14.9812 7.91397 14.9672 7.97953 14.9746C8.0451 14.9819 8.10653 15.0102 8.1547 15.0553C8.17853 15.0761 8.80614 15.5833 11 15.5833C13.2269 15.5833 13.8399 15.0608 13.846 15.0559C13.8952 15.0123 13.957 14.9853 14.0225 14.9787C14.088 14.9721 14.1538 14.9863 14.2108 15.0193C14.267 15.0521 14.311 15.1022 14.3364 15.1621C14.3619 15.222 14.3673 15.2885 14.352 15.3517C14.3453 15.3786 13.6523 18.0278 11 18.0278ZM8.52442 15.8938C8.87703 16.544 9.60914 17.4167 11 17.4167C12.3909 17.4167 13.1236 16.544 13.4756 15.8938C12.9745 16.0514 12.1917 16.1944 11 16.1944C9.80836 16.1944 9.02553 16.0514 8.52442 15.8938Z" fill="#664500"/>
</g>
<defs>
<clipPath id="clip0_803_10262">
<rect width="22" height="22" fill="white"/>
</clipPath>
</defs>
</svg>
