<svg width="103" height="94" viewBox="0 0 103 94" fill="none" xmlns="http://www.w3.org/2000/svg">
<path d="M26.5412 22.4448C32.6046 11.3559 35.0971 4.25624 39.3946 2.28309C43.6921 0.309937 47.2117 17.456 47.2117 17.456L56.782 17.1507C56.782 17.1507 70.8692 -1.15884 74.1594 0.0580805C77.4496 1.275 76.426 20.203 76.426 20.203C84.1243 30.0291 86.5022 35.6925 87.0037 46.1472C87.0037 46.1472 91.3957 35.2198 93.8313 42.3546C96.6494 50.6095 89.066 57.9799 88.0348 60.2481C87.5774 61.2543 87.6149 62.965 87.3187 65.0365C87.2606 65.4433 87.4723 66.267 92.2607 64.0136C97.0491 61.7601 98.3092 61.1033 100.073 61.1033C101.838 61.1033 106.878 64.8812 95.537 68.55C84.196 72.2188 86.06 69.5421 85.7666 70.1101C85.7666 72.5823 79.1556 79.891 77.3914 80.395C77.3914 80.395 74.3671 93.7522 69.0747 93.7522C63.7822 93.7522 61.01 84.1753 61.01 84.1753C55.9696 84.4274 57.7337 85.1834 51.4332 83.6713C51.4332 83.6713 53.1565 93.7522 48.2151 93.7522C42.8641 93.7522 32.6046 77.8908 32.6046 77.8908C29.2552 76.6147 23.0571 60.9332 22.1299 57C22.1299 57 19.1345 57.2431 17.6299 59.5C17.6299 62 17.6299 63.5 14.6299 65.5C13.9857 66.0735 9.12988 66.5 7.12978 65.5C6.07183 64.971 3.62989 69 1.12978 67.5C-2.55846 65.2872 3.9959 61.0012 3.62984 60.5C3.01267 59.655 2.12988 57 3.62984 54C8.12994 48 15.1299 51.5 15.1299 51.5C15.1299 51.5 19.6299 50 21.2714 46.1349C22.913 42.2698 20.4778 33.5338 26.5412 22.4448Z" fill="#FFE925"/>
<circle cx="45.6367" cy="34.0227" r="1.76415" fill="#2F2E2E"/>
<circle cx="59.75" cy="34.0227" r="1.76415" fill="#2F2E2E"/>
<path d="M53.5071 43.0956C54.6222 43.0957 55.3461 42.791 55.8577 42.2719C56.3798 41.7423 56.7109 40.9603 56.973 39.9433C57.0871 39.5008 56.74 39.0633 56.2577 39.0633L50.1191 39.0634C49.6389 39.0634 49.3002 39.4934 49.417 39.9226C49.7533 41.1584 50.2122 41.937 50.8451 42.4137C51.4784 42.8907 52.3259 43.0956 53.5071 43.0956Z" fill="white" stroke="#2F2E2E" stroke-width="0.504044"/>
<path d="M8.66902 56C8.99841 56.2814 10.2077 57.4159 10.3846 57.8454C10.5615 58.2749 10.645 58.7487 10.6276 59.2249C10.6103 59.7011 10.4927 60.1649 10.2852 60.5753C10.0777 60.9858 9.78672 61.3301 9.43806 61.5778C9.08941 61.8255 8.69383 61.969 8.28635 61.9955C7.87888 62.022 7.4721 61.9308 7.10203 61.7298C6.73197 61.5289 6.41005 61.2245 6.16479 60.8435C5.91953 60.4626 4.69242 58.6445 4.62988 58.1736L5.27038 58.0576C5.31659 58.4055 6.50163 60.1072 6.68283 60.3886C6.86404 60.6701 7.10188 60.895 7.37529 61.0434C7.6487 61.1919 7.94924 61.2593 8.25029 61.2397C8.55134 61.2201 8.8436 61.1141 9.10119 60.9311C9.35878 60.7481 9.57375 60.4937 9.72705 60.1905C9.88036 59.8872 9.96726 59.5446 9.98007 59.1927C9.99288 58.8409 9.9312 58.4908 9.8005 58.1735C9.66979 57.8562 8.52971 56.8189 8.28635 56.611L8.66902 56Z" fill="#2F2E2E"/>
</svg>
