<svg width="24" height="22" viewBox="0 0 24 22" fill="none" xmlns="http://www.w3.org/2000/svg">
<path d="M12 0.75125C15.96 0.75125 18.2075 3.3725 18.5337 6.53875H18.6337C19.2392 6.53776 19.8389 6.65608 20.3986 6.88694C20.9583 7.1178 21.467 7.45667 21.8957 7.8842C22.3244 8.31173 22.6647 8.81954 22.897 9.37861C23.1294 9.93768 23.2493 10.5371 23.25 11.1425C23.2492 11.7477 23.1292 12.3469 22.8968 12.9057C22.6644 13.4646 22.3243 13.9722 21.8957 14.3996C21.4672 14.8269 20.9586 15.1657 20.3992 15.3966C19.8397 15.6274 19.2402 15.7458 18.635 15.745H17.9075L17.9037 15.75H17.5737C17.548 15.8236 17.5131 15.8937 17.47 15.9588L16.22 17.8338C16.0808 18.0376 15.8668 18.1784 15.6245 18.2255C15.3822 18.2725 15.1311 18.2222 14.9257 18.0852C14.7203 17.9483 14.5772 17.7359 14.5274 17.4941C14.4777 17.2523 14.5253 17.0006 14.66 16.7938L15.3588 15.745H13.0713L13.0687 15.75H12.5725C12.5467 15.8232 12.5118 15.8929 12.4688 15.9575L11.2188 17.8325C11.1523 17.9389 11.0652 18.0309 10.9626 18.103C10.86 18.1751 10.7439 18.2259 10.6213 18.2524C10.4987 18.2789 10.3721 18.2805 10.2488 18.2571C10.1256 18.2337 10.0083 18.1859 9.90391 18.1163C9.79951 18.0468 9.71012 17.9571 9.64104 17.8524C9.57195 17.7477 9.52458 17.6302 9.50172 17.5069C9.47885 17.3836 9.48097 17.2569 9.50795 17.1344C9.53492 17.0119 9.5862 16.8961 9.65875 16.7938L10.3588 15.745H8.2325L8.23125 15.75H7.5725C7.54634 15.8237 7.51107 15.8938 7.4675 15.9588L6.2175 17.8338C6.07832 18.0376 5.86434 18.1784 5.62202 18.2255C5.3797 18.2725 5.12858 18.2222 4.92319 18.0852C4.71779 17.9483 4.57469 17.7359 4.52495 17.4941C4.47521 17.2523 4.52284 17.0006 4.6575 16.7938L5.3575 15.745C4.13648 15.7447 2.9655 15.2598 2.10164 14.3969C1.23778 13.534 0.751656 12.3635 0.75 11.1425C0.750492 10.537 0.870312 9.93744 1.10261 9.37823C1.33491 8.81901 1.67514 8.31106 2.10385 7.88339C2.53256 7.45573 3.04134 7.11674 3.60112 6.88581C4.1609 6.65487 4.7607 6.53652 5.36625 6.5375H5.46625C5.79375 3.35 8.03875 0.75125 12 0.75125ZM5.9075 20.5425C5.8376 20.6449 5.7887 20.7601 5.76364 20.8816C5.73857 21.003 5.73785 21.1282 5.76149 21.2499C5.78514 21.3716 5.83269 21.4874 5.90139 21.5906C5.9701 21.6938 6.05859 21.7824 6.16175 21.8511C6.26491 21.9199 6.38069 21.9675 6.50238 21.9913C6.62407 22.015 6.74925 22.0143 6.87069 21.9893C6.99213 21.9644 7.10741 21.9155 7.20985 21.8457C7.31229 21.7759 7.39987 21.6864 7.4675 21.5825L8.7175 19.7075C8.7874 19.6051 8.8363 19.4899 8.86136 19.3684C8.88643 19.247 8.88716 19.1218 8.86351 19.0001C8.83986 18.8784 8.79231 18.7626 8.72361 18.6594C8.6549 18.5562 8.56641 18.4677 8.46325 18.3989C8.36009 18.3301 8.24432 18.2825 8.12262 18.2588C8.00093 18.235 7.87575 18.2357 7.75431 18.2607C7.63287 18.2856 7.51759 18.3345 7.41515 18.4043C7.31271 18.4741 7.22513 18.5636 7.1575 18.6675L5.9075 20.5425ZM11.1675 21.8425C10.9606 21.7046 10.817 21.4901 10.7683 21.2463C10.7195 21.0026 10.7696 20.7494 10.9075 20.5425L12.1575 18.6675C12.2251 18.5636 12.3127 18.4741 12.4151 18.4043C12.5176 18.3345 12.6329 18.2856 12.7543 18.2607C12.8757 18.2357 13.0009 18.235 13.1226 18.2588C13.2443 18.2825 13.3601 18.3301 13.4632 18.3989C13.5664 18.4677 13.6549 18.5562 13.7236 18.6594C13.7923 18.7626 13.8399 18.8784 13.8635 19.0001C13.8872 19.1218 13.8864 19.247 13.8614 19.3684C13.8363 19.4899 13.7874 19.6051 13.7175 19.7075L12.4675 21.5825C12.3296 21.7894 12.1151 21.933 11.8713 21.9817C11.6276 22.0305 11.3744 21.9804 11.1675 21.8425Z" fill="white"/>
</svg>
