<svg width="17" height="16" viewBox="0 0 17 16" fill="none" xmlns="http://www.w3.org/2000/svg">
<path d="M13.6775 2.35146C12.0475 0.721457 9.73749 -0.218543 7.19749 0.0414571C3.52749 0.411457 0.507487 3.39146 0.0974871 7.06146C-0.452513 11.9115 3.29749 16.0015 8.02749 16.0015C11.2175 16.0015 13.9575 14.1315 15.2375 11.4415C15.5575 10.7715 15.0775 10.0015 14.3375 10.0015C13.9675 10.0015 13.6175 10.2015 13.4575 10.5315C12.3275 12.9615 9.61749 14.5015 6.65749 13.8415C4.43749 13.3515 2.64749 11.5415 2.17749 9.32146C1.33749 5.44146 4.28749 2.00146 8.02749 2.00146C9.68749 2.00146 11.1675 2.69146 12.2475 3.78146L10.7375 5.29146C10.1075 5.92146 10.5475 7.00146 11.4375 7.00146H15.0275C15.5775 7.00146 16.0275 6.55146 16.0275 6.00146V2.41146C16.0275 1.52146 14.9475 1.07146 14.3175 1.70146L13.6775 2.35146Z" fill="#00ABB6"/>
</svg>
