<svg width="9" height="12" viewBox="0 0 9 12" fill="none" xmlns="http://www.w3.org/2000/svg">
<path d="M6.41155 6.00367L0.778489 1.35873C0.586889 1.20073 0.494154 1.01367 0.500285 0.797541C0.506416 0.581409 0.605538 0.394557 0.79765 0.236987C0.98925 0.0789957 1.21611 0 1.47822 0C1.74033 0 1.96693 0.0789957 2.15802 0.236987L8.04016 5.10312C8.19344 5.22952 8.3084 5.37171 8.38504 5.5297C8.46168 5.68769 8.5 5.84568 8.5 6.00367C8.5 6.16167 8.46168 6.31966 8.38504 6.47765C8.3084 6.63564 8.19344 6.77783 8.04016 6.90423L2.13885 11.7704C1.94725 11.9284 1.72372 12.0048 1.46825 11.9998C1.21278 11.9947 0.98925 11.913 0.79765 11.7546C0.606049 11.5966 0.510248 11.4095 0.510248 11.1934C0.510248 10.9772 0.606049 10.7904 0.79765 10.6328L6.41155 6.00367Z" fill="#00ABB6"/>
</svg>
