<svg width="128" height="129" viewBox="0 0 128 129" fill="none" xmlns="http://www.w3.org/2000/svg">
<path d="M106.507 31.3798C98.0296 15.8765 94.5448 5.95058 88.5366 3.19195C82.5283 0.433319 77.6076 24.4049 77.6076 24.4049L64.2276 23.9782C64.2276 23.9782 44.5324 -1.62016 39.9324 0.0812015C35.3325 1.78256 36.7635 28.2455 36.7635 28.2455C26.0007 41.9833 22.6762 49.9012 21.9751 64.5178C21.9751 64.5178 4.91448 74.5004 10.0447 79.6307C14.6253 84.2112 22.3759 76.1577 23.0806 82.5C23.7853 88.8423 24.6612 90.5127 25.5806 93C26.7752 94.3886 21.3199 92.6469 14.6253 89.4964C7.93066 86.3459 6.16892 85.4276 3.70248 85.4276C1.23605 85.4276 -5.81091 90.7094 10.0447 95.8387C25.9004 100.968 30.6704 101.706 31.0806 102.5C31.0806 105.956 41.1141 114.295 43.5806 115C43.5806 115 49.6813 129 57.0806 129C64.4799 129 62.0806 116.5 62.0806 116.5C69.1275 116.852 75.272 117.114 84.0807 115C84.0807 115 87.6722 129 94.5807 129C102.062 129 101.581 110.5 101.581 110.5C106.263 108.716 112.578 90.9266 113.874 85.4276C113.874 85.4276 128.251 77.2131 127.081 66.5C125.974 56.3642 113.874 71.1951 113.874 64.5005C113.874 57.8059 114.984 46.8831 106.507 31.3798Z" fill="#FFBBDC"/>
<circle cx="2.46644" cy="2.46644" r="2.46644" transform="matrix(-1 0 0 1 82.2759 45.1006)" fill="#2F2E2E"/>
<circle cx="2.46644" cy="2.46644" r="2.46644" transform="matrix(-1 0 0 1 62.5444 45.1006)" fill="#2F2E2E"/>
<path d="M74.825 57.1307C76.1083 58.3117 73.8025 60.1906 70.6089 60.2498C67.4153 60.3091 64.6069 58.8925 65.664 57.1307C66.721 55.3689 67.0476 58.1098 70.2412 58.0505C73.4349 57.9912 73.5417 55.9497 74.825 57.1307Z" fill="black"/>
</svg>
