<svg width="57" height="55" viewBox="0 0 57 55" fill="none" xmlns="http://www.w3.org/2000/svg">
<path d="M14.1759 1.87498C1.31427 16.4767 0.0824632 38.2471 0.0805664 50.371C0.0798156 55.1701 43.4208 56.4329 43.4208 48.8554V44.0562C43.4208 44.0562 52.2283 40.7729 53.2853 39.0048C53.9184 37.9459 50.0665 39.2838 51.5236 37.7419C51.5236 37.7419 55.5756 34.7109 56.1041 33.7006C56.6326 32.6902 51.8759 34.9635 51.8759 34.9635C51.8759 34.9635 51.9323 28.5411 50.8189 30.6696C48.7048 34.7109 43.4208 40.7726 43.4208 40.7726C43.4208 40.7726 43.4208 11.4733 34.9644 1.87498C32.9375 -0.425688 30.7348 9.36578 30.7348 9.36578H16.9933C16.9933 9.36578 18.4028 -2.92386 14.1759 1.87498Z" fill="#FFD15A"/>
<circle cx="18.2264" cy="15.8841" r="1.23322" fill="#2F2E2E"/>
<circle cx="25.9781" cy="15.8841" r="1.23322" fill="#2F2E2E"/>
<path d="M20.4151 23.5407C21.1753 22.8248 21.0042 23.1429 21.2073 22.8355C21.4103 22.528 21.5359 22.1672 21.5715 21.7894L21.0057 21.7251C20.9804 21.9936 20.8911 22.2501 20.7468 22.4687C20.6025 22.6873 20.7126 22.5652 20.1837 22.97C19.6548 23.3748 19.6548 24.2566 20.4151 23.5407Z" fill="#2F2E2E"/>
<path d="M22.0156 22.986C21.2554 22.2701 21.4264 22.5883 21.2234 22.2808C21.0204 21.9733 20.8947 21.6125 20.8592 21.2347L21.425 21.1704C21.4503 21.439 21.5396 21.6954 21.6839 21.914C21.8282 22.1326 21.7181 22.0105 22.247 22.4153C22.7759 22.8201 22.7759 23.7019 22.0156 22.986Z" fill="#2F2E2E"/>
<path d="M22.6309 20.8692C22.1581 21.7636 22.0809 22.0522 21.3699 22.0522C20.659 22.0522 20.5818 21.7637 20.0564 20.8692C20.0564 20.0884 20.6327 20.321 21.3437 20.321C22.0546 20.321 22.6309 20.0884 22.6309 20.8692Z" fill="#2F2E2E"/>
</svg>
