<svg width="126" height="132" viewBox="0 0 126 132" fill="none" xmlns="http://www.w3.org/2000/svg">
<path d="M18.5741 31.3798C27.0512 15.8765 30.536 5.95058 36.5443 3.19195C42.5525 0.433319 47.4732 24.4049 47.4732 24.4049L60.8532 23.9782C60.8532 23.9782 80.5484 -1.62016 85.1484 0.0812015C89.7484 1.78256 88.3174 28.2455 88.3174 28.2455C99.0801 41.9833 102.405 49.9012 103.106 64.5178C103.106 64.5178 120.166 74.5004 115.036 79.6307C110.456 84.2112 106.227 76.1072 105.523 82.4495C104.818 88.7917 104.466 88.4394 103.546 90.9266C102.352 92.3152 103.761 92.6469 110.456 89.4964C117.15 86.3459 118.912 85.4276 121.378 85.4276C123.845 85.4276 130.892 90.7094 115.036 95.8387C99.1804 100.968 101.786 97.2258 101.376 98.0198C101.376 101.476 92.1335 111.694 89.667 112.399C89.667 112.399 85.4388 131.073 78.0395 131.073C70.6402 131.073 66.7644 117.684 66.7644 117.684C59.7174 118.037 62.1839 119.094 53.3752 116.98C53.3752 116.98 55.7845 131.073 48.876 131.073C41.3949 131.073 27.0512 108.898 27.0512 108.898C22.3685 107.114 12.5028 90.9266 11.2065 85.4276C11.2065 85.4276 -0.565227 99.1733 0.604717 88.4602C1.71161 78.3244 11.2065 71.1951 11.2065 64.5005C11.2065 57.8059 10.0969 46.8831 18.5741 31.3798Z" fill="#FFE925"/>
<circle cx="45.2711" cy="47.567" r="2.46644" fill="#2F2E2E"/>
<circle cx="65.0026" cy="47.567" r="2.46644" fill="#2F2E2E"/>
<ellipse cx="55.137" cy="55.0479" rx="3.17113" ry="2.1954" fill="black"/>
<ellipse cx="55.1371" cy="55.0477" rx="2.1954" ry="1.51989" fill="white"/>
</svg>
