<svg width="276" height="350" viewBox="0 0 276 350" fill="none" xmlns="http://www.w3.org/2000/svg">
<mask id="path-1-inside-1_1747_11041" fill="white">
<path d="M51 8C51 3.58172 54.5817 0 59 0H232C236.418 0 240 3.58172 240 8V348H51V8Z"/>
</mask>
<path d="M48 8C48 1.92487 52.9249 -3 59 -3H232C238.075 -3 243 1.92487 243 8H237C237 5.23858 234.761 3 232 3H59C56.2386 3 54 5.23858 54 8H48ZM240 348H51H240ZM48 348V8C48 1.92487 52.9249 -3 59 -3V3C56.2386 3 54 5.23858 54 8V348H48ZM232 -3C238.075 -3 243 1.92487 243 8V348H237V8C237 5.23858 234.761 3 232 3V-3Z" fill="#A29C9C" fill-opacity="0.5" mask="url(#path-1-inside-1_1747_11041)"/>
<mask id="path-3-inside-2_1747_11041" fill="white">
<path d="M59 13C59 10.2386 61.2386 8 64 8H227C229.761 8 232 10.2386 232 13V348H59V13Z"/>
</mask>
<path d="M59 13C59 10.2386 61.2386 8 64 8H227C229.761 8 232 10.2386 232 13V348H59V13Z" fill="#EEFEFF"/>
<path d="M58 13C58 9.68629 60.6863 7 64 7H227C230.314 7 233 9.68629 233 13H231C231 10.7909 229.209 9 227 9H64C61.7909 9 60 10.7909 60 13H58ZM232 348H59H232ZM58 348V13C58 9.68629 60.6863 7 64 7V9C61.7909 9 60 10.7909 60 13V348H58ZM227 7C230.314 7 233 9.68629 233 13V348H231V13C231 10.7909 229.209 9 227 9V7Z" fill="#D9D9D9" mask="url(#path-3-inside-2_1747_11041)"/>
<path d="M60 11.5898C60 9.93299 61.3431 8.58984 63 8.58984H228C229.657 8.58984 231 9.93299 231 11.5898V29.5873H60V11.5898Z" fill="#04CAD6"/>
<path d="M112.38 22.5884V21.9964C114.306 20.2999 115.287 19.0363 115.287 17.9672C115.287 17.2692 114.916 16.7832 114.191 16.7832C113.679 16.7832 113.255 17.1013 112.91 17.4989L112.327 16.9422C112.892 16.3326 113.467 15.9703 114.315 15.9703C115.508 15.9703 116.277 16.739 116.277 17.923C116.277 19.1689 115.269 20.4678 113.891 21.7931C114.227 21.7578 114.642 21.7225 114.96 21.7225H116.586V22.5884H112.38ZM119.911 22.7121C118.63 22.7121 117.808 21.5723 117.808 19.3103C117.808 17.0659 118.63 15.9703 119.911 15.9703C121.183 15.9703 122.014 17.0659 122.014 19.3103C122.014 21.5723 121.183 22.7121 119.911 22.7121ZM119.911 21.8992C120.574 21.8992 121.033 21.1923 121.033 19.3103C121.033 17.4547 120.574 16.7655 119.911 16.7655C119.248 16.7655 118.78 17.4547 118.78 19.3103C118.78 21.1923 119.248 21.8992 119.911 21.8992ZM123.165 22.5884V21.9964C125.091 20.2999 126.072 19.0363 126.072 17.9672C126.072 17.2692 125.701 16.7832 124.977 16.7832C124.464 16.7832 124.04 17.1013 123.695 17.4989L123.112 16.9422C123.678 16.3326 124.252 15.9703 125.1 15.9703C126.293 15.9703 127.062 16.739 127.062 17.923C127.062 19.1689 126.055 20.4678 124.676 21.7931C125.012 21.7578 125.427 21.7225 125.745 21.7225H127.371V22.5884H123.165ZM130.537 22.7121C129.521 22.7121 128.858 22.3056 128.417 21.8108L128.92 21.157C129.3 21.5457 129.777 21.8727 130.458 21.8727C131.182 21.8727 131.686 21.4662 131.686 20.7947C131.686 20.0701 131.226 19.6107 129.768 19.6107V18.8508C131.041 18.8508 131.465 18.3737 131.465 17.7198C131.465 17.1455 131.094 16.7832 130.466 16.7832C129.972 16.7832 129.548 17.0218 129.176 17.3929L128.637 16.7478C129.159 16.2884 129.76 15.9703 130.511 15.9703C131.677 15.9703 132.499 16.5711 132.499 17.6403C132.499 18.3913 132.066 18.9126 131.377 19.1689V19.2131C132.128 19.4075 132.72 19.9641 132.72 20.8477C132.72 22.0229 131.739 22.7121 130.537 22.7121ZM133.677 24.1788L136.133 15.5285H136.831L134.384 24.1788H133.677ZM138.118 22.5884V21.749H139.549V17.225H138.374V16.58C138.993 16.4739 139.417 16.3149 139.797 16.0852H140.566V21.749H141.838V22.5884H138.118ZM145.278 22.7121C143.997 22.7121 143.175 21.5723 143.175 19.3103C143.175 17.0659 143.997 15.9703 145.278 15.9703C146.55 15.9703 147.381 17.0659 147.381 19.3103C147.381 21.5723 146.55 22.7121 145.278 22.7121ZM145.278 21.8992C145.941 21.8992 146.4 21.1923 146.4 19.3103C146.4 17.4547 145.941 16.7655 145.278 16.7655C144.615 16.7655 144.147 17.4547 144.147 19.3103C144.147 21.1923 144.615 21.8992 145.278 21.8992ZM148.258 24.1788L150.715 15.5285H151.413L148.965 24.1788H148.258ZM152.7 22.5884V21.749H154.131V17.225H152.956V16.58C153.574 16.4739 153.999 16.3149 154.379 16.0852H155.147V21.749H156.42V22.5884H152.7ZM159.86 22.7121C158.578 22.7121 157.757 21.5723 157.757 19.3103C157.757 17.0659 158.578 15.9703 159.86 15.9703C161.132 15.9703 161.962 17.0659 161.962 19.3103C161.962 21.5723 161.132 22.7121 159.86 22.7121ZM159.86 21.8992C160.522 21.8992 160.982 21.1923 160.982 19.3103C160.982 17.4547 160.522 16.7655 159.86 16.7655C159.197 16.7655 158.729 17.4547 158.729 19.3103C158.729 21.1923 159.197 21.8992 159.86 21.8992ZM164.828 24.3467C163.997 23.0125 163.512 21.5811 163.512 19.8316C163.512 18.0821 163.997 16.6507 164.828 15.3076L165.455 15.5903C164.704 16.8627 164.351 18.356 164.351 19.8316C164.351 21.3072 164.704 22.8004 165.455 24.0728L164.828 24.3467ZM167.916 16.9069L168.755 17.0924C168.605 18.1704 168.322 19.2396 167.545 19.8581L166.802 19.3721C167.483 18.8331 167.783 17.9053 167.916 16.9069ZM173.412 16.8981L174.331 17.2515C173.889 18.0909 173.332 19.0717 172.882 19.699L172.175 19.3721C172.599 18.7183 173.129 17.6756 173.412 16.8981ZM170.611 15.2546H171.061V18.0821C171.061 19.2396 171.777 21.5104 174.711 22.5619C174.525 22.7474 174.26 23.1009 174.136 23.3394C171.768 22.4117 170.814 20.4943 170.602 19.6284C170.407 20.5119 169.524 22.3675 167.2 23.3394C167.085 23.1539 166.802 22.8093 166.617 22.6326C169.462 21.5546 170.16 19.2396 170.16 18.0821V15.2546H170.611ZM176.469 24.3467L175.833 24.0728C176.584 22.8004 176.946 21.3072 176.946 19.8316C176.946 18.356 176.584 16.8627 175.833 15.5903L176.469 15.3076C177.291 16.6507 177.777 18.0821 177.777 19.8316C177.777 21.5811 177.291 23.0125 176.469 24.3467Z" fill="white"/>
<g filter="url(#filter0_d_1747_11041)">
<g clip-path="url(#clip0_1747_11041)">
<mask id="path-7-inside-3_1747_11041" fill="white">
<path d="M60 62H231V127H60V62Z"/>
</mask>
<g filter="url(#filter1_d_1747_11041)">
<path d="M60 62H231V127H60V62Z" fill="white"/>
</g>
</g>
<path d="M60 62.4418H231V61.5582H60V62.4418Z" fill="#04CAD6" mask="url(#path-7-inside-3_1747_11041)"/>
</g>
<path d="M204.405 73.9659L204.727 74.2876L201.558 77.4564H201.236V77.1346L204.405 73.9659ZM205.664 71.8604C205.577 71.8604 205.486 71.8953 205.419 71.9618L204.779 72.6018L206.091 73.9134L206.731 73.2734C206.867 73.137 206.867 72.9166 206.731 72.7802L205.913 71.9618C205.843 71.8918 205.755 71.8604 205.664 71.8604ZM204.405 72.9761L200.537 76.8444V78.1559H201.848L205.717 74.2876L204.405 72.9761Z" fill="#00ABB6"/>
<path d="M214.473 75.2675H214.989V78.095H214.473V75.2675ZM215.286 75.2675H215.809V78.095H215.286V75.2675ZM212.812 71.9028H216.827V72.6238H212.812V71.9028ZM213.88 76.2713H216.488V76.8721H213.88V76.2713ZM213.074 72.9348H213.816V74.4193C213.816 75.4796 213.696 77.0842 212.996 78.1162C212.869 77.9748 212.544 77.7416 212.374 77.6638C213.017 76.7166 213.074 75.3665 213.074 74.4122V72.9348ZM213.392 72.9348H216.65V74.7374H213.392V74.0729H215.838V73.6064H213.392V72.9348ZM213.604 75.0484H216.559V75.6775H214.191V78.1445H213.604V75.0484ZM216.113 75.0484H216.799V77.4235C216.799 77.7062 216.771 77.8971 216.601 78.0172C216.445 78.1233 216.255 78.1445 216.007 78.1445C215.979 77.9466 215.88 77.6638 215.795 77.473C215.908 77.48 216.007 77.48 216.057 77.48C216.099 77.48 216.113 77.4659 216.113 77.4093V75.0484ZM211.356 71.514L212.07 71.7614C211.787 72.3128 211.462 72.9419 211.2 73.3378L210.649 73.1116C210.897 72.6874 211.2 72.0018 211.356 71.514ZM212.112 72.3481L212.784 72.6521C212.289 73.4509 211.646 74.4334 211.13 75.0342L210.656 74.7727C211.158 74.1365 211.766 73.1045 212.112 72.3481ZM210.26 73.1398L210.677 72.5814C211.038 72.9207 211.462 73.3872 211.632 73.7053L211.186 74.3415C211.031 73.9951 210.614 73.4933 210.26 73.1398ZM211.9 74.0093L212.459 73.7831C212.713 74.2708 212.961 74.9141 213.024 75.3311L212.43 75.5856C212.374 75.1756 212.148 74.5112 211.9 74.0093ZM210.239 74.6101C210.847 74.5818 211.709 74.5253 212.558 74.4688L212.565 75.1686C211.78 75.2322 210.96 75.2887 210.331 75.3382L210.239 74.6101ZM212.013 75.8047L212.579 75.6351C212.749 76.038 212.89 76.5682 212.932 76.9145L212.339 77.1054C212.31 76.7519 212.176 76.2147 212.013 75.8047ZM210.543 75.6634L211.2 75.7765C211.13 76.448 210.974 77.1478 210.776 77.6002C210.642 77.5083 210.345 77.374 210.183 77.3104C210.381 76.8933 210.487 76.2571 210.543 75.6634ZM211.271 74.9848H211.985V78.1445H211.271V74.9848ZM217.781 75.8542H224.172V76.5328H217.781V75.8542ZM219.139 73.2247H223.422V73.776H219.139V73.2247ZM219.139 74.0729H223.429V74.6243H219.139V74.0729ZM218.969 72.2704H223.776V72.9348H218.969V72.2704ZM220.729 72.6874H221.542V75.1686H220.729V72.6874ZM220.531 75.4018H221.379V78.1374H220.531V75.4018ZM220.468 76.137L221.104 76.448C220.376 77.169 219.16 77.791 218.085 78.1021C217.965 77.89 217.725 77.579 217.541 77.4023C218.616 77.1761 219.838 76.6813 220.468 76.137ZM221.471 76.1158C222.079 76.653 223.274 77.1478 224.334 77.3811C224.157 77.5507 223.924 77.8617 223.804 78.0667C222.737 77.7628 221.549 77.1407 220.828 76.4339L221.471 76.1158ZM221.083 71.507L222.037 71.6201C221.811 72.0442 221.556 72.44 221.358 72.7157L220.609 72.5673C220.786 72.2633 220.984 71.825 221.083 71.507ZM219.273 71.4928L220.142 71.6625C219.669 72.4895 219.047 73.3024 218.177 74.0022C218.043 73.8114 217.767 73.5498 217.576 73.4296C218.368 72.8571 218.948 72.1149 219.273 71.4928ZM218.587 72.7016H219.393V74.9282H223.981V75.5715H218.587V72.7016Z" fill="#00ABB6"/>
<path d="M69.4895 77.4564C69.4895 77.8412 69.8043 78.1559 70.189 78.1559H72.9871C73.3718 78.1559 73.6866 77.8412 73.6866 77.4564V73.2594H69.4895V77.4564ZM70.3499 74.9662L70.8431 74.473L71.5881 75.2145L72.3295 74.473L72.8227 74.9662L72.0812 75.7077L72.8227 76.4491L72.3295 76.9423L71.5881 76.2008L70.8466 76.9423L70.3534 76.4491L71.0949 75.7077L70.3499 74.9662ZM72.8122 72.2101L72.4624 71.8604H70.7137L70.3639 72.2101H69.1398V72.9096H74.0363V72.2101H72.8122Z" fill="#00ABB6"/>
<path d="M82.1504 72.3623H82.9704V76.3349H82.1504V72.3623ZM83.7126 71.6413H84.5538V77.1054C84.5538 77.6073 84.4478 77.8405 84.165 77.9819C83.8681 78.1162 83.4016 78.1445 82.7513 78.1445C82.7089 77.8971 82.5746 77.5083 82.4473 77.268C82.9209 77.2821 83.3733 77.2821 83.5218 77.2821C83.6561 77.2821 83.7126 77.2397 83.7126 77.1054V71.6413ZM78.814 75.8401H81.4789V76.554H78.814V75.8401ZM78.814 74.6737H81.4789V75.3877H78.814V74.6737ZM79.6198 71.4999H80.461V73.9951H79.6198V71.4999ZM80.7791 73.4438H81.5991V77.1619C81.5991 77.5507 81.5354 77.7769 81.281 77.9041C81.0336 78.0385 80.7013 78.0455 80.1995 78.0455C80.1712 77.8193 80.0722 77.473 79.9733 77.2609C80.2489 77.275 80.56 77.268 80.6589 77.268C80.7508 77.2609 80.7791 77.2397 80.7791 77.1478V73.4438ZM78.2485 72.0159L78.9483 71.7756C79.1462 72.1926 79.3441 72.744 79.4219 73.1116L78.6868 73.3872C78.6231 73.0197 78.4323 72.44 78.2485 72.0159ZM81.1043 71.719L81.9454 71.9028C81.7546 72.4259 81.5425 72.9772 81.3658 73.3448L80.6589 73.161C80.8215 72.7723 81.0124 72.1643 81.1043 71.719ZM78.5242 73.4438H81.2103V74.2355H79.33V78.0667H78.5242V73.4438ZM88.6042 73.5498H91.368V74.2426H88.6042V73.5498ZM88.18 74.8858H91.8841V75.5997H88.18V74.8858ZM89.9614 72.2704C89.5655 72.8783 88.8516 73.6205 88.0952 74.0729C88.0104 73.8679 87.8266 73.564 87.6852 73.3943C88.4487 72.9702 89.1979 72.1714 89.5584 71.514H90.3077C90.8096 72.2562 91.5589 72.9772 92.3011 73.3307C92.1385 73.5215 91.9618 73.8255 91.8416 74.0588C91.1489 73.6417 90.3855 72.8924 89.9614 72.2704ZM89.5726 73.9174H90.3784V77.275C90.3784 77.6497 90.3148 77.8688 90.0745 77.996C89.8483 78.1303 89.5372 78.1516 89.106 78.1516C89.0778 77.9254 88.9576 77.579 88.8445 77.3599C89.106 77.3669 89.3747 77.3669 89.4666 77.3669C89.5514 77.3669 89.5726 77.3457 89.5726 77.2609V73.9174ZM88.4557 75.8684L89.1909 76.0521C88.9647 76.7025 88.5688 77.3599 88.1659 77.7698C88.0316 77.6355 87.7418 77.3952 87.5721 77.2821C87.9538 76.9357 88.2719 76.4056 88.4557 75.8684ZM90.6117 76.144L91.2549 75.8401C91.6225 76.3137 92.0184 76.9569 92.1668 77.3952L91.467 77.7416C91.3327 77.3174 90.9581 76.6459 90.6117 76.144ZM85.8474 71.8109H87.5156V72.5673H86.5896V78.1516H85.8474V71.8109ZM87.254 71.8109H87.3954L87.5156 71.7826L88.0669 72.0937C87.8832 72.7016 87.6499 73.4721 87.4449 74.0234C87.8832 74.5748 87.968 75.0484 87.968 75.4584C87.968 75.9178 87.8761 76.2147 87.6499 76.3702C87.5368 76.448 87.4025 76.4975 87.247 76.5187C87.1197 76.5328 86.9501 76.5399 86.7875 76.5399C86.7804 76.3349 86.7168 76.0168 86.6037 75.8118C86.731 75.8189 86.8229 75.8259 86.9077 75.8189C86.9854 75.8189 87.0561 75.8047 87.1056 75.7623C87.1904 75.6987 87.2258 75.5573 87.2258 75.3594C87.2258 75.0272 87.1339 74.5889 86.731 74.1153C86.9289 73.4791 87.1551 72.5036 87.254 72.0512V71.8109Z" fill="#00ABB6"/>
<path d="M66.8909 90.4703C67.1471 90.4968 67.4034 90.5144 67.695 90.5144C68.2074 90.5144 70.7787 90.5144 71.2735 90.5144C71.5209 90.5144 71.839 90.4968 72.0952 90.4703V91.2036C71.8302 91.186 71.5209 91.1683 71.2735 91.1683C70.7787 91.1683 68.2074 91.1683 67.7038 91.1683C67.4122 91.1683 67.1206 91.186 66.8909 91.2036V90.4703ZM65.8394 92.6881C66.078 92.7146 66.3342 92.7234 66.6081 92.7234C67.1206 92.7234 71.9185 92.7234 72.3868 92.7234C72.5724 92.7234 72.864 92.7146 73.0849 92.6881V93.4126C72.8816 93.4038 72.6077 93.395 72.3868 93.395C71.9185 93.395 67.1206 93.395 66.6081 93.395C66.3431 93.395 66.078 93.4038 65.8394 93.4215V92.6881ZM70.0011 93.0415C70.0011 94.1548 69.8597 95.0738 69.4621 95.816C69.144 96.408 68.4725 97.0353 67.7303 97.4241L67.0764 96.947C67.7568 96.6554 68.393 96.1518 68.7376 95.5863C69.1794 94.8882 69.2501 94.0223 69.2589 93.0504L70.0011 93.0415ZM77.2907 90.753C77.2466 90.5321 77.1935 90.3377 77.1317 90.1522L77.9181 90.0196C77.9358 90.1787 77.9711 90.4349 78.0064 90.6293C78.0595 91.0181 79.0314 95.869 79.1551 96.4522C79.217 96.6996 79.2877 97 79.376 97.2562L78.5631 97.4065C78.5189 97.106 78.4924 96.8321 78.4306 96.5759C78.3422 96.0192 77.3968 91.2125 77.2907 90.753ZM74.799 92.0342C75.0199 92.0166 75.2585 91.9989 75.5412 91.9724C76.3365 91.884 79.3849 91.398 80.2243 91.2302C80.4805 91.186 80.7102 91.133 80.8604 91.0888L81.0018 91.831C80.8693 91.8398 80.6042 91.884 80.3656 91.9194C79.4555 92.0607 76.4425 92.5379 75.6649 92.6704C75.4264 92.7146 75.2143 92.7588 74.9581 92.8206L74.799 92.0342ZM74.7725 94.579C74.9846 94.5701 75.3203 94.5348 75.5501 94.4994C76.4955 94.3757 79.7825 93.8367 80.8428 93.6424C81.1785 93.5805 81.4348 93.5187 81.6203 93.4656L81.7705 94.2079C81.585 94.2255 81.3022 94.2785 80.9753 94.3316C79.8001 94.5083 76.6104 95.0296 75.718 95.1886C75.3734 95.2505 75.1259 95.3035 74.9316 95.3565L74.7725 94.579ZM89.4642 91.0976C89.4112 91.1683 89.2963 91.3627 89.2521 91.4776C88.8987 92.3523 88.2272 93.5893 87.4938 94.4022C86.5042 95.5067 85.2406 96.5582 83.8446 97.1944L83.2791 96.6024C84.7105 96.0546 86.0094 94.9942 86.9195 93.987C87.5203 93.3066 88.1653 92.2551 88.3951 91.5217C88.077 91.5217 85.2495 91.5217 84.9491 91.5217C84.631 91.5217 84.1538 91.5571 84.0566 91.5659V90.7707C84.1715 90.7884 84.6751 90.8237 84.9491 90.8237C85.2937 90.8237 88.0239 90.8237 88.3597 90.8237C88.6425 90.8237 88.881 90.7972 89.0224 90.753L89.4642 91.0976ZM87.6087 93.9428C88.5629 94.738 89.7381 95.975 90.339 96.7084L89.7293 97.2474C89.0931 96.408 88.0593 95.277 87.105 94.4376L87.6087 93.9428ZM94.2091 96.2224C94.2091 95.7276 94.2091 91.8222 94.2091 91.0888C94.2091 90.8325 94.1914 90.4438 94.1472 90.161H95.0131C94.9778 90.4349 94.9513 90.8149 94.9513 91.0888C94.9513 92.4583 94.9601 95.8072 94.9601 96.2224C94.9601 96.5052 94.9778 96.9823 95.0131 97.2739H94.1561C94.2002 96.9912 94.2091 96.5494 94.2091 96.2224ZM94.7922 92.4849C95.9586 92.8206 97.7434 93.501 98.7242 93.9781L98.415 94.7292C97.4077 94.1902 95.7554 93.5628 94.7922 93.2624V92.4849ZM101.967 90.4703C102.223 90.4968 102.479 90.5144 102.771 90.5144C103.284 90.5144 105.855 90.5144 106.35 90.5144C106.597 90.5144 106.915 90.4968 107.171 90.4703V91.2036C106.906 91.186 106.597 91.1683 106.35 91.1683C105.855 91.1683 103.284 91.1683 102.78 91.1683C102.488 91.1683 102.197 91.186 101.967 91.2036V90.4703ZM100.916 92.6881C101.154 92.7146 101.41 92.7234 101.684 92.7234C102.197 92.7234 106.995 92.7234 107.463 92.7234C107.648 92.7234 107.94 92.7146 108.161 92.6881V93.4126C107.958 93.4038 107.684 93.395 107.463 93.395C106.995 93.395 102.197 93.395 101.684 93.395C101.419 93.395 101.154 93.4038 100.916 93.4215V92.6881ZM105.077 93.0415C105.077 94.1548 104.936 95.0738 104.538 95.816C104.22 96.408 103.549 97.0353 102.806 97.4241L102.153 96.947C102.833 96.6554 103.469 96.1518 103.814 95.5863C104.256 94.8882 104.326 94.0223 104.335 93.0504L105.077 93.0415ZM112.367 90.753C112.323 90.5321 112.27 90.3377 112.208 90.1522L112.994 90.0196C113.012 90.1787 113.047 90.4349 113.083 90.6293C113.136 91.0181 114.108 95.869 114.231 96.4522C114.293 96.6996 114.364 97 114.452 97.2562L113.639 97.4065C113.595 97.106 113.569 96.8321 113.507 96.5759C113.418 96.0192 112.473 91.2125 112.367 90.753ZM109.875 92.0342C110.096 92.0166 110.335 91.9989 110.617 91.9724C111.413 91.884 114.461 91.398 115.3 91.2302C115.557 91.186 115.786 91.133 115.937 91.0888L116.078 91.831C115.945 91.8398 115.68 91.884 115.442 91.9194C114.532 92.0607 111.519 92.5379 110.741 92.6704C110.502 92.7146 110.29 92.7588 110.034 92.8206L109.875 92.0342ZM109.849 94.579C110.061 94.5701 110.396 94.5348 110.626 94.4994C111.572 94.3757 114.859 93.8367 115.919 93.6424C116.255 93.5805 116.511 93.5187 116.696 93.4656L116.847 94.2079C116.661 94.2255 116.378 94.2785 116.051 94.3316C114.876 94.5083 111.686 95.0296 110.794 95.1886C110.449 95.2505 110.202 95.3035 110.008 95.3565L109.849 94.579ZM124.54 91.0976C124.487 91.1683 124.372 91.3627 124.328 91.4776C123.975 92.3523 123.303 93.5893 122.57 94.4022C121.58 95.5067 120.317 96.5582 118.921 97.1944L118.355 96.6024C119.787 96.0546 121.085 94.9942 121.996 93.987C122.596 93.3066 123.241 92.2551 123.471 91.5217C123.153 91.5217 120.326 91.5217 120.025 91.5217C119.707 91.5217 119.23 91.5571 119.133 91.5659V90.7707C119.248 90.7884 119.751 90.8237 120.025 90.8237C120.37 90.8237 123.1 90.8237 123.436 90.8237C123.719 90.8237 123.957 90.7972 124.099 90.753L124.54 91.0976ZM122.685 93.9428C123.639 94.738 124.814 95.975 125.415 96.7084L124.805 97.2474C124.169 96.408 123.135 95.277 122.181 94.4376L122.685 93.9428ZM129.285 96.2224C129.285 95.7276 129.285 91.8222 129.285 91.0888C129.285 90.8325 129.268 90.4438 129.223 90.161H130.089C130.054 90.4349 130.027 90.8149 130.027 91.0888C130.027 92.4583 130.036 95.8072 130.036 96.2224C130.036 96.5052 130.054 96.9823 130.089 97.2739H129.232C129.276 96.9912 129.285 96.5494 129.285 96.2224ZM129.868 92.4849C131.035 92.8206 132.82 93.501 133.8 93.9781L133.491 94.7292C132.484 94.1902 130.831 93.5628 129.868 93.2624V92.4849ZM137.043 90.4703C137.299 90.4968 137.556 90.5144 137.847 90.5144C138.36 90.5144 140.931 90.5144 141.426 90.5144C141.673 90.5144 141.991 90.4968 142.247 90.4703V91.2036C141.982 91.186 141.673 91.1683 141.426 91.1683C140.931 91.1683 138.36 91.1683 137.856 91.1683C137.564 91.1683 137.273 91.186 137.043 91.2036V90.4703ZM135.992 92.6881C136.23 92.7146 136.486 92.7234 136.76 92.7234C137.273 92.7234 142.071 92.7234 142.539 92.7234C142.725 92.7234 143.016 92.7146 143.237 92.6881V93.4126C143.034 93.4038 142.76 93.395 142.539 93.395C142.071 93.395 137.273 93.395 136.76 93.395C136.495 93.395 136.23 93.4038 135.992 93.4215V92.6881ZM140.153 93.0415C140.153 94.1548 140.012 95.0738 139.614 95.816C139.296 96.408 138.625 97.0353 137.883 97.4241L137.229 96.947C137.909 96.6554 138.545 96.1518 138.89 95.5863C139.332 94.8882 139.402 94.0223 139.411 93.0504L140.153 93.0415ZM147.443 90.753C147.399 90.5321 147.346 90.3377 147.284 90.1522L148.07 90.0196C148.088 90.1787 148.123 90.4349 148.159 90.6293C148.212 91.0181 149.184 95.869 149.307 96.4522C149.369 96.6996 149.44 97 149.528 97.2562L148.715 97.4065C148.671 97.106 148.645 96.8321 148.583 96.5759C148.494 96.0192 147.549 91.2125 147.443 90.753ZM144.951 92.0342C145.172 92.0166 145.411 91.9989 145.693 91.9724C146.489 91.884 149.537 91.398 150.377 91.2302C150.633 91.186 150.862 91.133 151.013 91.0888L151.154 91.831C151.022 91.8398 150.756 91.884 150.518 91.9194C149.608 92.0607 146.595 92.5379 145.817 92.6704C145.579 92.7146 145.367 92.7588 145.11 92.8206L144.951 92.0342ZM144.925 94.579C145.137 94.5701 145.473 94.5348 145.702 94.4994C146.648 94.3757 149.935 93.8367 150.995 93.6424C151.331 93.5805 151.587 93.5187 151.773 93.4656L151.923 94.2079C151.737 94.2255 151.454 94.2785 151.128 94.3316C149.952 94.5083 146.763 95.0296 145.87 95.1886C145.526 95.2505 145.278 95.3035 145.084 95.3565L144.925 94.579ZM159.616 91.0976C159.563 91.1683 159.449 91.3627 159.404 91.4776C159.051 92.3523 158.379 93.5893 157.646 94.4022C156.656 95.5067 155.393 96.5582 153.997 97.1944L153.431 96.6024C154.863 96.0546 156.162 94.9942 157.072 93.987C157.673 93.3066 158.318 92.2551 158.547 91.5217C158.229 91.5217 155.402 91.5217 155.101 91.5217C154.783 91.5217 154.306 91.5571 154.209 91.5659V90.7707C154.324 90.7884 154.827 90.8237 155.101 90.8237C155.446 90.8237 158.176 90.8237 158.512 90.8237C158.795 90.8237 159.033 90.7972 159.175 90.753L159.616 91.0976ZM157.761 93.9428C158.715 94.738 159.89 95.975 160.491 96.7084L159.882 97.2474C159.245 96.408 158.212 95.277 157.257 94.4376L157.761 93.9428ZM164.361 96.2224C164.361 95.7276 164.361 91.8222 164.361 91.0888C164.361 90.8325 164.344 90.4438 164.299 90.161H165.165C165.13 90.4349 165.104 90.8149 165.104 91.0888C165.104 92.4583 165.112 95.8072 165.112 96.2224C165.112 96.5052 165.13 96.9823 165.165 97.2739H164.308C164.352 96.9912 164.361 96.5494 164.361 96.2224ZM164.944 92.4849C166.111 92.8206 167.896 93.501 168.876 93.9781L168.567 94.7292C167.56 94.1902 165.908 93.5628 164.944 93.2624V92.4849ZM172.119 90.4703C172.375 90.4968 172.632 90.5144 172.923 90.5144C173.436 90.5144 176.007 90.5144 176.502 90.5144C176.749 90.5144 177.067 90.4968 177.324 90.4703V91.2036C177.059 91.186 176.749 91.1683 176.502 91.1683C176.007 91.1683 173.436 91.1683 172.932 91.1683C172.641 91.1683 172.349 91.186 172.119 91.2036V90.4703ZM171.068 92.6881C171.306 92.7146 171.563 92.7234 171.836 92.7234C172.349 92.7234 177.147 92.7234 177.615 92.7234C177.801 92.7234 178.092 92.7146 178.313 92.6881V93.4126C178.11 93.4038 177.836 93.395 177.615 93.395C177.147 93.395 172.349 93.395 171.836 93.395C171.571 93.395 171.306 93.4038 171.068 93.4215V92.6881ZM175.229 93.0415C175.229 94.1548 175.088 95.0738 174.69 95.816C174.372 96.408 173.701 97.0353 172.959 97.4241L172.305 96.947C172.985 96.6554 173.621 96.1518 173.966 95.5863C174.408 94.8882 174.478 94.0223 174.487 93.0504L175.229 93.0415ZM182.519 90.753C182.475 90.5321 182.422 90.3377 182.36 90.1522L183.146 90.0196C183.164 90.1787 183.199 90.4349 183.235 90.6293C183.288 91.0181 184.26 95.869 184.383 96.4522C184.445 96.6996 184.516 97 184.604 97.2562L183.791 97.4065C183.747 97.106 183.721 96.8321 183.659 96.5759C183.571 96.0192 182.625 91.2125 182.519 90.753ZM180.027 92.0342C180.248 92.0166 180.487 91.9989 180.77 91.9724C181.565 91.884 184.613 91.398 185.453 91.2302C185.709 91.186 185.939 91.133 186.089 91.0888L186.23 91.831C186.098 91.8398 185.833 91.884 185.594 91.9194C184.684 92.0607 181.671 92.5379 180.893 92.6704C180.655 92.7146 180.443 92.7588 180.186 92.8206L180.027 92.0342ZM180.001 94.579C180.213 94.5701 180.549 94.5348 180.778 94.4994C181.724 94.3757 185.011 93.8367 186.071 93.6424C186.407 93.5805 186.663 93.5187 186.849 93.4656L186.999 94.2079C186.813 94.2255 186.531 94.2785 186.204 94.3316C185.028 94.5083 181.839 95.0296 180.946 95.1886C180.602 95.2505 180.354 95.3035 180.16 95.3565L180.001 94.579ZM194.693 91.0976C194.64 91.1683 194.525 91.3627 194.481 91.4776C194.127 92.3523 193.456 93.5893 192.722 94.4022C191.733 95.5067 190.469 96.5582 189.073 97.1944L188.507 96.6024C189.939 96.0546 191.238 94.9942 192.148 93.987C192.749 93.3066 193.394 92.2551 193.623 91.5217C193.305 91.5217 190.478 91.5217 190.177 91.5217C189.859 91.5217 189.382 91.5571 189.285 91.5659V90.7707C189.4 90.7884 189.904 90.8237 190.177 90.8237C190.522 90.8237 193.252 90.8237 193.588 90.8237C193.871 90.8237 194.109 90.7972 194.251 90.753L194.693 91.0976ZM192.837 93.9428C193.791 94.738 194.966 95.975 195.567 96.7084L194.958 97.2474C194.321 96.408 193.288 95.277 192.333 94.4376L192.837 93.9428ZM199.437 96.2224C199.437 95.7276 199.437 91.8222 199.437 91.0888C199.437 90.8325 199.42 90.4438 199.376 90.161H200.241C200.206 90.4349 200.18 90.8149 200.18 91.0888C200.18 92.4583 200.188 95.8072 200.188 96.2224C200.188 96.5052 200.206 96.9823 200.241 97.2739H199.384C199.429 96.9912 199.437 96.5494 199.437 96.2224ZM200.021 92.4849C201.187 92.8206 202.972 93.501 203.953 93.9781L203.643 94.7292C202.636 94.1902 200.984 93.5628 200.021 93.2624V92.4849ZM207.195 90.4703C207.452 90.4968 207.708 90.5144 207.999 90.5144C208.512 90.5144 211.083 90.5144 211.578 90.5144C211.825 90.5144 212.143 90.4968 212.4 90.4703V91.2036C212.135 91.186 211.825 91.1683 211.578 91.1683C211.083 91.1683 208.512 91.1683 208.008 91.1683C207.717 91.1683 207.425 91.186 207.195 91.2036V90.4703ZM206.144 92.6881C206.382 92.7146 206.639 92.7234 206.913 92.7234C207.425 92.7234 212.223 92.7234 212.691 92.7234C212.877 92.7234 213.168 92.7146 213.389 92.6881V93.4126C213.186 93.4038 212.912 93.395 212.691 93.395C212.223 93.395 207.425 93.395 206.913 93.395C206.648 93.395 206.382 93.4038 206.144 93.4215V92.6881ZM210.306 93.0415C210.306 94.1548 210.164 95.0738 209.767 95.816C209.449 96.408 208.777 97.0353 208.035 97.4241L207.381 96.947C208.061 96.6554 208.697 96.1518 209.042 95.5863C209.484 94.8882 209.555 94.0223 209.563 93.0504L210.306 93.0415ZM217.595 90.753C217.551 90.5321 217.498 90.3377 217.436 90.1522L218.223 90.0196C218.24 90.1787 218.276 90.4349 218.311 90.6293C218.364 91.0181 219.336 95.869 219.46 96.4522C219.521 96.6996 219.592 97 219.68 97.2562L218.868 97.4065C218.823 97.106 218.797 96.8321 218.735 96.5759C218.647 96.0192 217.701 91.2125 217.595 90.753ZM215.103 92.0342C215.324 92.0166 215.563 91.9989 215.846 91.9724C216.641 91.884 219.689 91.398 220.529 91.2302C220.785 91.186 221.015 91.133 221.165 91.0888L221.306 91.831C221.174 91.8398 220.909 91.884 220.67 91.9194C219.76 92.0607 216.747 92.5379 215.969 92.6704C215.731 92.7146 215.519 92.7588 215.263 92.8206L215.103 92.0342ZM215.077 94.579C215.289 94.5701 215.625 94.5348 215.855 94.4994C216.8 94.3757 220.087 93.8367 221.147 93.6424C221.483 93.5805 221.739 93.5187 221.925 93.4656L222.075 94.2079C221.889 94.2255 221.607 94.2785 221.28 94.3316C220.105 94.5083 216.915 95.0296 216.022 95.1886C215.678 95.2505 215.43 95.3035 215.236 95.3565L215.077 94.579ZM66.8909 103.47C67.1471 103.497 67.4034 103.514 67.695 103.514C68.2074 103.514 70.7787 103.514 71.2735 103.514C71.5209 103.514 71.839 103.497 72.0952 103.47V104.204C71.8302 104.186 71.5209 104.168 71.2735 104.168C70.7787 104.168 68.2074 104.168 67.7038 104.168C67.4122 104.168 67.1206 104.186 66.8909 104.204V103.47ZM65.8394 105.688C66.078 105.715 66.3342 105.723 66.6081 105.723C67.1206 105.723 71.9185 105.723 72.3868 105.723C72.5724 105.723 72.864 105.715 73.0849 105.688V106.413C72.8816 106.404 72.6077 106.395 72.3868 106.395C71.9185 106.395 67.1206 106.395 66.6081 106.395C66.3431 106.395 66.078 106.404 65.8394 106.421V105.688ZM70.0011 106.042C70.0011 107.155 69.8597 108.074 69.4621 108.816C69.144 109.408 68.4725 110.035 67.7303 110.424L67.0764 109.947C67.7568 109.655 68.393 109.152 68.7376 108.586C69.1794 107.888 69.2501 107.022 69.2589 106.05L70.0011 106.042ZM77.2907 103.753C77.2466 103.532 77.1935 103.338 77.1317 103.152L77.9181 103.02C77.9358 103.179 77.9711 103.435 78.0064 103.629C78.0595 104.018 79.0314 108.869 79.1551 109.452C79.217 109.7 79.2877 110 79.376 110.256L78.5631 110.406C78.5189 110.106 78.4924 109.832 78.4306 109.576C78.3422 109.019 77.3968 104.212 77.2907 103.753ZM74.799 105.034C75.0199 105.017 75.2585 104.999 75.5412 104.972C76.3365 104.884 79.3849 104.398 80.2243 104.23C80.4805 104.186 80.7102 104.133 80.8604 104.089L81.0018 104.831C80.8693 104.84 80.6042 104.884 80.3656 104.919C79.4555 105.061 76.4425 105.538 75.6649 105.67C75.4264 105.715 75.2143 105.759 74.9581 105.821L74.799 105.034ZM74.7725 107.579C74.9846 107.57 75.3203 107.535 75.5501 107.499C76.4955 107.376 79.7825 106.837 80.8428 106.642C81.1785 106.581 81.4348 106.519 81.6203 106.466L81.7705 107.208C81.585 107.226 81.3022 107.279 80.9753 107.332C79.8001 107.508 76.6104 108.03 75.718 108.189C75.3734 108.25 75.1259 108.304 74.9316 108.357L74.7725 107.579ZM89.4642 104.098C89.4112 104.168 89.2963 104.363 89.2521 104.478C88.8987 105.352 88.2272 106.589 87.4938 107.402C86.5042 108.507 85.2406 109.558 83.8446 110.194L83.2791 109.602C84.7105 109.055 86.0094 107.994 86.9195 106.987C87.5203 106.307 88.1653 105.255 88.3951 104.522C88.077 104.522 85.2495 104.522 84.9491 104.522C84.631 104.522 84.1538 104.557 84.0566 104.566V103.771C84.1715 103.788 84.6751 103.824 84.9491 103.824C85.2937 103.824 88.0239 103.824 88.3597 103.824C88.6425 103.824 88.881 103.797 89.0224 103.753L89.4642 104.098ZM87.6087 106.943C88.5629 107.738 89.7381 108.975 90.339 109.708L89.7293 110.247C89.0931 109.408 88.0593 108.277 87.105 107.438L87.6087 106.943ZM94.2091 109.222C94.2091 108.728 94.2091 104.822 94.2091 104.089C94.2091 103.833 94.1914 103.444 94.1472 103.161H95.0131C94.9778 103.435 94.9513 103.815 94.9513 104.089C94.9513 105.458 94.9601 108.807 94.9601 109.222C94.9601 109.505 94.9778 109.982 95.0131 110.274H94.1561C94.2002 109.991 94.2091 109.549 94.2091 109.222ZM94.7922 105.485C95.9586 105.821 97.7434 106.501 98.7242 106.978L98.415 107.729C97.4077 107.19 95.7554 106.563 94.7922 106.262V105.485ZM101.967 103.47C102.223 103.497 102.479 103.514 102.771 103.514C103.284 103.514 105.855 103.514 106.35 103.514C106.597 103.514 106.915 103.497 107.171 103.47V104.204C106.906 104.186 106.597 104.168 106.35 104.168C105.855 104.168 103.284 104.168 102.78 104.168C102.488 104.168 102.197 104.186 101.967 104.204V103.47ZM100.916 105.688C101.154 105.715 101.41 105.723 101.684 105.723C102.197 105.723 106.995 105.723 107.463 105.723C107.648 105.723 107.94 105.715 108.161 105.688V106.413C107.958 106.404 107.684 106.395 107.463 106.395C106.995 106.395 102.197 106.395 101.684 106.395C101.419 106.395 101.154 106.404 100.916 106.421V105.688ZM105.077 106.042C105.077 107.155 104.936 108.074 104.538 108.816C104.22 109.408 103.549 110.035 102.806 110.424L102.153 109.947C102.833 109.655 103.469 109.152 103.814 108.586C104.256 107.888 104.326 107.022 104.335 106.05L105.077 106.042ZM112.367 103.753C112.323 103.532 112.27 103.338 112.208 103.152L112.994 103.02C113.012 103.179 113.047 103.435 113.083 103.629C113.136 104.018 114.108 108.869 114.231 109.452C114.293 109.7 114.364 110 114.452 110.256L113.639 110.406C113.595 110.106 113.569 109.832 113.507 109.576C113.418 109.019 112.473 104.212 112.367 103.753ZM109.875 105.034C110.096 105.017 110.335 104.999 110.617 104.972C111.413 104.884 114.461 104.398 115.3 104.23C115.557 104.186 115.786 104.133 115.937 104.089L116.078 104.831C115.945 104.84 115.68 104.884 115.442 104.919C114.532 105.061 111.519 105.538 110.741 105.67C110.502 105.715 110.29 105.759 110.034 105.821L109.875 105.034ZM109.849 107.579C110.061 107.57 110.396 107.535 110.626 107.499C111.572 107.376 114.859 106.837 115.919 106.642C116.255 106.581 116.511 106.519 116.696 106.466L116.847 107.208C116.661 107.226 116.378 107.279 116.051 107.332C114.876 107.508 111.686 108.03 110.794 108.189C110.449 108.25 110.202 108.304 110.008 108.357L109.849 107.579ZM124.54 104.098C124.487 104.168 124.372 104.363 124.328 104.478C123.975 105.352 123.303 106.589 122.57 107.402C121.58 108.507 120.317 109.558 118.921 110.194L118.355 109.602C119.787 109.055 121.085 107.994 121.996 106.987C122.596 106.307 123.241 105.255 123.471 104.522C123.153 104.522 120.326 104.522 120.025 104.522C119.707 104.522 119.23 104.557 119.133 104.566V103.771C119.248 103.788 119.751 103.824 120.025 103.824C120.37 103.824 123.1 103.824 123.436 103.824C123.719 103.824 123.957 103.797 124.099 103.753L124.54 104.098ZM122.685 106.943C123.639 107.738 124.814 108.975 125.415 109.708L124.805 110.247C124.169 109.408 123.135 108.277 122.181 107.438L122.685 106.943ZM129.285 109.222C129.285 108.728 129.285 104.822 129.285 104.089C129.285 103.833 129.268 103.444 129.223 103.161H130.089C130.054 103.435 130.027 103.815 130.027 104.089C130.027 105.458 130.036 108.807 130.036 109.222C130.036 109.505 130.054 109.982 130.089 110.274H129.232C129.276 109.991 129.285 109.549 129.285 109.222ZM129.868 105.485C131.035 105.821 132.82 106.501 133.8 106.978L133.491 107.729C132.484 107.19 130.831 106.563 129.868 106.262V105.485ZM137.043 103.47C137.299 103.497 137.556 103.514 137.847 103.514C138.36 103.514 140.931 103.514 141.426 103.514C141.673 103.514 141.991 103.497 142.247 103.47V104.204C141.982 104.186 141.673 104.168 141.426 104.168C140.931 104.168 138.36 104.168 137.856 104.168C137.564 104.168 137.273 104.186 137.043 104.204V103.47ZM135.992 105.688C136.23 105.715 136.486 105.723 136.76 105.723C137.273 105.723 142.071 105.723 142.539 105.723C142.725 105.723 143.016 105.715 143.237 105.688V106.413C143.034 106.404 142.76 106.395 142.539 106.395C142.071 106.395 137.273 106.395 136.76 106.395C136.495 106.395 136.23 106.404 135.992 106.421V105.688ZM140.153 106.042C140.153 107.155 140.012 108.074 139.614 108.816C139.296 109.408 138.625 110.035 137.883 110.424L137.229 109.947C137.909 109.655 138.545 109.152 138.89 108.586C139.332 107.888 139.402 107.022 139.411 106.05L140.153 106.042ZM147.443 103.753C147.399 103.532 147.346 103.338 147.284 103.152L148.07 103.02C148.088 103.179 148.123 103.435 148.159 103.629C148.212 104.018 149.184 108.869 149.307 109.452C149.369 109.7 149.44 110 149.528 110.256L148.715 110.406C148.671 110.106 148.645 109.832 148.583 109.576C148.494 109.019 147.549 104.212 147.443 103.753ZM144.951 105.034C145.172 105.017 145.411 104.999 145.693 104.972C146.489 104.884 149.537 104.398 150.377 104.23C150.633 104.186 150.862 104.133 151.013 104.089L151.154 104.831C151.022 104.84 150.756 104.884 150.518 104.919C149.608 105.061 146.595 105.538 145.817 105.67C145.579 105.715 145.367 105.759 145.11 105.821L144.951 105.034ZM144.925 107.579C145.137 107.57 145.473 107.535 145.702 107.499C146.648 107.376 149.935 106.837 150.995 106.642C151.331 106.581 151.587 106.519 151.773 106.466L151.923 107.208C151.737 107.226 151.454 107.279 151.128 107.332C149.952 107.508 146.763 108.03 145.87 108.189C145.526 108.25 145.278 108.304 145.084 108.357L144.925 107.579ZM159.616 104.098C159.563 104.168 159.449 104.363 159.404 104.478C159.051 105.352 158.379 106.589 157.646 107.402C156.656 108.507 155.393 109.558 153.997 110.194L153.431 109.602C154.863 109.055 156.162 107.994 157.072 106.987C157.673 106.307 158.318 105.255 158.547 104.522C158.229 104.522 155.402 104.522 155.101 104.522C154.783 104.522 154.306 104.557 154.209 104.566V103.771C154.324 103.788 154.827 103.824 155.101 103.824C155.446 103.824 158.176 103.824 158.512 103.824C158.795 103.824 159.033 103.797 159.175 103.753L159.616 104.098ZM157.761 106.943C158.715 107.738 159.89 108.975 160.491 109.708L159.882 110.247C159.245 109.408 158.212 108.277 157.257 107.438L157.761 106.943ZM164.361 109.222C164.361 108.728 164.361 104.822 164.361 104.089C164.361 103.833 164.344 103.444 164.299 103.161H165.165C165.13 103.435 165.104 103.815 165.104 104.089C165.104 105.458 165.112 108.807 165.112 109.222C165.112 109.505 165.13 109.982 165.165 110.274H164.308C164.352 109.991 164.361 109.549 164.361 109.222ZM164.944 105.485C166.111 105.821 167.896 106.501 168.876 106.978L168.567 107.729C167.56 107.19 165.908 106.563 164.944 106.262V105.485ZM172.119 103.47C172.375 103.497 172.632 103.514 172.923 103.514C173.436 103.514 176.007 103.514 176.502 103.514C176.749 103.514 177.067 103.497 177.324 103.47V104.204C177.059 104.186 176.749 104.168 176.502 104.168C176.007 104.168 173.436 104.168 172.932 104.168C172.641 104.168 172.349 104.186 172.119 104.204V103.47ZM171.068 105.688C171.306 105.715 171.563 105.723 171.836 105.723C172.349 105.723 177.147 105.723 177.615 105.723C177.801 105.723 178.092 105.715 178.313 105.688V106.413C178.11 106.404 177.836 106.395 177.615 106.395C177.147 106.395 172.349 106.395 171.836 106.395C171.571 106.395 171.306 106.404 171.068 106.421V105.688ZM175.229 106.042C175.229 107.155 175.088 108.074 174.69 108.816C174.372 109.408 173.701 110.035 172.959 110.424L172.305 109.947C172.985 109.655 173.621 109.152 173.966 108.586C174.408 107.888 174.478 107.022 174.487 106.05L175.229 106.042ZM182.519 103.753C182.475 103.532 182.422 103.338 182.36 103.152L183.146 103.02C183.164 103.179 183.199 103.435 183.235 103.629C183.288 104.018 184.26 108.869 184.383 109.452C184.445 109.7 184.516 110 184.604 110.256L183.791 110.406C183.747 110.106 183.721 109.832 183.659 109.576C183.571 109.019 182.625 104.212 182.519 103.753ZM180.027 105.034C180.248 105.017 180.487 104.999 180.77 104.972C181.565 104.884 184.613 104.398 185.453 104.23C185.709 104.186 185.939 104.133 186.089 104.089L186.23 104.831C186.098 104.84 185.833 104.884 185.594 104.919C184.684 105.061 181.671 105.538 180.893 105.67C180.655 105.715 180.443 105.759 180.186 105.821L180.027 105.034ZM180.001 107.579C180.213 107.57 180.549 107.535 180.778 107.499C181.724 107.376 185.011 106.837 186.071 106.642C186.407 106.581 186.663 106.519 186.849 106.466L186.999 107.208C186.813 107.226 186.531 107.279 186.204 107.332C185.028 107.508 181.839 108.03 180.946 108.189C180.602 108.25 180.354 108.304 180.16 108.357L180.001 107.579ZM194.693 104.098C194.64 104.168 194.525 104.363 194.481 104.478C194.127 105.352 193.456 106.589 192.722 107.402C191.733 108.507 190.469 109.558 189.073 110.194L188.507 109.602C189.939 109.055 191.238 107.994 192.148 106.987C192.749 106.307 193.394 105.255 193.623 104.522C193.305 104.522 190.478 104.522 190.177 104.522C189.859 104.522 189.382 104.557 189.285 104.566V103.771C189.4 103.788 189.904 103.824 190.177 103.824C190.522 103.824 193.252 103.824 193.588 103.824C193.871 103.824 194.109 103.797 194.251 103.753L194.693 104.098ZM192.837 106.943C193.791 107.738 194.966 108.975 195.567 109.708L194.958 110.247C194.321 109.408 193.288 108.277 192.333 107.438L192.837 106.943ZM199.437 109.222C199.437 108.728 199.437 104.822 199.437 104.089C199.437 103.833 199.42 103.444 199.376 103.161H200.241C200.206 103.435 200.18 103.815 200.18 104.089C200.18 105.458 200.188 108.807 200.188 109.222C200.188 109.505 200.206 109.982 200.241 110.274H199.384C199.429 109.991 199.437 109.549 199.437 109.222ZM200.021 105.485C201.187 105.821 202.972 106.501 203.953 106.978L203.643 107.729C202.636 107.19 200.984 106.563 200.021 106.262V105.485ZM207.195 103.47C207.452 103.497 207.708 103.514 207.999 103.514C208.512 103.514 211.083 103.514 211.578 103.514C211.825 103.514 212.143 103.497 212.4 103.47V104.204C212.135 104.186 211.825 104.168 211.578 104.168C211.083 104.168 208.512 104.168 208.008 104.168C207.717 104.168 207.425 104.186 207.195 104.204V103.47ZM206.144 105.688C206.382 105.715 206.639 105.723 206.913 105.723C207.425 105.723 212.223 105.723 212.691 105.723C212.877 105.723 213.168 105.715 213.389 105.688V106.413C213.186 106.404 212.912 106.395 212.691 106.395C212.223 106.395 207.425 106.395 206.913 106.395C206.648 106.395 206.382 106.404 206.144 106.421V105.688ZM210.306 106.042C210.306 107.155 210.164 108.074 209.767 108.816C209.449 109.408 208.777 110.035 208.035 110.424L207.381 109.947C208.061 109.655 208.697 109.152 209.042 108.586C209.484 107.888 209.555 107.022 209.563 106.05L210.306 106.042ZM217.595 103.753C217.551 103.532 217.498 103.338 217.436 103.152L218.223 103.02C218.24 103.179 218.276 103.435 218.311 103.629C218.364 104.018 219.336 108.869 219.46 109.452C219.521 109.7 219.592 110 219.68 110.256L218.868 110.406C218.823 110.106 218.797 109.832 218.735 109.576C218.647 109.019 217.701 104.212 217.595 103.753ZM215.103 105.034C215.324 105.017 215.563 104.999 215.846 104.972C216.641 104.884 219.689 104.398 220.529 104.23C220.785 104.186 221.015 104.133 221.165 104.089L221.306 104.831C221.174 104.84 220.909 104.884 220.67 104.919C219.76 105.061 216.747 105.538 215.969 105.67C215.731 105.715 215.519 105.759 215.263 105.821L215.103 105.034ZM215.077 107.579C215.289 107.57 215.625 107.535 215.855 107.499C216.8 107.376 220.087 106.837 221.147 106.642C221.483 106.581 221.739 106.519 221.925 106.466L222.075 107.208C221.889 107.226 221.607 107.279 221.28 107.332C220.105 107.508 216.915 108.03 216.022 108.189C215.678 108.25 215.43 108.304 215.236 108.357L215.077 107.579Z" fill="black"/>
<rect x="70.5879" y="38.3301" width="144.909" height="14.7582" rx="3.97616" fill="#00ABB6"/>
<path d="M180.336 44.6591C180.458 44.834 180.633 45.1305 180.73 45.3249L180.468 45.4464C180.37 45.2471 180.205 44.9555 180.074 44.7709L180.336 44.6591ZM180.866 44.4647C180.997 44.6445 181.182 44.9458 181.274 45.1256L181.012 45.2422C180.905 45.0333 180.749 44.7563 180.613 44.5765L180.866 44.4647ZM180.657 45.6262C180.618 45.6991 180.57 45.8108 180.545 45.8886C180.414 46.3746 180.113 47.0355 179.685 47.5603C179.243 48.0998 178.66 48.5469 177.746 48.8822L177.396 48.5663C178.29 48.3039 178.893 47.8617 179.335 47.3465C179.714 46.8994 180.011 46.2725 180.113 45.8303H178.31L178.465 45.4804C178.665 45.4804 179.865 45.4804 180.016 45.4804C180.147 45.4804 180.254 45.4658 180.336 45.4318L180.657 45.6262ZM179.029 44.8923C178.951 45.0187 178.864 45.1839 178.815 45.2763C178.529 45.8108 178.018 46.5058 177.241 47.0258L176.901 46.7731C177.741 46.2725 178.218 45.5678 178.431 45.1305C178.48 45.0479 178.553 44.868 178.582 44.7466L179.029 44.8923ZM182.601 44.9312C182.727 44.9458 182.878 44.9555 183.034 44.9555C183.296 44.9555 184.662 44.9555 184.948 44.9555C185.099 44.9555 185.269 44.9458 185.386 44.9312V45.3346C185.274 45.3249 185.104 45.32 184.939 45.32C184.666 45.32 183.301 45.32 183.034 45.32C182.888 45.32 182.732 45.3249 182.601 45.3346V44.9312ZM185.745 46.2093C185.721 46.2579 185.687 46.3163 185.677 46.3551C185.551 46.8314 185.332 47.3368 184.968 47.7353C184.462 48.2942 183.85 48.576 183.233 48.751L182.931 48.4059C183.617 48.265 184.224 47.9491 184.642 47.5117C184.934 47.2056 185.128 46.7925 185.216 46.4377C184.977 46.4377 182.931 46.4377 182.64 46.4377C182.523 46.4377 182.339 46.4426 182.164 46.4572V46.049C182.339 46.0635 182.504 46.0781 182.64 46.0781C182.878 46.0781 184.948 46.0781 185.196 46.0781C185.308 46.0781 185.415 46.0635 185.468 46.0392L185.745 46.2093ZM190.522 45.32C190.488 45.388 190.469 45.4658 190.449 45.563C190.343 46.0733 190.109 46.8557 189.721 47.3562C189.278 47.9248 188.7 48.3768 187.811 48.6538L187.48 48.2893C188.423 48.056 188.967 47.643 189.375 47.123C189.721 46.6807 189.944 46.0052 190.012 45.5387C189.73 45.5387 187.806 45.5387 187.524 45.5387C187.33 45.5387 187.164 45.5484 187.043 45.5533V45.1208C187.174 45.1402 187.368 45.1548 187.529 45.1548C187.806 45.1548 189.745 45.1548 189.964 45.1548C190.036 45.1548 190.134 45.1499 190.226 45.1305L190.522 45.32Z" fill="white"/>
<path d="M100.601 44.3728H103.785V48.4404H103.401V44.7421H100.976V48.4598H100.601V44.3728ZM100.849 46.0591H103.561V46.4187H100.849V46.0591ZM100.844 47.7795H103.571V48.144H100.844V47.7795ZM107.162 45.9036H108.839V46.2486H107.162V45.9036ZM107.002 45.9036H107.366V47.8864C107.366 48.0759 107.42 48.1148 107.687 48.1148C107.813 48.1148 108.445 48.1148 108.61 48.1148C108.873 48.1148 108.912 47.9884 108.941 47.3129C109.028 47.3761 109.184 47.4393 109.286 47.4636C109.232 48.246 109.121 48.4647 108.635 48.4647C108.513 48.4647 107.77 48.4647 107.658 48.4647C107.152 48.4647 107.002 48.3481 107.002 47.8815V45.9036ZM106.948 44.3193H109.028V46.5208H108.659V44.6644H106.948V44.3193ZM105.019 45.5148H106.535V45.8064H105.019V45.5148ZM105.048 44.2173H106.555V44.5089H105.048V44.2173ZM105.019 46.166H106.535V46.4576H105.019V46.166ZM104.791 44.8539H106.725V45.1552H104.791V44.8539ZM105.189 46.8221H106.521V48.2411H105.189V47.935H106.195V47.1234H105.189V46.8221ZM105.014 46.8221H105.34V48.4647H105.014V46.8221ZM111.609 44.9754H114.073V45.3107H111.609V44.9754ZM111.701 45.9473H113.971V46.2778H111.701V45.9473ZM111.458 46.9679H114.141V47.3081H111.458V46.9679ZM112.634 45.092H112.989V48.5133H112.634V45.092ZM113.504 44.0375L113.859 44.1541C113.713 44.4505 113.548 44.7907 113.407 45.0094L113.125 44.9074C113.251 44.6741 113.417 44.295 113.504 44.0375ZM111.818 44.1784L112.114 44.0715C112.279 44.329 112.44 44.6741 112.498 44.8976L112.182 45.024C112.129 44.7956 111.973 44.4408 111.818 44.1784ZM109.879 45.5148H111.327V45.8064H109.879V45.5148ZM109.903 44.2173H111.317V44.5089H109.903V44.2173ZM109.879 46.166H111.327V46.4576H109.879V46.166ZM109.65 44.8539H111.497V45.1552H109.65V44.8539ZM110.054 46.8221H111.327V48.2411H110.054V47.935H111.006V47.1234H110.054V46.8221ZM109.874 46.8221H110.19V48.4647H109.874V46.8221ZM117.504 44.5818H117.829V48.0565H117.504V44.5818ZM116.541 44.4311H118.84V48.4161H118.5V44.7713H116.872V48.455H116.541V44.4311ZM116.721 46.1174H118.651V46.4528H116.721V46.1174ZM116.721 47.8524H118.636V48.1877H116.721V47.8524ZM115.331 46.3313H115.657V48.5084H115.331V46.3313ZM115.283 44.0423L115.608 44.1735C115.424 44.5332 115.186 44.9657 114.996 45.2378L114.738 45.1212C114.928 44.8393 115.156 44.3679 115.283 44.0423ZM115.88 44.6012L116.191 44.7518C115.851 45.2913 115.37 45.9814 114.996 46.3993L114.768 46.2681C115.142 45.8404 115.613 45.1163 115.88 44.6012ZM114.505 45.0823L114.69 44.8393C114.952 45.058 115.254 45.369 115.385 45.578L115.19 45.8599C115.064 45.6363 114.763 45.3059 114.505 45.0823ZM115.744 45.7141L116.021 45.5926C116.235 45.9085 116.449 46.3264 116.532 46.5986L116.24 46.7395C116.162 46.4673 115.953 46.0348 115.744 45.7141ZM114.471 46.1903C114.913 46.166 115.569 46.1223 116.221 46.0737L116.225 46.3701C115.618 46.4236 114.996 46.4819 114.525 46.5257L114.471 46.1903ZM115.832 46.8901L116.114 46.8027C116.255 47.0991 116.391 47.4879 116.449 47.7455L116.143 47.8475C116.099 47.5899 115.968 47.1914 115.832 46.8901ZM114.772 46.8172L115.088 46.8756C115.025 47.3324 114.909 47.8038 114.758 48.1148C114.695 48.0759 114.549 48.0079 114.466 47.9787C114.627 47.6823 114.719 47.2449 114.772 46.8172Z" fill="#00ABB6"/>
<g filter="url(#filter2_d_1747_11041)">
<rect x="71.8267" y="39.0068" width="76.4306" height="12.6499" rx="3.97616" fill="white"/>
</g>
<path d="M100.515 44.2068H103.699V48.2744H103.315V44.5761H100.89V48.2938H100.515V44.2068ZM100.763 45.8931H103.475V46.2527H100.763V45.8931ZM100.758 47.6135H103.485V47.9779H100.758V47.6135ZM107.076 45.7376H108.753V46.0826H107.076V45.7376ZM106.916 45.7376H107.28V47.7204C107.28 47.9099 107.334 47.9488 107.601 47.9488C107.727 47.9488 108.359 47.9488 108.524 47.9488C108.787 47.9488 108.826 47.8224 108.855 47.1469C108.942 47.2101 109.098 47.2733 109.2 47.2976C109.146 48.08 109.035 48.2987 108.549 48.2987C108.427 48.2987 107.684 48.2987 107.572 48.2987C107.066 48.2987 106.916 48.182 106.916 47.7155V45.7376ZM106.862 44.1533H108.942V46.3548H108.573V44.4984H106.862V44.1533ZM104.933 45.3488H106.449V45.6404H104.933V45.3488ZM104.962 44.0513H106.469V44.3428H104.962V44.0513ZM104.933 46H106.449V46.2916H104.933V46ZM104.705 44.6879H106.639V44.9892H104.705V44.6879ZM105.103 46.6561H106.435V48.0751H105.103V47.769H106.109V46.9574H105.103V46.6561ZM104.928 46.6561H105.254V48.2987H104.928V46.6561ZM111.523 44.8094H113.987V45.1447H111.523V44.8094ZM111.615 45.7813H113.885V46.1118H111.615V45.7813ZM111.372 46.8019H114.055V47.1421H111.372V46.8019ZM112.548 44.926H112.903V48.3473H112.548V44.926ZM113.418 43.8714L113.773 43.9881C113.627 44.2845 113.462 44.6247 113.321 44.8434L113.039 44.7413C113.165 44.5081 113.331 44.129 113.418 43.8714ZM111.732 44.0124L112.028 43.9055C112.193 44.163 112.354 44.5081 112.412 44.7316L112.096 44.858C112.043 44.6296 111.887 44.2748 111.732 44.0124ZM109.793 45.3488H111.241V45.6404H109.793V45.3488ZM109.817 44.0513H111.231V44.3428H109.817V44.0513ZM109.793 46H111.241V46.2916H109.793V46ZM109.564 44.6879H111.411V44.9892H109.564V44.6879ZM109.968 46.6561H111.241V48.0751H109.968V47.769H110.92V46.9574H109.968V46.6561ZM109.788 46.6561H110.104V48.2987H109.788V46.6561ZM117.418 44.4157H117.743V47.8905H117.418V44.4157ZM116.455 44.2651H118.754V48.2501H118.414V44.6053H116.786V48.289H116.455V44.2651ZM116.635 45.9514H118.565V46.2867H116.635V45.9514ZM116.635 47.6864H118.55V48.0217H116.635V47.6864ZM115.245 46.1652H115.571V48.3424H115.245V46.1652ZM115.197 43.8763L115.522 44.0075C115.338 44.3671 115.1 44.7997 114.91 45.0718L114.652 44.9552C114.842 44.6733 115.07 44.2019 115.197 43.8763ZM115.795 44.4352L116.106 44.5858C115.765 45.1253 115.284 45.8153 114.91 46.2333L114.682 46.1021C115.056 45.6744 115.527 44.9503 115.795 44.4352ZM114.419 44.9163L114.604 44.6733C114.866 44.892 115.168 45.203 115.299 45.412L115.104 45.6939C114.978 45.4703 114.677 45.1398 114.419 44.9163ZM115.658 45.5481L115.935 45.4266C116.149 45.7425 116.363 46.1604 116.446 46.4325L116.154 46.5735C116.076 46.3013 115.867 45.8688 115.658 45.5481ZM114.385 46.0243C114.827 46 115.483 45.9563 116.135 45.9077L116.14 46.2041C115.532 46.2576 114.91 46.3159 114.439 46.3596L114.385 46.0243ZM115.746 46.7241L116.028 46.6366C116.169 46.9331 116.305 47.3219 116.363 47.5794L116.057 47.6815C116.013 47.4239 115.882 47.0254 115.746 46.7241ZM114.686 46.6512L115.002 46.7095C114.939 47.1664 114.823 47.6378 114.672 47.9488C114.609 47.9099 114.463 47.8419 114.38 47.8127C114.541 47.5163 114.633 47.0789 114.686 46.6512Z" fill="#00ABB6"/>
<g filter="url(#filter3_d_1747_11041)">
<ellipse cx="209" cy="272.353" rx="38" ry="34.1095" fill="#04CAD6"/>
<path d="M180.493 279L183.574 269.38H185.836L188.917 279H186.902L185.524 273.995C185.238 272.994 184.965 271.876 184.692 270.849H184.64C184.38 271.889 184.107 272.994 183.821 273.995L182.443 279H180.493ZM182.404 276.53V275.048H186.98V276.53H182.404ZM190.576 279V269.38H192.5V279H190.576ZM205.17 268.392C205.118 268.691 205.079 269.185 205.079 269.588C205.079 269.978 205.079 270.641 205.079 271.031H203.376C203.376 270.641 203.376 270.043 203.376 269.588C203.376 269.172 203.363 268.704 203.311 268.392H205.17ZM208.797 271.174C208.472 271.512 208.069 271.941 207.796 272.253C207.068 273.085 205.976 274.164 204.793 274.996C203.389 275.997 201.4 276.855 199.385 277.466L198.384 275.932C200.893 275.373 202.557 274.476 203.675 273.748C204.676 273.111 205.482 272.344 205.872 271.811C205.17 271.811 201.712 271.811 201.166 271.811C200.698 271.811 199.879 271.837 199.463 271.876V270.173C199.957 270.238 200.685 270.251 201.127 270.251C201.712 270.251 205.872 270.251 206.639 270.251C207.042 270.251 207.419 270.212 207.718 270.134L208.797 271.174ZM205.053 274.008C205.053 274.944 205.053 277.037 205.053 278.09C205.053 278.597 205.092 279.338 205.131 279.741H203.272C203.311 279.377 203.363 278.597 203.363 278.09C203.363 277.089 203.363 275.49 203.363 274.71L205.053 274.008ZM208.992 277.583C207.861 276.699 207.003 276.153 205.885 275.516L206.951 274.281C208.147 274.918 208.823 275.308 210.071 276.153L208.992 277.583ZM212.963 269.77C213.457 269.822 214.12 269.861 214.575 269.861H221.127C221.504 269.861 222.037 269.835 222.258 269.822C222.245 270.134 222.219 270.641 222.219 271.031V277.765C222.219 278.22 222.258 278.896 222.284 279.299H220.399C220.412 278.909 220.425 278.441 220.425 277.96V271.538H214.575C214.029 271.538 213.327 271.564 212.963 271.59V269.77ZM212.807 276.829C213.249 276.868 213.834 276.907 214.419 276.907H221.452V278.623H214.471C213.964 278.623 213.236 278.649 212.807 278.701V276.829ZM226.483 269.77C226.977 269.822 227.64 269.861 228.095 269.861H234.647C235.024 269.861 235.557 269.835 235.778 269.822C235.765 270.134 235.739 270.641 235.739 271.031V277.765C235.739 278.22 235.778 278.896 235.804 279.299H233.919C233.932 278.909 233.945 278.441 233.945 277.96V271.538H228.095C227.549 271.538 226.847 271.564 226.483 271.59V269.77ZM226.327 276.829C226.769 276.868 227.354 276.907 227.939 276.907H234.972V278.623H227.991C227.484 278.623 226.756 278.649 226.327 278.701V276.829Z" fill="white"/>
</g>
<g filter="url(#filter4_d_1747_11041)">
<path d="M83.4244 259.835C90.6679 247.191 93.6456 239.096 98.7796 236.846C103.914 234.597 108.118 254.146 108.118 254.146L119.551 253.798C119.551 253.798 136.38 232.922 140.311 234.309C144.242 235.697 143.019 257.279 143.019 257.279C152.215 268.482 155.056 274.94 155.655 286.86C155.655 286.86 170.233 295.002 165.849 299.185C161.935 302.921 158.323 296.312 157.72 301.484C157.118 306.657 156.817 306.369 156.032 308.398C155.011 309.53 156.215 309.801 161.935 307.231C167.656 304.662 169.161 303.913 171.269 303.913C173.376 303.913 179.398 308.221 165.849 312.404C152.301 316.587 154.528 313.535 154.177 314.183C154.177 317.002 146.28 325.335 144.172 325.91C144.172 325.91 140.559 341.139 134.237 341.139C127.914 341.139 124.602 330.22 124.602 330.22C118.581 330.507 120.688 331.369 113.161 329.645C113.161 329.645 115.22 341.139 109.317 341.139C102.924 341.139 90.6679 323.054 90.6679 323.054C86.6667 321.599 78.2366 308.398 77.1289 303.913C77.1289 303.913 67.0702 315.123 68.0699 306.386C69.0157 298.12 77.1289 292.306 77.1289 286.846C77.1289 281.386 76.1808 272.478 83.4244 259.835Z" fill="#FFBBDC"/>
<path d="M115.693 284.257C115.741 284.25 115.798 284.242 115.852 284.234C115.892 284.229 115.93 284.223 115.961 284.219C116.262 284.174 117.212 283.938 117.85 282.636C117.963 282.406 117.923 282.177 117.784 281.994C117.641 281.805 117.393 281.67 117.105 281.67H113.41C113.126 281.67 112.878 281.803 112.735 281.99C112.596 282.17 112.556 282.396 112.665 282.623C113.11 283.55 113.75 283.967 114.329 284.152C114.919 284.341 115.461 284.293 115.693 284.257Z" fill="white" stroke="black" stroke-width="0.602151"/>
<path d="M102.668 276.238C101.571 277.201 103.541 278.734 106.27 278.782C108.999 278.83 111.399 277.675 110.496 276.238C109.592 274.801 109.313 277.037 106.584 276.988C103.856 276.94 103.764 275.275 102.668 276.238Z" fill="black"/>
<path d="M120.13 276.238C119.034 277.201 121.004 278.734 123.733 278.782C126.462 278.83 128.861 277.675 127.958 276.238C127.055 274.801 126.776 277.037 124.047 276.988C121.318 276.94 121.227 275.275 120.13 276.238Z" fill="black"/>
</g>
<g filter="url(#filter5_d_1747_11041)">
<path d="M261 138.481H15C9.47715 138.481 5 142.958 5 148.481V204.603C5 210.126 9.47716 214.603 15 214.603H113.897C116.015 214.603 118.077 215.275 119.788 216.522L128.541 222.902C132.082 225.484 136.891 225.459 140.405 222.841L148.808 216.583C150.534 215.297 152.629 214.603 154.781 214.603H261C266.523 214.603 271 210.126 271 204.603V148.481C271 142.958 266.523 138.481 261 138.481Z" fill="white" stroke="#FFBBDC" stroke-width="2"/>
</g>
<path d="M31.8649 172L35.8329 160.272H37.4969L41.4649 172H39.9129L37.8489 165.44C37.4329 164.128 37.0649 162.848 36.6809 161.488H36.6169C36.2329 162.848 35.8649 164.128 35.4329 165.44L33.3689 172H31.8649ZM33.9449 168.416V167.248H39.3529V168.416H33.9449ZM43.7912 172V160.272H45.2792V172H43.7912ZM60.5689 159.2C60.5049 159.536 60.4729 160.16 60.4729 160.592C60.4729 161.024 60.4729 161.856 60.4729 162.176H59.1929C59.1929 161.856 59.1929 161.056 59.1929 160.592C59.1929 160.144 59.1769 159.552 59.1129 159.2H60.5689ZM64.9689 162.336C64.6809 162.624 64.3289 162.992 64.0729 163.296C63.2409 164.272 61.8649 165.648 60.3449 166.688C58.6009 167.904 56.5049 168.832 53.7689 169.664L52.9849 168.48C56.0249 167.744 58.0249 166.704 59.4649 165.76C60.9049 164.832 62.1689 163.584 62.7289 162.832C61.9769 162.832 56.7929 162.832 56.0729 162.832C55.5289 162.832 54.6009 162.848 54.1209 162.896V161.536C54.6329 161.6 55.5129 161.632 56.0569 161.632C56.7929 161.632 62.1529 161.632 63.1129 161.632C63.4969 161.632 63.8649 161.6 64.1209 161.52L64.9689 162.336ZM60.4409 166.032C60.4409 167.264 60.4409 169.68 60.4409 170.912C60.4409 171.472 60.4729 172.192 60.5209 172.688H59.0649C59.1129 172.208 59.1609 171.472 59.1609 170.912C59.1609 169.712 59.1609 167.6 59.1609 166.576L60.4409 166.032ZM65.7049 169.856C64.3129 168.832 63.3529 168.192 61.8649 167.392L62.6969 166.464C64.2009 167.264 65.0649 167.776 66.5529 168.768L65.7049 169.856ZM70.8004 161.04C71.3444 161.088 72.0324 161.136 72.5604 161.136H80.4324C80.8324 161.136 81.2964 161.12 81.6164 161.104C81.6004 161.456 81.5844 161.968 81.5844 162.336V170.608C81.5844 171.184 81.6324 171.904 81.6484 172.144H80.2084C80.2084 171.904 80.2404 171.312 80.2404 170.736V162.4H72.5604C71.9684 162.4 71.1844 162.432 70.8004 162.464V161.04ZM70.6084 169.872C71.0084 169.904 71.7124 169.952 72.3684 169.952H80.9604V171.264H72.4164C71.7604 171.264 71.0404 171.28 70.6084 171.328V169.872ZM87.4404 161.04C87.9844 161.088 88.6724 161.136 89.2004 161.136H97.0724C97.4724 161.136 97.9364 161.12 98.2564 161.104C98.2404 161.456 98.2244 161.968 98.2244 162.336V170.608C98.2244 171.184 98.2724 171.904 98.2884 172.144H96.8484C96.8484 171.904 96.8804 171.312 96.8804 170.736V162.4H89.2004C88.6084 162.4 87.8244 162.432 87.4404 162.464V161.04ZM87.2484 169.872C87.6484 169.904 88.3524 169.952 89.0084 169.952H97.6004V171.264H89.0564C88.4004 171.264 87.6804 171.28 87.2484 171.328V169.872ZM108.128 159.584C108.064 159.872 108 160.224 107.936 160.528C107.824 161.104 107.616 162.416 107.392 163.408C106.848 165.664 105.712 169.648 103.904 172.56L102.592 172.048C104.416 169.6 105.696 165.328 106.128 163.376C106.432 162.096 106.64 160.656 106.64 159.424L108.128 159.584ZM113.632 161.424C114.624 162.72 116.016 165.632 116.56 167.104L115.312 167.696C114.848 166.064 113.584 163.28 112.464 161.952L113.632 161.424ZM102.368 163.088C102.864 163.12 103.28 163.104 103.792 163.088C104.992 163.056 108.24 162.704 109.328 162.704C110.752 162.704 111.92 163.248 111.92 165.408C111.92 167.312 111.664 169.856 110.992 171.184C110.496 172.256 109.696 172.528 108.656 172.528C108.048 172.528 107.28 172.416 106.784 172.288L106.56 170.96C107.232 171.168 108.08 171.28 108.528 171.28C109.12 171.28 109.6 171.152 109.92 170.464C110.432 169.376 110.688 167.296 110.688 165.568C110.688 164.096 110.016 163.824 108.992 163.824C107.92 163.824 104.912 164.192 103.936 164.288C103.568 164.336 102.912 164.416 102.496 164.48L102.368 163.088ZM113.808 159.104C114.208 159.68 114.784 160.656 115.12 161.312L114.256 161.696C113.936 161.04 113.392 160.08 112.944 159.472L113.808 159.104ZM115.568 158.464C116 159.056 116.608 160.064 116.928 160.656L116.048 161.04C115.712 160.336 115.184 159.424 114.72 158.832L115.568 158.464ZM120.976 164.624H130.128V165.792H120.976V164.624ZM129.728 164.624H130.976C130.976 164.624 130.96 165.04 130.944 165.2C130.72 170.16 130.496 172.016 129.92 172.624C129.6 173.024 129.248 173.136 128.688 173.184C128.16 173.232 127.152 173.216 126.144 173.168C126.128 172.8 125.968 172.304 125.744 171.952C126.8 172.048 127.792 172.064 128.176 172.064C128.496 172.064 128.688 172.032 128.848 171.856C129.28 171.424 129.52 169.6 129.728 164.848V164.624ZM123.168 158.896L124.432 159.264C123.28 161.968 121.392 164.352 119.376 165.888C119.152 165.632 118.64 165.168 118.336 164.944C120.384 163.568 122.16 161.36 123.168 158.896ZM128.752 158.864C129.792 161.008 131.856 163.44 133.6 164.672C133.28 164.928 132.832 165.408 132.592 165.744C130.816 164.304 128.8 161.712 127.6 159.328L128.752 158.864ZM124.352 164.944H125.632C125.264 168.448 124.432 171.76 119.968 173.36C119.824 173.056 119.472 172.576 119.2 172.32C123.392 170.928 124.032 167.968 124.352 164.944ZM142.992 164.048H150.016V165.184H142.992V164.048ZM142.368 159.872L143.872 160.32C143.856 160.432 143.76 160.496 143.552 160.528V164.4C143.552 166.944 143.28 170.608 141.296 173.232C141.12 172.976 140.688 172.592 140.384 172.432C142.176 170.032 142.368 166.8 142.368 164.384V159.872ZM148.272 158.752L149.296 159.68C147.6 160.384 145.136 160.944 143.024 161.312C142.96 161.024 142.768 160.576 142.624 160.336C144.64 159.936 146.96 159.344 148.272 158.752ZM146.448 164.416H147.632V173.28H146.448V164.416ZM135.44 162H141.264V163.152H135.44V162ZM137.936 158.56H139.088V173.264H137.936V158.56ZM137.872 162.704L138.64 162.976C138.096 165.552 136.928 168.688 135.696 170.288C135.568 169.968 135.264 169.488 135.056 169.216C136.208 167.776 137.376 165.008 137.872 162.704ZM138.976 164.464C139.392 164.912 140.96 166.848 141.312 167.312L140.576 168.288C140.16 167.488 138.896 165.68 138.368 165.04L138.976 164.464ZM161.6 158.56H162.8V164.848H161.6V158.56ZM159.52 171.376H165.232V172.48H159.52V171.376ZM157.888 160.832H166.624V161.936H157.888V160.832ZM158.4 164.336H166.272V165.44H158.4V164.336ZM158.912 167.184H165.824V173.232H164.656V168.272H160.032V173.264H158.912V167.184ZM154.384 158.576L155.456 158.976C154.848 160.16 154.08 161.584 153.456 162.448L152.624 162.096C153.232 161.168 153.968 159.632 154.384 158.576ZM156.32 160.4L157.36 160.848C156.24 162.64 154.672 164.944 153.456 166.32L152.688 165.92C153.92 164.496 155.44 162.096 156.32 160.4ZM151.856 161.936L152.464 161.136C153.36 161.888 154.368 162.944 154.8 163.648L154.16 164.56C153.728 163.808 152.72 162.704 151.856 161.936ZM155.808 164.112L156.704 163.728C157.376 164.752 158.064 166.128 158.304 167.008L157.344 167.456C157.104 166.56 156.464 165.168 155.808 164.112ZM151.824 165.728C153.264 165.68 155.344 165.6 157.424 165.504L157.408 166.48C155.424 166.608 153.408 166.736 151.92 166.8L151.824 165.728ZM156.208 167.936L157.12 167.648C157.584 168.624 158.032 169.888 158.208 170.72L157.232 171.056C157.088 170.224 156.656 168.928 156.208 167.936ZM152.704 167.712L153.744 167.904C153.52 169.408 153.12 170.96 152.608 171.984C152.4 171.856 151.92 171.632 151.664 171.52C152.192 170.544 152.512 169.12 152.704 167.712ZM154.544 166.192H155.632V173.328H154.544V166.192ZM168.88 167.056H182.928V168.176H168.88V167.056ZM175.264 159.728H176.528V173.28H175.264V159.728ZM174.832 167.536L175.84 167.968C174.352 170.016 171.696 171.84 169.296 172.752C169.12 172.464 168.736 172.016 168.48 171.776C170.848 170.992 173.488 169.296 174.832 167.536ZM176.896 167.488C178.288 169.2 181.008 170.896 183.344 171.68C183.072 171.92 182.704 172.384 182.512 172.688C180.192 171.76 177.472 169.888 175.936 167.92L176.896 167.488ZM171.664 162.992V164.672H180.176V162.992H171.664ZM171.664 160.368V162.016H180.176V160.368H171.664ZM170.432 159.344H181.456V165.696H170.432V159.344ZM191.824 161.2C193.568 161.504 196.816 161.44 198.4 161.2V162.496C196.688 162.688 193.584 162.688 191.84 162.496L191.824 161.2ZM192.448 167.728C192.304 168.304 192.224 168.752 192.224 169.184C192.224 169.92 192.736 170.64 194.928 170.64C196.352 170.64 197.6 170.512 198.88 170.208L198.912 171.552C197.92 171.76 196.576 171.888 194.912 171.888C192.24 171.888 191.04 170.992 191.04 169.488C191.04 168.96 191.12 168.384 191.296 167.616L192.448 167.728ZM188.784 159.968C188.688 160.24 188.56 160.752 188.496 161.04C188.192 162.528 187.696 165.376 187.696 167.184C187.696 167.952 187.744 168.624 187.84 169.408C188.112 168.688 188.48 167.728 188.752 167.072L189.424 167.6C189.024 168.736 188.432 170.416 188.288 171.184C188.24 171.408 188.208 171.712 188.208 171.904C188.224 172.064 188.24 172.288 188.256 172.464L187.12 172.544C186.8 171.408 186.528 169.568 186.528 167.392C186.528 165.04 187.056 162.304 187.248 160.976C187.296 160.608 187.344 160.208 187.36 159.856L188.784 159.968ZM209.84 159.44C209.776 159.792 209.728 160.56 209.712 161.04C209.712 161.76 209.712 162.864 209.712 163.968C209.712 165.712 209.968 168.912 209.968 170.32C209.968 171.616 209.168 172.736 207.04 172.736C204.816 172.736 203.2 172.048 203.2 170.224C203.2 168.768 204.448 167.6 207.216 167.6C210.384 167.6 213.232 169.2 214.864 170.688L214.096 171.888C212.496 170.288 209.872 168.72 207.072 168.72C205.408 168.72 204.464 169.28 204.464 170.176C204.464 171.056 205.36 171.552 206.912 171.552C208.08 171.552 208.656 170.992 208.656 169.888C208.656 168.704 208.464 165.6 208.464 163.968C208.464 163.04 208.448 161.728 208.448 161.04C208.432 160.448 208.384 159.744 208.32 159.44H209.84ZM209.008 162.672C210.112 162.672 212.72 162.592 214.448 162.384L214.496 163.584C212.768 163.744 210.16 163.856 209.008 163.856V162.672ZM219.9 165.616C220.364 165.536 220.892 165.392 221.388 165.232C222.524 164.88 225.164 163.92 227.036 163.92C229.308 163.92 230.956 165.28 230.956 167.456C230.956 170.544 227.98 172.112 223.676 172.368L223.148 171.136C226.62 171.04 229.66 170.048 229.66 167.44C229.66 166.08 228.588 165.072 226.94 165.072C224.972 165.072 221.468 166.528 220.444 166.944L219.9 165.616ZM234.527 161.376C235.135 161.36 235.647 161.328 235.967 161.296C237.007 161.184 240.015 160.896 242.975 160.64C244.719 160.496 246.207 160.4 247.279 160.368L247.295 161.648C246.367 161.632 244.975 161.664 244.159 161.888C241.871 162.624 240.479 165.072 240.479 166.96C240.479 170.08 243.407 171.072 245.999 171.184L245.551 172.496C242.575 172.384 239.215 170.816 239.215 167.232C239.215 164.736 240.735 162.704 242.207 161.84C240.479 162.016 236.415 162.416 234.671 162.784L234.527 161.376ZM65.732 182.424C65.7 182.792 65.668 183.336 65.652 183.72C65.444 190.248 63.684 193.24 60.532 195.432L59.364 194.488C59.876 194.216 60.516 193.768 60.996 193.32C62.996 191.512 64.308 188.808 64.34 183.752C64.34 183.384 64.308 182.792 64.244 182.424H65.732ZM71.3 185.752C71.252 186.024 71.22 186.312 71.204 186.52C71.156 188.072 70.948 192.712 70.228 194.248C69.908 194.936 69.396 195.224 68.516 195.224C67.716 195.224 66.788 195.176 65.956 195.112L65.796 193.784C66.66 193.896 67.492 193.976 68.18 193.976C68.628 193.976 68.932 193.832 69.108 193.448C69.716 192.216 69.924 188.28 69.924 186.568H61.492C60.852 186.568 60.212 186.584 59.636 186.632V185.288C60.196 185.336 60.852 185.368 61.476 185.368H69.38C69.812 185.368 70.116 185.336 70.388 185.288L71.3 185.752ZM82.9 182.2C82.836 182.696 82.82 183.064 82.82 183.4C82.82 183.768 82.82 184.968 82.82 185.528H81.46C81.46 184.904 81.46 183.768 81.46 183.4C81.46 183.064 81.444 182.696 81.38 182.2H82.9ZM88.356 185.304C88.276 185.528 88.18 185.96 88.132 186.264C87.908 187.544 87.444 189.544 86.548 191.064C85.364 193.16 83.156 194.792 80.228 195.592L79.188 194.408C79.716 194.312 80.324 194.152 80.836 193.96C82.452 193.432 84.196 192.248 85.188 190.728C86.052 189.368 86.548 187.432 86.692 186.072H77.764C77.764 186.728 77.764 188.44 77.764 188.936C77.764 189.208 77.78 189.64 77.812 189.88H76.42C76.468 189.608 76.484 189.176 76.484 188.856C76.484 188.344 76.484 186.6 76.484 186.04C76.484 185.704 76.484 185.16 76.42 184.824C76.884 184.856 77.364 184.888 77.924 184.888H86.404C86.996 184.888 87.284 184.824 87.492 184.76L88.356 185.304ZM94.532 183.288C95.652 184.04 97.716 185.704 98.596 186.584L97.604 187.608C96.788 186.776 94.804 185.048 93.604 184.264L94.532 183.288ZM93.156 194.008C95.94 193.592 98.02 192.616 99.54 191.672C102.02 190.12 103.956 187.752 104.884 185.768L105.652 187.144C104.564 189.128 102.708 191.304 100.292 192.824C98.676 193.832 96.66 194.824 93.988 195.32L93.156 194.008ZM112.42 192.952C112.42 191.48 112.42 185.816 112.42 184.12C112.42 183.64 112.404 183.112 112.324 182.648H113.828C113.764 183.112 113.716 183.656 113.716 184.12C113.716 185.8 113.716 191.032 113.716 192.616C113.716 193.72 114.132 194.072 116.036 194.072C117.892 194.072 119.444 193.912 121.028 193.592L120.98 194.968C119.556 195.176 117.956 195.304 115.956 195.304C112.98 195.304 112.42 194.52 112.42 192.952ZM121.716 185.8C121.588 185.976 121.428 186.248 121.316 186.44C120.58 187.768 119.332 189.784 118.036 191.096L116.932 190.44C118.132 189.336 119.3 187.576 119.78 186.632C119.284 186.728 110.66 188.456 108.74 188.872L108.484 187.528C110.532 187.288 118.708 185.64 119.924 185.352C120.26 185.272 120.58 185.176 120.772 185.064L121.716 185.8ZM136.58 182.872C136.548 183.256 136.532 183.72 136.532 184.264C136.532 184.888 136.532 186.248 136.532 186.84C136.532 190.696 136.02 191.96 134.852 193.32C133.828 194.568 132.228 195.272 131.06 195.672L130.004 194.568C131.476 194.184 132.836 193.56 133.828 192.424C134.964 191.112 135.172 189.8 135.172 186.792C135.172 186.168 135.172 184.824 135.172 184.264C135.172 183.72 135.124 183.256 135.076 182.872H136.58ZM129.156 183C129.124 183.304 129.108 183.768 129.108 184.136C129.108 184.616 129.108 188.808 129.108 189.48C129.108 189.896 129.124 190.424 129.156 190.712H127.7C127.732 190.456 127.764 189.944 127.764 189.48C127.764 188.792 127.764 184.616 127.764 184.136C127.764 183.864 127.748 183.304 127.7 183H129.156ZM144.452 183.288C145.572 184.04 147.636 185.704 148.516 186.584L147.524 187.608C146.708 186.776 144.724 185.048 143.524 184.264L144.452 183.288ZM143.076 194.008C145.86 193.592 147.94 192.616 149.46 191.672C151.94 190.12 153.876 187.752 154.804 185.768L155.572 187.144C154.484 189.128 152.628 191.304 150.212 192.824C148.596 193.832 146.58 194.824 143.908 195.32L143.076 194.008ZM169.7 182.2C170.1 182.776 170.676 183.752 170.996 184.392L170.132 184.792C169.812 184.136 169.268 183.176 168.836 182.568L169.7 182.2ZM171.444 181.56C171.876 182.152 172.484 183.144 172.788 183.736L171.924 184.12C171.572 183.432 171.06 182.52 170.612 181.928L171.444 181.56ZM170.756 185.384C170.628 185.624 170.468 185.992 170.388 186.248C169.956 187.848 168.964 190.024 167.556 191.752C166.1 193.528 164.18 195 161.172 196.104L160.02 195.064C162.964 194.2 164.948 192.744 166.404 191.048C167.652 189.576 168.628 187.512 168.964 186.056H163.028L163.54 184.904C164.196 184.904 168.148 184.904 168.644 184.904C169.076 184.904 169.428 184.856 169.7 184.744L170.756 185.384ZM165.396 182.968C165.14 183.384 164.852 183.928 164.692 184.232C163.748 185.992 162.068 188.28 159.508 189.992L158.388 189.16C161.156 187.512 162.724 185.192 163.428 183.752C163.588 183.48 163.828 182.888 163.924 182.488L165.396 182.968ZM179.54 182.536C179.46 183.064 179.412 183.624 179.38 184.152C179.316 185.96 179.188 189.752 179.188 192.136C179.188 193.896 180.292 194.504 181.812 194.504C184.74 194.504 186.404 192.872 187.556 191.208L188.452 192.296C187.364 193.816 185.284 195.816 181.78 195.816C179.476 195.816 177.892 194.872 177.892 192.248C177.892 189.88 178.052 185.832 178.052 184.152C178.052 183.56 178.004 183 177.908 182.536H179.54ZM199.892 182.312C199.86 182.584 199.828 182.904 199.812 183.384C199.78 184.024 199.78 186.168 199.78 187.512C199.78 189.624 200.02 192.424 200.02 193.496C200.02 194.616 199.284 195.752 197.204 195.752C194.9 195.752 193.636 194.936 193.636 193.384C193.636 191.928 195.028 190.952 197.332 190.952C200.708 190.952 203.348 192.776 204.58 193.784L203.844 194.92C202.404 193.592 200.036 191.992 197.188 191.992C195.652 191.992 194.836 192.584 194.836 193.32C194.836 194.072 195.46 194.616 197.044 194.616C197.972 194.616 198.756 194.344 198.756 193.224C198.756 191.992 198.596 188.92 198.596 187.512C198.596 186.072 198.596 184.392 198.596 183.272C198.596 183 198.58 182.52 198.532 182.312H199.892ZM193.78 184.04C194.804 184.232 196.804 184.392 197.86 184.392C199.892 184.392 202.036 184.248 204.116 183.912V185.08C202.308 185.288 200.02 185.496 197.876 185.496C196.772 185.496 194.804 185.352 193.796 185.224L193.78 184.04ZM193.7 187.448C194.836 187.624 196.66 187.736 197.716 187.736C200.036 187.736 202.164 187.576 204.244 187.272V188.472C202.068 188.744 200.116 188.856 197.716 188.856C196.612 188.856 194.852 188.776 193.716 188.648L193.7 187.448ZM217.412 182.328C217.38 182.52 217.332 183.144 217.332 183.336C217.284 184.376 217.316 187.464 217.332 188.744L216.116 188.12C216.116 187.416 216.1 184.232 216.052 183.352C216.02 182.92 215.972 182.472 215.94 182.328H217.412ZM208.9 184.568C211.076 184.536 215.076 184.392 217.54 184.392C219.492 184.392 221.476 184.392 222.228 184.408L222.212 185.592C221.316 185.544 219.876 185.512 217.524 185.512C214.772 185.512 211.348 185.624 208.932 185.8L208.9 184.568ZM217.3 189.208C217.3 191.352 216.308 192.424 214.852 192.424C213.508 192.424 212.212 191.48 212.212 189.736C212.212 188.152 213.524 186.968 215.044 186.968C216.9 186.968 217.844 188.344 217.844 190.184C217.844 192.36 216.788 194.76 213.076 195.864L212.004 194.824C214.916 194.136 216.612 192.712 216.612 190.072C216.612 188.632 215.908 188.024 215.044 188.024C214.196 188.024 213.412 188.68 213.412 189.72C213.412 190.728 214.164 191.304 215.044 191.304C216.036 191.304 216.676 190.472 216.42 188.76L217.3 189.208Z" fill="black"/>
<defs>
<filter id="filter0_d_1747_11041" x="58.2328" y="62" width="174.534" height="68.5344" filterUnits="userSpaceOnUse" color-interpolation-filters="sRGB">
<feFlood flood-opacity="0" result="BackgroundImageFix"/>
<feColorMatrix in="SourceAlpha" type="matrix" values="0 0 0 0 0 0 0 0 0 0 0 0 0 0 0 0 0 0 127 0" result="hardAlpha"/>
<feOffset dy="1.76718"/>
<feGaussianBlur stdDeviation="0.88359"/>
<feComposite in2="hardAlpha" operator="out"/>
<feColorMatrix type="matrix" values="0 0 0 0 0.0156863 0 0 0 0 0.792157 0 0 0 0 0.839216 0 0 0 0.15 0"/>
<feBlend mode="normal" in2="BackgroundImageFix" result="effect1_dropShadow_1747_11041"/>
<feBlend mode="normal" in="SourceGraphic" in2="effect1_dropShadow_1747_11041" result="shape"/>
</filter>
<filter id="filter1_d_1747_11041" x="58.2328" y="62" width="174.534" height="68.5344" filterUnits="userSpaceOnUse" color-interpolation-filters="sRGB">
<feFlood flood-opacity="0" result="BackgroundImageFix"/>
<feColorMatrix in="SourceAlpha" type="matrix" values="0 0 0 0 0 0 0 0 0 0 0 0 0 0 0 0 0 0 127 0" result="hardAlpha"/>
<feOffset dy="1.76718"/>
<feGaussianBlur stdDeviation="0.88359"/>
<feComposite in2="hardAlpha" operator="out"/>
<feColorMatrix type="matrix" values="0 0 0 0 0.0156863 0 0 0 0 0.792157 0 0 0 0 0.839216 0 0 0 0.15 0"/>
<feBlend mode="normal" in2="BackgroundImageFix" result="effect1_dropShadow_1747_11041"/>
<feBlend mode="normal" in="SourceGraphic" in2="effect1_dropShadow_1747_11041" result="shape"/>
</filter>
<filter id="filter2_d_1747_11041" x="70.0595" y="39.0068" width="79.9649" height="16.1843" filterUnits="userSpaceOnUse" color-interpolation-filters="sRGB">
<feFlood flood-opacity="0" result="BackgroundImageFix"/>
<feColorMatrix in="SourceAlpha" type="matrix" values="0 0 0 0 0 0 0 0 0 0 0 0 0 0 0 0 0 0 127 0" result="hardAlpha"/>
<feOffset dy="1.76718"/>
<feGaussianBlur stdDeviation="0.88359"/>
<feComposite in2="hardAlpha" operator="out"/>
<feColorMatrix type="matrix" values="0 0 0 0 0 0 0 0 0 0 0 0 0 0 0 0 0 0 0.25 0"/>
<feBlend mode="normal" in2="BackgroundImageFix" result="effect1_dropShadow_1747_11041"/>
<feBlend mode="normal" in="SourceGraphic" in2="effect1_dropShadow_1747_11041" result="shape"/>
</filter>
<filter id="filter3_d_1747_11041" x="166.175" y="238.243" width="85.6508" height="77.87" filterUnits="userSpaceOnUse" color-interpolation-filters="sRGB">
<feFlood flood-opacity="0" result="BackgroundImageFix"/>
<feColorMatrix in="SourceAlpha" type="matrix" values="0 0 0 0 0 0 0 0 0 0 0 0 0 0 0 0 0 0 127 0" result="hardAlpha"/>
<feOffset dy="4.8254"/>
<feGaussianBlur stdDeviation="2.4127"/>
<feComposite in2="hardAlpha" operator="out"/>
<feColorMatrix type="matrix" values="0 0 0 0 0 0 0 0 0 0 0 0 0 0 0 0 0 0 0.25 0"/>
<feBlend mode="normal" in2="BackgroundImageFix" result="effect1_dropShadow_1747_11041"/>
<feBlend mode="normal" in="SourceGraphic" in2="effect1_dropShadow_1747_11041" result="shape"/>
</filter>
<filter id="filter4_d_1747_11041" x="64" y="234.243" width="114.432" height="114.896" filterUnits="userSpaceOnUse" color-interpolation-filters="sRGB">
<feFlood flood-opacity="0" result="BackgroundImageFix"/>
<feColorMatrix in="SourceAlpha" type="matrix" values="0 0 0 0 0 0 0 0 0 0 0 0 0 0 0 0 0 0 127 0" result="hardAlpha"/>
<feOffset dy="4"/>
<feGaussianBlur stdDeviation="2"/>
<feComposite in2="hardAlpha" operator="out"/>
<feColorMatrix type="matrix" values="0 0 0 0 0 0 0 0 0 0 0 0 0 0 0 0 0 0 0.25 0"/>
<feBlend mode="normal" in2="BackgroundImageFix" result="effect1_dropShadow_1747_11041"/>
<feBlend mode="normal" in="SourceGraphic" in2="effect1_dropShadow_1747_11041" result="shape"/>
</filter>
<filter id="filter5_d_1747_11041" x="0" y="137.481" width="276" height="97.7622" filterUnits="userSpaceOnUse" color-interpolation-filters="sRGB">
<feFlood flood-opacity="0" result="BackgroundImageFix"/>
<feColorMatrix in="SourceAlpha" type="matrix" values="0 0 0 0 0 0 0 0 0 0 0 0 0 0 0 0 0 0 127 0" result="hardAlpha"/>
<feOffset dy="4"/>
<feGaussianBlur stdDeviation="2"/>
<feComposite in2="hardAlpha" operator="out"/>
<feColorMatrix type="matrix" values="0 0 0 0 0 0 0 0 0 0 0 0 0 0 0 0 0 0 0.25 0"/>
<feBlend mode="normal" in2="BackgroundImageFix" result="effect1_dropShadow_1747_11041"/>
<feBlend mode="normal" in="SourceGraphic" in2="effect1_dropShadow_1747_11041" result="shape"/>
</filter>
<clipPath id="clip0_1747_11041">
<path d="M60 62H231V127H60V62Z" fill="white"/>
</clipPath>
</defs>
</svg>
