<svg width="212" height="140" viewBox="0 0 212 140" fill="none" xmlns="http://www.w3.org/2000/svg">
<g filter="url(#filter0_d_1742_11046)">
<path d="M23.0064 31.3021C31.4625 15.8372 34.9387 5.93584 40.9321 3.18404C46.9255 0.432245 51.834 24.3445 51.834 24.3445L65.1808 23.9188C65.1808 23.9188 84.8272 -1.61615 89.4158 0.0810004C94.0044 1.77815 92.5769 28.1756 92.5769 28.1756C103.313 41.8793 106.629 49.7776 107.329 64.3579C107.329 64.3579 124.347 74.3159 119.229 79.4334C114.66 84.0026 110.443 75.9187 109.74 82.2452C109.037 88.5718 108.685 88.2203 107.768 90.7014C106.576 92.0865 107.982 92.4174 114.66 89.2747C121.338 86.132 123.096 85.216 125.556 85.216C128.016 85.216 135.046 90.4847 119.229 95.6013C103.413 100.718 106.013 96.985 105.604 97.777C105.604 101.225 96.3836 111.418 93.9232 112.121C93.9232 112.121 89.7055 130.749 82.3246 130.749C74.9436 130.749 71.0773 117.393 71.0773 117.393C64.0478 117.744 66.5082 118.799 57.7213 116.69C57.7213 116.69 60.1247 130.749 53.2333 130.749C45.7707 130.749 31.4625 108.628 31.4625 108.628C26.7915 106.848 16.9502 90.7014 15.6571 85.216C15.6571 85.216 3.91452 98.9276 5.08156 88.2411C6.18572 78.1304 15.6571 71.0188 15.6571 64.3407C15.6571 57.6627 14.5503 46.767 23.0064 31.3021Z" fill="#FFBBDC"/>
<circle cx="49.6374" cy="47.4491" r="2.46033" fill="#2F2E2E"/>
<circle cx="69.32" cy="47.4491" r="2.46033" fill="#2F2E2E"/>
<path d="M54.6095 56.9891C53.3294 58.1672 55.6295 60.0414 58.8152 60.1006C62.0009 60.1597 64.8023 58.7465 63.7478 56.9891C62.6934 55.2317 62.3676 57.9658 59.1819 57.9067C55.9962 57.8476 55.8896 55.811 54.6095 56.9891Z" fill="black"/>
</g>
<ellipse cx="168.848" cy="40.5" rx="43.0633" ry="40.5" fill="#04CAD6"/>
<path d="M139.402 30.7478C139.366 31.0349 139.33 31.5373 139.318 31.8243C139.186 36.5733 138.062 39.0016 135.418 40.8796L134.019 39.7552C134.521 39.48 135.119 39.0853 135.598 38.5949C137.165 37.0398 137.715 35.0062 137.727 31.8483C137.727 31.5851 137.679 31.0349 137.631 30.7478H139.402ZM143.457 33.3196C143.421 33.511 143.385 33.81 143.385 33.9416C143.337 35.2455 143.182 38.5829 142.667 39.803C142.416 40.4011 141.95 40.7241 141.136 40.7241C140.442 40.7241 139.737 40.6643 139.151 40.6164L138.959 39.0255C139.557 39.1212 140.167 39.193 140.646 39.193C141.029 39.193 141.196 39.0614 141.316 38.7623C141.663 38.0087 141.83 35.6163 141.83 34.3244H135.993C135.586 34.3244 134.916 34.3364 134.414 34.3842V32.8052C134.916 32.865 135.526 32.889 135.981 32.889H141.519C141.83 32.889 142.141 32.865 142.428 32.8052L143.457 33.3196ZM152.321 30.5803C152.249 31.0947 152.237 31.3339 152.237 31.6808C152.237 31.9918 152.237 32.9488 152.237 33.4033H150.562C150.562 32.877 150.562 31.9918 150.562 31.6808C150.562 31.3339 150.55 31.0947 150.479 30.5803H152.321ZM156.34 33.1043C156.256 33.3674 156.161 33.822 156.113 34.0493C155.897 35.1976 155.586 36.358 154.988 37.4465C154.043 39.2049 152.237 40.4729 150.108 41.0351L148.864 39.5997C149.414 39.504 150.06 39.3245 150.562 39.1212C151.543 38.7504 152.596 38.0446 153.278 37.0876C153.876 36.2024 154.187 35.0661 154.33 34.0014H148.397C148.397 34.4201 148.397 35.389 148.397 35.7599C148.397 36.023 148.409 36.4058 148.445 36.645H146.794C146.83 36.346 146.842 35.9632 146.842 35.6402C146.842 35.2455 146.842 34.0134 146.842 33.5588C146.842 33.2957 146.842 32.8172 146.794 32.5421C147.201 32.578 147.56 32.5899 148.014 32.5899H154.318C154.809 32.5899 155.096 32.5421 155.311 32.4703L156.34 33.1043ZM160.802 31.2502C161.627 31.8124 163.182 33.0564 163.888 33.7861L162.668 35.0302C162.046 34.3603 160.539 33.0564 159.665 32.4583L160.802 31.2502ZM159.295 39.2169C161.173 38.9537 162.716 38.3437 163.876 37.6618C165.922 36.4417 167.477 34.6235 168.242 33.0086L169.163 34.6833C168.266 36.3101 166.675 37.9609 164.749 39.1212C163.529 39.8509 161.986 40.5088 160.311 40.7959L159.295 39.2169ZM173.733 38.7504C173.733 37.7695 173.733 33.7263 173.733 32.2789C173.733 31.8722 173.697 31.2621 173.637 30.9033H175.419C175.36 31.2621 175.312 31.8722 175.312 32.2789C175.312 33.7143 175.312 37.0039 175.312 38.3317C175.312 39.0853 175.527 39.3365 176.831 39.3365C178.087 39.3365 179.427 39.181 180.611 38.9418L180.551 40.5686C179.57 40.7121 178.135 40.8198 176.843 40.8198C174.128 40.8198 173.733 40.1738 173.733 38.7504ZM181.257 33.499C181.149 33.6665 180.982 33.9416 180.874 34.145C180.348 35.1498 179.259 36.7886 178.398 37.6379L177.082 36.8604C177.872 36.1546 178.649 35.0541 178.984 34.4321C178.254 34.5756 172.728 35.6761 171.209 36.0111L170.922 34.444C172.549 34.2526 178.171 33.1521 179.259 32.889C179.594 32.8052 179.893 32.7215 180.109 32.6019L181.257 33.499ZM185.468 31.1664C185.791 31.2143 186.305 31.2382 186.712 31.2382C187.465 31.2382 190.611 31.2382 191.305 31.2382C191.688 31.2382 192.274 31.2143 192.597 31.1664V32.7215C192.286 32.6976 191.724 32.6737 191.281 32.6737C190.623 32.6737 187.417 32.6737 186.712 32.6737C186.317 32.6737 185.814 32.6856 185.468 32.7215V31.1664ZM193.614 34.6474C193.53 34.8029 193.422 35.0182 193.386 35.1378C193.016 36.2981 192.501 37.4704 191.616 38.4513C190.408 39.803 188.877 40.6045 187.346 41.0471L186.149 39.6954C187.956 39.3126 189.379 38.535 190.3 37.59C190.934 36.9441 191.317 36.1905 191.52 35.5326C190.922 35.5326 186.819 35.5326 185.755 35.5326C185.456 35.5326 184.857 35.5445 184.355 35.5804V34.0254C184.869 34.0732 185.372 34.1091 185.755 34.1091C186.568 34.1091 190.85 34.1091 191.664 34.1091C192.059 34.1091 192.382 34.0612 192.549 33.9775L193.614 34.6474ZM196.329 34.8029C196.772 34.8388 197.633 34.8866 198.255 34.8866C199.666 34.8866 203.614 34.8866 204.679 34.8866C205.241 34.8866 205.767 34.8268 206.09 34.8029V36.6929C205.803 36.6809 205.193 36.6211 204.691 36.6211C203.602 36.6211 199.666 36.6211 198.255 36.6211C197.585 36.6211 196.784 36.657 196.329 36.6929V34.8029ZM158.718 47.5803C158.67 47.8554 158.634 48.31 158.634 48.6808C158.634 49.0397 158.634 49.6497 158.634 50.0086H157.067C157.067 49.6497 157.067 49.0995 157.067 48.6808C157.067 48.298 157.055 47.8674 157.007 47.5803H158.718ZM162.055 50.1402C161.756 50.4512 161.385 50.8459 161.134 51.133C160.464 51.8986 159.459 52.8914 158.371 53.657C157.079 54.5781 155.249 55.3676 153.395 55.9298L152.473 54.5183C154.782 54.0039 156.313 53.1785 157.342 52.5087C158.263 51.9225 159.005 51.2168 159.364 50.7263C158.718 50.7263 155.536 50.7263 155.033 50.7263C154.603 50.7263 153.849 50.7502 153.466 50.7861V49.2191C153.921 49.2789 154.591 49.2909 154.997 49.2909C155.536 49.2909 159.364 49.2909 160.069 49.2909C160.44 49.2909 160.787 49.255 161.062 49.1832L162.055 50.1402ZM158.61 52.7479C158.61 53.6092 158.61 55.535 158.61 56.504C158.61 56.9705 158.646 57.6523 158.682 58.0231H156.971C157.007 57.6882 157.055 56.9705 157.055 56.504C157.055 55.5829 157.055 54.1116 157.055 53.3938L158.61 52.7479ZM162.234 56.0374C161.194 55.224 160.404 54.7216 159.376 54.1355L160.356 52.9991C161.457 53.5852 162.079 53.9441 163.227 54.7216L162.234 56.0374ZM165.889 48.8483C166.343 48.8961 166.953 48.932 167.372 48.932H173.401C173.748 48.932 174.238 48.9081 174.441 48.8961C174.429 49.1832 174.405 49.6497 174.405 50.0086V56.2049C174.405 56.6236 174.441 57.2456 174.465 57.6164H172.731C172.743 57.2576 172.755 56.8269 172.755 56.3843V50.4751H167.372C166.869 50.4751 166.223 50.499 165.889 50.523V48.8483ZM165.745 55.3437C166.152 55.3795 166.69 55.4154 167.228 55.4154H173.7V56.9944H167.276C166.81 56.9944 166.14 57.0183 165.745 57.0662V55.3437ZM178.329 48.8483C178.784 48.8961 179.394 48.932 179.812 48.932H185.841C186.188 48.932 186.679 48.9081 186.882 48.8961C186.87 49.1832 186.846 49.6497 186.846 50.0086V56.2049C186.846 56.6236 186.882 57.2456 186.906 57.6164H185.171C185.183 57.2576 185.195 56.8269 185.195 56.3843V50.4751H179.812C179.31 50.4751 178.664 50.499 178.329 50.523V48.8483ZM178.185 55.3437C178.592 55.3795 179.13 55.4154 179.669 55.4154H186.14V56.9944H179.717C179.25 56.9944 178.58 57.0183 178.185 57.0662V55.3437Z" fill="white"/>
<path d="M130.57 51.4365L138.857 66.6881H122.282L130.57 51.4365Z" fill="#04CAD6"/>
<defs>
<filter id="filter0_d_1742_11046" x="0.428571" y="0" width="133.392" height="139.892" filterUnits="userSpaceOnUse" color-interpolation-filters="sRGB">
<feFlood flood-opacity="0" result="BackgroundImageFix"/>
<feColorMatrix in="SourceAlpha" type="matrix" values="0 0 0 0 0 0 0 0 0 0 0 0 0 0 0 0 0 0 127 0" result="hardAlpha"/>
<feOffset dy="4.57143"/>
<feGaussianBlur stdDeviation="2.28571"/>
<feComposite in2="hardAlpha" operator="out"/>
<feColorMatrix type="matrix" values="0 0 0 0 0 0 0 0 0 0 0 0 0 0 0 0 0 0 0.25 0"/>
<feBlend mode="normal" in2="BackgroundImageFix" result="effect1_dropShadow_1742_11046"/>
<feBlend mode="normal" in="SourceGraphic" in2="effect1_dropShadow_1742_11046" result="shape"/>
</filter>
</defs>
</svg>
