<svg width="274" height="356" viewBox="0 0 274 356" fill="none" xmlns="http://www.w3.org/2000/svg">
<mask id="path-1-inside-1_1745_11079" fill="white">
<path d="M45 8C45 3.58172 48.5817 0 53 0H226C230.418 0 234 3.58172 234 8V355H45V8Z"/>
</mask>
<path d="M42 8C42 1.92487 46.9249 -3 53 -3H226C232.075 -3 237 1.92487 237 8H231C231 5.23858 228.761 3 226 3H53C50.2386 3 48 5.23858 48 8H42ZM234 355H45H234ZM42 355V8C42 1.92487 46.9249 -3 53 -3V3C50.2386 3 48 5.23858 48 8V355H42ZM226 -3C232.075 -3 237 1.92487 237 8V355H231V8C231 5.23858 228.761 3 226 3V-3Z" fill="#A29C9C" fill-opacity="0.5" mask="url(#path-1-inside-1_1745_11079)"/>
<mask id="path-3-inside-2_1745_11079" fill="white">
<path d="M53 13C53 10.2386 55.2386 8 58 8H221C223.761 8 226 10.2386 226 13V355H53V13Z"/>
</mask>
<path d="M53 13C53 10.2386 55.2386 8 58 8H221C223.761 8 226 10.2386 226 13V355H53V13Z" fill="#EEFEFF"/>
<path d="M52 13C52 9.68629 54.6863 7 58 7H221C224.314 7 227 9.68629 227 13H225C225 10.7909 223.209 9 221 9H58C55.7909 9 54 10.7909 54 13H52ZM226 355H53H226ZM52 355V13C52 9.68629 54.6863 7 58 7V9C55.7909 9 54 10.7909 54 13V355H52ZM221 7C224.314 7 227 9.68629 227 13V355H225V13C225 10.7909 223.209 9 221 9V7Z" fill="#D9D9D9" mask="url(#path-3-inside-2_1745_11079)"/>
<path d="M54 12C54 10.3431 55.3431 9 57 9H222C223.657 9 225 10.3431 225 12V31H54V12Z" fill="#04CAD6"/>
<path d="M106.38 23.5V22.908C108.306 21.2115 109.287 19.948 109.287 18.8788C109.287 18.1808 108.916 17.6948 108.191 17.6948C107.679 17.6948 107.255 18.0129 106.91 18.4105L106.327 17.8539C106.892 17.2442 107.467 16.8819 108.315 16.8819C109.508 16.8819 110.277 17.6506 110.277 18.8346C110.277 20.0805 109.269 21.3794 107.891 22.7048C108.227 22.6694 108.642 22.6341 108.96 22.6341H110.586V23.5H106.38ZM113.911 23.6237C112.63 23.6237 111.808 22.4839 111.808 20.2219C111.808 17.9776 112.63 16.8819 113.911 16.8819C115.183 16.8819 116.014 17.9776 116.014 20.2219C116.014 22.4839 115.183 23.6237 113.911 23.6237ZM113.911 22.8108C114.574 22.8108 115.033 22.1039 115.033 20.2219C115.033 18.3663 114.574 17.6771 113.911 17.6771C113.248 17.6771 112.78 18.3663 112.78 20.2219C112.78 22.1039 113.248 22.8108 113.911 22.8108ZM117.165 23.5V22.908C119.091 21.2115 120.072 19.948 120.072 18.8788C120.072 18.1808 119.701 17.6948 118.977 17.6948C118.464 17.6948 118.04 18.0129 117.695 18.4105L117.112 17.8539C117.678 17.2442 118.252 16.8819 119.1 16.8819C120.293 16.8819 121.062 17.6506 121.062 18.8346C121.062 20.0805 120.055 21.3794 118.676 22.7048C119.012 22.6694 119.427 22.6341 119.745 22.6341H121.371V23.5H117.165ZM124.537 23.6237C123.521 23.6237 122.858 23.2173 122.417 22.7224L122.92 22.0686C123.3 22.4574 123.777 22.7843 124.458 22.7843C125.182 22.7843 125.686 22.3778 125.686 21.7063C125.686 20.9818 125.226 20.5223 123.768 20.5223V19.7624C125.041 19.7624 125.465 19.2853 125.465 18.6314C125.465 18.0571 125.094 17.6948 124.466 17.6948C123.972 17.6948 123.548 17.9334 123.176 18.3045L122.637 17.6595C123.159 17.2 123.76 16.8819 124.511 16.8819C125.677 16.8819 126.499 17.4827 126.499 18.5519C126.499 19.3029 126.066 19.8243 125.377 20.0805V20.1247C126.128 20.3191 126.72 20.8757 126.72 21.7593C126.72 22.9345 125.739 23.6237 124.537 23.6237ZM127.677 25.0905L130.133 16.4401H130.831L128.384 25.0905H127.677ZM132.118 23.5V22.6606H133.549V18.1366H132.374V17.4916C132.993 17.3856 133.417 17.2265 133.797 16.9968H134.566V22.6606H135.838V23.5H132.118ZM139.278 23.6237C137.997 23.6237 137.175 22.4839 137.175 20.2219C137.175 17.9776 137.997 16.8819 139.278 16.8819C140.55 16.8819 141.381 17.9776 141.381 20.2219C141.381 22.4839 140.55 23.6237 139.278 23.6237ZM139.278 22.8108C139.941 22.8108 140.4 22.1039 140.4 20.2219C140.4 18.3663 139.941 17.6771 139.278 17.6771C138.615 17.6771 138.147 18.3663 138.147 20.2219C138.147 22.1039 138.615 22.8108 139.278 22.8108ZM142.258 25.0905L144.715 16.4401H145.413L142.965 25.0905H142.258ZM146.7 23.5V22.6606H148.131V18.1366H146.956V17.4916C147.574 17.3856 147.999 17.2265 148.379 16.9968H149.147V22.6606H150.42V23.5H146.7ZM153.86 23.6237C152.578 23.6237 151.757 22.4839 151.757 20.2219C151.757 17.9776 152.578 16.8819 153.86 16.8819C155.132 16.8819 155.962 17.9776 155.962 20.2219C155.962 22.4839 155.132 23.6237 153.86 23.6237ZM153.86 22.8108C154.522 22.8108 154.982 22.1039 154.982 20.2219C154.982 18.3663 154.522 17.6771 153.86 17.6771C153.197 17.6771 152.729 18.3663 152.729 20.2219C152.729 22.1039 153.197 22.8108 153.86 22.8108ZM158.828 25.2583C157.997 23.9241 157.512 22.4927 157.512 20.7432C157.512 18.9937 157.997 17.5623 158.828 16.2192L159.455 16.502C158.704 17.7743 158.351 19.2676 158.351 20.7432C158.351 22.2188 158.704 23.7121 159.455 24.9844L158.828 25.2583ZM161.916 17.8185L162.755 18.0041C162.605 19.082 162.322 20.1512 161.545 20.7697L160.802 20.2837C161.483 19.7447 161.783 18.817 161.916 17.8185ZM167.412 17.8097L168.331 18.1631C167.889 19.0025 167.332 19.9833 166.882 20.6107L166.175 20.2837C166.599 19.6299 167.129 18.5872 167.412 17.8097ZM164.611 16.1662H165.061V18.9937C165.061 20.1512 165.777 22.422 168.711 23.4735C168.525 23.659 168.26 24.0125 168.136 24.2511C165.768 23.3233 164.814 21.4059 164.602 20.54C164.407 21.4236 163.524 23.2791 161.2 24.2511C161.085 24.0655 160.802 23.7209 160.617 23.5442C163.462 22.4662 164.16 20.1512 164.16 18.9937V16.1662H164.611ZM170.469 25.2583L169.833 24.9844C170.584 23.7121 170.946 22.2188 170.946 20.7432C170.946 19.2676 170.584 17.7743 169.833 16.502L170.469 16.2192C171.291 17.5623 171.777 18.9937 171.777 20.7432C171.777 22.4927 171.291 23.9241 170.469 25.2583Z" fill="white"/>
<g filter="url(#filter0_d_1745_11079)">
<path d="M100.577 263.915C107.815 250.679 110.79 242.204 115.92 239.849C121.049 237.494 125.251 257.96 125.251 257.96L136.674 257.596C136.674 257.596 153.489 235.741 157.416 237.193C161.344 238.646 160.122 261.239 160.122 261.239C169.311 272.968 172.149 279.728 172.748 292.207C172.748 292.207 177.99 279.164 180.898 287.68C184.261 297.533 175.21 306.331 173.979 309.039C173.433 310.239 173.477 312.281 173.124 314.754C173.054 315.24 173.307 316.223 179.023 313.533C184.738 310.843 186.243 310.059 188.348 310.059C190.454 310.059 196.471 314.569 182.934 318.948C169.396 323.327 171.621 320.132 171.271 320.81C171.271 323.761 163.38 332.485 161.274 333.087C161.274 333.087 157.664 349.03 151.347 349.03C145.03 349.03 141.721 337.599 141.721 337.599C135.704 337.9 137.81 338.802 130.289 336.997C130.289 336.997 132.346 349.03 126.448 349.03C120.061 349.03 107.815 330.097 107.815 330.097C103.817 328.574 95.394 314.754 94.2873 310.059C94.2873 310.059 84.237 321.795 85.2358 312.648C86.1809 303.995 94.2873 297.908 94.2873 292.192C94.2873 286.477 93.34 277.151 100.577 263.915Z" fill="#FFE925"/>
<circle cx="123.371" cy="277.735" r="2.10576" fill="#2F2E2E"/>
<circle cx="140.217" cy="277.735" r="2.10576" fill="#2F2E2E"/>
<path d="M132.765 288.264C134.036 288.264 134.815 287.92 135.357 287.37C135.923 286.796 136.302 285.927 136.611 284.727C136.694 284.404 136.443 284.053 136.048 284.053L128.721 284.053C128.325 284.053 128.091 284.398 128.173 284.698C128.566 286.142 129.088 286.998 129.769 287.511C130.45 288.024 131.385 288.264 132.765 288.264Z" fill="white" stroke="#2F2E2E" stroke-width="1.20329"/>
</g>
<g filter="url(#filter1_d_1745_11079)">
<path d="M265.582 139.903H8.41795C5.97798 139.903 4 141.881 4 144.321V215.431C4 217.871 5.97799 219.849 8.41796 219.849H114.658C115.629 219.849 116.573 220.169 117.344 220.759L130.78 231.046C132.379 232.269 134.602 232.258 136.188 231.017L149.267 220.787C150.044 220.179 151.002 219.849 151.989 219.849H265.582C268.022 219.849 270 217.871 270 215.431V144.321C270 141.881 268.022 139.903 265.582 139.903Z" fill="white" stroke="#04CAD6" stroke-width="0.88359"/>
</g>
<path d="M59.1044 176.798L62.5764 166.536H64.0324L67.5044 176.798H66.1464L64.3404 171.058C63.9764 169.91 63.6544 168.79 63.3184 167.6H63.2624C62.9264 168.79 62.6044 169.91 62.2264 171.058L60.4204 176.798H59.1044ZM60.9244 173.662V172.64H65.6564V173.662H60.9244ZM69.5399 176.798V166.536H70.8419V176.798H69.5399ZM84.2204 165.598C84.1644 165.892 84.1364 166.438 84.1364 166.816C84.1364 167.194 84.1364 167.922 84.1364 168.202H83.0164C83.0164 167.922 83.0164 167.222 83.0164 166.816C83.0164 166.424 83.0024 165.906 82.9464 165.598H84.2204ZM88.0704 168.342C87.8184 168.594 87.5104 168.916 87.2864 169.182C86.5584 170.036 85.3544 171.24 84.0244 172.15C82.4984 173.214 80.6644 174.026 78.2704 174.754L77.5844 173.718C80.2444 173.074 81.9944 172.164 83.2544 171.338C84.5144 170.526 85.6204 169.434 86.1104 168.776C85.4524 168.776 80.9164 168.776 80.2864 168.776C79.8104 168.776 78.9984 168.79 78.5784 168.832V167.642C79.0264 167.698 79.7964 167.726 80.2724 167.726C80.9164 167.726 85.6064 167.726 86.4464 167.726C86.7824 167.726 87.1044 167.698 87.3284 167.628L88.0704 168.342ZM84.1084 171.576C84.1084 172.654 84.1084 174.768 84.1084 175.846C84.1084 176.336 84.1364 176.966 84.1784 177.4H82.9044C82.9464 176.98 82.9884 176.336 82.9884 175.846C82.9884 174.796 82.9884 172.948 82.9884 172.052L84.1084 171.576ZM88.7144 174.922C87.4964 174.026 86.6564 173.466 85.3544 172.766L86.0824 171.954C87.3984 172.654 88.1544 173.102 89.4564 173.97L88.7144 174.922ZM93.1729 167.208C93.6489 167.25 94.2509 167.292 94.7129 167.292H101.601C101.951 167.292 102.357 167.278 102.637 167.264C102.623 167.572 102.609 168.02 102.609 168.342V175.58C102.609 176.084 102.651 176.714 102.665 176.924H101.405C101.405 176.714 101.433 176.196 101.433 175.692V168.398H94.7129C94.1949 168.398 93.5089 168.426 93.1729 168.454V167.208ZM93.0049 174.936C93.3549 174.964 93.9709 175.006 94.5449 175.006H102.063V176.154H94.5869C94.0129 176.154 93.3829 176.168 93.0049 176.21V174.936ZM107.733 167.208C108.209 167.25 108.811 167.292 109.273 167.292H116.161C116.511 167.292 116.917 167.278 117.197 167.264C117.183 167.572 117.169 168.02 117.169 168.342V175.58C117.169 176.084 117.211 176.714 117.225 176.924H115.965C115.965 176.714 115.993 176.196 115.993 175.692V168.398H109.273C108.755 168.398 108.069 168.426 107.733 168.454V167.208ZM107.565 174.936C107.915 174.964 108.531 175.006 109.105 175.006H116.623V176.154H109.147C108.573 176.154 107.943 176.168 107.565 176.21V174.936ZM125.835 165.934C125.779 166.186 125.723 166.494 125.667 166.76C125.569 167.264 125.387 168.412 125.191 169.28C124.715 171.254 123.721 174.74 122.139 177.288L120.991 176.84C122.587 174.698 123.707 170.96 124.085 169.252C124.351 168.132 124.533 166.872 124.533 165.794L125.835 165.934ZM130.651 167.544C131.519 168.678 132.737 171.226 133.213 172.514L132.121 173.032C131.715 171.604 130.609 169.168 129.629 168.006L130.651 167.544ZM120.795 169C121.229 169.028 121.593 169.014 122.041 169C123.091 168.972 125.933 168.664 126.885 168.664C128.131 168.664 129.153 169.14 129.153 171.03C129.153 172.696 128.929 174.922 128.341 176.084C127.907 177.022 127.207 177.26 126.297 177.26C125.765 177.26 125.093 177.162 124.659 177.05L124.463 175.888C125.051 176.07 125.793 176.168 126.185 176.168C126.703 176.168 127.123 176.056 127.403 175.454C127.851 174.502 128.075 172.682 128.075 171.17C128.075 169.882 127.487 169.644 126.591 169.644C125.653 169.644 123.021 169.966 122.167 170.05C121.845 170.092 121.271 170.162 120.907 170.218L120.795 169ZM130.805 165.514C131.155 166.018 131.659 166.872 131.953 167.446L131.197 167.782C130.917 167.208 130.441 166.368 130.049 165.836L130.805 165.514ZM132.345 164.954C132.723 165.472 133.255 166.354 133.535 166.872L132.765 167.208C132.471 166.592 132.009 165.794 131.603 165.276L132.345 164.954ZM136.923 165.99H146.093V177.708H144.987V167.054H138.001V177.764H136.923V165.99ZM137.637 170.848H145.449V171.884H137.637V170.848ZM137.623 175.804H145.477V176.854H137.623V175.804ZM156.383 170.4H161.213V171.394H156.383V170.4ZM155.921 170.4H156.971V176.112C156.971 176.658 157.125 176.77 157.895 176.77C158.259 176.77 160.079 176.77 160.555 176.77C161.311 176.77 161.423 176.406 161.507 174.46C161.759 174.642 162.207 174.824 162.501 174.894C162.347 177.148 162.025 177.778 160.625 177.778C160.275 177.778 158.133 177.778 157.811 177.778C156.355 177.778 155.921 177.442 155.921 176.098V170.4ZM155.767 165.836H161.759V172.178H160.695V166.83H155.767V165.836ZM150.209 169.28H154.577V170.12H150.209V169.28ZM150.293 165.542H154.633V166.382H150.293V165.542ZM150.209 171.156H154.577V171.996H150.209V171.156ZM149.551 167.376H155.123V168.244H149.551V167.376ZM150.699 173.046H154.535V177.134H150.699V176.252H153.597V173.914H150.699V173.046ZM150.195 173.046H151.133V177.778H150.195V173.046ZM169.949 167.348C171.475 167.614 174.317 167.558 175.703 167.348V168.482C174.205 168.65 171.489 168.65 169.963 168.482L169.949 167.348ZM170.495 173.06C170.369 173.564 170.299 173.956 170.299 174.334C170.299 174.978 170.747 175.608 172.665 175.608C173.911 175.608 175.003 175.496 176.123 175.23L176.151 176.406C175.283 176.588 174.107 176.7 172.651 176.7C170.313 176.7 169.263 175.916 169.263 174.6C169.263 174.138 169.333 173.634 169.487 172.962L170.495 173.06ZM167.289 166.27C167.205 166.508 167.093 166.956 167.037 167.208C166.771 168.51 166.337 171.002 166.337 172.584C166.337 173.256 166.379 173.844 166.463 174.53C166.701 173.9 167.023 173.06 167.261 172.486L167.849 172.948C167.499 173.942 166.981 175.412 166.855 176.084C166.813 176.28 166.785 176.546 166.785 176.714C166.799 176.854 166.813 177.05 166.827 177.204L165.833 177.274C165.553 176.28 165.315 174.67 165.315 172.766C165.315 170.708 165.777 168.314 165.945 167.152C165.987 166.83 166.029 166.48 166.043 166.172L167.289 166.27ZM184.999 168.412H191.551V169.434H184.999V168.412ZM178.909 167.362H185.419V168.342H178.909V167.362ZM188.835 165.038H189.885V176.504C189.885 177.204 189.703 177.512 189.283 177.708C188.863 177.89 188.149 177.918 186.945 177.918C186.903 177.624 186.749 177.134 186.595 176.812C187.477 176.84 188.261 176.84 188.499 176.826C188.737 176.812 188.835 176.742 188.835 176.49V165.038ZM185.153 171.296L186.021 170.89C186.693 171.856 187.365 173.144 187.589 173.998L186.665 174.446C186.455 173.606 185.825 172.276 185.153 171.296ZM179.343 170.344L180.099 169.756C181.807 171.548 183.753 173.998 184.565 175.608L183.725 176.322C182.941 174.684 181.037 172.164 179.343 170.344ZM181.583 165.066H182.591V167.936H181.583V165.066ZM183.179 168.664L184.215 168.818C183.501 173.032 182.087 175.958 179.315 177.82C179.175 177.61 178.797 177.19 178.573 176.994C181.275 175.384 182.577 172.556 183.179 168.664ZM197.459 165.892C197.389 166.354 197.347 166.844 197.319 167.306C197.263 168.888 197.151 172.206 197.151 174.292C197.151 175.832 198.117 176.364 199.447 176.364C202.009 176.364 203.465 174.936 204.473 173.48L205.257 174.432C204.305 175.762 202.485 177.512 199.419 177.512C197.403 177.512 196.017 176.686 196.017 174.39C196.017 172.318 196.157 168.776 196.157 167.306C196.157 166.788 196.115 166.298 196.031 165.892H197.459ZM208.011 167.502C208.543 167.488 208.991 167.46 209.271 167.432C210.181 167.334 212.813 167.082 215.403 166.858C216.929 166.732 218.231 166.648 219.169 166.62L219.183 167.74C218.371 167.726 217.153 167.754 216.439 167.95C214.437 168.594 213.219 170.736 213.219 172.388C213.219 175.118 215.781 175.986 218.049 176.084L217.657 177.232C215.053 177.134 212.113 175.762 212.113 172.626C212.113 170.442 213.443 168.664 214.731 167.908C213.219 168.062 209.663 168.412 208.137 168.734L208.011 167.502ZM70.6735 200.364C70.7715 200.14 70.7995 199.944 70.7995 199.678C70.7995 198.796 70.7995 193 70.7995 191.67C70.7995 191.292 70.7435 190.662 70.6875 190.396H72.0595C72.0175 190.732 71.9615 191.264 71.9615 191.656C71.9615 192.986 71.9615 198.894 71.9615 199.608C74.6495 198.922 77.8835 197.088 79.6335 194.834L80.2635 195.814C78.4435 198.068 75.5595 199.79 72.0595 200.812C71.9195 200.854 71.6955 200.924 71.4715 201.05L70.6735 200.364ZM93.3115 191.446C93.2275 191.558 93.0455 191.866 92.9755 192.048C92.4155 193.434 91.3515 195.394 90.1895 196.682C88.6215 198.432 86.6195 200.098 84.4075 201.106L83.5115 200.168C85.7795 199.3 87.8375 197.62 89.2795 196.024C90.2315 194.946 91.2535 193.28 91.6175 192.118C91.1135 192.118 86.6335 192.118 86.1575 192.118C85.6535 192.118 84.8975 192.174 84.7435 192.188V190.928C84.9255 190.956 85.7235 191.012 86.1575 191.012C86.7035 191.012 91.0295 191.012 91.5615 191.012C92.0095 191.012 92.3875 190.97 92.6115 190.9L93.3115 191.446ZM90.3715 195.954C91.8835 197.214 93.7455 199.174 94.6975 200.336L93.7315 201.19C92.7235 199.86 91.0855 198.068 89.5735 196.738L90.3715 195.954ZM107.241 190.466C107.241 190.956 107.633 191.348 108.137 191.348C108.627 191.348 109.033 190.956 109.033 190.466C109.033 189.962 108.627 189.556 108.137 189.556C107.633 189.556 107.241 189.962 107.241 190.466ZM106.611 190.466C106.611 189.612 107.283 188.926 108.137 188.926C108.977 188.926 109.677 189.612 109.677 190.466C109.677 191.306 108.977 191.992 108.137 191.992C107.283 191.992 106.611 191.306 106.611 190.466ZM104.259 190.018C104.231 190.214 104.175 190.718 104.175 191.012C104.175 191.754 104.175 192.93 104.175 193.616C104.175 194.75 104.175 199.286 104.175 200.294C104.175 201.022 103.825 201.4 102.971 201.4C102.383 201.4 101.557 201.372 100.983 201.302L100.885 200.196C101.501 200.308 102.131 200.35 102.509 200.35C102.887 200.35 103.041 200.196 103.041 199.818C103.055 199.062 103.055 194.274 103.055 193.616C103.055 193.14 103.055 191.754 103.055 191.012C103.055 190.704 102.999 190.228 102.957 190.018H104.259ZM97.9735 192.37C98.3655 192.426 98.7155 192.454 99.1495 192.454C99.9755 192.454 107.045 192.454 107.885 192.454C108.207 192.454 108.669 192.426 109.019 192.384V193.546C108.655 193.518 108.235 193.504 107.899 193.504C107.059 193.504 100.017 193.504 99.1635 193.504C98.7295 193.504 98.3375 193.518 97.9735 193.56V192.37ZM101.193 195.674C100.591 196.864 99.2895 198.656 98.4915 199.51L97.5255 198.852C98.4635 197.998 99.6535 196.332 100.199 195.198L101.193 195.674ZM107.031 195.198C107.787 196.094 108.893 197.844 109.453 198.866L108.431 199.44C107.871 198.334 106.821 196.598 106.079 195.716L107.031 195.198ZM114.423 190.55C115.403 191.208 117.209 192.664 117.979 193.434L117.111 194.33C116.397 193.602 114.661 192.09 113.611 191.404L114.423 190.55ZM113.219 199.93C115.655 199.566 117.475 198.712 118.805 197.886C120.975 196.528 122.669 194.456 123.481 192.72L124.153 193.924C123.201 195.66 121.577 197.564 119.463 198.894C118.049 199.776 116.285 200.644 113.947 201.078L113.219 199.93ZM136.718 191.446C136.634 191.558 136.452 191.866 136.382 192.048C135.822 193.434 134.758 195.394 133.596 196.682C132.028 198.432 130.026 200.098 127.814 201.106L126.918 200.168C129.186 199.3 131.244 197.62 132.686 196.024C133.638 194.946 134.66 193.28 135.024 192.118C134.52 192.118 130.04 192.118 129.564 192.118C129.06 192.118 128.304 192.174 128.15 192.188V190.928C128.332 190.956 129.13 191.012 129.564 191.012C130.11 191.012 134.436 191.012 134.968 191.012C135.416 191.012 135.794 190.97 136.018 190.9L136.718 191.446ZM133.778 195.954C135.29 197.214 137.152 199.174 138.104 200.336L137.138 201.19C136.13 199.86 134.492 198.068 132.98 196.738L133.778 195.954ZM146.532 189.738C146.406 190.284 146.252 191.054 145.888 191.992C145.538 192.846 145.02 193.784 144.46 194.512C145.006 194.19 145.804 193.994 146.42 193.994C147.498 193.994 148.338 194.638 148.338 195.772C148.338 196.5 148.366 198.11 148.38 198.978H147.302C147.358 198.236 147.372 196.794 147.358 196.066C147.344 195.254 146.784 194.876 146.056 194.876C145.16 194.876 144.278 195.324 143.634 195.898C143.228 196.29 142.836 196.794 142.374 197.368L141.408 196.654C143.424 194.722 144.362 193.098 144.838 191.908C145.146 191.138 145.342 190.298 145.384 189.64L146.532 189.738ZM141.73 191.25C142.486 191.348 143.452 191.39 144.096 191.39C145.986 191.39 148.408 191.278 150.382 190.928V191.964C148.422 192.258 145.818 192.384 144.04 192.384C143.438 192.384 142.514 192.356 141.73 192.3V191.25ZM152.426 194.624C152.076 194.736 151.572 194.932 151.194 195.072C150.2 195.464 148.87 195.996 147.512 196.696C146.126 197.424 145.146 198.18 145.146 199.146C145.146 200.238 146.224 200.406 147.666 200.406C148.758 200.406 150.27 200.28 151.502 200.056L151.46 201.19C150.396 201.316 148.842 201.428 147.624 201.428C145.636 201.428 144.026 200.994 144.026 199.3C144.026 197.592 145.762 196.542 147.428 195.688C148.758 195.002 149.892 194.568 150.816 194.134C151.236 193.938 151.586 193.784 151.978 193.588L152.426 194.624ZM158.138 194.568V199.524H157.102V195.548H155.324V194.568H158.138ZM158.138 199.062C158.81 200.112 160.084 200.574 161.764 200.644C163.304 200.7 166.468 200.658 168.134 200.546C168.008 200.798 167.84 201.302 167.784 201.624C166.244 201.68 163.318 201.708 161.764 201.652C159.888 201.582 158.586 201.092 157.676 199.986C157.046 200.588 156.388 201.19 155.674 201.806L155.114 200.742C155.744 200.28 156.514 199.664 157.186 199.062H158.138ZM155.45 189.99L156.22 189.374C157.102 190.004 158.096 190.956 158.544 191.642L157.704 192.314C157.298 191.628 156.318 190.648 155.45 189.99ZM160.518 189.752H167.574V190.732H160.518V189.752ZM160.616 192.678H166.342V193.63H160.616V192.678ZM160.014 189.752H161.036V192.986C161.036 194.946 160.812 197.704 159.37 199.58C159.202 199.384 158.754 199.09 158.516 198.978C159.874 197.228 160.014 194.792 160.014 192.986V189.752ZM166.062 192.678H166.258L166.454 192.636L167.112 192.874C166.216 196.612 163.836 198.838 161.064 199.916C160.938 199.664 160.658 199.244 160.448 199.034C162.996 198.18 165.278 196.024 166.062 192.86V192.678ZM162.24 193.308C163.15 196.178 165.096 198.292 168.078 199.132C167.84 199.342 167.546 199.748 167.392 200.042C164.312 199.02 162.338 196.766 161.316 193.546L162.24 193.308ZM173.972 189.892C173.902 190.354 173.86 190.844 173.832 191.306C173.776 192.888 173.664 196.206 173.664 198.292C173.664 199.832 174.63 200.364 175.96 200.364C178.522 200.364 179.978 198.936 180.986 197.48L181.77 198.432C180.818 199.762 178.998 201.512 175.932 201.512C173.916 201.512 172.53 200.686 172.53 198.39C172.53 196.318 172.67 192.776 172.67 191.306C172.67 190.788 172.628 190.298 172.544 189.892H173.972ZM191.78 189.696C191.752 189.934 191.724 190.214 191.71 190.634C191.682 191.194 191.682 193.07 191.682 194.246C191.682 196.094 191.892 198.544 191.892 199.482C191.892 200.462 191.248 201.456 189.428 201.456C187.412 201.456 186.306 200.742 186.306 199.384C186.306 198.11 187.524 197.256 189.54 197.256C192.494 197.256 194.804 198.852 195.882 199.734L195.238 200.728C193.978 199.566 191.906 198.166 189.414 198.166C188.07 198.166 187.356 198.684 187.356 199.328C187.356 199.986 187.902 200.462 189.288 200.462C190.1 200.462 190.786 200.224 190.786 199.244C190.786 198.166 190.646 195.478 190.646 194.246C190.646 192.986 190.646 191.516 190.646 190.536C190.646 190.298 190.632 189.878 190.59 189.696H191.78ZM186.432 191.208C187.328 191.376 189.078 191.516 190.002 191.516C191.78 191.516 193.656 191.39 195.476 191.096V192.118C193.894 192.3 191.892 192.482 190.016 192.482C189.05 192.482 187.328 192.356 186.446 192.244L186.432 191.208ZM186.362 194.19C187.356 194.344 188.952 194.442 189.876 194.442C191.906 194.442 193.768 194.302 195.588 194.036V195.086C193.684 195.324 191.976 195.422 189.876 195.422C188.91 195.422 187.37 195.352 186.376 195.24L186.362 194.19ZM207.11 189.71C207.082 189.878 207.04 190.424 207.04 190.592C206.998 191.502 207.026 194.204 207.04 195.324L205.976 194.778C205.976 194.162 205.962 191.376 205.92 190.606C205.892 190.228 205.85 189.836 205.822 189.71H207.11ZM199.662 191.67C201.566 191.642 205.066 191.516 207.222 191.516C208.93 191.516 210.666 191.516 211.324 191.53L211.31 192.566C210.526 192.524 209.266 192.496 207.208 192.496C204.8 192.496 201.804 192.594 199.69 192.748L199.662 191.67ZM207.012 195.73C207.012 197.606 206.144 198.544 204.87 198.544C203.694 198.544 202.56 197.718 202.56 196.192C202.56 194.806 203.708 193.77 205.038 193.77C206.662 193.77 207.488 194.974 207.488 196.584C207.488 198.488 206.564 200.588 203.316 201.554L202.378 200.644C204.926 200.042 206.41 198.796 206.41 196.486C206.41 195.226 205.794 194.694 205.038 194.694C204.296 194.694 203.61 195.268 203.61 196.178C203.61 197.06 204.268 197.564 205.038 197.564C205.906 197.564 206.466 196.836 206.242 195.338L207.012 195.73Z" fill="#00ABB6"/>
<g filter="url(#filter2_d_1745_11079)">
<g clip-path="url(#clip0_1745_11079)">
<g filter="url(#filter3_d_1745_11079)">
<path d="M54 65H225V129H54V65Z" fill="white"/>
</g>
</g>
<path d="M54 65.4418H225V64.5582H54V65.4418Z" fill="#04CAD6" mask="url(#path-13-inside-3_1745_11079)"/>
</g>
<path d="M198.405 77.6002L198.727 77.9219L195.558 81.0907H195.236V80.7689L198.405 77.6002ZM199.664 75.4946C199.577 75.4946 199.486 75.5296 199.419 75.5961L198.779 76.2361L200.091 77.5477L200.731 76.9076C200.867 76.7712 200.867 76.5509 200.731 76.4145L199.913 75.5961C199.843 75.5261 199.755 75.4946 199.664 75.4946ZM198.405 76.6103L194.537 80.4786V81.7902H195.849L199.717 77.9219L198.405 76.6103Z" fill="#00ABB6"/>
<path d="M208.473 78.9018H208.989V81.7293H208.473V78.9018ZM209.286 78.9018H209.809V81.7293H209.286V78.9018ZM206.812 75.5371H210.827V76.2581H206.812V75.5371ZM207.88 79.9056H210.488V80.5064H207.88V79.9056ZM207.074 76.5691H207.816V78.0535C207.816 79.1139 207.696 80.7185 206.996 81.7505C206.869 81.6091 206.544 81.3758 206.374 81.2981C207.017 80.3509 207.074 79.0008 207.074 78.0465V76.5691ZM207.392 76.5691H210.651V78.3716H207.392V77.7072H209.838V77.2406H207.392V76.5691ZM207.604 78.6827H210.559V79.3118H208.191V81.7788H207.604V78.6827ZM210.113 78.6827H210.799V81.0578C210.799 81.3405 210.771 81.5314 210.601 81.6515C210.446 81.7576 210.255 81.7788 210.007 81.7788C209.979 81.5808 209.88 81.2981 209.795 81.1072C209.908 81.1143 210.007 81.1143 210.057 81.1143C210.099 81.1143 210.113 81.1002 210.113 81.0436V78.6827ZM205.356 75.1483L206.07 75.3957C205.787 75.9471 205.462 76.5762 205.201 76.972L204.649 76.7458C204.897 76.3217 205.201 75.636 205.356 75.1483ZM206.112 75.9824L206.784 76.2864C206.289 77.0851 205.646 78.0677 205.13 78.6685L204.656 78.407C205.158 77.7708 205.766 76.7388 206.112 75.9824ZM204.26 76.7741L204.677 76.2157C205.038 76.555 205.462 77.0215 205.632 77.3396L205.186 77.9758C205.031 77.6294 204.614 77.1275 204.26 76.7741ZM205.9 77.6436L206.459 77.4174C206.713 77.9051 206.961 78.5484 207.024 78.9654L206.431 79.2199C206.374 78.8099 206.148 78.1454 205.9 77.6436ZM204.239 78.2444C204.847 78.2161 205.709 78.1596 206.558 78.103L206.565 78.8028C205.78 78.8664 204.96 78.923 204.331 78.9725L204.239 78.2444ZM206.013 79.439L206.579 79.2694C206.749 79.6723 206.89 80.2024 206.932 80.5488L206.339 80.7397C206.31 80.3862 206.176 79.849 206.013 79.439ZM204.543 79.2976L205.201 79.4107C205.13 80.0823 204.974 80.7821 204.776 81.2345C204.642 81.1426 204.345 81.0083 204.183 80.9447C204.381 80.5276 204.487 79.8914 204.543 79.2976ZM205.271 78.619H205.985V81.7788H205.271V78.619ZM211.782 79.4885H218.172V80.1671H211.782V79.4885ZM213.139 76.8589H217.422V77.4103H213.139V76.8589ZM213.139 77.7072H217.429V78.2585H213.139V77.7072ZM212.969 75.9047H217.776V76.5691H212.969V75.9047ZM214.729 76.3217H215.542V78.8028H214.729V76.3217ZM214.531 79.0361H215.38V81.7717H214.531V79.0361ZM214.468 79.7712L215.104 80.0823C214.376 80.8033 213.16 81.4253 212.085 81.7364C211.965 81.5243 211.725 81.2133 211.541 81.0365C212.616 80.8103 213.839 80.3155 214.468 79.7712ZM215.471 79.75C216.079 80.2873 217.274 80.7821 218.334 81.0153C218.158 81.185 217.924 81.496 217.804 81.701C216.737 81.3971 215.549 80.775 214.828 80.0681L215.471 79.75ZM215.083 75.1412L216.037 75.2543C215.811 75.6785 215.556 76.0743 215.358 76.35L214.609 76.2015C214.786 75.8976 214.984 75.4593 215.083 75.1412ZM213.273 75.1271L214.142 75.2967C213.669 76.1238 213.047 76.9367 212.177 77.6365C212.043 77.4456 211.767 77.1841 211.577 77.0639C212.368 76.4914 212.948 75.7491 213.273 75.1271ZM212.587 76.3358H213.393V78.5625H217.981V79.2057H212.587V76.3358Z" fill="#00ABB6"/>
<path d="M63.4895 81.0907C63.4895 81.4754 63.8043 81.7902 64.189 81.7902H66.9871C67.3718 81.7902 67.6866 81.4754 67.6866 81.0907V76.8936H63.4895V81.0907ZM64.3499 78.6004L64.8431 78.1073L65.5881 78.8488L66.3295 78.1073L66.8227 78.6004L66.0812 79.3419L66.8227 80.0834L66.3295 80.5766L65.5881 79.8351L64.8466 80.5766L64.3534 80.0834L65.0949 79.3419L64.3499 78.6004ZM66.8122 75.8444L66.4624 75.4946H64.7137L64.3639 75.8444H63.1398V76.5439H68.0363V75.8444H66.8122Z" fill="#00ABB6"/>
<path d="M76.1505 75.9965H76.9705V79.9692H76.1505V75.9965ZM77.7127 75.2755H78.5539V80.7397C78.5539 81.2415 78.4478 81.4748 78.1651 81.6162C77.8682 81.7505 77.4017 81.7788 76.7513 81.7788C76.7089 81.5314 76.5746 81.1426 76.4474 80.9022C76.921 80.9164 77.3734 80.9164 77.5218 80.9164C77.6561 80.9164 77.7127 80.874 77.7127 80.7397V75.2755ZM72.8141 79.4744H75.479V80.1883H72.8141V79.4744ZM72.8141 78.308H75.479V79.022H72.8141V78.308ZM73.6199 75.1342H74.4611V77.6294H73.6199V75.1342ZM74.7792 77.0781H75.5991V80.7962C75.5991 81.185 75.5355 81.4112 75.281 81.5384C75.0336 81.6727 74.7014 81.6798 74.1995 81.6798C74.1712 81.4536 74.0723 81.1072 73.9733 80.8952C74.249 80.9093 74.56 80.9022 74.659 80.9022C74.7509 80.8952 74.7792 80.874 74.7792 80.7821V77.0781ZM72.2486 75.6502L72.9484 75.4098C73.1463 75.8269 73.3442 76.3783 73.422 76.7458L72.6868 77.0215C72.6232 76.6539 72.4323 76.0743 72.2486 75.6502ZM75.1043 75.3533L75.9455 75.5371C75.7546 76.0602 75.5426 76.6115 75.3659 76.9791L74.659 76.7953C74.8216 76.4065 75.0124 75.7986 75.1043 75.3533ZM72.5242 77.0781H75.2103V77.8698H73.3301V81.701H72.5242V77.0781ZM82.6042 77.1841H85.3681V77.8768H82.6042V77.1841ZM82.1801 78.5201H85.8841V79.234H82.1801V78.5201ZM83.9614 75.9047C83.5656 76.5126 82.8516 77.2548 82.0953 77.7072C82.0105 77.5022 81.8267 77.1982 81.6853 77.0286C82.4487 76.6045 83.198 75.8057 83.5585 75.1483H84.3078C84.8097 75.8905 85.559 76.6115 86.3012 76.965C86.1386 77.1558 85.9619 77.4598 85.8417 77.693C85.149 77.276 84.3855 76.5267 83.9614 75.9047ZM83.5726 77.5517H84.3785V80.9093C84.3785 81.284 84.3149 81.5031 84.0745 81.6303C83.8483 81.7646 83.5373 81.7858 83.1061 81.7858C83.0778 81.5596 82.9577 81.2133 82.8446 80.9941C83.1061 81.0012 83.3747 81.0012 83.4666 81.0012C83.5514 81.0012 83.5726 80.98 83.5726 80.8952V77.5517ZM82.4558 79.5026L83.1909 79.6864C82.9647 80.3367 82.5689 80.9941 82.166 81.4041C82.0317 81.2698 81.7418 81.0295 81.5722 80.9164C81.9539 80.57 82.272 80.0399 82.4558 79.5026ZM84.6117 79.7783L85.255 79.4744C85.6226 79.948 86.0184 80.5912 86.1669 81.0295L85.4671 81.3758C85.3328 80.9517 84.9581 80.2802 84.6117 79.7783ZM79.8474 75.4452H81.5156V76.2015H80.5896V81.7858H79.8474V75.4452ZM81.2541 75.4452H81.3955L81.5156 75.4169L82.067 75.7279C81.8832 76.3358 81.65 77.1063 81.445 77.6577C81.8832 78.2091 81.968 78.6827 81.968 79.0926C81.968 79.5521 81.8762 79.849 81.65 80.0045C81.5369 80.0823 81.4025 80.1318 81.247 80.153C81.1198 80.1671 80.9502 80.1742 80.7876 80.1742C80.7805 79.9692 80.7169 79.6511 80.6038 79.4461C80.731 79.4532 80.8229 79.4602 80.9077 79.4532C80.9855 79.4532 81.0562 79.439 81.1057 79.3966C81.1905 79.333 81.2258 79.1916 81.2258 78.9937C81.2258 78.6615 81.1339 78.2232 80.731 77.7496C80.9289 77.1134 81.1551 76.1379 81.2541 75.6855V75.4452Z" fill="#00ABB6"/>
<path d="M61.1775 94.8785C61.4337 94.905 61.69 94.9226 61.9816 94.9226C62.4941 94.9226 65.0653 94.9226 65.5601 94.9226C65.8075 94.9226 66.1256 94.905 66.3819 94.8785V95.6119C66.1168 95.5942 65.8075 95.5765 65.5601 95.5765C65.0653 95.5765 62.4941 95.5765 61.9904 95.5765C61.6988 95.5765 61.4072 95.5942 61.1775 95.6119V94.8785ZM60.126 97.0963C60.3646 97.1228 60.6208 97.1316 60.8948 97.1316C61.4072 97.1316 66.2051 97.1316 66.6734 97.1316C66.859 97.1316 67.1506 97.1228 67.3715 97.0963V97.8208C67.1682 97.812 66.8943 97.8032 66.6734 97.8032C66.2051 97.8032 61.4072 97.8032 60.8948 97.8032C60.6297 97.8032 60.3646 97.812 60.126 97.8297V97.0963ZM64.2877 97.4497C64.2877 98.563 64.1464 99.482 63.7488 100.224C63.4307 100.816 62.7591 101.444 62.0169 101.832L61.3631 101.355C62.0434 101.064 62.6796 100.56 63.0242 99.9945C63.466 99.2964 63.5367 98.4305 63.5455 97.4586L64.2877 97.4497ZM71.5774 95.1612C71.5332 94.9403 71.4802 94.7459 71.4183 94.5604L72.2047 94.4278C72.2224 94.5869 72.2577 94.8431 72.2931 95.0375C72.3461 95.4263 73.318 100.277 73.4417 100.86C73.5036 101.108 73.5743 101.408 73.6626 101.664L72.8497 101.815C72.8056 101.514 72.779 101.24 72.7172 100.984C72.6288 100.427 71.6834 95.6207 71.5774 95.1612ZM69.0856 96.4424C69.3065 96.4248 69.5451 96.4071 69.8279 96.3806C70.6231 96.2922 73.6715 95.8062 74.5109 95.6384C74.7671 95.5942 74.9969 95.5412 75.1471 95.497L75.2884 96.2392C75.1559 96.248 74.8908 96.2922 74.6523 96.3276C73.7422 96.4689 70.7291 96.9461 69.9516 97.0786C69.713 97.1228 69.5009 97.167 69.2447 97.2288L69.0856 96.4424ZM69.0591 98.9872C69.2712 98.9783 69.607 98.943 69.8367 98.9076C70.7821 98.7839 74.0691 98.2449 75.1294 98.0506C75.4652 97.9887 75.7214 97.9269 75.907 97.8738L76.0572 98.6161C75.8716 98.6337 75.5889 98.6867 75.2619 98.7398C74.0868 98.9165 70.897 99.4378 70.0046 99.5968C69.66 99.6587 69.4126 99.7117 69.2182 99.7647L69.0591 98.9872ZM83.7508 95.5058C83.6978 95.5765 83.5829 95.7709 83.5388 95.8858C83.1853 96.7605 82.5138 97.9975 81.7804 98.8104C80.7908 99.9149 79.5273 100.966 78.1312 101.603L77.5657 101.011C78.9971 100.463 80.296 99.4025 81.2061 98.3952C81.8069 97.7148 82.4519 96.6633 82.6817 95.9299C82.3636 95.9299 79.5361 95.9299 79.2357 95.9299C78.9176 95.9299 78.4404 95.9653 78.3432 95.9741V95.1789C78.4581 95.1966 78.9618 95.2319 79.2357 95.2319C79.5803 95.2319 82.3106 95.2319 82.6463 95.2319C82.9291 95.2319 83.1677 95.2054 83.309 95.1612L83.7508 95.5058ZM81.8953 98.351C82.8496 99.1462 84.0247 100.383 84.6256 101.117L84.0159 101.656C83.3797 100.816 82.3459 99.6852 81.3916 98.8458L81.8953 98.351ZM88.4957 100.631C88.4957 100.136 88.4957 96.2304 88.4957 95.497C88.4957 95.2407 88.478 94.852 88.4338 94.5692H89.2998C89.2644 94.8431 89.2379 95.2231 89.2379 95.497C89.2379 96.8665 89.2468 100.215 89.2468 100.631C89.2468 100.913 89.2644 101.391 89.2998 101.682H88.4427C88.4869 101.399 88.4957 100.958 88.4957 100.631ZM89.0789 96.8931C90.2452 97.2288 92.0301 97.9092 93.0108 98.3863L92.7016 99.1374C91.6943 98.5984 90.042 97.971 89.0789 97.6706V96.8931ZM96.2536 94.8785C96.5099 94.905 96.7661 94.9226 97.0577 94.9226C97.5702 94.9226 100.141 94.9226 100.636 94.9226C100.884 94.9226 101.202 94.905 101.458 94.8785V95.6119C101.193 95.5942 100.884 95.5765 100.636 95.5765C100.141 95.5765 97.5702 95.5765 97.0665 95.5765C96.7749 95.5765 96.4834 95.5942 96.2536 95.6119V94.8785ZM95.2022 97.0963C95.4407 97.1228 95.697 97.1316 95.9709 97.1316C96.4834 97.1316 101.281 97.1316 101.75 97.1316C101.935 97.1316 102.227 97.1228 102.448 97.0963V97.8208C102.244 97.812 101.97 97.8032 101.75 97.8032C101.281 97.8032 96.4834 97.8032 95.9709 97.8032C95.7058 97.8032 95.4407 97.812 95.2022 97.8297V97.0963ZM99.3639 97.4497C99.3639 98.563 99.2225 99.482 98.8249 100.224C98.5068 100.816 97.8352 101.444 97.093 101.832L96.4392 101.355C97.1195 101.064 97.7557 100.56 98.1003 99.9945C98.5421 99.2964 98.6128 98.4305 98.6216 97.4586L99.3639 97.4497ZM106.653 95.1612C106.609 94.9403 106.556 94.7459 106.494 94.5604L107.281 94.4278C107.299 94.5869 107.334 94.8431 107.369 95.0375C107.422 95.4263 108.394 100.277 108.518 100.86C108.58 101.108 108.65 101.408 108.739 101.664L107.926 101.815C107.882 101.514 107.855 101.24 107.793 100.984C107.705 100.427 106.76 95.6207 106.653 95.1612ZM104.162 96.4424C104.383 96.4248 104.621 96.4071 104.904 96.3806C105.699 96.2922 108.748 95.8062 109.587 95.6384C109.843 95.5942 110.073 95.5412 110.223 95.497L110.365 96.2392C110.232 96.248 109.967 96.2922 109.728 96.3276C108.818 96.4689 105.805 96.9461 105.028 97.0786C104.789 97.1228 104.577 97.167 104.321 97.2288L104.162 96.4424ZM104.135 98.9872C104.347 98.9783 104.683 98.943 104.913 98.9076C105.858 98.7839 109.145 98.2449 110.206 98.0506C110.541 97.9887 110.798 97.9269 110.983 97.8738L111.133 98.6161C110.948 98.6337 110.665 98.6867 110.338 98.7398C109.163 98.9165 105.973 99.4378 105.081 99.5968C104.736 99.6587 104.489 99.7117 104.294 99.7647L104.135 98.9872ZM118.827 95.5058C118.774 95.5765 118.659 95.7709 118.615 95.8858C118.261 96.7605 117.59 97.9975 116.857 98.8104C115.867 99.9149 114.603 100.966 113.207 101.603L112.642 101.011C114.073 100.463 115.372 99.4025 116.282 98.3952C116.883 97.7148 117.528 96.6633 117.758 95.9299C117.44 95.9299 114.612 95.9299 114.312 95.9299C113.994 95.9299 113.517 95.9653 113.419 95.9741V95.1789C113.534 95.1966 114.038 95.2319 114.312 95.2319C114.656 95.2319 117.387 95.2319 117.722 95.2319C118.005 95.2319 118.244 95.2054 118.385 95.1612L118.827 95.5058ZM116.971 98.351C117.926 99.1462 119.101 100.383 119.702 101.117L119.092 101.656C118.456 100.816 117.422 99.6852 116.468 98.8458L116.971 98.351ZM123.572 100.631C123.572 100.136 123.572 96.2304 123.572 95.497C123.572 95.2407 123.554 94.852 123.51 94.5692H124.376C124.341 94.8431 124.314 95.2231 124.314 95.497C124.314 96.8665 124.323 100.215 124.323 100.631C124.323 100.913 124.341 101.391 124.376 101.682H123.519C123.563 101.399 123.572 100.958 123.572 100.631ZM124.155 96.8931C125.321 97.2288 127.106 97.9092 128.087 98.3863L127.778 99.1374C126.77 98.5984 125.118 97.971 124.155 97.6706V96.8931ZM131.33 94.8785C131.586 94.905 131.842 94.9226 132.134 94.9226C132.646 94.9226 135.218 94.9226 135.712 94.9226C135.96 94.9226 136.278 94.905 136.534 94.8785V95.6119C136.269 95.5942 135.96 95.5765 135.712 95.5765C135.218 95.5765 132.646 95.5765 132.143 95.5765C131.851 95.5765 131.559 95.5942 131.33 95.6119V94.8785ZM130.278 97.0963C130.517 97.1228 130.773 97.1316 131.047 97.1316C131.559 97.1316 136.357 97.1316 136.826 97.1316C137.011 97.1316 137.303 97.1228 137.524 97.0963V97.8208C137.32 97.812 137.047 97.8032 136.826 97.8032C136.357 97.8032 131.559 97.8032 131.047 97.8032C130.782 97.8032 130.517 97.812 130.278 97.8297V97.0963ZM134.44 97.4497C134.44 98.563 134.299 99.482 133.901 100.224C133.583 100.816 132.911 101.444 132.169 101.832L131.515 101.355C132.196 101.064 132.832 100.56 133.176 99.9945C133.618 99.2964 133.689 98.4305 133.698 97.4586L134.44 97.4497ZM141.73 95.1612C141.685 94.9403 141.632 94.7459 141.571 94.5604L142.357 94.4278C142.375 94.5869 142.41 94.8431 142.445 95.0375C142.498 95.4263 143.47 100.277 143.594 100.86C143.656 101.108 143.727 101.408 143.815 101.664L143.002 101.815C142.958 101.514 142.931 101.24 142.869 100.984C142.781 100.427 141.836 95.6207 141.73 95.1612ZM139.238 96.4424C139.459 96.4248 139.697 96.4071 139.98 96.3806C140.775 96.2922 143.824 95.8062 144.663 95.6384C144.919 95.5942 145.149 95.5412 145.299 95.497L145.441 96.2392C145.308 96.248 145.043 96.2922 144.804 96.3276C143.894 96.4689 140.881 96.9461 140.104 97.0786C139.865 97.1228 139.653 97.167 139.397 97.2288L139.238 96.4424ZM139.211 98.9872C139.423 98.9783 139.759 98.943 139.989 98.9076C140.934 98.7839 144.221 98.2449 145.282 98.0506C145.617 97.9887 145.874 97.9269 146.059 97.8738L146.209 98.6161C146.024 98.6337 145.741 98.6867 145.414 98.7398C144.239 98.9165 141.049 99.4378 140.157 99.5968C139.812 99.6587 139.565 99.7117 139.37 99.7647L139.211 98.9872ZM153.903 95.5058C153.85 95.5765 153.735 95.7709 153.691 95.8858C153.338 96.7605 152.666 97.9975 151.933 98.8104C150.943 99.9149 149.679 100.966 148.283 101.603L147.718 101.011C149.149 100.463 150.448 99.4025 151.358 98.3952C151.959 97.7148 152.604 96.6633 152.834 95.9299C152.516 95.9299 149.688 95.9299 149.388 95.9299C149.07 95.9299 148.593 95.9653 148.495 95.9741V95.1789C148.61 95.1966 149.114 95.2319 149.388 95.2319C149.733 95.2319 152.463 95.2319 152.799 95.2319C153.081 95.2319 153.32 95.2054 153.461 95.1612L153.903 95.5058ZM152.048 98.351C153.002 99.1462 154.177 100.383 154.778 101.117L154.168 101.656C153.532 100.816 152.498 99.6852 151.544 98.8458L152.048 98.351ZM158.648 100.631C158.648 100.136 158.648 96.2304 158.648 95.497C158.648 95.2407 158.63 94.852 158.586 94.5692H159.452C159.417 94.8431 159.39 95.2231 159.39 95.497C159.39 96.8665 159.399 100.215 159.399 100.631C159.399 100.913 159.417 101.391 159.452 101.682H158.595C158.639 101.399 158.648 100.958 158.648 100.631ZM159.231 96.8931C160.397 97.2288 162.182 97.9092 163.163 98.3863L162.854 99.1374C161.847 98.5984 160.194 97.971 159.231 97.6706V96.8931ZM166.406 94.8785C166.662 94.905 166.918 94.9226 167.21 94.9226C167.722 94.9226 170.294 94.9226 170.788 94.9226C171.036 94.9226 171.354 94.905 171.61 94.8785V95.6119C171.345 95.5942 171.036 95.5765 170.788 95.5765C170.294 95.5765 167.722 95.5765 167.219 95.5765C166.927 95.5765 166.636 95.5942 166.406 95.6119V94.8785ZM165.354 97.0963C165.593 97.1228 165.849 97.1316 166.123 97.1316C166.636 97.1316 171.433 97.1316 171.902 97.1316C172.087 97.1316 172.379 97.1228 172.6 97.0963V97.8208C172.397 97.812 172.123 97.8032 171.902 97.8032C171.433 97.8032 166.636 97.8032 166.123 97.8032C165.858 97.8032 165.593 97.812 165.354 97.8297V97.0963ZM169.516 97.4497C169.516 98.563 169.375 99.482 168.977 100.224C168.659 100.816 167.987 101.444 167.245 101.832L166.591 101.355C167.272 101.064 167.908 100.56 168.253 99.9945C168.694 99.2964 168.765 98.4305 168.774 97.4586L169.516 97.4497ZM176.806 95.1612C176.762 94.9403 176.709 94.7459 176.647 94.5604L177.433 94.4278C177.451 94.5869 177.486 94.8431 177.521 95.0375C177.574 95.4263 178.546 100.277 178.67 100.86C178.732 101.108 178.803 101.408 178.891 101.664L178.078 101.815C178.034 101.514 178.007 101.24 177.946 100.984C177.857 100.427 176.912 95.6207 176.806 95.1612ZM174.314 96.4424C174.535 96.4248 174.773 96.4071 175.056 96.3806C175.851 96.2922 178.9 95.8062 179.739 95.6384C179.995 95.5942 180.225 95.5412 180.375 95.497L180.517 96.2392C180.384 96.248 180.119 96.2922 179.881 96.3276C178.971 96.4689 175.957 96.9461 175.18 97.0786C174.941 97.1228 174.729 97.167 174.473 97.2288L174.314 96.4424ZM174.287 98.9872C174.5 98.9783 174.835 98.943 175.065 98.9076C176.01 98.7839 179.297 98.2449 180.358 98.0506C180.694 97.9887 180.95 97.9269 181.135 97.8738L181.286 98.6161C181.1 98.6337 180.817 98.6867 180.49 98.7398C179.315 98.9165 176.125 99.4378 175.233 99.5968C174.888 99.6587 174.641 99.7117 174.447 99.7647L174.287 98.9872ZM188.979 95.5058C188.926 95.5765 188.811 95.7709 188.767 95.8858C188.414 96.7605 187.742 97.9975 187.009 98.8104C186.019 99.9149 184.756 100.966 183.36 101.603L182.794 101.011C184.225 100.463 185.524 99.4025 186.434 98.3952C187.035 97.7148 187.68 96.6633 187.91 95.9299C187.592 95.9299 184.764 95.9299 184.464 95.9299C184.146 95.9299 183.669 95.9653 183.572 95.9741V95.1789C183.686 95.1966 184.19 95.2319 184.464 95.2319C184.809 95.2319 187.539 95.2319 187.875 95.2319C188.157 95.2319 188.396 95.2054 188.537 95.1612L188.979 95.5058ZM187.124 98.351C188.078 99.1462 189.253 100.383 189.854 101.117L189.244 101.656C188.608 100.816 187.574 99.6852 186.62 98.8458L187.124 98.351ZM193.724 100.631C193.724 100.136 193.724 96.2304 193.724 95.497C193.724 95.2407 193.706 94.852 193.662 94.5692H194.528C194.493 94.8431 194.466 95.2231 194.466 95.497C194.466 96.8665 194.475 100.215 194.475 100.631C194.475 100.913 194.493 101.391 194.528 101.682H193.671C193.715 101.399 193.724 100.958 193.724 100.631ZM194.307 96.8931C195.474 97.2288 197.258 97.9092 198.239 98.3863L197.93 99.1374C196.923 98.5984 195.27 97.971 194.307 97.6706V96.8931ZM201.482 94.8785C201.738 94.905 201.994 94.9226 202.286 94.9226C202.799 94.9226 205.37 94.9226 205.865 94.9226C206.112 94.9226 206.43 94.905 206.686 94.8785V95.6119C206.421 95.5942 206.112 95.5765 205.865 95.5765C205.37 95.5765 202.799 95.5765 202.295 95.5765C202.003 95.5765 201.712 95.5942 201.482 95.6119V94.8785ZM200.431 97.0963C200.669 97.1228 200.925 97.1316 201.199 97.1316C201.712 97.1316 206.51 97.1316 206.978 97.1316C207.163 97.1316 207.455 97.1228 207.676 97.0963V97.8208C207.473 97.812 207.199 97.8032 206.978 97.8032C206.51 97.8032 201.712 97.8032 201.199 97.8032C200.934 97.8032 200.669 97.812 200.431 97.8297V97.0963ZM204.592 97.4497C204.592 98.563 204.451 99.482 204.053 100.224C203.735 100.816 203.064 101.444 202.321 101.832L201.668 101.355C202.348 101.064 202.984 100.56 203.329 99.9945C203.77 99.2964 203.841 98.4305 203.85 97.4586L204.592 97.4497ZM211.882 95.1612C211.838 94.9403 211.785 94.7459 211.723 94.5604L212.509 94.4278C212.527 94.5869 212.562 94.8431 212.598 95.0375C212.651 95.4263 213.623 100.277 213.746 100.86C213.808 101.108 213.879 101.408 213.967 101.664L213.154 101.815C213.11 101.514 213.084 101.24 213.022 100.984C212.933 100.427 211.988 95.6207 211.882 95.1612ZM209.39 96.4424C209.611 96.4248 209.85 96.4071 210.132 96.3806C210.928 96.2922 213.976 95.8062 214.815 95.6384C215.072 95.5942 215.301 95.5412 215.452 95.497L215.593 96.2392C215.46 96.248 215.195 96.2922 214.957 96.3276C214.047 96.4689 211.034 96.9461 210.256 97.0786C210.017 97.1228 209.805 97.167 209.549 97.2288L209.39 96.4424ZM209.364 98.9872C209.576 98.9783 209.911 98.943 210.141 98.9076C211.087 98.7839 214.374 98.2449 215.434 98.0506C215.77 97.9887 216.026 97.9269 216.211 97.8738L216.362 98.6161C216.176 98.6337 215.893 98.6867 215.566 98.7398C214.391 98.9165 211.201 99.4378 210.309 99.5968C209.964 99.6587 209.717 99.7117 209.523 99.7647L209.364 98.9872ZM61.1775 107.878C61.4337 107.905 61.69 107.923 61.9816 107.923C62.4941 107.923 65.0653 107.923 65.5601 107.923C65.8075 107.923 66.1256 107.905 66.3819 107.878V108.612C66.1168 108.594 65.8075 108.577 65.5601 108.577C65.0653 108.577 62.4941 108.577 61.9904 108.577C61.6988 108.577 61.4072 108.594 61.1775 108.612V107.878ZM60.126 110.096C60.3646 110.123 60.6208 110.132 60.8948 110.132C61.4072 110.132 66.2051 110.132 66.6734 110.132C66.859 110.132 67.1506 110.123 67.3715 110.096V110.821C67.1682 110.812 66.8943 110.803 66.6734 110.803C66.2051 110.803 61.4072 110.803 60.8948 110.803C60.6297 110.803 60.3646 110.812 60.126 110.83V110.096ZM64.2877 110.45C64.2877 111.563 64.1464 112.482 63.7488 113.224C63.4307 113.816 62.7591 114.444 62.0169 114.832L61.3631 114.355C62.0434 114.064 62.6796 113.56 63.0242 112.994C63.466 112.296 63.5367 111.431 63.5455 110.459L64.2877 110.45ZM71.5774 108.161C71.5332 107.94 71.4802 107.746 71.4183 107.56L72.2047 107.428C72.2224 107.587 72.2577 107.843 72.2931 108.038C72.3461 108.426 73.318 113.277 73.4417 113.86C73.5036 114.108 73.5743 114.408 73.6626 114.664L72.8497 114.815C72.8056 114.514 72.779 114.24 72.7172 113.984C72.6288 113.427 71.6834 108.621 71.5774 108.161ZM69.0856 109.442C69.3065 109.425 69.5451 109.407 69.8279 109.381C70.6231 109.292 73.6715 108.806 74.5109 108.638C74.7671 108.594 74.9969 108.541 75.1471 108.497L75.2884 109.239C75.1559 109.248 74.8908 109.292 74.6523 109.328C73.7422 109.469 70.7291 109.946 69.9516 110.079C69.713 110.123 69.5009 110.167 69.2447 110.229L69.0856 109.442ZM69.0591 111.987C69.2712 111.978 69.607 111.943 69.8367 111.908C70.7821 111.784 74.0691 111.245 75.1294 111.051C75.4652 110.989 75.7214 110.927 75.907 110.874L76.0572 111.616C75.8716 111.634 75.5889 111.687 75.2619 111.74C74.0868 111.916 70.897 112.438 70.0046 112.597C69.66 112.659 69.4126 112.712 69.2182 112.765L69.0591 111.987ZM83.7508 108.506C83.6978 108.577 83.5829 108.771 83.5388 108.886C83.1853 109.761 82.5138 110.998 81.7804 111.81C80.7908 112.915 79.5273 113.966 78.1312 114.603L77.5657 114.011C78.9971 113.463 80.296 112.402 81.2061 111.395C81.8069 110.715 82.4519 109.663 82.6817 108.93C82.3636 108.93 79.5361 108.93 79.2357 108.93C78.9176 108.93 78.4404 108.965 78.3432 108.974V108.179C78.4581 108.197 78.9618 108.232 79.2357 108.232C79.5803 108.232 82.3106 108.232 82.6463 108.232C82.9291 108.232 83.1677 108.205 83.309 108.161L83.7508 108.506ZM81.8953 111.351C82.8496 112.146 84.0247 113.383 84.6256 114.117L84.0159 114.656C83.3797 113.816 82.3459 112.685 81.3916 111.846L81.8953 111.351ZM88.4957 113.631C88.4957 113.136 88.4957 109.23 88.4957 108.497C88.4957 108.241 88.478 107.852 88.4338 107.569H89.2998C89.2644 107.843 89.2379 108.223 89.2379 108.497C89.2379 109.867 89.2468 113.215 89.2468 113.631C89.2468 113.913 89.2644 114.391 89.2998 114.682H88.4427C88.4869 114.399 88.4957 113.958 88.4957 113.631ZM89.0789 109.893C90.2452 110.229 92.0301 110.909 93.0108 111.386L92.7016 112.137C91.6943 111.598 90.042 110.971 89.0789 110.671V109.893ZM96.2536 107.878C96.5099 107.905 96.7661 107.923 97.0577 107.923C97.5702 107.923 100.141 107.923 100.636 107.923C100.884 107.923 101.202 107.905 101.458 107.878V108.612C101.193 108.594 100.884 108.577 100.636 108.577C100.141 108.577 97.5702 108.577 97.0665 108.577C96.7749 108.577 96.4834 108.594 96.2536 108.612V107.878ZM95.2022 110.096C95.4407 110.123 95.697 110.132 95.9709 110.132C96.4834 110.132 101.281 110.132 101.75 110.132C101.935 110.132 102.227 110.123 102.448 110.096V110.821C102.244 110.812 101.97 110.803 101.75 110.803C101.281 110.803 96.4834 110.803 95.9709 110.803C95.7058 110.803 95.4407 110.812 95.2022 110.83V110.096ZM99.3639 110.45C99.3639 111.563 99.2225 112.482 98.8249 113.224C98.5068 113.816 97.8352 114.444 97.093 114.832L96.4392 114.355C97.1195 114.064 97.7557 113.56 98.1003 112.994C98.5421 112.296 98.6128 111.431 98.6216 110.459L99.3639 110.45ZM106.653 108.161C106.609 107.94 106.556 107.746 106.494 107.56L107.281 107.428C107.299 107.587 107.334 107.843 107.369 108.038C107.422 108.426 108.394 113.277 108.518 113.86C108.58 114.108 108.65 114.408 108.739 114.664L107.926 114.815C107.882 114.514 107.855 114.24 107.793 113.984C107.705 113.427 106.76 108.621 106.653 108.161ZM104.162 109.442C104.383 109.425 104.621 109.407 104.904 109.381C105.699 109.292 108.748 108.806 109.587 108.638C109.843 108.594 110.073 108.541 110.223 108.497L110.365 109.239C110.232 109.248 109.967 109.292 109.728 109.328C108.818 109.469 105.805 109.946 105.028 110.079C104.789 110.123 104.577 110.167 104.321 110.229L104.162 109.442ZM104.135 111.987C104.347 111.978 104.683 111.943 104.913 111.908C105.858 111.784 109.145 111.245 110.206 111.051C110.541 110.989 110.798 110.927 110.983 110.874L111.133 111.616C110.948 111.634 110.665 111.687 110.338 111.74C109.163 111.916 105.973 112.438 105.081 112.597C104.736 112.659 104.489 112.712 104.294 112.765L104.135 111.987ZM118.827 108.506C118.774 108.577 118.659 108.771 118.615 108.886C118.261 109.761 117.59 110.998 116.857 111.81C115.867 112.915 114.603 113.966 113.207 114.603L112.642 114.011C114.073 113.463 115.372 112.402 116.282 111.395C116.883 110.715 117.528 109.663 117.758 108.93C117.44 108.93 114.612 108.93 114.312 108.93C113.994 108.93 113.517 108.965 113.419 108.974V108.179C113.534 108.197 114.038 108.232 114.312 108.232C114.656 108.232 117.387 108.232 117.722 108.232C118.005 108.232 118.244 108.205 118.385 108.161L118.827 108.506ZM116.971 111.351C117.926 112.146 119.101 113.383 119.702 114.117L119.092 114.656C118.456 113.816 117.422 112.685 116.468 111.846L116.971 111.351ZM123.572 113.631C123.572 113.136 123.572 109.23 123.572 108.497C123.572 108.241 123.554 107.852 123.51 107.569H124.376C124.341 107.843 124.314 108.223 124.314 108.497C124.314 109.867 124.323 113.215 124.323 113.631C124.323 113.913 124.341 114.391 124.376 114.682H123.519C123.563 114.399 123.572 113.958 123.572 113.631ZM124.155 109.893C125.321 110.229 127.106 110.909 128.087 111.386L127.778 112.137C126.77 111.598 125.118 110.971 124.155 110.671V109.893ZM131.33 107.878C131.586 107.905 131.842 107.923 132.134 107.923C132.646 107.923 135.218 107.923 135.712 107.923C135.96 107.923 136.278 107.905 136.534 107.878V108.612C136.269 108.594 135.96 108.577 135.712 108.577C135.218 108.577 132.646 108.577 132.143 108.577C131.851 108.577 131.559 108.594 131.33 108.612V107.878ZM130.278 110.096C130.517 110.123 130.773 110.132 131.047 110.132C131.559 110.132 136.357 110.132 136.826 110.132C137.011 110.132 137.303 110.123 137.524 110.096V110.821C137.32 110.812 137.047 110.803 136.826 110.803C136.357 110.803 131.559 110.803 131.047 110.803C130.782 110.803 130.517 110.812 130.278 110.83V110.096ZM134.44 110.45C134.44 111.563 134.299 112.482 133.901 113.224C133.583 113.816 132.911 114.444 132.169 114.832L131.515 114.355C132.196 114.064 132.832 113.56 133.176 112.994C133.618 112.296 133.689 111.431 133.698 110.459L134.44 110.45ZM141.73 108.161C141.685 107.94 141.632 107.746 141.571 107.56L142.357 107.428C142.375 107.587 142.41 107.843 142.445 108.038C142.498 108.426 143.47 113.277 143.594 113.86C143.656 114.108 143.727 114.408 143.815 114.664L143.002 114.815C142.958 114.514 142.931 114.24 142.869 113.984C142.781 113.427 141.836 108.621 141.73 108.161ZM139.238 109.442C139.459 109.425 139.697 109.407 139.98 109.381C140.775 109.292 143.824 108.806 144.663 108.638C144.919 108.594 145.149 108.541 145.299 108.497L145.441 109.239C145.308 109.248 145.043 109.292 144.804 109.328C143.894 109.469 140.881 109.946 140.104 110.079C139.865 110.123 139.653 110.167 139.397 110.229L139.238 109.442ZM139.211 111.987C139.423 111.978 139.759 111.943 139.989 111.908C140.934 111.784 144.221 111.245 145.282 111.051C145.617 110.989 145.874 110.927 146.059 110.874L146.209 111.616C146.024 111.634 145.741 111.687 145.414 111.74C144.239 111.916 141.049 112.438 140.157 112.597C139.812 112.659 139.565 112.712 139.37 112.765L139.211 111.987ZM153.903 108.506C153.85 108.577 153.735 108.771 153.691 108.886C153.338 109.761 152.666 110.998 151.933 111.81C150.943 112.915 149.679 113.966 148.283 114.603L147.718 114.011C149.149 113.463 150.448 112.402 151.358 111.395C151.959 110.715 152.604 109.663 152.834 108.93C152.516 108.93 149.688 108.93 149.388 108.93C149.07 108.93 148.593 108.965 148.495 108.974V108.179C148.61 108.197 149.114 108.232 149.388 108.232C149.733 108.232 152.463 108.232 152.799 108.232C153.081 108.232 153.32 108.205 153.461 108.161L153.903 108.506ZM152.048 111.351C153.002 112.146 154.177 113.383 154.778 114.117L154.168 114.656C153.532 113.816 152.498 112.685 151.544 111.846L152.048 111.351ZM158.648 113.631C158.648 113.136 158.648 109.23 158.648 108.497C158.648 108.241 158.63 107.852 158.586 107.569H159.452C159.417 107.843 159.39 108.223 159.39 108.497C159.39 109.867 159.399 113.215 159.399 113.631C159.399 113.913 159.417 114.391 159.452 114.682H158.595C158.639 114.399 158.648 113.958 158.648 113.631ZM159.231 109.893C160.397 110.229 162.182 110.909 163.163 111.386L162.854 112.137C161.847 111.598 160.194 110.971 159.231 110.671V109.893ZM166.406 107.878C166.662 107.905 166.918 107.923 167.21 107.923C167.722 107.923 170.294 107.923 170.788 107.923C171.036 107.923 171.354 107.905 171.61 107.878V108.612C171.345 108.594 171.036 108.577 170.788 108.577C170.294 108.577 167.722 108.577 167.219 108.577C166.927 108.577 166.636 108.594 166.406 108.612V107.878ZM165.354 110.096C165.593 110.123 165.849 110.132 166.123 110.132C166.636 110.132 171.433 110.132 171.902 110.132C172.087 110.132 172.379 110.123 172.6 110.096V110.821C172.397 110.812 172.123 110.803 171.902 110.803C171.433 110.803 166.636 110.803 166.123 110.803C165.858 110.803 165.593 110.812 165.354 110.83V110.096ZM169.516 110.45C169.516 111.563 169.375 112.482 168.977 113.224C168.659 113.816 167.987 114.444 167.245 114.832L166.591 114.355C167.272 114.064 167.908 113.56 168.253 112.994C168.694 112.296 168.765 111.431 168.774 110.459L169.516 110.45ZM176.806 108.161C176.762 107.94 176.709 107.746 176.647 107.56L177.433 107.428C177.451 107.587 177.486 107.843 177.521 108.038C177.574 108.426 178.546 113.277 178.67 113.86C178.732 114.108 178.803 114.408 178.891 114.664L178.078 114.815C178.034 114.514 178.007 114.24 177.946 113.984C177.857 113.427 176.912 108.621 176.806 108.161ZM174.314 109.442C174.535 109.425 174.773 109.407 175.056 109.381C175.851 109.292 178.9 108.806 179.739 108.638C179.995 108.594 180.225 108.541 180.375 108.497L180.517 109.239C180.384 109.248 180.119 109.292 179.881 109.328C178.971 109.469 175.957 109.946 175.18 110.079C174.941 110.123 174.729 110.167 174.473 110.229L174.314 109.442ZM174.287 111.987C174.5 111.978 174.835 111.943 175.065 111.908C176.01 111.784 179.297 111.245 180.358 111.051C180.694 110.989 180.95 110.927 181.135 110.874L181.286 111.616C181.1 111.634 180.817 111.687 180.49 111.74C179.315 111.916 176.125 112.438 175.233 112.597C174.888 112.659 174.641 112.712 174.447 112.765L174.287 111.987ZM188.979 108.506C188.926 108.577 188.811 108.771 188.767 108.886C188.414 109.761 187.742 110.998 187.009 111.81C186.019 112.915 184.756 113.966 183.36 114.603L182.794 114.011C184.225 113.463 185.524 112.402 186.434 111.395C187.035 110.715 187.68 109.663 187.91 108.93C187.592 108.93 184.764 108.93 184.464 108.93C184.146 108.93 183.669 108.965 183.572 108.974V108.179C183.686 108.197 184.19 108.232 184.464 108.232C184.809 108.232 187.539 108.232 187.875 108.232C188.157 108.232 188.396 108.205 188.537 108.161L188.979 108.506ZM187.124 111.351C188.078 112.146 189.253 113.383 189.854 114.117L189.244 114.656C188.608 113.816 187.574 112.685 186.62 111.846L187.124 111.351ZM193.724 113.631C193.724 113.136 193.724 109.23 193.724 108.497C193.724 108.241 193.706 107.852 193.662 107.569H194.528C194.493 107.843 194.466 108.223 194.466 108.497C194.466 109.867 194.475 113.215 194.475 113.631C194.475 113.913 194.493 114.391 194.528 114.682H193.671C193.715 114.399 193.724 113.958 193.724 113.631ZM194.307 109.893C195.474 110.229 197.258 110.909 198.239 111.386L197.93 112.137C196.923 111.598 195.27 110.971 194.307 110.671V109.893ZM201.482 107.878C201.738 107.905 201.994 107.923 202.286 107.923C202.799 107.923 205.37 107.923 205.865 107.923C206.112 107.923 206.43 107.905 206.686 107.878V108.612C206.421 108.594 206.112 108.577 205.865 108.577C205.37 108.577 202.799 108.577 202.295 108.577C202.003 108.577 201.712 108.594 201.482 108.612V107.878ZM200.431 110.096C200.669 110.123 200.925 110.132 201.199 110.132C201.712 110.132 206.51 110.132 206.978 110.132C207.163 110.132 207.455 110.123 207.676 110.096V110.821C207.473 110.812 207.199 110.803 206.978 110.803C206.51 110.803 201.712 110.803 201.199 110.803C200.934 110.803 200.669 110.812 200.431 110.83V110.096ZM204.592 110.45C204.592 111.563 204.451 112.482 204.053 113.224C203.735 113.816 203.064 114.444 202.321 114.832L201.668 114.355C202.348 114.064 202.984 113.56 203.329 112.994C203.77 112.296 203.841 111.431 203.85 110.459L204.592 110.45ZM211.882 108.161C211.838 107.94 211.785 107.746 211.723 107.56L212.509 107.428C212.527 107.587 212.562 107.843 212.598 108.038C212.651 108.426 213.623 113.277 213.746 113.86C213.808 114.108 213.879 114.408 213.967 114.664L213.154 114.815C213.11 114.514 213.084 114.24 213.022 113.984C212.933 113.427 211.988 108.621 211.882 108.161ZM209.39 109.442C209.611 109.425 209.85 109.407 210.132 109.381C210.928 109.292 213.976 108.806 214.815 108.638C215.072 108.594 215.301 108.541 215.452 108.497L215.593 109.239C215.46 109.248 215.195 109.292 214.957 109.328C214.047 109.469 211.034 109.946 210.256 110.079C210.017 110.123 209.805 110.167 209.549 110.229L209.39 109.442ZM209.364 111.987C209.576 111.978 209.911 111.943 210.141 111.908C211.087 111.784 214.374 111.245 215.434 111.051C215.77 110.989 216.026 110.927 216.211 110.874L216.362 111.616C216.176 111.634 215.893 111.687 215.566 111.74C214.391 111.916 211.201 112.438 210.309 112.597C209.964 112.659 209.717 112.712 209.523 112.765L209.364 111.987Z" fill="black"/>
<rect x="64.5879" y="40.1602" width="144.909" height="15.4628" rx="3.97616" fill="#00ABB6"/>
<path d="M174.336 46.6903C174.458 46.8653 174.633 47.1617 174.73 47.3561L174.468 47.4776C174.37 47.2784 174.205 46.9868 174.074 46.8021L174.336 46.6903ZM174.866 46.4959C174.997 46.6757 175.182 46.9771 175.274 47.1569L175.012 47.2735C174.905 47.0645 174.749 46.7875 174.613 46.6077L174.866 46.4959ZM174.657 47.6574C174.618 47.7303 174.57 47.8421 174.545 47.9198C174.414 48.4058 174.113 49.0667 173.685 49.5916C173.243 50.131 172.66 50.5781 171.746 50.9134L171.396 50.5976C172.29 50.3351 172.893 49.8929 173.335 49.3778C173.714 48.9307 174.011 48.3038 174.113 47.8615H172.31L172.465 47.5116C172.665 47.5116 173.865 47.5116 174.016 47.5116C174.147 47.5116 174.254 47.497 174.336 47.463L174.657 47.6574ZM173.029 46.9236C172.951 47.0499 172.864 47.2152 172.815 47.3075C172.529 47.8421 172.018 48.537 171.241 49.057L170.901 48.8043C171.741 48.3038 172.218 47.5991 172.431 47.1617C172.48 47.0791 172.553 46.8993 172.582 46.7778L173.029 46.9236ZM176.601 46.9625C176.727 46.9771 176.878 46.9868 177.034 46.9868C177.296 46.9868 178.662 46.9868 178.948 46.9868C179.099 46.9868 179.269 46.9771 179.386 46.9625V47.3658C179.274 47.3561 179.104 47.3513 178.939 47.3513C178.666 47.3513 177.301 47.3513 177.034 47.3513C176.888 47.3513 176.732 47.3561 176.601 47.3658V46.9625ZM179.745 48.2406C179.721 48.2892 179.687 48.3475 179.677 48.3864C179.551 48.8626 179.332 49.368 178.968 49.7665C178.462 50.3254 177.85 50.6073 177.233 50.7822L176.931 50.4372C177.617 50.2963 178.224 49.9804 178.642 49.543C178.934 49.2368 179.128 48.8238 179.216 48.469C178.977 48.469 176.931 48.469 176.64 48.469C176.523 48.469 176.339 48.4739 176.164 48.4884V48.0802C176.339 48.0948 176.504 48.1094 176.64 48.1094C176.878 48.1094 178.948 48.1094 179.196 48.1094C179.308 48.1094 179.415 48.0948 179.468 48.0705L179.745 48.2406ZM184.522 47.3513C184.488 47.4193 184.469 47.497 184.449 47.5942C184.343 48.1045 184.109 48.8869 183.721 49.3875C183.278 49.9561 182.7 50.408 181.811 50.685L181.48 50.3206C182.423 50.0873 182.967 49.6742 183.375 49.1542C183.721 48.712 183.944 48.0365 184.012 47.5699C183.73 47.5699 181.806 47.5699 181.524 47.5699C181.33 47.5699 181.164 47.5797 181.043 47.5845V47.152C181.174 47.1714 181.368 47.186 181.529 47.186C181.806 47.186 183.745 47.186 183.964 47.186C184.036 47.186 184.134 47.1812 184.226 47.1617L184.522 47.3513Z" fill="white"/>
<path d="M94.6014 46.384H97.7845V50.4516H97.4006V46.7534H94.9756V50.4711H94.6014V46.384ZM94.8493 48.0703H97.561V48.43H94.8493V48.0703ZM94.8444 49.7907H97.5707V50.1552H94.8444V49.7907ZM101.162 47.9148H102.839V48.2599H101.162V47.9148ZM101.002 47.9148H101.366V49.8976C101.366 50.0871 101.42 50.126 101.687 50.126C101.813 50.126 102.445 50.126 102.61 50.126C102.873 50.126 102.912 49.9997 102.941 49.3242C103.028 49.3873 103.184 49.4505 103.286 49.4748C103.232 50.2572 103.121 50.4759 102.635 50.4759C102.513 50.4759 101.77 50.4759 101.658 50.4759C101.152 50.4759 101.002 50.3593 101.002 49.8928V47.9148ZM100.948 46.3306H103.028V48.532H102.659V46.6756H100.948V46.3306ZM99.0189 47.5261H100.535V47.8176H99.0189V47.5261ZM99.0481 46.2285H100.555V46.5201H99.0481V46.2285ZM99.0189 48.1773H100.535V48.4688H99.0189V48.1773ZM98.7905 46.8651H100.725V47.1664H98.7905V46.8651ZM99.189 48.8333H100.521V50.2524H99.189V49.9462H100.195V49.1346H99.189V48.8333ZM99.0141 48.8333H99.3397V50.4759H99.0141V48.8333ZM105.609 46.9866H108.073V47.3219H105.609V46.9866ZM105.701 47.9586H107.971V48.289H105.701V47.9586ZM105.458 48.9791H108.141V49.3193H105.458V48.9791ZM106.634 47.1033H106.989V50.5245H106.634V47.1033ZM107.504 46.0487L107.859 46.1653C107.713 46.4618 107.548 46.802 107.407 47.0206L107.125 46.9186C107.251 46.6853 107.417 46.3063 107.504 46.0487ZM105.818 46.1896L106.114 46.0827C106.279 46.3403 106.44 46.6853 106.498 46.9089L106.182 47.0352C106.129 46.8068 105.973 46.4521 105.818 46.1896ZM103.879 47.5261H105.327V47.8176H103.879V47.5261ZM103.903 46.2285H105.317V46.5201H103.903V46.2285ZM103.879 48.1773H105.327V48.4688H103.879V48.1773ZM103.65 46.8651H105.497V47.1664H103.65V46.8651ZM104.054 48.8333H105.327V50.2524H104.054V49.9462H105.006V49.1346H104.054V48.8333ZM103.874 48.8333H104.19V50.4759H103.874V48.8333ZM111.504 46.593H111.829V50.0677H111.504V46.593ZM110.541 46.4423H112.84V50.4273H112.5V46.7825H110.872V50.4662H110.541V46.4423ZM110.721 48.1287H112.651V48.464H110.721V48.1287ZM110.721 49.8636H112.636V50.1989H110.721V49.8636ZM109.331 48.3425H109.657V50.5197H109.331V48.3425ZM109.283 46.0536L109.608 46.1848C109.424 46.5444 109.186 46.9769 108.996 47.2491L108.738 47.1324C108.928 46.8506 109.156 46.3792 109.283 46.0536ZM109.88 46.6124L110.191 46.7631C109.851 47.3025 109.37 47.9926 108.996 48.4105L108.768 48.2793C109.142 47.8517 109.613 47.1276 109.88 46.6124ZM108.505 47.0935L108.69 46.8506C108.952 47.0692 109.254 47.3803 109.385 47.5892L109.19 47.8711C109.064 47.6476 108.763 47.3171 108.505 47.0935ZM109.744 47.7253L110.021 47.6038C110.235 47.9197 110.449 48.3376 110.532 48.6098L110.24 48.7507C110.162 48.4786 109.953 48.0461 109.744 47.7253ZM108.471 48.2016C108.913 48.1773 109.569 48.1335 110.221 48.0849L110.225 48.3814C109.618 48.4348 108.996 48.4931 108.525 48.5369L108.471 48.2016ZM109.832 48.9014L110.114 48.8139C110.255 49.1103 110.391 49.4991 110.449 49.7567L110.143 49.8587C110.099 49.6012 109.968 49.2027 109.832 48.9014ZM108.772 48.8285L109.088 48.8868C109.025 49.3436 108.909 49.815 108.758 50.126C108.695 50.0871 108.549 50.0191 108.466 49.9899C108.627 49.6935 108.719 49.2561 108.772 48.8285Z" fill="#00ABB6"/>
<g filter="url(#filter4_d_1745_11079)">
<rect x="65.8267" y="40.8691" width="76.4306" height="13.2539" rx="3.97616" fill="white"/>
</g>
<path d="M94.5155 46.2102H97.6986V50.2778H97.3147V46.5795H94.8897V50.2972H94.5155V46.2102ZM94.7633 47.8965H97.4751V48.2561H94.7633V47.8965ZM94.7585 49.6169H97.4848V49.9814H94.7585V49.6169ZM101.076 47.741H102.753V48.0861H101.076V47.741ZM100.916 47.741H101.28V49.7238C101.28 49.9133 101.334 49.9522 101.601 49.9522C101.727 49.9522 102.359 49.9522 102.524 49.9522C102.787 49.9522 102.826 49.8258 102.855 49.1503C102.942 49.2135 103.098 49.2767 103.2 49.301C103.146 50.0834 103.035 50.3021 102.549 50.3021C102.427 50.3021 101.684 50.3021 101.572 50.3021C101.066 50.3021 100.916 50.1855 100.916 49.7189V47.741ZM100.862 46.1567H102.942V48.3582H102.573V46.5018H100.862V46.1567ZM98.933 47.3522H100.449V47.6438H98.933V47.3522ZM98.9621 46.0547H100.469V46.3463H98.9621V46.0547ZM98.933 48.0034H100.449V48.295H98.933V48.0034ZM98.7046 46.6913H100.639V46.9926H98.7046V46.6913ZM99.1031 48.6595H100.435V50.0785H99.1031V49.7724H100.109V48.9608H99.1031V48.6595ZM98.9281 48.6595H99.2537V50.3021H98.9281V48.6595ZM105.523 46.8128H107.987V47.1481H105.523V46.8128ZM105.615 47.7847H107.885V48.1152H105.615V47.7847ZM105.372 48.8053H108.055V49.1455H105.372V48.8053ZM106.548 46.9294H106.903V50.3507H106.548V46.9294ZM107.418 45.8749L107.773 45.9915C107.627 46.2879 107.462 46.6281 107.321 46.8468L107.039 46.7448C107.165 46.5115 107.331 46.1324 107.418 45.8749ZM105.732 46.0158L106.028 45.9089C106.193 46.1665 106.354 46.5115 106.412 46.735L106.096 46.8614C106.043 46.633 105.887 46.2782 105.732 46.0158ZM103.793 47.3522H105.241V47.6438H103.793V47.3522ZM103.817 46.0547H105.231V46.3463H103.817V46.0547ZM103.793 48.0034H105.241V48.295H103.793V48.0034ZM103.564 46.6913H105.411V46.9926H103.564V46.6913ZM103.968 48.6595H105.241V50.0785H103.968V49.7724H104.92V48.9608H103.968V48.6595ZM103.788 48.6595H104.104V50.3021H103.788V48.6595ZM111.418 46.4192H111.743V49.8939H111.418V46.4192ZM110.455 46.2685H112.754V50.2535H112.414V46.6087H110.786V50.2924H110.455V46.2685ZM110.635 47.9548H112.565V48.2902H110.635V47.9548ZM110.635 49.6898H112.55V50.0251H110.635V49.6898ZM109.245 48.1687H109.571V50.3458H109.245V48.1687ZM109.197 45.8797L109.522 46.0109C109.338 46.3706 109.1 46.8031 108.91 47.0752L108.652 46.9586C108.842 46.6767 109.07 46.2053 109.197 45.8797ZM109.795 46.4386L110.106 46.5892C109.765 47.1287 109.284 47.8188 108.91 48.2367L108.682 48.1055C109.056 47.6778 109.527 46.9537 109.795 46.4386ZM108.419 46.9197L108.604 46.6767C108.866 46.8954 109.168 47.2064 109.299 47.4154L109.104 47.6973C108.978 47.4737 108.677 47.1433 108.419 46.9197ZM109.658 47.5515L109.935 47.43C110.149 47.7459 110.363 48.1638 110.446 48.436L110.154 48.5769C110.076 48.3047 109.867 47.8722 109.658 47.5515ZM108.385 48.0277C108.827 48.0034 109.483 47.9597 110.135 47.9111L110.14 48.2075C109.532 48.261 108.91 48.3193 108.439 48.3631L108.385 48.0277ZM109.746 48.7275L110.028 48.6401C110.169 48.9365 110.305 49.3253 110.363 49.5829L110.057 49.6849C110.013 49.4273 109.882 49.0288 109.746 48.7275ZM108.686 48.6546L109.002 48.713C108.939 49.1698 108.823 49.6412 108.672 49.9522C108.609 49.9133 108.463 49.8453 108.38 49.8161C108.541 49.5197 108.633 49.0823 108.686 48.6546Z" fill="#00ABB6"/>
<g filter="url(#filter5_d_1745_11079)">
<ellipse cx="221.5" cy="266.625" rx="31.5" ry="29.625" fill="#04CAD6"/>
<path d="M202.914 269.5L205.047 262.84H206.613L208.746 269.5H207.351L206.397 266.035C206.199 265.342 206.01 264.568 205.821 263.857H205.785C205.605 264.577 205.416 265.342 205.218 266.035L204.264 269.5H202.914ZM204.237 267.79V266.764H207.405V267.79H204.237ZM209.535 269.5V262.84H210.867V269.5H209.535ZM218.919 262.156C218.883 262.363 218.856 262.705 218.856 262.984C218.856 263.254 218.856 263.713 218.856 263.983H217.677C217.677 263.713 217.677 263.299 217.677 262.984C217.677 262.696 217.668 262.372 217.632 262.156H218.919ZM221.43 264.082C221.205 264.316 220.926 264.613 220.737 264.829C220.233 265.405 219.477 266.152 218.658 266.728C217.686 267.421 216.309 268.015 214.914 268.438L214.221 267.376C215.958 266.989 217.11 266.368 217.884 265.864C218.577 265.423 219.135 264.892 219.405 264.523C218.919 264.523 216.525 264.523 216.147 264.523C215.823 264.523 215.256 264.541 214.968 264.568V263.389C215.31 263.434 215.814 263.443 216.12 263.443C216.525 263.443 219.405 263.443 219.936 263.443C220.215 263.443 220.476 263.416 220.683 263.362L221.43 264.082ZM218.838 266.044C218.838 266.692 218.838 268.141 218.838 268.87C218.838 269.221 218.865 269.734 218.892 270.013H217.605C217.632 269.761 217.668 269.221 217.668 268.87C217.668 268.177 217.668 267.07 217.668 266.53L218.838 266.044ZM221.565 268.519C220.782 267.907 220.188 267.529 219.414 267.088L220.152 266.233C220.98 266.674 221.448 266.944 222.312 267.529L221.565 268.519ZM223.954 263.11C224.296 263.146 224.755 263.173 225.07 263.173H229.606C229.867 263.173 230.236 263.155 230.389 263.146C230.38 263.362 230.362 263.713 230.362 263.983V268.645C230.362 268.96 230.389 269.428 230.407 269.707H229.102C229.111 269.437 229.12 269.113 229.12 268.78V264.334H225.07C224.692 264.334 224.206 264.352 223.954 264.37V263.11ZM223.846 267.997C224.152 268.024 224.557 268.051 224.962 268.051H229.831V269.239H224.998C224.647 269.239 224.143 269.257 223.846 269.293V267.997ZM232.954 263.11C233.296 263.146 233.755 263.173 234.07 263.173H238.606C238.867 263.173 239.236 263.155 239.389 263.146C239.38 263.362 239.362 263.713 239.362 263.983V268.645C239.362 268.96 239.389 269.428 239.407 269.707H238.102C238.111 269.437 238.12 269.113 238.12 268.78V264.334H234.07C233.692 264.334 233.206 264.352 232.954 264.37V263.11ZM232.846 267.997C233.152 268.024 233.557 268.051 233.962 268.051H238.831V269.239H233.998C233.647 269.239 233.143 269.257 232.846 269.293V267.997Z" fill="white"/>
</g>
<path d="M193.013 271.06L198.373 284.545L184.615 282.894L193.013 271.06Z" fill="#04CAD6"/>
<defs>
<filter id="filter0_d_1745_11079" x="81.9515" y="237.124" width="112.772" height="118.335" filterUnits="userSpaceOnUse" color-interpolation-filters="sRGB">
<feFlood flood-opacity="0" result="BackgroundImageFix"/>
<feColorMatrix in="SourceAlpha" type="matrix" values="0 0 0 0 0 0 0 0 0 0 0 0 0 0 0 0 0 0 127 0" result="hardAlpha"/>
<feOffset dy="3.2145"/>
<feGaussianBlur stdDeviation="1.60725"/>
<feComposite in2="hardAlpha" operator="out"/>
<feColorMatrix type="matrix" values="0 0 0 0 0 0 0 0 0 0 0 0 0 0 0 0 0 0 0.25 0"/>
<feBlend mode="normal" in2="BackgroundImageFix" result="effect1_dropShadow_1745_11079"/>
<feBlend mode="normal" in="SourceGraphic" in2="effect1_dropShadow_1745_11079" result="shape"/>
</filter>
<filter id="filter1_d_1745_11079" x="0.343726" y="139.461" width="273.313" height="100.092" filterUnits="userSpaceOnUse" color-interpolation-filters="sRGB">
<feFlood flood-opacity="0" result="BackgroundImageFix"/>
<feColorMatrix in="SourceAlpha" type="matrix" values="0 0 0 0 0 0 0 0 0 0 0 0 0 0 0 0 0 0 127 0" result="hardAlpha"/>
<feOffset dy="3.2145"/>
<feGaussianBlur stdDeviation="1.60725"/>
<feComposite in2="hardAlpha" operator="out"/>
<feColorMatrix type="matrix" values="0 0 0 0 0 0 0 0 0 0 0 0 0 0 0 0 0 0 0.25 0"/>
<feBlend mode="normal" in2="BackgroundImageFix" result="effect1_dropShadow_1745_11079"/>
<feBlend mode="normal" in="SourceGraphic" in2="effect1_dropShadow_1745_11079" result="shape"/>
</filter>
<filter id="filter2_d_1745_11079" x="52.2328" y="65" width="174.534" height="67.5344" filterUnits="userSpaceOnUse" color-interpolation-filters="sRGB">
<feFlood flood-opacity="0" result="BackgroundImageFix"/>
<feColorMatrix in="SourceAlpha" type="matrix" values="0 0 0 0 0 0 0 0 0 0 0 0 0 0 0 0 0 0 127 0" result="hardAlpha"/>
<feOffset dy="1.76718"/>
<feGaussianBlur stdDeviation="0.88359"/>
<feComposite in2="hardAlpha" operator="out"/>
<feColorMatrix type="matrix" values="0 0 0 0 0.0156863 0 0 0 0 0.792157 0 0 0 0 0.839216 0 0 0 0.15 0"/>
<feBlend mode="normal" in2="BackgroundImageFix" result="effect1_dropShadow_1745_11079"/>
<feBlend mode="normal" in="SourceGraphic" in2="effect1_dropShadow_1745_11079" result="shape"/>
</filter>
<filter id="filter3_d_1745_11079" x="52.2328" y="65" width="174.534" height="67.5344" filterUnits="userSpaceOnUse" color-interpolation-filters="sRGB">
<feFlood flood-opacity="0" result="BackgroundImageFix"/>
<feColorMatrix in="SourceAlpha" type="matrix" values="0 0 0 0 0 0 0 0 0 0 0 0 0 0 0 0 0 0 127 0" result="hardAlpha"/>
<feOffset dy="1.76718"/>
<feGaussianBlur stdDeviation="0.88359"/>
<feComposite in2="hardAlpha" operator="out"/>
<feColorMatrix type="matrix" values="0 0 0 0 0.0156863 0 0 0 0 0.792157 0 0 0 0 0.839216 0 0 0 0.15 0"/>
<feBlend mode="normal" in2="BackgroundImageFix" result="effect1_dropShadow_1745_11079"/>
<feBlend mode="normal" in="SourceGraphic" in2="effect1_dropShadow_1745_11079" result="shape"/>
</filter>
<filter id="filter4_d_1745_11079" x="64.0595" y="40.8691" width="79.9649" height="16.7883" filterUnits="userSpaceOnUse" color-interpolation-filters="sRGB">
<feFlood flood-opacity="0" result="BackgroundImageFix"/>
<feColorMatrix in="SourceAlpha" type="matrix" values="0 0 0 0 0 0 0 0 0 0 0 0 0 0 0 0 0 0 127 0" result="hardAlpha"/>
<feOffset dy="1.76718"/>
<feGaussianBlur stdDeviation="0.88359"/>
<feComposite in2="hardAlpha" operator="out"/>
<feColorMatrix type="matrix" values="0 0 0 0 0 0 0 0 0 0 0 0 0 0 0 0 0 0 0.25 0"/>
<feBlend mode="normal" in2="BackgroundImageFix" result="effect1_dropShadow_1745_11079"/>
<feBlend mode="normal" in="SourceGraphic" in2="effect1_dropShadow_1745_11079" result="shape"/>
</filter>
<filter id="filter5_d_1745_11079" x="186" y="237" width="71" height="67.25" filterUnits="userSpaceOnUse" color-interpolation-filters="sRGB">
<feFlood flood-opacity="0" result="BackgroundImageFix"/>
<feColorMatrix in="SourceAlpha" type="matrix" values="0 0 0 0 0 0 0 0 0 0 0 0 0 0 0 0 0 0 127 0" result="hardAlpha"/>
<feOffset dy="4"/>
<feGaussianBlur stdDeviation="2"/>
<feComposite in2="hardAlpha" operator="out"/>
<feColorMatrix type="matrix" values="0 0 0 0 0 0 0 0 0 0 0 0 0 0 0 0 0 0 0.25 0"/>
<feBlend mode="normal" in2="BackgroundImageFix" result="effect1_dropShadow_1745_11079"/>
<feBlend mode="normal" in="SourceGraphic" in2="effect1_dropShadow_1745_11079" result="shape"/>
</filter>
<clipPath id="clip0_1745_11079">
<path d="M54 65H225V129H54V65Z" fill="white"/>
</clipPath>
</defs>
</svg>
