<svg width="274" height="356" viewBox="0 0 274 356" fill="none" xmlns="http://www.w3.org/2000/svg">
<mask id="path-1-inside-1_1745_11079" fill="white">
<path d="M45 8C45 3.58172 48.5817 0 53 0H226C230.418 0 234 3.58172 234 8V355H45V8Z"/>
</mask>
<path d="M42 8C42 1.92487 46.9249 -3 53 -3H226C232.075 -3 237 1.92487 237 8H231C231 5.23858 228.761 3 226 3H53C50.2386 3 48 5.23858 48 8H42ZM234 355H45H234ZM42 355V8C42 1.92487 46.9249 -3 53 -3V3C50.2386 3 48 5.23858 48 8V355H42ZM226 -3C232.075 -3 237 1.92487 237 8V355H231V8C231 5.23858 228.761 3 226 3V-3Z" fill="#A29C9C" fill-opacity="0.5" mask="url(#path-1-inside-1_1745_11079)"/>
<mask id="path-3-inside-2_1745_11079" fill="white">
<path d="M53 13C53 10.2386 55.2386 8 58 8H221C223.761 8 226 10.2386 226 13V355H53V13Z"/>
</mask>
<path d="M53 13C53 10.2386 55.2386 8 58 8H221C223.761 8 226 10.2386 226 13V355H53V13Z" fill="#EEFEFF"/>
<path d="M52 13C52 9.68629 54.6863 7 58 7H221C224.314 7 227 9.68629 227 13H225C225 10.7909 223.209 9 221 9H58C55.7909 9 54 10.7909 54 13H52ZM226 355H53H226ZM52 355V13C52 9.68629 54.6863 7 58 7V9C55.7909 9 54 10.7909 54 13V355H52ZM221 7C224.314 7 227 9.68629 227 13V355H225V13C225 10.7909 223.209 9 221 9V7Z" fill="#D9D9D9" mask="url(#path-3-inside-2_1745_11079)"/>
<path d="M54 12C54 10.3431 55.3431 9 57 9H222C223.657 9 225 10.3431 225 12V31H54V12Z" fill="#04CAD6"/>
<path d="M106.38 23.5V22.908C108.306 21.2115 109.287 19.948 109.287 18.8788C109.287 18.1808 108.916 17.6948 108.191 17.6948C107.679 17.6948 107.255 18.0129 106.91 18.4105L106.327 17.8539C106.892 17.2442 107.467 16.8819 108.315 16.8819C109.508 16.8819 110.277 17.6506 110.277 18.8346C110.277 20.0805 109.269 21.3794 107.891 22.7048C108.227 22.6694 108.642 22.6341 108.96 22.6341H110.586V23.5H106.38ZM113.911 23.6237C112.63 23.6237 111.808 22.4839 111.808 20.2219C111.808 17.9776 112.63 16.8819 113.911 16.8819C115.183 16.8819 116.014 17.9776 116.014 20.2219C116.014 22.4839 115.183 23.6237 113.911 23.6237ZM113.911 22.8108C114.574 22.8108 115.033 22.1039 115.033 20.2219C115.033 18.3663 114.574 17.6771 113.911 17.6771C113.248 17.6771 112.78 18.3663 112.78 20.2219C112.78 22.1039 113.248 22.8108 113.911 22.8108ZM117.165 23.5V22.908C119.091 21.2115 120.072 19.948 120.072 18.8788C120.072 18.1808 119.701 17.6948 118.977 17.6948C118.464 17.6948 118.04 18.0129 117.695 18.4105L117.112 17.8539C117.678 17.2442 118.252 16.8819 119.1 16.8819C120.293 16.8819 121.062 17.6506 121.062 18.8346C121.062 20.0805 120.055 21.3794 118.676 22.7048C119.012 22.6694 119.427 22.6341 119.745 22.6341H121.371V23.5H117.165ZM124.537 23.6237C123.521 23.6237 122.858 23.2173 122.417 22.7224L122.92 22.0686C123.3 22.4574 123.777 22.7843 124.458 22.7843C125.182 22.7843 125.686 22.3778 125.686 21.7063C125.686 20.9818 125.226 20.5223 123.768 20.5223V19.7624C125.041 19.7624 125.465 19.2853 125.465 18.6314C125.465 18.0571 125.094 17.6948 124.466 17.6948C123.972 17.6948 123.548 17.9334 123.176 18.3045L122.637 17.6595C123.159 17.2 123.76 16.8819 124.511 16.8819C125.677 16.8819 126.499 17.4827 126.499 18.5519C126.499 19.3029 126.066 19.8243 125.377 20.0805V20.1247C126.128 20.3191 126.72 20.8757 126.72 21.7593C126.72 22.9345 125.739 23.6237 124.537 23.6237ZM127.677 25.0905L130.133 16.4401H130.831L128.384 25.0905H127.677ZM132.118 23.5V22.6606H133.549V18.1366H132.374V17.4916C132.993 17.3856 133.417 17.2265 133.797 16.9968H134.566V22.6606H135.838V23.5H132.118ZM139.278 23.6237C137.997 23.6237 137.175 22.4839 137.175 20.2219C137.175 17.9776 137.997 16.8819 139.278 16.8819C140.55 16.8819 141.381 17.9776 141.381 20.2219C141.381 22.4839 140.55 23.6237 139.278 23.6237ZM139.278 22.8108C139.941 22.8108 140.4 22.1039 140.4 20.2219C140.4 18.3663 139.941 17.6771 139.278 17.6771C138.615 17.6771 138.147 18.3663 138.147 20.2219C138.147 22.1039 138.615 22.8108 139.278 22.8108ZM142.258 25.0905L144.715 16.4401H145.413L142.965 25.0905H142.258ZM146.7 23.5V22.6606H148.131V18.1366H146.956V17.4916C147.574 17.3856 147.999 17.2265 148.379 16.9968H149.147V22.6606H150.42V23.5H146.7ZM153.86 23.6237C152.578 23.6237 151.757 22.4839 151.757 20.2219C151.757 17.9776 152.578 16.8819 153.86 16.8819C155.132 16.8819 155.962 17.9776 155.962 20.2219C155.962 22.4839 155.132 23.6237 153.86 23.6237ZM153.86 22.8108C154.522 22.8108 154.982 22.1039 154.982 20.2219C154.982 18.3663 154.522 17.6771 153.86 17.6771C153.197 17.6771 152.729 18.3663 152.729 20.2219C152.729 22.1039 153.197 22.8108 153.86 22.8108ZM158.828 25.2583C157.997 23.9241 157.512 22.4927 157.512 20.7432C157.512 18.9937 157.997 17.5623 158.828 16.2192L159.455 16.502C158.704 17.7743 158.351 19.2676 158.351 20.7432C158.351 22.2188 158.704 23.7121 159.455 24.9844L158.828 25.2583ZM161.916 17.8185L162.755 18.0041C162.605 19.082 162.322 20.1512 161.545 20.7697L160.802 20.2837C161.483 19.7447 161.783 18.817 161.916 17.8185ZM167.412 17.8097L168.331 18.1631C167.889 19.0025 167.332 19.9833 166.882 20.6107L166.175 20.2837C166.599 19.6299 167.129 18.5872 167.412 17.8097ZM164.611 16.1662H165.061V18.9937C165.061 20.1512 165.777 22.422 168.711 23.4735C168.525 23.659 168.26 24.0125 168.136 24.2511C165.768 23.3233 164.814 21.4059 164.602 20.54C164.407 21.4236 163.524 23.2791 161.2 24.2511C161.085 24.0655 160.802 23.7209 160.617 23.5442C163.462 22.4662 164.16 20.1512 164.16 18.9937V16.1662H164.611ZM170.469 25.2583L169.833 24.9844C170.584 23.7121 170.946 22.2188 170.946 20.7432C170.946 19.2676 170.584 17.7743 169.833 16.502L170.469 16.2192C171.291 17.5623 171.777 18.9937 171.777 20.7432C171.777 22.4927 171.291 23.9241 170.469 25.2583Z" fill="white"/>
<g filter="url(#filter0_d_1745_11079)">
<path d="M78.5775 263.915C85.815 250.679 88.7902 242.204 93.9198 239.849C99.0495 237.494 103.251 257.96 103.251 257.96L114.674 257.596C114.674 257.596 131.489 235.741 135.416 237.193C139.344 238.646 138.122 261.239 138.122 261.239C147.311 272.968 150.149 279.728 150.748 292.207C150.748 292.207 155.99 279.164 158.898 287.68C162.261 297.533 153.21 306.331 151.979 309.039C151.433 310.239 151.477 312.281 151.124 314.754C151.054 315.24 151.307 316.223 157.023 313.533C162.738 310.843 164.243 310.059 166.348 310.059C168.454 310.059 174.471 314.569 160.934 318.948C147.396 323.327 149.621 320.132 149.271 320.81C149.271 323.761 141.38 332.485 139.274 333.087C139.274 333.087 135.664 349.03 129.347 349.03C123.03 349.03 119.721 337.599 119.721 337.599C113.704 337.9 115.81 338.802 108.289 336.997C108.289 336.997 110.346 349.03 104.448 349.03C98.0611 349.03 85.815 330.097 85.815 330.097C81.817 328.574 73.394 314.754 72.2873 310.059C72.2873 310.059 62.237 321.795 63.2358 312.648C64.1809 303.995 72.2873 297.908 72.2873 292.192C72.2873 286.477 71.34 277.151 78.5775 263.915Z" fill="#FFE925"/>
<circle cx="101.371" cy="277.735" r="2.10576" fill="#2F2E2E"/>
<circle cx="118.217" cy="277.735" r="2.10576" fill="#2F2E2E"/>
<path d="M110.765 288.264C112.036 288.264 112.815 287.92 113.357 287.37C113.923 286.796 114.302 285.927 114.611 284.727C114.694 284.404 114.443 284.053 114.048 284.053L106.721 284.053C106.325 284.053 106.091 284.398 106.173 284.698C106.566 286.142 107.088 286.998 107.769 287.511C108.45 288.024 109.385 288.264 110.765 288.264Z" fill="white" stroke="#2F2E2E" stroke-width="1.20329"/>
</g>
<g filter="url(#filter1_d_1745_11079)">
<path d="M265.582 139.903H8.41795C5.97798 139.903 4 141.881 4 144.321V215.431C4 217.871 5.97799 219.849 8.41796 219.849H114.658C115.629 219.849 116.573 220.169 117.344 220.759L130.78 231.046C132.379 232.269 134.602 232.258 136.188 231.017L149.267 220.787C150.044 220.179 151.002 219.849 151.989 219.849H265.582C268.022 219.849 270 217.871 270 215.431V144.321C270 141.881 268.022 139.903 265.582 139.903Z" fill="white" stroke="#04CAD6" stroke-width="0.88359"/>
</g>
<path d="M47.265 175.798L51.153 164.022H53.313L57.201 175.798H55.233L53.345 169.414C52.945 168.134 52.593 166.806 52.225 165.494H52.161C51.809 166.822 51.457 168.134 51.057 169.414L49.153 175.798H47.265ZM49.457 172.454V170.998H54.961V172.454H49.457ZM59.3941 175.798V164.022H61.2661V175.798H59.3941ZM76.6774 162.886C76.6134 163.238 76.5814 163.846 76.5814 164.31C76.5814 164.758 76.5814 165.59 76.5814 165.99H74.9334C74.9334 165.59 74.9334 164.822 74.9334 164.31C74.9334 163.846 74.9174 163.254 74.8534 162.886H76.6774ZM81.1094 166.15C80.7574 166.486 80.3574 166.934 80.0534 167.27C79.2054 168.262 77.8294 169.622 76.3414 170.662C74.6134 171.878 72.3574 172.854 69.7334 173.654L68.7574 172.166C71.8134 171.446 73.8294 170.374 75.2534 169.462C76.5974 168.598 77.7494 167.478 78.2614 166.774C77.4614 166.774 72.6934 166.774 71.9894 166.774C71.4294 166.774 70.4694 166.79 69.9734 166.838V165.158C70.5334 165.238 71.4134 165.254 71.9574 165.254C72.6934 165.254 77.9414 165.254 78.9014 165.254C79.3334 165.254 79.7334 165.222 80.0534 165.126L81.1094 166.15ZM76.5494 169.75C76.5494 170.95 76.5334 173.43 76.5334 174.694C76.5334 175.286 76.5814 176.086 76.6294 176.582H74.8054C74.8534 176.118 74.9174 175.286 74.9174 174.694C74.9174 173.478 74.9174 171.43 74.9174 170.438L76.5494 169.75ZM81.6214 173.83C80.2294 172.774 79.2374 172.118 77.7814 171.334L78.8374 170.134C80.3254 170.934 81.1734 171.43 82.6774 172.454L81.6214 173.83ZM86.6369 164.662C87.1969 164.726 87.9489 164.758 88.4769 164.758H96.4449C96.8609 164.758 97.4209 164.742 97.7249 164.726C97.7089 165.094 97.6769 165.654 97.6769 166.07V174.342C97.6769 174.918 97.7249 175.686 97.7409 176.038H95.9169C95.9329 175.702 95.9489 175.11 95.9489 174.534V166.374H88.4929C87.8689 166.374 87.0369 166.406 86.6369 166.438V164.662ZM86.4289 173.43C86.9089 173.478 87.6129 173.526 88.3009 173.526H96.9089V175.174H88.3489C87.7089 175.174 86.9089 175.206 86.4289 175.254V173.43ZM103.277 164.662C103.837 164.726 104.589 164.758 105.117 164.758H113.085C113.501 164.758 114.061 164.742 114.365 164.726C114.349 165.094 114.317 165.654 114.317 166.07V174.342C114.317 174.918 114.365 175.686 114.381 176.038H112.557C112.573 175.702 112.589 175.11 112.589 174.534V166.374H105.133C104.509 166.374 103.677 166.406 103.277 166.438V164.662ZM103.069 173.43C103.549 173.478 104.253 173.526 104.941 173.526H113.549V175.174H104.989C104.349 175.174 103.549 175.206 103.069 175.254V173.43ZM124.269 163.334C124.189 163.686 124.109 164.102 124.045 164.454C123.917 165.094 123.709 166.262 123.501 167.174C122.973 169.43 121.773 173.67 120.013 176.486L118.365 175.83C120.221 173.35 121.469 169.094 121.917 167.11C122.205 165.766 122.413 164.358 122.397 163.142L124.269 163.334ZM129.773 165.078C130.765 166.422 132.141 169.35 132.653 170.854L131.069 171.59C130.621 169.894 129.421 167.094 128.285 165.734L129.773 165.078ZM118.189 166.742C118.733 166.774 119.197 166.758 119.741 166.742C120.973 166.71 124.141 166.358 125.261 166.358C126.813 166.358 127.997 166.998 127.997 169.222C127.997 171.126 127.741 173.686 127.069 175.046C126.557 176.134 125.725 176.438 124.605 176.438C123.997 176.438 123.229 176.326 122.717 176.214L122.445 174.534C123.085 174.726 123.965 174.87 124.397 174.87C124.973 174.87 125.421 174.726 125.709 174.102C126.189 173.094 126.429 171.078 126.429 169.414C126.429 168.022 125.805 167.798 124.797 167.798C123.773 167.798 120.877 168.15 119.949 168.246C119.533 168.31 118.797 168.406 118.349 168.47L118.189 166.742ZM129.757 162.806C130.157 163.382 130.733 164.374 131.053 164.998L129.997 165.462C129.677 164.806 129.149 163.846 128.717 163.238L129.757 162.806ZM131.581 162.118C131.997 162.726 132.605 163.734 132.893 164.31L131.853 164.758C131.517 164.086 130.989 163.158 130.541 162.55L131.581 162.118ZM136.573 163.334H147.357V176.918H145.741V164.854H138.125V176.966H136.573V163.334ZM137.629 168.806H146.413V170.294H137.629V168.806ZM137.613 174.406H146.429V175.926H137.613V174.406ZM159.005 168.358H164.429V169.798H159.005V168.358ZM158.381 168.358H159.901V174.79C159.901 175.446 160.061 175.558 160.893 175.558C161.277 175.558 163.101 175.558 163.597 175.558C164.397 175.558 164.525 175.158 164.621 173.03C164.973 173.286 165.613 173.542 166.045 173.638C165.837 176.246 165.389 176.998 163.693 176.998C163.277 176.998 161.117 176.998 160.733 176.998C158.925 176.998 158.381 176.55 158.381 174.79V168.358ZM158.253 163.158H165.181V170.646H163.661V164.598H158.253V163.158ZM151.869 167.174H156.941V168.342H151.869V167.174ZM151.965 162.838H156.989V164.006H151.965V162.838ZM151.869 169.334H156.941V170.502H151.869V169.334ZM151.101 164.95H157.565V166.182H151.101V164.95ZM152.573 171.51H156.893V176.278H152.573V175.046H155.549V172.742H152.573V171.51ZM151.837 171.51H153.165V176.966H151.837V171.51ZM174.429 164.838C176.269 165.126 179.485 165.046 181.133 164.822V166.454C179.309 166.646 176.301 166.646 174.429 166.454V164.838ZM175.341 171.494C175.197 172.054 175.117 172.47 175.117 172.902C175.117 173.622 175.677 174.214 177.629 174.214C179.053 174.214 180.269 174.086 181.613 173.798L181.645 175.494C180.621 175.686 179.309 175.814 177.581 175.814C174.877 175.814 173.613 174.886 173.613 173.318C173.613 172.742 173.709 172.15 173.885 171.35L175.341 171.494ZM171.629 163.67C171.533 163.974 171.357 164.614 171.293 164.902C171.037 166.198 170.509 169.206 170.509 170.918C170.509 171.494 170.541 172.054 170.621 172.63C170.877 171.99 171.197 171.206 171.453 170.598L172.269 171.238C171.837 172.454 171.277 174.166 171.117 174.966C171.069 175.206 171.037 175.526 171.037 175.702C171.053 175.878 171.069 176.118 171.085 176.31L169.629 176.406C169.309 175.286 169.021 173.398 169.021 171.222C169.021 168.854 169.533 166.134 169.725 164.838C169.773 164.438 169.837 163.942 169.853 163.526L171.629 163.67ZM191.661 166.022H199.229V167.478H191.661V166.022ZM184.653 164.87H192.173V166.278H184.653V164.87ZM195.901 162.294H197.405V175.19C197.405 176.118 197.197 176.566 196.653 176.822C196.125 177.094 195.245 177.142 193.885 177.142C193.837 176.71 193.613 175.99 193.405 175.526C194.365 175.574 195.245 175.558 195.517 175.558C195.789 175.542 195.901 175.462 195.901 175.19V162.294ZM191.693 169.558L192.925 168.982C193.693 170.054 194.461 171.494 194.717 172.47L193.389 173.126C193.149 172.166 192.445 170.678 191.693 169.558ZM185.069 168.55L186.141 167.686C188.077 169.734 190.317 172.518 191.245 174.374L190.045 175.414C189.165 173.51 186.973 170.63 185.069 168.55ZM187.597 162.31H189.053V165.718H187.597V162.31ZM189.389 166.63L190.861 166.838C190.045 171.574 188.429 174.934 185.277 177.03C185.101 176.726 184.557 176.118 184.237 175.846C187.245 174.07 188.717 170.918 189.389 166.63ZM206.125 163.238C206.045 163.83 205.981 164.502 205.949 165.078C205.885 166.854 205.757 170.55 205.757 172.758C205.757 174.454 206.797 175.03 208.205 175.03C211.005 175.03 212.669 173.446 213.821 171.75L214.973 173.126C213.901 174.662 211.741 176.726 208.173 176.726C205.725 176.726 204.093 175.686 204.093 173.014C204.093 170.742 204.253 166.63 204.253 165.078C204.253 164.422 204.205 163.766 204.093 163.222L206.125 163.238ZM217.88 165.014C218.504 164.998 219.064 164.966 219.384 164.934C220.552 164.822 223.4 164.55 226.344 164.294C228.04 164.15 229.656 164.054 230.744 164.022L230.76 165.638C229.864 165.638 228.472 165.654 227.64 165.862C225.512 166.502 224.104 168.79 224.104 170.678C224.104 173.59 226.824 174.566 229.464 174.694L228.888 176.39C225.752 176.23 222.472 174.55 222.472 171.03C222.472 168.614 223.896 166.678 225.192 165.83C223.56 166.006 219.848 166.374 218.056 166.758L217.88 165.014ZM60.585 202.238C60.729 201.918 60.761 201.678 60.761 201.342C60.761 200.254 60.761 194.03 60.761 192.398C60.761 191.902 60.681 191.166 60.601 190.782H62.585C62.521 191.278 62.457 191.87 62.457 192.398C62.457 194.03 62.457 200.158 62.457 201.15C65.321 200.382 68.969 198.302 70.985 195.758L71.881 197.182C69.753 199.774 66.457 201.726 62.553 202.91C62.361 202.974 62.073 203.07 61.769 203.262L60.585 202.238ZM86.889 192.046C86.777 192.19 86.537 192.606 86.425 192.862C85.785 194.414 84.569 196.638 83.225 198.158C81.433 200.19 79.097 202.126 76.585 203.294L75.289 201.934C77.865 200.958 80.281 199.022 81.865 197.262C82.937 196.046 84.025 194.286 84.409 193.038C83.801 193.038 79.129 193.038 78.521 193.038C77.913 193.038 77.033 193.118 76.793 193.134V191.326C77.097 191.374 78.041 191.422 78.521 191.422C79.241 191.422 83.817 191.422 84.473 191.422C85.065 191.422 85.577 191.358 85.865 191.262L86.889 192.046ZM83.433 197.118C85.129 198.51 87.321 200.814 88.393 202.126L86.969 203.358C85.801 201.79 83.977 199.806 82.265 198.27L83.433 197.118ZM102.713 190.91C102.713 191.438 103.145 191.854 103.673 191.854C104.201 191.854 104.633 191.438 104.633 190.91C104.633 190.382 104.201 189.95 103.673 189.95C103.145 189.95 102.713 190.382 102.713 190.91ZM101.881 190.91C101.881 189.918 102.681 189.102 103.673 189.102C104.665 189.102 105.465 189.918 105.465 190.91C105.465 191.902 104.665 192.702 103.673 192.702C102.681 192.702 101.881 191.902 101.881 190.91ZM99.401 190.35C99.369 190.574 99.289 191.23 99.289 191.598C99.289 192.494 99.289 193.838 99.289 194.686C99.289 195.982 99.289 200.99 99.289 202.222C99.289 203.102 98.825 203.598 97.785 203.598C97.033 203.598 96.089 203.55 95.369 203.47L95.225 201.886C95.913 202.014 96.633 202.078 97.033 202.078C97.465 202.078 97.641 201.902 97.641 201.486C97.657 200.734 97.657 195.438 97.657 194.686C97.657 194.142 97.657 192.494 97.657 191.598C97.657 191.214 97.593 190.606 97.529 190.35H99.401ZM91.929 192.974C92.393 193.038 92.857 193.086 93.369 193.086C94.329 193.086 102.265 193.086 103.305 193.086C103.705 193.086 104.313 193.038 104.729 192.99V194.654C104.265 194.622 103.721 194.606 103.321 194.606C102.281 194.606 94.393 194.606 93.369 194.606C92.889 194.606 92.361 194.622 91.929 194.67V192.974ZM95.785 196.99C95.081 198.382 93.593 200.446 92.697 201.406L91.321 200.478C92.393 199.47 93.721 197.63 94.361 196.318L95.785 196.99ZM102.553 196.302C103.385 197.326 104.665 199.326 105.305 200.494L103.817 201.31C103.161 199.998 101.993 198.03 101.177 197.038L102.553 196.302ZM110.873 190.894C111.993 191.646 114.057 193.31 114.969 194.238L113.689 195.534C112.873 194.67 110.873 192.942 109.689 192.142L110.873 190.894ZM109.225 201.582C111.881 201.198 113.961 200.286 115.497 199.358C118.089 197.774 120.089 195.374 121.049 193.31L122.025 195.07C120.889 197.134 118.905 199.326 116.425 200.862C114.809 201.854 112.777 202.798 110.281 203.246L109.225 201.582ZM136.496 192.046C136.384 192.19 136.144 192.606 136.032 192.862C135.392 194.414 134.176 196.638 132.832 198.158C131.04 200.19 128.704 202.126 126.192 203.294L124.896 201.934C127.472 200.958 129.888 199.022 131.472 197.262C132.544 196.046 133.632 194.286 134.016 193.038C133.408 193.038 128.736 193.038 128.128 193.038C127.52 193.038 126.64 193.118 126.4 193.134V191.326C126.704 191.374 127.648 191.422 128.128 191.422C128.848 191.422 133.424 191.422 134.08 191.422C134.672 191.422 135.184 191.358 135.472 191.262L136.496 192.046ZM133.04 197.118C134.736 198.51 136.928 200.814 138 202.126L136.576 203.358C135.408 201.79 133.584 199.806 131.872 198.27L133.04 197.118ZM147.648 190.078C147.52 190.686 147.328 191.582 146.896 192.702C146.528 193.582 145.984 194.59 145.44 195.342C145.968 195.054 146.864 194.878 147.488 194.878C148.768 194.878 149.744 195.63 149.744 197.022C149.744 197.854 149.792 199.662 149.808 200.654H148.272C148.336 199.854 148.352 198.318 148.336 197.486C148.336 196.51 147.696 196.126 146.928 196.126C145.968 196.126 144.96 196.638 144.288 197.262C143.808 197.726 143.36 198.302 142.816 198.974L141.456 197.966C143.664 195.886 144.8 194.094 145.392 192.558C145.728 191.678 145.936 190.718 145.984 189.934L147.648 190.078ZM141.936 191.694C142.768 191.806 143.92 191.87 144.688 191.87C146.816 191.87 149.648 191.742 151.936 191.342L151.92 192.814C149.68 193.15 146.592 193.278 144.592 193.278C143.92 193.278 142.816 193.246 141.936 193.182V191.694ZM154.352 195.854C153.904 195.982 153.2 196.254 152.72 196.43C151.632 196.862 150.144 197.454 148.608 198.238C147.088 199.038 146.112 199.822 146.112 200.83C146.112 201.918 147.136 202.126 148.752 202.126C150.048 202.126 151.792 201.966 153.2 201.71L153.152 203.342C152 203.486 150.144 203.614 148.704 203.614C146.32 203.614 144.48 203.07 144.48 201.07C144.48 199.006 146.592 197.758 148.512 196.782C150 195.998 151.168 195.55 152.192 195.086C152.736 194.846 153.2 194.638 153.712 194.366L154.352 195.854ZM160.896 195.582V201.342H159.408V196.99H157.488V195.582H160.896ZM160.896 200.686C161.616 201.822 162.976 202.318 164.8 202.382C166.608 202.462 170.224 202.414 172.24 202.27C172.064 202.622 171.824 203.358 171.76 203.806C169.92 203.886 166.624 203.918 164.784 203.854C162.704 203.774 161.28 203.262 160.24 201.998C159.52 202.654 158.8 203.31 157.968 204.014L157.2 202.446C157.92 201.966 158.768 201.326 159.52 200.686H160.896ZM157.568 190.574L158.688 189.678C159.664 190.382 160.816 191.438 161.344 192.206L160.128 193.182C159.664 192.414 158.544 191.31 157.568 190.574ZM163.568 190.03H171.584V191.438H163.568V190.03ZM163.728 193.342H169.984V194.702H163.728V193.342ZM162.848 190.03H164.304V193.758C164.304 196.03 164.048 199.246 162.4 201.374C162.16 201.118 161.504 200.702 161.152 200.542C162.688 198.574 162.848 195.79 162.848 193.742V190.03ZM169.6 193.342H169.888L170.16 193.294L171.12 193.614C170.16 197.934 167.6 200.462 164.352 201.742C164.176 201.358 163.792 200.766 163.488 200.462C166.384 199.502 168.8 197.086 169.6 193.598V193.342ZM165.744 194.286C166.752 197.358 168.864 199.63 172.176 200.526C171.84 200.83 171.424 201.422 171.2 201.838C167.712 200.702 165.584 198.206 164.416 194.606L165.744 194.286ZM179.04 190.238C178.96 190.83 178.896 191.502 178.864 192.078C178.8 193.854 178.672 197.55 178.672 199.758C178.672 201.454 179.712 202.03 181.12 202.03C183.92 202.03 185.584 200.446 186.736 198.75L187.888 200.126C186.816 201.662 184.656 203.726 181.088 203.726C178.64 203.726 177.008 202.686 177.008 200.014C177.008 197.742 177.168 193.63 177.168 192.078C177.168 191.422 177.12 190.766 177.008 190.222L179.04 190.238ZM199.36 189.998C199.312 190.302 199.28 190.654 199.264 191.102C199.232 191.822 199.232 194.014 199.232 195.358C199.232 197.326 199.472 200.174 199.472 201.326C199.472 202.542 198.608 203.646 196.512 203.646C194.096 203.646 192.8 202.766 192.8 201.15C192.8 199.63 194.24 198.574 196.608 198.574C200.048 198.574 202.672 200.366 203.952 201.422L203.04 202.846C201.552 201.47 199.216 199.886 196.416 199.886C195.056 199.886 194.32 200.414 194.32 201.07C194.32 201.758 194.928 202.222 196.304 202.222C197.184 202.222 197.872 201.966 197.872 200.926C197.872 199.822 197.712 196.846 197.712 195.358C197.712 193.886 197.728 192.046 197.728 191.022C197.728 190.734 197.696 190.254 197.648 189.998H199.36ZM193.008 191.63C194.096 191.822 196.016 191.982 197.04 191.982C199.136 191.982 201.264 191.854 203.456 191.502L203.44 192.958C201.712 193.166 199.312 193.374 197.056 193.374C195.984 193.374 194.064 193.23 193.04 193.102L193.008 191.63ZM192.928 195.054C194.032 195.246 195.92 195.358 196.88 195.358C199.472 195.358 201.584 195.182 203.616 194.894L203.6 196.398C201.408 196.67 199.552 196.766 196.864 196.766C195.84 196.766 194.048 196.686 192.944 196.558L192.928 195.054ZM216.88 190.03C216.848 190.254 216.8 190.974 216.784 191.198C216.752 192.238 216.784 195.406 216.8 196.686L215.232 196.046C215.232 195.214 215.232 192.078 215.168 191.214C215.136 190.686 215.072 190.19 215.04 190.03H216.88ZM208.144 192.158C210.4 192.142 214.496 192.014 216.768 192.014C218.576 192.014 220.752 191.998 221.568 192.014L221.552 193.502C220.608 193.454 219.088 193.422 216.736 193.422C213.92 193.422 210.592 193.534 208.176 193.694L208.144 192.158ZM216.656 196.846C216.656 199.198 215.68 200.366 214.048 200.366C212.752 200.366 211.36 199.406 211.36 197.566C211.36 195.886 212.736 194.702 214.352 194.702C216.32 194.702 217.328 196.158 217.328 198.062C217.328 200.19 216.208 202.702 212.4 203.806L211.056 202.478C213.888 201.838 215.776 200.558 215.776 197.854C215.776 196.59 215.136 196.03 214.336 196.03C213.584 196.03 212.88 196.59 212.88 197.55C212.88 198.43 213.552 198.958 214.336 198.958C215.232 198.958 215.872 198.206 215.504 196.414L216.656 196.846Z" fill="#00ABB6"/>
<g filter="url(#filter2_d_1745_11079)">
<g clip-path="url(#clip0_1745_11079)">
<mask id="path-13-inside-3_1745_11079" fill="white">
<path d="M54 65H225V129H54V65Z"/>
</mask>
<g filter="url(#filter3_d_1745_11079)">
<path d="M54 65H225V129H54V65Z" fill="white"/>
</g>
</g>
<path d="M54 65.4418H225V64.5582H54V65.4418Z" fill="#04CAD6" mask="url(#path-13-inside-3_1745_11079)"/>
</g>
<path d="M198.405 77.6002L198.727 77.9219L195.558 81.0907H195.236V80.7689L198.405 77.6002ZM199.664 75.4946C199.577 75.4946 199.486 75.5296 199.419 75.5961L198.779 76.2361L200.091 77.5477L200.731 76.9076C200.867 76.7712 200.867 76.5509 200.731 76.4145L199.913 75.5961C199.843 75.5261 199.755 75.4946 199.664 75.4946ZM198.405 76.6103L194.537 80.4786V81.7902H195.849L199.717 77.9219L198.405 76.6103Z" fill="#00ABB6"/>
<path d="M208.473 78.9018H208.989V81.7293H208.473V78.9018ZM209.286 78.9018H209.809V81.7293H209.286V78.9018ZM206.812 75.5371H210.827V76.2581H206.812V75.5371ZM207.88 79.9056H210.488V80.5064H207.88V79.9056ZM207.074 76.5691H207.816V78.0535C207.816 79.1139 207.696 80.7185 206.996 81.7505C206.869 81.6091 206.544 81.3758 206.374 81.2981C207.017 80.3509 207.074 79.0008 207.074 78.0465V76.5691ZM207.392 76.5691H210.651V78.3716H207.392V77.7072H209.838V77.2406H207.392V76.5691ZM207.604 78.6827H210.559V79.3118H208.191V81.7788H207.604V78.6827ZM210.113 78.6827H210.799V81.0578C210.799 81.3405 210.771 81.5314 210.601 81.6515C210.446 81.7576 210.255 81.7788 210.007 81.7788C209.979 81.5808 209.88 81.2981 209.795 81.1072C209.908 81.1143 210.007 81.1143 210.057 81.1143C210.099 81.1143 210.113 81.1002 210.113 81.0436V78.6827ZM205.356 75.1483L206.07 75.3957C205.787 75.9471 205.462 76.5762 205.201 76.972L204.649 76.7458C204.897 76.3217 205.201 75.636 205.356 75.1483ZM206.112 75.9824L206.784 76.2864C206.289 77.0851 205.646 78.0677 205.13 78.6685L204.656 78.407C205.158 77.7708 205.766 76.7388 206.112 75.9824ZM204.26 76.7741L204.677 76.2157C205.038 76.555 205.462 77.0215 205.632 77.3396L205.186 77.9758C205.031 77.6294 204.614 77.1275 204.26 76.7741ZM205.9 77.6436L206.459 77.4174C206.713 77.9051 206.961 78.5484 207.024 78.9654L206.431 79.2199C206.374 78.8099 206.148 78.1454 205.9 77.6436ZM204.239 78.2444C204.847 78.2161 205.709 78.1596 206.558 78.103L206.565 78.8028C205.78 78.8664 204.96 78.923 204.331 78.9725L204.239 78.2444ZM206.013 79.439L206.579 79.2694C206.749 79.6723 206.89 80.2024 206.932 80.5488L206.339 80.7397C206.31 80.3862 206.176 79.849 206.013 79.439ZM204.543 79.2976L205.201 79.4107C205.13 80.0823 204.974 80.7821 204.776 81.2345C204.642 81.1426 204.345 81.0083 204.183 80.9447C204.381 80.5276 204.487 79.8914 204.543 79.2976ZM205.271 78.619H205.985V81.7788H205.271V78.619ZM211.782 79.4885H218.172V80.1671H211.782V79.4885ZM213.139 76.8589H217.422V77.4103H213.139V76.8589ZM213.139 77.7072H217.429V78.2585H213.139V77.7072ZM212.969 75.9047H217.776V76.5691H212.969V75.9047ZM214.729 76.3217H215.542V78.8028H214.729V76.3217ZM214.531 79.0361H215.38V81.7717H214.531V79.0361ZM214.468 79.7712L215.104 80.0823C214.376 80.8033 213.16 81.4253 212.085 81.7364C211.965 81.5243 211.725 81.2133 211.541 81.0365C212.616 80.8103 213.839 80.3155 214.468 79.7712ZM215.471 79.75C216.079 80.2873 217.274 80.7821 218.334 81.0153C218.158 81.185 217.924 81.496 217.804 81.701C216.737 81.3971 215.549 80.775 214.828 80.0681L215.471 79.75ZM215.083 75.1412L216.037 75.2543C215.811 75.6785 215.556 76.0743 215.358 76.35L214.609 76.2015C214.786 75.8976 214.984 75.4593 215.083 75.1412ZM213.273 75.1271L214.142 75.2967C213.669 76.1238 213.047 76.9367 212.177 77.6365C212.043 77.4456 211.767 77.1841 211.577 77.0639C212.368 76.4914 212.948 75.7491 213.273 75.1271ZM212.587 76.3358H213.393V78.5625H217.981V79.2057H212.587V76.3358Z" fill="#00ABB6"/>
<path d="M63.4895 81.0907C63.4895 81.4754 63.8043 81.7902 64.189 81.7902H66.9871C67.3718 81.7902 67.6866 81.4754 67.6866 81.0907V76.8936H63.4895V81.0907ZM64.3499 78.6004L64.8431 78.1073L65.5881 78.8488L66.3295 78.1073L66.8227 78.6004L66.0812 79.3419L66.8227 80.0834L66.3295 80.5766L65.5881 79.8351L64.8466 80.5766L64.3534 80.0834L65.0949 79.3419L64.3499 78.6004ZM66.8122 75.8444L66.4624 75.4946H64.7137L64.3639 75.8444H63.1398V76.5439H68.0363V75.8444H66.8122Z" fill="#00ABB6"/>
<path d="M76.1505 75.9965H76.9705V79.9692H76.1505V75.9965ZM77.7127 75.2755H78.5539V80.7397C78.5539 81.2415 78.4478 81.4748 78.1651 81.6162C77.8682 81.7505 77.4017 81.7788 76.7513 81.7788C76.7089 81.5314 76.5746 81.1426 76.4474 80.9022C76.921 80.9164 77.3734 80.9164 77.5218 80.9164C77.6561 80.9164 77.7127 80.874 77.7127 80.7397V75.2755ZM72.8141 79.4744H75.479V80.1883H72.8141V79.4744ZM72.8141 78.308H75.479V79.022H72.8141V78.308ZM73.6199 75.1342H74.4611V77.6294H73.6199V75.1342ZM74.7792 77.0781H75.5991V80.7962C75.5991 81.185 75.5355 81.4112 75.281 81.5384C75.0336 81.6727 74.7014 81.6798 74.1995 81.6798C74.1712 81.4536 74.0723 81.1072 73.9733 80.8952C74.249 80.9093 74.56 80.9022 74.659 80.9022C74.7509 80.8952 74.7792 80.874 74.7792 80.7821V77.0781ZM72.2486 75.6502L72.9484 75.4098C73.1463 75.8269 73.3442 76.3783 73.422 76.7458L72.6868 77.0215C72.6232 76.6539 72.4323 76.0743 72.2486 75.6502ZM75.1043 75.3533L75.9455 75.5371C75.7546 76.0602 75.5426 76.6115 75.3659 76.9791L74.659 76.7953C74.8216 76.4065 75.0124 75.7986 75.1043 75.3533ZM72.5242 77.0781H75.2103V77.8698H73.3301V81.701H72.5242V77.0781ZM82.6042 77.1841H85.3681V77.8768H82.6042V77.1841ZM82.1801 78.5201H85.8841V79.234H82.1801V78.5201ZM83.9614 75.9047C83.5656 76.5126 82.8516 77.2548 82.0953 77.7072C82.0105 77.5022 81.8267 77.1982 81.6853 77.0286C82.4487 76.6045 83.198 75.8057 83.5585 75.1483H84.3078C84.8097 75.8905 85.559 76.6115 86.3012 76.965C86.1386 77.1558 85.9619 77.4598 85.8417 77.693C85.149 77.276 84.3855 76.5267 83.9614 75.9047ZM83.5726 77.5517H84.3785V80.9093C84.3785 81.284 84.3149 81.5031 84.0745 81.6303C83.8483 81.7646 83.5373 81.7858 83.1061 81.7858C83.0778 81.5596 82.9577 81.2133 82.8446 80.9941C83.1061 81.0012 83.3747 81.0012 83.4666 81.0012C83.5514 81.0012 83.5726 80.98 83.5726 80.8952V77.5517ZM82.4558 79.5026L83.1909 79.6864C82.9647 80.3367 82.5689 80.9941 82.166 81.4041C82.0317 81.2698 81.7418 81.0295 81.5722 80.9164C81.9539 80.57 82.272 80.0399 82.4558 79.5026ZM84.6117 79.7783L85.255 79.4744C85.6226 79.948 86.0184 80.5912 86.1669 81.0295L85.4671 81.3758C85.3328 80.9517 84.9581 80.2802 84.6117 79.7783ZM79.8474 75.4452H81.5156V76.2015H80.5896V81.7858H79.8474V75.4452ZM81.2541 75.4452H81.3955L81.5156 75.4169L82.067 75.7279C81.8832 76.3358 81.65 77.1063 81.445 77.6577C81.8832 78.2091 81.968 78.6827 81.968 79.0926C81.968 79.5521 81.8762 79.849 81.65 80.0045C81.5369 80.0823 81.4025 80.1318 81.247 80.153C81.1198 80.1671 80.9502 80.1742 80.7876 80.1742C80.7805 79.9692 80.7169 79.6511 80.6038 79.4461C80.731 79.4532 80.8229 79.4602 80.9077 79.4532C80.9855 79.4532 81.0562 79.439 81.1057 79.3966C81.1905 79.333 81.2258 79.1916 81.2258 78.9937C81.2258 78.6615 81.1339 78.2232 80.731 77.7496C80.9289 77.1134 81.1551 76.1379 81.2541 75.6855V75.4452Z" fill="#00ABB6"/>
<path d="M61.1775 94.8785C61.4337 94.905 61.69 94.9226 61.9816 94.9226C62.4941 94.9226 65.0653 94.9226 65.5601 94.9226C65.8075 94.9226 66.1256 94.905 66.3819 94.8785V95.6119C66.1168 95.5942 65.8075 95.5765 65.5601 95.5765C65.0653 95.5765 62.4941 95.5765 61.9904 95.5765C61.6988 95.5765 61.4072 95.5942 61.1775 95.6119V94.8785ZM60.126 97.0963C60.3646 97.1228 60.6208 97.1316 60.8948 97.1316C61.4072 97.1316 66.2051 97.1316 66.6734 97.1316C66.859 97.1316 67.1506 97.1228 67.3715 97.0963V97.8208C67.1682 97.812 66.8943 97.8032 66.6734 97.8032C66.2051 97.8032 61.4072 97.8032 60.8948 97.8032C60.6297 97.8032 60.3646 97.812 60.126 97.8297V97.0963ZM64.2877 97.4497C64.2877 98.563 64.1464 99.482 63.7488 100.224C63.4307 100.816 62.7591 101.444 62.0169 101.832L61.3631 101.355C62.0434 101.064 62.6796 100.56 63.0242 99.9945C63.466 99.2964 63.5367 98.4305 63.5455 97.4586L64.2877 97.4497ZM71.5774 95.1612C71.5332 94.9403 71.4802 94.7459 71.4183 94.5604L72.2047 94.4278C72.2224 94.5869 72.2577 94.8431 72.2931 95.0375C72.3461 95.4263 73.318 100.277 73.4417 100.86C73.5036 101.108 73.5743 101.408 73.6626 101.664L72.8497 101.815C72.8056 101.514 72.779 101.24 72.7172 100.984C72.6288 100.427 71.6834 95.6207 71.5774 95.1612ZM69.0856 96.4424C69.3065 96.4248 69.5451 96.4071 69.8279 96.3806C70.6231 96.2922 73.6715 95.8062 74.5109 95.6384C74.7671 95.5942 74.9969 95.5412 75.1471 95.497L75.2884 96.2392C75.1559 96.248 74.8908 96.2922 74.6523 96.3276C73.7422 96.4689 70.7291 96.9461 69.9516 97.0786C69.713 97.1228 69.5009 97.167 69.2447 97.2288L69.0856 96.4424ZM69.0591 98.9872C69.2712 98.9783 69.607 98.943 69.8367 98.9076C70.7821 98.7839 74.0691 98.2449 75.1294 98.0506C75.4652 97.9887 75.7214 97.9269 75.907 97.8738L76.0572 98.6161C75.8716 98.6337 75.5889 98.6867 75.2619 98.7398C74.0868 98.9165 70.897 99.4378 70.0046 99.5968C69.66 99.6587 69.4126 99.7117 69.2182 99.7647L69.0591 98.9872ZM83.7508 95.5058C83.6978 95.5765 83.5829 95.7709 83.5388 95.8858C83.1853 96.7605 82.5138 97.9975 81.7804 98.8104C80.7908 99.9149 79.5273 100.966 78.1312 101.603L77.5657 101.011C78.9971 100.463 80.296 99.4025 81.2061 98.3952C81.8069 97.7148 82.4519 96.6633 82.6817 95.9299C82.3636 95.9299 79.5361 95.9299 79.2357 95.9299C78.9176 95.9299 78.4404 95.9653 78.3432 95.9741V95.1789C78.4581 95.1966 78.9618 95.2319 79.2357 95.2319C79.5803 95.2319 82.3106 95.2319 82.6463 95.2319C82.9291 95.2319 83.1677 95.2054 83.309 95.1612L83.7508 95.5058ZM81.8953 98.351C82.8496 99.1462 84.0247 100.383 84.6256 101.117L84.0159 101.656C83.3797 100.816 82.3459 99.6852 81.3916 98.8458L81.8953 98.351ZM88.4957 100.631C88.4957 100.136 88.4957 96.2304 88.4957 95.497C88.4957 95.2407 88.478 94.852 88.4338 94.5692H89.2998C89.2644 94.8431 89.2379 95.2231 89.2379 95.497C89.2379 96.8665 89.2468 100.215 89.2468 100.631C89.2468 100.913 89.2644 101.391 89.2998 101.682H88.4427C88.4869 101.399 88.4957 100.958 88.4957 100.631ZM89.0789 96.8931C90.2452 97.2288 92.0301 97.9092 93.0108 98.3863L92.7016 99.1374C91.6943 98.5984 90.042 97.971 89.0789 97.6706V96.8931ZM96.2536 94.8785C96.5099 94.905 96.7661 94.9226 97.0577 94.9226C97.5702 94.9226 100.141 94.9226 100.636 94.9226C100.884 94.9226 101.202 94.905 101.458 94.8785V95.6119C101.193 95.5942 100.884 95.5765 100.636 95.5765C100.141 95.5765 97.5702 95.5765 97.0665 95.5765C96.7749 95.5765 96.4834 95.5942 96.2536 95.6119V94.8785ZM95.2022 97.0963C95.4407 97.1228 95.697 97.1316 95.9709 97.1316C96.4834 97.1316 101.281 97.1316 101.75 97.1316C101.935 97.1316 102.227 97.1228 102.448 97.0963V97.8208C102.244 97.812 101.97 97.8032 101.75 97.8032C101.281 97.8032 96.4834 97.8032 95.9709 97.8032C95.7058 97.8032 95.4407 97.812 95.2022 97.8297V97.0963ZM99.3639 97.4497C99.3639 98.563 99.2225 99.482 98.8249 100.224C98.5068 100.816 97.8352 101.444 97.093 101.832L96.4392 101.355C97.1195 101.064 97.7557 100.56 98.1003 99.9945C98.5421 99.2964 98.6128 98.4305 98.6216 97.4586L99.3639 97.4497ZM106.653 95.1612C106.609 94.9403 106.556 94.7459 106.494 94.5604L107.281 94.4278C107.299 94.5869 107.334 94.8431 107.369 95.0375C107.422 95.4263 108.394 100.277 108.518 100.86C108.58 101.108 108.65 101.408 108.739 101.664L107.926 101.815C107.882 101.514 107.855 101.24 107.793 100.984C107.705 100.427 106.76 95.6207 106.653 95.1612ZM104.162 96.4424C104.383 96.4248 104.621 96.4071 104.904 96.3806C105.699 96.2922 108.748 95.8062 109.587 95.6384C109.843 95.5942 110.073 95.5412 110.223 95.497L110.365 96.2392C110.232 96.248 109.967 96.2922 109.728 96.3276C108.818 96.4689 105.805 96.9461 105.028 97.0786C104.789 97.1228 104.577 97.167 104.321 97.2288L104.162 96.4424ZM104.135 98.9872C104.347 98.9783 104.683 98.943 104.913 98.9076C105.858 98.7839 109.145 98.2449 110.206 98.0506C110.541 97.9887 110.798 97.9269 110.983 97.8738L111.133 98.6161C110.948 98.6337 110.665 98.6867 110.338 98.7398C109.163 98.9165 105.973 99.4378 105.081 99.5968C104.736 99.6587 104.489 99.7117 104.294 99.7647L104.135 98.9872ZM118.827 95.5058C118.774 95.5765 118.659 95.7709 118.615 95.8858C118.261 96.7605 117.59 97.9975 116.857 98.8104C115.867 99.9149 114.603 100.966 113.207 101.603L112.642 101.011C114.073 100.463 115.372 99.4025 116.282 98.3952C116.883 97.7148 117.528 96.6633 117.758 95.9299C117.44 95.9299 114.612 95.9299 114.312 95.9299C113.994 95.9299 113.517 95.9653 113.419 95.9741V95.1789C113.534 95.1966 114.038 95.2319 114.312 95.2319C114.656 95.2319 117.387 95.2319 117.722 95.2319C118.005 95.2319 118.244 95.2054 118.385 95.1612L118.827 95.5058ZM116.971 98.351C117.926 99.1462 119.101 100.383 119.702 101.117L119.092 101.656C118.456 100.816 117.422 99.6852 116.468 98.8458L116.971 98.351ZM123.572 100.631C123.572 100.136 123.572 96.2304 123.572 95.497C123.572 95.2407 123.554 94.852 123.51 94.5692H124.376C124.341 94.8431 124.314 95.2231 124.314 95.497C124.314 96.8665 124.323 100.215 124.323 100.631C124.323 100.913 124.341 101.391 124.376 101.682H123.519C123.563 101.399 123.572 100.958 123.572 100.631ZM124.155 96.8931C125.321 97.2288 127.106 97.9092 128.087 98.3863L127.778 99.1374C126.77 98.5984 125.118 97.971 124.155 97.6706V96.8931ZM131.33 94.8785C131.586 94.905 131.842 94.9226 132.134 94.9226C132.646 94.9226 135.218 94.9226 135.712 94.9226C135.96 94.9226 136.278 94.905 136.534 94.8785V95.6119C136.269 95.5942 135.96 95.5765 135.712 95.5765C135.218 95.5765 132.646 95.5765 132.143 95.5765C131.851 95.5765 131.559 95.5942 131.33 95.6119V94.8785ZM130.278 97.0963C130.517 97.1228 130.773 97.1316 131.047 97.1316C131.559 97.1316 136.357 97.1316 136.826 97.1316C137.011 97.1316 137.303 97.1228 137.524 97.0963V97.8208C137.32 97.812 137.047 97.8032 136.826 97.8032C136.357 97.8032 131.559 97.8032 131.047 97.8032C130.782 97.8032 130.517 97.812 130.278 97.8297V97.0963ZM134.44 97.4497C134.44 98.563 134.299 99.482 133.901 100.224C133.583 100.816 132.911 101.444 132.169 101.832L131.515 101.355C132.196 101.064 132.832 100.56 133.176 99.9945C133.618 99.2964 133.689 98.4305 133.698 97.4586L134.44 97.4497ZM141.73 95.1612C141.685 94.9403 141.632 94.7459 141.571 94.5604L142.357 94.4278C142.375 94.5869 142.41 94.8431 142.445 95.0375C142.498 95.4263 143.47 100.277 143.594 100.86C143.656 101.108 143.727 101.408 143.815 101.664L143.002 101.815C142.958 101.514 142.931 101.24 142.869 100.984C142.781 100.427 141.836 95.6207 141.73 95.1612ZM139.238 96.4424C139.459 96.4248 139.697 96.4071 139.98 96.3806C140.775 96.2922 143.824 95.8062 144.663 95.6384C144.919 95.5942 145.149 95.5412 145.299 95.497L145.441 96.2392C145.308 96.248 145.043 96.2922 144.804 96.3276C143.894 96.4689 140.881 96.9461 140.104 97.0786C139.865 97.1228 139.653 97.167 139.397 97.2288L139.238 96.4424ZM139.211 98.9872C139.423 98.9783 139.759 98.943 139.989 98.9076C140.934 98.7839 144.221 98.2449 145.282 98.0506C145.617 97.9887 145.874 97.9269 146.059 97.8738L146.209 98.6161C146.024 98.6337 145.741 98.6867 145.414 98.7398C144.239 98.9165 141.049 99.4378 140.157 99.5968C139.812 99.6587 139.565 99.7117 139.37 99.7647L139.211 98.9872ZM153.903 95.5058C153.85 95.5765 153.735 95.7709 153.691 95.8858C153.338 96.7605 152.666 97.9975 151.933 98.8104C150.943 99.9149 149.679 100.966 148.283 101.603L147.718 101.011C149.149 100.463 150.448 99.4025 151.358 98.3952C151.959 97.7148 152.604 96.6633 152.834 95.9299C152.516 95.9299 149.688 95.9299 149.388 95.9299C149.07 95.9299 148.593 95.9653 148.495 95.9741V95.1789C148.61 95.1966 149.114 95.2319 149.388 95.2319C149.733 95.2319 152.463 95.2319 152.799 95.2319C153.081 95.2319 153.32 95.2054 153.461 95.1612L153.903 95.5058ZM152.048 98.351C153.002 99.1462 154.177 100.383 154.778 101.117L154.168 101.656C153.532 100.816 152.498 99.6852 151.544 98.8458L152.048 98.351ZM158.648 100.631C158.648 100.136 158.648 96.2304 158.648 95.497C158.648 95.2407 158.63 94.852 158.586 94.5692H159.452C159.417 94.8431 159.39 95.2231 159.39 95.497C159.39 96.8665 159.399 100.215 159.399 100.631C159.399 100.913 159.417 101.391 159.452 101.682H158.595C158.639 101.399 158.648 100.958 158.648 100.631ZM159.231 96.8931C160.397 97.2288 162.182 97.9092 163.163 98.3863L162.854 99.1374C161.847 98.5984 160.194 97.971 159.231 97.6706V96.8931ZM166.406 94.8785C166.662 94.905 166.918 94.9226 167.21 94.9226C167.722 94.9226 170.294 94.9226 170.788 94.9226C171.036 94.9226 171.354 94.905 171.61 94.8785V95.6119C171.345 95.5942 171.036 95.5765 170.788 95.5765C170.294 95.5765 167.722 95.5765 167.219 95.5765C166.927 95.5765 166.636 95.5942 166.406 95.6119V94.8785ZM165.354 97.0963C165.593 97.1228 165.849 97.1316 166.123 97.1316C166.636 97.1316 171.433 97.1316 171.902 97.1316C172.087 97.1316 172.379 97.1228 172.6 97.0963V97.8208C172.397 97.812 172.123 97.8032 171.902 97.8032C171.433 97.8032 166.636 97.8032 166.123 97.8032C165.858 97.8032 165.593 97.812 165.354 97.8297V97.0963ZM169.516 97.4497C169.516 98.563 169.375 99.482 168.977 100.224C168.659 100.816 167.987 101.444 167.245 101.832L166.591 101.355C167.272 101.064 167.908 100.56 168.253 99.9945C168.694 99.2964 168.765 98.4305 168.774 97.4586L169.516 97.4497ZM176.806 95.1612C176.762 94.9403 176.709 94.7459 176.647 94.5604L177.433 94.4278C177.451 94.5869 177.486 94.8431 177.521 95.0375C177.574 95.4263 178.546 100.277 178.67 100.86C178.732 101.108 178.803 101.408 178.891 101.664L178.078 101.815C178.034 101.514 178.007 101.24 177.946 100.984C177.857 100.427 176.912 95.6207 176.806 95.1612ZM174.314 96.4424C174.535 96.4248 174.773 96.4071 175.056 96.3806C175.851 96.2922 178.9 95.8062 179.739 95.6384C179.995 95.5942 180.225 95.5412 180.375 95.497L180.517 96.2392C180.384 96.248 180.119 96.2922 179.881 96.3276C178.971 96.4689 175.957 96.9461 175.18 97.0786C174.941 97.1228 174.729 97.167 174.473 97.2288L174.314 96.4424ZM174.287 98.9872C174.5 98.9783 174.835 98.943 175.065 98.9076C176.01 98.7839 179.297 98.2449 180.358 98.0506C180.694 97.9887 180.95 97.9269 181.135 97.8738L181.286 98.6161C181.1 98.6337 180.817 98.6867 180.49 98.7398C179.315 98.9165 176.125 99.4378 175.233 99.5968C174.888 99.6587 174.641 99.7117 174.447 99.7647L174.287 98.9872ZM188.979 95.5058C188.926 95.5765 188.811 95.7709 188.767 95.8858C188.414 96.7605 187.742 97.9975 187.009 98.8104C186.019 99.9149 184.756 100.966 183.36 101.603L182.794 101.011C184.225 100.463 185.524 99.4025 186.434 98.3952C187.035 97.7148 187.68 96.6633 187.91 95.9299C187.592 95.9299 184.764 95.9299 184.464 95.9299C184.146 95.9299 183.669 95.9653 183.572 95.9741V95.1789C183.686 95.1966 184.19 95.2319 184.464 95.2319C184.809 95.2319 187.539 95.2319 187.875 95.2319C188.157 95.2319 188.396 95.2054 188.537 95.1612L188.979 95.5058ZM187.124 98.351C188.078 99.1462 189.253 100.383 189.854 101.117L189.244 101.656C188.608 100.816 187.574 99.6852 186.62 98.8458L187.124 98.351ZM193.724 100.631C193.724 100.136 193.724 96.2304 193.724 95.497C193.724 95.2407 193.706 94.852 193.662 94.5692H194.528C194.493 94.8431 194.466 95.2231 194.466 95.497C194.466 96.8665 194.475 100.215 194.475 100.631C194.475 100.913 194.493 101.391 194.528 101.682H193.671C193.715 101.399 193.724 100.958 193.724 100.631ZM194.307 96.8931C195.474 97.2288 197.258 97.9092 198.239 98.3863L197.93 99.1374C196.923 98.5984 195.27 97.971 194.307 97.6706V96.8931ZM201.482 94.8785C201.738 94.905 201.994 94.9226 202.286 94.9226C202.799 94.9226 205.37 94.9226 205.865 94.9226C206.112 94.9226 206.43 94.905 206.686 94.8785V95.6119C206.421 95.5942 206.112 95.5765 205.865 95.5765C205.37 95.5765 202.799 95.5765 202.295 95.5765C202.003 95.5765 201.712 95.5942 201.482 95.6119V94.8785ZM200.431 97.0963C200.669 97.1228 200.925 97.1316 201.199 97.1316C201.712 97.1316 206.51 97.1316 206.978 97.1316C207.163 97.1316 207.455 97.1228 207.676 97.0963V97.8208C207.473 97.812 207.199 97.8032 206.978 97.8032C206.51 97.8032 201.712 97.8032 201.199 97.8032C200.934 97.8032 200.669 97.812 200.431 97.8297V97.0963ZM204.592 97.4497C204.592 98.563 204.451 99.482 204.053 100.224C203.735 100.816 203.064 101.444 202.321 101.832L201.668 101.355C202.348 101.064 202.984 100.56 203.329 99.9945C203.77 99.2964 203.841 98.4305 203.85 97.4586L204.592 97.4497ZM211.882 95.1612C211.838 94.9403 211.785 94.7459 211.723 94.5604L212.509 94.4278C212.527 94.5869 212.562 94.8431 212.598 95.0375C212.651 95.4263 213.623 100.277 213.746 100.86C213.808 101.108 213.879 101.408 213.967 101.664L213.154 101.815C213.11 101.514 213.084 101.24 213.022 100.984C212.933 100.427 211.988 95.6207 211.882 95.1612ZM209.39 96.4424C209.611 96.4248 209.85 96.4071 210.132 96.3806C210.928 96.2922 213.976 95.8062 214.815 95.6384C215.072 95.5942 215.301 95.5412 215.452 95.497L215.593 96.2392C215.46 96.248 215.195 96.2922 214.957 96.3276C214.047 96.4689 211.034 96.9461 210.256 97.0786C210.017 97.1228 209.805 97.167 209.549 97.2288L209.39 96.4424ZM209.364 98.9872C209.576 98.9783 209.911 98.943 210.141 98.9076C211.087 98.7839 214.374 98.2449 215.434 98.0506C215.77 97.9887 216.026 97.9269 216.211 97.8738L216.362 98.6161C216.176 98.6337 215.893 98.6867 215.566 98.7398C214.391 98.9165 211.201 99.4378 210.309 99.5968C209.964 99.6587 209.717 99.7117 209.523 99.7647L209.364 98.9872ZM61.1775 107.878C61.4337 107.905 61.69 107.923 61.9816 107.923C62.4941 107.923 65.0653 107.923 65.5601 107.923C65.8075 107.923 66.1256 107.905 66.3819 107.878V108.612C66.1168 108.594 65.8075 108.577 65.5601 108.577C65.0653 108.577 62.4941 108.577 61.9904 108.577C61.6988 108.577 61.4072 108.594 61.1775 108.612V107.878ZM60.126 110.096C60.3646 110.123 60.6208 110.132 60.8948 110.132C61.4072 110.132 66.2051 110.132 66.6734 110.132C66.859 110.132 67.1506 110.123 67.3715 110.096V110.821C67.1682 110.812 66.8943 110.803 66.6734 110.803C66.2051 110.803 61.4072 110.803 60.8948 110.803C60.6297 110.803 60.3646 110.812 60.126 110.83V110.096ZM64.2877 110.45C64.2877 111.563 64.1464 112.482 63.7488 113.224C63.4307 113.816 62.7591 114.444 62.0169 114.832L61.3631 114.355C62.0434 114.064 62.6796 113.56 63.0242 112.994C63.466 112.296 63.5367 111.431 63.5455 110.459L64.2877 110.45ZM71.5774 108.161C71.5332 107.94 71.4802 107.746 71.4183 107.56L72.2047 107.428C72.2224 107.587 72.2577 107.843 72.2931 108.038C72.3461 108.426 73.318 113.277 73.4417 113.86C73.5036 114.108 73.5743 114.408 73.6626 114.664L72.8497 114.815C72.8056 114.514 72.779 114.24 72.7172 113.984C72.6288 113.427 71.6834 108.621 71.5774 108.161ZM69.0856 109.442C69.3065 109.425 69.5451 109.407 69.8279 109.381C70.6231 109.292 73.6715 108.806 74.5109 108.638C74.7671 108.594 74.9969 108.541 75.1471 108.497L75.2884 109.239C75.1559 109.248 74.8908 109.292 74.6523 109.328C73.7422 109.469 70.7291 109.946 69.9516 110.079C69.713 110.123 69.5009 110.167 69.2447 110.229L69.0856 109.442ZM69.0591 111.987C69.2712 111.978 69.607 111.943 69.8367 111.908C70.7821 111.784 74.0691 111.245 75.1294 111.051C75.4652 110.989 75.7214 110.927 75.907 110.874L76.0572 111.616C75.8716 111.634 75.5889 111.687 75.2619 111.74C74.0868 111.916 70.897 112.438 70.0046 112.597C69.66 112.659 69.4126 112.712 69.2182 112.765L69.0591 111.987ZM83.7508 108.506C83.6978 108.577 83.5829 108.771 83.5388 108.886C83.1853 109.761 82.5138 110.998 81.7804 111.81C80.7908 112.915 79.5273 113.966 78.1312 114.603L77.5657 114.011C78.9971 113.463 80.296 112.402 81.2061 111.395C81.8069 110.715 82.4519 109.663 82.6817 108.93C82.3636 108.93 79.5361 108.93 79.2357 108.93C78.9176 108.93 78.4404 108.965 78.3432 108.974V108.179C78.4581 108.197 78.9618 108.232 79.2357 108.232C79.5803 108.232 82.3106 108.232 82.6463 108.232C82.9291 108.232 83.1677 108.205 83.309 108.161L83.7508 108.506ZM81.8953 111.351C82.8496 112.146 84.0247 113.383 84.6256 114.117L84.0159 114.656C83.3797 113.816 82.3459 112.685 81.3916 111.846L81.8953 111.351ZM88.4957 113.631C88.4957 113.136 88.4957 109.23 88.4957 108.497C88.4957 108.241 88.478 107.852 88.4338 107.569H89.2998C89.2644 107.843 89.2379 108.223 89.2379 108.497C89.2379 109.867 89.2468 113.215 89.2468 113.631C89.2468 113.913 89.2644 114.391 89.2998 114.682H88.4427C88.4869 114.399 88.4957 113.958 88.4957 113.631ZM89.0789 109.893C90.2452 110.229 92.0301 110.909 93.0108 111.386L92.7016 112.137C91.6943 111.598 90.042 110.971 89.0789 110.671V109.893ZM96.2536 107.878C96.5099 107.905 96.7661 107.923 97.0577 107.923C97.5702 107.923 100.141 107.923 100.636 107.923C100.884 107.923 101.202 107.905 101.458 107.878V108.612C101.193 108.594 100.884 108.577 100.636 108.577C100.141 108.577 97.5702 108.577 97.0665 108.577C96.7749 108.577 96.4834 108.594 96.2536 108.612V107.878ZM95.2022 110.096C95.4407 110.123 95.697 110.132 95.9709 110.132C96.4834 110.132 101.281 110.132 101.75 110.132C101.935 110.132 102.227 110.123 102.448 110.096V110.821C102.244 110.812 101.97 110.803 101.75 110.803C101.281 110.803 96.4834 110.803 95.9709 110.803C95.7058 110.803 95.4407 110.812 95.2022 110.83V110.096ZM99.3639 110.45C99.3639 111.563 99.2225 112.482 98.8249 113.224C98.5068 113.816 97.8352 114.444 97.093 114.832L96.4392 114.355C97.1195 114.064 97.7557 113.56 98.1003 112.994C98.5421 112.296 98.6128 111.431 98.6216 110.459L99.3639 110.45ZM106.653 108.161C106.609 107.94 106.556 107.746 106.494 107.56L107.281 107.428C107.299 107.587 107.334 107.843 107.369 108.038C107.422 108.426 108.394 113.277 108.518 113.86C108.58 114.108 108.65 114.408 108.739 114.664L107.926 114.815C107.882 114.514 107.855 114.24 107.793 113.984C107.705 113.427 106.76 108.621 106.653 108.161ZM104.162 109.442C104.383 109.425 104.621 109.407 104.904 109.381C105.699 109.292 108.748 108.806 109.587 108.638C109.843 108.594 110.073 108.541 110.223 108.497L110.365 109.239C110.232 109.248 109.967 109.292 109.728 109.328C108.818 109.469 105.805 109.946 105.028 110.079C104.789 110.123 104.577 110.167 104.321 110.229L104.162 109.442ZM104.135 111.987C104.347 111.978 104.683 111.943 104.913 111.908C105.858 111.784 109.145 111.245 110.206 111.051C110.541 110.989 110.798 110.927 110.983 110.874L111.133 111.616C110.948 111.634 110.665 111.687 110.338 111.74C109.163 111.916 105.973 112.438 105.081 112.597C104.736 112.659 104.489 112.712 104.294 112.765L104.135 111.987ZM118.827 108.506C118.774 108.577 118.659 108.771 118.615 108.886C118.261 109.761 117.59 110.998 116.857 111.81C115.867 112.915 114.603 113.966 113.207 114.603L112.642 114.011C114.073 113.463 115.372 112.402 116.282 111.395C116.883 110.715 117.528 109.663 117.758 108.93C117.44 108.93 114.612 108.93 114.312 108.93C113.994 108.93 113.517 108.965 113.419 108.974V108.179C113.534 108.197 114.038 108.232 114.312 108.232C114.656 108.232 117.387 108.232 117.722 108.232C118.005 108.232 118.244 108.205 118.385 108.161L118.827 108.506ZM116.971 111.351C117.926 112.146 119.101 113.383 119.702 114.117L119.092 114.656C118.456 113.816 117.422 112.685 116.468 111.846L116.971 111.351ZM123.572 113.631C123.572 113.136 123.572 109.23 123.572 108.497C123.572 108.241 123.554 107.852 123.51 107.569H124.376C124.341 107.843 124.314 108.223 124.314 108.497C124.314 109.867 124.323 113.215 124.323 113.631C124.323 113.913 124.341 114.391 124.376 114.682H123.519C123.563 114.399 123.572 113.958 123.572 113.631ZM124.155 109.893C125.321 110.229 127.106 110.909 128.087 111.386L127.778 112.137C126.77 111.598 125.118 110.971 124.155 110.671V109.893ZM131.33 107.878C131.586 107.905 131.842 107.923 132.134 107.923C132.646 107.923 135.218 107.923 135.712 107.923C135.96 107.923 136.278 107.905 136.534 107.878V108.612C136.269 108.594 135.96 108.577 135.712 108.577C135.218 108.577 132.646 108.577 132.143 108.577C131.851 108.577 131.559 108.594 131.33 108.612V107.878ZM130.278 110.096C130.517 110.123 130.773 110.132 131.047 110.132C131.559 110.132 136.357 110.132 136.826 110.132C137.011 110.132 137.303 110.123 137.524 110.096V110.821C137.32 110.812 137.047 110.803 136.826 110.803C136.357 110.803 131.559 110.803 131.047 110.803C130.782 110.803 130.517 110.812 130.278 110.83V110.096ZM134.44 110.45C134.44 111.563 134.299 112.482 133.901 113.224C133.583 113.816 132.911 114.444 132.169 114.832L131.515 114.355C132.196 114.064 132.832 113.56 133.176 112.994C133.618 112.296 133.689 111.431 133.698 110.459L134.44 110.45ZM141.73 108.161C141.685 107.94 141.632 107.746 141.571 107.56L142.357 107.428C142.375 107.587 142.41 107.843 142.445 108.038C142.498 108.426 143.47 113.277 143.594 113.86C143.656 114.108 143.727 114.408 143.815 114.664L143.002 114.815C142.958 114.514 142.931 114.24 142.869 113.984C142.781 113.427 141.836 108.621 141.73 108.161ZM139.238 109.442C139.459 109.425 139.697 109.407 139.98 109.381C140.775 109.292 143.824 108.806 144.663 108.638C144.919 108.594 145.149 108.541 145.299 108.497L145.441 109.239C145.308 109.248 145.043 109.292 144.804 109.328C143.894 109.469 140.881 109.946 140.104 110.079C139.865 110.123 139.653 110.167 139.397 110.229L139.238 109.442ZM139.211 111.987C139.423 111.978 139.759 111.943 139.989 111.908C140.934 111.784 144.221 111.245 145.282 111.051C145.617 110.989 145.874 110.927 146.059 110.874L146.209 111.616C146.024 111.634 145.741 111.687 145.414 111.74C144.239 111.916 141.049 112.438 140.157 112.597C139.812 112.659 139.565 112.712 139.37 112.765L139.211 111.987ZM153.903 108.506C153.85 108.577 153.735 108.771 153.691 108.886C153.338 109.761 152.666 110.998 151.933 111.81C150.943 112.915 149.679 113.966 148.283 114.603L147.718 114.011C149.149 113.463 150.448 112.402 151.358 111.395C151.959 110.715 152.604 109.663 152.834 108.93C152.516 108.93 149.688 108.93 149.388 108.93C149.07 108.93 148.593 108.965 148.495 108.974V108.179C148.61 108.197 149.114 108.232 149.388 108.232C149.733 108.232 152.463 108.232 152.799 108.232C153.081 108.232 153.32 108.205 153.461 108.161L153.903 108.506ZM152.048 111.351C153.002 112.146 154.177 113.383 154.778 114.117L154.168 114.656C153.532 113.816 152.498 112.685 151.544 111.846L152.048 111.351ZM158.648 113.631C158.648 113.136 158.648 109.23 158.648 108.497C158.648 108.241 158.63 107.852 158.586 107.569H159.452C159.417 107.843 159.39 108.223 159.39 108.497C159.39 109.867 159.399 113.215 159.399 113.631C159.399 113.913 159.417 114.391 159.452 114.682H158.595C158.639 114.399 158.648 113.958 158.648 113.631ZM159.231 109.893C160.397 110.229 162.182 110.909 163.163 111.386L162.854 112.137C161.847 111.598 160.194 110.971 159.231 110.671V109.893ZM166.406 107.878C166.662 107.905 166.918 107.923 167.21 107.923C167.722 107.923 170.294 107.923 170.788 107.923C171.036 107.923 171.354 107.905 171.61 107.878V108.612C171.345 108.594 171.036 108.577 170.788 108.577C170.294 108.577 167.722 108.577 167.219 108.577C166.927 108.577 166.636 108.594 166.406 108.612V107.878ZM165.354 110.096C165.593 110.123 165.849 110.132 166.123 110.132C166.636 110.132 171.433 110.132 171.902 110.132C172.087 110.132 172.379 110.123 172.6 110.096V110.821C172.397 110.812 172.123 110.803 171.902 110.803C171.433 110.803 166.636 110.803 166.123 110.803C165.858 110.803 165.593 110.812 165.354 110.83V110.096ZM169.516 110.45C169.516 111.563 169.375 112.482 168.977 113.224C168.659 113.816 167.987 114.444 167.245 114.832L166.591 114.355C167.272 114.064 167.908 113.56 168.253 112.994C168.694 112.296 168.765 111.431 168.774 110.459L169.516 110.45ZM176.806 108.161C176.762 107.94 176.709 107.746 176.647 107.56L177.433 107.428C177.451 107.587 177.486 107.843 177.521 108.038C177.574 108.426 178.546 113.277 178.67 113.86C178.732 114.108 178.803 114.408 178.891 114.664L178.078 114.815C178.034 114.514 178.007 114.24 177.946 113.984C177.857 113.427 176.912 108.621 176.806 108.161ZM174.314 109.442C174.535 109.425 174.773 109.407 175.056 109.381C175.851 109.292 178.9 108.806 179.739 108.638C179.995 108.594 180.225 108.541 180.375 108.497L180.517 109.239C180.384 109.248 180.119 109.292 179.881 109.328C178.971 109.469 175.957 109.946 175.18 110.079C174.941 110.123 174.729 110.167 174.473 110.229L174.314 109.442ZM174.287 111.987C174.5 111.978 174.835 111.943 175.065 111.908C176.01 111.784 179.297 111.245 180.358 111.051C180.694 110.989 180.95 110.927 181.135 110.874L181.286 111.616C181.1 111.634 180.817 111.687 180.49 111.74C179.315 111.916 176.125 112.438 175.233 112.597C174.888 112.659 174.641 112.712 174.447 112.765L174.287 111.987ZM188.979 108.506C188.926 108.577 188.811 108.771 188.767 108.886C188.414 109.761 187.742 110.998 187.009 111.81C186.019 112.915 184.756 113.966 183.36 114.603L182.794 114.011C184.225 113.463 185.524 112.402 186.434 111.395C187.035 110.715 187.68 109.663 187.91 108.93C187.592 108.93 184.764 108.93 184.464 108.93C184.146 108.93 183.669 108.965 183.572 108.974V108.179C183.686 108.197 184.19 108.232 184.464 108.232C184.809 108.232 187.539 108.232 187.875 108.232C188.157 108.232 188.396 108.205 188.537 108.161L188.979 108.506ZM187.124 111.351C188.078 112.146 189.253 113.383 189.854 114.117L189.244 114.656C188.608 113.816 187.574 112.685 186.62 111.846L187.124 111.351ZM193.724 113.631C193.724 113.136 193.724 109.23 193.724 108.497C193.724 108.241 193.706 107.852 193.662 107.569H194.528C194.493 107.843 194.466 108.223 194.466 108.497C194.466 109.867 194.475 113.215 194.475 113.631C194.475 113.913 194.493 114.391 194.528 114.682H193.671C193.715 114.399 193.724 113.958 193.724 113.631ZM194.307 109.893C195.474 110.229 197.258 110.909 198.239 111.386L197.93 112.137C196.923 111.598 195.27 110.971 194.307 110.671V109.893ZM201.482 107.878C201.738 107.905 201.994 107.923 202.286 107.923C202.799 107.923 205.37 107.923 205.865 107.923C206.112 107.923 206.43 107.905 206.686 107.878V108.612C206.421 108.594 206.112 108.577 205.865 108.577C205.37 108.577 202.799 108.577 202.295 108.577C202.003 108.577 201.712 108.594 201.482 108.612V107.878ZM200.431 110.096C200.669 110.123 200.925 110.132 201.199 110.132C201.712 110.132 206.51 110.132 206.978 110.132C207.163 110.132 207.455 110.123 207.676 110.096V110.821C207.473 110.812 207.199 110.803 206.978 110.803C206.51 110.803 201.712 110.803 201.199 110.803C200.934 110.803 200.669 110.812 200.431 110.83V110.096ZM204.592 110.45C204.592 111.563 204.451 112.482 204.053 113.224C203.735 113.816 203.064 114.444 202.321 114.832L201.668 114.355C202.348 114.064 202.984 113.56 203.329 112.994C203.77 112.296 203.841 111.431 203.85 110.459L204.592 110.45ZM211.882 108.161C211.838 107.94 211.785 107.746 211.723 107.56L212.509 107.428C212.527 107.587 212.562 107.843 212.598 108.038C212.651 108.426 213.623 113.277 213.746 113.86C213.808 114.108 213.879 114.408 213.967 114.664L213.154 114.815C213.11 114.514 213.084 114.24 213.022 113.984C212.933 113.427 211.988 108.621 211.882 108.161ZM209.39 109.442C209.611 109.425 209.85 109.407 210.132 109.381C210.928 109.292 213.976 108.806 214.815 108.638C215.072 108.594 215.301 108.541 215.452 108.497L215.593 109.239C215.46 109.248 215.195 109.292 214.957 109.328C214.047 109.469 211.034 109.946 210.256 110.079C210.017 110.123 209.805 110.167 209.549 110.229L209.39 109.442ZM209.364 111.987C209.576 111.978 209.911 111.943 210.141 111.908C211.087 111.784 214.374 111.245 215.434 111.051C215.77 110.989 216.026 110.927 216.211 110.874L216.362 111.616C216.176 111.634 215.893 111.687 215.566 111.74C214.391 111.916 211.201 112.438 210.309 112.597C209.964 112.659 209.717 112.712 209.523 112.765L209.364 111.987Z" fill="black"/>
<rect x="64.5879" y="40.1602" width="144.909" height="15.4628" rx="3.97616" fill="#00ABB6"/>
<path d="M174.336 46.6903C174.458 46.8653 174.633 47.1617 174.73 47.3561L174.468 47.4776C174.37 47.2784 174.205 46.9868 174.074 46.8021L174.336 46.6903ZM174.866 46.4959C174.997 46.6757 175.182 46.9771 175.274 47.1569L175.012 47.2735C174.905 47.0645 174.749 46.7875 174.613 46.6077L174.866 46.4959ZM174.657 47.6574C174.618 47.7303 174.57 47.8421 174.545 47.9198C174.414 48.4058 174.113 49.0667 173.685 49.5916C173.243 50.131 172.66 50.5781 171.746 50.9134L171.396 50.5976C172.29 50.3351 172.893 49.8929 173.335 49.3778C173.714 48.9307 174.011 48.3038 174.113 47.8615H172.31L172.465 47.5116C172.665 47.5116 173.865 47.5116 174.016 47.5116C174.147 47.5116 174.254 47.497 174.336 47.463L174.657 47.6574ZM173.029 46.9236C172.951 47.0499 172.864 47.2152 172.815 47.3075C172.529 47.8421 172.018 48.537 171.241 49.057L170.901 48.8043C171.741 48.3038 172.218 47.5991 172.431 47.1617C172.48 47.0791 172.553 46.8993 172.582 46.7778L173.029 46.9236ZM176.601 46.9625C176.727 46.9771 176.878 46.9868 177.034 46.9868C177.296 46.9868 178.662 46.9868 178.948 46.9868C179.099 46.9868 179.269 46.9771 179.386 46.9625V47.3658C179.274 47.3561 179.104 47.3513 178.939 47.3513C178.666 47.3513 177.301 47.3513 177.034 47.3513C176.888 47.3513 176.732 47.3561 176.601 47.3658V46.9625ZM179.745 48.2406C179.721 48.2892 179.687 48.3475 179.677 48.3864C179.551 48.8626 179.332 49.368 178.968 49.7665C178.462 50.3254 177.85 50.6073 177.233 50.7822L176.931 50.4372C177.617 50.2963 178.224 49.9804 178.642 49.543C178.934 49.2368 179.128 48.8238 179.216 48.469C178.977 48.469 176.931 48.469 176.64 48.469C176.523 48.469 176.339 48.4739 176.164 48.4884V48.0802C176.339 48.0948 176.504 48.1094 176.64 48.1094C176.878 48.1094 178.948 48.1094 179.196 48.1094C179.308 48.1094 179.415 48.0948 179.468 48.0705L179.745 48.2406ZM184.522 47.3513C184.488 47.4193 184.469 47.497 184.449 47.5942C184.343 48.1045 184.109 48.8869 183.721 49.3875C183.278 49.9561 182.7 50.408 181.811 50.685L181.48 50.3206C182.423 50.0873 182.967 49.6742 183.375 49.1542C183.721 48.712 183.944 48.0365 184.012 47.5699C183.73 47.5699 181.806 47.5699 181.524 47.5699C181.33 47.5699 181.164 47.5797 181.043 47.5845V47.152C181.174 47.1714 181.368 47.186 181.529 47.186C181.806 47.186 183.745 47.186 183.964 47.186C184.036 47.186 184.134 47.1812 184.226 47.1617L184.522 47.3513Z" fill="white"/>
<path d="M94.6014 46.384H97.7845V50.4516H97.4006V46.7534H94.9756V50.4711H94.6014V46.384ZM94.8493 48.0703H97.561V48.43H94.8493V48.0703ZM94.8444 49.7907H97.5707V50.1552H94.8444V49.7907ZM101.162 47.9148H102.839V48.2599H101.162V47.9148ZM101.002 47.9148H101.366V49.8976C101.366 50.0871 101.42 50.126 101.687 50.126C101.813 50.126 102.445 50.126 102.61 50.126C102.873 50.126 102.912 49.9997 102.941 49.3242C103.028 49.3873 103.184 49.4505 103.286 49.4748C103.232 50.2572 103.121 50.4759 102.635 50.4759C102.513 50.4759 101.77 50.4759 101.658 50.4759C101.152 50.4759 101.002 50.3593 101.002 49.8928V47.9148ZM100.948 46.3306H103.028V48.532H102.659V46.6756H100.948V46.3306ZM99.0189 47.5261H100.535V47.8176H99.0189V47.5261ZM99.0481 46.2285H100.555V46.5201H99.0481V46.2285ZM99.0189 48.1773H100.535V48.4688H99.0189V48.1773ZM98.7905 46.8651H100.725V47.1664H98.7905V46.8651ZM99.189 48.8333H100.521V50.2524H99.189V49.9462H100.195V49.1346H99.189V48.8333ZM99.0141 48.8333H99.3397V50.4759H99.0141V48.8333ZM105.609 46.9866H108.073V47.3219H105.609V46.9866ZM105.701 47.9586H107.971V48.289H105.701V47.9586ZM105.458 48.9791H108.141V49.3193H105.458V48.9791ZM106.634 47.1033H106.989V50.5245H106.634V47.1033ZM107.504 46.0487L107.859 46.1653C107.713 46.4618 107.548 46.802 107.407 47.0206L107.125 46.9186C107.251 46.6853 107.417 46.3063 107.504 46.0487ZM105.818 46.1896L106.114 46.0827C106.279 46.3403 106.44 46.6853 106.498 46.9089L106.182 47.0352C106.129 46.8068 105.973 46.4521 105.818 46.1896ZM103.879 47.5261H105.327V47.8176H103.879V47.5261ZM103.903 46.2285H105.317V46.5201H103.903V46.2285ZM103.879 48.1773H105.327V48.4688H103.879V48.1773ZM103.65 46.8651H105.497V47.1664H103.65V46.8651ZM104.054 48.8333H105.327V50.2524H104.054V49.9462H105.006V49.1346H104.054V48.8333ZM103.874 48.8333H104.19V50.4759H103.874V48.8333ZM111.504 46.593H111.829V50.0677H111.504V46.593ZM110.541 46.4423H112.84V50.4273H112.5V46.7825H110.872V50.4662H110.541V46.4423ZM110.721 48.1287H112.651V48.464H110.721V48.1287ZM110.721 49.8636H112.636V50.1989H110.721V49.8636ZM109.331 48.3425H109.657V50.5197H109.331V48.3425ZM109.283 46.0536L109.608 46.1848C109.424 46.5444 109.186 46.9769 108.996 47.2491L108.738 47.1324C108.928 46.8506 109.156 46.3792 109.283 46.0536ZM109.88 46.6124L110.191 46.7631C109.851 47.3025 109.37 47.9926 108.996 48.4105L108.768 48.2793C109.142 47.8517 109.613 47.1276 109.88 46.6124ZM108.505 47.0935L108.69 46.8506C108.952 47.0692 109.254 47.3803 109.385 47.5892L109.19 47.8711C109.064 47.6476 108.763 47.3171 108.505 47.0935ZM109.744 47.7253L110.021 47.6038C110.235 47.9197 110.449 48.3376 110.532 48.6098L110.24 48.7507C110.162 48.4786 109.953 48.0461 109.744 47.7253ZM108.471 48.2016C108.913 48.1773 109.569 48.1335 110.221 48.0849L110.225 48.3814C109.618 48.4348 108.996 48.4931 108.525 48.5369L108.471 48.2016ZM109.832 48.9014L110.114 48.8139C110.255 49.1103 110.391 49.4991 110.449 49.7567L110.143 49.8587C110.099 49.6012 109.968 49.2027 109.832 48.9014ZM108.772 48.8285L109.088 48.8868C109.025 49.3436 108.909 49.815 108.758 50.126C108.695 50.0871 108.549 50.0191 108.466 49.9899C108.627 49.6935 108.719 49.2561 108.772 48.8285Z" fill="#00ABB6"/>
<g filter="url(#filter4_d_1745_11079)">
<rect x="65.8267" y="40.8691" width="76.4306" height="13.2539" rx="3.97616" fill="white"/>
</g>
<path d="M94.5155 46.2102H97.6986V50.2778H97.3147V46.5795H94.8897V50.2972H94.5155V46.2102ZM94.7633 47.8965H97.4751V48.2561H94.7633V47.8965ZM94.7585 49.6169H97.4848V49.9814H94.7585V49.6169ZM101.076 47.741H102.753V48.0861H101.076V47.741ZM100.916 47.741H101.28V49.7238C101.28 49.9133 101.334 49.9522 101.601 49.9522C101.727 49.9522 102.359 49.9522 102.524 49.9522C102.787 49.9522 102.826 49.8258 102.855 49.1503C102.942 49.2135 103.098 49.2767 103.2 49.301C103.146 50.0834 103.035 50.3021 102.549 50.3021C102.427 50.3021 101.684 50.3021 101.572 50.3021C101.066 50.3021 100.916 50.1855 100.916 49.7189V47.741ZM100.862 46.1567H102.942V48.3582H102.573V46.5018H100.862V46.1567ZM98.933 47.3522H100.449V47.6438H98.933V47.3522ZM98.9621 46.0547H100.469V46.3463H98.9621V46.0547ZM98.933 48.0034H100.449V48.295H98.933V48.0034ZM98.7046 46.6913H100.639V46.9926H98.7046V46.6913ZM99.1031 48.6595H100.435V50.0785H99.1031V49.7724H100.109V48.9608H99.1031V48.6595ZM98.9281 48.6595H99.2537V50.3021H98.9281V48.6595ZM105.523 46.8128H107.987V47.1481H105.523V46.8128ZM105.615 47.7847H107.885V48.1152H105.615V47.7847ZM105.372 48.8053H108.055V49.1455H105.372V48.8053ZM106.548 46.9294H106.903V50.3507H106.548V46.9294ZM107.418 45.8749L107.773 45.9915C107.627 46.2879 107.462 46.6281 107.321 46.8468L107.039 46.7448C107.165 46.5115 107.331 46.1324 107.418 45.8749ZM105.732 46.0158L106.028 45.9089C106.193 46.1665 106.354 46.5115 106.412 46.735L106.096 46.8614C106.043 46.633 105.887 46.2782 105.732 46.0158ZM103.793 47.3522H105.241V47.6438H103.793V47.3522ZM103.817 46.0547H105.231V46.3463H103.817V46.0547ZM103.793 48.0034H105.241V48.295H103.793V48.0034ZM103.564 46.6913H105.411V46.9926H103.564V46.6913ZM103.968 48.6595H105.241V50.0785H103.968V49.7724H104.92V48.9608H103.968V48.6595ZM103.788 48.6595H104.104V50.3021H103.788V48.6595ZM111.418 46.4192H111.743V49.8939H111.418V46.4192ZM110.455 46.2685H112.754V50.2535H112.414V46.6087H110.786V50.2924H110.455V46.2685ZM110.635 47.9548H112.565V48.2902H110.635V47.9548ZM110.635 49.6898H112.55V50.0251H110.635V49.6898ZM109.245 48.1687H109.571V50.3458H109.245V48.1687ZM109.197 45.8797L109.522 46.0109C109.338 46.3706 109.1 46.8031 108.91 47.0752L108.652 46.9586C108.842 46.6767 109.07 46.2053 109.197 45.8797ZM109.795 46.4386L110.106 46.5892C109.765 47.1287 109.284 47.8188 108.91 48.2367L108.682 48.1055C109.056 47.6778 109.527 46.9537 109.795 46.4386ZM108.419 46.9197L108.604 46.6767C108.866 46.8954 109.168 47.2064 109.299 47.4154L109.104 47.6973C108.978 47.4737 108.677 47.1433 108.419 46.9197ZM109.658 47.5515L109.935 47.43C110.149 47.7459 110.363 48.1638 110.446 48.436L110.154 48.5769C110.076 48.3047 109.867 47.8722 109.658 47.5515ZM108.385 48.0277C108.827 48.0034 109.483 47.9597 110.135 47.9111L110.14 48.2075C109.532 48.261 108.91 48.3193 108.439 48.3631L108.385 48.0277ZM109.746 48.7275L110.028 48.6401C110.169 48.9365 110.305 49.3253 110.363 49.5829L110.057 49.6849C110.013 49.4273 109.882 49.0288 109.746 48.7275ZM108.686 48.6546L109.002 48.713C108.939 49.1698 108.823 49.6412 108.672 49.9522C108.609 49.9133 108.463 49.8453 108.38 49.8161C108.541 49.5197 108.633 49.0823 108.686 48.6546Z" fill="#00ABB6"/>
<g filter="url(#filter5_d_1745_11079)">
<ellipse cx="208.38" cy="270.5" rx="35.6203" ry="33.5" fill="#04CAD6"/>
<path d="M181.47 276.443L184.551 266.823H186.813L189.894 276.443H187.879L186.501 271.438C186.215 270.437 185.942 269.319 185.669 268.292H185.617C185.357 269.332 185.084 270.437 184.798 271.438L183.42 276.443H181.47ZM183.381 273.973V272.491H187.957V273.973H183.381ZM191.033 276.443V266.823H192.957V276.443H191.033ZM204.587 265.835C204.535 266.134 204.496 266.628 204.496 267.031C204.496 267.421 204.496 268.084 204.496 268.474H202.793C202.793 268.084 202.793 267.486 202.793 267.031C202.793 266.615 202.78 266.147 202.728 265.835H204.587ZM208.214 268.617C207.889 268.955 207.486 269.384 207.213 269.696C206.485 270.528 205.393 271.607 204.21 272.439C202.806 273.44 200.817 274.298 198.802 274.909L197.801 273.375C200.31 272.816 201.974 271.919 203.092 271.191C204.093 270.554 204.899 269.787 205.289 269.254C204.587 269.254 201.129 269.254 200.583 269.254C200.115 269.254 199.296 269.28 198.88 269.319V267.616C199.374 267.681 200.102 267.694 200.544 267.694C201.129 267.694 205.289 267.694 206.056 267.694C206.459 267.694 206.836 267.655 207.135 267.577L208.214 268.617ZM204.47 271.451C204.47 272.387 204.47 274.48 204.47 275.533C204.47 276.04 204.509 276.781 204.548 277.184H202.689C202.728 276.82 202.78 276.04 202.78 275.533C202.78 274.532 202.78 272.933 202.78 272.153L204.47 271.451ZM208.409 275.026C207.278 274.142 206.42 273.596 205.302 272.959L206.368 271.724C207.564 272.361 208.24 272.751 209.488 273.596L208.409 275.026ZM211.861 267.213C212.355 267.265 213.018 267.304 213.473 267.304H220.025C220.402 267.304 220.935 267.278 221.156 267.265C221.143 267.577 221.117 268.084 221.117 268.474V275.208C221.117 275.663 221.156 276.339 221.182 276.742H219.297C219.31 276.352 219.323 275.884 219.323 275.403V268.981H213.473C212.927 268.981 212.225 269.007 211.861 269.033V267.213ZM211.705 274.272C212.147 274.311 212.732 274.35 213.317 274.35H220.35V276.066H213.369C212.862 276.066 212.134 276.092 211.705 276.144V274.272ZM224.861 267.213C225.355 267.265 226.018 267.304 226.473 267.304H233.025C233.402 267.304 233.935 267.278 234.156 267.265C234.143 267.577 234.117 268.084 234.117 268.474V275.208C234.117 275.663 234.156 276.339 234.182 276.742H232.297C232.31 276.352 232.323 275.884 232.323 275.403V268.981H226.473C225.927 268.981 225.225 269.007 224.861 269.033V267.213ZM224.705 274.272C225.147 274.311 225.732 274.35 226.317 274.35H233.35V276.066H226.369C225.862 276.066 225.134 276.092 224.705 276.144V274.272Z" fill="white"/>
</g>
<path d="M176.166 275.516L182.227 290.764L166.67 288.897L176.166 275.516Z" fill="#04CAD6"/>
<defs>
<filter id="filter0_d_1745_11079" x="59.9515" y="237.124" width="112.772" height="118.335" filterUnits="userSpaceOnUse" color-interpolation-filters="sRGB">
<feFlood flood-opacity="0" result="BackgroundImageFix"/>
<feColorMatrix in="SourceAlpha" type="matrix" values="0 0 0 0 0 0 0 0 0 0 0 0 0 0 0 0 0 0 127 0" result="hardAlpha"/>
<feOffset dy="3.2145"/>
<feGaussianBlur stdDeviation="1.60725"/>
<feComposite in2="hardAlpha" operator="out"/>
<feColorMatrix type="matrix" values="0 0 0 0 0 0 0 0 0 0 0 0 0 0 0 0 0 0 0.25 0"/>
<feBlend mode="normal" in2="BackgroundImageFix" result="effect1_dropShadow_1745_11079"/>
<feBlend mode="normal" in="SourceGraphic" in2="effect1_dropShadow_1745_11079" result="shape"/>
</filter>
<filter id="filter1_d_1745_11079" x="0.343726" y="139.461" width="273.313" height="100.092" filterUnits="userSpaceOnUse" color-interpolation-filters="sRGB">
<feFlood flood-opacity="0" result="BackgroundImageFix"/>
<feColorMatrix in="SourceAlpha" type="matrix" values="0 0 0 0 0 0 0 0 0 0 0 0 0 0 0 0 0 0 127 0" result="hardAlpha"/>
<feOffset dy="3.2145"/>
<feGaussianBlur stdDeviation="1.60725"/>
<feComposite in2="hardAlpha" operator="out"/>
<feColorMatrix type="matrix" values="0 0 0 0 0 0 0 0 0 0 0 0 0 0 0 0 0 0 0.25 0"/>
<feBlend mode="normal" in2="BackgroundImageFix" result="effect1_dropShadow_1745_11079"/>
<feBlend mode="normal" in="SourceGraphic" in2="effect1_dropShadow_1745_11079" result="shape"/>
</filter>
<filter id="filter2_d_1745_11079" x="52.2328" y="65" width="174.534" height="67.5344" filterUnits="userSpaceOnUse" color-interpolation-filters="sRGB">
<feFlood flood-opacity="0" result="BackgroundImageFix"/>
<feColorMatrix in="SourceAlpha" type="matrix" values="0 0 0 0 0 0 0 0 0 0 0 0 0 0 0 0 0 0 127 0" result="hardAlpha"/>
<feOffset dy="1.76718"/>
<feGaussianBlur stdDeviation="0.88359"/>
<feComposite in2="hardAlpha" operator="out"/>
<feColorMatrix type="matrix" values="0 0 0 0 0.0156863 0 0 0 0 0.792157 0 0 0 0 0.839216 0 0 0 0.15 0"/>
<feBlend mode="normal" in2="BackgroundImageFix" result="effect1_dropShadow_1745_11079"/>
<feBlend mode="normal" in="SourceGraphic" in2="effect1_dropShadow_1745_11079" result="shape"/>
</filter>
<filter id="filter3_d_1745_11079" x="52.2328" y="65" width="174.534" height="67.5344" filterUnits="userSpaceOnUse" color-interpolation-filters="sRGB">
<feFlood flood-opacity="0" result="BackgroundImageFix"/>
<feColorMatrix in="SourceAlpha" type="matrix" values="0 0 0 0 0 0 0 0 0 0 0 0 0 0 0 0 0 0 127 0" result="hardAlpha"/>
<feOffset dy="1.76718"/>
<feGaussianBlur stdDeviation="0.88359"/>
<feComposite in2="hardAlpha" operator="out"/>
<feColorMatrix type="matrix" values="0 0 0 0 0.0156863 0 0 0 0 0.792157 0 0 0 0 0.839216 0 0 0 0.15 0"/>
<feBlend mode="normal" in2="BackgroundImageFix" result="effect1_dropShadow_1745_11079"/>
<feBlend mode="normal" in="SourceGraphic" in2="effect1_dropShadow_1745_11079" result="shape"/>
</filter>
<filter id="filter4_d_1745_11079" x="64.0595" y="40.8691" width="79.9649" height="16.7883" filterUnits="userSpaceOnUse" color-interpolation-filters="sRGB">
<feFlood flood-opacity="0" result="BackgroundImageFix"/>
<feColorMatrix in="SourceAlpha" type="matrix" values="0 0 0 0 0 0 0 0 0 0 0 0 0 0 0 0 0 0 127 0" result="hardAlpha"/>
<feOffset dy="1.76718"/>
<feGaussianBlur stdDeviation="0.88359"/>
<feComposite in2="hardAlpha" operator="out"/>
<feColorMatrix type="matrix" values="0 0 0 0 0 0 0 0 0 0 0 0 0 0 0 0 0 0 0.25 0"/>
<feBlend mode="normal" in2="BackgroundImageFix" result="effect1_dropShadow_1745_11079"/>
<feBlend mode="normal" in="SourceGraphic" in2="effect1_dropShadow_1745_11079" result="shape"/>
</filter>
<filter id="filter5_d_1745_11079" x="168.236" y="237" width="80.2869" height="76.0464" filterUnits="userSpaceOnUse" color-interpolation-filters="sRGB">
<feFlood flood-opacity="0" result="BackgroundImageFix"/>
<feColorMatrix in="SourceAlpha" type="matrix" values="0 0 0 0 0 0 0 0 0 0 0 0 0 0 0 0 0 0 127 0" result="hardAlpha"/>
<feOffset dy="4.52321"/>
<feGaussianBlur stdDeviation="2.2616"/>
<feComposite in2="hardAlpha" operator="out"/>
<feColorMatrix type="matrix" values="0 0 0 0 0 0 0 0 0 0 0 0 0 0 0 0 0 0 0.25 0"/>
<feBlend mode="normal" in2="BackgroundImageFix" result="effect1_dropShadow_1745_11079"/>
<feBlend mode="normal" in="SourceGraphic" in2="effect1_dropShadow_1745_11079" result="shape"/>
</filter>
<clipPath id="clip0_1745_11079">
<path d="M54 65H225V129H54V65Z" fill="white"/>
</clipPath>
</defs>
</svg>
