<svg width="204" height="133" viewBox="0 0 204 133" fill="none" xmlns="http://www.w3.org/2000/svg">
<g filter="url(#filter0_d_2102_11134)">
<path d="M21.2276 30.5957C29.3181 15.7997 32.6439 6.32658 38.3781 3.6938C44.1122 1.06101 48.8085 23.9391 48.8085 23.9391L61.578 23.5318C61.578 23.5318 80.3748 -0.89879 84.7649 0.724958C89.155 2.34871 87.7893 27.6045 87.7893 27.6045C98.0611 40.7155 101.234 48.2722 101.903 62.222C101.903 62.222 107.763 47.6415 111.013 57.1614C114.773 68.1759 104.655 78.0104 103.279 81.0369C102.669 82.3794 102.719 84.662 102.323 87.4261C102.246 87.9688 102.528 89.0679 108.918 86.0611C115.307 83.0544 116.988 82.178 119.342 82.178C121.696 82.178 128.421 87.2188 113.289 92.1141C98.1568 97.0093 100.644 93.4379 100.253 94.1957C100.253 97.4944 91.4313 107.246 89.0774 107.919C89.0774 107.919 85.0421 125.741 77.9803 125.741C70.9186 125.741 67.2196 112.963 67.2196 112.963C60.4941 113.299 62.848 114.308 54.4411 112.291C54.4411 112.291 56.7406 125.741 50.1472 125.741C43.0074 125.741 29.3181 104.578 29.3181 104.578C24.849 102.875 15.4333 87.4261 14.1962 82.178C14.1962 82.178 2.96147 95.2965 4.07804 85.0722C5.13444 75.3988 14.1962 68.5947 14.1962 62.2055C14.1962 55.8163 13.1372 45.3918 21.2276 30.5957Z" fill="#FFE925"/>
<circle cx="46.7068" cy="46.0443" r="2.35392" fill="#2F2E2E"/>
<circle cx="65.5382" cy="46.0443" r="2.35392" fill="#2F2E2E"/>
<path d="M57.2085 57.8143C58.6293 57.8143 59.5005 57.4292 60.1055 56.8154C60.7383 56.1734 61.1619 55.2012 61.5075 53.8605C61.6007 53.499 61.3194 53.1064 60.8787 53.1064L52.6879 53.1065C52.2449 53.1065 51.9841 53.4922 52.0756 53.8285C52.5147 55.4418 53.0985 56.3992 53.8589 56.972C54.6204 57.5455 55.6659 57.8142 57.2085 57.8143Z" fill="white" stroke="#2F2E2E" stroke-width="1.3451"/>
</g>
<ellipse cx="163.552" cy="37.8237" rx="39.5292" ry="37.1763" fill="#04CAD6"/>
<path d="M137.186 43L140.03 34.12H142.118L144.962 43H143.102L141.83 38.38C141.566 37.456 141.314 36.424 141.062 35.476H141.014C140.774 36.436 140.522 37.456 140.258 38.38L138.986 43H137.186ZM138.95 40.72V39.352H143.174V40.72H138.95ZM146.493 43V34.12H148.269V43H146.493ZM159.965 33.208C159.917 33.484 159.881 33.94 159.881 34.312C159.881 34.672 159.881 35.284 159.881 35.644H158.309C158.309 35.284 158.309 34.732 158.309 34.312C158.309 33.928 158.297 33.496 158.249 33.208H159.965ZM163.313 35.776C163.013 36.088 162.641 36.484 162.389 36.772C161.717 37.54 160.709 38.536 159.617 39.304C158.321 40.228 156.485 41.02 154.625 41.584L153.701 40.168C156.017 39.652 157.553 38.824 158.585 38.152C159.509 37.564 160.253 36.856 160.613 36.364C159.965 36.364 156.773 36.364 156.269 36.364C155.837 36.364 155.081 36.388 154.697 36.424V34.852C155.153 34.912 155.825 34.924 156.233 34.924C156.773 34.924 160.613 34.924 161.321 34.924C161.693 34.924 162.041 34.888 162.317 34.816L163.313 35.776ZM159.857 38.392C159.857 39.256 159.857 41.188 159.857 42.16C159.857 42.628 159.893 43.312 159.929 43.684H158.213C158.249 43.348 158.297 42.628 158.297 42.16C158.297 41.236 158.297 39.76 158.297 39.04L159.857 38.392ZM163.493 41.692C162.449 40.876 161.657 40.372 160.625 39.784L161.609 38.644C162.713 39.232 163.337 39.592 164.489 40.372L163.493 41.692ZM167.158 34.48C167.614 34.528 168.226 34.564 168.646 34.564H174.694C175.042 34.564 175.534 34.54 175.738 34.528C175.726 34.816 175.702 35.284 175.702 35.644V41.86C175.702 42.28 175.738 42.904 175.762 43.276H174.022C174.034 42.916 174.046 42.484 174.046 42.04V36.112H168.646C168.142 36.112 167.494 36.136 167.158 36.16V34.48ZM167.014 40.996C167.422 41.032 167.962 41.068 168.502 41.068H174.994V42.652H168.55C168.082 42.652 167.41 42.676 167.014 42.724V40.996ZM179.638 34.48C180.094 34.528 180.706 34.564 181.126 34.564H187.174C187.522 34.564 188.014 34.54 188.218 34.528C188.206 34.816 188.182 35.284 188.182 35.644V41.86C188.182 42.28 188.218 42.904 188.242 43.276H186.502C186.514 42.916 186.526 42.484 186.526 42.04V36.112H181.126C180.622 36.112 179.974 36.136 179.638 36.16V34.48ZM179.494 40.996C179.902 41.032 180.442 41.068 180.982 41.068H187.474V42.652H181.03C180.562 42.652 179.89 42.676 179.494 42.724V40.996Z" fill="white"/>
<path d="M127 50L133.928 62.75H120.072L127 50Z" fill="#04CAD6"/>
<defs>
<filter id="filter0_d_2102_11134" x="0.406678" y="0.647461" width="126.062" height="132.281" filterUnits="userSpaceOnUse" color-interpolation-filters="sRGB">
<feFlood flood-opacity="0" result="BackgroundImageFix"/>
<feColorMatrix in="SourceAlpha" type="matrix" values="0 0 0 0 0 0 0 0 0 0 0 0 0 0 0 0 0 0 127 0" result="hardAlpha"/>
<feOffset dy="3.59332"/>
<feGaussianBlur stdDeviation="1.79666"/>
<feComposite in2="hardAlpha" operator="out"/>
<feColorMatrix type="matrix" values="0 0 0 0 0 0 0 0 0 0 0 0 0 0 0 0 0 0 0.25 0"/>
<feBlend mode="normal" in2="BackgroundImageFix" result="effect1_dropShadow_2102_11134"/>
<feBlend mode="normal" in="SourceGraphic" in2="effect1_dropShadow_2102_11134" result="shape"/>
</filter>
</defs>
</svg>
