<svg width="22" height="22" viewBox="0 0 22 22" fill="none" xmlns="http://www.w3.org/2000/svg">
<path d="M11 0C11.2084 0 11.4082 0.0827803 11.5556 0.23013C11.7029 0.37748 11.7857 0.57733 11.7857 0.785714V2.35714C11.7857 2.56553 11.7029 2.76538 11.5556 2.91273C11.4082 3.06008 11.2084 3.14286 11 3.14286C10.7916 3.14286 10.5918 3.06008 10.4444 2.91273C10.2971 2.76538 10.2143 2.56553 10.2143 2.35714V0.785714C10.2143 0.57733 10.2971 0.37748 10.4444 0.23013C10.5918 0.0827803 10.7916 0 11 0ZM16.5 11C16.5 12.4587 15.9205 13.8576 14.8891 14.8891C13.8576 15.9205 12.4587 16.5 11 16.5C9.54131 16.5 8.14236 15.9205 7.11091 14.8891C6.07946 13.8576 5.5 12.4587 5.5 11C5.5 9.54131 6.07946 8.14236 7.11091 7.11091C8.14236 6.07946 9.54131 5.5 11 5.5C12.4587 5.5 13.8576 6.07946 14.8891 7.11091C15.9205 8.14236 16.5 9.54131 16.5 11ZM21.2143 11.7857C21.4227 11.7857 21.6225 11.7029 21.7699 11.5556C21.9172 11.4082 22 11.2084 22 11C22 10.7916 21.9172 10.5918 21.7699 10.4444C21.6225 10.2971 21.4227 10.2143 21.2143 10.2143H19.6429C19.4345 10.2143 19.2346 10.2971 19.0873 10.4444C18.9399 10.5918 18.8571 10.7916 18.8571 11C18.8571 11.2084 18.9399 11.4082 19.0873 11.5556C19.2346 11.7029 19.4345 11.7857 19.6429 11.7857H21.2143ZM11 18.8571C11.2084 18.8571 11.4082 18.9399 11.5556 19.0873C11.7029 19.2346 11.7857 19.4345 11.7857 19.6429V21.2143C11.7857 21.4227 11.7029 21.6225 11.5556 21.7699C11.4082 21.9172 11.2084 22 11 22C10.7916 22 10.5918 21.9172 10.4444 21.7699C10.2971 21.6225 10.2143 21.4227 10.2143 21.2143V19.6429C10.2143 19.4345 10.2971 19.2346 10.4444 19.0873C10.5918 18.9399 10.7916 18.8571 11 18.8571ZM2.35714 11.7857C2.56553 11.7857 2.76538 11.7029 2.91273 11.5556C3.06008 11.4082 3.14286 11.2084 3.14286 11C3.14286 10.7916 3.06008 10.5918 2.91273 10.4444C2.76538 10.2971 2.56553 10.2143 2.35714 10.2143H0.785714C0.57733 10.2143 0.37748 10.2971 0.23013 10.4444C0.0827803 10.5918 0 10.7916 0 11C0 11.2084 0.0827803 11.4082 0.23013 11.5556C0.37748 11.7029 0.57733 11.7857 0.785714 11.7857H2.35714ZM2.58814 2.58814C2.73549 2.44084 2.9353 2.3581 3.14364 2.3581C3.35199 2.3581 3.5518 2.44084 3.69914 2.58814L5.27057 4.15957C5.34562 4.23205 5.40547 4.31875 5.44665 4.41461C5.48783 4.51047 5.5095 4.61357 5.51041 4.7179C5.51132 4.82223 5.49144 4.92569 5.45193 5.02225C5.41242 5.11881 5.35408 5.20654 5.28031 5.28031C5.20654 5.35408 5.11881 5.41242 5.02225 5.45193C4.92569 5.49144 4.82223 5.51132 4.7179 5.51041C4.61357 5.5095 4.51047 5.48783 4.41461 5.44665C4.31875 5.40547 4.23205 5.34562 4.15957 5.27057L2.58814 3.69914C2.44084 3.5518 2.3581 3.35199 2.3581 3.14364C2.3581 2.9353 2.44084 2.73549 2.58814 2.58814ZM3.69914 19.4134C3.55096 19.5566 3.35248 19.6357 3.14647 19.634C2.94046 19.6322 2.74339 19.5495 2.59771 19.4039C2.45204 19.2582 2.3694 19.0611 2.36761 18.8551C2.36582 18.6491 2.44502 18.4506 2.58814 18.3024L4.15957 16.731C4.23205 16.656 4.31875 16.5961 4.41461 16.5549C4.51047 16.5137 4.61357 16.4921 4.7179 16.4912C4.82223 16.4903 4.92569 16.5101 5.02225 16.5496C5.11881 16.5891 5.20654 16.6475 5.28031 16.7213C5.35408 16.795 5.41242 16.8828 5.45193 16.9793C5.49144 17.0759 5.51132 17.1793 5.51041 17.2837C5.5095 17.388 5.48783 17.4911 5.44665 17.587C5.40547 17.6828 5.34562 17.7695 5.27057 17.842L3.69914 19.4134ZM19.4134 2.58814C19.2661 2.44084 19.0663 2.3581 18.8579 2.3581C18.6496 2.3581 18.4498 2.44084 18.3024 2.58814L16.731 4.15957C16.5879 4.30776 16.5087 4.50623 16.5105 4.71224C16.5123 4.91826 16.5949 5.11532 16.7406 5.261C16.8862 5.40668 17.0833 5.48931 17.2893 5.4911C17.4953 5.49289 17.6938 5.4137 17.842 5.27057L19.4134 3.69914C19.5607 3.5518 19.6435 3.35199 19.6435 3.14364C19.6435 2.9353 19.5607 2.73549 19.4134 2.58814ZM18.3024 19.4134C18.4506 19.5566 18.6491 19.6357 18.8551 19.634C19.0611 19.6322 19.2582 19.5495 19.4039 19.4039C19.5495 19.2582 19.6322 19.0611 19.634 18.8551C19.6357 18.6491 19.5566 18.4506 19.4134 18.3024L17.842 16.731C17.7695 16.656 17.6828 16.5961 17.587 16.5549C17.4911 16.5137 17.388 16.4921 17.2837 16.4912C17.1793 16.4903 17.0759 16.5101 16.9793 16.5496C16.8828 16.5891 16.795 16.6475 16.7213 16.7213C16.6475 16.795 16.5891 16.8828 16.5496 16.9793C16.5101 17.0759 16.4903 17.1793 16.4912 17.2837C16.4921 17.388 16.5137 17.4911 16.5549 17.587C16.5961 17.6828 16.656 17.7695 16.731 17.842L18.3024 19.4134Z" fill="white"/>
</svg>
