<svg width="390" height="472" viewBox="0 0 390 472" fill="none" xmlns="http://www.w3.org/2000/svg">
<path d="M0 0H390V472H0V0Z" fill="white"/>
<mask id="mask0_1416_10430" style="mask-type:alpha" maskUnits="userSpaceOnUse" x="130" y="29" width="260" height="432">
<rect x="130.425" y="29" width="259.575" height="432" fill="#D9D9D9"/>
</mask>
<g mask="url(#mask0_1416_10430)">
<g clip-path="url(#clip0_1416_10430)">
<path d="M185.106 238.014C183.864 184.876 177.975 153.776 189.553 137.553C201.131 121.33 250.323 176.377 250.323 176.377L284.76 155.141C284.76 155.141 297.65 58.8319 312.287 56.3455C326.924 53.8591 363.233 124.95 363.233 124.95C412.25 144.551 432.954 160.178 456.92 197.201C456.92 197.201 449.893 148.166 473.922 169.03C501.724 193.17 489.524 235.961 490.544 246.391C490.997 251.017 494.755 257.169 498.054 265.337C498.701 266.94 501.221 269.495 514.005 251.219C526.79 232.942 530.019 227.9 536.486 224.191C542.953 220.481 569.427 223.641 535.617 260.852C501.807 298.062 502.976 284.394 503.102 287.079C508.335 296.083 499.568 336.604 494.168 342.15C494.168 342.15 511.351 397.159 491.95 408.288C472.548 419.417 442.116 390.366 442.116 390.366C424.172 401.883 432.24 400.927 405.942 408.668C405.942 408.668 433.596 441.761 415.481 452.151C395.865 463.403 324.685 427.207 324.685 427.207C309.705 429.603 259.332 402.272 247.608 389.896C247.608 389.896 237.551 443.41 224.4 413.742C211.959 385.672 226.062 352.819 215.928 335.378C205.793 317.938 186.348 291.152 185.106 238.014Z" fill="#FFFAC9"/>
<ellipse cx="7.4556" cy="7.43145" rx="7.4556" ry="7.43145" transform="matrix(0.867424 -0.49757 0.502434 0.864615 269.412 237.314)" fill="#EEEEEE"/>
<ellipse cx="7.45559" cy="7.43145" rx="7.45559" ry="7.43145" transform="matrix(0.867424 -0.49757 0.502434 0.864615 321.149 207.637)" fill="#EEEEEE"/>
<path d="M327.129 255.596C331.03 253.359 332.812 250.937 333.502 248.313C334.223 245.57 333.849 242.256 332.676 238.061C332.358 236.923 330.959 236.289 329.745 236.985L307.262 249.882C306.041 250.582 305.94 252.052 306.728 252.827C310.487 256.528 313.604 258.215 316.597 258.577C319.596 258.94 322.893 258.025 327.129 255.596Z" fill="white" stroke="#EEEEEE" stroke-width="4.26722"/>
</g>
</g>
<defs>
<clipPath id="clip0_1416_10430">
<rect width="376.515" height="386.626" fill="white" transform="matrix(0.867424 -0.49757 0.502434 0.864615 90.2705 183.416)"/>
</clipPath>
</defs>
</svg>
