<svg width="388" height="492" viewBox="0 0 390 492" fill="none" xmlns="http://www.w3.org/2000/svg">
<path d="M0 0H390V492H0V0Z" fill="white"/>
<mask id="mask0_1390_10433" style="mask-type:alpha" maskUnits="userSpaceOnUse" x="113" y="11" width="277" height="464">
<rect x="113" y="11" width="277" height="464" fill="#D9D9D9"/>
</mask>
<g mask="url(#mask0_1390_10433)">
<g clip-path="url(#clip0_1390_10433)">
<path d="M171.352 235.496C170.026 178.422 163.742 145.018 176.097 127.593C188.452 110.168 240.946 169.294 240.946 169.294L277.695 146.485C277.695 146.485 291.451 43.041 307.07 40.3704C322.69 37.6998 361.436 114.057 361.436 114.057C413.744 135.11 435.838 151.894 461.412 191.66C461.412 191.66 453.913 138.992 479.556 161.402C509.224 187.33 496.205 233.291 497.294 244.493C497.777 249.462 501.787 256.07 505.308 264.842C505.999 266.565 508.687 269.309 522.33 249.679C535.973 230.048 539.419 224.633 546.32 220.648C553.221 216.664 581.472 220.059 545.392 260.025C509.313 299.992 510.56 285.311 510.695 288.195C516.279 297.867 506.923 341.389 501.161 347.346C501.161 347.346 519.498 406.429 498.794 418.382C478.09 430.336 445.615 399.133 445.615 399.133C426.466 411.503 435.075 410.476 407.013 418.791C407.013 418.791 436.522 454.335 417.192 465.495C396.259 477.581 320.3 438.703 320.3 438.703C304.315 441.276 250.56 411.921 238.05 398.628C238.05 398.628 227.317 456.107 213.284 424.241C200.007 394.092 215.057 358.805 204.242 340.072C193.427 321.34 172.677 292.57 171.352 235.496Z" fill="#FFFAC9"/>
<circle cx="272.203" cy="237.661" r="7.96894" transform="rotate(-30 272.203 237.661)" fill="#EEEEEE"/>
<circle cx="327.413" cy="205.785" r="7.96894" transform="rotate(-30 327.413 205.785)" fill="#EEEEEE"/>
<path d="M322.914 254.391C327.08 251.986 328.982 249.382 329.717 246.558C330.485 243.605 330.082 240.038 328.825 235.522C328.487 234.304 326.998 233.629 325.706 234.375L301.692 248.24C300.393 248.99 300.281 250.562 301.118 251.393C305.137 255.38 308.469 257.199 311.668 257.591C314.871 257.984 318.391 257.002 322.914 254.391Z" fill="white" stroke="#EEEEEE" stroke-width="4.55368"/>
</g>
</g>
<defs>
<clipPath id="clip0_1390_10433">
<rect width="402.439" height="414.589" fill="white" transform="translate(70.1499 176.854) rotate(-30)"/>
</clipPath>
</defs>
</svg>
