<svg width="22" height="22" viewBox="0 0 22 22" fill="none" xmlns="http://www.w3.org/2000/svg">
<path d="M11.0001 0.166504C11.2874 0.166504 11.5629 0.28064 11.7661 0.483805C11.9693 0.686969 12.0834 0.962519 12.0834 1.24984V4.01342L13.9327 2.16525C14.0326 2.06178 14.1521 1.97925 14.2843 1.92248C14.4165 1.8657 14.5586 1.83582 14.7025 1.83457C14.8463 1.83332 14.989 1.86073 15.1221 1.9152C15.2553 1.96967 15.3762 2.05011 15.4779 2.15183C15.5796 2.25354 15.6601 2.3745 15.7146 2.50764C15.769 2.64077 15.7964 2.78343 15.7952 2.92727C15.7939 3.07112 15.7641 3.21327 15.7073 3.34544C15.6505 3.47761 15.568 3.59715 15.4645 3.69709L12.0834 7.07709V9.9165H14.9217L18.3028 6.5365C18.4021 6.43062 18.5217 6.34576 18.6544 6.28699C18.7871 6.22821 18.9303 6.19671 19.0755 6.19435C19.2206 6.19199 19.3648 6.21883 19.4993 6.27327C19.6339 6.3277 19.7562 6.40863 19.8588 6.51124C19.9615 6.61385 20.0425 6.73604 20.0971 6.87057C20.1516 7.0051 20.1785 7.14922 20.1763 7.29436C20.174 7.43951 20.1426 7.58272 20.0839 7.71549C20.0252 7.84826 19.9405 7.96788 19.8347 8.06725L17.9876 9.9165H20.7501C21.0374 9.9165 21.313 10.0306 21.5161 10.2338C21.7193 10.437 21.8334 10.7125 21.8334 10.9998C21.8334 11.2872 21.7193 11.5627 21.5161 11.7659C21.313 11.969 21.0374 12.0832 20.7501 12.0832H17.9865L19.8347 13.9324C20.032 14.1367 20.1412 14.4104 20.1387 14.6944C20.1363 14.9785 20.0223 15.2502 19.8215 15.4511C19.6206 15.6519 19.3489 15.7658 19.0648 15.7683C18.7808 15.7708 18.5072 15.6616 18.3028 15.4643L14.9228 12.0832H12.0834V14.9215L15.4634 18.3026C15.656 18.5077 15.7613 18.7797 15.7569 19.061C15.7525 19.3423 15.6389 19.6109 15.44 19.8099C15.2411 20.009 14.9726 20.1228 14.6913 20.1274C14.41 20.1319 14.1379 20.0269 13.9327 19.8344L12.0834 17.9873V20.7498C12.0834 21.0372 11.9693 21.3127 11.7661 21.5159C11.5629 21.719 11.2874 21.8332 11.0001 21.8332C10.7128 21.8332 10.4372 21.719 10.234 21.5159C10.0309 21.3127 9.91675 21.0372 9.91675 20.7498V17.9863L8.0675 19.8344C7.86318 20.0318 7.58953 20.141 7.30548 20.1385C7.02143 20.136 6.74972 20.0221 6.54886 19.8212C6.348 19.6204 6.23407 19.3487 6.2316 19.0646C6.22913 18.7806 6.33833 18.5069 6.53567 18.3026L9.91675 14.9226V12.0832H7.07841L3.69733 15.4632C3.49223 15.6558 3.22024 15.761 2.93891 15.7567C2.65759 15.7523 2.389 15.6386 2.18997 15.4398C1.99095 15.2409 1.87711 14.9724 1.87255 14.691C1.86798 14.4097 1.97304 14.1377 2.1655 13.9324L4.01258 12.0832H1.25008C0.962764 12.0832 0.687213 11.969 0.484049 11.7659C0.280885 11.5627 0.166748 11.2872 0.166748 10.9998C0.166748 10.7125 0.280885 10.437 0.484049 10.2338C0.687213 10.0306 0.962764 9.9165 1.25008 9.9165H4.01366L2.1655 8.06725C2.05968 7.96788 1.97491 7.84826 1.91623 7.71549C1.85755 7.58272 1.82615 7.43951 1.82389 7.29436C1.82164 7.14922 1.84858 7.0051 1.90311 6.87057C1.95764 6.73604 2.03865 6.61385 2.14133 6.51124C2.24401 6.40863 2.36627 6.3277 2.50084 6.27327C2.6354 6.21883 2.77954 6.19199 2.92468 6.19435C3.06983 6.19671 3.21301 6.22821 3.34574 6.28699C3.47847 6.34576 3.59804 6.43062 3.69733 6.5365L7.07733 9.9165H9.91675V7.07817L6.53675 3.69709C6.34414 3.49199 6.23889 3.22 6.24326 2.93867C6.24763 2.65734 6.36128 2.38875 6.56016 2.18973C6.75904 1.99071 7.02755 1.87687 7.30887 1.8723C7.5902 1.86773 7.86226 1.97279 8.0675 2.16525L9.91675 4.01234V1.24984C9.91675 0.962519 10.0309 0.686969 10.234 0.483805C10.4372 0.28064 10.7128 0.166504 11.0001 0.166504Z" fill="white"/>
</svg>
