<svg width="24" height="24" viewBox="0 0 24 24" fill="none" xmlns="http://www.w3.org/2000/svg">
<path d="M1.41176 15.4286H4.23529C5.01177 15.4286 5.64706 14.6571 5.64706 13.7143V10.2857C5.64706 9.34286 5.01177 8.57143 4.23529 8.57143H1.41176C0.635294 8.57143 0 9.34286 0 10.2857V13.7143C0 14.6571 0.635294 15.4286 1.41176 15.4286ZM1.41176 24H4.23529C5.01177 24 5.64706 23.2286 5.64706 22.2857V18.8571C5.64706 17.9143 5.01177 17.1429 4.23529 17.1429H1.41176C0.635294 17.1429 0 17.9143 0 18.8571V22.2857C0 23.2286 0.635294 24 1.41176 24ZM1.41176 6.85714H4.23529C5.01177 6.85714 5.64706 6.08571 5.64706 5.14286V1.71429C5.64706 0.771429 5.01177 0 4.23529 0H1.41176C0.635294 0 0 0.771429 0 1.71429V5.14286C0 6.08571 0.635294 6.85714 1.41176 6.85714ZM8.47059 15.4286H22.5882C23.3647 15.4286 24 14.6571 24 13.7143V10.2857C24 9.34286 23.3647 8.57143 22.5882 8.57143H8.47059C7.69412 8.57143 7.05882 9.34286 7.05882 10.2857V13.7143C7.05882 14.6571 7.69412 15.4286 8.47059 15.4286ZM8.47059 24H22.5882C23.3647 24 24 23.2286 24 22.2857V18.8571C24 17.9143 23.3647 17.1429 22.5882 17.1429H8.47059C7.69412 17.1429 7.05882 17.9143 7.05882 18.8571V22.2857C7.05882 23.2286 7.69412 24 8.47059 24ZM7.05882 1.71429V5.14286C7.05882 6.08571 7.69412 6.85714 8.47059 6.85714H22.5882C23.3647 6.85714 24 6.08571 24 5.14286V1.71429C24 0.771429 23.3647 0 22.5882 0H8.47059C7.69412 0 7.05882 0.771429 7.05882 1.71429Z" fill="#ADADAD"/>
</svg>
