<svg width="295" height="157" viewBox="0 0 295 157" fill="none" xmlns="http://www.w3.org/2000/svg">
<path d="M37.5691 98.3089C35.9625 98.3089 34.7862 98.0507 34.0403 97.5343C33.2943 97.0753 32.8353 96.4441 32.6632 95.6408C32.491 94.8375 32.405 93.9481 32.405 92.9727V43.3109C32.405 41.36 32.7779 40.0116 33.5239 39.2656C34.3272 38.5197 35.7616 38.1467 37.8273 38.1467H71.3942C72.3696 38.1467 73.2303 38.2615 73.9763 38.491C74.7222 38.6631 75.3247 39.1222 75.7837 39.8681C76.2428 40.5567 76.4723 41.7329 76.4723 43.3969C76.4723 45.0036 76.2141 46.1798 75.6976 46.9258C75.2386 47.6717 74.6074 48.1307 73.8041 48.3029C73.0582 48.475 72.1975 48.5611 71.2221 48.5611H42.8193V63.0207H62.357C63.3324 63.0207 64.1644 63.1354 64.853 63.3649C65.5989 63.5371 66.144 63.9674 66.4883 64.656C66.8899 65.2871 67.0908 66.3487 67.0908 67.8405C67.0908 69.2176 66.8899 70.2504 66.4883 70.939C66.0866 71.5702 65.5128 71.9718 64.7669 72.144C64.0783 72.2587 63.2463 72.3161 62.2709 72.3161H42.8193V93.0587C42.8193 94.0342 42.7045 94.9236 42.475 95.7269C42.3029 96.4728 41.8439 97.0753 41.0979 97.5343C40.352 98.0507 39.1757 98.3089 37.5691 98.3089ZM97.5961 98.2229C94.9567 98.2229 92.5181 97.7638 90.2803 96.8458C88.0999 95.8703 86.1777 94.4932 84.5137 92.7144C82.8497 90.9357 81.5586 88.8127 80.6406 86.3453C79.7225 83.878 79.2635 81.1525 79.2635 78.1688V61.0411C79.2635 60.0656 79.3495 59.2049 79.5217 58.459C79.6938 57.6557 80.1528 57.0245 80.8988 56.5655C81.6447 56.1064 82.7923 55.8769 84.3415 55.8769C86.0055 55.8769 87.1818 56.1064 87.8704 56.5655C88.6163 57.0245 89.0753 57.6557 89.2475 58.459C89.4196 59.2623 89.5057 60.1517 89.5057 61.1271V78.1688C89.5057 80.2344 89.8499 82.0132 90.5385 83.5051C91.2844 84.9969 92.3459 86.1732 93.723 87.0339C95.1001 87.8372 96.7928 88.2389 98.8011 88.2389C100.867 88.2389 102.617 87.8372 104.051 87.0339C105.543 86.1732 106.691 84.9969 107.494 83.5051C108.297 81.9558 108.699 80.1771 108.699 78.1688V60.955C108.699 59.9796 108.785 59.1189 108.957 58.3729C109.129 57.5696 109.588 56.9671 110.334 56.5655C111.08 56.1064 112.257 55.8769 113.863 55.8769C115.47 55.8769 116.617 56.1064 117.306 56.5655C117.994 57.0245 118.425 57.6557 118.597 58.459C118.826 59.2623 118.941 60.123 118.941 61.0411V93.3169C118.941 94.1776 118.826 94.9809 118.597 95.7269C118.425 96.4728 117.966 97.0753 117.22 97.5343C116.531 97.9933 115.384 98.2229 113.777 98.2229C112.63 98.2229 111.711 98.0794 111.023 97.7925C110.392 97.563 109.904 97.2474 109.56 96.8458C109.273 96.3867 109.072 95.9277 108.957 95.4687C108.9 95.0096 108.871 94.5506 108.871 94.0916L109.56 91.7677C109.215 92.2841 108.699 92.9153 108.01 93.6612C107.322 94.3498 106.461 95.067 105.428 95.8129C104.453 96.5015 103.305 97.0753 101.986 97.5343C100.666 97.9933 99.2028 98.2229 97.5961 98.2229ZM145.948 115.523C143.882 115.523 141.903 115.265 140.009 114.748C138.116 114.289 136.394 113.658 134.845 112.855C133.353 112.051 132.148 111.191 131.23 110.273C130.37 109.354 129.939 108.494 129.939 107.69C129.939 106.887 130.054 106.199 130.284 105.625C130.57 105.051 130.972 104.477 131.488 103.903C132.177 103.215 132.722 102.698 133.124 102.354C133.583 102.01 134.185 101.838 134.931 101.838C135.562 101.838 136.165 102.067 136.739 102.526C137.37 102.985 138.087 103.502 138.89 104.076C139.694 104.649 140.669 105.166 141.817 105.625C142.964 106.084 144.428 106.313 146.206 106.313C147.698 106.313 149.075 106.055 150.338 105.539C151.6 105.022 152.661 104.248 153.522 103.215C154.44 102.239 155.157 101.063 155.674 99.686C156.19 98.3089 156.448 96.7597 156.448 95.0383L156.362 59.4058C156.477 58.086 156.936 57.168 157.74 56.6516C158.543 56.0778 159.776 55.7909 161.44 55.7909C162.99 55.7909 164.109 56.0204 164.797 56.4794C165.486 56.8811 165.916 57.4836 166.088 58.2869C166.26 59.0328 166.346 59.8648 166.346 60.7829V95.6408C166.346 98.7967 165.801 101.608 164.711 104.076C163.621 106.543 162.129 108.609 160.236 110.273C158.342 111.994 156.162 113.285 153.694 114.146C151.284 115.064 148.702 115.523 145.948 115.523ZM145.001 97.19C142.304 97.19 139.78 96.6736 137.427 95.6408C135.132 94.608 133.095 93.1448 131.316 91.2513C129.595 89.3578 128.218 87.1773 127.185 84.71C126.21 82.1853 125.722 79.4598 125.722 76.5335C125.722 73.6645 126.21 70.9964 127.185 68.5291C128.218 66.0618 129.595 63.8813 131.316 61.9878C133.095 60.0943 135.132 58.6311 137.427 57.5983C139.78 56.5081 142.276 55.963 144.915 55.963C147.497 55.963 149.735 56.4794 151.629 57.5122C153.58 58.4877 155.186 59.8935 156.448 61.7296C157.711 63.5658 158.658 65.7462 159.289 68.2709C159.977 70.7956 160.322 73.5784 160.322 76.6196C160.322 80.8082 159.748 84.4518 158.6 87.5503C157.453 90.6488 155.76 93.03 153.522 94.694C151.284 96.358 148.444 97.19 145.001 97.19ZM145.948 87.4642C147.899 87.4642 149.62 87.0052 151.112 86.0871C152.661 85.1117 153.866 83.792 154.727 82.128C155.645 80.464 156.104 78.5991 156.104 76.5335C156.104 74.4104 155.645 72.5456 154.727 70.939C153.866 69.275 152.661 67.984 151.112 67.0659C149.563 66.1478 147.813 65.6888 145.862 65.6888C143.911 65.6888 142.161 66.1765 140.612 67.152C139.12 68.07 137.944 69.3324 137.083 70.939C136.222 72.5456 135.792 74.4104 135.792 76.5335C135.792 78.6565 136.222 80.55 137.083 82.214C138.001 83.8207 139.206 85.1117 140.698 86.0871C142.247 87.0052 143.997 87.4642 145.948 87.4642ZM194.896 98.8253C192.142 98.8253 189.445 98.3089 186.806 97.2761C184.224 96.1859 181.871 94.6653 179.748 92.7144C177.683 90.7636 176.019 88.4684 174.756 85.8289C173.551 83.1895 172.949 80.2918 172.949 77.136C172.949 74.0949 173.523 71.2546 174.67 68.6151C175.818 65.9757 177.396 63.6518 179.404 61.6436C181.412 59.6353 183.707 58.086 186.29 56.9958C188.929 55.8482 191.741 55.2744 194.724 55.2744C198.741 55.2744 202.384 56.2499 205.655 58.2008C208.926 60.0943 211.536 62.6764 213.487 65.947C215.438 69.2176 216.414 72.9186 216.414 77.0499C216.414 80.3205 215.811 83.3042 214.606 86.0011C213.401 88.6405 211.766 90.9357 209.7 92.8866C207.635 94.7801 205.311 96.2433 202.729 97.2761C200.204 98.3089 197.593 98.8253 194.896 98.8253ZM194.724 88.6692C196.618 88.6692 198.425 88.2102 200.147 87.2921C201.925 86.3167 203.36 84.9396 204.45 83.1608C205.598 81.382 206.171 79.2877 206.171 76.8778C206.171 74.64 205.655 72.6604 204.622 70.939C203.647 69.2176 202.298 67.8692 200.577 66.8938C198.856 65.9183 196.876 65.4306 194.638 65.4306C192.515 65.4306 190.593 65.947 188.872 66.9798C187.15 67.9553 185.773 69.3324 184.74 71.1111C183.765 72.8325 183.277 74.7834 183.277 76.9638C183.277 79.3738 183.822 81.4681 184.912 83.2469C186.003 84.9682 187.408 86.3167 189.13 87.2921C190.909 88.2102 192.773 88.6692 194.724 88.6692ZM242.974 98.8253C240.22 98.8253 237.523 98.3089 234.884 97.2761C232.301 96.1859 229.949 94.6653 227.826 92.7144C225.76 90.7636 224.096 88.4684 222.834 85.8289C221.629 83.1895 221.026 80.2918 221.026 77.136C221.026 74.0949 221.6 71.2546 222.748 68.6151C223.895 65.9757 225.473 63.6518 227.482 61.6436C229.49 59.6353 231.785 58.086 234.367 56.9958C237.007 55.8482 239.818 55.2744 242.802 55.2744C246.818 55.2744 250.462 56.2499 253.733 58.2008C257.003 60.0943 259.614 62.6764 261.565 65.947C263.516 69.2176 264.491 72.9186 264.491 77.0499C264.491 80.3205 263.889 83.3042 262.684 86.0011C261.479 88.6405 259.844 90.9357 257.778 92.8866C255.712 94.7801 253.388 96.2433 250.806 97.2761C248.282 98.3089 245.671 98.8253 242.974 98.8253ZM242.802 88.6692C244.695 88.6692 246.503 88.2102 248.224 87.2921C250.003 86.3167 251.437 84.9396 252.528 83.1608C253.675 81.382 254.249 79.2877 254.249 76.8778C254.249 74.64 253.733 72.6604 252.7 70.939C251.724 69.2176 250.376 67.8692 248.655 66.8938C246.933 65.9183 244.954 65.4306 242.716 65.4306C240.593 65.4306 238.671 65.947 236.949 66.9798C235.228 67.9553 233.851 69.3324 232.818 71.1111C231.842 72.8325 231.355 74.7834 231.355 76.9638C231.355 79.3738 231.9 81.4681 232.99 83.2469C234.08 84.9682 235.486 86.3167 237.207 87.2921C238.986 88.2102 240.851 88.6692 242.802 88.6692Z" fill="url(#paint0_linear_622_9992)"/>
<path d="M257.845 126.835C257.845 124.172 232.416 124.172 140.984 124.172C49.5516 124.172 35.9483 124.2 35.9483 126.862C35.9483 129.525 49.5516 129.497 140.984 129.497C232.416 129.497 257.845 130.163 257.845 126.835Z" fill="#FFE925"/>
<path d="M180.206 49.7589C181.201 45.7794 188.275 56.483 188.275 56.483L178.189 65.8968C178.189 65.8968 178.862 55.1383 180.206 49.7589Z" fill="#FF8DBD"/>
<path d="M209.792 49.7589C208.797 45.7796 201.723 56.483 201.723 56.483L211.81 65.8968C211.81 65.8968 211.138 55.1382 209.792 49.7589Z" fill="#FF8DBD"/>
<path d="M37.6551 108.931C36.9827 108.931 33.6207 98.8836 33.6207 98.8836V80.6895H41.6896V98.6165C41.6896 98.6165 38.3276 108.931 37.6551 108.931Z" fill="#04CAD6"/>
<defs>
<linearGradient id="paint0_linear_622_9992" x1="126.785" y1="117.448" x2="266.897" y2="117.448" gradientUnits="userSpaceOnUse">
<stop offset="0.28125" stop-color="#04CAD6"/>
<stop offset="0.328125" stop-color="#FF8DBD"/>
<stop offset="0.640625" stop-color="#FF8DBD"/>
<stop offset="0.671875" stop-color="#04D6E3"/>
<stop offset="0.9999" stop-color="#04D6E3"/>
</linearGradient>
</defs>
</svg>
