<svg width="114" height="60" viewBox="0 0 114 60" fill="none" xmlns="http://www.w3.org/2000/svg">
<path d="M14.4497 37.5034C13.8317 37.5034 13.3793 37.4041 13.0924 37.2055C12.8055 37.0289 12.629 36.7862 12.5628 36.4772C12.4966 36.1682 12.4635 35.8262 12.4635 35.451V16.3503C12.4635 15.5999 12.6069 15.0813 12.8938 14.7944C13.2028 14.5075 13.7545 14.3641 14.549 14.3641H27.4593C27.8345 14.3641 28.1655 14.4082 28.4524 14.4965C28.7393 14.5627 28.9711 14.7393 29.1476 15.0262C29.3242 15.291 29.4124 15.7434 29.4124 16.3834C29.4124 17.0013 29.3131 17.4537 29.1145 17.7406C28.938 18.0275 28.6952 18.2041 28.3862 18.2703C28.0993 18.3365 27.7683 18.3696 27.3931 18.3696H16.469V23.931H23.9835C24.3586 23.931 24.6786 23.9751 24.9435 24.0634C25.2304 24.1296 25.44 24.2951 25.5724 24.5599C25.7269 24.8027 25.8042 25.211 25.8042 25.7848C25.8042 26.3144 25.7269 26.7117 25.5724 26.9765C25.418 27.2193 25.1973 27.3737 24.9104 27.4399C24.6455 27.4841 24.3255 27.5062 23.9504 27.5062H16.469V35.4841C16.469 35.8593 16.4248 36.2013 16.3366 36.5103C16.2704 36.7972 16.0938 37.0289 15.8069 37.2055C15.52 37.4041 15.0676 37.5034 14.4497 37.5034ZM37.537 37.4703C36.5218 37.4703 35.5839 37.2937 34.7232 36.9406C33.8846 36.5655 33.1453 36.0358 32.5053 35.3517C31.8653 34.6675 31.3687 33.851 31.0156 32.902C30.6625 31.9531 30.486 30.9048 30.486 29.7572V23.1696C30.486 22.7944 30.5191 22.4634 30.5853 22.1765C30.6515 21.8675 30.828 21.6248 31.1149 21.4482C31.4018 21.2717 31.8432 21.1834 32.4391 21.1834C33.0791 21.1834 33.5315 21.2717 33.7963 21.4482C34.0832 21.6248 34.2598 21.8675 34.326 22.1765C34.3922 22.4855 34.4253 22.8275 34.4253 23.2027V29.7572C34.4253 30.5517 34.5577 31.2358 34.8225 31.8096C35.1094 32.3834 35.5177 32.8358 36.0474 33.1668C36.577 33.4758 37.228 33.6303 38.0005 33.6303C38.7949 33.6303 39.468 33.4758 40.0198 33.1668C40.5936 32.8358 41.0349 32.3834 41.3439 31.8096C41.6529 31.2137 41.8074 30.5296 41.8074 29.7572V23.1365C41.8074 22.7613 41.8405 22.4303 41.9067 22.1434C41.9729 21.8344 42.1494 21.6027 42.4363 21.4482C42.7232 21.2717 43.1756 21.1834 43.7936 21.1834C44.4115 21.1834 44.8529 21.2717 45.1177 21.4482C45.3825 21.6248 45.548 21.8675 45.6142 22.1765C45.7025 22.4855 45.7467 22.8165 45.7467 23.1696V35.5834C45.7467 35.9144 45.7025 36.2234 45.6142 36.5103C45.548 36.7972 45.3715 37.0289 45.0846 37.2055C44.8198 37.382 44.3784 37.4703 43.7605 37.4703C43.3191 37.4703 42.966 37.4151 42.7011 37.3048C42.4584 37.2165 42.2708 37.0951 42.1384 36.9406C42.028 36.7641 41.9508 36.5875 41.9067 36.411C41.8846 36.2344 41.8736 36.0579 41.8736 35.8813L42.1384 34.9875C42.006 35.1862 41.8074 35.4289 41.5425 35.7158C41.2777 35.9806 40.9467 36.2565 40.5494 36.5434C40.1742 36.8082 39.7329 37.0289 39.2253 37.2055C38.7177 37.382 38.1549 37.4703 37.537 37.4703ZM56.1339 44.1241C55.3394 44.1241 54.578 44.0248 53.8498 43.8262C53.1215 43.6496 52.4594 43.4068 51.8636 43.0979C51.2898 42.7889 50.8263 42.4579 50.4732 42.1048C50.1422 41.7517 49.9767 41.4206 49.9767 41.1117C49.9767 40.8027 50.0208 40.5379 50.1091 40.3172C50.2194 40.0965 50.3739 39.8758 50.5725 39.6551C50.8373 39.3903 51.047 39.1917 51.2015 39.0593C51.378 38.9268 51.6098 38.8606 51.8967 38.8606C52.1394 38.8606 52.3711 38.9489 52.5918 39.1255C52.8346 39.302 53.1105 39.5006 53.4194 39.7213C53.7284 39.942 54.1036 40.1406 54.5449 40.3172C54.9863 40.4937 55.5491 40.582 56.2332 40.582C56.807 40.582 57.3367 40.4827 57.8222 40.2841C58.3077 40.0855 58.716 39.7875 59.047 39.3903C59.4001 39.0151 59.676 38.5627 59.8746 38.0331C60.0732 37.5034 60.1725 36.9075 60.1725 36.2455L60.1394 22.5406C60.1836 22.0331 60.3601 21.6799 60.6691 21.4813C60.978 21.2606 61.4525 21.1503 62.0925 21.1503C62.6884 21.1503 63.1187 21.2386 63.3836 21.4151C63.6484 21.5696 63.8139 21.8013 63.8801 22.1103C63.9463 22.3972 63.9794 22.7172 63.9794 23.0703V36.4772C63.9794 37.691 63.7698 38.7724 63.3505 39.7213C62.9311 40.6703 62.3574 41.4648 61.6291 42.1048C60.9008 42.7668 60.0622 43.2634 59.1132 43.5944C58.1863 43.9475 57.1932 44.1241 56.1339 44.1241ZM55.7698 37.0731C54.7325 37.0731 53.7615 36.8744 52.8567 36.4772C51.9739 36.0799 51.1905 35.5172 50.5063 34.7889C49.8442 34.0606 49.3146 33.222 48.9173 32.2731C48.5422 31.302 48.3546 30.2537 48.3546 29.1282C48.3546 28.0248 48.5422 26.9986 48.9173 26.0496C49.3146 25.1006 49.8442 24.262 50.5063 23.5337C51.1905 22.8055 51.9739 22.2427 52.8567 21.8455C53.7615 21.4262 54.7215 21.2165 55.7367 21.2165C56.7298 21.2165 57.5905 21.4151 58.3187 21.8124C59.0691 22.1875 59.687 22.7282 60.1725 23.4344C60.658 24.1406 61.0222 24.9793 61.2649 25.9503C61.5298 26.9213 61.6622 27.9917 61.6622 29.1613C61.6622 30.7724 61.4415 32.1737 61.0001 33.3655C60.5587 34.5572 59.9077 35.4731 59.047 36.1131C58.1863 36.7531 57.0939 37.0731 55.7698 37.0731ZM56.1339 33.3324C56.8842 33.3324 57.5463 33.1558 58.1201 32.8027C58.716 32.4275 59.1794 31.9199 59.5105 31.2799C59.8636 30.6399 60.0401 29.9227 60.0401 29.1282C60.0401 28.3117 59.8636 27.5944 59.5105 26.9765C59.1794 26.3365 58.716 25.8399 58.1201 25.4868C57.5242 25.1337 56.8511 24.9572 56.1008 24.9572C55.3505 24.9572 54.6774 25.1448 54.0815 25.5199C53.5077 25.8731 53.0553 26.3586 52.7242 26.9765C52.3932 27.5944 52.2277 28.3117 52.2277 29.1282C52.2277 29.9448 52.3932 30.6731 52.7242 31.3131C53.0774 31.931 53.5408 32.4275 54.1146 32.8027C54.7105 33.1558 55.3836 33.3324 56.1339 33.3324ZM74.9602 37.702C73.9009 37.702 72.8636 37.5034 71.8485 37.1062C70.8554 36.6868 69.9505 36.102 69.134 35.3517C68.3395 34.6013 67.6995 33.7186 67.214 32.7034C66.7505 31.6882 66.5188 30.5737 66.5188 29.3599C66.5188 28.1903 66.7395 27.0979 67.1809 26.0827C67.6223 25.0675 68.2292 24.1737 69.0016 23.4013C69.774 22.6289 70.6567 22.0331 71.6499 21.6137C72.665 21.1724 73.7464 20.9517 74.894 20.9517C76.4388 20.9517 77.8402 21.3268 79.0981 22.0772C80.3561 22.8055 81.3602 23.7986 82.1105 25.0565C82.8609 26.3144 83.2361 27.7379 83.2361 29.3268C83.2361 30.5848 83.0043 31.7324 82.5409 32.7696C82.0774 33.7848 81.4485 34.6675 80.654 35.4179C79.8595 36.1462 78.9657 36.7089 77.9726 37.1062C77.0016 37.5034 75.9974 37.702 74.9602 37.702ZM74.894 33.7958C75.6223 33.7958 76.3174 33.6193 76.9795 33.2662C77.6636 32.891 78.2154 32.3613 78.6347 31.6772C79.0761 30.9931 79.2967 30.1875 79.2967 29.2606C79.2967 28.3999 79.0981 27.6386 78.7009 26.9765C78.3257 26.3144 77.8071 25.7958 77.145 25.4206C76.483 25.0455 75.7216 24.8579 74.8609 24.8579C74.0443 24.8579 73.305 25.0565 72.643 25.4537C71.9809 25.8289 71.4512 26.3586 71.054 27.0427C70.6788 27.7048 70.4912 28.4551 70.4912 29.2937C70.4912 30.2206 70.7009 31.0262 71.1202 31.7103C71.5395 32.3724 72.0802 32.891 72.7423 33.2662C73.4264 33.6193 74.1436 33.7958 74.894 33.7958ZM93.4516 37.702C92.3923 37.702 91.355 37.5034 90.3399 37.1062C89.3468 36.6868 88.4419 36.102 87.6254 35.3517C86.8309 34.6013 86.1909 33.7186 85.7054 32.7034C85.2419 31.6882 85.0102 30.5737 85.0102 29.3599C85.0102 28.1903 85.2309 27.0979 85.6723 26.0827C86.1137 25.0675 86.7205 24.1737 87.493 23.4013C88.2654 22.6289 89.1481 22.0331 90.1412 21.6137C91.1564 21.1724 92.2378 20.9517 93.3854 20.9517C94.9302 20.9517 96.3316 21.3268 97.5895 22.0772C98.8474 22.8055 99.8516 23.7986 100.602 25.0565C101.352 26.3144 101.727 27.7379 101.727 29.3268C101.727 30.5848 101.496 31.7324 101.032 32.7696C100.569 33.7848 99.9399 34.6675 99.1454 35.4179C98.3509 36.1462 97.4571 36.7089 96.464 37.1062C95.493 37.5034 94.4888 37.702 93.4516 37.702ZM93.3854 33.7958C94.1137 33.7958 94.8088 33.6193 95.4709 33.2662C96.155 32.891 96.7068 32.3613 97.1261 31.6772C97.5674 30.9931 97.7881 30.1875 97.7881 29.2606C97.7881 28.3999 97.5895 27.6386 97.1923 26.9765C96.8171 26.3144 96.2985 25.7958 95.6364 25.4206C94.9743 25.0455 94.213 24.8579 93.3523 24.8579C92.5357 24.8579 91.7964 25.0565 91.1343 25.4537C90.4723 25.8289 89.9426 26.3586 89.5454 27.0427C89.1702 27.7048 88.9826 28.4551 88.9826 29.2937C88.9826 30.2206 89.1923 31.0262 89.6116 31.7103C90.0309 32.3724 90.5716 32.891 91.2337 33.2662C91.9178 33.6193 92.635 33.7958 93.3854 33.7958Z" fill="url(#paint0_linear_683_10082)"/>
<path d="M69.3101 19.138C69.6926 17.6074 72.4136 21.7242 72.4136 21.7242L68.5342 25.3449C68.5342 25.3449 68.7931 21.2069 69.3101 19.138Z" fill="#FF8DBD"/>
<path d="M80.6894 19.138C80.3066 17.6075 77.586 21.7242 77.586 21.7242L81.4653 25.3449C81.4653 25.3449 81.2069 21.2069 80.6894 19.138Z" fill="#FF8DBD"/>
<path d="M14.4828 43.9656C14.138 43.9656 12.4138 40.1012 12.4138 40.1012V33.1035H16.5517V39.9985C16.5517 39.9985 14.8276 43.9656 14.4828 43.9656Z" fill="#04CAD6"/>
<rect x="12.4138" y="12.4138" width="4.13793" height="25.8621" rx="1.03448" fill="#04CAD6"/>
<path d="M13.1896 40.3447H15.6896L14.7701 42.4137H14.2241L13.1896 40.3447Z" fill="white"/>
<path d="M27.9311 40.6035C18.1033 40.6035 13.7386 44.599 14.7414 45.0001C16.0345 45.5173 18.1251 42.2774 27.9311 42.9311C39.569 43.707 44.5276 48.0303 58.1897 49.138C63.8793 49.5993 75.1714 48.7122 83.0172 47.3277C91.8103 45.7759 102.026 43.4483 101.897 42.9311C101.767 42.4139 87.4138 44.7414 84.8276 45.2587C82.2414 45.7759 69.8276 47.3277 58.1897 46.5518C45.0192 45.6738 38.5345 40.6035 27.9311 40.6035Z" fill="#D0D0D0"/>
<defs>
<linearGradient id="paint0_linear_683_10082" x1="49.0516" y1="45.1724" x2="103.345" y2="45.1724" gradientUnits="userSpaceOnUse">
<stop offset="0.28125" stop-color="#04CAD6"/>
<stop offset="0.328125" stop-color="#FF8DBD"/>
<stop offset="0.640625" stop-color="#FF8DBD"/>
<stop offset="0.671875" stop-color="#04D6E3"/>
<stop offset="0.9999" stop-color="#04D6E3"/>
</linearGradient>
</defs>
</svg>
