<svg width="60" height="60" viewBox="0 0 60 60" fill="none" xmlns="http://www.w3.org/2000/svg">
<rect width="60" height="60" rx="5" fill="white"/>
<path d="M56 36.6765C56 47.8121 44.5833 56.8393 30.5 56.8393C16.4167 56.8393 5 47.8121 5 36.6765C5 31.0915 7.76744 23.63 10.5349 19.8742C11.7209 17.6998 12.314 5.04864 16.8605 5.04864C21.407 4.65326 26.1512 15.7231 26.5465 16.5138C28.0837 16.2851 28.6811 16.1184 30.3023 16.1184C31.3053 16.1184 32.69 16.227 33.6628 16.3161C34.6512 14.537 38.2093 3.07191 43.7442 4.06028C47.3023 5.04866 47.876 19.2496 49.6744 20.6649C54.3142 24.3163 56 31.0915 56 36.6765Z" fill="#FFE925"/>
<circle cx="24.965" cy="30.2907" r="1.38372" fill="#2F2E2E"/>
<circle cx="36.0348" cy="30.2907" r="1.38372" fill="#2F2E2E"/>
<path d="M31.0001 38.1047C31.4016 38.1047 32.6452 37.7528 33.1479 36.2378C33.1849 36.1264 33.1382 35.9719 32.984 35.8793L32.542 35.6143C32.5184 35.6001 32.4935 35.5885 32.4676 35.5796L31.8732 35.3745L30.6728 34.9744C30.5772 34.9425 30.473 34.9484 30.3816 34.9907L29.1403 35.5658C29.1218 35.5744 29.1041 35.5843 29.0872 35.5956L28.3837 36.0645C28.2429 36.1583 28.1982 36.305 28.2312 36.4145C28.5193 37.3706 29.0698 37.7721 29.5942 37.9548C30.0709 38.1209 30.5342 38.1124 30.8528 38.1065C30.9062 38.1056 30.9555 38.1047 31.0001 38.1047Z" fill="white" stroke="#2F2E2E" stroke-width="0.790698"/>
</svg>
