<svg width="51" height="53" viewBox="0 0 51 53" fill="none" xmlns="http://www.w3.org/2000/svg">
<path d="M51 32.6765C51 43.8121 39.5833 52.8393 25.5 52.8393C11.4167 52.8393 0 43.8121 0 32.6765C0 27.0915 2.76744 19.63 5.53488 15.8742C6.72093 13.6998 7.31395 1.04864 11.8605 1.04864C16.407 0.653259 21.1512 11.7231 21.5465 12.5138C23.0837 12.2851 23.6811 12.1184 25.3023 12.1184C26.3053 12.1184 27.6901 12.227 28.6628 12.3161C29.6512 10.537 33.2093 -0.928093 38.7442 0.0602772C42.3023 1.04866 42.876 15.2496 44.6744 16.6649C49.3142 20.3163 51 27.0915 51 32.6765Z" fill="#FFE925"/>
<circle cx="19.965" cy="26.2907" r="1.38372" fill="#2F2E2E"/>
<circle cx="31.0348" cy="26.2907" r="1.38372" fill="#2F2E2E"/>
<path d="M27.542 31.6143L27.7453 31.2752L27.542 31.6143C27.5184 31.6001 27.4935 31.5885 27.4676 31.5796L27.5965 31.2058L27.4676 31.5796L26.8732 31.3745L25.6728 30.9744C25.5772 30.9425 25.473 30.9484 25.3816 30.9907L24.1403 31.5658C24.1218 31.5744 24.1041 31.5843 24.0872 31.5956L23.3837 32.0645C23.2429 32.1583 23.1982 32.305 23.2312 32.4145C23.5193 33.3706 24.0698 33.7721 24.5942 33.9548C25.0709 34.1209 25.5342 34.1124 25.8528 34.1065C25.9062 34.1056 25.9555 34.1047 26.0001 34.1047C26.4016 34.1047 27.6452 33.7528 28.1479 32.2378C28.1849 32.1264 28.1382 31.9719 27.984 31.8793L27.542 31.6143Z" fill="white" stroke="#2F2E2E" stroke-width="0.790698"/>
</svg>
