<svg width="9" height="12" viewBox="0 0 9 12" xmlns="http://www.w3.org/2000/svg">
<path d="M6.91155 6.00367L1.27849 1.35873C1.08689 1.20073 0.994154 1.01367 1.00029 0.797541C1.00642 0.581408 1.10554 0.394557 1.29765 0.236987C1.48925 0.0789957 1.71611 0 1.97822 0C2.24033 0 2.46693 0.0789957 2.65802 0.236987L8.54016 5.10312C8.69344 5.22952 8.8084 5.37171 8.88504 5.5297C8.96168 5.68769 9 5.84568 9 6.00367C9 6.16167 8.96168 6.31966 8.88504 6.47765C8.8084 6.63564 8.69344 6.77783 8.54016 6.90423L2.63885 11.7704C2.44725 11.9284 2.22372 12.0048 1.96825 11.9998C1.71278 11.9947 1.48925 11.913 1.29765 11.7546C1.10605 11.5966 1.01025 11.4095 1.01025 11.1934C1.01025 10.9772 1.10605 10.7904 1.29765 10.6328L6.91155 6.00367Z"/>
</svg>
