<svg width="177" height="183" viewBox="0 0 177 183" fill="none" xmlns="http://www.w3.org/2000/svg">
<path d="M25.6155 44.5295C37.6449 22.5295 42.59 8.44418 51.1161 4.52954C59.6421 0.614902 66.6249 34.6319 66.6249 34.6319L85.6117 34.0263C85.6117 34.0263 113.56 -2.29909 120.088 0.115229C126.615 2.52955 124.585 40.0819 124.585 40.0819C139.858 59.5764 144.575 70.8124 145.57 91.554C145.57 91.554 149 96 149 111.5V117C149 118 145.305 131.97 144 135.5C142.305 137.47 149 144.514 160.5 148.5C172 152.486 174.5 160.5 168.5 164C162.5 167.5 161.5 168 151 162.5C140.5 157 135.582 142.873 135 144C135 148.905 122 163 116.5 161.5C116.5 161.5 75 190 71.5 167.486C71.4583 167.218 71.4203 166.955 71.3858 166.695C58.6896 169.021 16.8068 175.67 15.1605 162.5C12.6605 142.5 39.5 150 39.5 150C32.8551 147.468 16.8394 126.774 16 122L14.0001 115.5L13.0001 109C13.0001 109 12.5 100.5 15.1605 91.5295C17.821 82.5591 13.586 66.5296 25.6155 44.5295Z" fill="#FFE925"/>
<circle cx="63.5" cy="67.5" r="3.5" fill="#2F2E2E"/>
<circle cx="91.5" cy="67.5" r="3.5" fill="#2F2E2E"/>
<path d="M88 152.5C86.2022 151.799 82.4051 151.845 80.4814 152.101C78.5577 152.357 76.7393 153.094 75.211 154.239C73.6828 155.383 72.4992 156.893 71.7806 158.615C71.0619 160.338 70.8339 162.211 71.1197 164.045C71.4055 165.879 72.9223 165.395 72.6774 163.824C72.4325 162.253 72.6279 160.647 73.2436 159.172C73.8594 157.696 74.8735 156.402 76.183 155.421C77.4924 154.441 79.0505 153.809 80.6988 153.59C82.3471 153.37 85.4596 152.899 87 153.5C88.5404 154.102 89.7978 153.202 88 152.5Z" fill="black"/>
<path d="M46 100.094C50.4128 96.0634 58.3215 95.9999 60.2467 95.9999C61.4018 95.9999 68 95.4998 73 100.094L73 128.5C73 130.994 71.5 131 71.5 131C71.5 131 71.0041 132.184 70 132.5C68.2355 133.055 63.4373 133.882 59 134C54.3373 134.124 53.5 133.5 49.5122 132.945C48.3218 132.779 47.5 130.423 47.5 130.423C47.5 130.423 46.9975 131.401 46.7701 129.447C46 122.832 46.3007 111.557 46 100.094Z" fill="#8BA358"/>
<path d="M46 100.094C50.4128 96.0634 58.3215 95.9999 60.2467 95.9999C61.4018 95.9999 68 95.4998 73 100.094M46 100.094C53.5 103 60.2467 102.5 60.2467 102.5C60.2467 102.5 68 102.5 73 100.094M46 100.094C46.3007 111.557 46 122.832 46.7701 129.447C46.9975 131.401 47.5 130.423 47.5 130.423M73 100.094C73 111.162 73 117.366 73 128.5C73 130.994 71.5 131 71.5 131M47.5 130.423C47.5 130.423 48.3218 132.779 49.5122 132.945C53.5 133.5 54.3373 134.124 59 134C63.4373 133.882 68.2355 133.055 70 132.5C71.0041 132.184 71.5 131 71.5 131M47.5 130.423L53 131.5L58.5 132L65 131.5L71.5 131" stroke="#295C00" stroke-opacity="0.73"/>
<path d="M33.5 104C36.2135 104 38.885 104.426 41.2781 105.24C43.6711 106.054 45.7118 107.231 47.2193 108.667C48.7268 110.102 49.6546 111.752 49.9206 113.471C50.1865 115.189 49.7824 116.923 48.744 118.518C47.7056 120.113 46.065 121.521 43.9675 122.617C41.87 123.712 39.3803 124.461 36.719 124.798C34.0577 125.135 31.3069 125.049 28.7103 124.548C26.1137 124.047 23.7515 123.146 21.8328 121.925C19.9141 120.704 21.3973 120.026 23.1065 121.114C24.8158 122.202 26.9201 123.004 29.2332 123.451C31.5464 123.897 33.9968 123.974 36.3676 123.674C38.7383 123.374 40.9562 122.706 42.8247 121.73C44.6932 120.755 46.1547 119.501 47.0797 118.079C48.0048 116.658 48.3648 115.114 48.1278 113.583C47.8909 112.052 47.0644 110.582 45.7214 109.303C44.3785 108.024 42.5607 106.976 40.4289 106.251C38.2971 105.526 35.9172 105.146 33.5 105.146C31.0828 105.146 30.7866 104 33.5 104Z" fill="black"/>
<path d="M87.5 109C84.7865 109 82.115 109.426 79.7219 110.24C77.3289 111.054 75.2882 112.231 73.7807 113.667C72.2732 115.102 71.3454 116.752 71.0794 118.471C70.8135 120.189 71.2176 121.923 72.256 123.518C73.2944 125.113 74.935 126.521 77.0325 127.617C79.13 128.712 81.6197 129.461 84.281 129.798C86.9423 130.135 89.6931 130.049 92.2897 129.548C94.8863 129.047 97.2485 128.146 99.1672 126.925C101.086 125.704 99.6027 125.026 97.8935 126.114C96.1842 127.202 94.0799 128.004 91.7668 128.451C89.4536 128.897 87.0032 128.974 84.6324 128.674C82.2617 128.374 80.0438 127.706 78.1753 126.73C76.3068 125.755 74.8453 124.501 73.9203 123.079C72.9952 121.658 72.6352 120.114 72.8722 118.583C73.1091 117.052 73.9356 115.582 75.2786 114.303C76.6215 113.024 78.4393 111.976 80.5711 111.251C82.7029 110.526 85.0828 110.146 87.5 110.146C89.9172 110.146 90.2134 109 87.5 109Z" fill="black"/>
<path d="M86.9285 110C84.4735 110 82.0564 110.385 79.8913 111.122C78.4919 112.036 76.006 113.141 74.6421 114.44C73.2782 115.739 72.7406 117.116 72.5 118.67C72.2594 120.225 72.8637 121.365 73.5 123C74.4395 124.443 75.6022 125.509 77.5 126.5C79.3978 127.491 81.6083 128.513 84.0161 128.817C86.424 129.122 88.9128 129.044 91.2621 128.591C93.6114 128.137 95.7487 127.322 97.4846 126.218C99.2206 125.113 97.8786 124.5 96.3321 125.484C94.7857 126.468 92.8818 127.194 90.7889 127.598C88.6961 128.002 86.479 128.072 84.3341 127.8C82.1891 127.529 80.1825 126.925 78.4919 126.042C76.8013 125.159 75.479 124.024 74.6421 122.739C73.8052 121.453 73.4795 120.056 73.6938 118.67C73.9082 117.285 74.656 115.955 75.871 114.798C77.0861 113.641 78.7308 112.693 80.6596 112.036C82.5883 111.38 84.7415 111.037 86.9285 111.037C89.1155 111.037 89.3835 110 86.9285 110Z" fill="#FFE925"/>
<path d="M33.3725 105C35.8275 105 38.2446 105.385 40.4098 106.122C42.5749 106.858 44.4212 107.923 45.7851 109.222C47.1491 110.521 47.9885 112.014 48.2292 113.569C48.4698 115.124 48.1042 116.692 47.1647 118.135C46.2252 119.579 44.7408 120.852 42.8431 121.844C40.9453 122.835 38.6928 123.513 36.2849 123.817C33.8771 124.122 31.3883 124.044 29.039 123.591C26.6897 123.137 24.5524 122.322 22.8164 121.218C21.0804 120.113 22.4224 119.5 23.9689 120.484C25.5153 121.468 27.4193 122.194 29.5121 122.598C31.6049 123.002 33.822 123.072 35.9669 122.8C38.1119 122.529 40.1186 121.925 41.8091 121.042C43.4997 120.159 43.5931 118.286 44.43 117C45.2669 115.714 44.6443 114.954 44.43 113.569C44.2156 112.184 45.645 110.955 44.43 109.798C43.215 108.641 41.5702 107.693 39.6415 107.036C37.7127 106.38 35.5595 106.037 33.3725 106.037C31.1855 106.037 30.9175 105 33.3725 105Z" fill="#FFE925"/>
<path d="M58.5 97.0327C53.739 97.0327 47.5 100 47.5 100C47.5 100 52 101.5 59 101.5C66.5002 101.5 72 100.5 72 100.5C72 100.5 68.3737 97.0327 58.5 97.0327Z" fill="#295C00" fill-opacity="0.4"/>
<path d="M77.5098 81.7016C78.1869 81.7016 80.2839 81.1082 81.1316 78.5536L81.7643 78.7635L81.1316 78.5536C81.1939 78.3657 81.1153 78.1051 80.8551 77.9491L80.1098 77.5021C80.0701 77.4783 80.0281 77.4587 79.9843 77.4436L78.982 77.0978L76.9579 76.4231C76.7966 76.3694 76.621 76.3792 76.4668 76.4507L74.3736 77.4204C74.3425 77.4348 74.3126 77.4516 74.2841 77.4705L73.0978 78.2613C72.8604 78.4194 72.7851 78.6669 72.8407 78.8515C73.3265 80.4637 74.2548 81.1408 75.1391 81.4489C75.943 81.729 76.7242 81.7146 77.2615 81.7047C77.3514 81.7031 77.4346 81.7016 77.5098 81.7016Z" fill="white" stroke="#2F2E2E" stroke-width="1.33333"/>
<path d="M58.5 98.5003C54.9085 98.7539 49 100.5 49 100.5C49 100.5 52.5 102 59.5 102C67.0002 102 70.5 100.5 70.5 100.5C70.5 100.5 63.211 98.1675 58.5 98.5003Z" fill="#88C700"/>
<path d="M67.4999 101C66.9999 100.5 65.8251 100.448 65.5072 99.9658C65.1894 99.4837 63.9905 99.8049 63.5001 99.4998C63.0097 99.1948 62.389 99.4064 61.816 99.3344C61.243 99.2624 61.1603 99.3345 60.5 99.4998C59.8398 99.665 61.5001 99.9998 62.0001 99.9998C62.5001 99.9998 63.0002 100.5 63.0002 100.5L63.0002 101L61.5 102C61.5 102 65.9999 102 66.9999 101.5C67.5669 101.216 67.4999 101 67.4999 101Z" fill="#AEFF02"/>
<path d="M50.2767 108.02C53.262 109.02 55.3645 110.174 60.2621 110.17C65.1694 110.166 68.262 109.02 70.2767 108.02C70.6265 107.847 70.6193 108.833 70.2767 109.02C67.2621 110.67 65.262 110.968 60.2621 111.319C55.262 110.968 56.262 111.17 50.2767 109.02C49.9091 108.888 49.9064 107.896 50.2767 108.02Z" fill="#295C00" fill-opacity="0.584314"/>
<path d="M50.2767 115.02C53.262 116.02 55.3645 117.174 60.2621 117.17C65.1694 117.166 68.262 116.02 70.2767 115.02C70.6265 114.847 70.6193 115.833 70.2767 116.02C67.2621 117.67 65.262 117.968 60.2621 118.319C55.262 117.968 56.262 118.17 50.2767 116.02C49.9091 115.888 49.9064 114.896 50.2767 115.02Z" fill="#295C00" fill-opacity="0.584314"/>
<path d="M50.2767 122.02C53.262 123.02 55.3645 124.174 60.2621 124.17C65.1694 124.166 68.262 123.02 70.2767 122.02C70.6265 121.847 70.6193 122.833 70.2767 123.02C67.2621 124.67 65.262 124.968 60.2621 125.319C55.262 124.968 56.262 125.17 50.2767 123.02C49.9091 122.888 49.9064 121.896 50.2767 122.02Z" fill="#295C00" fill-opacity="0.584314"/>
</svg>
